0
SECTION
2
HEADER
9
$INSUNITS
70
4
9
$ACADVER
1
AC1014
9
$HANDSEED
5
FFFF
0
ENDSEC
0
SECTION
2
TABLES
0
TABLE
2
VPORT
5
8
100
AcDbSymbolTable
0
ENDTAB
0
TABLE
2
LTYPE
5
5
100
AcDbSymbolTable
0
LTYPE
5
14
100
AcDbSymbolTableRecord
100
AcDbLinetypeTableRecord
2
BYBLOCK
70
0
0
LTYPE
5
15
100
AcDbSymbolTableRecord
100
AcDbLinetypeTableRecord
2
BYLAYER
70
0
0
ENDTAB
0
TABLE
2
LAYER
5
2
100
AcDbSymbolTable
70
2
0
LAYER
5
50
100
AcDbSymbolTableRecord
100
AcDbLayerTableRecord
2
0
70
0
6
CONTINUOUS
0
ENDTAB
0
TABLE
2
STYLE
5
3
100
AcDbSymbolTable
70
1
0
STYLE
5
11
100
AcDbSymbolTableRecord
100
AcDbTextStyleTableRecord
2
STANDARD
70
0
0
ENDTAB
0
TABLE
2
VIEW
5
6
100
AcDbSymbolTable
70
0
0
ENDTAB
0
TABLE
2
UCS
5
7
100
AcDbSymbolTable
70
0
0
ENDTAB
0
TABLE
2
APPID
5
9
100
AcDbSymbolTable
70
2
0
APPID
5
12
100
AcDbSymbolTableRecord
100
AcDbRegAppTableRecord
2
ACAD
70
0
0
ENDTAB
0
TABLE
2
DIMSTYLE
5
A
100
AcDbSymbolTable
70
1
0
ENDTAB
0
TABLE
2
BLOCK_RECORD
5
1
100
AcDbSymbolTable
70
1
0
BLOCK_RECORD
5
1F
100
AcDbSymbolTableRecord
100
AcDbBlockTableRecord
2
*MODEL_SPACE
0
BLOCK_RECORD
5
1B
100
AcDbSymbolTableRecord
100
AcDbBlockTableRecord
2
*PAPER_SPACE
0
ENDTAB
0
ENDSEC
0
SECTION
2
BLOCKS
0
BLOCK
5
20
100
AcDbEntity
100
AcDbBlockBegin
2
*MODEL_SPACE
0
ENDBLK
5
21
100
AcDbEntity
100
AcDbBlockEnd
0
BLOCK
5
1C
100
AcDbEntity
100
AcDbBlockBegin
2
*PAPER_SPACE
0
ENDBLK
5
1D
100
AcDbEntity
100
AcDbBlockEnd
0
ENDSEC
0
SECTION
2
ENTITIES
0
LINE
5
100
100
AcDbEntity
8
0
100
AcDbLine
10
-4.0493910014629364
20
82.5
30
0
11
-6.9012181460857391
21
82.5
31
0
0
LINE
5
101
100
AcDbEntity
8
0
100
AcDbLine
10
-6.9012181460857391
20
82.5
30
0
11
-6.9012181460857391
21
93.247631788253784
31
0
0
SPLINE
5
102
100
AcDbEntity
8
0
100
AcDbSpline
70
0
71
2
72
6
73
3
74
0
42
0.000000001
43
0.0000000001
44
0.0000000001
40
0
40
0
40
0
40
1
40
1
40
1
10
-6.9012181460857391
20
93.247631788253784
30
0
10
-8.4641407430171967
20
91.786196231842041
30
0
10
-10.58525025844574
20
91.085926294326782
30
0
0
LINE
5
103
100
AcDbEntity
8
0
100
AcDbLine
10
-10.58525025844574
20
91.085926294326782
30
0
11
-10.58525025844574
21
93.673882484436035
31
0
0
SPLINE
5
104
100
AcDbEntity
8
0
100
AcDbSpline
70
0
71
2
72
6
73
3
74
0
42
0.000000001
43
0.0000000001
44
0.0000000001
40
0
40
0
40
0
40
1
40
1
40
1
10
-10.58525025844574
20
93.673882484436035
30
0
10
-9.4688768684864044
20
94.039241075515747
30
0
10
-8.1596754491329193
20
95.059200525283813
30
0
0
SPLINE
5
105
100
AcDbEntity
8
0
100
AcDbSpline
70
0
71
2
72
6
73
3
74
0
42
0.000000001
43
0.0000000001
44
0.0000000001
40
0
40
0
40
0
40
1
40
1
40
1
10
-8.1596754491329193
20
95.059200525283813
30
0
10
-6.8504737317562103
20
96.07915997505188
30
0
10
-6.363329142332077
20
97.43910551071167
30
0
0
LINE
5
106
100
AcDbEntity
8
0
100
AcDbLine
10
-6.363329142332077
20
97.439105510711684
30
0
11
-4.0493910014629364
21
97.43910551071167
31
0
0
LINE
5
107
100
AcDbEntity
8
0
100
AcDbLine
10
-4.0493910014629364
20
97.43910551071167
30
0
11
-4.0493910014629364
21
82.5
31
0
0
LINE
5
108
100
AcDbEntity
8
0
100
AcDbLine
10
9.8545302450656891
20
85.148849487304688
30
0
11
9.8545302450656891
21
82.5
31
0
0
LINE
5
109
100
AcDbEntity
8
0
100
AcDbLine
10
9.8545302450656891
20
82.5
30
0
11
-0.14208421111106873
21
82.5
31
0
0
SPLINE
5
110
100
AcDbEntity
8
0
100
AcDbSpline
70
0
71
2
72
6
73
3
74
0
42
0.000000001
43
0.0000000001
44
0.0000000001
40
0
40
0
40
0
40
1
40
1
40
1
10
-0.14208421111106873
20
82.5
30
0
10
0.020297914743423462
20
84.002029895782471
30
0
10
0.83220496773719788
20
85.346752405166626
30
0
0
SPLINE
5
111
100
AcDbEntity
8
0
100
AcDbSpline
70
0
71
2
72
6
73
3
74
0
42
0.000000001
43
0.0000000001
44
0.0000000001
40
0
40
0
40
0
40
1
40
1
40
1
10
0.83220496773719788
20
85.346752405166626
30
0
10
1.6441132128238678
20
86.691474914550781
30
0
10
4.039241224527359
20
88.914072513580322
30
0
0
SPLINE
5
112
100
AcDbEntity
8
0
100
AcDbSpline
70
0
71
2
72
6
73
3
74
0
42
0.000000001
43
0.0000000001
44
0.0000000001
40
0
40
0
40
0
40
1
40
1
40
1
10
4.039241224527359
20
88.914072513580322
30
0
10
5.9675230085849762
20
90.710418224334717
30
0
10
6.4039231836795807
20
91.349797248840332
30
0
0
SPLINE
5
113
100
AcDbEntity
8
0
100
AcDbSpline
70
0
71
2
72
6
73
3
74
0
42
0.000000001
43
0.0000000001
44
0.0000000001
40
0
40
0
40
0
40
1
40
1
40
1
10
6.4039231836795807
20
91.349797248840332
30
0
10
6.9925571978092194
20
92.232747077941895
30
0
10
6.9925571978092194
20
93.09539794921875
30
0
0
SPLINE
5
114
100
AcDbEntity
8
0
100
AcDbSpline
70
0
71
2
72
6
73
3
74
0
42
0.000000001
43
0.0000000001
44
0.0000000001
40
0
40
0
40
0
40
1
40
1
40
1
10
6.9925571978092194
20
93.09539794921875
30
0
10
6.9925571978092194
20
94.049390554428101
30
0
10
6.4800406992435455
20
94.561907052993774
30
0
0
SPLINE
5
115
100
AcDbEntity
8
0
100
AcDbSpline
70
0
71
2
72
6
73
3
74
0
42
0.000000001
43
0.0000000001
44
0.0000000001
40
0
40
0
40
0
40
1
40
1
40
1
10
6.4800406992435455
20
94.561907052993774
30
0
10
5.9675230085849762
20
95.074423551559448
30
0
10
5.0642754137516022
20
95.074423551559448
30
0
0
SPLINE
5
116
100
AcDbEntity
8
0
100
AcDbSpline
70
0
71
2
72
6
73
3
74
0
42
0.000000001
43
0.0000000001
44
0.0000000001
40
0
40
0
40
0
40
1
40
1
40
1
10
5.0642754137516022
20
95.074423551559448
30
0
10
4.1711761057376862
20
95.074423551559448
30
0
10
3.6434365808963776
20
94.536534547805786
30
0
0
SPLINE
5
117
100
AcDbEntity
8
0
100
AcDbSpline
70
0
71
2
72
6
73
3
74
0
42
0.000000001
43
0.0000000001
44
0.0000000001
40
0
40
0
40
0
40
1
40
1
40
1
10
3.6434365808963776
20
94.536534547805786
30
0
10
3.115697056055069
20
93.998645544052124
30
0
10
3.0345059931278229
20
92.75033712387085
30
0
0
LINE
5
118
100
AcDbEntity
8
0
100
AcDbLine
10
3.0345059931278229
20
92.750337123870864
30
0
11
0.19282832741737366
21
93.034505844116211
31
0
0
SPLINE
5
119
100
AcDbEntity
8
0
100
AcDbSpline
70
0
71
2
72
6
73
3
74
0
42
0.000000001
43
0.0000000001
44
0.0000000001
40
0
40
0
40
0
40
1
40
1
40
1
10
0.19282832741737366
20
93.034505844116211
30
0
10
0.44654861092567444
20
95.389038324356079
30
0
10
1.7861975729465485
20
96.414072513580322
30
0
0
SPLINE
5
120
100
AcDbEntity
8
0
100
AcDbSpline
70
0
71
2
72
6
73
3
74
0
42
0.000000001
43
0.0000000001
44
0.0000000001
40
0
40
0
40
0
40
1
40
1
40
1
10
1.7861975729465485
20
96.414072513580322
30
0
10
3.125845342874527
20
97.43910551071167
30
0
10
5.1353169977664948
20
97.43910551071167
30
0
0
SPLINE
5
121
100
AcDbEntity
8
0
100
AcDbSpline
70
0
71
2
72
6
73
3
74
0
42
0.000000001
43
0.0000000001
44
0.0000000001
40
0
40
0
40
0
40
1
40
1
40
1
10
5.1353169977664948
20
97.43910551071167
30
0
10
7.3376180231571198
20
97.43910551071167
30
0
10
8.5960759222507477
20
96.25169038772583
30
0
0
SPLINE
5
122
100
AcDbEntity
8
0
100
AcDbSpline
70
0
71
2
72
6
73
3
74
0
42
0.000000001
43
0.0000000001
44
0.0000000001
40
0
40
0
40
0
40
1
40
1
40
1
10
8.5960759222507477
20
96.25169038772583
30
0
10
9.8545302450656891
20
95.06427526473999
30
0
10
9.8545302450656891
20
93.298375606536865
30
0
0
SPLINE
5
123
100
AcDbEntity
8
0
100
AcDbSpline
70
0
71
2
72
6
73
3
74
0
42
0.000000001
43
0.0000000001
44
0.0000000001
40
0
40
0
40
0
40
1
40
1
40
1
10
9.8545302450656891
20
93.298375606536865
30
0
10
9.8545302450656891
20
92.293639183044434
30
0
10
9.4942463934421539
20
91.385316848754883
30
0
0
SPLINE
5
124
100
AcDbEntity
8
0
100
AcDbSpline
70
0
71
2
72
6
73
3
74
0
42
0.000000001
43
0.0000000001
44
0.0000000001
40
0
40
0
40
0
40
1
40
1
40
1
10
9.4942463934421539
20
91.385316848754883
30
0
10
9.1339625418186188
20
90.476994514465332
30
0
10
8.3525027334690094
20
89.482407569885254
30
0
0
SPLINE
5
125
100
AcDbEntity
8
0
100
AcDbSpline
70
0
71
2
72
6
73
3
74
0
42
0.000000001
43
0.0000000001
44
0.0000000001
40
0
40
0
40
0
40
1
40
1
40
1
10
8.3525027334690094
20
89.482407569885254
30
0
10
7.8349103033542633
20
88.822733163833618
30
0
10
6.4851142466068268
20
87.584574222564697
30
0
0
SPLINE
5
126
100
AcDbEntity
8
0
100
AcDbSpline
70
0
71
2
72
6
73
3
74
0
42
0.000000001
43
0.0000000001
44
0.0000000001
40
0
40
0
40
0
40
1
40
1
40
1
10
6.4851142466068268
20
87.584574222564697
30
0
10
5.1353169977664948
20
86.346414089202881
30
0
10
4.7750331461429596
20
85.940459966659546
30
0
0
SPLINE
5
127
100
AcDbEntity
8
0
100
AcDbSpline
70
0
71
2
72
6
73
3
74
0
42
0.000000001
43
0.0000000001
44
0.0000000001
40
0
40
0
40
0
40
1
40
1
40
1
10
4.7750331461429596
20
85.940459966659546
30
0
10
4.4147492945194244
20
85.534505844116211
30
0
10
4.1914750635623932
20
85.148849487304688
30
0
0
LINE
5
128
100
AcDbEntity
8
0
100
AcDbLine
10
4.1914750635623932
20
85.148849487304702
30
0
11
9.8545302450656891
21
85.148849487304688
31
0
0
LINE
5
129
100
AcDbEntity
8
0
100
AcDbLine
10
48.070026785135305
20
70.442286340599452
30
0
11
45.218199640512502
21
70.442286340599452
31
0
0
LINE
5
130
100
AcDbEntity
8
0
100
AcDbLine
10
45.218199640512502
20
70.442286340599452
30
0
11
45.218199640512502
21
81.189918128853236
31
0
0
SPLINE
5
131
100
AcDbEntity
8
0
100
AcDbSpline
70
0
71
2
72
6
73
3
74
0
42
0.000000001
43
0.0000000001
44
0.0000000001
40
0
40
0
40
0
40
1
40
1
40
1
10
45.218199640512502
20
81.189918128853236
30
0
10
43.655277639627492
20
79.728482572441493
30
0
10
41.534168273210561
20
79.028212634926234
30
0
0
LINE
5
132
100
AcDbEntity
8
0
100
AcDbLine
10
41.534168273210561
20
79.028212634926234
30
0
11
41.534168273210561
21
81.616168825035487
31
0
0
SPLINE
5
133
100
AcDbEntity
8
0
100
AcDbSpline
70
0
71
2
72
6
73
3
74
0
42
0.000000001
43
0.0000000001
44
0.0000000001
40
0
40
0
40
0
40
1
40
1
40
1
10
41.534168273210561
20
81.616168825035487
30
0
10
42.650541216135061
20
81.981527416115199
30
0
10
43.95974293351177
20
83.001486865883265
30
0
0
SPLINE
5
134
100
AcDbEntity
8
0
100
AcDbSpline
70
0
71
2
72
6
73
3
74
0
42
0.000000001
43
0.0000000001
44
0.0000000001
40
0
40
0
40
0
40
1
40
1
40
1
10
43.95974293351177
20
83.001486865883265
30
0
10
45.268944650888479
20
84.021446315651332
30
0
10
45.756088644266164
20
85.381391851311122
30
0
0
LINE
5
135
100
AcDbEntity
8
0
100
AcDbLine
10
45.756088644266164
20
85.381391851311136
30
0
11
48.070026785135305
21
85.381391851311122
31
0
0
LINE
5
136
100
AcDbEntity
8
0
100
AcDbLine
10
48.070026785135305
20
85.381391851311122
30
0
11
48.070026785135305
21
70.442286340599452
31
0
0
LINE
5
137
100
AcDbEntity
8
0
100
AcDbLine
10
82.818808352654429
20
40.148849487304616
30
0
11
82.818808352654429
21
37.499999999999929
31
0
0
LINE
5
138
100
AcDbEntity
8
0
100
AcDbLine
10
82.818808352654429
20
37.499999999999929
30
0
11
72.82219151229188
21
37.499999999999929
31
0
0
SPLINE
5
139
100
AcDbEntity
8
0
100
AcDbSpline
70
0
71
2
72
6
73
3
74
0
42
0.000000001
43
0.0000000001
44
0.0000000001
40
0
40
0
40
0
40
1
40
1
40
1
10
72.82219151229188
20
37.499999999999929
30
0
10
72.984573042099925
20
39.0020298957824
30
0
10
73.796480691140147
20
40.346752405166555
30
0
0
SPLINE
5
140
100
AcDbEntity
8
0
100
AcDbSpline
70
0
71
2
72
6
73
3
74
0
42
0.000000001
43
0.0000000001
44
0.0000000001
40
0
40
0
40
0
40
1
40
1
40
1
10
73.796480691140147
20
40.346752405166555
30
0
10
74.608388936226817
20
41.69147491455071
30
0
10
77.003516947930308
20
43.914072513580251
30
0
0
SPLINE
5
141
100
AcDbEntity
8
0
100
AcDbSpline
70
0
71
2
72
6
73
3
74
0
42
0.000000001
43
0.0000000001
44
0.0000000001
40
0
40
0
40
0
40
1
40
1
40
1
10
77.003516947930308
20
43.914072513580251
30
0
10
78.931798731987925
20
45.710418224334646
30
0
10
79.36819890708253
20
46.349797248840261
30
0
0
SPLINE
5
142
100
AcDbEntity
8
0
100
AcDbSpline
70
0
71
2
72
6
73
3
74
0
42
0.000000001
43
0.0000000001
44
0.0000000001
40
0
40
0
40
0
40
1
40
1
40
1
10
79.36819890708253
20
46.349797248840261
30
0
10
79.956831729119273
20
47.232747077941823
30
0
10
79.956831729119273
20
48.095397949218679
30
0
0
SPLINE
5
143
100
AcDbEntity
8
0
100
AcDbSpline
70
0
71
2
72
6
73
3
74
0
42
0.000000001
43
0.0000000001
44
0.0000000001
40
0
40
0
40
0
40
1
40
1
40
1
10
79.956831729119273
20
48.095397949218679
30
0
10
79.956831729119273
20
49.04939055442803
30
0
10
79.444315230553599
20
49.561907052993703
30
0
0
SPLINE
5
144
100
AcDbEntity
8
0
100
AcDbSpline
70
0
71
2
72
6
73
3
74
0
42
0.000000001
43
0.0000000001
44
0.0000000001
40
0
40
0
40
0
40
1
40
1
40
1
10
79.444315230553599
20
49.561907052993703
30
0
10
78.931798731987925
20
50.074423551559377
30
0
10
78.028551137154551
20
50.074423551559377
30
0
0
SPLINE
5
145
100
AcDbEntity
8
0
100
AcDbSpline
70
0
71
2
72
6
73
3
74
0
42
0.000000001
43
0.0000000001
44
0.0000000001
40
0
40
0
40
0
40
1
40
1
40
1
10
78.028551137154551
20
50.074423551559377
30
0
10
77.135452425187083
20
50.074423551559377
30
0
10
76.607712304299326
20
49.536534547805715
30
0
0
SPLINE
5
146
100
AcDbEntity
8
0
100
AcDbSpline
70
0
71
2
72
6
73
3
74
0
42
0.000000001
43
0.0000000001
44
0.0000000001
40
0
40
0
40
0
40
1
40
1
40
1
10
76.607712304299326
20
49.536534547805715
30
0
10
76.07997218341157
20
48.998645544052053
30
0
10
75.998781716530772
20
47.750337123870779
30
0
0
LINE
5
147
100
AcDbEntity
8
0
100
AcDbLine
10
75.998781716530772
20
47.750337123870771
30
0
11
73.157103454773875
21
48.03450584411614
31
0
0
SPLINE
5
148
100
AcDbEntity
8
0
100
AcDbSpline
70
0
71
2
72
6
73
3
74
0
42
0.000000001
43
0.0000000001
44
0.0000000001
40
0
40
0
40
0
40
1
40
1
40
1
10
73.157103454773875
20
48.03450584411614
30
0
10
73.410824930375071
20
50.389038324356008
30
0
10
74.750473296349497
20
51.414072513580251
30
0
0
SPLINE
5
149
100
AcDbEntity
8
0
100
AcDbSpline
70
0
71
2
72
6
73
3
74
0
42
0.000000001
43
0.0000000001
44
0.0000000001
40
0
40
0
40
0
40
1
40
1
40
1
10
74.750473296349497
20
51.414072513580251
30
0
10
76.090121066277476
20
52.439105510711599
30
0
10
78.099593913262339
20
52.439105510711599
30
0
0
SPLINE
5
150
100
AcDbEntity
8
0
100
AcDbSpline
70
0
71
2
72
6
73
3
74
0
42
0.000000001
43
0.0000000001
44
0.0000000001
40
0
40
0
40
0
40
1
40
1
40
1
10
78.099593913262339
20
52.439105510711599
30
0
10
80.301892554467173
20
52.439105510711599
30
0
10
81.560350453560801
20
51.251690387725759
30
0
0
SPLINE
5
151
100
AcDbEntity
8
0
100
AcDbSpline
70
0
71
2
72
6
73
3
74
0
42
0.000000001
43
0.0000000001
44
0.0000000001
40
0
40
0
40
0
40
1
40
1
40
1
10
81.560350453560801
20
51.251690387725759
30
0
10
82.818808352654429
20
50.064275264739919
30
0
10
82.818808352654429
20
48.298375606536794
30
0
0
SPLINE
5
152
100
AcDbEntity
8
0
100
AcDbSpline
70
0
71
2
72
6
73
3
74
0
42
0.000000001
43
0.0000000001
44
0.0000000001
40
0
40
0
40
0
40
1
40
1
40
1
10
82.818808352654429
20
48.298375606536794
30
0
10
82.818808352654429
20
47.293639183044363
30
0
10
82.458524501030894
20
46.385316848754812
30
0
0
SPLINE
5
153
100
AcDbEntity
8
0
100
AcDbSpline
70
0
71
2
72
6
73
3
74
0
42
0.000000001
43
0.0000000001
44
0.0000000001
40
0
40
0
40
0
40
1
40
1
40
1
10
82.458524501030894
20
46.385316848754812
30
0
10
82.098239457314463
20
45.476994514465261
30
0
10
81.316778456871958
20
44.482407569885183
30
0
0
SPLINE
5
154
100
AcDbEntity
8
0
100
AcDbSpline
70
0
71
2
72
6
73
3
74
0
42
0.000000001
43
0.0000000001
44
0.0000000001
40
0
40
0
40
0
40
1
40
1
40
1
10
81.316778456871958
20
44.482407569885183
30
0
10
80.799186026757212
20
43.822733163833547
30
0
10
79.449389970009776
20
42.584574222564626
30
0
0
SPLINE
5
155
100
AcDbEntity
8
0
100
AcDbSpline
70
0
71
2
72
6
73
3
74
0
42
0.000000001
43
0.0000000001
44
0.0000000001
40
0
40
0
40
0
40
1
40
1
40
1
10
79.449389970009776
20
42.584574222564626
30
0
10
78.099593913262339
20
41.34641408920281
30
0
10
77.739308869545908
20
40.940459966659475
30
0
0
SPLINE
5
156
100
AcDbEntity
8
0
100
AcDbSpline
70
0
71
2
72
6
73
3
74
0
42
0.000000001
43
0.0000000001
44
0.0000000001
40
0
40
0
40
0
40
1
40
1
40
1
10
77.739308869545908
20
40.940459966659475
30
0
10
77.379025017922373
20
40.53450584411614
30
0
10
77.155750190918894
20
40.148849487304616
30
0
0
LINE
5
157
100
AcDbEntity
8
0
100
AcDbLine
10
77.155750190918909
20
40.148849487304616
30
0
11
82.818808352654429
21
40.148849487304616
31
0
0
LINE
5
158
100
AcDbEntity
8
0
100
AcDbLine
10
84.940799325704575
20
-3.5520982742309837
30
0
11
87.701285928487778
21
-3.2171857357025413
31
0
0
SPLINE
5
159
100
AcDbEntity
8
0
100
AcDbSpline
70
0
71
2
72
6
73
3
74
0
42
0.000000001
43
0.0000000001
44
0.0000000001
40
0
40
0
40
0
40
1
40
1
40
1
10
87.701285928487778
20
-3.2171857357025413
30
0
10
87.833221405744553
20
-4.272665977478054
30
0
10
88.41170534491539
20
-4.8308527469635276
30
0
0
SPLINE
5
160
100
AcDbEntity
8
0
100
AcDbSpline
70
0
71
2
72
6
73
3
74
0
42
0.000000001
43
0.0000000001
44
0.0000000001
40
0
40
0
40
0
40
1
40
1
40
1
10
88.41170534491539
20
-4.8308527469635276
30
0
10
88.990189880132675
20
-5.3890395164490013
30
0
10
89.812247008085251
20
-5.3890395164490013
30
0
0
SPLINE
5
161
100
AcDbEntity
8
0
100
AcDbSpline
70
0
71
2
72
6
73
3
74
0
42
0.000000001
43
0.0000000001
44
0.0000000001
40
0
40
0
40
0
40
1
40
1
40
1
10
89.812247008085251
20
-5.3890395164490013
30
0
10
90.695196837186813
20
-5.3890395164490013
30
0
10
91.299052685499191
20
-4.719215631485012
30
0
0
SPLINE
5
162
100
AcDbEntity
8
0
100
AcDbSpline
70
0
71
2
72
6
73
3
74
0
42
0.000000001
43
0.0000000001
44
0.0000000001
40
0
40
0
40
0
40
1
40
1
40
1
10
91.299052685499191
20
-4.719215631485012
30
0
10
91.902909725904465
20
-4.0493917465210227
30
0
10
91.902909725904465
20
-2.912720441818264
30
0
0
SPLINE
5
163
100
AcDbEntity
8
0
100
AcDbSpline
70
0
71
2
72
6
73
3
74
0
42
0.000000001
43
0.0000000001
44
0.0000000001
40
0
40
0
40
0
40
1
40
1
40
1
10
91.902909725904465
20
-2.912720441818264
30
0
10
91.902909725904465
20
-1.8369424343109397
30
0
10
91.32442519068718
20
-1.2077140808105735
30
0
0
SPLINE
5
164
100
AcDbEntity
8
0
100
AcDbSpline
70
0
71
2
72
6
73
3
74
0
42
0.000000001
43
0.0000000001
44
0.0000000001
40
0
40
0
40
0
40
1
40
1
40
1
10
91.32442519068718
20
-1.2077140808105735
30
0
10
90.745940655469894
20
-0.5784845352173118
30
0
10
89.913735836744308
20
-0.5784845352173118
30
0
0
SPLINE
5
165
100
AcDbEntity
8
0
100
AcDbSpline
70
0
71
2
72
6
73
3
74
0
42
0.000000001
43
0.0000000001
44
0.0000000001
40
0
40
0
40
0
40
1
40
1
40
1
10
89.913735836744308
20
-0.5784845352173118
30
0
10
89.365697354078293
20
-0.5784845352173118
30
0
10
88.604533523321152
20
-0.79161167144778055
30
0
0
LINE
5
166
100
AcDbEntity
8
0
100
AcDbLine
10
88.604533523321152
20
-0.79161167144778055
30
0
11
88.919147700071335
21
1.5324759483337136
31
0
0
SPLINE
5
167
100
AcDbEntity
8
0
100
AcDbSpline
70
0
71
2
72
6
73
3
74
0
42
0.000000001
43
0.0000000001
44
0.0000000001
40
0
40
0
40
0
40
1
40
1
40
1
10
88.919147700071335
20
1.5324759483337136
30
0
10
90.076116770505905
20
1.5020287036895485
30
0
10
90.685048550367355
20
2.0348429679870339
30
0
0
SPLINE
5
168
100
AcDbEntity
8
0
100
AcDbSpline
70
0
71
2
72
6
73
3
74
0
42
0.000000001
43
0.0000000001
44
0.0000000001
40
0
40
0
40
0
40
1
40
1
40
1
10
90.685048550367355
20
2.0348429679870339
30
0
10
91.29397913813591
20
2.5676584243774148
30
0
10
91.29397913813591
20
3.4506082534789773
30
0
0
SPLINE
5
169
100
AcDbEntity
8
0
100
AcDbSpline
70
0
71
2
72
6
73
3
74
0
42
0.000000001
43
0.0000000001
44
0.0000000001
40
0
40
0
40
0
40
1
40
1
40
1
10
91.29397913813591
20
3.4506082534789773
30
0
10
91.29397913813591
20
4.2016232013702126
30
0
10
90.847429484128952
20
4.6481716632842751
30
0
0
SPLINE
5
170
100
AcDbEntity
8
0
100
AcDbSpline
70
0
71
2
72
6
73
3
74
0
42
0.000000001
43
0.0000000001
44
0.0000000001
40
0
40
0
40
0
40
1
40
1
40
1
10
90.847429484128952
20
4.6481716632842751
30
0
10
90.400879830121994
20
5.0947213172912331
30
0
10
89.660013169050217
20
5.0947213172912331
30
0
0
SPLINE
5
171
100
AcDbEntity
8
0
100
AcDbSpline
70
0
71
2
72
6
73
3
74
0
42
0.000000001
43
0.0000000001
44
0.0000000001
40
0
40
0
40
0
40
1
40
1
40
1
10
89.660013169050217
20
5.0947213172912331
30
0
10
88.929296582937241
20
5.0947213172912331
30
0
10
88.41170534491539
20
4.587279558181736
30
0
0
SPLINE
5
172
100
AcDbEntity
8
0
100
AcDbSpline
70
0
71
2
72
6
73
3
74
0
42
0.000000001
43
0.0000000001
44
0.0000000001
40
0
40
0
40
0
40
1
40
1
40
1
10
88.41170534491539
20
4.587279558181736
30
0
10
87.894114106893539
20
4.0798366069793435
30
0
10
87.782476395368576
20
3.1055474281310769
30
0
0
LINE
5
173
100
AcDbEntity
8
0
100
AcDbLine
10
87.782476395368576
20
3.1055474281310773
30
0
11
85.1539246737957
21
3.5520958900451394
31
0
0
SPLINE
5
174
100
AcDbEntity
8
0
100
AcDbSpline
70
0
71
2
72
6
73
3
74
0
42
0.000000001
43
0.0000000001
44
0.0000000001
40
0
40
0
40
0
40
1
40
1
40
1
10
85.1539246737957
20
3.5520958900451394
30
0
10
85.427943915128708
20
4.9018931388854714
30
0
10
85.981055945158005
20
5.7087266445159646
30
0
0
SPLINE
5
175
100
AcDbEntity
8
0
100
AcDbSpline
70
0
71
2
72
6
73
3
74
0
42
0.000000001
43
0.0000000001
44
0.0000000001
40
0
40
0
40
0
40
1
40
1
40
1
10
85.981055945158005
20
5.7087266445159646
30
0
10
86.534167975187302
20
6.5155601501464577
30
0
10
87.523681372404099
20
6.9773328304290505
30
0
0
SPLINE
5
176
100
AcDbEntity
8
0
100
AcDbSpline
70
0
71
2
72
6
73
3
74
0
42
0.000000001
43
0.0000000001
44
0.0000000001
40
0
40
0
40
0
40
1
40
1
40
1
10
87.523681372404099
20
6.9773328304290505
30
0
10
88.513193577528
20
7.4391055107116433
30
0
10
89.741204231977463
20
7.4391055107116433
30
0
0
SPLINE
5
177
100
AcDbEntity
8
0
100
AcDbSpline
70
0
71
2
72
6
73
3
74
0
42
0.000000001
43
0.0000000001
44
0.0000000001
40
0
40
0
40
0
40
1
40
1
40
1
10
89.741204231977463
20
7.4391055107116433
30
0
10
91.84201642870903
20
7.4391055107116433
30
0
10
93.110622614622116
20
6.0994577407836648
30
0
0
SPLINE
5
178
100
AcDbEntity
8
0
100
AcDbSpline
70
0
71
2
72
6
73
3
74
0
42
0.000000001
43
0.0000000001
44
0.0000000001
40
0
40
0
40
0
40
1
40
1
40
1
10
93.110622614622116
20
6.0994577407836648
30
0
10
94.155954569578171
20
5.003381967544529
30
0
10
94.155954569578171
20
3.6231386661529275
30
0
0
SPLINE
5
179
100
AcDbEntity
8
0
100
AcDbSpline
70
0
71
2
72
6
73
3
74
0
42
0.000000001
43
0.0000000001
44
0.0000000001
40
0
40
0
40
0
40
1
40
1
40
1
10
94.155954569578171
20
3.6231386661529275
30
0
10
94.155954569578171
20
1.6644096374511452
30
0
10
92.01454684138298
20
0.49729347229001242
30
0
0
SPLINE
5
180
100
AcDbEntity
8
0
100
AcDbSpline
70
0
71
2
72
6
73
3
74
0
42
0.000000001
43
0.0000000001
44
0.0000000001
40
0
40
0
40
0
40
1
40
1
40
1
10
92.01454684138298
20
0.49729347229001242
30
0
10
93.29330250620842
20
0.2232742309570046
30
0
10
94.05954048037529
20
-0.73071718215945047
30
0
0
SPLINE
5
181
100
AcDbEntity
8
0
100
AcDbSpline
70
0
71
2
72
6
73
3
74
0
42
0.000000001
43
0.0000000001
44
0.0000000001
40
0
40
0
40
0
40
1
40
1
40
1
10
94.05954048037529
20
-0.73071718215945047
30
0
10
94.82577845454216
20
-1.6847097873688011
30
0
10
94.82577845454216
20
-3.0345058441162376
30
0
0
SPLINE
5
182
100
AcDbEntity
8
0
100
AcDbSpline
70
0
71
2
72
6
73
3
74
0
42
0.000000001
43
0.0000000001
44
0.0000000001
40
0
40
0
40
0
40
1
40
1
40
1
10
94.82577845454216
20
-3.0345058441162376
30
0
10
94.82577845454216
20
-4.9932336807251243
30
0
10
93.394790142774582
20
-6.3734769821167259
30
0
0
SPLINE
5
183
100
AcDbEntity
8
0
100
AcDbSpline
70
0
71
2
72
6
73
3
74
0
42
0.000000001
43
0.0000000001
44
0.0000000001
40
0
40
0
40
0
40
1
40
1
40
1
10
93.394790142774582
20
-6.3734769821167259
30
0
10
91.963803023099899
20
-7.7537202835083274
30
0
10
89.832544773817062
20
-7.7537202835083274
30
0
0
SPLINE
5
184
100
AcDbEntity
8
0
100
AcDbSpline
70
0
71
2
72
6
73
3
74
0
42
0.000000001
43
0.0000000001
44
0.0000000001
40
0
40
0
40
0
40
1
40
1
40
1
10
89.832544773817062
20
-7.7537202835083274
30
0
10
87.812923640012741
20
-7.7537202835083274
30
0
10
86.483424156904221
20
-6.5916776657104759
30
0
0
SPLINE
5
185
100
AcDbEntity
8
0
100
AcDbSpline
70
0
71
2
72
6
73
3
74
0
42
0.000000001
43
0.0000000001
44
0.0000000001
40
0
40
0
40
0
40
1
40
1
40
1
10
86.483424156904221
20
-6.5916776657104759
30
0
10
85.1539246737957
20
-5.4296350479126243
30
0
10
84.940799325704575
20
-3.5520982742309837
30
0
0
LWPOLYLINE
5
186
100
AcDbEntity
8
0
100
AcDbPolyline
90
11
70
1
43
0.0
10
78.901352176522408
20
-52.494924068450963
10
78.901352176522408
20
-49.501013755798375
10
72.812042722558175
20
-49.501013755798375
10
72.812042722558175
20
-47.004396915435827
10
79.26671076760212
20
-37.555818557739293
10
81.661839971398507
20
-37.555818557739293
10
81.661839971398507
20
-46.994247436523473
10
83.508929500435983
20
-46.994247436523473
10
83.508929500435983
20
-49.501013755798375
10
81.661839971398507
20
-49.501013755798375
10
81.661839971398507
20
-52.494924068450963
0
LWPOLYLINE
5
187
100
AcDbEntity
8
0
100
AcDbPolyline
90
3
70
1
43
0.0
10
78.901352176522408
20
-46.994247436523473
10
78.901352176522408
20
-41.909674406051671
10
75.481189975594674
20
-46.994247436523473
0
LINE
5
188
100
AcDbEntity
8
0
100
AcDbLine
10
40.032138675451264
20
-81.519757120018454
30
0
11
42.873816341161714
21
-81.225440112953635
31
0
0
SPLINE
5
189
100
AcDbEntity
8
0
100
AcDbSpline
70
0
71
2
72
6
73
3
74
0
42
0.000000001
43
0.0000000001
44
0.0000000001
40
0
40
0
40
0
40
1
40
1
40
1
10
42.873816341161714
20
-81.225440112953635
30
0
10
42.995602935552583
20
-82.189581004982443
30
0
10
43.594384640455232
20
-82.752842513924094
30
0
0
SPLINE
5
190
100
AcDbEntity
8
0
100
AcDbSpline
70
0
71
2
72
6
73
3
74
0
42
0.000000001
43
0.0000000001
44
0.0000000001
40
0
40
0
40
0
40
1
40
1
40
1
10
43.594384640455232
20
-82.752842513924094
30
0
10
44.193167537450776
20
-83.316104022865744
30
0
10
44.974627345800386
20
-83.316104022865744
30
0
0
SPLINE
5
191
100
AcDbEntity
8
0
100
AcDbSpline
70
0
71
2
72
6
73
3
74
0
42
0.000000001
43
0.0000000001
44
0.0000000001
40
0
40
0
40
0
40
1
40
1
40
1
10
44.974627345800386
20
-83.316104022865744
30
0
10
45.867726653814302
20
-83.316104022865744
30
0
10
46.48680672049521
20
-82.590460388069602
30
0
0
SPLINE
5
192
100
AcDbEntity
8
0
100
AcDbSpline
70
0
71
2
72
6
73
3
74
0
42
0.000000001
43
0.0000000001
44
0.0000000001
40
0
40
0
40
0
40
1
40
1
40
1
10
46.48680672049521
20
-82.590460388069602
30
0
10
47.105886787176118
20
-81.864817945366354
30
0
10
47.105886787176118
20
-80.403383581047507
30
0
0
SPLINE
5
193
100
AcDbEntity
8
0
100
AcDbSpline
70
0
71
2
72
6
73
3
74
0
42
0.000000001
43
0.0000000001
44
0.0000000001
40
0
40
0
40
0
40
1
40
1
40
1
10
47.105886787176118
20
-80.403383581047507
30
0
10
47.105886787176118
20
-79.033289758568259
30
0
10
46.491880267858491
20
-78.348242847328635
30
0
0
SPLINE
5
194
100
AcDbEntity
8
0
100
AcDbSpline
70
0
71
2
72
6
73
3
74
0
42
0.000000001
43
0.0000000001
44
0.0000000001
40
0
40
0
40
0
40
1
40
1
40
1
10
46.491880267858491
20
-78.348242847328635
30
0
10
45.877876132726655
20
-77.663194743996115
30
0
10
44.893437474966035
20
-77.663194743996115
30
0
0
SPLINE
5
195
100
AcDbEntity
8
0
100
AcDbSpline
70
0
71
2
72
6
73
3
74
0
42
0.000000001
43
0.0000000001
44
0.0000000001
40
0
40
0
40
0
40
1
40
1
40
1
10
44.893437474966035
20
-77.663194743996115
30
0
10
43.665426820516572
20
-77.663194743996115
30
0
10
42.691137045621858
20
-78.749122230415793
30
0
0
LINE
5
196
100
AcDbEntity
8
0
100
AcDbLine
10
42.691137045621844
20
-78.749122230415793
30
0
11
40.377199500799165
21
-78.414209691887351
31
0
0
LINE
5
197
100
AcDbEntity
8
0
100
AcDbLine
10
40.377199500799165
20
-78.414209691887351
30
0
11
41.838633865118013
21
-70.670637695198508
31
0
0
LINE
5
198
100
AcDbEntity
8
0
100
AcDbLine
10
41.838633865118013
20
-70.670637695198508
30
0
11
49.37922820448874
21
-70.670637695198508
31
0
0
LINE
5
199
100
AcDbEntity
8
0
100
AcDbLine
10
49.37922820448874
20
-70.670637695198508
30
0
11
49.37922820448874
21
-73.339784948235007
31
0
0
LINE
5
200
100
AcDbEntity
8
0
100
AcDbLine
10
49.37922820448874
20
-73.339784948235007
30
0
11
44.000338762998567
21
-73.339784948235007
31
0
0
LINE
5
201
100
AcDbEntity
8
0
100
AcDbLine
10
44.000338762998567
20
-73.339784948235007
30
0
11
43.553789705038056
21
-75.866849033241721
31
0
0
SPLINE
5
202
100
AcDbEntity
8
0
100
AcDbSpline
70
0
71
2
72
6
73
3
74
0
42
0.000000001
43
0.0000000001
44
0.0000000001
40
0
40
0
40
0
40
1
40
1
40
1
10
43.553789705038056
20
-75.866849033241721
30
0
10
44.507781118154512
20
-75.389852134590598
30
0
10
45.50236806273459
20
-75.389852134590598
30
0
0
SPLINE
5
203
100
AcDbEntity
8
0
100
AcDbSpline
70
0
71
2
72
6
73
3
74
0
42
0.000000001
43
0.0000000001
44
0.0000000001
40
0
40
0
40
0
40
1
40
1
40
1
10
45.50236806273459
20
-75.389852134590598
30
0
10
47.400202602148042
20
-75.389852134590598
30
0
10
48.719553798437104
20
-76.770095435982199
30
0
0
SPLINE
5
204
100
AcDbEntity
8
0
100
AcDbSpline
70
0
71
2
72
6
73
3
74
0
42
0.000000001
43
0.0000000001
44
0.0000000001
40
0
40
0
40
0
40
1
40
1
40
1
10
48.719553798437104
20
-76.770095435982199
30
0
10
50.038903802633271
20
-78.150339929466696
30
0
10
50.038903802633271
20
-80.352639762764426
30
0
0
SPLINE
5
205
100
AcDbEntity
8
0
100
AcDbSpline
70
0
71
2
72
6
73
3
74
0
42
0.000000001
43
0.0000000001
44
0.0000000001
40
0
40
0
40
0
40
1
40
1
40
1
10
50.038903802633271
20
-80.352639762764426
30
0
10
50.038903802633271
20
-82.189581004982443
30
0
10
48.973274081945405
20
-83.630717603569479
30
0
0
SPLINE
5
206
100
AcDbEntity
8
0
100
AcDbSpline
70
0
71
2
72
6
73
3
74
0
42
0.000000001
43
0.0000000001
44
0.0000000001
40
0
40
0
40
0
40
1
40
1
40
1
10
48.973274081945405
20
-83.630717603569479
30
0
10
47.521989196538911
20
-85.599593726997824
30
0
10
44.944181293249116
20
-85.599593726997824
30
0
0
SPLINE
5
207
100
AcDbEntity
8
0
100
AcDbSpline
70
0
71
2
72
6
73
3
74
0
42
0.000000001
43
0.0000000001
44
0.0000000001
40
0
40
0
40
0
40
1
40
1
40
1
10
44.944181293249116
20
-85.599593726997824
30
0
10
42.883965224027619
20
-85.599593726997824
30
0
10
41.584912389516816
20
-84.49336966693923
30
0
0
SPLINE
5
208
100
AcDbEntity
8
0
100
AcDbSpline
70
0
71
2
72
6
73
3
74
0
42
0.000000001
43
0.0000000001
44
0.0000000001
40
0
40
0
40
0
40
1
40
1
40
1
10
41.584912389516816
20
-84.49336966693923
30
0
10
40.285860151052461
20
-83.387145606880637
30
0
10
40.032138675451264
20
-81.519757120018454
30
0
0
LINE
5
209
100
AcDbEntity
8
0
100
AcDbLine
10
4.7445870935916812
20
-86.265224218368544
30
0
11
1.9841004908084781
21
-86.569689512252822
31
0
0
SPLINE
5
210
100
AcDbEntity
8
0
100
AcDbSpline
70
0
71
2
72
6
73
3
74
0
42
0.000000001
43
0.0000000001
44
0.0000000001
40
0
40
0
40
0
40
1
40
1
40
1
10
1.9841004908084781
20
-86.569689512252822
30
0
10
1.8826116621494204
20
-85.717186927795424
30
0
10
1.456359773874274
20
-85.311232805252089
30
0
0
SPLINE
5
211
100
AcDbEntity
8
0
100
AcDbSpline
70
0
71
2
72
6
73
3
74
0
42
0.000000001
43
0.0000000001
44
0.0000000001
40
0
40
0
40
0
40
1
40
1
40
1
10
1.456359773874274
20
-85.311232805252089
30
0
10
1.030109077692023
20
-84.905278682708754
30
0
10
0.35013571381568021
20
-84.905278682708754
30
0
0
SPLINE
5
212
100
AcDbEntity
8
0
100
AcDbSpline
70
0
71
2
72
6
73
3
74
0
42
0.000000001
43
0.0000000001
44
0.0000000001
40
0
40
0
40
0
40
1
40
1
40
1
10
0.35013571381568021
20
-84.905278682708754
30
0
10
-0.55311188101769382
20
-84.905278682708754
30
0
10
-1.1772666871547788
20
-85.717186927795424
30
0
0
SPLINE
5
213
100
AcDbEntity
8
0
100
AcDbSpline
70
0
71
2
72
6
73
3
74
0
42
0.000000001
43
0.0000000001
44
0.0000000001
40
0
40
0
40
0
40
1
40
1
40
1
10
-1.1772666871547788
20
-85.717186927795424
30
0
10
-1.8014203011989682
20
-86.529093980789199
30
0
10
-1.9638024270534604
20
-89.096753597259536
30
0
0
SPLINE
5
214
100
AcDbEntity
8
0
100
AcDbSpline
70
0
71
2
72
6
73
3
74
0
42
0.000000001
43
0.0000000001
44
0.0000000001
40
0
40
0
40
0
40
1
40
1
40
1
10
-1.9638024270534604
20
-89.096753597259536
30
0
10
-0.89817270636559421
20
-87.838295698165908
30
0
10
0.68504825234412259
20
-87.838295698165908
30
0
0
SPLINE
5
215
100
AcDbEntity
8
0
100
AcDbSpline
70
0
71
2
72
6
73
3
74
0
42
0.000000001
43
0.0000000001
44
0.0000000001
40
0
40
0
40
0
40
1
40
1
40
1
10
0.68504825234412259
20
-87.838295698165908
30
0
10
2.4712444841861636
20
-87.838295698165908
30
0
10
3.7449254095554263
20
-89.198241233825698
30
0
0
SPLINE
5
216
100
AcDbEntity
8
0
100
AcDbSpline
70
0
71
2
72
6
73
3
74
0
42
0.000000001
43
0.0000000001
44
0.0000000001
40
0
40
0
40
0
40
1
40
1
40
1
10
3.7449254095554263
20
-89.198241233825698
30
0
10
5.018606334924689
20
-90.558187961578383
30
0
10
5.018606334924689
20
-92.709742784500136
30
0
0
SPLINE
5
217
100
AcDbEntity
8
0
100
AcDbSpline
70
0
71
2
72
6
73
3
74
0
42
0.000000001
43
0.0000000001
44
0.0000000001
40
0
40
0
40
0
40
1
40
1
40
1
10
5.018606334924689
20
-92.709742784500136
30
0
10
5.018606334924689
20
-94.993233680725112
30
0
10
3.6789585649967105
20
-96.373476982116713
30
0
0
SPLINE
5
218
100
AcDbEntity
8
0
100
AcDbSpline
70
0
71
2
72
6
73
3
74
0
42
0.000000001
43
0.0000000001
44
0.0000000001
40
0
40
0
40
0
40
1
40
1
40
1
10
3.6789585649967105
20
-96.373476982116713
30
0
10
2.339310795068732
20
-97.753720283508315
30
0
10
0.23849740624426907
20
-97.753720283508315
30
0
0
SPLINE
5
219
100
AcDbEntity
8
0
100
AcDbSpline
70
0
71
2
72
6
73
3
74
0
42
0.000000001
43
0.0000000001
44
0.0000000001
40
0
40
0
40
0
40
1
40
1
40
1
10
0.23849740624426907
20
-97.753720283508315
30
0
10
-2.0145462453365415
20
-97.753720283508315
30
0
10
-3.4658317267894834
20
-96.00304484367372
30
0
0
SPLINE
5
220
100
AcDbEntity
8
0
100
AcDbSpline
70
0
71
2
72
6
73
3
74
0
42
0.000000001
43
0.0000000001
44
0.0000000001
40
0
40
0
40
0
40
1
40
1
40
1
10
-3.4658317267894834
20
-96.00304484367372
30
0
10
-4.9171172082424253
20
-94.25236821174623
30
0
10
-4.9171172082424253
20
-90.263870954513564
30
0
0
SPLINE
5
221
100
AcDbEntity
8
0
100
AcDbSpline
70
0
71
2
72
6
73
3
74
0
42
0.000000001
43
0.0000000001
44
0.0000000001
40
0
40
0
40
0
40
1
40
1
40
1
10
-4.9171172082424253
20
-90.263870954513564
30
0
10
-4.9171172082424253
20
-86.17388486862184
30
0
10
-3.4049390256404966
20
-84.367389678955092
30
0
0
SPLINE
5
222
100
AcDbEntity
8
0
100
AcDbSpline
70
0
71
2
72
6
73
3
74
0
42
0.000000001
43
0.0000000001
44
0.0000000001
40
0
40
0
40
0
40
1
40
1
40
1
10
-3.4049390256404966
20
-84.367389678955092
30
0
10
-1.8927602469921201
20
-82.560894489288344
30
0
10
0.5226661264896304
20
-82.560894489288344
30
0
0
SPLINE
5
223
100
AcDbEntity
8
0
100
AcDbSpline
70
0
71
2
72
6
73
3
74
0
42
0.000000001
43
0.0000000001
44
0.0000000001
40
0
40
0
40
0
40
1
40
1
40
1
10
0.5226661264896304
20
-82.560894489288344
30
0
10
2.2175242006778628
20
-82.560894489288344
30
0
10
3.3288218080997378
20
-83.509811162948623
30
0
0
SPLINE
5
224
100
AcDbEntity
8
0
100
AcDbSpline
70
0
71
2
72
6
73
3
74
0
42
0.000000001
43
0.0000000001
44
0.0000000001
40
0
40
0
40
0
40
1
40
1
40
1
10
3.3288218080997378
20
-83.509811162948623
30
0
10
4.4401217997074038
20
-84.458729028701796
30
0
10
4.7445870935916812
20
-86.265224218368544
30
0
0
SPLINE
5
225
100
AcDbEntity
8
0
100
AcDbSpline
70
0
71
2
72
6
73
3
74
0
42
0.000000001
43
0.0000000001
44
0.0000000001
40
0
40
0
40
0
40
1
40
1
40
1
10
-1.7202298343181699
20
-92.486468553543105
30
0
10
-1.7202298343181699
20
-93.876860141754165
30
0
10
-1.0808525979518979
20
-94.632949829101577
30
0
0
SPLINE
5
226
100
AcDbEntity
8
0
100
AcDbSpline
70
0
71
2
72
6
73
3
74
0
42
0.000000001
43
0.0000000001
44
0.0000000001
40
0
40
0
40
0
40
1
40
1
40
1
10
-1.0808525979518979
20
-94.632949829101577
30
0
10
-0.44147476553917819
20
-95.389039516448989
30
0
10
0.38058176636694974
20
-95.389039516448989
30
0
0
SPLINE
5
227
100
AcDbEntity
8
0
100
AcDbSpline
70
0
71
2
72
6
73
3
74
0
42
0.000000001
43
0.0000000001
44
0.0000000001
40
0
40
0
40
0
40
1
40
1
40
1
10
0.38058176636694974
20
-95.389039516448989
30
0
10
1.1721922457218081
20
-95.389039516448989
30
0
10
1.6999317705631167
20
-94.769959449768081
30
0
0
SPLINE
5
228
100
AcDbEntity
8
0
100
AcDbSpline
70
0
71
2
72
6
73
3
74
0
42
0.000000001
43
0.0000000001
44
0.0000000001
40
0
40
0
40
0
40
1
40
1
40
1
10
1.6999317705631167
20
-94.769959449768081
30
0
10
2.2276724874973208
20
-94.150879383087172
30
0
10
2.2276724874973208
20
-92.740190029144301
30
0
0
SPLINE
5
229
100
AcDbEntity
8
0
100
AcDbSpline
70
0
71
2
72
6
73
3
74
0
42
0.000000001
43
0.0000000001
44
0.0000000001
40
0
40
0
40
0
40
1
40
1
40
1
10
2.2276724874973208
20
-92.740190029144301
30
0
10
2.2276724874973208
20
-91.288905143737807
30
0
10
1.6593362390994937
20
-90.614006519317641
30
0
0
SPLINE
5
230
100
AcDbEntity
8
0
100
AcDbSpline
70
0
71
2
72
6
73
3
74
0
42
0.000000001
43
0.0000000001
44
0.0000000001
40
0
40
0
40
0
40
1
40
1
40
1
10
1.6593362390994937
20
-90.614006519317641
30
0
10
1.091001182794562
20
-89.939107894897475
30
0
10
0.23849740624426907
20
-89.939107894897475
30
0
0
SPLINE
5
231
100
AcDbEntity
8
0
100
AcDbSpline
70
0
71
2
72
6
73
3
74
0
42
0.000000001
43
0.0000000001
44
0.0000000001
40
0
40
0
40
0
40
1
40
1
40
1
10
0.23849740624426907
20
-89.939107894897475
30
0
10
-0.58355793356896335
20
-89.939107894897475
30
0
10
-1.1518941819667905
20
-90.583560466766372
30
0
0
SPLINE
5
232
100
AcDbEntity
8
0
100
AcDbSpline
70
0
71
2
72
6
73
3
74
0
42
0.000000001
43
0.0000000001
44
0.0000000001
40
0
40
0
40
0
40
1
40
1
40
1
10
-1.1518941819667905
20
-90.583560466766372
30
0
10
-1.7202298343181699
20
-91.228010654449477
30
0
10
-1.7202298343181699
20
-92.486468553543105
30
0
0
LINE
5
233
100
AcDbEntity
8
0
100
AcDbLine
10
-50.013531222939505
20
-73.319487182503153
30
0
11
-50.013531222939505
21
-70.670637695198465
31
0
0
LINE
5
234
100
AcDbEntity
8
0
100
AcDbLine
10
-50.013531222939505
20
-70.670637695198465
30
0
11
-40.260486379265799
21
-70.670637695198465
31
0
0
LINE
5
235
100
AcDbEntity
8
0
100
AcDbLine
10
-40.260486379265799
20
-70.670637695198465
30
0
11
-40.260486379265799
21
-72.741002647285868
31
0
0
SPLINE
5
236
100
AcDbEntity
8
0
100
AcDbSpline
70
0
71
2
72
6
73
3
74
0
42
0.000000001
43
0.0000000001
44
0.0000000001
40
0
40
0
40
0
40
1
40
1
40
1
10
-40.260486379265799
20
-72.741002647285868
30
0
10
-41.468200460076346
20
-73.928417770271707
30
0
10
-42.716508880257621
20
-76.151015369301248
30
0
0
SPLINE
5
237
100
AcDbEntity
8
0
100
AcDbSpline
70
0
71
2
72
6
73
3
74
0
42
0.000000001
43
0.0000000001
44
0.0000000001
40
0
40
0
40
0
40
1
40
1
40
1
10
-42.716508880257621
20
-76.151015369301248
30
0
10
-43.964817300438895
20
-78.373614160423685
30
0
10
-44.61941815912725
20
-80.875305740242425
30
0
0
SPLINE
5
238
100
AcDbEntity
8
0
100
AcDbSpline
70
0
71
2
72
6
73
3
74
0
42
0.000000001
43
0.0000000001
44
0.0000000001
40
0
40
0
40
0
40
1
40
1
40
1
10
-44.61941815912725
20
-80.875305740242425
30
0
10
-45.274019017815604
20
-83.376996127968255
30
0
10
-45.263869538903251
20
-85.345873443489495
30
0
0
LINE
5
239
100
AcDbEntity
8
0
100
AcDbLine
10
-45.263869538903251
20
-85.345873443489509
30
0
11
-48.014207854866996
21
-85.345873443489495
31
0
0
SPLINE
5
240
100
AcDbEntity
8
0
100
AcDbSpline
70
0
71
2
72
6
73
3
74
0
42
0.000000001
43
0.0000000001
44
0.0000000001
40
0
40
0
40
0
40
1
40
1
40
1
10
-48.014207854866996
20
-85.345873443489495
30
0
10
-47.943166270852103
20
-82.260622588997308
30
0
10
-46.740527525544181
20
-79.053587524300028
30
0
0
SPLINE
5
241
100
AcDbEntity
8
0
100
AcDbSpline
70
0
71
2
72
6
73
3
74
0
42
0.000000001
43
0.0000000001
44
0.0000000001
40
0
40
0
40
0
40
1
40
1
40
1
10
-46.740527525544181
20
-79.053587524300028
30
0
10
-45.537888780236258
20
-75.846550075416971
30
0
10
-43.528415933251395
20
-73.319487182503153
30
0
0
LINE
5
242
100
AcDbEntity
8
0
100
AcDbLine
10
-43.528415933251395
20
-73.319487182503153
30
0
11
-50.013531222939505
21
-73.319487182503153
31
0
0
SPLINE
5
243
100
AcDbEntity
8
0
100
AcDbSpline
70
0
71
2
72
6
73
3
74
0
42
0.000000001
43
0.0000000001
44
0.0000000001
40
0
40
0
40
0
40
1
40
1
40
1
10
-80.454127026801544
20
-44.472260475158691
30
0
10
-81.560351682906585
20
-44.005413055419922
30
0
10
-82.062719298606353
20
-43.188431262969971
30
0
0
SPLINE
5
244
100
AcDbEntity
8
0
100
AcDbSpline
70
0
71
2
72
6
73
3
74
0
42
0.000000001
43
0.0000000001
44
0.0000000001
40
0
40
0
40
0
40
1
40
1
40
1
10
-82.062719298606353
20
-43.188431262969971
30
0
10
-82.565087510352569
20
-42.371448278427124
30
0
10
-82.565087510352569
20
-41.397159099578857
30
0
0
SPLINE
5
245
100
AcDbEntity
8
0
100
AcDbSpline
70
0
71
2
72
6
73
3
74
0
42
0.000000001
43
0.0000000001
44
0.0000000001
40
0
40
0
40
0
40
1
40
1
40
1
10
-82.565087510352569
20
-41.397159099578857
30
0
10
-82.565087510352569
20
-39.732747077941895
30
0
10
-81.40304429650827
20
-38.646820783615112
30
0
0
SPLINE
5
246
100
AcDbEntity
8
0
100
AcDbSpline
70
0
71
2
72
6
73
3
74
0
42
0.000000001
43
0.0000000001
44
0.0000000001
40
0
40
0
40
0
40
1
40
1
40
1
10
-81.40304429650827
20
-38.646820783615112
30
0
10
-80.241001082663971
20
-37.560893297195435
30
0
10
-78.099593950515228
20
-37.560893297195435
30
0
0
SPLINE
5
247
100
AcDbEntity
8
0
100
AcDbSpline
70
0
71
2
72
6
73
3
74
0
42
0.000000001
43
0.0000000001
44
0.0000000001
40
0
40
0
40
0
40
1
40
1
40
1
10
-78.099593950515228
20
-37.560893297195435
30
0
10
-75.978483988051849
20
-37.560893297195435
30
0
10
-74.806291891341644
20
-38.646820783615112
30
0
0
SPLINE
5
248
100
AcDbEntity
8
0
100
AcDbSpline
70
0
71
2
72
6
73
3
74
0
42
0.000000001
43
0.0000000001
44
0.0000000001
40
0
40
0
40
0
40
1
40
1
40
1
10
-74.806291891341644
20
-38.646820783615112
30
0
10
-73.634099794631439
20
-39.732747077941895
30
0
10
-73.634099794631439
20
-41.397159099578857
30
0
0
SPLINE
5
249
100
AcDbEntity
8
0
100
AcDbSpline
70
0
71
2
72
6
73
3
74
0
42
0.000000001
43
0.0000000001
44
0.0000000001
40
0
40
0
40
0
40
1
40
1
40
1
10
-73.634099794631439
20
-41.397159099578857
30
0
10
-73.634099794631439
20
-42.432341575622559
30
0
10
-74.171988798385101
20
-43.239176273345947
30
0
0
SPLINE
5
250
100
AcDbEntity
8
0
100
AcDbSpline
70
0
71
2
72
6
73
3
74
0
42
0.000000001
43
0.0000000001
44
0.0000000001
40
0
40
0
40
0
40
1
40
1
40
1
10
-74.171988798385101
20
-43.239176273345947
30
0
10
-74.709877802138763
20
-44.046008586883545
30
0
10
-75.684168173079925
20
-44.472260475158691
30
0
0
SPLINE
5
251
100
AcDbEntity
8
0
100
AcDbSpline
70
0
71
2
72
6
73
3
74
0
42
0.000000001
43
0.0000000001
44
0.0000000001
40
0
40
0
40
0
40
1
40
1
40
1
10
-75.684168173079925
20
-44.472260475158691
30
0
10
-74.446008039718109
20
-44.96955394744873
30
0
10
-73.801556659942108
20
-45.923545360565186
30
0
0
SPLINE
5
252
100
AcDbEntity
8
0
100
AcDbSpline
70
0
71
2
72
6
73
3
74
0
42
0.000000001
43
0.0000000001
44
0.0000000001
40
0
40
0
40
0
40
1
40
1
40
1
10
-73.801556659942108
20
-45.923545360565186
30
0
10
-73.157104088073211
20
-46.877537965774536
30
0
10
-73.157104088073211
20
-48.125846385955811
30
0
0
SPLINE
5
253
100
AcDbEntity
8
0
100
AcDbSpline
70
0
71
2
72
6
73
3
74
0
42
0.000000001
43
0.0000000001
44
0.0000000001
40
0
40
0
40
0
40
1
40
1
40
1
10
-73.157104088073211
20
-48.125846385955811
30
0
10
-73.157104088073211
20
-50.186061859130859
30
0
10
-74.471380544906097
20
-51.474967002868652
30
0
0
SPLINE
5
254
100
AcDbEntity
8
0
100
AcDbSpline
70
0
71
2
72
6
73
3
74
0
42
0.000000001
43
0.0000000001
44
0.0000000001
40
0
40
0
40
0
40
1
40
1
40
1
10
-74.471380544906097
20
-51.474967002868652
30
0
10
-75.785655809646087
20
-52.763869762420654
30
0
10
-77.967659069304901
20
-52.763869762420654
30
0
0
SPLINE
5
255
100
AcDbEntity
8
0
100
AcDbSpline
70
0
71
2
72
6
73
3
74
0
42
0.000000001
43
0.0000000001
44
0.0000000001
40
0
40
0
40
0
40
1
40
1
40
1
10
-77.967659069304901
20
-52.763869762420654
30
0
10
-79.99742848992868
20
-52.763869762420654
30
0
10
-81.347225738769012
20
-51.698241233825684
30
0
0
SPLINE
5
256
100
AcDbEntity
8
0
100
AcDbSpline
70
0
71
2
72
6
73
3
74
0
42
0.000000001
43
0.0000000001
44
0.0000000001
40
0
40
0
40
0
40
1
40
1
40
1
10
-81.347225738769012
20
-51.698241233825684
30
0
10
-82.940594984298187
20
-50.439783334732056
30
0
10
-82.940594984298187
20
-48.247631788253784
30
0
0
SPLINE
5
257
100
AcDbEntity
8
0
100
AcDbSpline
70
0
71
2
72
6
73
3
74
0
42
0.000000001
43
0.0000000001
44
0.0000000001
40
0
40
0
40
0
40
1
40
1
40
1
10
-82.940594984298187
20
-48.247631788253784
30
0
10
-82.940594984298187
20
-47.039918899536133
30
0
10
-82.34181268334909
20
-46.03010892868042
30
0
0
SPLINE
5
258
100
AcDbEntity
8
0
100
AcDbSpline
70
0
71
2
72
6
73
3
74
0
42
0.000000001
43
0.0000000001
44
0.0000000001
40
0
40
0
40
0
40
1
40
1
40
1
10
-82.34181268334909
20
-46.03010892868042
30
0
10
-81.743030382399994
20
-45.020298957824707
30
0
10
-80.454127026801544
20
-44.472260475158691
30
0
0
SPLINE
5
259
100
AcDbEntity
8
0
100
AcDbSpline
70
0
71
2
72
6
73
3
74
0
42
0.000000001
43
0.0000000001
44
0.0000000001
40
0
40
0
40
0
40
1
40
1
40
1
10
-79.865493608718353
20
-41.600135564804077
30
0
10
-79.865493608718353
20
-42.45263934135437
30
0
10
-79.383423162703949
20
-42.929635047912598
30
0
0
SPLINE
5
260
100
AcDbEntity
8
0
100
AcDbSpline
70
0
71
2
72
6
73
3
74
0
42
0.000000001
43
0.0000000001
44
0.0000000001
40
0
40
0
40
0
40
1
40
1
40
1
10
-79.383423162703949
20
-42.929635047912598
30
0
10
-78.901352716689544
20
-43.406631946563721
30
0
10
-78.099593950515228
20
-43.406631946563721
30
0
0
SPLINE
5
261
100
AcDbEntity
8
0
100
AcDbSpline
70
0
71
2
72
6
73
3
74
0
42
0.000000001
43
0.0000000001
44
0.0000000001
40
0
40
0
40
0
40
1
40
1
40
1
10
-78.099593950515228
20
-43.406631946563721
30
0
10
-77.287685705428558
20
-43.406631946563721
30
0
10
-76.800541712050872
20
-42.924561500549316
30
0
0
SPLINE
5
262
100
AcDbEntity
8
0
100
AcDbSpline
70
0
71
2
72
6
73
3
74
0
42
0.000000001
43
0.0000000001
44
0.0000000001
40
0
40
0
40
0
40
1
40
1
40
1
10
-76.800541712050872
20
-42.924561500549316
30
0
10
-76.313396526580291
20
-42.442489862442017
30
0
10
-76.313396526580291
20
-41.589987277984619
30
0
0
SPLINE
5
263
100
AcDbEntity
8
0
100
AcDbSpline
70
0
71
2
72
6
73
3
74
0
42
0.000000001
43
0.0000000001
44
0.0000000001
40
0
40
0
40
0
40
1
40
1
40
1
10
-76.313396526580291
20
-41.589987277984619
30
0
10
-76.313396526580291
20
-40.788227319717407
30
0
10
-76.795466972594696
20
-40.306158065795898
30
0
0
SPLINE
5
264
100
AcDbEntity
8
0
100
AcDbSpline
70
0
71
2
72
6
73
3
74
0
42
0.000000001
43
0.0000000001
44
0.0000000001
40
0
40
0
40
0
40
1
40
1
40
1
10
-76.795466972594696
20
-40.306158065795898
30
0
10
-77.2775374186091
20
-39.824087619781494
30
0
10
-78.069147897963958
20
-39.824087619781494
30
0
0
SPLINE
5
265
100
AcDbEntity
8
0
100
AcDbSpline
70
0
71
2
72
6
73
3
74
0
42
0.000000001
43
0.0000000001
44
0.0000000001
40
0
40
0
40
0
40
1
40
1
40
1
10
-78.069147897963958
20
-39.824087619781494
30
0
10
-78.891203833823639
20
-39.824087619781494
30
0
10
-79.37834901929422
20
-40.31123161315918
30
0
0
SPLINE
5
266
100
AcDbEntity
8
0
100
AcDbSpline
70
0
71
2
72
6
73
3
74
0
42
0.000000001
43
0.0000000001
44
0.0000000001
40
0
40
0
40
0
40
1
40
1
40
1
10
-79.37834901929422
20
-40.31123161315918
30
0
10
-79.865493608718353
20
-40.798376798629761
30
0
10
-79.865493608718353
20
-41.600135564804077
30
0
0
SPLINE
5
267
100
AcDbEntity
8
0
100
AcDbSpline
70
0
71
2
72
6
73
3
74
0
42
0.000000001
43
0.0000000001
44
0.0000000001
40
0
40
0
40
0
40
1
40
1
40
1
10
-80.129363371139007
20
-47.973613739013672
30
0
10
-80.129363371139007
20
-49.150879383087158
30
0
10
-79.525506926780182
20
-49.810554981231689
30
0
0
SPLINE
5
268
100
AcDbEntity
8
0
100
AcDbSpline
70
0
71
2
72
6
73
3
74
0
42
0.000000001
43
0.0000000001
44
0.0000000001
40
0
40
0
40
0
40
1
40
1
40
1
10
-79.525506926780182
20
-49.810554981231689
30
0
10
-78.921650482421356
20
-50.470230579376221
30
0
10
-78.018402887587982
20
-50.470230579376221
30
0
0
SPLINE
5
269
100
AcDbEntity
8
0
100
AcDbSpline
70
0
71
2
72
6
73
3
74
0
42
0.000000001
43
0.0000000001
44
0.0000000001
40
0
40
0
40
0
40
1
40
1
40
1
10
-78.018402887587982
20
-50.470230579376221
30
0
10
-77.135453058486419
20
-50.470230579376221
30
0
10
-76.556968523269134
20
-49.835927486419678
30
0
0
SPLINE
5
270
100
AcDbEntity
8
0
100
AcDbSpline
70
0
71
2
72
6
73
3
74
0
42
0.000000001
43
0.0000000001
44
0.0000000001
40
0
40
0
40
0
40
1
40
1
40
1
10
-76.556968523269134
20
-49.835927486419678
30
0
10
-75.978483988051849
20
-49.201624393463135
30
0
10
-75.978483988051849
20
-48.004059791564941
30
0
0
SPLINE
5
271
100
AcDbEntity
8
0
100
AcDbSpline
70
0
71
2
72
6
73
3
74
0
42
0.000000001
43
0.0000000001
44
0.0000000001
40
0
40
0
40
0
40
1
40
1
40
1
10
-75.978483988051849
20
-48.004059791564941
30
0
10
-75.978483988051849
20
-46.958727836608887
30
0
10
-76.567118002181488
20
-46.324424743652344
30
0
0
SPLINE
5
272
100
AcDbEntity
8
0
100
AcDbSpline
70
0
71
2
72
6
73
3
74
0
42
0.000000001
43
0.0000000001
44
0.0000000001
40
0
40
0
40
0
40
1
40
1
40
1
10
-76.567118002181488
20
-46.324424743652344
30
0
10
-77.155750824218231
20
-45.690121650695801
30
0
10
-78.058998419051605
20
-45.690121650695801
30
0
0
SPLINE
5
273
100
AcDbEntity
8
0
100
AcDbSpline
70
0
71
2
72
6
73
3
74
0
42
0.000000001
43
0.0000000001
44
0.0000000001
40
0
40
0
40
0
40
1
40
1
40
1
10
-78.058998419051605
20
-45.690121650695801
30
0
10
-79.104329777961212
20
-45.690121650695801
30
0
10
-79.616846872573333
20
-46.410690546035767
30
0
0
SPLINE
5
274
100
AcDbEntity
8
0
100
AcDbSpline
70
0
71
2
72
6
73
3
74
0
42
0.000000001
43
0.0000000001
44
0.0000000001
40
0
40
0
40
0
40
1
40
1
40
1
10
-79.616846872573333
20
-46.410690546035767
30
0
10
-80.129363371139007
20
-47.131259441375732
30
0
10
-80.129363371139007
20
-47.973613739013672
30
0
0
LINE
5
275
100
AcDbEntity
8
0
100
AcDbLine
10
-94.906968027353301
20
-4.0595400333404896
30
0
11
-92.146481424570098
21
-3.7550747394562123
31
0
0
SPLINE
5
276
100
AcDbEntity
8
0
100
AcDbSpline
70
0
71
2
72
6
73
3
74
0
42
0.000000001
43
0.0000000001
44
0.0000000001
40
0
40
0
40
0
40
1
40
1
40
1
10
-92.146481424570098
20
-3.7550747394562123
30
0
10
-92.04499259591104
20
-4.5974290370941517
30
0
10
-91.618740707635894
20
-5.0033831596374867
30
0
0
SPLINE
5
277
100
AcDbEntity
8
0
100
AcDbSpline
70
0
71
2
72
6
73
3
74
0
42
0.000000001
43
0.0000000001
44
0.0000000001
40
0
40
0
40
0
40
1
40
1
40
1
10
-91.618740707635894
20
-5.0033831596374867
30
0
10
-91.192489415407195
20
-5.4093372821808217
30
0
10
-90.492218881845488
20
-5.4093372821808217
30
0
0
SPLINE
5
278
100
AcDbEntity
8
0
100
AcDbSpline
70
0
71
2
72
6
73
3
74
0
42
0.000000001
43
0.0000000001
44
0.0000000001
40
0
40
0
40
0
40
1
40
1
40
1
10
-90.492218881845488
20
-5.4093372821808217
30
0
10
-89.609269052743926
20
-5.4093372821808217
30
0
10
-88.990190178155913
20
-4.5974290370941517
30
0
0
SPLINE
5
279
100
AcDbEntity
8
0
100
AcDbSpline
70
0
71
2
72
6
73
3
74
0
42
0.000000001
43
0.0000000001
44
0.0000000001
40
0
40
0
40
0
40
1
40
1
40
1
10
-88.990190178155913
20
-4.5974290370941517
30
0
10
-88.371110111475005
20
-3.7855207920074818
30
0
10
-88.198578506708159
20
-1.2280106544494984
30
0
0
SPLINE
5
280
100
AcDbEntity
8
0
100
AcDbSpline
70
0
71
2
72
6
73
3
74
0
42
0.000000001
43
0.0000000001
44
0.0000000001
40
0
40
0
40
0
40
1
40
1
40
1
10
-88.198578506708159
20
-1.2280106544494984
30
0
10
-89.274356514215484
20
-2.4763202667236683
30
0
10
-90.88802352547647
20
-2.4763202667236683
30
0
0
SPLINE
5
281
100
AcDbEntity
8
0
100
AcDbSpline
70
0
71
2
72
6
73
3
74
0
42
0.000000001
43
0.0000000001
44
0.0000000001
40
0
40
0
40
0
40
1
40
1
40
1
10
-90.88802352547647
20
-2.4763202667236683
30
0
10
-92.643774896860137
20
-2.4763202667236683
30
0
10
-93.917455226182952
20
-1.1214494705200551
30
0
0
SPLINE
5
282
100
AcDbEntity
8
0
100
AcDbSpline
70
0
71
2
72
6
73
3
74
0
42
0.000000001
43
0.0000000001
44
0.0000000001
40
0
40
0
40
0
40
1
40
1
40
1
10
-93.917455226182952
20
-1.1214494705200551
30
0
10
-95.191136151552215
20
0.23342251777645373
30
0
10
-95.191136151552215
20
2.4052762985229137
30
0
0
SPLINE
5
283
100
AcDbEntity
8
0
100
AcDbSpline
70
0
71
2
72
6
73
3
74
0
42
0.000000001
43
0.0000000001
44
0.0000000001
40
0
40
0
40
0
40
1
40
1
40
1
10
-95.191136151552215
20
2.4052762985229137
30
0
10
-95.191136151552215
20
4.6684706211089733
30
0
10
-93.846413046121612
20
6.0537886619567516
30
0
0
SPLINE
5
284
100
AcDbEntity
8
0
100
AcDbSpline
70
0
71
2
72
6
73
3
74
0
42
0.000000001
43
0.0000000001
44
0.0000000001
40
0
40
0
40
0
40
1
40
1
40
1
10
-93.846413046121612
20
6.0537886619567516
30
0
10
-92.501690536737456
20
7.4391067028045299
30
0
10
-90.4211761057377
20
7.4391067028045299
30
0
0
SPLINE
5
285
100
AcDbEntity
8
0
100
AcDbSpline
70
0
71
2
72
6
73
3
74
0
42
0.000000001
43
0.0000000001
44
0.0000000001
40
0
40
0
40
0
40
1
40
1
40
1
10
-90.4211761057377
20
7.4391067028045299
30
0
10
-88.157982975244536
20
7.4391067028045299
30
0
10
-86.706698089838042
20
5.6884300708770397
30
0
0
SPLINE
5
286
100
AcDbEntity
8
0
100
AcDbSpline
70
0
71
2
72
6
73
3
74
0
42
0.000000001
43
0.0000000001
44
0.0000000001
40
0
40
0
40
0
40
1
40
1
40
1
10
-86.706698089838042
20
5.6884300708770397
30
0
10
-85.255412012338653
20
3.9377534389495494
30
0
10
-85.255412012338653
20
-0.071042776107823613
30
0
0
SPLINE
5
287
100
AcDbEntity
8
0
100
AcDbSpline
70
0
71
2
72
6
73
3
74
0
42
0.000000001
43
0.0000000001
44
0.0000000001
40
0
40
0
40
0
40
1
40
1
40
1
10
-85.255412012338653
20
-0.071042776107823613
30
0
10
-85.255412012338653
20
-4.1508793830871937
30
0
10
-86.767591387033477
20
-5.9573745727539418
30
0
0
SPLINE
5
288
100
AcDbEntity
8
0
100
AcDbSpline
70
0
71
2
72
6
73
3
74
0
42
0.000000001
43
0.0000000001
44
0.0000000001
40
0
40
0
40
0
40
1
40
1
40
1
10
-86.767591387033477
20
-5.9573745727539418
30
0
10
-88.279769569635405
20
-7.7638697624206898
30
0
10
-90.705344825983062
20
-7.7638697624206898
30
0
0
SPLINE
5
289
100
AcDbEntity
8
0
100
AcDbSpline
70
0
71
2
72
6
73
3
74
0
42
0.000000001
43
0.0000000001
44
0.0000000001
40
0
40
0
40
0
40
1
40
1
40
1
10
-90.705344825983062
20
-7.7638697624206898
30
0
10
-92.450946718454375
20
-7.7638697624206898
30
0
10
-93.526724725961699
20
-6.835250854492223
30
0
0
SPLINE
5
290
100
AcDbEntity
8
0
100
AcDbSpline
70
0
71
2
72
6
73
3
74
0
42
0.000000001
43
0.0000000001
44
0.0000000001
40
0
40
0
40
0
40
1
40
1
40
1
10
-93.526724725961699
20
-6.835250854492223
30
0
10
-94.602502733469024
20
-5.9066307544708607
30
0
10
-94.906968027353301
20
-4.0595400333404896
30
0
0
SPLINE
5
291
100
AcDbEntity
8
0
100
AcDbSpline
70
0
71
2
72
6
73
3
74
0
42
0.000000001
43
0.0000000001
44
0.0000000001
40
0
40
0
40
0
40
1
40
1
40
1
10
-88.452301174402251
20
2.1718525886535289
30
0
10
-88.452301174402251
20
3.552097082138026
30
0
10
-89.086604267358794
20
4.3132603168487194
30
0
0
SPLINE
5
292
100
AcDbEntity
8
0
100
AcDbSpline
70
0
71
2
72
6
73
3
74
0
42
0.000000001
43
0.0000000001
44
0.0000000001
40
0
40
0
40
0
40
1
40
1
40
1
10
-89.086604267358794
20
4.3132603168487194
30
0
10
-89.720907360315337
20
5.0744247436523082
30
0
10
-90.553112179040923
20
5.0744247436523082
30
0
0
SPLINE
5
293
100
AcDbEntity
8
0
100
AcDbSpline
70
0
71
2
72
6
73
3
74
0
42
0.000000001
43
0.0000000001
44
0.0000000001
40
0
40
0
40
0
40
1
40
1
40
1
10
-90.553112179040923
20
5.0744247436523082
30
0
10
-91.344722062349334
20
5.0744247436523082
30
0
10
-91.867387443780913
20
4.4502699375152233
30
0
0
SPLINE
5
294
100
AcDbEntity
8
0
100
AcDbSpline
70
0
71
2
72
6
73
3
74
0
42
0.000000001
43
0.0000000001
44
0.0000000001
40
0
40
0
40
0
40
1
40
1
40
1
10
-91.867387443780913
20
4.4502699375152233
30
0
10
-92.390053421258941
20
3.8261163234710338
30
0
10
-92.390053421258941
20
2.4052762985229137
30
0
0
SPLINE
5
295
100
AcDbEntity
8
0
100
AcDbSpline
70
0
71
2
72
6
73
3
74
0
42
0.000000001
43
0.0000000001
44
0.0000000001
40
0
40
0
40
0
40
1
40
1
40
1
10
-92.390053421258941
20
2.4052762985229137
30
0
10
-92.390053421258941
20
0.96413969993587756
30
0
10
-91.821718364954009
20
0.28924226760860705
30
0
0
SPLINE
5
296
100
AcDbEntity
8
0
100
AcDbSpline
70
0
71
2
72
6
73
3
74
0
42
0.000000001
43
0.0000000001
44
0.0000000001
40
0
40
0
40
0
40
1
40
1
40
1
10
-91.821718364954009
20
0.28924226760860705
30
0
10
-91.253382116556182
20
-0.38565635681155896
30
0
10
-90.400879532098784
20
-0.38565635681155896
30
0
0
SPLINE
5
297
100
AcDbEntity
8
0
100
AcDbSpline
70
0
71
2
72
6
73
3
74
0
42
0.000000001
43
0.0000000001
44
0.0000000001
40
0
40
0
40
0
40
1
40
1
40
1
10
-90.400879532098784
20
-0.38565635681155896
30
0
10
-89.578821808099761
20
-0.38565635681155896
30
0
10
-89.015561491251006
20
0.26386976242061877
30
0
0
SPLINE
5
298
100
AcDbEntity
8
0
100
AcDbSpline
70
0
71
2
72
6
73
3
74
0
42
0.000000001
43
0.0000000001
44
0.0000000001
40
0
40
0
40
0
40
1
40
1
40
1
10
-89.015561491251006
20
0.26386976242061877
30
0
10
-88.452301174402251
20
0.9133958816527965
30
0
10
-88.452301174402251
20
2.1718525886535289
30
0
0
LINE
5
299
100
AcDbEntity
8
0
100
AcDbLine
10
-82.042421160345484
20
37.5
30
0
11
-84.894248304968286
21
37.5
31
0
0
LINE
5
300
100
AcDbEntity
8
0
100
AcDbLine
10
-84.894248304968286
20
37.5
30
0
11
-84.894248304968286
21
48.247631788253784
31
0
0
SPLINE
5
301
100
AcDbEntity
8
0
100
AcDbSpline
70
0
71
2
72
6
73
3
74
0
42
0.000000001
43
0.0000000001
44
0.0000000001
40
0
40
0
40
0
40
1
40
1
40
1
10
-84.894248304968286
20
48.247631788253784
30
0
10
-86.457170901899744
20
46.786196231842041
30
0
10
-88.578280417328287
20
46.085926294326782
30
0
0
LINE
5
302
100
AcDbEntity
8
0
100
AcDbLine
10
-88.578280417328287
20
46.085926294326782
30
0
11
-88.578280417328287
21
48.673882484436035
31
0
0
SPLINE
5
303
100
AcDbEntity
8
0
100
AcDbSpline
70
0
71
2
72
6
73
3
74
0
42
0.000000001
43
0.0000000001
44
0.0000000001
40
0
40
0
40
0
40
1
40
1
40
1
10
-88.578280417328287
20
48.673882484436035
30
0
10
-87.461907027368952
20
49.039241075515747
30
0
10
-86.152705608015467
20
50.059200525283813
30
0
0
SPLINE
5
304
100
AcDbEntity
8
0
100
AcDbSpline
70
0
71
2
72
6
73
3
74
0
42
0.000000001
43
0.0000000001
44
0.0000000001
40
0
40
0
40
0
40
1
40
1
40
1
10
-86.152705608015467
20
50.059200525283813
30
0
10
-84.843503890638758
20
51.07915997505188
30
0
10
-84.356359301214624
20
52.43910551071167
30
0
0
LINE
5
305
100
AcDbEntity
8
0
100
AcDbLine
10
-84.356359301214624
20
52.43910551071167
30
0
11
-82.042421160345484
21
52.43910551071167
31
0
0
LINE
5
306
100
AcDbEntity
8
0
100
AcDbLine
10
-82.042421160345484
20
52.43910551071167
30
0
11
-82.042421160345484
21
37.5
31
0
0
SPLINE
5
307
100
AcDbEntity
8
0
100
AcDbSpline
70
0
71
2
72
6
73
3
74
0
42
0.000000001
43
0.0000000001
44
0.0000000001
40
0
40
0
40
0
40
1
40
1
40
1
10
-72.949051318769861
20
52.43910551071167
30
0
10
-70.787347016935755
20
52.43910551071167
30
0
10
-69.56948464930575
20
50.896480083465576
30
0
0
SPLINE
5
308
100
AcDbEntity
8
0
100
AcDbSpline
70
0
71
2
72
6
73
3
74
0
42
0.000000001
43
0.0000000001
44
0.0000000001
40
0
40
0
40
0
40
1
40
1
40
1
10
-69.56948464930575
20
50.896480083465576
30
0
10
-68.118199763899256
20
49.069688320159912
30
0
10
-68.118199763899256
20
44.837617874145508
30
0
0
SPLINE
5
309
100
AcDbEntity
8
0
100
AcDbSpline
70
0
71
2
72
6
73
3
74
0
42
0.000000001
43
0.0000000001
44
0.0000000001
40
0
40
0
40
0
40
1
40
1
40
1
10
-68.118199763899256
20
44.837617874145508
30
0
10
-68.118199763899256
20
40.615696907043457
30
0
10
-69.579634128218103
20
38.768606185913086
30
0
0
SPLINE
5
310
100
AcDbEntity
8
0
100
AcDbSpline
70
0
71
2
72
6
73
3
74
0
42
0.000000001
43
0.0000000001
44
0.0000000001
40
0
40
0
40
0
40
1
40
1
40
1
10
-69.579634128218103
20
38.768606185913086
30
0
10
-70.787347016935755
20
37.246279716491699
30
0
10
-72.949051318769861
20
37.246279716491699
30
0
0
SPLINE
5
311
100
AcDbEntity
8
0
100
AcDbSpline
70
0
71
2
72
6
73
3
74
0
42
0.000000001
43
0.0000000001
44
0.0000000001
40
0
40
0
40
0
40
1
40
1
40
1
10
-72.949051318769861
20
37.246279716491699
30
0
10
-75.120906291609217
20
37.246279716491699
30
0
10
-76.450404582624842
20
38.915764093399048
30
0
0
SPLINE
5
312
100
AcDbEntity
8
0
100
AcDbSpline
70
0
71
2
72
6
73
3
74
0
42
0.000000001
43
0.0000000001
44
0.0000000001
40
0
40
0
40
0
40
1
40
1
40
1
10
-76.450404582624842
20
38.915764093399048
30
0
10
-77.779904065733362
20
40.585250854492188
30
0
10
-77.779904065733362
20
44.868063926696777
30
0
0
SPLINE
5
313
100
AcDbEntity
8
0
100
AcDbSpline
70
0
71
2
72
6
73
3
74
0
42
0.000000001
43
0.0000000001
44
0.0000000001
40
0
40
0
40
0
40
1
40
1
40
1
10
-77.779904065733362
20
44.868063926696777
30
0
10
-77.779904065733362
20
49.069688320159912
30
0
10
-76.318469701414514
20
50.916777849197388
30
0
0
SPLINE
5
314
100
AcDbEntity
8
0
100
AcDbSpline
70
0
71
2
72
6
73
3
74
0
42
0.000000001
43
0.0000000001
44
0.0000000001
40
0
40
0
40
0
40
1
40
1
40
1
10
-76.318469701414514
20
50.916777849197388
30
0
10
-75.110756812696863
20
52.43910551071167
30
0
10
-72.949051318769861
20
52.43910551071167
30
0
0
SPLINE
5
315
100
AcDbEntity
8
0
100
AcDbSpline
70
0
71
2
72
6
73
3
74
0
42
0.000000001
43
0.0000000001
44
0.0000000001
40
0
40
0
40
0
40
1
40
1
40
1
10
-72.949051318769861
20
50.074423551559448
30
0
10
-73.466643748884607
20
50.074423551559448
30
0
10
-73.872596679335047
20
49.744585752487183
30
0
0
SPLINE
5
316
100
AcDbEntity
8
0
100
AcDbSpline
70
0
71
2
72
6
73
3
74
0
42
0.000000001
43
0.0000000001
44
0.0000000001
40
0
40
0
40
0
40
1
40
1
40
1
10
-73.872596679335047
20
49.744585752487183
30
0
10
-74.278550801878382
20
49.414749145507812
30
0
10
-74.501826224928308
20
48.56224536895752
30
0
0
SPLINE
5
317
100
AcDbEntity
8
0
100
AcDbSpline
70
0
71
2
72
6
73
3
74
0
42
0.000000001
43
0.0000000001
44
0.0000000001
40
0
40
0
40
0
40
1
40
1
40
1
10
-74.501826224928308
20
48.56224536895752
30
0
10
-74.796142039900232
20
47.456021308898926
30
0
10
-74.796142039900232
20
44.837617874145508
30
0
0
SPLINE
5
318
100
AcDbEntity
8
0
100
AcDbSpline
70
0
71
2
72
6
73
3
74
0
42
0.000000001
43
0.0000000001
44
0.0000000001
40
0
40
0
40
0
40
1
40
1
40
1
10
-74.796142039900232
20
44.837617874145508
30
0
10
-74.796142039900232
20
42.21921443939209
30
0
10
-74.532272277479578
20
41.239850521087646
30
0
0
SPLINE
5
319
100
AcDbEntity
8
0
100
AcDbSpline
70
0
71
2
72
6
73
3
74
0
42
0.000000001
43
0.0000000001
44
0.0000000001
40
0
40
0
40
0
40
1
40
1
40
1
10
-74.532272277479578
20
41.239850521087646
30
0
10
-74.268402515058924
20
40.260486602783203
30
0
10
-73.867523131971765
20
39.935723543167114
30
0
0
SPLINE
5
320
100
AcDbEntity
8
0
100
AcDbSpline
70
0
71
2
72
6
73
3
74
0
42
0.000000001
43
0.0000000001
44
0.0000000001
40
0
40
0
40
0
40
1
40
1
40
1
10
-73.867523131971765
20
39.935723543167114
30
0
10
-73.466643748884607
20
39.610960483551025
30
0
10
-72.949051318769861
20
39.610960483551025
30
0
0
SPLINE
5
321
100
AcDbEntity
8
0
100
AcDbSpline
70
0
71
2
72
6
73
3
74
0
42
0.000000001
43
0.0000000001
44
0.0000000001
40
0
40
0
40
0
40
1
40
1
40
1
10
-72.949051318769861
20
39.610960483551025
30
0
10
-72.431461272840906
20
39.610960483551025
30
0
10
-72.025505958204675
20
39.940798282623291
30
0
0
SPLINE
5
322
100
AcDbEntity
8
0
100
AcDbSpline
70
0
71
2
72
6
73
3
74
0
42
0.000000001
43
0.0000000001
44
0.0000000001
40
0
40
0
40
0
40
1
40
1
40
1
10
-72.025505958204675
20
39.940798282623291
30
0
10
-71.619553027754236
20
40.270636081695557
30
0
10
-71.396278796797205
20
41.12313985824585
30
0
0
SPLINE
5
323
100
AcDbEntity
8
0
100
AcDbSpline
70
0
71
2
72
6
73
3
74
0
42
0.000000001
43
0.0000000001
44
0.0000000001
40
0
40
0
40
0
40
1
40
1
40
1
10
-71.396278796797205
20
41.12313985824585
30
0
10
-71.10196059763949
20
42.21921443939209
30
0
10
-71.10196059763949
20
44.837617874145508
30
0
0
SPLINE
5
324
100
AcDbEntity
8
0
100
AcDbSpline
70
0
71
2
72
6
73
3
74
0
42
0.000000001
43
0.0000000001
44
0.0000000001
40
0
40
0
40
0
40
1
40
1
40
1
10
-71.10196059763949
20
44.837617874145508
30
0
10
-71.10196059763949
20
47.456021308898926
30
0
10
-71.36583155215304
20
48.435385227203369
30
0
0
SPLINE
5
325
100
AcDbEntity
8
0
100
AcDbSpline
70
0
71
2
72
6
73
3
74
0
42
0.000000001
43
0.0000000001
44
0.0000000001
40
0
40
0
40
0
40
1
40
1
40
1
10
-71.36583155215304
20
48.435385227203369
30
0
10
-71.629701314573694
20
49.414749145507812
30
0
10
-72.030581889753748
20
49.744585752487183
30
0
0
SPLINE
5
326
100
AcDbEntity
8
0
100
AcDbSpline
70
0
71
2
72
6
73
3
74
0
42
0.000000001
43
0.0000000001
44
0.0000000001
40
0
40
0
40
0
40
1
40
1
40
1
10
-72.030581889753748
20
49.744585752487183
30
0
10
-72.431461272840906
20
50.074423551559448
30
0
10
-72.949051318769861
20
50.074423551559448
30
0
0
LINE
5
327
100
AcDbEntity
8
0
100
AcDbLine
10
-46.94350346922873
20
70.442286340599466
30
0
11
-49.795331209897981
21
70.442286340599466
31
0
0
LINE
5
328
100
AcDbEntity
8
0
100
AcDbLine
10
-49.795331209897981
20
70.442286340599466
30
0
11
-49.795331209897981
21
81.18991812885325
31
0
0
SPLINE
5
329
100
AcDbEntity
8
0
100
AcDbSpline
70
0
71
2
72
6
73
3
74
0
42
0.000000001
43
0.0000000001
44
0.0000000001
40
0
40
0
40
0
40
1
40
1
40
1
10
-49.795331209897981
20
81.18991812885325
30
0
10
-51.358253806829438
20
79.728482572441507
30
0
10
-53.479363173246369
20
79.028212634926248
30
0
0
LINE
5
330
100
AcDbEntity
8
0
100
AcDbLine
10
-53.479363173246377
20
79.028212634926248
30
0
11
-53.479363173246369
21
81.616168825035501
31
0
0
SPLINE
5
331
100
AcDbEntity
8
0
100
AcDbSpline
70
0
71
2
72
6
73
3
74
0
42
0.000000001
43
0.0000000001
44
0.0000000001
40
0
40
0
40
0
40
1
40
1
40
1
10
-53.479363173246369
20
81.616168825035501
30
0
10
-52.362989932298646
20
81.981527416115213
30
0
10
-51.053788512945161
20
83.00148686588328
30
0
0
SPLINE
5
332
100
AcDbEntity
8
0
100
AcDbSpline
70
0
71
2
72
6
73
3
74
0
42
0.000000001
43
0.0000000001
44
0.0000000001
40
0
40
0
40
0
40
1
40
1
40
1
10
-51.053788512945161
20
83.00148686588328
30
0
10
-49.744586795568452
20
84.021446315651346
30
0
10
-49.257442206144319
20
85.381391851311136
30
0
0
LINE
5
333
100
AcDbEntity
8
0
100
AcDbLine
10
-49.257442206144319
20
85.38139185131115
30
0
11
-46.94350346922873
21
85.381391851311136
31
0
0
LINE
5
334
100
AcDbEntity
8
0
100
AcDbLine
10
-46.94350346922873
20
85.381391851311136
30
0
11
-46.94350346922873
21
70.442286340599466
31
0
0
LINE
5
335
100
AcDbEntity
8
0
100
AcDbLine
10
-36.916442960500703
20
70.442286340599466
30
0
11
-39.76826891303061
21
70.442286340599466
31
0
0
LINE
5
336
100
AcDbEntity
8
0
100
AcDbLine
10
-39.76826891303061
20
70.442286340599466
30
0
11
-39.76826891303061
21
81.18991812885325
31
0
0
SPLINE
5
337
100
AcDbEntity
8
0
100
AcDbSpline
70
0
71
2
72
6
73
3
74
0
42
0.000000001
43
0.0000000001
44
0.0000000001
40
0
40
0
40
0
40
1
40
1
40
1
10
-39.76826891303061
20
81.18991812885325
30
0
10
-41.33119091391562
20
79.728482572441507
30
0
10
-43.452300876378999
20
79.028212634926248
30
0
0
LINE
5
338
100
AcDbEntity
8
0
100
AcDbLine
10
-43.452300876378999
20
79.028212634926248
30
0
11
-43.452300876378999
21
81.616168825035501
31
0
0
SPLINE
5
339
100
AcDbEntity
8
0
100
AcDbSpline
70
0
71
2
72
6
73
3
74
0
42
0.000000001
43
0.0000000001
44
0.0000000001
40
0
40
0
40
0
40
1
40
1
40
1
10
-43.452300876378999
20
81.616168825035501
30
0
10
-42.335927337408052
20
81.981527416115213
30
0
10
-41.026725620031343
20
83.00148686588328
30
0
0
SPLINE
5
340
100
AcDbEntity
8
0
100
AcDbSpline
70
0
71
2
72
6
73
3
74
0
42
0.000000001
43
0.0000000001
44
0.0000000001
40
0
40
0
40
0
40
1
40
1
40
1
10
-41.026725620031343
20
83.00148686588328
30
0
10
-39.717523902654634
20
84.021446315651346
30
0
10
-39.230379909276948
20
85.381391851311136
30
0
0
LINE
5
341
100
AcDbEntity
8
0
100
AcDbLine
10
-39.230379909276941
20
85.38139185131115
30
0
11
-36.916442960500703
21
85.381391851311136
31
0
0
LINE
5
342
100
AcDbEntity
8
0
100
AcDbLine
10
-36.916442960500703
20
85.381391851311136
30
0
11
-36.916442960500703
21
70.442286340599466
31
0
0
ENDSEC
0
SECTION
2
OBJECTS
0
DICTIONARY
5
C
100
AcDbDictionary
3
ACAD_GROUP
350
D
3
ACAD_MLINESTYLE
350
17
0
DICTIONARY
5
D
100
AcDbDictionary
0
DICTIONARY
5
1A
330
C
100
AcDbDictionary
0
DICTIONARY
5
17
100
AcDbDictionary
0
ENDSEC
0
EOF
