0
SECTION
2
HEADER
9
$INSUNITS
70
4
9
$ACADVER
1
AC1014
9
$HANDSEED
5
FFFF
0
ENDSEC
0
SECTION
2
TABLES
0
TABLE
2
VPORT
5
8
100
AcDbSymbolTable
0
ENDTAB
0
TABLE
2
LTYPE
5
5
100
AcDbSymbolTable
0
LTYPE
5
14
100
AcDbSymbolTableRecord
100
AcDbLinetypeTableRecord
2
BYBLOCK
70
0
0
LTYPE
5
15
100
AcDbSymbolTableRecord
100
AcDbLinetypeTableRecord
2
BYLAYER
70
0
0
ENDTAB
0
TABLE
2
LAYER
5
2
100
AcDbSymbolTable
70
2
0
LAYER
5
50
100
AcDbSymbolTableRecord
100
AcDbLayerTableRecord
2
0
70
0
6
CONTINUOUS
0
ENDTAB
0
TABLE
2
STYLE
5
3
100
AcDbSymbolTable
70
1
0
STYLE
5
11
100
AcDbSymbolTableRecord
100
AcDbTextStyleTableRecord
2
STANDARD
70
0
0
ENDTAB
0
TABLE
2
VIEW
5
6
100
AcDbSymbolTable
70
0
0
ENDTAB
0
TABLE
2
UCS
5
7
100
AcDbSymbolTable
70
0
0
ENDTAB
0
TABLE
2
APPID
5
9
100
AcDbSymbolTable
70
2
0
APPID
5
12
100
AcDbSymbolTableRecord
100
AcDbRegAppTableRecord
2
ACAD
70
0
0
ENDTAB
0
TABLE
2
DIMSTYLE
5
A
100
AcDbSymbolTable
70
1
0
ENDTAB
0
TABLE
2
BLOCK_RECORD
5
1
100
AcDbSymbolTable
70
1
0
BLOCK_RECORD
5
1F
100
AcDbSymbolTableRecord
100
AcDbBlockTableRecord
2
*MODEL_SPACE
0
BLOCK_RECORD
5
1B
100
AcDbSymbolTableRecord
100
AcDbBlockTableRecord
2
*PAPER_SPACE
0
ENDTAB
0
ENDSEC
0
SECTION
2
BLOCKS
0
BLOCK
5
20
100
AcDbEntity
100
AcDbBlockBegin
2
*MODEL_SPACE
0
ENDBLK
5
21
100
AcDbEntity
100
AcDbBlockEnd
0
BLOCK
5
1C
100
AcDbEntity
100
AcDbBlockBegin
2
*PAPER_SPACE
0
ENDBLK
5
1D
100
AcDbEntity
100
AcDbBlockEnd
0
ENDSEC
0
SECTION
2
ENTITIES
0
ARC
5
100
100
AcDbEntity
8
0
100
AcDbCircle
10
0
20
0
30
0
40
76.500000000000028
210
-0
220
0
230
1
100
AcDbArc
50
-82.488860104554078
51
44.424336184336077
0
ARC
5
101
100
AcDbEntity
8
0
100
AcDbCircle
10
0
20
0
30
0
40
76.499999891577787
210
0
220
0
230
1
100
AcDbArc
50
135.575672032878
51
262.48886010455408
0
SPLINE
5
102
100
AcDbEntity
8
0
100
AcDbSpline
70
4
71
5
72
16
73
10
74
0
42
0.000000001
43
0.0000000001
44
0.0000000001
40
0
40
0
40
0
40
0
40
0
40
0
40
0.20000000000000001
40
0.40000000000000002
40
0.60000000000000009
40
0.80000000000000004
40
1
40
1
40
1
40
1
40
1
40
1
41
1
41
1
41
1
41
1
41
1
41
1
41
1
41
1
41
1
41
1
10
19.628786134314449
20
-0.48257368368439213
30
0
10
18.336642407066044
20
-2.1207461938673746
30
0
10
16.033644493835254
20
-5.8354889961343943
30
0
10
13.422241339378953
20
-12.7215784670334
30
0
10
11.380297859626829
20
-24.138213437057114
30
0
10
10.328723066388614
20
-40.674700107194084
30
0
10
10.081925777176629
20
-54.701004035796075
30
0
10
10.014886026103099
20
-65.28592663134026
30
0
10
10.000000000000004
20
-72.326980458891285
30
0
10
10.000000000000004
20
-75.843589050097066
30
0
0
SPLINE
5
103
100
AcDbEntity
8
0
100
AcDbSpline
70
4
71
5
72
16
73
10
74
0
42
0.000000001
43
0.0000000001
44
0.0000000001
40
0
40
0
40
0
40
0
40
0
40
0
40
0.20000000000000001
40
0.40000000000000002
40
0.60000000000000009
40
0.80000000000000004
40
1
40
1
40
1
40
1
40
1
40
1
41
1
41
1
41
1
41
1
41
1
41
1
41
1
41
1
41
1
41
1
10
-19.628769882346933
20
-0.48261582891823113
30
0
10
-18.336626716652692
20
-2.1207873843401863
30
0
10
-16.033630050703724
20
-5.8355280595938446
30
0
10
-13.422229139261898
20
-12.721613688089743
30
0
10
-11.3802892107256
20
-24.138242414396455
30
0
10
-10.328718905181521
20
-40.674720060841352
30
0
10
-10.081924387030909
20
-54.701016207623034
30
0
10
-10.01488577321431
20
-65.285932780722092
30
0
10
-10.000000000000004
20
-72.326982520777122
30
0
10
-10.000000000000002
20
-75.843589050097066
30
0
0
ARC
5
104
100
AcDbEntity
8
0
100
AcDbCircle
10
0
20
0
30
0
40
76.500000008245095
210
0
220
-0
230
1
100
AcDbArc
50
63.415255210647693
51
116.58474478935231
0
ARC
5
105
100
AcDbEntity
8
0
100
AcDbCircle
10
1.4897423396461729e-06
20
5.596151594986625e-08
30
0
40
105.0000029082556
210
0
220
0
230
1
100
AcDbArc
50
-229.69898933517706
51
49.698996296509982
0
ARC
5
106
100
AcDbEntity
8
0
100
AcDbCircle
10
1.4897423396461729e-06
20
5.596151594986625e-08
30
0
40
105.00000334652908
210
0
220
-0
230
1
100
AcDbArc
50
63.546948492504889
51
116.45305300316734
0
SPLINE
5
107
100
AcDbEntity
8
0
100
AcDbSpline
70
4
71
3
72
14
73
10
74
0
42
0.000000001
43
0.0000000001
44
0.0000000001
40
0
40
0
40
0
40
0
40
0.18935939500211837
40
0.18935939500211837
40
0.18935939500211837
40
0.50951577005253523
40
0.50951577005253523
40
0.50951577005253523
40
0.53847122358272492
40
0.53847122358272492
40
0.53847122358272492
40
0.53847122358272492
41
1
41
1
41
1
41
1
41
1
41
1
41
1
41
1
41
1
41
1
10
100.00000000223606
20
225.00004793809944
30
0
10
100.00000146333363
20
204.59383435966186
30
0
10
98.357719203253424
20
185.32648702230091
30
0
10
95.312332063532324
20
167.32159649068367
30
0
10
90.163392360408935
20
136.88011519871068
30
0
10
81.099727902729597
20
110.05143172370452
30
0
10
70.751476202187035
20
86.415240252018663
30
0
10
69.815563805408644
20
84.277545374573734
30
0
10
68.869448023052044
20
82.16549512278371
30
0
10
67.914333047931436
20
80.078987185782537
30
0
0
SPLINE
5
108
100
AcDbEntity
8
0
100
AcDbSpline
70
4
71
3
72
14
73
10
74
0
42
0.000000001
43
0.0000000001
44
0.0000000001
40
0.66828402796567377
40
0.66828402796567377
40
0.66828402796567377
40
0.66828402796567377
40
0.75475788502626762
40
0.75475788502626762
40
0.75475788502626762
40
0.9750194724700838
40
0.9750194724700838
40
0.9750194724700838
40
1
40
1
40
1
40
1
41
1
41
1
41
1
41
1
41
1
41
1
41
1
41
1
41
1
41
1
10
54.634420746501817
20
53.547456084350735
30
0
10
51.613376830377064
20
47.99414494352046
30
0
10
48.560246963127021
20
42.66460995538273
30
0
10
45.507120372493866
20
37.556158236002709
30
0
10
37.730359483378422
20
24.544183017847587
30
0
10
29.955086503825569
20
12.988255310864647
30
0
10
22.249710487421218
20
2.8954709096609159
30
0
10
21.375820673314429
20
1.7508179471824292
30
0
10
20.50228494611034
20
0.62484317017341273
30
0
10
19.628786134314446
20
-0.48257368368439157
30
0
0
SPLINE
5
109
100
AcDbEntity
8
0
100
AcDbSpline
70
4
71
5
72
14
73
8
74
0
42
0.000000001
43
0.0000000001
44
0.0000000001
40
0
40
0
40
0
40
0
40
0
40
0
40
0.20000000000000001
40
0.40000000000000002
40
0.52129464933379444
40
0.52129464933379444
40
0.52129464933379444
40
0.52129464933379444
40
0.52129464933379444
40
0.52129464933379444
41
1
41
1
41
1
41
1
41
1
41
1
41
1
41
1
10
74.999999996534171
20
225.00000000151681
30
0
10
74.999999996699117
20
212.89259949765801
30
0
10
74.001944476766241
20
189.54390489974085
30
0
10
70.102278418564893
20
161.37066189844009
30
0
10
63.339901158567557
20
135.83221154500234
30
0
10
54.757106016505794
20
112.53461235917889
30
0
10
49.001555340566867
20
98.999114716204218
30
0
10
46.773759627087948
20
94.00646926143807
30
0
0
SPLINE
5
110
100
AcDbEntity
8
0
100
AcDbSpline
70
4
71
5
72
13
73
7
74
0
42
0.000000001
43
0.0000000001
44
0.0000000001
40
0.65234283150385597
40
0.65234283150385597
40
0.65234283150385597
40
0.65234283150385597
40
0.65234283150385597
40
0.65234283150385597
40
0.80000000000000004
40
1
40
1
40
1
40
1
40
1
40
1
41
1
41
1
41
1
41
1
41
1
41
1
41
1
10
34.235356514234503
20
68.411916839135287
30
0
10
31.325996815349377
20
62.958003278907555
30
0
10
24.402001009205851
20
50.540517889849845
30
0
10
17.397049926692823
20
39.146893225217887
30
0
10
10.497969558991237
20
28.868760326277627
30
0
10
3.7929346725173079
20
19.808660415545493
30
0
10
4.8519463351935014e-15
20
15
30
0
0
SPLINE
5
111
100
AcDbEntity
8
0
100
AcDbSpline
70
4
71
5
72
14
73
8
74
0
42
0.000000001
43
0.0000000001
44
0.0000000001
40
0
40
0
40
0
40
0
40
0
40
0
40
0.20000000000000001
40
0.40000000000000002
40
0.52129467264829965
40
0.52129467264829965
40
0.52129467264829965
40
0.52129467264829965
40
0.52129467264829965
40
0.52129467264829965
41
1
41
1
41
1
41
1
41
1
41
1
41
1
41
1
10
-75.000000007598814
20
224.99999999847685
30
0
10
-75.000000007353435
20
212.89259949665623
30
0
10
-74.001944486757125
20
189.54390489584318
30
0
10
-70.102278253858429
20
161.37066063049048
30
0
10
-63.339900564025385
20
135.83220925045813
30
0
10
-54.757104878182368
20
112.53460922275623
30
0
10
-49.001553685362644
20
98.999110778206045
30
0
10
-46.773759101586194
20
94.006468040436914
30
0
0
SPLINE
5
112
100
AcDbEntity
8
0
100
AcDbSpline
70
4
71
5
72
13
73
7
74
0
42
0.000000001
43
0.0000000001
44
0.0000000001
40
0.65234283150385586
40
0.65234283150385586
40
0.65234283150385586
40
0.65234283150385586
40
0.65234283150385586
40
0.65234283150385586
40
0.80000000000000004
40
1
40
1
40
1
40
1
40
1
40
1
41
1
41
1
41
1
41
1
41
1
41
1
41
1
10
-34.235356514234496
20
68.411916839135316
30
0
10
-31.32599681534937
20
62.958003278907569
30
0
10
-24.402001009205843
20
50.540517889849859
30
0
10
-17.397049926692812
20
39.146893225217894
30
0
10
-10.497969558991224
20
28.868760326277624
30
0
10
-3.7929346725172963
20
19.808660415545493
30
0
10
2.3645030601722201e-15
20
15
30
0
0
SPLINE
5
113
100
AcDbEntity
8
0
100
AcDbSpline
70
4
71
3
72
14
73
10
74
0
42
0.000000001
43
0.0000000001
44
0.0000000001
40
0
40
0
40
0
40
0
40
0.18935939500211837
40
0.18935939500211837
40
0.18935939500211837
40
0.50951577005253523
40
0.50951577005253523
40
0.50951577005253523
40
0.53847106308743797
40
0.53847106308743797
40
0.53847106308743797
40
0.53847106308743797
41
1
41
1
41
1
41
1
41
1
41
1
41
1
41
1
41
1
41
1
10
-100.00000002250476
20
225
30
0
10
-100.00000002088144
20
204.59378641275754
30
0
10
-98.357716370877185
20
185.32643918844252
30
0
10
-95.312327934970952
20
167.32154888560146
30
0
10
-90.163386038751554
20
136.88006792220673
30
0
10
-81.099719660252305
20
110.05138509866329
30
0
10
-70.751466289087773
20
86.415194388943931
30
0
10
-69.815558922499463
20
84.277511423322636
30
0
10
-68.869448287091956
20
82.165472803666191
30
0
10
-67.914339797897455
20
80.078978934314279
30
0
0
SPLINE
5
114
100
AcDbEntity
8
0
100
AcDbSpline
70
4
71
3
72
14
73
10
74
0
42
0.000000001
43
0.0000000001
44
0.0000000001
40
0.66828383725675733
40
0.66828383725675733
40
0.66828383725675733
40
0.66828383725675733
40
0.75475788502626762
40
0.75475788502626762
40
0.75475788502626762
40
0.9750194724700838
40
0.9750194724700838
40
0.9750194724700838
40
1
40
1
40
1
40
1
41
1
41
1
41
1
41
1
41
1
41
1
41
1
41
1
41
1
41
1
10
-54.634428426141035
20
53.547448248822022
30
0
10
-51.61337753914475
20
47.994124000401413
30
0
10
-48.560240554399137
20
42.664576991021988
30
0
10
-45.5071068622198
20
37.556114225552498
30
0
10
-37.730345035248497
20
24.544139567918073
30
0
10
-29.955071222786408
20
12.988212421348573
30
0
10
-22.24969447893087
20
2.8954285755203668
30
0
10
-21.375804582321649
20
1.7507756760286843
30
0
10
-20.502268773961401
20
0.62480096198095081
30
0
10
-19.628769882346933
20
-0.48261582891823107
30
0
0
LINE
5
115
100
AcDbEntity
8
0
100
AcDbLine
10
-99.999999999999972
20
225
30
0
11
-99.999999999999972
21
270
31
0
0
LINE
5
116
100
AcDbEntity
8
0
100
AcDbLine
10
100
20
270
30
0
11
100
21
225.00004793809936
31
0
0
CIRCLE
5
117
100
AcDbEntity
8
0
100
AcDbCircle
10
0
20
0
30
0
40
7.5
210
0
220
0
230
1
0
CIRCLE
5
118
100
AcDbEntity
8
0
100
AcDbCircle
10
4.294451298064827e-31
20
87.5
30
0
40
8
210
0
220
0
230
1
0
CIRCLE
5
119
100
AcDbEntity
8
0
100
AcDbCircle
10
45.374999999999943
20
-78.591805393437852
30
0
40
6.4000000000000012
210
0
220
0
230
1
0
CIRCLE
5
120
100
AcDbEntity
8
0
100
AcDbCircle
10
-45.375000000000014
20
-78.591805393437809
30
0
40
6.4000000000000012
210
0
220
0
230
1
0
CIRCLE
5
121
100
AcDbEntity
8
0
100
AcDbCircle
10
78.591805393437824
20
45.375
30
0
40
6.4000000000000012
210
0
220
0
230
1
0
CIRCLE
5
122
100
AcDbEntity
8
0
100
AcDbCircle
10
-78.591805393437809
20
45.375000000000028
30
0
40
6.4000000000000012
210
0
220
0
230
1
0
CIRCLE
5
123
100
AcDbEntity
8
0
100
AcDbCircle
10
76.076230206119362
20
140.49304809983619
30
0
40
6.4000000000000012
210
0
220
0
230
1
0
CIRCLE
5
124
100
AcDbEntity
8
0
100
AcDbCircle
10
-77.076230206119376
20
140.49304809983619
30
0
40
6.4000000000000012
210
0
220
0
230
1
0
CIRCLE
5
125
100
AcDbEntity
8
0
100
AcDbCircle
10
-1.6670504553393347e-14
20
-90.750000000000014
30
0
40
1.5000000000000033
210
0
220
0
230
1
0
CIRCLE
5
126
100
AcDbEntity
8
0
100
AcDbCircle
10
-87.499999999999972
20
250
30
0
40
1.5000000000000036
210
0
220
-0
230
1
0
CIRCLE
5
127
100
AcDbEntity
8
0
100
AcDbCircle
10
87.5
20
250.00002396904966
30
0
40
1.4999999999999858
210
0
220
-0
230
1
0
CIRCLE
5
128
100
AcDbEntity
8
0
100
AcDbCircle
10
-48.239999999999966
20
251.50000000000003
30
0
40
2.5000000000000022
210
0
220
0
230
1
0
CIRCLE
5
129
100
AcDbEntity
8
0
100
AcDbCircle
10
-65.739999999999966
20
260.5
30
0
40
1.9999999999999925
210
0
220
0
230
1
0
LINE
5
130
100
AcDbEntity
8
0
100
AcDbLine
10
-99.999999999999972
20
270
30
0
11
100
21
270
31
0
0
LINE
5
131
100
AcDbEntity
8
0
100
AcDbLine
10
-74.999999999999972
20
225
30
0
11
-74.999999999999972
21
229.80000000000001
31
0
0
LINE
5
132
100
AcDbEntity
8
0
100
AcDbLine
10
-74.999999999999972
20
229.80000000000001
30
0
11
74.999999996533887
21
229.80000000000001
31
0
0
LINE
5
133
100
AcDbEntity
8
0
100
AcDbLine
10
74.999999996533887
20
224.80000000152327
30
0
11
74.999999996533887
21
229.80000000000001
31
0
0
ENDSEC
0
SECTION
2
OBJECTS
0
DICTIONARY
5
C
100
AcDbDictionary
3
ACAD_GROUP
350
D
3
ACAD_MLINESTYLE
350
17
0
DICTIONARY
5
D
100
AcDbDictionary
0
DICTIONARY
5
1A
330
C
100
AcDbDictionary
0
DICTIONARY
5
17
100
AcDbDictionary
0
ENDSEC
0
EOF
