0
SECTION
2
HEADER
9
$INSUNITS
70
4
9
$ACADVER
1
AC1014
9
$HANDSEED
5
FFFF
0
ENDSEC
0
SECTION
2
TABLES
0
TABLE
2
VPORT
5
8
100
AcDbSymbolTable
0
ENDTAB
0
TABLE
2
LTYPE
5
5
100
AcDbSymbolTable
0
LTYPE
5
14
100
AcDbSymbolTableRecord
100
AcDbLinetypeTableRecord
2
BYBLOCK
70
0
0
LTYPE
5
15
100
AcDbSymbolTableRecord
100
AcDbLinetypeTableRecord
2
BYLAYER
70
0
0
ENDTAB
0
TABLE
2
LAYER
5
2
100
AcDbSymbolTable
70
2
0
LAYER
5
50
100
AcDbSymbolTableRecord
100
AcDbLayerTableRecord
2
0
70
0
6
CONTINUOUS
0
ENDTAB
0
TABLE
2
STYLE
5
3
100
AcDbSymbolTable
70
1
0
STYLE
5
11
100
AcDbSymbolTableRecord
100
AcDbTextStyleTableRecord
2
STANDARD
70
0
0
ENDTAB
0
TABLE
2
VIEW
5
6
100
AcDbSymbolTable
70
0
0
ENDTAB
0
TABLE
2
UCS
5
7
100
AcDbSymbolTable
70
0
0
ENDTAB
0
TABLE
2
APPID
5
9
100
AcDbSymbolTable
70
2
0
APPID
5
12
100
AcDbSymbolTableRecord
100
AcDbRegAppTableRecord
2
ACAD
70
0
0
ENDTAB
0
TABLE
2
DIMSTYLE
5
A
100
AcDbSymbolTable
70
1
0
ENDTAB
0
TABLE
2
BLOCK_RECORD
5
1
100
AcDbSymbolTable
70
1
0
BLOCK_RECORD
5
1F
100
AcDbSymbolTableRecord
100
AcDbBlockTableRecord
2
*MODEL_SPACE
0
BLOCK_RECORD
5
1B
100
AcDbSymbolTableRecord
100
AcDbBlockTableRecord
2
*PAPER_SPACE
0
ENDTAB
0
ENDSEC
0
SECTION
2
BLOCKS
0
BLOCK
5
20
100
AcDbEntity
100
AcDbBlockBegin
2
*MODEL_SPACE
0
ENDBLK
5
21
100
AcDbEntity
100
AcDbBlockEnd
0
BLOCK
5
1C
100
AcDbEntity
100
AcDbBlockBegin
2
*PAPER_SPACE
0
ENDBLK
5
1D
100
AcDbEntity
100
AcDbBlockEnd
0
ENDSEC
0
SECTION
2
ENTITIES
0
SPLINE
5
100
100
AcDbEntity
8
0
100
AcDbSpline
70
0
71
3
72
8
73
4
74
0
42
0.000000001
43
0.0000000001
44
0.0000000001
40
0
40
0
40
0
40
0
40
1
40
1
40
1
40
1
10
1.8477944244119855
20
9.8300278771910481
30
0
10
1.710178374598891
20
10.402042162778669
30
0
10
1.3907201158016815
20
11.206781446193506
30
0
10
0.66647719008814588
20
12.1385832714614
30
0
0
ARC
5
101
100
AcDbEntity
8
0
100
AcDbCircle
10
-6.1519932804062494
20
3.5120170405995124
30
0
40
0.40000000000000302
210
-0
220
0
230
1
100
AcDbArc
50
-29.720950710997705
51
57.042048600088037
0
ARC
5
102
100
AcDbEntity
8
0
100
AcDbCircle
10
-1.9999992384564989e-15
20
1.7453290304703433e-18
30
0
40
12.156866194999036
210
-0
220
0
230
1
100
AcDbArc
50
-3.1427083323913005
51
3.0427083323912671
0
ARC
5
103
100
AcDbEntity
8
0
100
AcDbCircle
10
1.2027048030711284e-14
20
3.0989516221892917e-14
30
0
40
6.6838749999999694
210
0
220
-0
230
1
100
AcDbArc
50
60.279049289008604
51
74.620950710991295
0
LINE
5
104
100
AcDbEntity
8
0
100
AcDbLine
10
-5.9410902861360393
20
-3.8372817498334606
30
0
11
-7.705544279237591
21
-4.9769222501553037
31
0
0
ARC
5
105
100
AcDbEntity
8
0
100
AcDbCircle
10
-3.5012744431139153
20
6.1581135333495061
30
0
40
0.40000000000000063
210
0
220
0
230
1
100
AcDbArc
50
212.85795139991089
51
299.62095071099753
0
ARC
5
106
100
AcDbEntity
8
0
100
AcDbCircle
10
3.5012744431139153
20
-6.1581135333495061
30
0
40
0.40000000000000091
210
0
220
-0
230
1
100
AcDbArc
50
32.857951399911215
51
119.62095071099836
0
LINE
5
107
100
AcDbEntity
8
0
100
AcDbLine
10
-7.6968461794474123
20
4.9903633748764058
30
0
11
-5.9343839206544393
21
3.8476450587213726
31
0
0
SPLINE
5
108
100
AcDbEntity
8
0
100
AcDbSpline
70
0
71
3
72
8
73
4
74
0
42
0.000000001
43
0.0000000001
44
0.0000000001
40
0
40
0
40
0
40
0
40
1
40
1
40
1
40
1
10
5.64429140347419
20
-8.2574673389550046
30
0
10
6.1460758257716908
20
-8.5646332772066209
30
0
10
6.941003531263112
20
-8.9077787804949367
30
0
10
8.1120040046304638
20
-9.0545450858654295
30
0
0
ARC
5
109
100
AcDbEntity
8
0
100
AcDbCircle
10
0
20
0
30
0
40
12.156866194999044
210
0
220
0
230
1
100
AcDbArc
50
131.85729166760871
51
138.0427083323913
0
ARC
5
110
100
AcDbEntity
8
0
100
AcDbCircle
10
6.8334872314399515
20
1.8667451013387102
30
0
40
0.40000000000000085
210
0
220
0
230
1
100
AcDbArc
50
195.27904928900799
51
282.04204860008917
0
LINE
5
111
100
AcDbEntity
8
0
100
AcDbLine
10
-6.9143531755989418
20
1.4876172823377023
30
0
11
-8.9678580851051315
21
1.9294271400590759
31
0
0
ARC
5
112
100
AcDbEntity
8
0
100
AcDbCircle
10
-1.4028792598198252e-14
20
-3.2987770131318946e-14
30
0
40
6.6838749999999632
210
0
220
0
230
1
100
AcDbArc
50
240.27904928900867
51
254.62095071099094
0
ARC
5
113
100
AcDbEntity
8
0
100
AcDbCircle
10
6.1519932804062494
20
-3.5120170405995124
30
0
40
0.40000000000000246
210
0
220
0
230
1
100
AcDbArc
50
150.27904928900242
51
237.04204860008872
0
SPLINE
5
114
100
AcDbEntity
8
0
100
AcDbSpline
70
0
71
3
72
8
73
4
74
0
42
0.000000001
43
0.0000000001
44
0.0000000001
40
0
40
0
40
0
40
0
40
1
40
1
40
1
40
1
10
-4.9769222501553037
20
7.705544279237591
30
0
10
-5.0356739664789538
20
7.7807977595472657
30
0
10
-5.223363788465929
20
7.9943619072283978
30
0
10
-5.64429140347419
20
8.2574673389550046
30
0
0
SPLINE
5
115
100
AcDbEntity
8
0
100
AcDbSpline
70
0
71
3
72
8
73
4
74
0
42
0.000000001
43
0.0000000001
44
0.0000000001
40
0
40
0
40
0
40
0
40
1
40
1
40
1
40
1
10
-8.1277948037236207
20
-9.0403731843145607
30
0
10
-6.9565399584956094
20
-8.8956508828245262
30
0
10
-6.1610145621675052
20
-8.5538933120498015
30
0
10
-5.6617089134585052
20
-8.2478466797301238
30
0
0
ARC
5
116
100
AcDbEntity
8
0
100
AcDbCircle
10
1.8667451013387004
20
-6.8334872314399533
30
0
40
0.3999999999999948
210
0
220
0
230
1
100
AcDbArc
50
105.27904928900175
51
192.04204860008889
0
SPLINE
5
117
100
AcDbEntity
8
0
100
AcDbSpline
70
0
71
3
72
8
73
4
74
0
42
0.000000001
43
0.0000000001
44
0.0000000001
40
0
40
0
40
0
40
0
40
1
40
1
40
1
40
1
10
8.1277948037236207
20
9.0403731843145607
30
0
10
6.9565399584956094
20
8.8956508828245262
30
0
10
6.1610145621674928
20
8.5538933120498015
30
0
10
5.6617089134585052
20
8.2478466797301238
30
0
0
ARC
5
118
100
AcDbEntity
8
0
100
AcDbCircle
10
3.5120170405995124
20
6.1519932804062494
30
0
40
0.39999999999999697
210
0
220
0
230
1
100
AcDbArc
50
240.27904928900881
51
327.04204860008804
0
ARC
5
119
100
AcDbEntity
8
0
100
AcDbCircle
10
0
20
0
30
0
40
12.156866194999003
210
0
220
-0
230
1
100
AcDbArc
50
41.857291667608706
51
48.0427083323913
0
LINE
5
120
100
AcDbEntity
8
0
100
AcDbLine
10
8.9712119101971233
20
1.9137723442769519
30
0
11
6.9169390250799605
21
1.475547199838374
31
0
0
LINE
5
121
100
AcDbEntity
8
0
100
AcDbLine
10
3.8372817498334637
20
-5.9410902861360428
30
0
11
4.9769222501553037
21
-7.705544279237591
31
0
0
LINE
5
122
100
AcDbEntity
8
0
100
AcDbLine
10
5.9410902861360446
20
3.837281749833465
30
0
11
7.705544279237591
21
4.9769222501553037
31
0
0
ARC
5
123
100
AcDbEntity
8
0
100
AcDbCircle
10
-1.8786689372270871
20
-6.8302187402690837
30
0
40
0.40000000000000113
210
-0
220
0
230
1
100
AcDbArc
50
-12.142048600089007
51
74.620950710997562
0
SPLINE
5
124
100
AcDbEntity
8
0
100
AcDbSpline
70
0
71
3
72
8
73
4
74
0
42
0.000000001
43
0.0000000001
44
0.0000000001
40
0
40
0
40
0
40
0
40
1
40
1
40
1
40
1
10
5.6617089134585052
20
8.2478466797301238
30
0
10
5.2373086194339002
20
7.9852332461365885
30
0
10
5.0492463437499033
20
7.7719970041024737
30
0
10
4.9903633748764058
20
7.6968461794474123
30
0
0
SPLINE
5
125
100
AcDbEntity
8
0
100
AcDbSpline
70
0
71
3
72
8
73
4
74
0
42
0.000000001
43
0.0000000001
44
0.0000000001
40
0
40
0
40
0
40
0
40
1
40
1
40
1
40
1
10
-9.0403731843145607
20
8.1277948037236207
30
0
10
-8.8956508828245262
20
6.9565399584956094
30
0
10
-8.5538933120498015
20
6.1610145621674928
30
0
10
-8.2478466797301238
20
5.6617089134585052
30
0
0
ARC
5
126
100
AcDbEntity
8
0
100
AcDbCircle
10
1.8786689372270871
20
6.8302187402690837
30
0
40
0.40000000000000113
210
0
220
0
230
1
100
AcDbArc
50
167.857951399911
51
254.62095071099202
0
ARC
5
127
100
AcDbEntity
8
0
100
AcDbCircle
10
-3.3015695395806478e-14
20
-1.7971195217105733e-14
30
0
40
6.6838749999999614
210
0
220
0
230
1
100
AcDbArc
50
195.27904928900895
51
209.62095071099094
0
SPLINE
5
128
100
AcDbEntity
8
0
100
AcDbSpline
70
0
71
3
72
8
73
4
74
0
42
0.000000001
43
0.0000000001
44
0.0000000001
40
0
40
0
40
0
40
0
40
1
40
1
40
1
40
1
10
-9.835541083234947
20
-1.8286755516132942
30
0
10
-9.3497490176679126
20
-1.9430761377309889
30
0
10
-9.0659881145093202
20
-1.9252754554154494
30
0
10
-8.9712119101971233
20
-1.9137723442769519
30
0
0
LINE
5
129
100
AcDbEntity
8
0
100
AcDbLine
10
7.6968461794474123
20
-4.9903633748764058
30
0
11
5.9343839206544393
21
-3.8476450587213815
31
0
0
LINE
5
130
100
AcDbEntity
8
0
100
AcDbLine
10
4.9903633748764058
20
7.6968461794474123
30
0
11
3.8476450587213726
21
5.9343839206544393
31
0
0
ARC
5
131
100
AcDbEntity
8
0
100
AcDbCircle
10
2.0008719029717339e-15
20
9.9825429019777908e-16
30
0
40
12.156866194999036
210
0
220
0
230
1
100
AcDbArc
50
176.85729166760873
51
183.04270833239124
0
SPLINE
5
132
100
AcDbEntity
8
0
100
AcDbSpline
70
0
71
3
72
8
73
4
74
0
42
0.000000001
43
0.0000000001
44
0.0000000001
40
0
40
0
40
0
40
0
40
1
40
1
40
1
40
1
10
7.705544279237591
20
4.9769222501553037
30
0
10
7.7807977595472657
20
5.0356739664789538
30
0
10
7.9943619072283978
20
5.223363788465929
30
0
10
8.2574673389550046
20
5.64429140347419
30
0
0
SPLINE
5
133
100
AcDbEntity
8
0
100
AcDbSpline
70
0
71
3
72
8
73
4
74
0
42
0.000000001
43
0.0000000001
44
0.0000000001
40
0
40
0
40
0
40
0
40
1
40
1
40
1
40
1
10
1.9294271400590759
20
8.9678580851051315
30
0
10
1.9410956492751361
20
9.0626140683587852
30
0
10
1.9593915604321086
20
9.3463434712891367
30
0
10
1.8477944244119855
20
9.8300278771910481
30
0
0
ARC
5
134
100
AcDbEntity
8
0
100
AcDbCircle
10
-1.9999992384564989e-15
20
1.7453290304703433e-18
30
0
40
12.15686619499904
210
0
220
0
230
1
100
AcDbArc
50
221.85729166760868
51
228.04270833239127
0
SPLINE
5
135
100
AcDbEntity
8
0
100
AcDbSpline
70
0
71
3
72
8
73
4
74
0
42
0.000000001
43
0.0000000001
44
0.0000000001
40
0
40
0
40
0
40
0
40
1
40
1
40
1
40
1
10
12.139728004891598
20
0.64529036128009198
30
0
10
11.209191640560732
20
1.3711584840658881
30
0
10
10.405011142394402
20
1.6920207905989646
30
0
10
9.835541083234947
20
1.8286755516132942
30
0
0
SPLINE
5
136
100
AcDbEntity
8
0
100
AcDbSpline
70
0
71
3
72
8
73
4
74
0
42
0.000000001
43
0.0000000001
44
0.0000000001
40
0
40
0
40
0
40
0
40
1
40
1
40
1
40
1
10
-0.6452903612800911
20
12.139728004891598
30
0
10
-1.3711584840658881
20
11.209191640560732
30
0
10
-1.6920207905989646
20
10.405011142394402
30
0
10
-1.8286755516132942
20
9.835541083234947
30
0
0
SPLINE
5
137
100
AcDbEntity
8
0
100
AcDbSpline
70
0
71
3
72
8
73
4
74
0
42
0.000000001
43
0.0000000001
44
0.0000000001
40
0
40
0
40
0
40
0
40
1
40
1
40
1
40
1
10
-5.6617089134585052
20
-8.2478466797301238
30
0
10
-5.2373086194339002
20
-7.9852332461365885
30
0
10
-5.0492463437499033
20
-7.7719970041024737
30
0
10
-4.9903633748764058
20
-7.6968461794474123
30
0
0
SPLINE
5
138
100
AcDbEntity
8
0
100
AcDbSpline
70
0
71
3
72
8
73
4
74
0
42
0.000000001
43
0.0000000001
44
0.0000000001
40
0
40
0
40
0
40
0
40
1
40
1
40
1
40
1
10
8.2574673389550046
20
5.64429140347419
30
0
10
8.5646332772066209
20
6.1460758257716908
30
0
10
8.9077787804949367
20
6.941003531263112
30
0
10
9.0545450858654295
20
8.1120040046304638
30
0
0
SPLINE
5
139
100
AcDbEntity
8
0
100
AcDbSpline
70
0
71
3
72
8
73
4
74
0
42
0.000000001
43
0.0000000001
44
0.0000000001
40
0
40
0
40
0
40
0
40
1
40
1
40
1
40
1
10
9.0403731843145501
20
-8.1277948037236207
30
0
10
8.8956508828245262
20
-6.9565399584956094
30
0
10
8.5538933120498015
20
-6.1610145621675052
30
0
10
8.2478466797301238
20
-5.6617089134585052
30
0
0
LINE
5
140
100
AcDbEntity
8
0
100
AcDbLine
10
-1.9137723442769519
20
8.9712119101971233
30
0
11
-1.4755471998383731
21
6.9169390250799569
31
0
0
ARC
5
141
100
AcDbEntity
8
0
100
AcDbCircle
10
-1.8667451013387102
20
6.8334872314399515
30
0
40
0.39999999999999952
210
-0
220
0
230
1
100
AcDbArc
50
-74.720950710996846
51
12.042048600088634
0
SPLINE
5
142
100
AcDbEntity
8
0
100
AcDbSpline
70
0
71
3
72
8
73
4
74
0
42
0.000000001
43
0.0000000001
44
0.0000000001
40
0
40
0
40
0
40
0
40
1
40
1
40
1
40
1
10
4.9769222501553037
20
-7.705544279237591
30
0
10
5.0356739664789538
20
-7.7807977595472657
30
0
10
5.223363788465929
20
-7.9943619072283978
30
0
10
5.64429140347419
20
-8.2574673389550046
30
0
0
SPLINE
5
143
100
AcDbEntity
8
0
100
AcDbSpline
70
0
71
3
72
8
73
4
74
0
42
0.000000001
43
0.0000000001
44
0.0000000001
40
0
40
0
40
0
40
0
40
1
40
1
40
1
40
1
10
-9.8300278771910481
20
1.8477944244119855
30
0
10
-10.402042162778669
20
1.710178374598891
30
0
10
-11.206781446193506
20
1.3907201158016815
30
0
10
-12.1385832714614
20
0.66647719008814588
30
0
0
LINE
5
144
100
AcDbEntity
8
0
100
AcDbLine
10
-8.9712119101971233
20
-1.9137723442769519
30
0
11
-6.9169390250799658
21
-1.4755471998383676
31
0
0
SPLINE
5
145
100
AcDbEntity
8
0
100
AcDbSpline
70
0
71
3
72
8
73
4
74
0
42
0.000000001
43
0.0000000001
44
0.0000000001
40
0
40
0
40
0
40
0
40
1
40
1
40
1
40
1
10
9.835541083234947
20
1.8286755516132942
30
0
10
9.3497490176679126
20
1.9430761377309889
30
0
10
9.0659881145093202
20
1.9252754554154494
30
0
10
8.9712119101971233
20
1.9137723442769519
30
0
0
ARC
5
146
100
AcDbEntity
8
0
100
AcDbCircle
10
-2.0017445674869692e-15
20
-1.9982539094260285e-15
30
0
40
12.156866194999003
210
-0
220
0
230
1
100
AcDbArc
50
311.85729166760899
51
318.04270833239127
0
SPLINE
5
147
100
AcDbEntity
8
0
100
AcDbSpline
70
0
71
3
72
8
73
4
74
0
42
0.000000001
43
0.0000000001
44
0.0000000001
40
0
40
0
40
0
40
0
40
1
40
1
40
1
40
1
10
-8.2478466797301238
20
5.6617089134585052
30
0
10
-7.9852332461365885
20
5.2373086194339002
30
0
10
-7.7719970041024737
20
5.0492463437499033
30
0
10
-7.6968461794474123
20
4.9903633748764058
30
0
0
LINE
5
148
100
AcDbEntity
8
0
100
AcDbLine
10
1.9137723442769519
20
-8.9712119101971233
30
0
11
1.4755471998383642
21
-6.9169390250799605
31
0
0
ARC
5
149
100
AcDbEntity
8
0
100
AcDbCircle
10
1.2969451791934012e-14
20
-3.5011331311686789e-14
30
0
40
6.6838749999999596
210
-0
220
0
230
1
100
AcDbArc
50
285.27904928900904
51
299.620950710991
0
LINE
5
150
100
AcDbEntity
8
0
100
AcDbLine
10
-1.4876172823377023
20
-6.9143531755989418
30
0
11
-1.9294271400590759
21
-8.9678580851051315
31
0
0
SPLINE
5
151
100
AcDbEntity
8
0
100
AcDbSpline
70
0
71
3
72
8
73
4
74
0
42
0.000000001
43
0.0000000001
44
0.0000000001
40
0
40
0
40
0
40
0
40
1
40
1
40
1
40
1
10
-1.9294271400590759
20
-8.9678580851051315
30
0
10
-1.9410956492751361
20
-9.0626140683587852
30
0
10
-1.9593915604321086
20
-9.3463434712891367
30
0
10
-1.8477944244119855
20
-9.8300278771910481
30
0
0
ARC
5
152
100
AcDbEntity
8
0
100
AcDbCircle
10
-1.3971196740192731e-14
20
3.3012204737745537e-14
30
0
40
6.6838749999999578
210
0
220
0
230
1
100
AcDbArc
50
105.279049289009
51
119.62095071099102
0
LINE
5
153
100
AcDbEntity
8
0
100
AcDbLine
10
1.4876172823377023
20
6.9143531755989418
30
0
11
1.9294271400590759
21
8.9678580851051315
31
0
0
ARC
5
154
100
AcDbEntity
8
0
100
AcDbCircle
10
-3.4989514698805911e-14
20
1.2030538688772223e-14
30
0
40
6.6838749999999578
210
0
220
0
230
1
100
AcDbArc
50
150.27904928900898
51
164.62095071099105
0
SPLINE
5
155
100
AcDbEntity
8
0
100
AcDbSpline
70
0
71
3
72
8
73
4
74
0
42
0.000000001
43
0.0000000001
44
0.0000000001
40
0
40
0
40
0
40
0
40
1
40
1
40
1
40
1
10
-1.8477944244119855
20
-9.8300278771910481
30
0
10
-1.710178374598891
20
-10.402042162778669
30
0
10
-1.3907201158016815
20
-11.206781446193506
30
0
10
-0.66647719008814699
20
-12.1385832714614
30
0
0
ARC
5
156
100
AcDbEntity
8
0
100
AcDbCircle
10
3.6012203595430277e-14
20
1.3968578746647025e-14
30
0
40
6.683874999999956
210
0
220
-0
230
1
100
AcDbArc
50
15.279049289008695
51
29.620950710991362
0
SPLINE
5
157
100
AcDbEntity
8
0
100
AcDbSpline
70
0
71
3
72
8
73
4
74
0
42
0.000000001
43
0.0000000001
44
0.0000000001
40
0
40
0
40
0
40
0
40
1
40
1
40
1
40
1
10
-7.705544279237591
20
-4.9769222501553037
30
0
10
-7.7807977595472657
20
-5.0356739664789538
30
0
10
-7.9943619072283978
20
-5.223363788465929
30
0
10
-8.2574673389550046
20
-5.64429140347419
30
0
0
ARC
5
158
100
AcDbEntity
8
0
100
AcDbCircle
10
9.9825429019777908e-16
20
-2.0008719029717339e-15
30
0
40
12.156866194999001
210
0
220
-0
230
1
100
AcDbArc
50
86.857291667608706
51
93.0427083323913
0
SPLINE
5
159
100
AcDbEntity
8
0
100
AcDbSpline
70
0
71
3
72
8
73
4
74
0
42
0.000000001
43
0.0000000001
44
0.0000000001
40
0
40
0
40
0
40
0
40
1
40
1
40
1
40
1
10
1.8286755516132942
20
-9.835541083234947
30
0
10
1.9430761377309791
20
-9.3497490176679126
30
0
10
1.9252754554154494
20
-9.0659881145093202
30
0
10
1.9137723442769519
20
-8.9712119101971233
30
0
0
LINE
5
160
100
AcDbEntity
8
0
100
AcDbLine
10
-4.9903633748764058
20
-7.6968461794474123
30
0
11
-3.8476450587213766
21
-5.9343839206544446
31
0
0
ARC
5
161
100
AcDbEntity
8
0
100
AcDbCircle
10
-6.8302187402690837
20
1.8786689372270871
30
0
40
0.40000000000000113
210
0
220
0
230
1
100
AcDbArc
50
257.85795139991097
51
344.62095071099651
0
ARC
5
162
100
AcDbEntity
8
0
100
AcDbCircle
10
-3.5120170405995124
20
-6.1519932804062494
30
0
40
0.40000000000000097
210
0
220
-0
230
1
100
AcDbArc
50
60.279049289008221
51
147.042048600089
0
SPLINE
5
163
100
AcDbEntity
8
0
100
AcDbSpline
70
0
71
3
72
8
73
4
74
0
42
0.000000001
43
0.0000000001
44
0.0000000001
40
0
40
0
40
0
40
0
40
1
40
1
40
1
40
1
10
-5.64429140347419
20
8.2574673389550046
30
0
10
-6.1460758257716908
20
8.5646332772066209
30
0
10
-6.941003531263112
20
8.9077787804949367
30
0
10
-8.1120040046304638
20
9.0545450858654295
30
0
0
LINE
5
164
100
AcDbEntity
8
0
100
AcDbLine
10
6.9143531755989383
20
-1.4876172823377012
30
0
11
8.9678580851051315
21
-1.9294271400590759
31
0
0
ARC
5
165
100
AcDbEntity
8
0
100
AcDbCircle
10
2.5991263454782138e-14
20
-1.0022685469678609e-14
30
0
40
6.6838749999999694
210
-0
220
0
230
1
100
AcDbArc
50
330.27904928900904
51
344.620950710991
0
ARC
5
166
100
AcDbEntity
8
0
100
AcDbCircle
10
6.8302187402690837
20
-1.8786689372270871
30
0
40
0.40000000000000119
210
0
220
-0
230
1
100
AcDbArc
50
77.857951399911514
51
164.62095071099731
0
ARC
5
167
100
AcDbEntity
8
0
100
AcDbCircle
10
6.1581135333495061
20
3.5012744431139153
30
0
40
0.40000000000000063
210
0
220
0
230
1
100
AcDbArc
50
122.85795139991092
51
209.62095071099196
0
SPLINE
5
168
100
AcDbEntity
8
0
100
AcDbSpline
70
0
71
3
72
8
73
4
74
0
42
0.000000001
43
0.0000000001
44
0.0000000001
40
0
40
0
40
0
40
0
40
1
40
1
40
1
40
1
10
8.2478466797301238
20
-5.6617089134585052
30
0
10
7.9852332461365885
20
-5.2373086194339002
30
0
10
7.7719970041024622
20
-5.0492463437499033
30
0
10
7.6968461794474123
20
-4.9903633748764058
30
0
0
SPLINE
5
169
100
AcDbEntity
8
0
100
AcDbSpline
70
0
71
3
72
8
73
4
74
0
42
0.000000001
43
0.0000000001
44
0.0000000001
40
0
40
0
40
0
40
0
40
1
40
1
40
1
40
1
10
-8.9678580851051315
20
1.9294271400590759
30
0
10
-9.0626140683587852
20
1.9410956492751361
30
0
10
-9.3463434712891367
20
1.9593915604321086
30
0
10
-9.8300278771910481
20
1.8477944244119855
30
0
0
ARC
5
170
100
AcDbEntity
8
0
100
AcDbCircle
10
-1.9982539094260285e-15
20
2.0017445674869692e-15
30
0
40
12.156866194998999
210
0
220
0
230
1
100
AcDbArc
50
266.85729166760899
51
273.04270833239099
0
SPLINE
5
171
100
AcDbEntity
8
0
100
AcDbSpline
70
0
71
3
72
8
73
4
74
0
42
0.000000001
43
0.0000000001
44
0.0000000001
40
0
40
0
40
0
40
0
40
1
40
1
40
1
40
1
10
8.9678580851051315
20
-1.9294271400590759
30
0
10
9.0626140683587852
20
-1.9410956492751361
30
0
10
9.3463434712891367
20
-1.9593915604321086
30
0
10
9.8300278771910481
20
-1.8477944244119855
30
0
0
ARC
5
172
100
AcDbEntity
8
0
100
AcDbCircle
10
-6.8334872314399533
20
-1.8667451013387004
30
0
40
0.39999999999999564
210
0
220
-0
230
1
100
AcDbArc
50
15.279049289000996
51
102.04204860008979
0
SPLINE
5
173
100
AcDbEntity
8
0
100
AcDbSpline
70
0
71
3
72
8
73
4
74
0
42
0.000000001
43
0.0000000001
44
0.0000000001
40
0
40
0
40
0
40
0
40
1
40
1
40
1
40
1
10
0.64529036128008999
20
-12.139728004891598
30
0
10
1.3711584840658881
20
-11.209191640560732
30
0
10
1.6920207905989646
20
-10.405011142394402
30
0
10
1.8286755516132942
20
-9.835541083234947
30
0
0
SPLINE
5
174
100
AcDbEntity
8
0
100
AcDbSpline
70
0
71
3
72
8
73
4
74
0
42
0.000000001
43
0.0000000001
44
0.0000000001
40
0
40
0
40
0
40
0
40
1
40
1
40
1
40
1
10
9.8300278771910481
20
-1.8477944244119855
30
0
10
10.402042162778669
20
-1.710178374598891
30
0
10
11.206781446193506
20
-1.3907201158016815
30
0
10
12.1385832714614
20
-0.66647719008814477
30
0
0
SPLINE
5
175
100
AcDbEntity
8
0
100
AcDbSpline
70
0
71
3
72
8
73
4
74
0
42
0.000000001
43
0.0000000001
44
0.0000000001
40
0
40
0
40
0
40
0
40
1
40
1
40
1
40
1
10
-8.2574673389550046
20
-5.64429140347419
30
0
10
-8.5646332772066209
20
-6.1460758257716908
30
0
10
-8.9077787804949367
20
-6.941003531263112
30
0
10
-9.0545450858654295
20
-8.1120040046304638
30
0
0
SPLINE
5
176
100
AcDbEntity
8
0
100
AcDbSpline
70
0
71
3
72
8
73
4
74
0
42
0.000000001
43
0.0000000001
44
0.0000000001
40
0
40
0
40
0
40
0
40
1
40
1
40
1
40
1
10
-1.8286755516132942
20
9.835541083234947
30
0
10
-1.9430761377309889
20
9.3497490176679126
30
0
10
-1.9252754554154494
20
9.0659881145093202
30
0
10
-1.9137723442769519
20
8.9712119101971233
30
0
0
ARC
5
177
100
AcDbEntity
8
0
100
AcDbCircle
10
-6.1581135333495061
20
-3.5012744431139153
30
0
40
0.39999999999999991
210
-0
220
0
230
1
100
AcDbArc
50
-57.142048600088089
51
29.620950710998006
0
LINE
5
178
100
AcDbEntity
8
0
100
AcDbLine
10
-3.837281749833465
20
5.9410902861360446
30
0
11
-4.9769222501553037
21
7.705544279237591
31
0
0
SPLINE
5
179
100
AcDbEntity
8
0
100
AcDbSpline
70
0
71
3
72
8
73
4
74
0
42
0.000000001
43
0.0000000001
44
0.0000000001
40
0
40
0
40
0
40
0
40
1
40
1
40
1
40
1
10
-12.139728004891598
20
-0.64529036128008999
30
0
10
-11.209191640560732
20
-1.3711584840658881
30
0
10
-10.405011142394402
20
-1.6920207905989646
30
0
10
-9.835541083234947
20
-1.8286755516132942
30
0
0
CIRCLE
5
180
100
AcDbEntity
8
0
100
AcDbCircle
10
0
20
0
30
0
40
1.905
210
0
220
-0
230
1
0
ENDSEC
0
SECTION
2
OBJECTS
0
DICTIONARY
5
C
100
AcDbDictionary
3
ACAD_GROUP
350
D
3
ACAD_MLINESTYLE
350
17
0
DICTIONARY
5
D
100
AcDbDictionary
0
DICTIONARY
5
1A
330
C
100
AcDbDictionary
0
DICTIONARY
5
17
100
AcDbDictionary
0
ENDSEC
0
EOF
