0
SECTION
2
HEADER
9
$INSUNITS
70
4
9
$ACADVER
1
AC1014
9
$HANDSEED
5
FFFF
0
ENDSEC
0
SECTION
2
TABLES
0
TABLE
2
VPORT
5
8
100
AcDbSymbolTable
0
ENDTAB
0
TABLE
2
LTYPE
5
5
100
AcDbSymbolTable
0
LTYPE
5
14
100
AcDbSymbolTableRecord
100
AcDbLinetypeTableRecord
2
BYBLOCK
70
0
0
LTYPE
5
15
100
AcDbSymbolTableRecord
100
AcDbLinetypeTableRecord
2
BYLAYER
70
0
0
ENDTAB
0
TABLE
2
LAYER
5
2
100
AcDbSymbolTable
70
2
0
LAYER
5
50
100
AcDbSymbolTableRecord
100
AcDbLayerTableRecord
2
0
70
0
6
CONTINUOUS
0
ENDTAB
0
TABLE
2
STYLE
5
3
100
AcDbSymbolTable
70
1
0
STYLE
5
11
100
AcDbSymbolTableRecord
100
AcDbTextStyleTableRecord
2
STANDARD
70
0
0
ENDTAB
0
TABLE
2
VIEW
5
6
100
AcDbSymbolTable
70
0
0
ENDTAB
0
TABLE
2
UCS
5
7
100
AcDbSymbolTable
70
0
0
ENDTAB
0
TABLE
2
APPID
5
9
100
AcDbSymbolTable
70
2
0
APPID
5
12
100
AcDbSymbolTableRecord
100
AcDbRegAppTableRecord
2
ACAD
70
0
0
ENDTAB
0
TABLE
2
DIMSTYLE
5
A
100
AcDbSymbolTable
70
1
0
ENDTAB
0
TABLE
2
BLOCK_RECORD
5
1
100
AcDbSymbolTable
70
1
0
BLOCK_RECORD
5
1F
100
AcDbSymbolTableRecord
100
AcDbBlockTableRecord
2
*MODEL_SPACE
0
BLOCK_RECORD
5
1B
100
AcDbSymbolTableRecord
100
AcDbBlockTableRecord
2
*PAPER_SPACE
0
ENDTAB
0
ENDSEC
0
SECTION
2
BLOCKS
0
BLOCK
5
20
100
AcDbEntity
100
AcDbBlockBegin
2
*MODEL_SPACE
0
ENDBLK
5
21
100
AcDbEntity
100
AcDbBlockEnd
0
BLOCK
5
1C
100
AcDbEntity
100
AcDbBlockBegin
2
*PAPER_SPACE
0
ENDBLK
5
1D
100
AcDbEntity
100
AcDbBlockEnd
0
ENDSEC
0
SECTION
2
ENTITIES
0
ARC
5
100
100
AcDbEntity
8
0
100
AcDbCircle
10
-2.6645352591003757e-14
20
87.5
30
0
40
12.872123082834809
210
0
220
-0
230
1
100
AcDbArc
50
42.007291667608712
51
48.192708332391305
0
ARC
5
101
100
AcDbEntity
8
0
100
AcDbCircle
10
-3.9968028886505635e-14
20
87.499999999999972
30
0
40
7.0771249999999757
210
0
220
0
230
1
100
AcDbArc
50
240.2586360204759
51
254.94136397952389
0
ARC
5
102
100
AcDbEntity
8
0
100
AcDbCircle
10
1.9426126284631229
20
94.720363871811486
30
0
40
0.40000000000000729
210
0
220
0
230
1
100
AcDbArc
50
168.00795139991288
51
254.94136397952627
0
ARC
5
103
100
AcDbEntity
8
0
100
AcDbCircle
10
1.9678045667697663
20
80.28646110063687
30
0
40
0.39999999999999897
210
0
220
0
230
1
100
AcDbArc
50
105.25863602047636
51
192.1920486000873
0
ARC
5
104
100
AcDbEntity
8
0
100
AcDbCircle
10
-7.2203638718115126
20
89.442612628463138
30
0
40
0.39999999999998342
210
0
220
0
230
1
100
AcDbArc
50
258.00795139991192
51
344.94136397952644
0
LINE
5
105
100
AcDbEntity
8
0
100
AcDbLine
10
9.4937012477633029
20
89.55123179965193
30
0
11
7.2980145595597667
21
89.076826481918062
31
0
0
ARC
5
106
100
AcDbEntity
8
0
100
AcDbCircle
10
-1.1102230246251565e-14
20
87.500000000000014
30
0
40
7.0771249999999828
210
0
220
-0
230
1
100
AcDbArc
50
60.258636020476104
51
74.941363979523857
0
SPLINE
5
107
100
AcDbEntity
8
0
100
AcDbSpline
70
0
71
3
72
8
73
4
74
0
42
0.000000001
43
0.0000000001
44
0.0000000001
40
0
40
0
40
0
40
0
40
1
40
1
40
1
40
1
10
1.9635245318261663
20
77.090883473413967
30
0
10
2.0833089071416366
20
77.605572779678965
30
0
10
2.0636743835738725
20
77.905978560964272
30
0
10
2.0512317996518981
20
78.00629875223666
30
0
0
SPLINE
5
108
100
AcDbEntity
8
0
100
AcDbSpline
70
0
71
3
72
8
73
4
74
0
42
0.000000001
43
0.0000000001
44
0.0000000001
40
0
40
0
40
0
40
0
40
1
40
1
40
1
40
1
10
12.852143747549755
20
88.216905678570598
30
0
10
11.864849943581648
20
88.982898608874081
30
0
10
11.012468459389339
20
89.320408681194806
30
0
10
10.409116526586008
20
89.463524531826195
30
0
0
SPLINE
5
109
100
AcDbEntity
8
0
100
AcDbSpline
70
0
71
3
72
8
73
4
74
0
42
0.000000001
43
0.0000000001
44
0.0000000001
40
0
40
0
40
0
40
0
40
1
40
1
40
1
40
1
10
-8.7487783935904151
20
93.47193537062951
30
0
10
-8.4695384389920072
20
93.023294727899568
30
0
10
-8.2432357691773852
20
92.82475946760519
30
0
10
-8.1635004461720406
20
92.76262061553328
30
0
0
ARC
5
110
100
AcDbEntity
8
0
100
AcDbCircle
10
7.2203638718114584
20
85.557387371536862
30
0
40
0.4000000000000008
210
0
220
-0
230
1
100
AcDbArc
50
78.007951399912344
51
164.94136397952647
0
ARC
5
111
100
AcDbEntity
8
0
100
AcDbCircle
10
-7.21353889936315
20
85.532195433230214
30
0
40
0.39999999999999231
210
0
220
-0
230
1
100
AcDbArc
50
15.258636020474654
51
102.19204860008867
0
LINE
5
112
100
AcDbEntity
8
0
100
AcDbLine
10
2.0512317996518981
20
78.00629875223666
30
0
11
1.5768264819180366
21
80.201985440440197
31
0
0
ARC
5
113
100
AcDbEntity
8
0
100
AcDbCircle
10
6.4792028191971358
20
91.231933693587365
30
0
40
0.39999999999997082
210
0
220
0
230
1
100
AcDbArc
50
123.00795139991334
51
209.94136397953011
0
SPLINE
5
114
100
AcDbEntity
8
0
100
AcDbSpline
70
0
71
3
72
8
73
4
74
0
42
0.000000001
43
0.0000000001
44
0.0000000001
40
0
40
0
40
0
40
0
40
1
40
1
40
1
40
1
10
-12.852143747549816
20
86.783094321429402
30
0
10
-11.864849943581707
20
86.017101391125919
30
0
10
-11.012468459389382
20
85.679591318805194
30
0
10
-10.409116526586057
20
85.536475468173791
30
0
0
SPLINE
5
115
100
AcDbEntity
8
0
100
AcDbSpline
70
0
71
3
72
8
73
4
74
0
42
0.000000001
43
0.0000000001
44
0.0000000001
40
0
40
0
40
0
40
0
40
1
40
1
40
1
40
1
10
-5.9992462477685304
20
96.227624573485301
30
0
10
-6.5314031229295999
20
96.551470741343749
30
0
10
-7.3740492236424693
20
96.912600624440017
30
0
10
-8.6143488385841351
20
97.064755446263845
30
0
0
SPLINE
5
116
100
AcDbEntity
8
0
100
AcDbSpline
70
0
71
3
72
8
73
4
74
0
42
0.000000001
43
0.0000000001
44
0.0000000001
40
0
40
0
40
0
40
0
40
1
40
1
40
1
40
1
10
2.0180801011496108
20
97.000803544070905
30
0
10
2.0301724264494858
20
97.101166556881523
30
0
10
2.0487582185314013
20
97.401639045269505
30
0
10
1.9292548157567113
20
97.913470223366915
30
0
0
ARC
5
117
100
AcDbEntity
8
0
100
AcDbCircle
10
2.2204460492503131e-15
20
87.499999999999986
30
0
40
7.0771249999999686
210
-0
220
0
230
1
100
AcDbArc
50
330.25863602047605
51
344.94136397952394
0
SPLINE
5
118
100
AcDbEntity
8
0
100
AcDbSpline
70
0
71
3
72
8
73
4
74
0
42
0.000000001
43
0.0000000001
44
0.0000000001
40
0
40
0
40
0
40
0
40
1
40
1
40
1
40
1
10
-1.9635245318262196
20
97.909116526586018
30
0
10
-2.0833089071416899
20
97.39442722032102
30
0
10
-2.0636743835739257
20
97.094021439035714
30
0
10
-2.0512317996519558
20
96.99370124776334
30
0
0
LINE
5
119
100
AcDbEntity
8
0
100
AcDbLine
10
-5.2626206155333062
20
79.336499553827977
30
0
11
-4.0454908861441297
21
81.224539717618313
31
0
0
ARC
5
120
100
AcDbEntity
8
0
100
AcDbCircle
10
-2.6645352591003757e-14
20
87.5
30
0
40
12.872123082834854
210
0
220
-0
230
1
100
AcDbArc
50
87.007291667608683
51
93.192708332391277
0
LINE
5
121
100
AcDbEntity
8
0
100
AcDbLine
10
1.5513420505008457
20
94.803474249148323
30
0
11
2.0180801011496108
21
97.000803544070905
31
0
0
ARC
5
122
100
AcDbEntity
8
0
100
AcDbCircle
10
-3.7319336935873726
20
93.979202819197155
30
0
40
0.39999999999999369
210
0
220
0
230
1
100
AcDbArc
50
213.00795139991195
51
299.94136397952303
0
SPLINE
5
123
100
AcDbEntity
8
0
100
AcDbSpline
70
0
71
3
72
8
73
4
74
0
42
0.000000001
43
0.0000000001
44
0.0000000001
40
0
40
0
40
0
40
0
40
1
40
1
40
1
40
1
10
10.409116526586008
20
89.463524531826195
30
0
10
9.8944272203210133
20
89.583308907141657
30
0
10
9.5940214390356857
20
89.563674383573911
30
0
10
9.4937012477633029
20
89.55123179965193
30
0
0
LINE
5
124
100
AcDbEntity
8
0
100
AcDbLine
10
-4.0673716839451224
20
93.761300651643111
30
0
11
-5.2910844882332153
21
95.645080737234252
31
0
0
SPLINE
5
125
100
AcDbEntity
8
0
100
AcDbSpline
70
0
71
3
72
8
73
4
74
0
42
0.000000001
43
0.0000000001
44
0.0000000001
40
0
40
0
40
0
40
0
40
1
40
1
40
1
40
1
10
-5.2910844882332153
20
95.645080737234252
30
0
10
-5.3535012899520451
20
95.724598669392819
30
0
10
-5.5528252844363424
20
95.950206943106821
30
0
10
-5.9992462477685304
20
96.227624573485301
30
0
0
SPLINE
5
126
100
AcDbEntity
8
0
100
AcDbSpline
70
0
71
3
72
8
73
4
74
0
42
0.000000001
43
0.0000000001
44
0.0000000001
40
0
40
0
40
0
40
0
40
1
40
1
40
1
40
1
10
-9.5947668634651571
20
96.080909129888298
30
0
10
-9.4382835150144029
20
94.841148190720475
30
0
10
-9.0742144482409692
20
93.999767802233492
30
0
10
-8.7487783935904151
20
93.47193537062951
30
0
0
ARC
5
127
100
AcDbEntity
8
0
100
AcDbCircle
10
-2.6645352591003757e-14
20
87.5
30
0
40
12.872123082834801
210
-0
220
0
230
1
100
AcDbArc
50
-2.9927083323908517
51
3.1927083323913799
0
ARC
5
128
100
AcDbEntity
8
0
100
AcDbCircle
10
-2.6645352591003757e-14
20
87.5
30
0
40
12.872123082834804
210
0
220
0
230
1
100
AcDbArc
50
177.00729166760902
51
183.19270833239125
0
ARC
5
129
100
AcDbEntity
8
0
100
AcDbCircle
10
-6.4392935428259079e-14
20
87.500000000000014
30
0
40
7.0771249999999641
210
0
220
0
230
1
100
AcDbArc
50
150.25863602047608
51
164.94136397952389
0
SPLINE
5
130
100
AcDbEntity
8
0
100
AcDbSpline
70
0
71
3
72
8
73
4
74
0
42
0.000000001
43
0.0000000001
44
0.0000000001
40
0
40
0
40
0
40
0
40
1
40
1
40
1
40
1
10
0.71690567857056742
20
74.647856252450211
30
0
10
1.4828986088740437
20
75.635150056418325
30
0
10
1.820408681194785
20
76.487531540610632
30
0
10
1.9635245318261663
20
77.090883473413967
30
0
0
SPLINE
5
131
100
AcDbEntity
8
0
100
AcDbSpline
70
0
71
3
72
8
73
4
74
0
42
0.000000001
43
0.0000000001
44
0.0000000001
40
0
40
0
40
0
40
0
40
1
40
1
40
1
40
1
10
1.9292548157567113
20
97.913470223366915
30
0
10
1.781956902029258
20
98.518755779802248
30
0
10
1.4414735193012751
20
99.369953940983251
30
0
10
0.67203895717480755
20
100.35456791571343
30
0
0
SPLINE
5
132
100
AcDbEntity
8
0
100
AcDbSpline
70
0
71
3
72
8
73
4
74
0
42
0.000000001
43
0.0000000001
44
0.0000000001
40
0
40
0
40
0
40
0
40
1
40
1
40
1
40
1
10
8.7276245734852882
20
93.499246247768497
30
0
10
9.0514707413437243
20
94.031403122929589
30
0
10
9.412600624439996
20
94.87404922364243
30
0
10
9.5647554462638027
20
96.114348838584107
30
0
0
SPLINE
5
133
100
AcDbEntity
8
0
100
AcDbSpline
70
0
71
3
72
8
73
4
74
0
42
0.000000001
43
0.0000000001
44
0.0000000001
40
0
40
0
40
0
40
0
40
1
40
1
40
1
40
1
10
-8.7276245734853397
20
81.500753752231475
30
0
10
-9.0514707413437669
20
80.968596877070411
30
0
10
-9.412600624440044
20
80.125950776357541
30
0
10
-9.5647554462638631
20
78.885651161415893
30
0
0
ARC
5
134
100
AcDbEntity
8
0
100
AcDbCircle
10
0
20
87.5
30
0
40
7.0771249999999695
210
0
220
-0
230
1
100
AcDbArc
50
15.258636020476107
51
29.941363979523874
0
LINE
5
135
100
AcDbEntity
8
0
100
AcDbLine
10
4.06737168394507
20
81.238699348356874
30
0
11
5.291084488233154
21
79.354919262765719
31
0
0
SPLINE
5
136
100
AcDbEntity
8
0
100
AcDbSpline
70
0
71
3
72
8
73
4
74
0
42
0.000000001
43
0.0000000001
44
0.0000000001
40
0
40
0
40
0
40
0
40
1
40
1
40
1
40
1
10
5.9719353706294687
20
96.248778393590371
30
0
10
5.5232947278995406
20
95.969538438991989
30
0
10
5.3247594676051548
20
95.743235769177346
30
0
10
5.2626206155332618
20
95.663500446172023
30
0
0
ARC
5
137
100
AcDbEntity
8
0
100
AcDbCircle
10
-2.2204460492503131e-14
20
87.499999999999972
30
0
40
7.0771249999999783
210
-0
220
0
230
1
100
AcDbArc
50
285.25863602047599
51
299.941363979524
0
ARC
5
138
100
AcDbEntity
8
0
100
AcDbCircle
10
6.4921902253053609
20
83.790705681120158
30
0
40
0.39999999999999969
210
0
220
0
230
1
100
AcDbArc
50
150.25863602047326
51
237.19204860008708
0
ARC
5
139
100
AcDbEntity
8
0
100
AcDbCircle
10
7.2135388993630958
20
89.467804566769786
30
0
40
0.40000000000000308
210
0
220
0
230
1
100
AcDbArc
50
195.2586360204742
51
282.19204860008711
0
ARC
5
140
100
AcDbEntity
8
0
100
AcDbCircle
10
3.7092943188797989
20
93.992190225305393
30
0
40
0.39999999999999891
210
0
220
0
230
1
100
AcDbArc
50
240.25863602047679
51
327.19204860008858
0
SPLINE
5
141
100
AcDbEntity
8
0
100
AcDbSpline
70
0
71
3
72
8
73
4
74
0
42
0.000000001
43
0.0000000001
44
0.0000000001
40
0
40
0
40
0
40
0
40
1
40
1
40
1
40
1
10
-10.409116526586057
20
85.536475468173791
30
0
10
-9.8944272203210701
20
85.416691092858343
30
0
10
-9.5940214390357426
20
85.436325616426089
30
0
10
-9.4937012477633598
20
85.44876820034807
30
0
0
SPLINE
5
142
100
AcDbEntity
8
0
100
AcDbSpline
70
0
71
3
72
8
73
4
74
0
42
0.000000001
43
0.0000000001
44
0.0000000001
40
0
40
0
40
0
40
0
40
1
40
1
40
1
40
1
10
-1.9292548157567646
20
77.086529776633085
30
0
10
-1.7819569020293136
20
76.481244220197752
30
0
10
-1.4414735193013395
20
75.630046059016749
30
0
10
-0.67203895717486306
20
74.645432084286568
30
0
0
ARC
5
143
100
AcDbEntity
8
0
100
AcDbCircle
10
-1.9678045667698196
20
94.71353889936313
30
0
40
0.39999999999999603
210
-0
220
0
230
1
100
AcDbArc
50
-74.74136397952519
51
12.192048600087103
0
LINE
5
144
100
AcDbEntity
8
0
100
AcDbLine
10
-9.4937012477633598
20
85.44876820034807
30
0
11
-7.2980145595598289
21
85.923173518081924
31
0
0
ARC
5
145
100
AcDbEntity
8
0
100
AcDbCircle
10
-6.4921902253054142
20
91.209294318879842
30
0
40
0.39999999999999675
210
-0
220
0
230
1
100
AcDbArc
50
-29.741363979526977
51
57.192048600086437
0
LINE
5
146
100
AcDbEntity
8
0
100
AcDbLine
10
-8.1635004461720406
20
92.76262061553328
30
0
11
-6.2754602823817063
21
91.545490886144094
31
0
0
SPLINE
5
147
100
AcDbEntity
8
0
100
AcDbSpline
70
0
71
3
72
8
73
4
74
0
42
0.000000001
43
0.0000000001
44
0.0000000001
40
0
40
0
40
0
40
0
40
1
40
1
40
1
40
1
10
-9.5008035440709335
20
89.518080101149621
30
0
10
-9.6011665568815516
20
89.530172426449496
30
0
10
-9.9016390452695404
20
89.548758218531432
30
0
10
-10.413470223366943
20
89.429254815756735
30
0
0
ARC
5
148
100
AcDbEntity
8
0
100
AcDbCircle
10
-2.6645352591003757e-14
20
87.5
30
0
40
12.872123082834799
210
0
220
0
230
1
100
AcDbArc
50
267.00729166760902
51
273.19270833239131
0
ARC
5
149
100
AcDbEntity
8
0
100
AcDbCircle
10
3.7319336935873171
20
81.02079718080283
30
0
40
0.39999999999999647
210
0
220
-0
230
1
100
AcDbArc
50
33.007951399911683
51
119.94136397952514
0
SPLINE
5
150
100
AcDbEntity
8
0
100
AcDbSpline
70
0
71
3
72
8
73
4
74
0
42
0.000000001
43
0.0000000001
44
0.0000000001
40
0
40
0
40
0
40
0
40
1
40
1
40
1
40
1
10
-10.413470223366943
20
89.429254815756735
30
0
10
-11.018755779802261
20
89.281956902029279
30
0
10
-11.869953940983278
20
88.941473519301312
30
0
10
-12.854567915713462
20
88.172038957174834
30
0
0
SPLINE
5
151
100
AcDbEntity
8
0
100
AcDbSpline
70
0
71
3
72
8
73
4
74
0
42
0.000000001
43
0.0000000001
44
0.0000000001
40
0
40
0
40
0
40
0
40
1
40
1
40
1
40
1
10
-8.1450807372342879
20
82.208915511766804
30
0
10
-8.2245986693928419
20
82.146498710047965
30
0
10
-8.4502069431068438
20
81.947174715563676
30
0
10
-8.7276245734853397
20
81.500753752231475
30
0
0
SPLINE
5
152
100
AcDbEntity
8
0
100
AcDbSpline
70
0
71
3
72
8
73
4
74
0
42
0.000000001
43
0.0000000001
44
0.0000000001
40
0
40
0
40
0
40
0
40
1
40
1
40
1
40
1
10
5.291084488233154
20
79.354919262765719
30
0
10
5.3535012899520016
20
79.275401330607181
30
0
10
5.5528252844362855
20
79.049793056893179
30
0
10
5.9992462477684843
20
78.772375426514699
30
0
0
SPLINE
5
153
100
AcDbEntity
8
0
100
AcDbSpline
70
0
71
3
72
8
73
4
74
0
42
0.000000001
43
0.0000000001
44
0.0000000001
40
0
40
0
40
0
40
0
40
1
40
1
40
1
40
1
10
-2.0180801011496663
20
77.999196455929095
30
0
10
-2.0301724264495391
20
77.898833443118477
30
0
10
-2.0487582185314546
20
77.598360954730481
30
0
10
-1.9292548157567646
20
77.086529776633085
30
0
0
ARC
5
154
100
AcDbEntity
8
0
100
AcDbCircle
10
-5.1070259132757201e-14
20
87.499999999999986
30
0
40
7.0771249999999783
210
0
220
0
230
1
100
AcDbArc
50
195.25863602047596
51
209.94136397952377
0
LINE
5
155
100
AcDbEntity
8
0
100
AcDbLine
10
8.1635004461719767
20
82.23737938446672
30
0
11
6.2754602823816583
21
83.454509113855906
31
0
0
LINE
5
156
100
AcDbEntity
8
0
100
AcDbLine
10
7.3034742491482953
20
85.948657949499122
30
0
11
9.5008035440708785
21
85.481919898850379
31
0
0
SPLINE
5
157
100
AcDbEntity
8
0
100
AcDbSpline
70
0
71
3
72
8
73
4
74
0
42
0.000000001
43
0.0000000001
44
0.0000000001
40
0
40
0
40
0
40
0
40
1
40
1
40
1
40
1
10
8.1450807372342435
20
92.791084488233196
30
0
10
8.2245986693927868
20
92.853501289952035
30
0
10
8.4502069431067923
20
93.052825284436295
30
0
10
8.7276245734852882
20
93.499246247768497
30
0
0
LINE
5
158
100
AcDbEntity
8
0
100
AcDbLine
10
6.2613006516431007
20
91.567371683945083
30
0
11
8.1450807372342435
21
92.791084488233196
31
0
0
ARC
5
159
100
AcDbEntity
8
0
100
AcDbCircle
10
-6.4792028191971873
20
83.768066306412635
30
0
40
0.3999999999999958
210
-0
220
0
230
1
100
AcDbArc
50
-56.992048600090953
51
29.941363979529481
0
LINE
5
160
100
AcDbEntity
8
0
100
AcDbLine
10
-1.5513420505009079
20
80.196525750851663
30
0
11
-2.0180801011496663
21
77.999196455929095
31
0
0
SPLINE
5
161
100
AcDbEntity
8
0
100
AcDbSpline
70
0
71
3
72
8
73
4
74
0
42
0.000000001
43
0.0000000001
44
0.0000000001
40
0
40
0
40
0
40
0
40
1
40
1
40
1
40
1
10
8.7487783935903618
20
81.52806462937049
30
0
10
8.4695384389919646
20
81.976705272100432
30
0
10
8.2432357691773301
20
82.17524053239481
30
0
10
8.1635004461719767
20
82.23737938446672
30
0
0
ARC
5
162
100
AcDbEntity
8
0
100
AcDbCircle
10
-4.6629367034256575e-14
20
87.500000000000014
30
0
40
7.0771249999999943
210
0
220
0
230
1
100
AcDbArc
50
105.25863602047593
51
119.941363979524
0
ARC
5
163
100
AcDbEntity
8
0
100
AcDbCircle
10
-1.9426126284631762
20
80.2796361281885
30
0
40
0.39999999999999863
210
-0
220
0
230
1
100
AcDbArc
50
-11.992048600087386
51
74.94136397952542
0
LINE
5
164
100
AcDbEntity
8
0
100
AcDbLine
10
-6.2613006516431602
20
83.432628316054874
30
0
11
-8.1450807372342879
21
82.208915511766804
31
0
0
ARC
5
165
100
AcDbEntity
8
0
100
AcDbCircle
10
-3.7092943188798522
20
81.007809774694607
30
0
40
0.39999999999999342
210
0
220
-0
230
1
100
AcDbArc
50
60.258636020478178
51
147.19204860008858
0
SPLINE
5
166
100
AcDbEntity
8
0
100
AcDbSpline
70
0
71
3
72
8
73
4
74
0
42
0.000000001
43
0.0000000001
44
0.0000000001
40
0
40
0
40
0
40
0
40
1
40
1
40
1
40
1
10
-0.71690567857062071
20
100.35214374754979
30
0
10
-1.4828986088741081
20
99.364849943581675
30
0
10
-1.8204086811948406
20
98.512468459389368
30
0
10
-1.9635245318262196
20
97.909116526586018
30
0
0
ARC
5
167
100
AcDbEntity
8
0
100
AcDbCircle
10
-2.6645352591003757e-14
20
87.5
30
0
40
12.872123082834797
210
0
220
0
230
1
100
AcDbArc
50
132.00729166760894
51
138.19270833239133
0
LINE
5
168
100
AcDbEntity
8
0
100
AcDbLine
10
-7.3034742491483495
20
89.051342050500892
30
0
11
-9.5008035440709335
21
89.518080101149621
31
0
0
SPLINE
5
169
100
AcDbEntity
8
0
100
AcDbSpline
70
0
71
3
72
8
73
4
74
0
42
0.000000001
43
0.0000000001
44
0.0000000001
40
0
40
0
40
0
40
0
40
1
40
1
40
1
40
1
10
5.9992462477684843
20
78.772375426514699
30
0
10
6.5314031229295333
20
78.448529258656251
30
0
10
7.3740492236424124
20
78.087399375559983
30
0
10
8.6143488385840818
20
77.935244553736155
30
0
0
ARC
5
170
100
AcDbEntity
8
0
100
AcDbCircle
10
-2.6645352591003757e-14
20
87.5
30
0
40
12.872123082834827
210
-0
220
0
230
1
100
AcDbArc
50
312.00729166760863
51
318.19270833239091
0
SPLINE
5
171
100
AcDbEntity
8
0
100
AcDbSpline
70
0
71
3
72
8
73
4
74
0
42
0.000000001
43
0.0000000001
44
0.0000000001
40
0
40
0
40
0
40
0
40
1
40
1
40
1
40
1
10
-5.971935370629522
20
78.751221606409601
30
0
10
-5.5232947278995947
20
79.030461561008011
30
0
10
-5.3247594676052135
20
79.25676423082264
30
0
10
-5.2626206155333062
20
79.336499553827977
30
0
0
LINE
5
172
100
AcDbEntity
8
0
100
AcDbLine
10
5.2626206155332618
20
95.663500446172023
30
0
11
4.0454908861440764
21
93.775460282381687
31
0
0
ARC
5
173
100
AcDbEntity
8
0
100
AcDbCircle
10
-2.6645352591003757e-14
20
87.5
30
0
40
12.872123082834797
210
0
220
0
230
1
100
AcDbArc
50
222.00729166760894
51
228.19270833239105
0
SPLINE
5
174
100
AcDbEntity
8
0
100
AcDbSpline
70
0
71
3
72
8
73
4
74
0
42
0.000000001
43
0.0000000001
44
0.0000000001
40
0
40
0
40
0
40
0
40
1
40
1
40
1
40
1
10
10.413470223366888
20
85.570745184243265
30
0
10
11.0187557798022
20
85.718043097970707
30
0
10
11.869953940983224
20
86.058526480698688
30
0
10
12.854567915713403
20
86.827961042825152
30
0
0
SPLINE
5
175
100
AcDbEntity
8
0
100
AcDbSpline
70
0
71
3
72
8
73
4
74
0
42
0.000000001
43
0.0000000001
44
0.0000000001
40
0
40
0
40
0
40
0
40
1
40
1
40
1
40
1
10
9.5008035440708785
20
85.481919898850379
30
0
10
9.6011665568814983
20
85.469827573550475
30
0
10
9.9016390452694871
20
85.451241781468568
30
0
10
10.413470223366888
20
85.570745184243265
30
0
0
SPLINE
5
176
100
AcDbEntity
8
0
100
AcDbSpline
70
0
71
3
72
8
73
4
74
0
42
0.000000001
43
0.0000000001
44
0.0000000001
40
0
40
0
40
0
40
0
40
1
40
1
40
1
40
1
10
-8.5809091298883331
20
77.905233136534875
30
0
10
-7.3411481907204834
20
78.06171648498561
30
0
10
-6.4997678022335492
20
78.425785551759063
30
0
10
-5.971935370629522
20
78.751221606409601
30
0
0
SPLINE
5
177
100
AcDbEntity
8
0
100
AcDbSpline
70
0
71
3
72
8
73
4
74
0
42
0.000000001
43
0.0000000001
44
0.0000000001
40
0
40
0
40
0
40
0
40
1
40
1
40
1
40
1
10
8.5809091298882763
20
97.094766863465125
30
0
10
7.3411481907204319
20
96.938283515014376
30
0
10
6.4997678022334782
20
96.574214448240937
30
0
10
5.9719353706294687
20
96.248778393590371
30
0
0
SPLINE
5
178
100
AcDbEntity
8
0
100
AcDbSpline
70
0
71
3
72
8
73
4
74
0
42
0.000000001
43
0.0000000001
44
0.0000000001
40
0
40
0
40
0
40
0
40
1
40
1
40
1
40
1
10
9.5947668634651002
20
78.919090870111688
30
0
10
9.4382835150143478
20
80.15885180927954
30
0
10
9.0742144482409088
20
81.000232197766479
30
0
10
8.7487783935903618
20
81.52806462937049
30
0
0
LINE
5
179
100
AcDbEntity
8
0
100
AcDbLine
10
-2.0512317996519558
20
96.99370124776334
30
0
11
-1.5768264819180833
21
94.798014559559803
31
0
0
CIRCLE
5
180
100
AcDbEntity
8
0
100
AcDbCircle
10
1.4876988529977098e-13
20
87.499999999999829
30
0
40
2.9249999999999998
210
0
220
0
230
1
0
ENDSEC
0
SECTION
2
OBJECTS
0
DICTIONARY
5
C
100
AcDbDictionary
3
ACAD_GROUP
350
D
3
ACAD_MLINESTYLE
350
17
0
DICTIONARY
5
D
100
AcDbDictionary
0
DICTIONARY
5
1A
330
C
100
AcDbDictionary
0
DICTIONARY
5
17
100
AcDbDictionary
0
ENDSEC
0
EOF
