0
SECTION
2
HEADER
9
$INSUNITS
70
4
9
$ACADVER
1
AC1014
9
$HANDSEED
5
FFFF
0
ENDSEC
0
SECTION
2
TABLES
0
TABLE
2
VPORT
5
8
100
AcDbSymbolTable
0
ENDTAB
0
TABLE
2
LTYPE
5
5
100
AcDbSymbolTable
0
LTYPE
5
14
100
AcDbSymbolTableRecord
100
AcDbLinetypeTableRecord
2
BYBLOCK
70
0
0
LTYPE
5
15
100
AcDbSymbolTableRecord
100
AcDbLinetypeTableRecord
2
BYLAYER
70
0
0
ENDTAB
0
TABLE
2
LAYER
5
2
100
AcDbSymbolTable
70
2
0
LAYER
5
50
100
AcDbSymbolTableRecord
100
AcDbLayerTableRecord
2
0
70
0
6
CONTINUOUS
0
ENDTAB
0
TABLE
2
STYLE
5
3
100
AcDbSymbolTable
70
1
0
STYLE
5
11
100
AcDbSymbolTableRecord
100
AcDbTextStyleTableRecord
2
STANDARD
70
0
0
ENDTAB
0
TABLE
2
VIEW
5
6
100
AcDbSymbolTable
70
0
0
ENDTAB
0
TABLE
2
UCS
5
7
100
AcDbSymbolTable
70
0
0
ENDTAB
0
TABLE
2
APPID
5
9
100
AcDbSymbolTable
70
2
0
APPID
5
12
100
AcDbSymbolTableRecord
100
AcDbRegAppTableRecord
2
ACAD
70
0
0
ENDTAB
0
TABLE
2
DIMSTYLE
5
A
100
AcDbSymbolTable
70
1
0
ENDTAB
0
TABLE
2
BLOCK_RECORD
5
1
100
AcDbSymbolTable
70
1
0
BLOCK_RECORD
5
1F
100
AcDbSymbolTableRecord
100
AcDbBlockTableRecord
2
*MODEL_SPACE
0
BLOCK_RECORD
5
1B
100
AcDbSymbolTableRecord
100
AcDbBlockTableRecord
2
*PAPER_SPACE
0
ENDTAB
0
ENDSEC
0
SECTION
2
BLOCKS
0
BLOCK
5
20
100
AcDbEntity
100
AcDbBlockBegin
2
*MODEL_SPACE
0
ENDBLK
5
21
100
AcDbEntity
100
AcDbBlockEnd
0
BLOCK
5
1C
100
AcDbEntity
100
AcDbBlockBegin
2
*PAPER_SPACE
0
ENDBLK
5
1D
100
AcDbEntity
100
AcDbBlockEnd
0
ENDSEC
0
SECTION
2
ENTITIES
0
ARC
5
100
100
AcDbEntity
8
0
100
AcDbCircle
10
4.294451298064827e-31
20
87.5
30
0
40
24.61284534798132
210
0
220
-0
230
1
100
AcDbArc
50
87.883376966822752
51
92.11662303317722
0
SPLINE
5
101
100
AcDbEntity
8
0
100
AcDbSpline
70
0
71
3
72
8
73
4
74
0
42
0.000000001
43
0.0000000001
44
0.0000000001
40
0
40
0
40
0
40
0
40
1
40
1
40
1
40
1
10
20.761146162482895
20
93.723981402929098
30
0
10
21.368795864678699
20
94.153182492043626
30
0
10
22.193388722201497
20
94.880134505680914
30
0
10
23.071664782005598
20
96.072656549192189
30
0
0
ARC
5
102
100
AcDbEntity
8
0
100
AcDbCircle
10
-1.9428902930940239e-14
20
87.500000000000028
30
0
40
24.612845347981317
210
0
220
-0
230
1
100
AcDbArc
50
20.383376966822681
51
24.616623033176989
0
LINE
5
103
100
AcDbEntity
8
0
100
AcDbLine
10
18.120270755757375
20
92.704783783066347
30
0
11
19.801433177328306
21
93.187673196057744
31
0
0
LINE
5
104
100
AcDbEntity
8
0
100
AcDbLine
10
9.9799353907957808
20
69.476480036993493
30
0
11
9.1326284207163777
21
71.006695764051727
31
0
0
ARC
5
105
100
AcDbEntity
8
0
100
AcDbCircle
10
-3.780309398848658e-13
20
87.499999999999915
30
0
40
18.457199858156038
210
0
220
-0
230
1
100
AcDbArc
50
7.6895115615576559
51
14.81048843844243
0
SPLINE
5
106
100
AcDbEntity
8
0
100
AcDbSpline
70
0
71
3
72
8
73
4
74
0
42
0.000000001
43
0.0000000001
44
0.0000000001
40
0
40
0
40
0
40
0
40
1
40
1
40
1
40
1
10
22.375914199336108
20
97.752347041901885
30
0
10
20.911638818013508
20
97.974552507941894
30
0
10
19.814530918301003
20
97.905510005109676
30
0
10
19.083372627158507
20
97.778926272466407
30
0
0
LINE
5
107
100
AcDbEntity
8
0
100
AcDbLine
10
16.493304235948298
20
78.367371579283628
30
0
11
18.023519963006503
21
77.520064609204226
31
0
0
ARC
5
108
100
AcDbEntity
8
0
100
AcDbCircle
10
-18.687630454570197
20
90.023183402736663
30
0
40
0.40000000000001734
210
0
220
0
230
1
100
AcDbArc
50
263.52594094534317
51
352.31048843845923
0
LINE
5
109
100
AcDbEntity
8
0
100
AcDbLine
10
20.470717127761894
20
89.822955560597194
30
0
11
18.732731797629022
21
89.625734199876362
31
0
0
ARC
5
110
100
AcDbEntity
8
0
100
AcDbCircle
10
4.294451298064827e-31
20
87.5
30
0
40
24.612845347981292
210
0
220
-0
230
1
100
AcDbArc
50
42.88337696682273
51
47.116623033177071
0
SPLINE
5
111
100
AcDbEntity
8
0
100
AcDbSpline
70
0
71
3
72
8
73
4
74
0
42
0.000000001
43
0.0000000001
44
0.0000000001
40
0
40
0
40
0
40
0
40
1
40
1
40
1
40
1
10
10.279327780706602
20
106.58136669268679
30
0
10
10.405510005109697
20
107.31453091830097
30
0
10
10.474552507941901
20
108.4116388180135
30
0
10
10.252347041901901
20
109.87591419933608
30
0
0
ARC
5
112
100
AcDbEntity
8
0
100
AcDbCircle
10
-18.230699773157902
20
92.320329062564753
30
0
40
0.39999999999994762
210
-0
220
0
230
1
100
AcDbArc
50
-14.810488438465152
51
73.974059054645764
0
ARC
5
113
100
AcDbEntity
8
0
100
AcDbCircle
10
-2.5231834027366622
20
106.18763045457018
30
0
40
0.39999999999991065
210
-0
220
0
230
1
100
AcDbArc
50
-82.310488438442988
51
6.4740590546488601
0
LINE
5
114
100
AcDbEntity
8
0
100
AcDbLine
10
16.117560526085295
20
74.667594732501186
30
0
11
14.749162751985107
21
75.757079383480388
31
0
0
ARC
5
115
100
AcDbEntity
8
0
100
AcDbCircle
10
-4.8203290625647348
20
69.269300226842091
30
0
40
0.39999999999998975
210
0
220
-0
230
1
100
AcDbArc
50
75.189511561540314
51
163.9740590546495
0
SPLINE
5
116
100
AcDbEntity
8
0
100
AcDbSpline
70
0
71
3
72
8
73
4
74
0
42
0.000000001
43
0.0000000001
44
0.0000000001
40
0
40
0
40
0
40
0
40
1
40
1
40
1
40
1
10
-13.697162594542799
20
70.700619862612683
30
0
10
-13.170128449112301
20
71.03543262995089
30
0
10
-12.9138753355099
20
71.293025252338694
30
0
10
-12.832405267498805
20
71.382439473914701
30
0
0
ARC
5
117
100
AcDbEntity
8
0
100
AcDbCircle
10
8.8817841970012523e-15
20
87.5
30
0
40
24.612845347981313
210
0
220
0
230
1
100
AcDbArc
50
200.38337696682299
51
204.61662303317701
0
LINE
5
118
100
AcDbEntity
8
0
100
AcDbLine
10
-2.1257341998763519
20
68.767268202370971
30
0
11
-2.3229555605971823
21
67.029282872238099
31
0
0
ARC
5
119
100
AcDbEntity
8
0
100
AcDbCircle
10
-2.5231834027366666
20
68.812369545429789
30
0
40
0.40000000000001118
210
-0
220
0
230
1
100
AcDbArc
50
-6.4740590546447265
51
82.310488438457568
0
ARC
5
120
100
AcDbEntity
8
0
100
AcDbCircle
10
-3.5582647939236267e-13
20
87.499999999999801
30
0
40
18.457199858156059
210
0
220
-0
230
1
100
AcDbArc
50
30.18951156155762
51
37.310488438442128
0
LINE
5
121
100
AcDbEntity
8
0
100
AcDbLine
10
12.832405267498805
20
103.6175605260853
30
0
11
11.742920616519605
21
102.2491627519851
31
0
0
SPLINE
5
122
100
AcDbEntity
8
0
100
AcDbSpline
70
0
71
3
72
8
73
4
74
0
42
0.000000001
43
0.0000000001
44
0.0000000001
40
0
40
0
40
0
40
0
40
1
40
1
40
1
40
1
10
-2.1935990612612506
20
109.06431216849307
30
0
10
-2.3295201011993534
20
108.45489437212973
30
0
10
-2.3285729254537251
20
108.09155056772721
30
0
10
-2.3229555605971792
20
107.97071712776189
30
0
0
ARC
5
123
100
AcDbEntity
8
0
100
AcDbCircle
10
2.6090241078691179e-14
20
87.500000000000014
30
0
40
24.612845347981324
210
-0
220
0
230
1
100
AcDbArc
50
290.38337696682277
51
294.61662303317701
0
SPLINE
5
124
100
AcDbEntity
8
0
100
AcDbSpline
70
0
71
3
72
8
73
4
74
0
42
0.000000001
43
0.0000000001
44
0.0000000001
40
0
40
0
40
0
40
0
40
1
40
1
40
1
40
1
10
-21.564312168493103
20
85.306400938738761
30
0
10
-20.954894372129701
20
85.170479898800664
30
0
10
-20.591550567727204
20
85.171427074546258
30
0
10
-20.470717127761901
20
85.177044439402806
30
0
0
ARC
5
125
100
AcDbEntity
8
0
100
AcDbCircle
10
9.482564067685912
20
103.79953880306608
30
0
40
0.39999999999999897
210
0
220
0
230
1
100
AcDbArc
50
151.02594094535553
51
239.81048843844223
0
SPLINE
5
126
100
AcDbEntity
8
0
100
AcDbSpline
70
0
71
3
72
8
73
4
74
0
42
0.000000001
43
0.0000000001
44
0.0000000001
40
0
40
0
40
0
40
0
40
1
40
1
40
1
40
1
10
-10.279327780706605
20
68.418633307313087
30
0
10
-10.405510005109695
20
67.685469081698983
30
0
10
-10.474552507941901
20
66.588361181986485
30
0
10
-10.252347041901899
20
65.124085800663892
30
0
0
SPLINE
5
127
100
AcDbEntity
8
0
100
AcDbSpline
70
0
71
3
72
8
73
4
74
0
42
0.000000001
43
0.0000000001
44
0.0000000001
40
0
40
0
40
0
40
0
40
1
40
1
40
1
40
1
10
6.223981402929109
20
66.738853837517084
30
0
10
6.65318249204363
20
66.131204135321283
30
0
10
7.3801345056809176
20
65.306611277798481
30
0
10
8.572656549192196
20
64.428335217994402
30
0
0
LINE
5
128
100
AcDbEntity
8
0
100
AcDbLine
10
5.6876731960577276
20
107.30143317732831
30
0
11
5.2047837830663308
21
105.6202707557574
31
0
0
SPLINE
5
129
100
AcDbEntity
8
0
100
AcDbSpline
70
0
71
3
72
8
73
4
74
0
42
0.000000001
43
0.0000000001
44
0.0000000001
40
0
40
0
40
0
40
0
40
1
40
1
40
1
40
1
10
-22.375914199336101
20
77.247652958098087
30
0
10
-20.9116388180135
20
77.025447492058092
30
0
10
-19.814530918301003
20
77.094489994890296
30
0
10
-19.083372627158507
20
77.221073727533593
30
0
0
ARC
5
130
100
AcDbEntity
8
0
100
AcDbCircle
10
4.8203290625647437
20
105.73069977315789
30
0
40
0.39999999999994307
210
0
220
0
230
1
100
AcDbArc
50
255.18951156155566
51
343.97405905465138
0
ARC
5
131
100
AcDbEntity
8
0
100
AcDbCircle
10
-2.2759572004815709e-13
20
87.499999999999702
30
0
40
18.457199858156049
210
0
220
-0
230
1
100
AcDbArc
50
52.689511561557602
51
59.810488438442206
0
LINE
5
132
100
AcDbEntity
8
0
100
AcDbLine
10
-19.801433177328299
20
93.187673196057744
30
0
11
-18.120270755757371
21
92.704783783066333
31
0
0
SPLINE
5
133
100
AcDbEntity
8
0
100
AcDbSpline
70
0
71
3
72
8
73
4
74
0
42
0.000000001
43
0.0000000001
44
0.0000000001
40
0
40
0
40
0
40
0
40
1
40
1
40
1
40
1
10
2.1947376443951856
20
109.06261257724259
30
0
10
2.0307450165426335
20
109.78825584599498
30
0
10
1.6746869550458365
20
110.82827280145881
30
0
10
0.90904194410717232
20
112.09605250578839
30
0
0
SPLINE
5
134
100
AcDbEntity
8
0
100
AcDbSpline
70
0
71
3
72
8
73
4
74
0
42
0.000000001
43
0.0000000001
44
0.0000000001
40
0
40
0
40
0
40
0
40
1
40
1
40
1
40
1
10
-24.5960525057884
20
86.590958055892827
30
0
10
-23.328272801458802
20
85.825313044954171
30
0
10
-22.28825584599501
20
85.469254983457375
30
0
10
-21.564312168493103
20
85.306400938738761
30
0
0
SPLINE
5
135
100
AcDbEntity
8
0
100
AcDbSpline
70
0
71
3
72
8
73
4
74
0
42
0.000000001
43
0.0000000001
44
0.0000000001
40
0
40
0
40
0
40
0
40
1
40
1
40
1
40
1
10
-19.0813666926868
20
97.779327780706609
30
0
10
-19.814530918301003
20
97.905510005109676
30
0
10
-20.911638818013504
20
97.974552507941894
30
0
10
-22.375914199336101
20
97.752347041901899
30
0
0
LINE
5
136
100
AcDbEntity
8
0
100
AcDbLine
10
-9.9799353907957808
20
105.52351996300651
30
0
11
-9.1326284207163706
21
103.9933042359483
31
0
0
LINE
5
137
100
AcDbEntity
8
0
100
AcDbLine
10
-11.742920616519619
20
102.2491627519851
30
0
11
-12.83240526749881
21
103.6175605260853
31
0
0
SPLINE
5
138
100
AcDbEntity
8
0
100
AcDbSpline
70
0
71
3
72
8
73
4
74
0
42
0.000000001
43
0.0000000001
44
0.0000000001
40
0
40
0
40
0
40
0
40
1
40
1
40
1
40
1
10
2.322955560597193
20
107.97071712776187
30
0
10
2.328572925453722
20
108.09155056772721
30
0
10
2.3295201011993556
20
108.45489437212973
30
0
10
2.1947376443951856
20
109.06261257724259
30
0
0
SPLINE
5
139
100
AcDbEntity
8
0
100
AcDbSpline
70
0
71
3
72
8
73
4
74
0
42
0.000000001
43
0.0000000001
44
0.0000000001
40
0
40
0
40
0
40
0
40
1
40
1
40
1
40
1
10
-16.799380137387299
20
101.19716259454279
30
0
10
-16.464567370049103
20
100.67012844911231
30
0
10
-16.206974747661306
20
100.41387533550991
30
0
10
-16.117560526085299
20
100.33240526749879
30
0
0
SPLINE
5
140
100
AcDbEntity
8
0
100
AcDbSpline
70
0
71
3
72
8
73
4
74
0
42
0.000000001
43
0.0000000001
44
0.0000000001
40
0
40
0
40
0
40
0
40
1
40
1
40
1
40
1
10
-10.278926272466398
20
106.58337262715848
30
0
10
-10.17128684524619
20
105.96832926825611
30
0
10
-10.0313661147638
20
105.6330058325693
30
0
10
-9.9799353907957808
20
105.52351996300651
30
0
0
ARC
5
141
100
AcDbEntity
8
0
100
AcDbCircle
10
14.998310312987309
20
98.929990124482401
30
0
40
0.40000000000003139
210
0
220
0
230
1
100
AcDbArc
50
128.52594094535294
51
217.31048843844655
0
ARC
5
142
100
AcDbEntity
8
0
100
AcDbCircle
10
-9.0483176506950258e-14
20
87.499999999999631
30
0
40
18.457199858156095
210
0
220
-0
230
1
100
AcDbArc
50
75.189511561557566
51
82.310488438442277
0
SPLINE
5
143
100
AcDbEntity
8
0
100
AcDbSpline
70
0
71
3
72
8
73
4
74
0
42
0.000000001
43
0.0000000001
44
0.0000000001
40
0
40
0
40
0
40
0
40
1
40
1
40
1
40
1
10
5.6876731960577267
20
67.698566822671694
30
0
10
5.7287243831905528
20
67.584781608180592
30
0
10
5.8668949611027852
20
67.24873323556298
30
0
10
6.223981402929109
20
66.738853837517084
30
0
0
ARC
5
144
100
AcDbEntity
8
0
100
AcDbCircle
10
-11.429990124482405
20
72.501689687012686
30
0
40
0.40000000000000308
210
0
220
-0
230
1
100
AcDbArc
50
52.689511561554504
51
141.47405905464254
0
ARC
5
145
100
AcDbEntity
8
0
100
AcDbCircle
10
-4.8203290625647348
20
105.73069977315789
30
0
40
0.40000000000001673
210
0
220
0
230
1
100
AcDbArc
50
196.02594094535809
51
284.81048843846156
0
SPLINE
5
146
100
AcDbEntity
8
0
100
AcDbSpline
70
0
71
3
72
8
73
4
74
0
42
0.000000001
43
0.0000000001
44
0.0000000001
40
0
40
0
40
0
40
0
40
1
40
1
40
1
40
1
10
23.071664782005591
20
78.927343450807811
30
0
10
22.193388722201494
20
80.119865494319086
30
0
10
21.368795864678699
20
80.846817507956388
30
0
10
20.76228066315111
20
81.274316278004051
30
0
0
ARC
5
147
100
AcDbEntity
8
0
100
AcDbCircle
10
-14.9983103129873
20
76.070009875517584
30
0
40
0.39999999999999114
210
-0
220
0
230
1
100
AcDbArc
50
-51.474059054644272
51
37.31048843845435
0
ARC
5
148
100
AcDbEntity
8
0
100
AcDbCircle
10
1.609823385706477e-14
20
87.500000000000028
30
0
40
24.61284534798132
210
0
220
0
230
1
100
AcDbArc
50
155.38337696682296
51
159.61662303317704
0
LINE
5
149
100
AcDbEntity
8
0
100
AcDbLine
10
-2.3229555605971792
20
107.97071712776189
30
0
11
-2.1257341998763528
21
106.23273179762903
31
0
0
SPLINE
5
150
100
AcDbEntity
8
0
100
AcDbSpline
70
0
71
3
72
8
73
4
74
0
42
0.000000001
43
0.0000000001
44
0.0000000001
40
0
40
0
40
0
40
0
40
1
40
1
40
1
40
1
10
-10.252347041901896
20
109.87591419933608
30
0
10
-10.474552507941898
20
108.41163881801349
30
0
10
-10.405510005109699
20
107.31453091830099
30
0
10
-10.278926272466398
20
106.58337262715848
30
0
0
LINE
5
151
100
AcDbEntity
8
0
100
AcDbLine
10
-18.120270755757396
20
82.295216216933682
30
0
11
-19.801433177328398
21
81.812326803942256
31
0
0
SPLINE
5
152
100
AcDbEntity
8
0
100
AcDbSpline
70
0
71
3
72
8
73
4
74
0
42
0.000000001
43
0.0000000001
44
0.0000000001
40
0
40
0
40
0
40
0
40
1
40
1
40
1
40
1
10
10.252347041901897
20
65.124085800663892
30
0
10
10.474552507941899
20
66.588361181986485
30
0
10
10.405510005109699
20
67.685469081698983
30
0
10
10.2789262724664
20
68.416627372841504
30
0
0
ARC
5
153
100
AcDbEntity
8
0
100
AcDbCircle
10
11.429990124482414
20
102.49831031298731
30
0
40
0.40000000000002289
210
0
220
0
230
1
100
AcDbArc
50
232.68951156155717
51
321.47405905464018
0
SPLINE
5
154
100
AcDbEntity
8
0
100
AcDbSpline
70
0
71
3
72
8
73
4
74
0
42
0.000000001
43
0.0000000001
44
0.0000000001
40
0
40
0
40
0
40
0
40
1
40
1
40
1
40
1
10
24.596052505788407
20
88.409041944107173
30
0
10
23.328272801458812
20
89.174686955045829
30
0
10
22.288255845995014
20
89.530745016542625
30
0
10
21.564312168493103
20
89.693599061261267
30
0
0
ARC
5
155
100
AcDbEntity
8
0
100
AcDbCircle
10
4.294451298064827e-31
20
87.5
30
0
40
24.612845347981306
210
-0
220
0
230
1
100
AcDbArc
50
-2.1166230331769778
51
2.1166230331773268
0
ARC
5
156
100
AcDbEntity
8
0
100
AcDbCircle
10
18.687630454570204
20
90.023183402736663
30
0
40
0.40000000000000252
210
0
220
0
230
1
100
AcDbArc
50
187.68951156155788
51
276.47405905464495
0
ARC
5
157
100
AcDbEntity
8
0
100
AcDbCircle
10
18.230699773157912
20
92.320329062564724
30
0
40
0.40000000000003283
210
0
220
0
230
1
100
AcDbArc
50
106.02594094535353
51
194.8104884384399
0
ARC
5
158
100
AcDbEntity
8
0
100
AcDbCircle
10
4.294451298064827e-31
20
87.5
30
0
40
24.612845347981327
210
0
220
0
230
1
100
AcDbArc
50
177.88337696682268
51
182.11662303317729
0
SPLINE
5
159
100
AcDbEntity
8
0
100
AcDbSpline
70
0
71
3
72
8
73
4
74
0
42
0.000000001
43
0.0000000001
44
0.0000000001
40
0
40
0
40
0
40
0
40
1
40
1
40
1
40
1
10
16.117560526085299
20
100.33240526749879
30
0
10
16.206974747661306
20
100.4138753355099
30
0
10
16.464567370049107
20
100.6701284491123
30
0
10
16.798983444743804
20
101.1951557021893
30
0
0
ARC
5
160
100
AcDbEntity
8
0
100
AcDbCircle
10
-16.299538803066199
20
78.017435932314086
30
0
40
0.40000000000001357
210
0
220
-0
230
1
100
AcDbArc
50
30.189511561579604
51
118.9740590546448
0
SPLINE
5
161
100
AcDbEntity
8
0
100
AcDbSpline
70
0
71
3
72
8
73
4
74
0
42
0.000000001
43
0.0000000001
44
0.0000000001
40
0
40
0
40
0
40
0
40
1
40
1
40
1
40
1
10
-16.798983444743801
20
73.804844297810689
30
0
10
-17.196130421581895
20
73.175776722534295
30
0
10
-17.679762393558804
20
72.188602610996398
30
0
10
-18.034825240324498
20
70.75075420579779
30
0
0
SPLINE
5
162
100
AcDbEntity
8
0
100
AcDbSpline
70
0
71
3
72
8
73
4
74
0
42
0.000000001
43
0.0000000001
44
0.0000000001
40
0
40
0
40
0
40
0
40
1
40
1
40
1
40
1
10
16.749245794202206
20
105.53482524032449
30
0
10
15.311397389003602
20
105.17976239355872
30
0
10
14.324223277465702
20
104.6961304215819
30
0
10
13.697162594542803
20
104.29938013738729
30
0
0
ARC
5
163
100
AcDbEntity
8
0
100
AcDbCircle
10
-16.299538803066099
20
96.982564067685871
30
0
40
0.39999999999998759
210
0
220
0
230
1
100
AcDbArc
50
241.02594094535422
51
329.8104884384482
0
ARC
5
164
100
AcDbEntity
8
0
100
AcDbCircle
10
-18.687630454570201
20
84.976816597263337
30
0
40
0.40000000000000474
210
0
220
-0
230
1
100
AcDbArc
50
7.6895115615578469
51
96.474059054645451
0
ARC
5
165
100
AcDbEntity
8
0
100
AcDbCircle
10
4.294451298064827e-31
20
87.5
30
0
40
24.612845347981306
210
0
220
0
230
1
100
AcDbArc
50
132.88337696682288
51
137.11662303317704
0
ARC
5
166
100
AcDbEntity
8
0
100
AcDbCircle
10
-14.998310312987304
20
98.929990124482401
30
0
40
0.39999999999995345
210
-0
220
0
230
1
100
AcDbArc
50
-37.31048843846289
51
51.474059054643078
0
SPLINE
5
167
100
AcDbEntity
8
0
100
AcDbSpline
70
0
71
3
72
8
73
4
74
0
42
0.000000001
43
0.0000000001
44
0.0000000001
40
0
40
0
40
0
40
0
40
1
40
1
40
1
40
1
10
-23.071664782005605
20
96.072656549192189
30
0
10
-22.193388722201508
20
94.880134505680914
30
0
10
-21.368795864678702
20
94.153182492043626
30
0
10
-20.762280663151103
20
93.725683721995949
30
0
0
SPLINE
5
168
100
AcDbEntity
8
0
100
AcDbSpline
70
0
71
3
72
8
73
4
74
0
42
0.000000001
43
0.0000000001
44
0.0000000001
40
0
40
0
40
0
40
0
40
1
40
1
40
1
40
1
10
6.2256837219959591
20
108.26228066315109
30
0
10
5.866894961102787
20
107.75126676443699
30
0
10
5.7287243831905421
20
107.41521839181941
30
0
10
5.6876731960577276
20
107.30143317732831
30
0
0
ARC
5
169
100
AcDbEntity
8
0
100
AcDbCircle
10
-2.6090241078691179e-14
20
87.499999999999986
30
0
40
24.612845347981317
210
0
220
0
230
1
100
AcDbArc
50
110.38337696682299
51
114.61662303317699
0
SPLINE
5
170
100
AcDbEntity
8
0
100
AcDbSpline
70
0
71
3
72
8
73
4
74
0
42
0.000000001
43
0.0000000001
44
0.0000000001
40
0
40
0
40
0
40
0
40
1
40
1
40
1
40
1
10
19.083372627158507
20
97.778926272466407
30
0
10
18.468329268256106
20
97.671286845246215
30
0
10
18.133005832569307
20
97.531366114763784
30
0
10
18.023519963006503
20
97.479935390795788
30
0
0
LINE
5
171
100
AcDbEntity
8
0
100
AcDbLine
10
18.023519963006503
20
97.479935390795788
30
0
11
16.493304235948266
21
96.632628420716344
31
0
0
SPLINE
5
172
100
AcDbEntity
8
0
100
AcDbSpline
70
0
71
3
72
8
73
4
74
0
42
0.000000001
43
0.0000000001
44
0.0000000001
40
0
40
0
40
0
40
0
40
1
40
1
40
1
40
1
10
13.695155702189314
20
70.701016555256203
30
0
10
14.324223277465704
20
70.303869578418102
30
0
10
15.311397389003602
20
69.820237606441196
30
0
10
16.74924579420221
20
69.465174759675506
30
0
0
ARC
5
173
100
AcDbEntity
8
0
100
AcDbCircle
10
-8.3266726846886741e-15
20
87.499999999999986
30
0
40
24.612845347981299
210
-0
220
0
230
1
100
AcDbArc
50
335.38337696682294
51
339.61662303317695
0
SPLINE
5
174
100
AcDbEntity
8
0
100
AcDbSpline
70
0
71
3
72
8
73
4
74
0
42
0.000000001
43
0.0000000001
44
0.0000000001
40
0
40
0
40
0
40
0
40
1
40
1
40
1
40
1
10
21.562612577242607
20
85.30526235560481
30
0
10
22.28825584599501
20
85.469254983457375
30
0
10
23.328272801458809
20
85.825313044954171
30
0
10
24.596052505788411
20
86.590958055892827
30
0
0
ARC
5
175
100
AcDbEntity
8
0
100
AcDbCircle
10
18.687630454570208
20
84.976816597263323
30
0
40
0.40000000000001762
210
0
220
-0
230
1
100
AcDbArc
50
83.525940945343152
51
172.31048843845682
0
LINE
5
176
100
AcDbEntity
8
0
100
AcDbLine
10
5.2047837830663291
20
69.37972924424264
30
0
11
5.6876731960577267
21
67.698566822671694
31
0
0
SPLINE
5
177
100
AcDbEntity
8
0
100
AcDbSpline
70
0
71
3
72
8
73
4
74
0
42
0.000000001
43
0.0000000001
44
0.0000000001
40
0
40
0
40
0
40
0
40
1
40
1
40
1
40
1
10
-5.6876731960577365
20
107.30143317732831
30
0
10
-5.7287243831905439
20
107.41521839181941
30
0
10
-5.8668949611027754
20
107.75126676443702
30
0
10
-6.2239814029290912
20
108.2611461624829
30
0
0
SPLINE
5
178
100
AcDbEntity
8
0
100
AcDbSpline
70
0
71
3
72
8
73
4
74
0
42
0.000000001
43
0.0000000001
44
0.0000000001
40
0
40
0
40
0
40
0
40
1
40
1
40
1
40
1
10
-6.2239814029290912
20
108.2611461624829
30
0
10
-6.65318249204363
20
108.8687958646787
30
0
10
-7.3801345056809176
20
109.6933887222015
30
0
10
-8.5726565491921782
20
110.5716647820056
30
0
0
SPLINE
5
179
100
AcDbEntity
8
0
100
AcDbSpline
70
0
71
3
72
8
73
4
74
0
42
0.000000001
43
0.0000000001
44
0.0000000001
40
0
40
0
40
0
40
0
40
1
40
1
40
1
40
1
10
8.572656549192196
20
110.57166478200563
30
0
10
7.3801345056809193
20
109.6933887222015
30
0
10
6.6531824920436247
20
108.8687958646787
30
0
10
6.2256837219959591
20
108.26228066315109
30
0
0
SPLINE
5
180
100
AcDbEntity
8
0
100
AcDbSpline
70
0
71
3
72
8
73
4
74
0
42
0.000000001
43
0.0000000001
44
0.0000000001
40
0
40
0
40
0
40
0
40
1
40
1
40
1
40
1
10
-0.90904194410715566
20
112.09605250578838
30
0
10
-1.6746869550458294
20
110.82827280145879
30
0
10
-2.0307450165426228
20
109.78825584599498
30
0
10
-2.1935990612612506
20
109.06431216849307
30
0
0
ARC
5
181
100
AcDbEntity
8
0
100
AcDbCircle
10
4.294451298064827e-31
20
87.5
30
0
40
24.612845347981327
210
-0
220
0
230
1
100
AcDbArc
50
312.88337696682288
51
317.11662303317712
0
ARC
5
182
100
AcDbEntity
8
0
100
AcDbCircle
10
3.1696867353048219e-13
20
87.500000000000071
30
0
40
18.457199858155967
210
0
220
0
230
1
100
AcDbArc
50
187.68951156155762
51
194.81048843844198
0
ARC
5
183
100
AcDbEntity
8
0
100
AcDbCircle
10
-3.858025010572419e-13
20
87.500000000000284
30
0
40
18.457199858156223
210
-0
220
0
230
1
100
AcDbArc
50
322.68951156155794
51
329.81048843844195
0
ARC
5
184
100
AcDbEntity
8
0
100
AcDbCircle
10
2.7200464103316335e-14
20
87.499999999999986
30
0
40
24.612845347981299
210
0
220
-0
230
1
100
AcDbArc
50
65.38337696682278
51
69.616623033177206
0
ARC
5
185
100
AcDbEntity
8
0
100
AcDbCircle
10
2.5231834027366573
20
106.18763045457018
30
0
40
0.39999999999999752
210
0
220
0
230
1
100
AcDbArc
50
173.52594094534894
51
262.31048843844434
0
SPLINE
5
186
100
AcDbEntity
8
0
100
AcDbSpline
70
0
71
3
72
8
73
4
74
0
42
0.000000001
43
0.0000000001
44
0.0000000001
40
0
40
0
40
0
40
0
40
1
40
1
40
1
40
1
10
13.697162594542803
20
104.29938013738729
30
0
10
13.170128449112301
20
103.96456737004908
30
0
10
12.9138753355099
20
103.70697474766132
30
0
10
12.832405267498805
20
103.6175605260853
30
0
0
SPLINE
5
187
100
AcDbEntity
8
0
100
AcDbSpline
70
0
71
3
72
8
73
4
74
0
42
0.000000001
43
0.0000000001
44
0.0000000001
40
0
40
0
40
0
40
0
40
1
40
1
40
1
40
1
10
9.9799353907957808
20
105.52351996300651
30
0
10
10.031366114763809
20
105.63300583256931
30
0
10
10.1712868452462
20
105.96832926825611
30
0
10
10.279327780706602
20
106.58136669268679
30
0
0
LINE
5
188
100
AcDbEntity
8
0
100
AcDbLine
10
2.1257341998763604
20
106.23273179762904
30
0
11
2.322955560597193
21
107.97071712776187
31
0
0
SPLINE
5
189
100
AcDbEntity
8
0
100
AcDbSpline
70
0
71
3
72
8
73
4
74
0
42
0.000000001
43
0.0000000001
44
0.0000000001
40
0
40
0
40
0
40
0
40
1
40
1
40
1
40
1
10
-2.3229555605971823
20
67.029282872238099
30
0
10
-2.3285729254537206
20
66.908449432272789
30
0
10
-2.3295201011993565
20
66.545105627870299
30
0
10
-2.194737644395202
20
65.937387422757382
30
0
0
LINE
5
190
100
AcDbEntity
8
0
100
AcDbLine
10
14.749162751985104
20
99.242920616519655
30
0
11
16.117560526085299
21
100.33240526749879
31
0
0
SPLINE
5
191
100
AcDbEntity
8
0
100
AcDbSpline
70
0
71
3
72
8
73
4
74
0
42
0.000000001
43
0.0000000001
44
0.0000000001
40
0
40
0
40
0
40
0
40
1
40
1
40
1
40
1
10
-12.83240526749881
20
103.6175605260853
30
0
10
-12.913875335509902
20
103.70697474766132
30
0
10
-13.170128449112301
20
103.96456737004905
30
0
10
-13.695155702189304
20
104.29898344474378
30
0
0
ARC
5
192
100
AcDbEntity
8
0
100
AcDbCircle
10
8.7152507433074788e-14
20
87.499999999999631
30
0
40
18.457199858156109
210
0
220
0
230
1
100
AcDbArc
50
97.689511561557708
51
104.81048843844202
0
ARC
5
193
100
AcDbEntity
8
0
100
AcDbCircle
10
1.8485213360008856e-13
20
87.499999999999631
30
0
40
18.457199858156081
210
0
220
0
230
1
100
AcDbArc
50
120.18951156155754
51
127.31048843844201
0
SPLINE
5
194
100
AcDbEntity
8
0
100
AcDbSpline
70
0
71
3
72
8
73
4
74
0
42
0.000000001
43
0.0000000001
44
0.0000000001
40
0
40
0
40
0
40
0
40
1
40
1
40
1
40
1
10
-19.083372627158507
20
77.221073727533593
30
0
10
-18.468329268256099
20
77.3287131547538
30
0
10
-18.1330058325693
20
77.468633885236187
30
0
10
-18.023519963006496
20
77.52006460920424
30
0
0
LINE
5
195
100
AcDbEntity
8
0
100
AcDbLine
10
18.732731797629111
20
85.374265800123638
30
0
11
20.470717127761901
21
85.17704443940282
31
0
0
SPLINE
5
196
100
AcDbEntity
8
0
100
AcDbSpline
70
0
71
3
72
8
73
4
74
0
42
0.000000001
43
0.0000000001
44
0.0000000001
40
0
40
0
40
0
40
0
40
1
40
1
40
1
40
1
10
-19.801433177328398
20
81.812326803942256
30
0
10
-19.915218391819394
20
81.771275616809461
30
0
10
-20.251266764437009
20
81.633105038897213
30
0
10
-20.761146162482902
20
81.276018597070916
30
0
0
SPLINE
5
197
100
AcDbEntity
8
0
100
AcDbSpline
70
0
71
3
72
8
73
4
74
0
42
0.000000001
43
0.0000000001
44
0.0000000001
40
0
40
0
40
0
40
0
40
1
40
1
40
1
40
1
10
-18.034825240324498
20
104.24924579420218
30
0
10
-17.6797623935587
20
102.81139738900362
30
0
10
-17.196130421581895
20
101.82422327746571
30
0
10
-16.799380137387299
20
101.19716259454279
30
0
0
SPLINE
5
198
100
AcDbEntity
8
0
100
AcDbSpline
70
0
71
3
72
8
73
4
74
0
42
0.000000001
43
0.0000000001
44
0.0000000001
40
0
40
0
40
0
40
0
40
1
40
1
40
1
40
1
10
-18.0235199630065
20
97.479935390795788
30
0
10
-18.133005832569296
20
97.53136611476377
30
0
10
-18.468329268256102
20
97.671286845246186
30
0
10
-19.0813666926868
20
97.779327780706609
30
0
0
ARC
5
199
100
AcDbEntity
8
0
100
AcDbCircle
10
4.163336342344337e-13
20
87.500000000000227
30
0
40
18.457199858156194
210
0
220
0
230
1
100
AcDbArc
50
210.18951156155697
51
217.31048843844192
0
SPLINE
5
200
100
AcDbEntity
8
0
100
AcDbSpline
70
0
71
3
72
8
73
4
74
0
42
0.000000001
43
0.0000000001
44
0.0000000001
40
0
40
0
40
0
40
0
40
1
40
1
40
1
40
1
10
12.83240526749881
20
71.382439473914701
30
0
10
12.913875335509902
20
71.293025252338694
30
0
10
13.170128449112305
20
71.035432629950876
30
0
10
13.695155702189314
20
70.701016555256203
30
0
0
LINE
5
201
100
AcDbEntity
8
0
100
AcDbLine
10
9.1326284207163724
20
103.99330423594824
30
0
11
9.9799353907957808
21
105.52351996300651
31
0
0
SPLINE
5
202
100
AcDbEntity
8
0
100
AcDbSpline
70
0
71
3
72
8
73
4
74
0
42
0.000000001
43
0.0000000001
44
0.0000000001
40
0
40
0
40
0
40
0
40
1
40
1
40
1
40
1
10
-20.470717127761901
20
89.822955560597194
30
0
10
-20.591550567727204
20
89.828572925453727
30
0
10
-20.954894372129701
20
89.829520101199364
30
0
10
-21.562612577242607
20
89.69473764439519
30
0
0
SPLINE
5
203
100
AcDbEntity
8
0
100
AcDbSpline
70
0
71
3
72
8
73
4
74
0
42
0.000000001
43
0.0000000001
44
0.0000000001
40
0
40
0
40
0
40
0
40
1
40
1
40
1
40
1
10
18.023519963006503
20
77.520064609204226
30
0
10
18.13300583256931
20
77.468633885236201
30
0
10
18.468329268256106
20
77.3287131547538
30
0
10
19.081366692686899
20
77.220672219293391
30
0
0
SPLINE
5
204
100
AcDbEntity
8
0
100
AcDbSpline
70
0
71
3
72
8
73
4
74
0
42
0.000000001
43
0.0000000001
44
0.0000000001
40
0
40
0
40
0
40
0
40
1
40
1
40
1
40
1
10
19.801433177328306
20
93.187673196057744
30
0
10
19.915218391819401
20
93.228724383190539
30
0
10
20.251266764437005
20
93.366894961102787
30
0
10
20.761146162482895
20
93.723981402929098
30
0
0
SPLINE
5
205
100
AcDbEntity
8
0
100
AcDbSpline
70
0
71
3
72
8
73
4
74
0
42
0.000000001
43
0.0000000001
44
0.0000000001
40
0
40
0
40
0
40
0
40
1
40
1
40
1
40
1
10
21.564312168493103
20
89.693599061261267
30
0
10
20.954894372129694
20
89.829520101199336
30
0
10
20.591550567727197
20
89.828572925453727
30
0
10
20.470717127761894
20
89.822955560597194
30
0
0
ARC
5
206
100
AcDbEntity
8
0
100
AcDbCircle
10
-8.8817841970012523e-15
20
87.5
30
0
40
24.612845347981324
210
0
220
0
230
1
100
AcDbArc
50
267.88337696682277
51
272.11662303317729
0
SPLINE
5
207
100
AcDbEntity
8
0
100
AcDbSpline
70
0
71
3
72
8
73
4
74
0
42
0.000000001
43
0.0000000001
44
0.0000000001
40
0
40
0
40
0
40
0
40
1
40
1
40
1
40
1
10
-20.762280663151103
20
93.725683721995949
30
0
10
-20.251266764437009
20
93.366894961102787
30
0
10
-19.915218391819394
20
93.228724383190539
30
0
10
-19.801433177328299
20
93.187673196057744
30
0
0
SPLINE
5
208
100
AcDbEntity
8
0
100
AcDbSpline
70
0
71
3
72
8
73
4
74
0
42
0.000000001
43
0.0000000001
44
0.0000000001
40
0
40
0
40
0
40
0
40
1
40
1
40
1
40
1
10
-13.695155702189304
20
104.29898344474378
30
0
10
-14.324223277465704
20
104.6961304215819
30
0
10
-15.311397389003602
20
105.1797623935588
30
0
10
-16.749245794202199
20
105.53482524032448
30
0
0
ARC
5
209
100
AcDbEntity
8
0
100
AcDbCircle
10
-1.8318679906315083e-14
20
87.500000000000014
30
0
40
24.612845347981313
210
0
220
0
230
1
100
AcDbArc
50
245.38337696682302
51
249.61662303317729
0
ARC
5
210
100
AcDbEntity
8
0
100
AcDbCircle
10
18.230699773157909
20
82.679670937435276
30
0
40
0.39999999999992758
210
0
220
0
230
1
100
AcDbArc
50
165.18951156154438
51
253.97405905464544
0
LINE
5
211
100
AcDbEntity
8
0
100
AcDbLine
10
-14.749162751985104
20
75.757079383480374
30
0
11
-16.117560526085299
21
74.6675947325012
31
0
0
LINE
5
212
100
AcDbEntity
8
0
100
AcDbLine
10
-20.470717127761901
20
85.177044439402806
30
0
11
-18.732731797629022
21
85.374265800123638
31
0
0
SPLINE
5
213
100
AcDbEntity
8
0
100
AcDbSpline
70
0
71
3
72
8
73
4
74
0
42
0.000000001
43
0.0000000001
44
0.0000000001
40
0
40
0
40
0
40
0
40
1
40
1
40
1
40
1
10
-16.749245794202203
20
69.465174759675506
30
0
10
-15.311397389003599
20
69.820237606441282
30
0
10
-14.324223277465702
20
70.303869578418102
30
0
10
-13.697162594542799
20
70.700619862612683
30
0
0
SPLINE
5
214
100
AcDbEntity
8
0
100
AcDbSpline
70
0
71
3
72
8
73
4
74
0
42
0.000000001
43
0.0000000001
44
0.0000000001
40
0
40
0
40
0
40
0
40
1
40
1
40
1
40
1
10
18.034825240324505
20
70.750754205797776
30
0
10
17.679762393558704
20
72.188602610996384
30
0
10
17.196130421581895
20
73.17577672253428
30
0
10
16.799380137387299
20
73.802837405457183
30
0
0
ARC
5
215
100
AcDbEntity
8
0
100
AcDbCircle
10
-9.482564067685896
20
71.200461196933787
30
0
40
0.40000000000000324
210
-0
220
0
230
1
100
AcDbArc
50
-28.974059054644602
51
59.810488438444587
0
ARC
5
216
100
AcDbEntity
8
0
100
AcDbCircle
10
-3.5860203695392556e-13
20
87.500000000000071
30
0
40
18.457199858156102
210
-0
220
0
230
1
100
AcDbArc
50
345.18951156155794
51
352.31048843844201
0
ARC
5
217
100
AcDbEntity
8
0
100
AcDbCircle
10
3.858025010572419e-13
20
87.499999999999915
30
0
40
18.457199858156109
210
0
220
0
230
1
100
AcDbArc
50
165.18951156155805
51
172.31048843844198
0
ARC
5
218
100
AcDbEntity
8
0
100
AcDbCircle
10
4.294451298064827e-31
20
87.5
30
0
40
24.612845347981306
210
0
220
0
230
1
100
AcDbArc
50
222.88337696682296
51
227.11662303317695
0
ARC
5
219
100
AcDbEntity
8
0
100
AcDbCircle
10
6.6058269965196814e-14
20
87.500000000000313
30
0
40
18.457199858156006
210
0
220
0
230
1
100
AcDbArc
50
255.18951156155796
51
262.31048843844201
0
LINE
5
220
100
AcDbEntity
8
0
100
AcDbLine
10
-18.023519963006496
20
77.52006460920424
30
0
11
-16.493304235948361
21
78.367371579283628
31
0
0
LINE
5
221
100
AcDbEntity
8
0
100
AcDbLine
10
-16.117560526085299
20
100.33240526749879
30
0
11
-14.749162751985097
21
99.242920616519612
31
0
0
ARC
5
222
100
AcDbEntity
8
0
100
AcDbCircle
10
16.299538803066195
20
78.017435932314086
30
0
40
0.39999999999996733
210
0
220
-0
230
1
100
AcDbArc
50
61.025940945362763
51
149.81048843845889
0
LINE
5
223
100
AcDbEntity
8
0
100
AcDbLine
10
11.742920616519621
20
72.750837248014889
30
0
11
12.83240526749881
21
71.382439473914701
31
0
0
SPLINE
5
224
100
AcDbEntity
8
0
100
AcDbSpline
70
0
71
3
72
8
73
4
74
0
42
0.000000001
43
0.0000000001
44
0.0000000001
40
0
40
0
40
0
40
0
40
1
40
1
40
1
40
1
10
0.9090419441071651
20
62.9039474942116
30
0
10
1.6746869550458385
20
64.171727198541191
30
0
10
2.0307450165426317
20
65.211744154004975
30
0
10
2.1935990612612515
20
65.935687831506897
30
0
0
SPLINE
5
225
100
AcDbEntity
8
0
100
AcDbSpline
70
0
71
3
72
8
73
4
74
0
42
0.000000001
43
0.0000000001
44
0.0000000001
40
0
40
0
40
0
40
0
40
1
40
1
40
1
40
1
10
-16.117560526085299
20
74.6675947325012
30
0
10
-16.206974747661306
20
74.586124664490086
30
0
10
-16.4645673700491
20
74.329871550887702
30
0
10
-16.798983444743801
20
73.804844297810689
30
0
0
LINE
5
226
100
AcDbEntity
8
0
100
AcDbLine
10
19.801433177328402
20
81.812326803942284
30
0
11
18.120270755757367
21
82.295216216933667
31
0
0
LINE
5
227
100
AcDbEntity
8
0
100
AcDbLine
10
-18.7327317976291
20
89.625734199876348
30
0
11
-20.470717127761901
21
89.822955560597194
31
0
0
SPLINE
5
228
100
AcDbEntity
8
0
100
AcDbSpline
70
0
71
3
72
8
73
4
74
0
42
0.000000001
43
0.0000000001
44
0.0000000001
40
0
40
0
40
0
40
0
40
1
40
1
40
1
40
1
10
-2.194737644395202
20
65.937387422757382
30
0
10
-2.0307450165426237
20
65.21174415400499
30
0
10
-1.6746869550458281
20
64.171727198541191
30
0
10
-0.90904194410716344
20
62.9039474942116
30
0
0
ARC
5
229
100
AcDbEntity
8
0
100
AcDbCircle
10
-18.230699773157898
20
82.679670937435276
30
0
40
0.3999999999999882
210
-0
220
0
230
1
100
AcDbArc
50
-73.97405905465024
51
14.810488438460073
0
ARC
5
230
100
AcDbEntity
8
0
100
AcDbCircle
10
2.5231834027366542
20
68.812369545429789
30
0
40
0.40000000000000674
210
0
220
0
230
1
100
AcDbArc
50
97.689511561554397
51
186.4740590546451
0
ARC
5
231
100
AcDbEntity
8
0
100
AcDbCircle
10
4.8203290625647437
20
69.269300226842105
30
0
40
0.39999999999999897
210
0
220
-0
230
1
100
AcDbArc
50
16.025940945354503
51
104.81048843844485
0
SPLINE
5
232
100
AcDbEntity
8
0
100
AcDbSpline
70
0
71
3
72
8
73
4
74
0
42
0.000000001
43
0.0000000001
44
0.0000000001
40
0
40
0
40
0
40
0
40
1
40
1
40
1
40
1
10
-9.9799353907957773
20
69.476480036993493
30
0
10
-10.0313661147638
20
69.36699416743069
30
0
10
-10.171286845246193
20
69.031670731743887
30
0
10
-10.279327780706605
20
68.418633307313087
30
0
0
SPLINE
5
233
100
AcDbEntity
8
0
100
AcDbSpline
70
0
71
3
72
8
73
4
74
0
42
0.000000001
43
0.0000000001
44
0.0000000001
40
0
40
0
40
0
40
0
40
1
40
1
40
1
40
1
10
10.2789262724664
20
68.416627372841504
30
0
10
10.171286845246199
20
69.031670731743887
30
0
10
10.031366114763809
20
69.36699416743069
30
0
10
9.9799353907957808
20
69.476480036993493
30
0
0
LINE
5
234
100
AcDbEntity
8
0
100
AcDbLine
10
-5.2047837830663291
20
105.62027075575733
30
0
11
-5.6876731960577365
21
107.30143317732831
31
0
0
SPLINE
5
235
100
AcDbEntity
8
0
100
AcDbSpline
70
0
71
3
72
8
73
4
74
0
42
0.000000001
43
0.0000000001
44
0.0000000001
40
0
40
0
40
0
40
0
40
1
40
1
40
1
40
1
10
-8.5726565491921782
20
64.428335217994388
30
0
10
-7.3801345056809105
20
65.306611277798481
30
0
10
-6.653182492043614
20
66.131204135321283
30
0
10
-6.2256837219959493
20
66.737719336848897
30
0
0
SPLINE
5
236
100
AcDbEntity
8
0
100
AcDbSpline
70
0
71
3
72
8
73
4
74
0
42
0.000000001
43
0.0000000001
44
0.0000000001
40
0
40
0
40
0
40
0
40
1
40
1
40
1
40
1
10
-6.2256837219959493
20
66.737719336848897
30
0
10
-5.8668949611027781
20
67.24873323556298
30
0
10
-5.7287243831905421
20
67.584781608180592
30
0
10
-5.6876731960577231
20
67.698566822671594
30
0
0
ARC
5
237
100
AcDbEntity
8
0
100
AcDbCircle
10
2.581268532253489e-13
20
87.500000000000412
30
0
40
18.457199858156166
210
0
220
0
230
1
100
AcDbArc
50
232.68951156155779
51
239.81048843844246
0
LINE
5
238
100
AcDbEntity
8
0
100
AcDbLine
10
2.3229555605971797
20
67.029282872238099
30
0
11
2.1257341998763621
21
68.767268202370971
31
0
0
SPLINE
5
239
100
AcDbEntity
8
0
100
AcDbSpline
70
0
71
3
72
8
73
4
74
0
42
0.000000001
43
0.0000000001
44
0.0000000001
40
0
40
0
40
0
40
0
40
1
40
1
40
1
40
1
10
19.081366692686899
20
77.220672219293391
30
0
10
19.814530918301006
20
77.094489994890296
30
0
10
20.911638818013504
20
77.025447492058106
30
0
10
22.375914199336101
20
77.247652958098087
30
0
0
SPLINE
5
240
100
AcDbEntity
8
0
100
AcDbSpline
70
0
71
3
72
8
73
4
74
0
42
0.000000001
43
0.0000000001
44
0.0000000001
40
0
40
0
40
0
40
0
40
1
40
1
40
1
40
1
10
-21.562612577242607
20
89.69473764439519
30
0
10
-22.288255845995003
20
89.530745016542639
30
0
10
-23.328272801458802
20
89.174686955045829
30
0
10
-24.5960525057884
20
88.409041944107173
30
0
0
ARC
5
241
100
AcDbEntity
8
0
100
AcDbCircle
10
9.482564067685912
20
71.200461196933873
30
0
40
0.4000000000000134
210
0
220
0
230
1
100
AcDbArc
50
120.18951156155462
51
208.97405905464308
0
LINE
5
242
100
AcDbEntity
8
0
100
AcDbLine
10
-16.493304235948262
20
96.632628420716344
30
0
11
-18.0235199630065
21
97.479935390795788
31
0
0
SPLINE
5
243
100
AcDbEntity
8
0
100
AcDbSpline
70
0
71
3
72
8
73
4
74
0
42
0.000000001
43
0.0000000001
44
0.0000000001
40
0
40
0
40
0
40
0
40
1
40
1
40
1
40
1
10
2.1935990612612515
20
65.935687831506897
30
0
10
2.3295201011993436
20
66.545105627870285
30
0
10
2.3285729254537162
20
66.908449432272789
30
0
10
2.3229555605971797
20
67.029282872238099
30
0
0
SPLINE
5
244
100
AcDbEntity
8
0
100
AcDbSpline
70
0
71
3
72
8
73
4
74
0
42
0.000000001
43
0.0000000001
44
0.0000000001
40
0
40
0
40
0
40
0
40
1
40
1
40
1
40
1
10
20.470717127761901
20
85.17704443940282
30
0
10
20.591550567727204
20
85.171427074546258
30
0
10
20.95489437212969
20
85.170479898800622
30
0
10
21.562612577242607
20
85.30526235560481
30
0
0
LINE
5
245
100
AcDbEntity
8
0
100
AcDbLine
10
-5.6876731960577231
20
67.698566822671594
30
0
11
-5.2047837830663219
21
69.379729244242597
31
0
0
SPLINE
5
246
100
AcDbEntity
8
0
100
AcDbSpline
70
0
71
3
72
8
73
4
74
0
42
0.000000001
43
0.0000000001
44
0.0000000001
40
0
40
0
40
0
40
0
40
1
40
1
40
1
40
1
10
20.76228066315111
20
81.274316278004051
30
0
10
20.251266764436998
20
81.633105038897213
30
0
10
19.915218391819401
20
81.771275616809461
30
0
10
19.801433177328402
20
81.812326803942284
30
0
0
ARC
5
247
100
AcDbEntity
8
0
100
AcDbCircle
10
-1.7208456881689926e-13
20
87.500000000000284
30
0
40
18.457199858155985
210
-0
220
0
230
1
100
AcDbArc
50
300.18951156155765
51
307.31048843844223
0
ARC
5
248
100
AcDbEntity
8
0
100
AcDbCircle
10
14.998310312987304
20
76.070009875517584
30
0
40
0.39999999999994423
210
0
220
0
230
1
100
AcDbArc
50
142.68951156154174
51
231.47405905464299
0
SPLINE
5
249
100
AcDbEntity
8
0
100
AcDbSpline
70
0
71
3
72
8
73
4
74
0
42
0.000000001
43
0.0000000001
44
0.0000000001
40
0
40
0
40
0
40
0
40
1
40
1
40
1
40
1
10
16.799380137387299
20
73.802837405457183
30
0
10
16.464567370049107
20
74.329871550887688
30
0
10
16.206974747661306
20
74.5861246644901
30
0
10
16.117560526085295
20
74.667594732501186
30
0
0
ARC
5
250
100
AcDbEntity
8
0
100
AcDbCircle
10
-9.2148511043887993e-14
20
87.500000000000483
30
0
40
18.457199858156145
210
-0
220
0
230
1
100
AcDbArc
50
277.68951156155771
51
284.81048843844229
0
ARC
5
251
100
AcDbEntity
8
0
100
AcDbCircle
10
-11.429990124482401
20
102.49831031298729
30
0
40
0.39999999999999808
210
0
220
0
230
1
100
AcDbArc
50
218.52594094535428
51
307.31048843845184
0
ARC
5
252
100
AcDbEntity
8
0
100
AcDbCircle
10
2.9420910152566648e-13
20
87.499999999999787
30
0
40
18.457199858156084
210
0
220
0
230
1
100
AcDbArc
50
142.68951156155808
51
149.81048843844226
0
LINE
5
253
100
AcDbEntity
8
0
100
AcDbLine
10
-9.1326284207163582
20
71.006695764051628
30
0
11
-9.9799353907957773
21
69.476480036993493
31
0
0
SPLINE
5
254
100
AcDbEntity
8
0
100
AcDbSpline
70
0
71
3
72
8
73
4
74
0
42
0.000000001
43
0.0000000001
44
0.0000000001
40
0
40
0
40
0
40
0
40
1
40
1
40
1
40
1
10
-20.761146162482902
20
81.276018597070916
30
0
10
-21.368795864678702
20
80.846817507956388
30
0
10
-22.193388722201508
20
80.1198654943191
30
0
10
-23.071664782005602
20
78.92734345080784
30
0
0
ARC
5
255
100
AcDbEntity
8
0
100
AcDbCircle
10
16.29953880306611
20
96.982564067685914
30
0
40
0.40000000000000346
210
0
220
0
230
1
100
AcDbArc
50
210.18951156155688
51
298.97405905464194
0
SPLINE
5
256
100
AcDbEntity
8
0
100
AcDbSpline
70
0
71
3
72
8
73
4
74
0
42
0.000000001
43
0.0000000001
44
0.0000000001
40
0
40
0
40
0
40
0
40
1
40
1
40
1
40
1
10
16.798983444743804
20
101.1951557021893
30
0
10
17.196130421581895
20
101.82422327746568
30
0
10
17.679762393558796
20
102.81139738900359
30
0
10
18.034825240324505
20
104.24924579420218
30
0
0
ARC
5
257
100
AcDbEntity
8
0
100
AcDbCircle
10
11.429990124482412
20
72.501689687012686
30
0
40
0.39999999999999114
210
0
220
-0
230
1
100
AcDbArc
50
38.525940945356673
51
127.31048843844532
0
LINE
5
258
100
AcDbEntity
8
0
100
AcDbLine
10
-12.832405267498805
20
71.382439473914701
30
0
11
-11.742920616519605
21
72.750837248014889
31
0
0
ARC
5
259
100
AcDbEntity
8
0
100
AcDbCircle
10
-9.4825640676859013
20
103.79953880306608
30
0
40
0.39999999999996622
210
-0
220
0
230
1
100
AcDbArc
50
-59.810488438441546
51
28.974059054652209
0
CIRCLE
5
260
100
AcDbEntity
8
0
100
AcDbCircle
10
5.1181281435219717e-13
20
87.500000000000512
30
0
40
2.4249999999999998
210
0
220
-0
230
1
0
ENDSEC
0
SECTION
2
OBJECTS
0
DICTIONARY
5
C
100
AcDbDictionary
3
ACAD_GROUP
350
D
3
ACAD_MLINESTYLE
350
17
0
DICTIONARY
5
D
100
AcDbDictionary
0
DICTIONARY
5
1A
330
C
100
AcDbDictionary
0
DICTIONARY
5
17
100
AcDbDictionary
0
ENDSEC
0
EOF
