0
SECTION
2
HEADER
9
$INSUNITS
70
4
9
$ACADVER
1
AC1014
9
$HANDSEED
5
FFFF
0
ENDSEC
0
SECTION
2
TABLES
0
TABLE
2
VPORT
5
8
100
AcDbSymbolTable
0
ENDTAB
0
TABLE
2
LTYPE
5
5
100
AcDbSymbolTable
0
LTYPE
5
14
100
AcDbSymbolTableRecord
100
AcDbLinetypeTableRecord
2
BYBLOCK
70
0
0
LTYPE
5
15
100
AcDbSymbolTableRecord
100
AcDbLinetypeTableRecord
2
BYLAYER
70
0
0
ENDTAB
0
TABLE
2
LAYER
5
2
100
AcDbSymbolTable
70
2
0
LAYER
5
50
100
AcDbSymbolTableRecord
100
AcDbLayerTableRecord
2
0
70
0
6
CONTINUOUS
0
ENDTAB
0
TABLE
2
STYLE
5
3
100
AcDbSymbolTable
70
1
0
STYLE
5
11
100
AcDbSymbolTableRecord
100
AcDbTextStyleTableRecord
2
STANDARD
70
0
0
ENDTAB
0
TABLE
2
VIEW
5
6
100
AcDbSymbolTable
70
0
0
ENDTAB
0
TABLE
2
UCS
5
7
100
AcDbSymbolTable
70
0
0
ENDTAB
0
TABLE
2
APPID
5
9
100
AcDbSymbolTable
70
2
0
APPID
5
12
100
AcDbSymbolTableRecord
100
AcDbRegAppTableRecord
2
ACAD
70
0
0
ENDTAB
0
TABLE
2
DIMSTYLE
5
A
100
AcDbSymbolTable
70
1
0
ENDTAB
0
TABLE
2
BLOCK_RECORD
5
1
100
AcDbSymbolTable
70
1
0
BLOCK_RECORD
5
1F
100
AcDbSymbolTableRecord
100
AcDbBlockTableRecord
2
*MODEL_SPACE
0
BLOCK_RECORD
5
1B
100
AcDbSymbolTableRecord
100
AcDbBlockTableRecord
2
*PAPER_SPACE
0
ENDTAB
0
ENDSEC
0
SECTION
2
BLOCKS
0
BLOCK
5
20
100
AcDbEntity
100
AcDbBlockBegin
2
*MODEL_SPACE
0
ENDBLK
5
21
100
AcDbEntity
100
AcDbBlockEnd
0
BLOCK
5
1C
100
AcDbEntity
100
AcDbBlockBegin
2
*PAPER_SPACE
0
ENDBLK
5
1D
100
AcDbEntity
100
AcDbBlockEnd
0
ENDSEC
0
SECTION
2
ENTITIES
0
ARC
5
100
100
AcDbEntity
8
0
100
AcDbCircle
10
0
20
0
30
0
40
68.361865428620106
210
-0
220
0
230
1
100
AcDbArc
50
355.41482679737408
51
357.18517320262612
0
ARC
5
101
100
AcDbEntity
8
0
100
AcDbCircle
10
5.1625846602366389e-16
20
7.9833249461774313e-15
30
0
40
68.361865428620106
210
0
220
0
230
1
100
AcDbArc
50
175.4148267973741
51
177.18517320262609
0
SPLINE
5
102
100
AcDbEntity
8
0
100
AcDbSpline
70
0
71
3
72
8
73
4
74
0
42
0.000000001
43
0.0000000001
44
0.0000000001
40
0
40
0
40
0
40
0
40
1
40
1
40
1
40
1
10
44.229246324912417
20
52.125985980228585
30
0
10
42.30812908700554
20
51.264816315425293
30
0
10
40.927483662544347
20
50.402741998361059
30
0
10
39.99141900082067
20
49.714547294671846
30
0
0
ARC
5
103
100
AcDbEntity
8
0
100
AcDbCircle
10
8.0338462965383695e-15
20
-9.2711689196581874e-14
30
0
40
68.361865428620135
210
0
220
-0
230
1
100
AcDbArc
50
2.9148267973741855
51
4.6851732026259194
0
SPLINE
5
104
100
AcDbEntity
8
0
100
AcDbSpline
70
0
71
3
72
8
73
4
74
0
42
0.000000001
43
0.0000000001
44
0.0000000001
40
0
40
0
40
0
40
0
40
1
40
1
40
1
40
1
10
-57.453116051694423
20
37.047052525555905
30
0
10
-56.348557694881897
20
35.254775909138644
30
0
10
-55.313648153045278
20
33.998465375694437
30
0
10
-54.509160094481395
20
33.16023631109347
30
0
0
SPLINE
5
105
100
AcDbEntity
8
0
100
AcDbSpline
70
0
71
3
72
8
73
4
74
0
42
0.000000001
43
0.0000000001
44
0.0000000001
40
0
40
0
40
0
40
0
40
1
40
1
40
1
40
1
10
-33.255322188492329
20
54.45120157125033
30
0
10
-34.094954072226408
20
55.254225419545556
30
0
10
-35.353068949180248
20
56.286940710714845
30
0
10
-37.14727065283671
20
57.388369273971023
30
0
0
SPLINE
5
106
100
AcDbEntity
8
0
100
AcDbSpline
70
0
71
3
72
8
73
4
74
0
42
0.000000001
43
0.0000000001
44
0.0000000001
40
0
40
0
40
0
40
0
40
1
40
1
40
1
40
1
10
-44.229246324912523
20
-52.125985980228577
30
0
10
-42.308129087005646
20
-51.264816315425286
30
0
10
-40.927483662544446
20
-50.402741998361051
30
0
10
-39.99141900082067
20
-49.714547294671846
30
0
0
SPLINE
5
107
100
AcDbEntity
8
0
100
AcDbSpline
70
0
71
3
72
8
73
4
74
0
42
0.000000001
43
0.0000000001
44
0.0000000001
40
0
40
0
40
0
40
0
40
1
40
1
40
1
40
1
10
58.326054569760579
20
25.863510294209423
30
0
10
59.231802390363868
20
26.59114336560328
30
0
10
60.419899603319962
20
27.703698500773353
30
0
10
61.746095608983687
20
29.338785283767503
30
0
0
SPLINE
5
108
100
AcDbEntity
8
0
100
AcDbSpline
70
0
71
3
72
8
73
4
74
0
42
0.000000001
43
0.0000000001
44
0.0000000001
40
0
40
0
40
0
40
0
40
1
40
1
40
1
40
1
10
-58.326054569760579
20
-25.863510294209423
30
0
10
-59.231802390363882
20
-26.591143365603386
30
0
10
-60.419899603319976
20
-27.703698500773459
30
0
10
-61.746095608983687
20
-29.338785283767503
30
0
0
ARC
5
109
100
AcDbEntity
8
0
100
AcDbCircle
10
50.132325541470777
20
37.503311306688516
30
0
40
0.39999999999996622
210
0
220
0
230
1
100
AcDbArc
50
216.79965346590109
51
296.84913589977521
0
SPLINE
5
110
100
AcDbEntity
8
0
100
AcDbSpline
70
0
71
3
72
8
73
4
74
0
42
0.000000001
43
0.0000000001
44
0.0000000001
40
0
40
0
40
0
40
0
40
1
40
1
40
1
40
1
10
51.495816101351096
20
37.670024296105645
30
0
10
51.002649167403916
20
37.477604414466938
30
0
10
50.611536155845002
20
37.297633749486678
30
0
10
50.312982678041934
20
37.146431776586432
30
0
0
ARC
5
111
100
AcDbEntity
8
0
100
AcDbCircle
10
2.2214346866277538e-12
20
1.4226109563218804e-12
30
0
40
62.207894255932807
210
0
220
-0
230
1
100
AcDbArc
50
29.299663129919008
51
30.800336870080795
0
ARC
5
112
100
AcDbEntity
8
0
100
AcDbCircle
10
2.5226377192582822e-12
20
1.7879351043523273e-12
30
0
40
62.207894255932395
210
0
220
-0
230
1
100
AcDbArc
50
36.799663129919288
51
38.300336870080784
0
ARC
5
113
100
AcDbEntity
8
0
100
AcDbCircle
10
-2.5618474214514516e-14
20
3.7731866888881273e-14
30
0
40
68.361865428620106
210
0
220
-0
230
1
100
AcDbArc
50
32.914826797374005
51
34.685173202625592
0
SPLINE
5
114
100
AcDbEntity
8
0
100
AcDbSpline
70
0
71
3
72
8
73
4
74
0
42
0.000000001
43
0.0000000001
44
0.0000000001
40
0
40
0
40
0
40
0
40
1
40
1
40
1
40
1
10
43.317135797886628
20
45.109637173900964
30
0
10
43.505530807391182
20
45.38622989996405
30
0
10
43.734376159579995
20
45.750905965597219
30
0
10
43.988711136740328
20
46.215182558784484
30
0
0
ARC
5
115
100
AcDbEntity
8
0
100
AcDbCircle
10
54.598600967315527
20
30.638883719454416
30
0
40
0.40000000000003377
210
0
220
0
230
1
100
AcDbArc
50
209.29965346590902
51
289.34913589978351
0
SPLINE
5
116
100
AcDbEntity
8
0
100
AcDbSpline
70
0
71
3
72
8
73
4
74
0
42
0.000000001
43
0.0000000001
44
0.0000000001
40
0
40
0
40
0
40
0
40
1
40
1
40
1
40
1
10
43.988711136740328
20
46.215182558784484
30
0
10
44.547059888549107
20
47.234042545469364
30
0
10
45.218962168410563
20
48.716574583080792
30
0
10
45.818486891810501
20
50.734711035205038
30
0
0
SPLINE
5
117
100
AcDbEntity
8
0
100
AcDbSpline
70
0
71
3
72
8
73
4
74
0
42
0.000000001
43
0.0000000001
44
0.0000000001
40
0
40
0
40
0
40
0
40
1
40
1
40
1
40
1
10
53.516373406319659
20
32.361263837015152
30
0
10
53.769936476786022
20
32.579671678021043
30
0
10
54.085369223770279
20
32.872692172515997
30
0
10
54.45120157125033
20
33.255322188492329
30
0
0
ARC
5
118
100
AcDbEntity
8
0
100
AcDbCircle
10
44.808272126304942
20
43.726046839582835
30
0
40
0.39999999999992769
210
0
220
0
230
1
100
AcDbArc
50
224.29965346590879
51
304.34913589978265
0
SPLINE
5
119
100
AcDbEntity
8
0
100
AcDbSpline
70
0
71
3
72
8
73
4
74
0
42
0.000000001
43
0.0000000001
44
0.0000000001
40
0
40
0
40
0
40
0
40
1
40
1
40
1
40
1
10
49.644673417130825
20
40.07812630001294
30
0
10
50.331233332433428
20
41.015390661766688
30
0
10
51.190896656861078
20
42.397538586144279
30
0
10
52.048712029618834
20
44.320155921866807
30
0
0
SPLINE
5
120
100
AcDbEntity
8
0
100
AcDbSpline
70
0
71
3
72
8
73
4
74
0
42
0.000000001
43
0.0000000001
44
0.0000000001
40
0
40
0
40
0
40
0
40
1
40
1
40
1
40
1
10
56.213369218963948
20
38.902464779666623
30
0
10
54.13482535322494
20
38.567860488661459
30
0
10
52.578103029240054
20
38.092497972012929
30
0
10
51.495816101351096
20
37.670024296105645
30
0
0
ARC
5
121
100
AcDbEntity
8
0
100
AcDbCircle
10
3.9916624730887157e-15
20
-2.5812923301183194e-16
30
0
40
68.361865428620106
210
0
220
-0
230
1
100
AcDbArc
50
85.41482679737409
51
87.185173202626117
0
CIRCLE
5
122
100
AcDbEntity
8
0
100
AcDbCircle
10
0
20
0
30
0
40
2.9249999999999998
210
-0
220
0
230
1
0
ARC
5
123
100
AcDbEntity
8
0
100
AcDbCircle
10
3.4118057626715627e-14
20
-3.0264800408727492e-14
30
0
40
68.361865428620121
210
0
220
-0
230
1
100
AcDbArc
50
47.914826797374154
51
49.685173202625712
0
SPLINE
5
124
100
AcDbEntity
8
0
100
AcDbSpline
70
0
71
3
72
8
73
4
74
0
42
0.000000001
43
0.0000000001
44
0.0000000001
40
0
40
0
40
0
40
0
40
1
40
1
40
1
40
1
10
48.834540868983666
20
39.069697180924088
30
0
10
49.057426728394191
20
39.319333134648737
30
0
10
49.331914055111895
20
39.651019033558327
30
0
10
49.644673417130825
20
40.07812630001294
30
0
0
ARC
5
125
100
AcDbEntity
8
0
100
AcDbCircle
10
-1.2972903037538326e-14
20
8.3892000728845357e-16
30
0
40
68.361865428620106
210
0
220
0
230
1
100
AcDbArc
50
265.41482679737413
51
267.18517320262589
0
SPLINE
5
126
100
AcDbEntity
8
0
100
AcDbSpline
70
0
71
3
72
8
73
4
74
0
42
0.000000001
43
0.0000000001
44
0.0000000001
40
0
40
0
40
0
40
0
40
1
40
1
40
1
40
1
10
61.234306201996212
20
-17.922319893739612
30
0
10
60.781428238710042
20
-17.648202061487439
30
0
10
60.400553394673075
20
-17.447470446528829
30
0
10
60.098848962631159
20
-17.302657976749952
30
0
0
SPLINE
5
127
100
AcDbEntity
8
0
100
AcDbSpline
70
0
71
3
72
8
73
4
74
0
42
0.000000001
43
0.0000000001
44
0.0000000001
40
0
40
0
40
0
40
0
40
1
40
1
40
1
40
1
10
31.232331764564929
20
-60.810246648315101
30
0
10
31.171894475811545
20
-58.705810389482707
30
0
10
30.90379178868421
20
-57.100358781559706
30
0
10
30.626199225227104
20
-55.972187088142775
30
0
0
SPLINE
5
128
100
AcDbEntity
8
0
100
AcDbSpline
70
0
71
3
72
8
73
4
74
0
42
0.000000001
43
0.0000000001
44
0.0000000001
40
0
40
0
40
0
40
0
40
1
40
1
40
1
40
1
10
9.7763111407624983
20
63.049770395239037
30
0
10
9.5636508606532633
20
62.564987308846185
30
0
10
9.4143506755918551
20
62.161170168540352
30
0
10
9.3101574272570637
20
61.84314503947256
30
0
0
SPLINE
5
129
100
AcDbEntity
8
0
100
AcDbSpline
70
0
71
3
72
8
73
4
74
0
42
0.000000001
43
0.0000000001
44
0.0000000001
40
0
40
0
40
0
40
0
40
1
40
1
40
1
40
1
10
59.531012220457825
20
-22.954485191810747
30
0
10
60.685986925449633
20
-23.080431338806129
30
0
10
62.312793801962457
20
-23.133847654273513
30
0
10
64.406736942833348
20
-22.915428890977132
30
0
0
SPLINE
5
130
100
AcDbEntity
8
0
100
AcDbSpline
70
0
71
3
72
8
73
4
74
0
42
0.000000001
43
0.0000000001
44
0.0000000001
40
0
40
0
40
0
40
0
40
1
40
1
40
1
40
1
10
37.047052525555905
20
57.453116051694423
30
0
10
35.254775909138743
20
56.34855769488189
30
0
10
33.998465375694536
20
55.313648153045271
30
0
10
33.16023631109347
20
54.509160094481395
30
0
0
ARC
5
131
100
AcDbEntity
8
0
100
AcDbCircle
10
30.543544566771146
20
54.651992721766916
30
0
40
0.39999999999991548
210
0
220
0
230
1
100
AcDbArc
50
160.75086410022823
51
240.80034653408973
0
SPLINE
5
132
100
AcDbEntity
8
0
100
AcDbSpline
70
0
71
3
72
8
73
4
74
0
42
0.000000001
43
0.0000000001
44
0.0000000001
40
0
40
0
40
0
40
0
40
1
40
1
40
1
40
1
10
-23.058351394418374
20
59.490858435434326
30
0
10
-23.000129056172476
20
58.964693827238399
30
0
10
-22.927518239072448
20
58.540327832719314
30
0
10
-22.858739674499311
20
58.212813367737269
30
0
0
SPLINE
5
133
100
AcDbEntity
8
0
100
AcDbSpline
70
0
71
3
72
8
73
4
74
0
42
0.000000001
43
0.0000000001
44
0.0000000001
40
0
40
0
40
0
40
0
40
1
40
1
40
1
40
1
10
14.987750044760295
20
62.017877704813095
30
0
10
14.961864254655614
20
63.179410712086039
30
0
10
14.802482679070629
20
64.799272258512588
30
0
10
14.312618093669734
20
66.846792056055534
30
0
0
ARC
5
134
100
AcDbEntity
8
0
100
AcDbCircle
10
-8.9300616051159629
20
-61.967753088935154
30
0
40
0.3999999999999912
210
0
220
-0
230
1
100
AcDbArc
50
81.799653465908662
51
161.84913589978464
0
SPLINE
5
135
100
AcDbEntity
8
0
100
AcDbSpline
70
0
71
3
72
8
73
4
74
0
42
0.000000001
43
0.0000000001
44
0.0000000001
40
0
40
0
40
0
40
0
40
1
40
1
40
1
40
1
10
44.069304807173857
20
-46.13833742372789
30
0
10
43.814159902280082
20
-45.674505435724022
30
0
10
43.584678419160817
20
-45.310229335808778
30
0
10
43.39580095146772
20
-45.033965842174567
30
0
0
ARC
5
136
100
AcDbEntity
8
0
100
AcDbCircle
10
-1.6112458822530155e-12
20
1.6133402328469657e-12
30
0
40
62.207894255933205
210
0
220
0
230
1
100
AcDbArc
50
134.29966312991897
51
135.80033687008103
0
SPLINE
5
137
100
AcDbEntity
8
0
100
AcDbSpline
70
0
71
3
72
8
73
4
74
0
42
0.000000001
43
0.0000000001
44
0.0000000001
40
0
40
0
40
0
40
0
40
1
40
1
40
1
40
1
10
56.025554611895849
20
-30.528462733043717
30
0
10
57.154209077184568
20
-30.804085843645108
30
0
10
58.760126167090412
20
-31.069386082197425
30
0
10
60.864664703598351
20
-31.126150346602806
30
0
0
SPLINE
5
138
100
AcDbEntity
8
0
100
AcDbSpline
70
0
71
3
72
8
73
4
74
0
42
0.000000001
43
0.0000000001
44
0.0000000001
40
0
40
0
40
0
40
0
40
1
40
1
40
1
40
1
10
22.954485191810747
20
59.531012220457825
30
0
10
23.080431338806129
20
60.685986925449633
30
0
10
23.133847654273513
20
62.312793801962457
30
0
10
22.915428890977232
20
64.406736942833348
30
0
0
SPLINE
5
139
100
AcDbEntity
8
0
100
AcDbSpline
70
0
71
3
72
8
73
4
74
0
42
0.000000001
43
0.0000000001
44
0.0000000001
40
0
40
0
40
0
40
0
40
1
40
1
40
1
40
1
10
-37.580089812825477
20
-51.561484230705929
30
0
10
-38.000673899193337
20
-52.644506865468458
30
0
10
-38.473318700193786
20
-54.202056482114642
30
0
10
-38.804294739998902
20
-56.281181176411565
30
0
0
ARC
5
140
100
AcDbEntity
8
0
100
AcDbCircle
10
31.964333589057574
20
53.833352128302749
30
0
40
0.39999999999999181
210
0
220
0
230
1
100
AcDbArc
50
239.29965346590916
51
319.34913589979197
0
SPLINE
5
141
100
AcDbEntity
8
0
100
AcDbSpline
70
0
71
3
72
8
73
4
74
0
42
0.000000001
43
0.0000000001
44
0.0000000001
40
0
40
0
40
0
40
0
40
1
40
1
40
1
40
1
10
25.761672784328997
20
58.37110605228002
30
0
10
25.430787632043568
20
57.957882079614109
30
0
10
25.182059160773047
20
57.606466406025731
30
0
10
24.999105251057543
20
57.326244917490428
30
0
0
SPLINE
5
142
100
AcDbEntity
8
0
100
AcDbSpline
70
0
71
3
72
8
73
4
74
0
42
0.000000001
43
0.0000000001
44
0.0000000001
40
0
40
0
40
0
40
0
40
1
40
1
40
1
40
1
10
30.165906969779243
20
54.783863284585593
30
0
10
30.276295109761669
20
55.099791558515662
30
0
10
30.402957634588148
20
55.511271124069864
30
0
10
30.528462733043717
20
56.025554611895849
30
0
0
ARC
5
143
100
AcDbEntity
8
0
100
AcDbCircle
10
-53.777481877329471
20
-32.05824178110683
30
0
40
0.39999999999999603
210
-0
220
0
230
1
100
AcDbArc
50
-49.249135899770273
51
30.800346534067156
0
SPLINE
5
144
100
AcDbEntity
8
0
100
AcDbSpline
70
0
71
3
72
8
73
4
74
0
42
0.000000001
43
0.0000000001
44
0.0000000001
40
0
40
0
40
0
40
0
40
1
40
1
40
1
40
1
10
-6.904787189053545
20
-62.15768282012629
30
0
10
-6.8858720159666156
20
-62.491806198452721
30
0
10
-6.8454265176956044
20
-62.920435396867582
30
0
10
-6.7645703390546235
20
-63.443600107034797
30
0
0
ARC
5
145
100
AcDbEntity
8
0
100
AcDbCircle
10
0.76524883901273877
20
62.603217308512086
30
0
40
0.4000000000000048
210
0
220
0
230
1
100
AcDbArc
50
269.29965346592087
51
349.34913589977583
0
SPLINE
5
146
100
AcDbEntity
8
0
100
AcDbSpline
70
0
71
3
72
8
73
4
74
0
42
0.000000001
43
0.0000000001
44
0.0000000001
40
0
40
0
40
0
40
0
40
1
40
1
40
1
40
1
10
1.4630269936614104
20
63.786435536320596
30
0
10
1.3154629420483477
20
63.278042099836284
30
0
10
1.2201487544443563
20
62.858192086491584
30
0
10
1.1583575029204995
20
62.529287758529357
30
0
0
ARC
5
147
100
AcDbEntity
8
0
100
AcDbCircle
10
62.180365958004309
20
-7.3041435152285539
30
0
40
0.39999999999999036
210
0
220
0
230
1
100
AcDbArc
50
93.250864100216461
51
173.30034653406804
0
ARC
5
148
100
AcDbEntity
8
0
100
AcDbCircle
10
-8.0925628382777254e-14
20
1.9262467932553057e-14
30
0
40
68.361865428620121
210
0
220
-0
230
1
100
AcDbArc
50
77.914826797374019
51
79.685173202625805
0
SPLINE
5
149
100
AcDbEntity
8
0
100
AcDbSpline
70
0
71
3
72
8
73
4
74
0
42
0.000000001
43
0.0000000001
44
0.0000000001
40
0
40
0
40
0
40
0
40
1
40
1
40
1
40
1
10
-55.972187088142775
20
-30.626199225227104
30
0
10
-55.458123431223626
20
-30.499796724367219
30
0
10
-55.046865560085848
20
-30.37241622550102
30
0
10
-54.731130430894062
20
-30.261476855071287
30
0
0
ARC
5
150
100
AcDbEntity
8
0
100
AcDbCircle
10
2.2311406457027876e-14
20
1.9601049510403643e-14
30
0
40
68.361865428620106
210
0
220
0
230
1
100
AcDbArc
50
137.91482679737399
51
139.685173202626
0
ARC
5
151
100
AcDbEntity
8
0
100
AcDbCircle
10
2.91620939394312e-12
20
1.164236990770306e-12
30
0
40
62.207894255932281
210
0
220
-0
230
1
100
AcDbArc
50
21.799663129919189
51
23.300336870080496
0
ARC
5
152
100
AcDbEntity
8
0
100
AcDbCircle
10
57.501848293859098
20
24.764609141926822
30
0
40
0.39999999999999097
210
0
220
0
230
1
100
AcDbArc
50
123.25086410021721
51
203.30034653414742
0
ARC
5
153
100
AcDbEntity
8
0
100
AcDbCircle
10
-16.942078541274771
20
-60.272003433299581
30
0
40
0.39999999999999203
210
0
220
-0
230
1
100
AcDbArc
50
74.299653465909287
51
154.34913589978217
0
SPLINE
5
154
100
AcDbEntity
8
0
100
AcDbSpline
70
0
71
3
72
8
73
4
74
0
42
0.000000001
43
0.0000000001
44
0.0000000001
40
0
40
0
40
0
40
0
40
1
40
1
40
1
40
1
10
-46.215182558784484
20
43.988711136740328
30
0
10
-47.234042545469379
20
44.547059888549008
30
0
10
-48.716574583080792
20
45.218962168410563
30
0
10
-50.734711035205038
20
45.818486891810501
30
0
0
ARC
5
155
100
AcDbEntity
8
0
100
AcDbCircle
10
-7.4126575468930209
20
62.167523123049399
30
0
40
0.39999999999989994
210
-0
220
0
230
1
100
AcDbArc
50
276.79965346591462
51
356.84913589979249
0
SPLINE
5
156
100
AcDbEntity
8
0
100
AcDbSpline
70
0
71
3
72
8
73
4
74
0
42
0.000000001
43
0.0000000001
44
0.0000000001
40
0
40
0
40
0
40
0
40
1
40
1
40
1
40
1
10
-45.109637173901049
20
43.317135797886635
30
0
10
-45.38622989996405
20
43.505530807391182
30
0
10
-45.750905965597219
20
43.734376159579995
30
0
10
-46.215182558784484
20
43.988711136740328
30
0
0
SPLINE
5
157
100
AcDbEntity
8
0
100
AcDbSpline
70
0
71
3
72
8
73
4
74
0
42
0.000000001
43
0.0000000001
44
0.0000000001
40
0
40
0
40
0
40
0
40
1
40
1
40
1
40
1
10
-53.516373406319659
20
-32.361263837015152
30
0
10
-53.769936476786022
20
-32.579671678021043
30
0
10
-54.085369223770279
20
-32.872692172515997
30
0
10
-54.45120157125033
20
-33.255322188492329
30
0
0
ARC
5
158
100
AcDbEntity
8
0
100
AcDbCircle
10
2.0954463831550612e-12
20
-1.9512912277059963e-12
30
0
40
62.207894255932558
210
-0
220
0
230
1
100
AcDbArc
50
314.29966312991905
51
315.80033687008097
0
ARC
5
159
100
AcDbEntity
8
0
100
AcDbCircle
10
-54.598600967315534
20
-30.638883719454519
30
0
40
0.39999999999999192
210
0
220
-0
230
1
100
AcDbArc
50
29.299653465908857
51
109.34913589978507
0
SPLINE
5
160
100
AcDbEntity
8
0
100
AcDbSpline
70
0
71
3
72
8
73
4
74
0
42
0.000000001
43
0.0000000001
44
0.0000000001
40
0
40
0
40
0
40
0
40
1
40
1
40
1
40
1
10
-61.797207378502669
20
29.230973386103621
30
0
10
-60.46815962940741
20
27.598203740995906
30
0
10
-59.278122451990399
20
26.487723920110984
30
0
10
-58.37110605228002
20
25.761672784328997
30
0
0
ARC
5
161
100
AcDbEntity
8
0
100
AcDbCircle
10
3.1481573626939022e-14
20
-9.0504431919999082e-15
30
0
40
68.361865428620106
210
0
220
0
230
1
100
AcDbArc
50
242.91482679737396
51
244.68517320262589
0
SPLINE
5
162
100
AcDbEntity
8
0
100
AcDbSpline
70
0
71
3
72
8
73
4
74
0
42
0.000000001
43
0.0000000001
44
0.0000000001
40
0
40
0
40
0
40
0
40
1
40
1
40
1
40
1
10
-51.495816101351096
20
-37.670024296105645
30
0
10
-51.002649167403916
20
-37.477604414466938
30
0
10
-50.611536155845002
20
-37.297633749486678
30
0
10
-50.312982678041934
20
-37.146431776586432
30
0
0
ARC
5
163
100
AcDbEntity
8
0
100
AcDbCircle
10
30.638883719454519
20
-54.598600967315534
30
0
40
0.39999999999998953
210
0
220
0
230
1
100
AcDbArc
50
119.29965346590839
51
199.34913589978217
0
ARC
5
164
100
AcDbEntity
8
0
100
AcDbCircle
10
-60.695022266934792
20
15.357821954257766
30
0
40
0.39999999999999036
210
0
220
0
230
1
100
AcDbArc
50
265.75086410021714
51
345.80034653409155
0
ARC
5
165
100
AcDbEntity
8
0
100
AcDbCircle
10
62.603217308512086
20
-0.76524883901272989
30
0
40
0.39999999999996871
210
0
220
0
230
1
100
AcDbArc
50
179.29965346592016
51
259.349135899776
0
SPLINE
5
166
100
AcDbEntity
8
0
100
AcDbSpline
70
0
71
3
72
8
73
4
74
0
42
0.000000001
43
0.0000000001
44
0.0000000001
40
0
40
0
40
0
40
0
40
1
40
1
40
1
40
1
10
61.797207378502669
20
-29.230973386103621
30
0
10
60.46815962940741
20
-27.598203740995906
30
0
10
59.278122451990399
20
-26.487723920110984
30
0
10
58.37110605228002
20
-25.761672784328997
30
0
0
ARC
5
167
100
AcDbEntity
8
0
100
AcDbCircle
10
-2.3652548739014814e-12
20
1.8545008442934957e-12
30
0
40
62.207894255932459
210
0
220
0
230
1
100
AcDbArc
50
141.79966312991925
51
143.30033687008094
0
SPLINE
5
168
100
AcDbEntity
8
0
100
AcDbSpline
70
0
71
3
72
8
73
4
74
0
42
0.000000001
43
0.0000000001
44
0.0000000001
40
0
40
0
40
0
40
0
40
1
40
1
40
1
40
1
10
-61.991624700913462
20
-15.09596877826835
30
0
10
-61.462361963767542
20
-15.10692280298602
30
0
10
-61.032148865689749
20
-15.090324058864283
30
0
10
-60.698458928217676
20
-15.064883120456694
30
0
0
ARC
5
169
100
AcDbEntity
8
0
100
AcDbCircle
10
-24.664211816360879
20
-57.544983088363807
30
0
40
0.39999999999999325
210
0
220
-0
230
1
100
AcDbArc
50
66.799653465908392
51
146.84913589978146
0
ARC
5
170
100
AcDbEntity
8
0
100
AcDbCircle
10
-62.167523123049399
20
-7.4126575468930209
30
0
40
0.39999999999998048
210
0
220
-0
230
1
100
AcDbArc
50
6.7996534659141448
51
86.849135899782397
0
SPLINE
5
171
100
AcDbEntity
8
0
100
AcDbSpline
70
0
71
3
72
8
73
4
74
0
42
0.000000001
43
0.0000000001
44
0.0000000001
40
0
40
0
40
0
40
0
40
1
40
1
40
1
40
1
10
-68.133438165770329
20
-5.5838381595387307
30
0
10
-66.166064229657465
20
-6.3333342761824865
30
0
10
-64.580221892123916
20
-6.7000194227503602
30
0
10
-63.431697080434645
20
-6.8752899509289236
30
0
0
SPLINE
5
172
100
AcDbEntity
8
0
100
AcDbSpline
70
0
71
3
72
8
73
4
74
0
42
0.000000001
43
0.0000000001
44
0.0000000001
40
0
40
0
40
0
40
0
40
1
40
1
40
1
40
1
10
-62.15768282012629
20
6.904787189053545
30
0
10
-62.491806198452721
20
6.8858720159666156
30
0
10
-62.920435396867582
20
6.8454265176955946
30
0
10
-63.443600107034797
20
6.7645703390546235
30
0
0
SPLINE
5
173
100
AcDbEntity
8
0
100
AcDbSpline
70
0
71
3
72
8
73
4
74
0
42
0.000000001
43
0.0000000001
44
0.0000000001
40
0
40
0
40
0
40
0
40
1
40
1
40
1
40
1
10
-63.443600107034797
20
6.7645703390546235
30
0
10
-64.591817264796617
20
6.5872955248954472
30
0
10
-66.177017200967128
20
6.2178431212053713
30
0
10
-68.143080023766402
20
5.4649144325721544
30
0
0
SPLINE
5
174
100
AcDbEntity
8
0
100
AcDbSpline
70
0
71
3
72
8
73
4
74
0
42
0.000000001
43
0.0000000001
44
0.0000000001
40
0
40
0
40
0
40
0
40
1
40
1
40
1
40
1
10
-66.821710024245604
20
-14.42926589665597
30
0
10
-64.77333837069655
20
-14.915556141568336
30
0
10
-63.153201118274673
20
-15.072110284095427
30
0
10
-61.991624700913462
20
-15.09596877826835
30
0
0
SPLINE
5
175
100
AcDbEntity
8
0
100
AcDbSpline
70
0
71
3
72
8
73
4
74
0
42
0.000000001
43
0.0000000001
44
0.0000000001
40
0
40
0
40
0
40
0
40
1
40
1
40
1
40
1
10
30.528462733043717
20
56.025554611895849
30
0
10
30.804085843645108
20
57.154209077184568
30
0
10
31.069386082197425
20
58.760126167090412
30
0
10
31.126150346602902
20
60.864664703598244
30
0
0
SPLINE
5
176
100
AcDbEntity
8
0
100
AcDbSpline
70
0
71
3
72
8
73
4
74
0
42
0.000000001
43
0.0000000001
44
0.0000000001
40
0
40
0
40
0
40
0
40
1
40
1
40
1
40
1
10
17.922319893739612
20
61.234306201996212
30
0
10
17.648202061487439
20
60.781428238710042
30
0
10
17.447470446528829
20
60.400553394673075
30
0
10
17.302657976749952
20
60.098848962631159
30
0
0
SPLINE
5
177
100
AcDbEntity
8
0
100
AcDbSpline
70
0
71
3
72
8
73
4
74
0
42
0.000000001
43
0.0000000001
44
0.0000000001
40
0
40
0
40
0
40
0
40
1
40
1
40
1
40
1
10
-22.954485191810747
20
-59.531012220457825
30
0
10
-23.080431338806129
20
-60.685986925449633
30
0
10
-23.133847654273513
20
-62.312793801962457
30
0
10
-22.915428890977132
20
-64.406736942833348
30
0
0
ARC
5
178
100
AcDbEntity
8
0
100
AcDbCircle
10
61.967753088935154
20
-8.9300616051159629
30
0
40
0.40000000000002622
210
0
220
0
230
1
100
AcDbArc
50
171.79965346594238
51
251.84913589978464
0
ARC
5
179
100
AcDbEntity
8
0
100
AcDbCircle
10
-60.242342143556584
20
-17.047247174281765
30
0
40
0.39999999999999247
210
-0
220
0
230
1
100
AcDbArc
50
-64.24913589978236
51
15.800346534109563
0
SPLINE
5
180
100
AcDbEntity
8
0
100
AcDbSpline
70
0
71
3
72
8
73
4
74
0
42
0.000000001
43
0.0000000001
44
0.0000000001
40
0
40
0
40
0
40
0
40
1
40
1
40
1
40
1
10
-48.834540868983666
20
-39.069697180924088
30
0
10
-49.057426728394191
20
-39.319333134648737
30
0
10
-49.331914055111895
20
-39.651019033558327
30
0
10
-49.644673417130825
20
-40.07812630001294
30
0
0
ARC
5
181
100
AcDbEntity
8
0
100
AcDbCircle
10
-38.803349015188111
20
49.132967835943901
30
0
40
0.39999999999999503
210
0
220
0
230
1
100
AcDbArc
50
228.25086410021837
51
308.30034653407114
0
SPLINE
5
182
100
AcDbEntity
8
0
100
AcDbSpline
70
0
71
3
72
8
73
4
74
0
42
0.000000001
43
0.0000000001
44
0.0000000001
40
0
40
0
40
0
40
0
40
1
40
1
40
1
40
1
10
52.125985980228577
20
-44.229246324912523
30
0
10
51.264816315425286
20
-42.308129087005646
30
0
10
50.402741998361051
20
-40.927483662544446
30
0
10
49.714547294671846
20
-39.99141900082067
30
0
0
ARC
5
183
100
AcDbEntity
8
0
100
AcDbCircle
10
-2.53960971632881e-12
20
-2.0503869119579107e-12
30
0
40
62.207894255932203
210
0
220
0
230
1
100
AcDbArc
50
216.79966312991903
51
218.30033687007995
0
ARC
5
184
100
AcDbEntity
8
0
100
AcDbCircle
10
-6.5865761455934204e-13
20
3.032826263863955e-12
30
0
40
62.207894255932374
210
0
220
0
230
1
100
AcDbArc
50
104.29966312991935
51
105.800336870081
0
ARC
5
185
100
AcDbEntity
8
0
100
AcDbCircle
10
-57.544983088363807
20
24.664211816360879
30
0
40
0.39999999999994806
210
-0
220
0
230
1
100
AcDbArc
50
-23.20034653404656
51
56.849135899782567
0
SPLINE
5
186
100
AcDbEntity
8
0
100
AcDbSpline
70
0
71
3
72
8
73
4
74
0
42
0.000000001
43
0.0000000001
44
0.0000000001
40
0
40
0
40
0
40
0
40
1
40
1
40
1
40
1
10
-52.125985980228585
20
44.229246324912417
30
0
10
-51.264816315425293
20
42.30812908700554
30
0
10
-50.402741998361059
20
40.927483662544347
30
0
10
-49.714547294671846
20
39.99141900082067
30
0
0
SPLINE
5
187
100
AcDbEntity
8
0
100
AcDbSpline
70
0
71
3
72
8
73
4
74
0
42
0.000000001
43
0.0000000001
44
0.0000000001
40
0
40
0
40
0
40
0
40
1
40
1
40
1
40
1
10
-54.45120157125033
20
-33.255322188492329
30
0
10
-55.254225419545556
20
-34.094954072226408
30
0
10
-56.286940710714845
20
-35.353068949180248
30
0
10
-57.388369273971023
20
-37.14727065283671
30
0
0
ARC
5
188
100
AcDbEntity
8
0
100
AcDbCircle
10
2.1750384803371938e-12
20
-2.703996414393421e-12
30
0
40
62.20789425593199
210
-0
220
0
230
1
100
AcDbArc
50
306.799663129919
51
308.30033687008074
0
SPLINE
5
189
100
AcDbEntity
8
0
100
AcDbSpline
70
0
71
3
72
8
73
4
74
0
42
0.000000001
43
0.0000000001
44
0.0000000001
40
0
40
0
40
0
40
0
40
1
40
1
40
1
40
1
10
63.032611491823786
20
9.8863388033270923
30
0
10
64.09582200057271
20
10.354753593016286
30
0
10
65.531386240417675
20
11.121897145101274
30
0
10
67.235584812843939
20
12.358024913214621
30
0
0
ARC
5
190
100
AcDbEntity
8
0
100
AcDbCircle
10
2.5638400819376451e-12
20
-1.8673427736358346e-12
30
0
40
62.207894255932302
210
-0
220
0
230
1
100
AcDbArc
50
321.79966312991894
51
323.30033687008074
0
SPLINE
5
191
100
AcDbEntity
8
0
100
AcDbSpline
70
0
71
3
72
8
73
4
74
0
42
0.000000001
43
0.0000000001
44
0.0000000001
40
0
40
0
40
0
40
0
40
1
40
1
40
1
40
1
10
-63.049770395239037
20
9.7763111407624876
30
0
10
-62.564987308846185
20
9.5636508606532526
30
0
10
-62.161170168540352
20
9.414350675591848
30
0
10
-61.84314503947256
20
9.3101574272570549
30
0
0
ARC
5
192
100
AcDbEntity
8
0
100
AcDbCircle
10
-37.503311306688516
20
50.132325541470777
30
0
40
0.39999999999997032
210
-0
220
0
230
1
100
AcDbArc
50
-53.200346534048613
51
26.849135899775188
0
SPLINE
5
193
100
AcDbEntity
8
0
100
AcDbSpline
70
0
71
3
72
8
73
4
74
0
42
0.000000001
43
0.0000000001
44
0.0000000001
40
0
40
0
40
0
40
0
40
1
40
1
40
1
40
1
10
58.252620711337421
20
-22.757104384227169
30
0
10
58.580254718666097
20
-22.825311223758689
30
0
10
59.004746796557825
20
-22.897181272258305
30
0
10
59.531012220457825
20
-22.954485191810747
30
0
0
ARC
5
194
100
AcDbEntity
8
0
100
AcDbCircle
10
-24.764609141926822
20
57.501848293859098
30
0
40
0.39999999999999097
210
0
220
0
230
1
100
AcDbArc
50
213.25086410021717
51
293.30034653409217
0
SPLINE
5
195
100
AcDbEntity
8
0
100
AcDbSpline
70
0
71
3
72
8
73
4
74
0
42
0.000000001
43
0.0000000001
44
0.0000000001
40
0
40
0
40
0
40
0
40
1
40
1
40
1
40
1
10
-61.234306201996212
20
17.922319893739612
30
0
10
-60.781428238710042
20
17.648202061487439
30
0
10
-60.400553394673075
20
17.447470446528829
30
0
10
-60.098848962631159
20
17.302657976749952
30
0
0
SPLINE
5
196
100
AcDbEntity
8
0
100
AcDbSpline
70
0
71
3
72
8
73
4
74
0
42
0.000000001
43
0.0000000001
44
0.0000000001
40
0
40
0
40
0
40
0
40
1
40
1
40
1
40
1
10
5.5838381595387885
20
-68.133438165770329
30
0
10
6.3333342761825859
20
-66.166064229657465
30
0
10
6.7000194227503602
20
-64.580221892123916
30
0
10
6.8752899509289236
20
-63.431697080434645
30
0
0
ARC
5
197
100
AcDbEntity
8
0
100
AcDbCircle
10
-15.357821954257766
20
-60.695022266934792
30
0
40
0.39999999999999036
210
-0
220
0
230
1
100
AcDbArc
50
-4.2491358997827922
51
75.800346534089584
0
ARC
5
198
100
AcDbEntity
8
0
100
AcDbCircle
10
62.167523123049399
20
7.4126575468930209
30
0
40
0.39999999999999036
210
0
220
0
230
1
100
AcDbArc
50
186.79965346590768
51
266.84913589978339
0
ARC
5
199
100
AcDbEntity
8
0
100
AcDbCircle
10
-38.717536751858077
20
-49.200617587901398
30
0
40
0.39999999999996677
210
0
220
-0
230
1
100
AcDbArc
50
51.799653465908399
51
131.84913589978407
0
SPLINE
5
200
100
AcDbEntity
8
0
100
AcDbSpline
70
0
71
3
72
8
73
4
74
0
42
0.000000001
43
0.0000000001
44
0.0000000001
40
0
40
0
40
0
40
0
40
1
40
1
40
1
40
1
10
62.15768282012629
20
-6.9047871890535362
30
0
10
62.491806198452721
20
-6.8858720159666049
30
0
10
62.920435396867582
20
-6.8454265176955946
30
0
10
63.443600107034797
20
-6.7645703390546128
30
0
0
ARC
5
201
100
AcDbEntity
8
0
100
AcDbCircle
10
2.91657705435354e-12
20
6.1206232200522869e-13
30
0
40
62.207894255932459
210
0
220
-0
230
1
100
AcDbArc
50
6.799663129918919
51
8.300336870080498
0
SPLINE
5
202
100
AcDbEntity
8
0
100
AcDbSpline
70
0
71
3
72
8
73
4
74
0
42
0.000000001
43
0.0000000001
44
0.0000000001
40
0
40
0
40
0
40
0
40
1
40
1
40
1
40
1
10
-14.958921433199651
20
-60.724659647040518
30
0
10
-14.983779934345286
20
-61.058393479065323
30
0
10
-14.999627790062142
20
-61.488634892150131
30
0
10
-14.987750044760295
20
-62.017877704813095
30
0
0
ARC
5
203
100
AcDbEntity
8
0
100
AcDbCircle
10
-9.488577004490744e-13
20
-5.8699153682016112e-13
30
0
40
62.207894255934413
210
0
220
0
230
1
100
AcDbArc
50
201.79966312991897
51
203.300336870081
0
SPLINE
5
204
100
AcDbEntity
8
0
100
AcDbSpline
70
0
71
3
72
8
73
4
74
0
42
0.000000001
43
0.0000000001
44
0.0000000001
40
0
40
0
40
0
40
0
40
1
40
1
40
1
40
1
10
-61.202932603544895
20
-18.029166568072764
30
0
10
-62.19590680012498
20
-18.632350823536925
30
0
10
-63.519057262151406
20
-19.580310090101939
30
0
10
-65.047329128874708
20
-21.028305164244941
30
0
0
SPLINE
5
205
100
AcDbEntity
8
0
100
AcDbSpline
70
0
71
3
72
8
73
4
74
0
42
0.000000001
43
0.0000000001
44
0.0000000001
40
0
40
0
40
0
40
0
40
1
40
1
40
1
40
1
10
-43.988711136740328
20
-46.215182558784484
30
0
10
-44.547059888549107
20
-47.234042545469364
30
0
10
-45.218962168410656
20
-48.716574583080792
30
0
10
-45.818486891810586
20
-50.734711035205031
30
0
0
ARC
5
206
100
AcDbEntity
8
0
100
AcDbCircle
10
-31.964333589057667
20
-53.833352128302742
30
0
40
0.40000000000002001
210
0
220
-0
230
1
100
AcDbArc
50
59.299653465904441
51
139.34913589978476
0
ARC
5
207
100
AcDbEntity
8
0
100
AcDbCircle
10
2.6234229358942246e-12
20
-3.8810449549590292e-13
30
0
40
62.207894255932807
210
-0
220
0
230
1
100
AcDbArc
50
351.79966312991894
51
353.30033687008103
0
ARC
5
208
100
AcDbEntity
8
0
100
AcDbCircle
10
-30.543544566771146
20
-54.651992721766916
30
0
40
0.39999999999998931
210
-0
220
0
230
1
100
AcDbArc
50
-19.249135899785113
51
60.800346534054434
0
SPLINE
5
209
100
AcDbEntity
8
0
100
AcDbSpline
70
0
71
3
72
8
73
4
74
0
42
0.000000001
43
0.0000000001
44
0.0000000001
40
0
40
0
40
0
40
0
40
1
40
1
40
1
40
1
10
58.37110605228002
20
-25.761672784328997
30
0
10
57.957882079614109
20
-25.430787632043472
30
0
10
57.606466406025838
20
-25.182059160773051
30
0
10
57.326244917490428
20
-24.999105251057543
30
0
0
ARC
5
210
100
AcDbEntity
8
0
100
AcDbCircle
10
-1.4874270971351915e-14
20
-1.3067366340269092e-14
30
0
40
68.361865428620177
210
-0
220
0
230
1
100
AcDbArc
50
310.41482679737413
51
312.18517320262595
0
SPLINE
5
211
100
AcDbEntity
8
0
100
AcDbSpline
70
0
71
3
72
8
73
4
74
0
42
0.000000001
43
0.0000000001
44
0.0000000001
40
0
40
0
40
0
40
0
40
1
40
1
40
1
40
1
10
54.509160094481395
20
-33.16023631109347
30
0
10
54.142660489175192
20
-32.778245375469062
30
0
10
53.826716805641524
20
-32.485775860990572
30
0
10
53.57277292797356
20
-32.267810903458162
30
0
0
ARC
5
212
100
AcDbEntity
8
0
100
AcDbCircle
10
-3.0111512493606113e-12
20
1.5515505642659651e-12
30
0
40
62.207894255932104
210
0
220
0
230
1
100
AcDbArc
50
149.29966312991897
51
150.80033687008103
0
ARC
5
213
100
AcDbEntity
8
0
100
AcDbCircle
10
58.130679193017471
20
23.250216337077077
30
0
40
0.40000000000006641
210
0
220
0
230
1
100
AcDbArc
50
201.79965346590024
51
281.84913589976873
0
ARC
5
214
100
AcDbEntity
8
0
100
AcDbCircle
10
-9.034523155414115e-16
20
-1.3970818655810504e-14
30
0
40
68.361865428620078
210
0
220
-0
230
1
100
AcDbArc
50
17.914826797374069
51
19.685173202625979
0
ARC
5
215
100
AcDbEntity
8
0
100
AcDbCircle
10
-4.8394765625295339e-14
20
3.5185642904467826e-13
30
0
40
68.361865428620106
210
0
220
0
230
1
100
AcDbArc
50
190.41482679737396
51
192.18517320262595
0
ARC
5
216
100
AcDbEntity
8
0
100
AcDbCircle
10
-2.9806344896071129e-13
20
-3.7844159306891607e-14
30
0
40
68.361865428620121
210
-0
220
0
230
1
100
AcDbArc
50
280.41482679737396
51
282.185173202626
0
SPLINE
5
217
100
AcDbEntity
8
0
100
AcDbSpline
70
0
71
3
72
8
73
4
74
0
42
0.000000001
43
0.0000000001
44
0.0000000001
40
0
40
0
40
0
40
0
40
1
40
1
40
1
40
1
10
-25.761672784328997
20
-58.37110605228002
30
0
10
-25.430787632043472
20
-57.957882079614109
30
0
10
-25.182059160773051
20
-57.606466406025838
30
0
10
-24.999105251057543
20
-57.326244917490428
30
0
0
ARC
5
218
100
AcDbEntity
8
0
100
AcDbCircle
10
-3.6849874252378898e-13
20
2.0961492496381037e-12
30
0
40
62.207894255933397
210
0
220
0
230
1
100
AcDbArc
50
96.799663129919011
51
98.300336870080997
0
ARC
5
219
100
AcDbEntity
8
0
100
AcDbCircle
10
3.2473036014385916e-13
20
-9.2147670620800836e-14
30
0
40
68.361865428620106
210
0
220
0
230
1
100
AcDbArc
50
250.41482679737388
51
252.185173202626
0
ARC
5
220
100
AcDbEntity
8
0
100
AcDbCircle
10
43.726046839582835
20
-44.808272126304942
30
0
40
0.39999999999998975
210
0
220
0
230
1
100
AcDbArc
50
134.29965346590814
51
214.34913589978265
0
ARC
5
221
100
AcDbEntity
8
0
100
AcDbCircle
10
1.506413164067292e-13
20
-8.7904458312691401e-14
30
0
40
68.361865428620149
210
0
220
0
230
1
100
AcDbArc
50
235.41482679737396
51
237.18517320262575
0
SPLINE
5
222
100
AcDbEntity
8
0
100
AcDbSpline
70
0
71
3
72
8
73
4
74
0
42
0.000000001
43
0.0000000001
44
0.0000000001
40
0
40
0
40
0
40
0
40
1
40
1
40
1
40
1
10
62.017877704813095
20
-14.987750044760295
30
0
10
63.179410712086039
20
-14.961864254655614
30
0
10
64.799272258512588
20
-14.802482679070629
30
0
10
66.846792056055534
20
-14.312618093669734
30
0
0
ARC
5
223
100
AcDbEntity
8
0
100
AcDbCircle
10
24.764609141926822
20
-57.501848293859098
30
0
40
0.39999999999998914
210
0
220
-0
230
1
100
AcDbArc
50
33.250864100215786
51
113.30034653409086
0
ARC
5
224
100
AcDbEntity
8
0
100
AcDbCircle
10
-43.647775092653021
20
-44.884520189298826
30
0
40
0.39999999999998836
210
-0
220
0
230
1
100
AcDbArc
50
-34.249135899780619
51
45.800346534091837
0
ARC
5
225
100
AcDbEntity
8
0
100
AcDbCircle
10
2.974854194270383e-14
20
2.6134732680538184e-14
30
0
40
68.361865428620106
210
-0
220
0
230
1
100
AcDbArc
50
302.91482679737402
51
304.685173202626
0
SPLINE
5
226
100
AcDbEntity
8
0
100
AcDbSpline
70
0
71
3
72
8
73
4
74
0
42
0.000000001
43
0.0000000001
44
0.0000000001
40
0
40
0
40
0
40
0
40
1
40
1
40
1
40
1
10
37.670024296105645
20
-51.495816101351096
30
0
10
37.477604414466938
20
-51.002649167403916
30
0
10
37.297633749486678
20
-50.611536155845002
30
0
10
37.146431776586432
20
-50.312982678041934
30
0
0
ARC
5
227
100
AcDbEntity
8
0
100
AcDbCircle
10
-1.8673427736358346e-12
20
-2.5638400819376451e-12
30
0
40
62.207894255932288
210
0
220
0
230
1
100
AcDbArc
50
231.799663129919
51
233.30033687008097
0
SPLINE
5
228
100
AcDbEntity
8
0
100
AcDbSpline
70
0
71
3
72
8
73
4
74
0
42
0.000000001
43
0.0000000001
44
0.0000000001
40
0
40
0
40
0
40
0
40
1
40
1
40
1
40
1
10
-58.37110605228002
20
25.761672784328997
30
0
10
-57.957882079614109
20
25.430787632043568
30
0
10
-57.606466406025731
20
25.182059160773047
30
0
10
-57.326244917490428
20
24.999105251057543
30
0
0
SPLINE
5
229
100
AcDbEntity
8
0
100
AcDbSpline
70
0
71
3
72
8
73
4
74
0
42
0.000000001
43
0.0000000001
44
0.0000000001
40
0
40
0
40
0
40
0
40
1
40
1
40
1
40
1
10
-59.490858435434326
20
-23.058351394418374
30
0
10
-58.964693827238392
20
-23.000129056172376
30
0
10
-58.540327832719314
20
-22.927518239072448
30
0
10
-58.212813367737375
20
-22.858739674499198
30
0
0
ARC
5
230
100
AcDbEntity
8
0
100
AcDbCircle
10
-1.0237905580753095e-15
20
3.2538483295711392e-12
30
0
40
62.207894255932203
210
0
220
-0
230
1
100
AcDbArc
50
89.299663129919068
51
90.800336870080841
0
SPLINE
5
231
100
AcDbEntity
8
0
100
AcDbSpline
70
0
71
3
72
8
73
4
74
0
42
0.000000001
43
0.0000000001
44
0.0000000001
40
0
40
0
40
0
40
0
40
1
40
1
40
1
40
1
10
9.8863388033270923
20
-63.032611491823786
30
0
10
10.354753593016286
20
-64.09582200057271
30
0
10
11.121897145101372
20
-65.531386240417675
30
0
10
12.358024913214621
20
-67.235584812843939
30
0
0
ARC
5
232
100
AcDbEntity
8
0
100
AcDbCircle
10
3.1692938240515206e-13
20
5.0653396414148856e-14
30
0
40
68.361865428620106
210
0
220
0
230
1
100
AcDbArc
50
100.4148267973744
51
102.18517320262599
0
ARC
5
233
100
AcDbEntity
8
0
100
AcDbCircle
10
-62.603217308512086
20
0.76524883901273877
30
0
40
0.39999999999999147
210
-0
220
0
230
1
100
AcDbArc
50
-0.70034653409080416
51
79.34913589978305
0
SPLINE
5
234
100
AcDbEntity
8
0
100
AcDbSpline
70
0
71
3
72
8
73
4
74
0
42
0.000000001
43
0.0000000001
44
0.0000000001
40
0
40
0
40
0
40
0
40
1
40
1
40
1
40
1
10
-56.025554611895849
20
30.528462733043717
30
0
10
-57.154209077184568
20
30.804085843645108
30
0
10
-58.760126167090412
20
31.069386082197425
30
0
10
-60.864664703598244
20
31.126150346602902
30
0
0
SPLINE
5
235
100
AcDbEntity
8
0
100
AcDbSpline
70
0
71
3
72
8
73
4
74
0
42
0.000000001
43
0.0000000001
44
0.0000000001
40
0
40
0
40
0
40
0
40
1
40
1
40
1
40
1
10
1.5743530406455541
20
-63.783784921536039
30
0
10
1.8999836576390405
20
-64.899039915871612
30
0
10
2.4731854563755884
20
-66.42245503137768
30
0
10
3.4762954296273021
20
-68.273420999439608
30
0
0
ARC
5
236
100
AcDbEntity
8
0
100
AcDbCircle
10
2.5618474214514516e-14
20
-3.7731866888881273e-14
30
0
40
68.361865428620106
210
0
220
0
230
1
100
AcDbArc
50
212.91482679737402
51
214.68517320262595
0
ARC
5
237
100
AcDbEntity
8
0
100
AcDbCircle
10
-8.032148601201395e-14
20
1.8356595241172003e-13
30
0
40
68.361865428620149
210
0
220
0
230
1
100
AcDbArc
50
205.41482679737425
51
207.18517320262606
0
SPLINE
5
238
100
AcDbEntity
8
0
100
AcDbSpline
70
0
71
3
72
8
73
4
74
0
42
0.000000001
43
0.0000000001
44
0.0000000001
40
0
40
0
40
0
40
0
40
1
40
1
40
1
40
1
10
-14.429265896656069
20
66.821710024245604
30
0
10
-14.915556141568336
20
64.77333837069655
30
0
10
-15.072110284095519
20
63.15320111827468
30
0
10
-15.09596877826835
20
61.991624700913462
30
0
0
SPLINE
5
239
100
AcDbEntity
8
0
100
AcDbSpline
70
0
71
3
72
8
73
4
74
0
42
0.000000001
43
0.0000000001
44
0.0000000001
40
0
40
0
40
0
40
0
40
1
40
1
40
1
40
1
10
63.443600107034797
20
-6.7645703390546128
30
0
10
64.591817264796617
20
-6.5872955248954472
30
0
10
66.177017200967128
20
-6.2178431212053624
30
0
10
68.143080023766402
20
-5.4649144325721544
30
0
0
ARC
5
240
100
AcDbEntity
8
0
100
AcDbCircle
10
-3.0345200239151178e-12
20
-5.7637680770325272e-13
30
0
40
62.207894255932395
210
0
220
0
230
1
100
AcDbArc
50
194.29966312991897
51
195.80033687008094
0
SPLINE
5
241
100
AcDbEntity
8
0
100
AcDbSpline
70
0
71
3
72
8
73
4
74
0
42
0.000000001
43
0.0000000001
44
0.0000000001
40
0
40
0
40
0
40
0
40
1
40
1
40
1
40
1
10
-17.922319893739612
20
-61.234306201996212
30
0
10
-17.648202061487439
20
-60.781428238710042
30
0
10
-17.447470446528829
20
-60.400553394673075
30
0
10
-17.302657976749952
20
-60.098848962631159
30
0
0
SPLINE
5
242
100
AcDbEntity
8
0
100
AcDbSpline
70
0
71
3
72
8
73
4
74
0
42
0.000000001
43
0.0000000001
44
0.0000000001
40
0
40
0
40
0
40
0
40
1
40
1
40
1
40
1
10
-43.317135797886628
20
-45.109637173900964
30
0
10
-43.505530807391175
20
-45.386229899963951
30
0
10
-43.734376159579995
20
-45.750905965597219
30
0
10
-43.988711136740328
20
-46.215182558784484
30
0
0
ARC
5
243
100
AcDbEntity
8
0
100
AcDbCircle
10
-50.132325541470777
20
-37.503311306688516
30
0
40
0.39999999999999308
210
0
220
-0
230
1
100
AcDbArc
50
36.799653465910254
51
116.84913589978291
0
SPLINE
5
244
100
AcDbEntity
8
0
100
AcDbSpline
70
0
71
3
72
8
73
4
74
0
42
0.000000001
43
0.0000000001
44
0.0000000001
40
0
40
0
40
0
40
0
40
1
40
1
40
1
40
1
10
-5.5838381595387396
20
68.133438165770329
30
0
10
-6.3333342761824865
20
66.166064229657465
30
0
10
-6.7000194227503602
20
64.580221892123916
30
0
10
-6.8752899509289236
20
63.431697080434645
30
0
0
SPLINE
5
245
100
AcDbEntity
8
0
100
AcDbSpline
70
0
71
3
72
8
73
4
74
0
42
0.000000001
43
0.0000000001
44
0.0000000001
40
0
40
0
40
0
40
0
40
1
40
1
40
1
40
1
10
-25.099120296617457
20
57.282525957131767
30
0
10
-25.282563006190934
20
57.562427704217242
30
0
10
-25.531904434369714
20
57.913408729712657
30
0
10
-25.863510294209323
20
58.326054569760572
30
0
0
ARC
5
246
100
AcDbEntity
8
0
100
AcDbCircle
10
-32.05824178110683
20
53.777481877329471
30
0
40
0.39999999999999603
210
0
220
0
230
1
100
AcDbArc
50
220.75086410022973
51
300.80034653418699
0
ARC
5
247
100
AcDbEntity
8
0
100
AcDbCircle
10
62.601786347877962
20
0.87451084443742944
30
0
40
0.39999999999999136
210
0
220
0
230
1
100
AcDbArc
50
100.75086410021653
51
180.80034653409081
0
ARC
5
248
100
AcDbEntity
8
0
100
AcDbCircle
10
-1.1118384939351365e-13
20
-1.852111001912155e-13
30
0
40
68.361865428620149
210
0
220
0
230
1
100
AcDbArc
50
145.41482679737393
51
147.18517320262572
0
SPLINE
5
249
100
AcDbEntity
8
0
100
AcDbSpline
70
0
71
3
72
8
73
4
74
0
42
0.000000001
43
0.0000000001
44
0.0000000001
40
0
40
0
40
0
40
0
40
1
40
1
40
1
40
1
10
-38.902464779666623
20
56.213369218963948
30
0
10
-38.567860488661459
20
54.13482535322494
30
0
10
-38.092497972012929
20
52.578103029240054
30
0
10
-37.670024296105645
20
51.495816101351096
30
0
0
SPLINE
5
250
100
AcDbEntity
8
0
100
AcDbSpline
70
0
71
3
72
8
73
4
74
0
42
0.000000001
43
0.0000000001
44
0.0000000001
40
0
40
0
40
0
40
0
40
1
40
1
40
1
40
1
10
33.16023631109347
20
54.509160094481395
30
0
10
32.77824537546897
20
54.142660489175192
30
0
10
32.485775860990572
20
53.826716805641524
30
0
10
32.267810903458162
20
53.57277292797356
30
0
0
SPLINE
5
251
100
AcDbEntity
8
0
100
AcDbSpline
70
0
71
3
72
8
73
4
74
0
42
0.000000001
43
0.0000000001
44
0.0000000001
40
0
40
0
40
0
40
0
40
1
40
1
40
1
40
1
10
-50.654665456985995
20
-45.90696583658741
30
0
10
-48.637578446164426
20
-45.303919715519399
30
0
10
-47.15622135668599
20
-44.629430953804679
30
0
10
-46.13833742372789
20
-44.069304807173857
30
0
0
ARC
5
252
100
AcDbEntity
8
0
100
AcDbCircle
10
-1.055060631840373e-14
20
5.3792980083966901e-14
30
0
40
68.361865428620078
210
0
220
0
230
1
100
AcDbArc
50
197.9148267973741
51
199.68517320262589
0
SPLINE
5
253
100
AcDbEntity
8
0
100
AcDbSpline
70
0
71
3
72
8
73
4
74
0
42
0.000000001
43
0.0000000001
44
0.0000000001
40
0
40
0
40
0
40
0
40
1
40
1
40
1
40
1
10
-45.90696583658741
20
50.654665456985995
30
0
10
-45.303919715519399
20
48.637578446164426
30
0
10
-44.629430953804679
20
47.15622135668599
30
0
10
-44.069304807173857
20
46.138337423727776
30
0
0
ARC
5
254
100
AcDbEntity
8
0
100
AcDbCircle
10
-1.7879351043523273e-12
20
2.5226377192582822e-12
30
0
40
62.207894255932395
210
0
220
0
230
1
100
AcDbArc
50
126.79966312991898
51
128.30033687008103
0
ARC
5
255
100
AcDbEntity
8
0
100
AcDbCircle
10
-1.01798646095292e-12
20
-3.2520855716473009e-12
30
0
40
62.207894255932075
210
0
220
0
230
1
100
AcDbArc
50
254.29966312991931
51
255.80033687008103
0
ARC
5
256
100
AcDbEntity
8
0
100
AcDbCircle
10
-17.047247174281765
20
60.242342143556584
30
0
40
0.39999999999999247
210
0
220
0
230
1
100
AcDbArc
50
205.75086410021765
51
285.80034653408933
0
ARC
5
257
100
AcDbEntity
8
0
100
AcDbCircle
10
-15.463731306994625
20
60.668125380857703
30
0
40
0.39999999999998659
210
-0
220
0
230
1
100
AcDbArc
50
-75.700346534090968
51
4.3491358997820475
0
SPLINE
5
258
100
AcDbEntity
8
0
100
AcDbSpline
70
0
71
3
72
8
73
4
74
0
42
0.000000001
43
0.0000000001
44
0.0000000001
40
0
40
0
40
0
40
0
40
1
40
1
40
1
40
1
10
-62.527170806794395
20
-1.2674898782659449
30
0
10
-62.855966787782734
20
-1.3298550817296229
30
0
10
-63.275649807104138
20
-1.4259019002995443
30
0
10
-63.783784921536039
20
-1.5743530406455053
30
0
0
ARC
5
259
100
AcDbEntity
8
0
100
AcDbCircle
10
1.0664071015180184e-12
20
-3.5355465466026408e-13
30
0
40
62.207894255934406
210
-0
220
0
230
1
100
AcDbArc
50
329.29966312991894
51
330.80033687008068
0
ARC
5
260
100
AcDbEntity
8
0
100
AcDbCircle
10
58.171169917038732
20
-23.148723801656988
30
0
40
0.39999999999994817
210
0
220
-0
230
1
100
AcDbArc
50
78.250864100211032
51
158.30034653408896
0
SPLINE
5
261
100
AcDbEntity
8
0
100
AcDbSpline
70
0
71
3
72
8
73
4
74
0
42
0.000000001
43
0.0000000001
44
0.0000000001
40
0
40
0
40
0
40
0
40
1
40
1
40
1
40
1
10
-20.914744187658187
20
-65.083931353641972
30
0
10
-19.469418655177041
20
-63.553134587732657
30
0
10
-18.52377016446998
20
-62.228331640781406
30
0
10
-17.922319893739612
20
-61.234306201996212
30
0
0
ARC
5
262
100
AcDbEntity
8
0
100
AcDbCircle
10
38.717536751858084
20
49.200617587901505
30
0
40
0.40000000000007813
210
0
220
0
230
1
100
AcDbArc
50
231.79965346590348
51
311.8491358997689
0
ARC
5
263
100
AcDbEntity
8
0
100
AcDbCircle
10
8.792313958988074e-15
20
2.7489911153850301e-14
30
0
40
68.361865428620177
210
-0
220
0
230
1
100
AcDbArc
50
332.91482679737413
51
334.685173202626
0
SPLINE
5
264
100
AcDbEntity
8
0
100
AcDbSpline
70
0
71
3
72
8
73
4
74
0
42
0.000000001
43
0.0000000001
44
0.0000000001
40
0
40
0
40
0
40
0
40
1
40
1
40
1
40
1
10
67.257051218645671
20
-12.24065791749943
30
0
10
65.550697793004019
20
-11.00750641822553
30
0
10
64.113796822245746
20
-10.242869565555496
30
0
10
63.049770395239037
20
-9.7763111407624876
30
0
0
SPLINE
5
265
100
AcDbEntity
8
0
100
AcDbSpline
70
0
71
3
72
8
73
4
74
0
42
0.000000001
43
0.0000000001
44
0.0000000001
40
0
40
0
40
0
40
0
40
1
40
1
40
1
40
1
10
-56.213369218963948
20
-38.902464779666623
30
0
10
-54.13482535322494
20
-38.567860488661459
30
0
10
-52.578103029240054
20
-38.092497972012929
30
0
10
-51.495816101351096
20
-37.670024296105645
30
0
0
ARC
5
266
100
AcDbEntity
8
0
100
AcDbCircle
10
-57.501848293859098
20
-24.764609141926822
30
0
40
0.39999999999998914
210
-0
220
0
230
1
100
AcDbArc
50
-56.749135899784207
51
23.300346534035672
0
SPLINE
5
267
100
AcDbEntity
8
0
100
AcDbSpline
70
0
71
3
72
8
73
4
74
0
42
0.000000001
43
0.0000000001
44
0.0000000001
40
0
40
0
40
0
40
0
40
1
40
1
40
1
40
1
10
20.91474418765829
20
65.083931353641958
30
0
10
19.469418655177041
20
63.553134587732657
30
0
10
18.52377016446998
20
62.228331640781406
30
0
10
17.922319893739612
20
61.234306201996212
30
0
0
SPLINE
5
268
100
AcDbEntity
8
0
100
AcDbSpline
70
0
71
3
72
8
73
4
74
0
42
0.000000001
43
0.0000000001
44
0.0000000001
40
0
40
0
40
0
40
0
40
1
40
1
40
1
40
1
10
-68.279384290120845
20
3.3571305966206486
30
0
10
-66.426670384950185
20
2.3572526946007839
30
0
10
-64.902257164378653
20
1.786710628514413
30
0
10
-63.786435536320589
20
1.4630269936614204
30
0
0
SPLINE
5
269
100
AcDbEntity
8
0
100
AcDbSpline
70
0
71
3
72
8
73
4
74
0
42
0.000000001
43
0.0000000001
44
0.0000000001
40
0
40
0
40
0
40
0
40
1
40
1
40
1
40
1
10
-37.058562523508925
20
-50.377738768078146
30
0
10
-37.20924319226188
20
-50.676555688250566
30
0
10
-37.388530962497853
20
-51.067982212017043
30
0
10
-37.580089812825477
20
-51.561484230705929
30
0
0
SPLINE
5
270
100
AcDbEntity
8
0
100
AcDbSpline
70
0
71
3
72
8
73
4
74
0
42
0.000000001
43
0.0000000001
44
0.0000000001
40
0
40
0
40
0
40
0
40
1
40
1
40
1
40
1
10
-40.07812630001294
20
49.644673417130825
30
0
10
-41.015390661766688
20
50.331233332433428
30
0
10
-42.397538586144279
20
51.190896656861078
30
0
10
-44.320155921866807
20
52.048712029618834
30
0
0
SPLINE
5
271
100
AcDbEntity
8
0
100
AcDbSpline
70
0
71
3
72
8
73
4
74
0
42
0.000000001
43
0.0000000001
44
0.0000000001
40
0
40
0
40
0
40
0
40
1
40
1
40
1
40
1
10
61.826801565151264
20
9.4180798423537553
30
0
10
62.144644358407447
20
9.5228279902720097
30
0
10
62.548200305816621
20
9.6728327414459176
30
0
10
63.032611491823786
20
9.8863388033270923
30
0
0
SPLINE
5
272
100
AcDbEntity
8
0
100
AcDbSpline
70
0
71
3
72
8
73
4
74
0
42
0.000000001
43
0.0000000001
44
0.0000000001
40
0
40
0
40
0
40
0
40
1
40
1
40
1
40
1
10
-37.670024296105645
20
51.495816101351096
30
0
10
-37.477604414466938
20
51.002649167403916
30
0
10
-37.297633749486678
20
50.611536155845002
30
0
10
-37.146431776586432
20
50.312982678041934
30
0
0
SPLINE
5
273
100
AcDbEntity
8
0
100
AcDbSpline
70
0
71
3
72
8
73
4
74
0
42
0.000000001
43
0.0000000001
44
0.0000000001
40
0
40
0
40
0
40
0
40
1
40
1
40
1
40
1
10
-30.165906969779247
20
-54.783863284585706
30
0
10
-30.276295109761669
20
-55.099791558515662
30
0
10
-30.402957634588148
20
-55.511271124069864
30
0
10
-30.528462733043717
20
-56.025554611895849
30
0
0
SPLINE
5
274
100
AcDbEntity
8
0
100
AcDbSpline
70
0
71
3
72
8
73
4
74
0
42
0.000000001
43
0.0000000001
44
0.0000000001
40
0
40
0
40
0
40
0
40
1
40
1
40
1
40
1
10
39.99141900082067
20
49.714547294671846
30
0
10
39.564858252673702
20
49.401042966585116
30
0
10
39.233651929467889
20
49.12597715712748
30
0
10
38.984405364973242
20
48.902655940480244
30
0
0
ARC
5
275
100
AcDbEntity
8
0
100
AcDbCircle
10
24.664211816360879
20
57.544983088363807
30
0
40
0.39999999999999025
210
0
220
0
230
1
100
AcDbArc
50
246.79965346590896
51
326.84913589979078
0
ARC
5
276
100
AcDbEntity
8
0
100
AcDbCircle
10
7.3041435152285539
20
62.180365958004309
30
0
40
0.40000000000000063
210
0
220
0
230
1
100
AcDbArc
50
183.25086410022354
51
263.30034653409109
0
SPLINE
5
277
100
AcDbEntity
8
0
100
AcDbSpline
70
0
71
3
72
8
73
4
74
0
42
0.000000001
43
0.0000000001
44
0.0000000001
40
0
40
0
40
0
40
0
40
1
40
1
40
1
40
1
10
63.783784921536039
20
1.5743530406455253
30
0
10
64.899039915871612
20
1.8999836576390006
30
0
10
66.42245503137768
20
2.4731854563755484
30
0
10
68.273420999439608
20
3.4762954296272621
30
0
0
ARC
5
278
100
AcDbEntity
8
0
100
AcDbCircle
10
5.0008073331619283e-14
20
-3.2690853858787375e-13
30
0
40
68.361865428620121
210
0
220
-0
230
1
100
AcDbArc
50
10.414826797374408
51
12.185173202626224
0
SPLINE
5
279
100
AcDbEntity
8
0
100
AcDbSpline
70
0
71
3
72
8
73
4
74
0
42
0.000000001
43
0.0000000001
44
0.0000000001
40
0
40
0
40
0
40
0
40
1
40
1
40
1
40
1
10
-15.09596877826835
20
61.991624700913462
30
0
10
-15.10692280298602
20
61.462361963767542
30
0
10
-15.09032405886439
20
61.03214886568967
30
0
10
-15.064883120456694
20
60.698458928217676
30
0
0
SPLINE
5
280
100
AcDbEntity
8
0
100
AcDbSpline
70
0
71
3
72
8
73
4
74
0
42
0.000000001
43
0.0000000001
44
0.0000000001
40
0
40
0
40
0
40
0
40
1
40
1
40
1
40
1
10
-60.068558607100698
20
-17.407523849153794
30
0
10
-60.370009834309329
20
-17.552862671674035
30
0
10
-60.750533755659362
20
-17.754258732570133
30
0
10
-61.202932603544895
20
-18.029166568072764
30
0
0
SPLINE
5
281
100
AcDbEntity
8
0
100
AcDbSpline
70
0
71
3
72
8
73
4
74
0
42
0.000000001
43
0.0000000001
44
0.0000000001
40
0
40
0
40
0
40
0
40
1
40
1
40
1
40
1
10
-30.528462733043717
20
-56.025554611895849
30
0
10
-30.804085843645108
20
-57.154209077184568
30
0
10
-31.069386082197425
20
-58.760126167090412
30
0
10
-31.126150346602806
20
-60.864664703598351
30
0
0
SPLINE
5
282
100
AcDbEntity
8
0
100
AcDbSpline
70
0
71
3
72
8
73
4
74
0
42
0.000000001
43
0.0000000001
44
0.0000000001
40
0
40
0
40
0
40
0
40
1
40
1
40
1
40
1
10
-14.987750044760295
20
-62.017877704813095
30
0
10
-14.961864254655614
20
-63.179410712086039
30
0
10
-14.802482679070629
20
-64.799272258512588
30
0
10
-14.312618093669725
20
-66.846792056055534
30
0
0
ARC
5
283
100
AcDbEntity
8
0
100
AcDbCircle
10
1.9327000240806016e-14
20
8.1923544001049449e-14
30
0
40
68.361865428620135
210
-0
220
0
230
1
100
AcDbArc
50
347.91482679737402
51
349.68517320262583
0
ARC
5
284
100
AcDbEntity
8
0
100
AcDbCircle
10
-9.0382020810949335
20
61.95207281684521
30
0
40
0.39999999999998986
210
0
220
0
230
1
100
AcDbArc
50
198.25086410021561
51
278.30034653406176
0
SPLINE
5
285
100
AcDbEntity
8
0
100
AcDbSpline
70
0
71
3
72
8
73
4
74
0
42
0.000000001
43
0.0000000001
44
0.0000000001
40
0
40
0
40
0
40
0
40
1
40
1
40
1
40
1
10
-1.5743530406455053
20
63.783784921536039
30
0
10
-1.8999836576389917
20
64.899039915871612
30
0
10
-2.4731854563755395
20
66.42245503137768
30
0
10
-3.4762954296272417
20
68.273420999439608
30
0
0
ARC
5
286
100
AcDbEntity
8
0
100
AcDbCircle
10
-23.148723801656988
20
-58.171169917038732
30
0
40
0.39999999999999031
210
-0
220
0
230
1
100
AcDbArc
50
-11.74913589978253
51
68.300346534089542
0
SPLINE
5
287
100
AcDbEntity
8
0
100
AcDbSpline
70
0
71
3
72
8
73
4
74
0
42
0.000000001
43
0.0000000001
44
0.0000000001
40
0
40
0
40
0
40
0
40
1
40
1
40
1
40
1
10
57.282525957131767
20
25.099120296617457
30
0
10
57.562427704217242
20
25.282563006190934
30
0
10
57.913408729712657
20
25.531904434369714
30
0
10
58.326054569760579
20
25.863510294209423
30
0
0
SPLINE
5
288
100
AcDbEntity
8
0
100
AcDbSpline
70
0
71
3
72
8
73
4
74
0
42
0.000000001
43
0.0000000001
44
0.0000000001
40
0
40
0
40
0
40
0
40
1
40
1
40
1
40
1
10
-30.626199225227104
20
55.972187088142775
30
0
10
-30.499796724367219
20
55.458123431223626
30
0
10
-30.37241622550102
20
55.046865560085848
30
0
10
-30.261476855071191
20
54.731130430894062
30
0
0
ARC
5
289
100
AcDbEntity
8
0
100
AcDbCircle
10
3.1850887290466574e-12
20
-1.2792074843823996e-12
30
0
40
62.207894255932068
210
-0
220
0
230
1
100
AcDbArc
50
344.29966312991957
51
345.80033687008125
0
ARC
5
290
100
AcDbEntity
8
0
100
AcDbCircle
10
1.0568459223412018e-13
20
7.1949262892499166e-15
30
0
40
68.361865428620121
210
0
220
0
230
1
100
AcDbArc
50
92.914826797374204
51
94.685173202625933
0
SPLINE
5
291
100
AcDbEntity
8
0
100
AcDbSpline
70
0
71
3
72
8
73
4
74
0
42
0.000000001
43
0.0000000001
44
0.0000000001
40
0
40
0
40
0
40
0
40
1
40
1
40
1
40
1
10
33.255322188492329
20
-54.45120157125033
30
0
10
34.094954072226408
20
-55.254225419545556
30
0
10
35.353068949180248
20
-56.286940710714845
30
0
10
37.14727065283671
20
-57.388369273971023
30
0
0
SPLINE
5
292
100
AcDbEntity
8
0
100
AcDbSpline
70
0
71
3
72
8
73
4
74
0
42
0.000000001
43
0.0000000001
44
0.0000000001
40
0
40
0
40
0
40
0
40
1
40
1
40
1
40
1
10
37.580089812825371
20
51.561484230705936
30
0
10
38.000673899193337
20
52.644506865468458
30
0
10
38.473318700193786
20
54.202056482114642
30
0
10
38.804294739998902
20
56.281181176411565
30
0
0
ARC
5
293
100
AcDbEntity
8
0
100
AcDbCircle
10
8.7911037710682528e-14
20
-1.9714194090323767e-14
30
0
40
68.361865428620121
210
0
220
0
230
1
100
AcDbArc
50
257.91482679737402
51
259.68517320262589
0
ARC
5
294
100
AcDbEntity
8
0
100
AcDbCircle
10
60.668125380857695
20
15.463731306994521
30
0
40
0.39999999999998659
210
0
220
0
230
1
100
AcDbArc
50
194.29965346590876
51
274.34913589978305
0
ARC
5
295
100
AcDbEntity
8
0
100
AcDbCircle
10
-44.884520189298826
20
43.647775092653021
30
0
40
0.40000000000001862
210
0
220
0
230
1
100
AcDbArc
50
235.75086410021433
51
315.80034653406744
0
ARC
5
296
100
AcDbEntity
8
0
100
AcDbCircle
10
2.9032498544564393e-12
20
-2.4486380418238078e-13
30
0
40
62.207894255932587
210
-0
220
0
230
1
100
AcDbArc
50
-0.70033687008069367
51
0.80033687008115351
0
SPLINE
5
297
100
AcDbEntity
8
0
100
AcDbSpline
70
0
71
3
72
8
73
4
74
0
42
0.000000001
43
0.0000000001
44
0.0000000001
40
0
40
0
40
0
40
0
40
1
40
1
40
1
40
1
10
-6.8752899509289236
20
63.431697080434645
30
0
10
-6.955232912210211
20
62.908392046510414
30
0
10
-6.9949302501808273
20
62.479692910259729
30
0
10
-7.0132622394483857
20
62.145537027644053
30
0
0
ARC
5
298
100
AcDbEntity
8
0
100
AcDbCircle
10
57.544983088363807
20
-24.664211816360879
30
0
40
0.39999999999999325
210
0
220
0
230
1
100
AcDbArc
50
156.79965346590842
51
236.8491358997814
0
ARC
5
299
100
AcDbEntity
8
0
100
AcDbCircle
10
60.242342143556584
20
17.047247174281765
30
0
40
0.39999999999994545
210
0
220
0
230
1
100
AcDbArc
50
115.7508641002087
51
195.80034653409083
0
ARC
5
300
100
AcDbEntity
8
0
100
AcDbCircle
10
-30.638883719454416
20
54.598600967315527
30
0
40
0.39999999999998953
210
-0
220
0
230
1
100
AcDbArc
50
-60.700346534090635
51
19.349135899783906
0
SPLINE
5
301
100
AcDbEntity
8
0
100
AcDbSpline
70
0
71
3
72
8
73
4
74
0
42
0.000000001
43
0.0000000001
44
0.0000000001
40
0
40
0
40
0
40
0
40
1
40
1
40
1
40
1
10
68.133438165770329
20
5.5838381595387485
30
0
10
66.166064229657465
20
6.3333342761824865
30
0
10
64.580221892123916
20
6.7000194227503602
30
0
10
63.431697080434645
20
6.8752899509289236
30
0
0
SPLINE
5
302
100
AcDbEntity
8
0
100
AcDbSpline
70
0
71
3
72
8
73
4
74
0
42
0.000000001
43
0.0000000001
44
0.0000000001
40
0
40
0
40
0
40
0
40
1
40
1
40
1
40
1
10
-63.783784921536039
20
-1.5743530406455053
30
0
10
-64.899039915871612
20
-1.8999836576389917
30
0
10
-66.422455031377694
20
-2.4731854563755284
30
0
10
-68.273420999439608
20
-3.4762954296272417
30
0
0
ARC
5
303
100
AcDbEntity
8
0
100
AcDbCircle
10
-2.0867557593038305e-12
20
6.6003893901215752e-13
30
0
40
62.207894255933319
210
0
220
0
230
1
100
AcDbArc
50
164.2996631299192
51
165.80033687008097
0
SPLINE
5
304
100
AcDbEntity
8
0
100
AcDbSpline
70
0
71
3
72
8
73
4
74
0
42
0.000000001
43
0.0000000001
44
0.0000000001
40
0
40
0
40
0
40
0
40
1
40
1
40
1
40
1
10
-9.7763111407624876
20
-63.049770395239037
30
0
10
-9.5636508606532526
20
-62.564987308846185
30
0
10
-9.414350675591848
20
-62.161170168540352
30
0
10
-9.3101574272570637
20
-61.84314503947256
30
0
0
SPLINE
5
305
100
AcDbEntity
8
0
100
AcDbSpline
70
0
71
3
72
8
73
4
74
0
42
0.000000001
43
0.0000000001
44
0.0000000001
40
0
40
0
40
0
40
0
40
1
40
1
40
1
40
1
10
65.083931353641958
20
-20.91474418765829
30
0
10
63.553134587732657
20
-19.469418655177041
30
0
10
62.228331640781406
20
-18.52377016446998
30
0
10
61.234306201996212
20
-17.922319893739612
30
0
0
ARC
5
306
100
AcDbEntity
8
0
100
AcDbCircle
10
-50.197704778630616
20
37.415756816077405
30
0
40
0.39999999999998931
210
0
220
0
230
1
100
AcDbArc
50
243.25086410021655
51
323.30034653409217
0
SPLINE
5
307
100
AcDbEntity
8
0
100
AcDbSpline
70
0
71
3
72
8
73
4
74
0
42
0.000000001
43
0.0000000001
44
0.0000000001
40
0
40
0
40
0
40
0
40
1
40
1
40
1
40
1
10
6.9047871890535362
20
62.15768282012629
30
0
10
6.8858720159666049
20
62.491806198452721
30
0
10
6.8454265176955946
20
62.920435396867582
30
0
10
6.7645703390546128
20
63.443600107034797
30
0
0
ARC
5
308
100
AcDbEntity
8
0
100
AcDbCircle
10
1.3551784733121175e-15
20
2.0956227983715759e-14
30
0
40
68.361865428620192
210
0
220
0
230
1
100
AcDbArc
50
220.41482679737408
51
222.18517320262595
0
ARC
5
309
100
AcDbEntity
8
0
100
AcDbCircle
10
-7.3041435152285636
20
-62.180365958004309
30
0
40
0.39999999999998986
210
0
220
-0
230
1
100
AcDbArc
50
3.250864100216472
51
83.300346534091389
0
SPLINE
5
310
100
AcDbEntity
8
0
100
AcDbSpline
70
0
71
3
72
8
73
4
74
0
42
0.000000001
43
0.0000000001
44
0.0000000001
40
0
40
0
40
0
40
0
40
1
40
1
40
1
40
1
10
-17.407523849153794
20
60.068558607100698
30
0
10
-17.552862671674141
20
60.370009834309222
30
0
10
-17.754258732570232
20
60.750533755659362
30
0
10
-18.029166568072771
20
61.202932603544788
30
0
0
SPLINE
5
311
100
AcDbEntity
8
0
100
AcDbSpline
70
0
71
3
72
8
73
4
74
0
42
0.000000001
43
0.0000000001
44
0.0000000001
40
0
40
0
40
0
40
0
40
1
40
1
40
1
40
1
10
-18.029166568072771
20
61.202932603544788
30
0
10
-18.632350823536925
20
62.19590680012498
30
0
10
-19.580310090101939
20
63.519057262151406
30
0
10
-21.028305164244941
20
65.047329128874708
30
0
0
ARC
5
312
100
AcDbEntity
8
0
100
AcDbCircle
10
16.942078541274871
20
60.272003433299574
30
0
40
0.39999999999999486
210
0
220
0
230
1
100
AcDbArc
50
254.29965346589475
51
334.34913589976986
0
SPLINE
5
313
100
AcDbEntity
8
0
100
AcDbSpline
70
0
71
3
72
8
73
4
74
0
42
0.000000001
43
0.0000000001
44
0.0000000001
40
0
40
0
40
0
40
0
40
1
40
1
40
1
40
1
10
-39.99141900082067
20
-49.714547294671846
30
0
10
-39.564858252673702
20
-49.401042966585116
30
0
10
-39.233651929467889
20
-49.125977157127387
30
0
10
-38.984405364973242
20
-48.902655940480244
30
0
0
SPLINE
5
314
100
AcDbEntity
8
0
100
AcDbSpline
70
0
71
3
72
8
73
4
74
0
42
0.000000001
43
0.0000000001
44
0.0000000001
40
0
40
0
40
0
40
0
40
1
40
1
40
1
40
1
10
-37.047052525555905
20
-57.453116051694423
30
0
10
-35.254775909138743
20
-56.34855769488189
30
0
10
-33.998465375694536
20
-55.313648153045271
30
0
10
-33.16023631109347
20
-54.509160094481395
30
0
0
ARC
5
315
100
AcDbEntity
8
0
100
AcDbCircle
10
-62.601786347877962
20
-0.87451084443741944
30
0
40
0.39999999999999136
210
-0
220
0
230
1
100
AcDbArc
50
-79.249135899783468
51
0.80034653407170953
0
ARC
5
316
100
AcDbEntity
8
0
100
AcDbCircle
10
-3.7731866888881273e-14
20
-2.5618474214514516e-14
30
0
40
68.361865428620106
210
0
220
0
230
1
100
AcDbArc
50
122.914826797374
51
124.68517320262586
0
ARC
5
317
100
AcDbEntity
8
0
100
AcDbCircle
10
-49.200617587901505
20
38.717536751857971
30
0
40
0.39999999999999147
210
-0
220
0
230
1
100
AcDbArc
50
-38.200346534092546
51
41.849135899783285
0
ARC
5
318
100
AcDbEntity
8
0
100
AcDbCircle
10
6.9854093279052518e-15
20
-4.5172615777070575e-16
30
0
40
68.361865428620106
210
0
220
0
230
1
100
AcDbArc
50
130.41482679737402
51
132.18517320262592
0
ARC
5
319
100
AcDbEntity
8
0
100
AcDbCircle
10
-1.2648280293592784e-12
20
-2.8232624844578515e-12
30
0
40
62.207894255932352
210
0
220
0
230
1
100
AcDbArc
50
246.79966312991925
51
248.30033687008094
0
ARC
5
320
100
AcDbEntity
8
0
100
AcDbCircle
10
1.2472659008758793e-12
20
2.4897005387219329e-12
30
0
40
62.207894255932672
210
0
220
-0
230
1
100
AcDbArc
50
59.299663129919033
51
60.800336870080748
0
SPLINE
5
321
100
AcDbEntity
8
0
100
AcDbSpline
70
0
71
3
72
8
73
4
74
0
42
0.000000001
43
0.0000000001
44
0.0000000001
40
0
40
0
40
0
40
0
40
1
40
1
40
1
40
1
10
-29.230973386103621
20
-61.797207378502669
30
0
10
-27.598203740995906
20
-60.46815962940741
30
0
10
-26.487723920110984
20
-59.278122451990399
30
0
10
-25.761672784328997
20
-58.37110605228002
30
0
0
SPLINE
5
322
100
AcDbEntity
8
0
100
AcDbSpline
70
0
71
3
72
8
73
4
74
0
42
0.000000001
43
0.0000000001
44
0.0000000001
40
0
40
0
40
0
40
0
40
1
40
1
40
1
40
1
10
12.24065791749943
20
67.257051218645671
30
0
10
11.00750641822553
20
65.550697793004019
30
0
10
10.242869565555496
20
64.113796822245746
30
0
10
9.7763111407624983
20
63.049770395239037
30
0
0
ARC
5
323
100
AcDbEntity
8
0
100
AcDbCircle
10
-1.4330492702222739e-12
20
1.9515457435364948e-12
30
0
40
62.207894255933084
210
0
220
0
230
1
100
AcDbArc
50
119.29966312991887
51
120.80033687008002
0
SPLINE
5
324
100
AcDbEntity
8
0
100
AcDbSpline
70
0
71
3
72
8
73
4
74
0
42
0.000000001
43
0.0000000001
44
0.0000000001
40
0
40
0
40
0
40
0
40
1
40
1
40
1
40
1
10
-39.069697180924088
20
48.834540868983666
30
0
10
-39.319333134648737
20
49.057426728394191
30
0
10
-39.651019033558327
20
49.331914055111895
30
0
10
-40.07812630001294
20
49.644673417130825
30
0
0
ARC
5
325
100
AcDbEntity
8
0
100
AcDbCircle
10
-1.7169200769317573e-13
20
1.0329498775006698e-13
30
0
40
68.361865428620106
210
0
220
-0
230
1
100
AcDbArc
50
55.414826797373884
51
57.185173202625741
0
SPLINE
5
326
100
AcDbEntity
8
0
100
AcDbSpline
70
0
71
3
72
8
73
4
74
0
42
0.000000001
43
0.0000000001
44
0.0000000001
40
0
40
0
40
0
40
0
40
1
40
1
40
1
40
1
10
-32.361263837015152
20
53.516373406319659
30
0
10
-32.579671678021043
20
53.769936476786022
30
0
10
-32.872692172515997
20
54.085369223770279
30
0
10
-33.255322188492329
20
54.45120157125033
30
0
0
ARC
5
327
100
AcDbEntity
8
0
100
AcDbCircle
10
-37.415756816077497
20
-50.197704778630516
30
0
40
0.39999999999998931
210
-0
220
0
230
1
100
AcDbArc
50
-26.749135899783887
51
53.300346534045346
0
ARC
5
328
100
AcDbEntity
8
0
100
AcDbCircle
10
-44.808272126304942
20
-43.726046839582835
30
0
40
0.39999999999998975
210
0
220
-0
230
1
100
AcDbArc
50
44.299653465908129
51
124.3491358997985
0
SPLINE
5
329
100
AcDbEntity
8
0
100
AcDbSpline
70
0
71
3
72
8
73
4
74
0
42
0.000000001
43
0.0000000001
44
0.0000000001
40
0
40
0
40
0
40
0
40
1
40
1
40
1
40
1
10
-46.13833742372789
20
-44.069304807173857
30
0
10
-45.674505435724022
20
-43.814159902280082
30
0
10
-45.310229335808778
20
-43.584678419160817
30
0
10
-45.033965842174567
20
-43.39580095146772
30
0
0
SPLINE
5
330
100
AcDbEntity
8
0
100
AcDbSpline
70
0
71
3
72
8
73
4
74
0
42
0.000000001
43
0.0000000001
44
0.0000000001
40
0
40
0
40
0
40
0
40
1
40
1
40
1
40
1
10
-63.786435536320589
20
1.4630269936614204
30
0
10
-63.278042099836284
20
1.3154629420483477
30
0
10
-62.858192086491577
20
1.2201487544443661
30
0
10
-62.529287758529357
20
1.1583575029205089
30
0
0
ARC
5
331
100
AcDbEntity
8
0
100
AcDbCircle
10
2.8100015211928237e-12
20
-1.252947505242743e-12
30
0
40
62.207894255932359
210
-0
220
0
230
1
100
AcDbArc
50
336.79966312991922
51
338.30033687008103
0
SPLINE
5
332
100
AcDbEntity
8
0
100
AcDbSpline
70
0
71
3
72
8
73
4
74
0
42
0.000000001
43
0.0000000001
44
0.0000000001
40
0
40
0
40
0
40
0
40
1
40
1
40
1
40
1
10
-51.561484230705936
20
37.580089812825371
30
0
10
-52.644506865468458
20
38.000673899193337
30
0
10
-54.202056482114642
20
38.473318700193786
30
0
10
-56.281181176411565
20
38.804294739998902
30
0
0
SPLINE
5
333
100
AcDbEntity
8
0
100
AcDbSpline
70
0
71
3
72
8
73
4
74
0
42
0.000000001
43
0.0000000001
44
0.0000000001
40
0
40
0
40
0
40
0
40
1
40
1
40
1
40
1
10
-60.810246648315101
20
-31.232331764564929
30
0
10
-58.705810389482707
20
-31.171894475811545
30
0
10
-57.100358781559706
20
-30.90379178868421
30
0
10
-55.972187088142775
20
-30.626199225227104
30
0
0
ARC
5
334
100
AcDbEntity
8
0
100
AcDbCircle
10
37.415756816077504
20
50.197704778630609
30
0
40
0.39999999999998648
210
0
220
0
230
1
100
AcDbArc
50
153.2508641002193
51
233.30034653411573
0
ARC
5
335
100
AcDbEntity
8
0
100
AcDbCircle
10
-58.171169917038725
20
23.148723801657091
30
0
40
0.40000000000004926
210
0
220
0
230
1
100
AcDbArc
50
258.25086410021305
51
338.3003465340737
0
SPLINE
5
336
100
AcDbEntity
8
0
100
AcDbSpline
70
0
71
3
72
8
73
4
74
0
42
0.000000001
43
0.0000000001
44
0.0000000001
40
0
40
0
40
0
40
0
40
1
40
1
40
1
40
1
10
64.366643897727954
20
23.027804893733265
30
0
10
62.272322733650839
20
23.242568705998469
30
0
10
60.645611563916532
20
23.186313159701303
30
0
10
59.490858435434326
20
23.058351394418374
30
0
0
SPLINE
5
337
100
AcDbEntity
8
0
100
AcDbSpline
70
0
71
3
72
8
73
4
74
0
42
0.000000001
43
0.0000000001
44
0.0000000001
40
0
40
0
40
0
40
0
40
1
40
1
40
1
40
1
10
-12.240657917499417
20
-67.257051218645671
30
0
10
-11.007506418225521
20
-65.550697793004019
30
0
10
-10.242869565555496
20
-64.113796822245746
30
0
10
-9.7763111407624876
20
-63.049770395239037
30
0
0
SPLINE
5
338
100
AcDbEntity
8
0
100
AcDbSpline
70
0
71
3
72
8
73
4
74
0
42
0.000000001
43
0.0000000001
44
0.0000000001
40
0
40
0
40
0
40
0
40
1
40
1
40
1
40
1
10
63.431697080434645
20
6.8752899509289236
30
0
10
62.908392046510414
20
6.955232912210211
30
0
10
62.479692910259729
20
6.9949302501808273
30
0
10
62.145537027644053
20
7.0132622394483857
30
0
0
ARC
5
339
100
AcDbEntity
8
0
100
AcDbCircle
10
60.695022266934792
20
-15.357821954257766
30
0
40
0.39999999999999036
210
0
220
-0
230
1
100
AcDbArc
50
85.750864100218195
51
165.8003465340916
0
ARC
5
340
100
AcDbEntity
8
0
100
AcDbCircle
10
-23.250216337077077
20
58.130679193017471
30
0
40
0.40000000000001812
210
-0
220
0
230
1
100
AcDbArc
50
-68.200346534049615
51
11.849135899768703
0
ARC
5
341
100
AcDbEntity
8
0
100
AcDbCircle
10
23.148723801656988
20
58.171169917038732
30
0
40
0.39999999999999031
210
0
220
0
230
1
100
AcDbArc
50
168.25086410021748
51
248.30034653409137
0
ARC
5
342
100
AcDbEntity
8
0
100
AcDbCircle
10
-1.139827858214102e-12
20
3.1851948847188383e-12
30
0
40
62.207894255932096
210
0
220
0
230
1
100
AcDbArc
50
111.799663129919
51
113.30033687008098
0
SPLINE
5
343
100
AcDbEntity
8
0
100
AcDbSpline
70
0
71
3
72
8
73
4
74
0
42
0.000000001
43
0.0000000001
44
0.0000000001
40
0
40
0
40
0
40
0
40
1
40
1
40
1
40
1
10
-9.8863388033270923
20
63.032611491823786
30
0
10
-10.354753593016286
20
64.09582200057271
30
0
10
-11.121897145101372
20
65.531386240417675
30
0
10
-12.358024913214621
20
67.235584812843939
30
0
0
SPLINE
5
344
100
AcDbEntity
8
0
100
AcDbSpline
70
0
71
3
72
8
73
4
74
0
42
0.000000001
43
0.0000000001
44
0.0000000001
40
0
40
0
40
0
40
0
40
1
40
1
40
1
40
1
10
-63.431697080434645
20
-6.8752899509289236
30
0
10
-62.908392046510414
20
-6.955232912210211
30
0
10
-62.479692910259729
20
-6.9949302501808273
30
0
10
-62.145537027644053
20
-7.0132622394483857
30
0
0
ARC
5
345
100
AcDbEntity
8
0
100
AcDbCircle
10
2.008143339114942e-12
20
2.5407056755099152e-12
30
0
40
62.207894255932203
210
0
220
-0
230
1
100
AcDbArc
50
51.79966312991921
51
53.300336870080713
0
ARC
5
346
100
AcDbEntity
8
0
100
AcDbCircle
10
8.9300616051159629
20
61.967753088935154
30
0
40
0.39999999999999114
210
0
220
0
230
1
100
AcDbArc
50
261.79965346590893
51
341.84913589978464
0
ARC
5
347
100
AcDbEntity
8
0
100
AcDbCircle
10
1.2624823668275951e-12
20
3.0659196456282734e-12
30
0
40
62.20789425593221
210
0
220
-0
230
1
100
AcDbArc
50
74.299663129919608
51
75.800336870081082
0
ARC
5
348
100
AcDbEntity
8
0
100
AcDbCircle
10
-2.213291309153809e-12
20
-2.0714889767566278e-12
30
0
40
62.207894255932388
210
0
220
0
230
1
100
AcDbArc
50
224.2996631299192
51
225.80033687008094
0
SPLINE
5
349
100
AcDbEntity
8
0
100
AcDbSpline
70
0
71
3
72
8
73
4
74
0
42
0.000000001
43
0.0000000001
44
0.0000000001
40
0
40
0
40
0
40
0
40
1
40
1
40
1
40
1
10
-33.16023631109347
20
-54.509160094481395
30
0
10
-32.778245375469062
20
-54.142660489175192
30
0
10
-32.485775860990572
20
-53.826716805641524
30
0
10
-32.267810903458162
20
-53.57277292797356
30
0
0
SPLINE
5
350
100
AcDbEntity
8
0
100
AcDbSpline
70
0
71
3
72
8
73
4
74
0
42
0.000000001
43
0.0000000001
44
0.0000000001
40
0
40
0
40
0
40
0
40
1
40
1
40
1
40
1
10
-49.644673417130825
20
-40.07812630001294
30
0
10
-50.331233332433428
20
-41.015390661766688
30
0
10
-51.190896656861078
20
-42.397538586144279
30
0
10
-52.048712029618834
20
-44.320155921866807
30
0
0
SPLINE
5
351
100
AcDbEntity
8
0
100
AcDbSpline
70
0
71
3
72
8
73
4
74
0
42
0.000000001
43
0.0000000001
44
0.0000000001
40
0
40
0
40
0
40
0
40
1
40
1
40
1
40
1
10
60.068558607100698
20
17.407523849153794
30
0
10
60.370009834309222
20
17.552862671674141
30
0
10
60.750533755659362
20
17.754258732570232
30
0
10
61.202932603544788
20
18.029166568072771
30
0
0
ARC
5
352
100
AcDbEntity
8
0
100
AcDbCircle
10
-5.4106300986637024e-14
20
4.6588713156122299e-14
30
0
40
68.361865428620106
210
0
220
0
230
1
100
AcDbArc
50
227.91482679737396
51
229.68517320262595
0
ARC
5
353
100
AcDbEntity
8
0
100
AcDbCircle
10
1.0089389837563978e-12
20
2.3838597121174319e-12
30
0
40
62.207894255932857
210
0
220
-0
230
1
100
AcDbArc
50
66.799663129919182
51
68.300336870080898
0
SPLINE
5
354
100
AcDbEntity
8
0
100
AcDbSpline
70
0
71
3
72
8
73
4
74
0
42
0.000000001
43
0.0000000001
44
0.0000000001
40
0
40
0
40
0
40
0
40
1
40
1
40
1
40
1
10
-22.757104384227169
20
-58.252620711337421
30
0
10
-22.825311223758582
20
-58.580254718666104
30
0
10
-22.897181272258305
20
-59.004746796557825
30
0
10
-22.954485191810747
20
-59.531012220457825
30
0
0
SPLINE
5
355
100
AcDbEntity
8
0
100
AcDbSpline
70
0
71
3
72
8
73
4
74
0
42
0.000000001
43
0.0000000001
44
0.0000000001
40
0
40
0
40
0
40
0
40
1
40
1
40
1
40
1
10
-57.282525957131767
20
-25.099120296617457
30
0
10
-57.562427704217242
20
-25.282563006190934
30
0
10
-57.913408729712657
20
-25.531904434369714
30
0
10
-58.326054569760579
20
-25.863510294209423
30
0
0
SPLINE
5
356
100
AcDbEntity
8
0
100
AcDbSpline
70
0
71
3
72
8
73
4
74
0
42
0.000000001
43
0.0000000001
44
0.0000000001
40
0
40
0
40
0
40
0
40
1
40
1
40
1
40
1
10
29.230973386103621
20
61.797207378502669
30
0
10
27.598203740995906
20
60.46815962940741
30
0
10
26.487723920110984
20
59.278122451990399
30
0
10
25.761672784328997
20
58.37110605228002
30
0
0
SPLINE
5
357
100
AcDbEntity
8
0
100
AcDbSpline
70
0
71
3
72
8
73
4
74
0
42
0.000000001
43
0.0000000001
44
0.0000000001
40
0
40
0
40
0
40
0
40
1
40
1
40
1
40
1
10
-44.069304807173857
20
46.138337423727776
30
0
10
-43.814159902280082
20
45.674505435724022
30
0
10
-43.584678419160817
20
45.310229335808778
30
0
10
-43.39580095146772
20
45.033965842174467
30
0
0
SPLINE
5
358
100
AcDbEntity
8
0
100
AcDbSpline
70
0
71
3
72
8
73
4
74
0
42
0.000000001
43
0.0000000001
44
0.0000000001
40
0
40
0
40
0
40
0
40
1
40
1
40
1
40
1
10
-23.027804893733265
20
64.366643897727954
30
0
10
-23.242568705998469
20
62.272322733650839
30
0
10
-23.186313159701303
20
60.645611563916532
30
0
10
-23.058351394418374
20
59.490858435434326
30
0
0
SPLINE
5
359
100
AcDbEntity
8
0
100
AcDbSpline
70
0
71
3
72
8
73
4
74
0
42
0.000000001
43
0.0000000001
44
0.0000000001
40
0
40
0
40
0
40
0
40
1
40
1
40
1
40
1
10
-25.863510294209323
20
58.326054569760572
30
0
10
-26.59114336560328
20
59.231802390363868
30
0
10
-27.703698500773353
20
60.419899603319962
30
0
10
-29.338785283767503
20
61.746095608983687
30
0
0
ARC
5
360
100
AcDbEntity
8
0
100
AcDbCircle
10
3.9368420500013514e-13
20
2.694210412483296e-12
30
0
40
62.207894255932771
210
0
220
-0
230
1
100
AcDbArc
50
81.79966312991921
51
83.300336870080884
0
SPLINE
5
361
100
AcDbEntity
8
0
100
AcDbSpline
70
0
71
3
72
8
73
4
74
0
42
0.000000001
43
0.0000000001
44
0.0000000001
40
0
40
0
40
0
40
0
40
1
40
1
40
1
40
1
10
57.453116051694423
20
-37.047052525555905
30
0
10
56.34855769488189
20
-35.254775909138743
30
0
10
55.313648153045271
20
-33.998465375694536
30
0
10
54.509160094481395
20
-33.16023631109347
30
0
0
ARC
5
362
100
AcDbEntity
8
0
100
AcDbCircle
10
-1.9907791015082639e-14
20
-9.0904784565499073e-14
30
0
40
68.361865428620135
210
0
220
0
230
1
100
AcDbArc
50
167.91482679737402
51
169.68517320262586
0
SPLINE
5
363
100
AcDbEntity
8
0
100
AcDbSpline
70
0
71
3
72
8
73
4
74
0
42
0.000000001
43
0.0000000001
44
0.0000000001
40
0
40
0
40
0
40
0
40
1
40
1
40
1
40
1
10
60.724659647040426
20
-14.958921433199643
30
0
10
61.058393479065323
20
-14.983779934345286
30
0
10
61.488634892150131
20
-14.999627790062142
30
0
10
62.017877704813095
20
-14.987750044760295
30
0
0
SPLINE
5
364
100
AcDbEntity
8
0
100
AcDbSpline
70
0
71
3
72
8
73
4
74
0
42
0.000000001
43
0.0000000001
44
0.0000000001
40
0
40
0
40
0
40
0
40
1
40
1
40
1
40
1
10
37.058562523508925
20
50.377738768078231
30
0
10
37.209243192261781
20
50.676555688250573
30
0
10
37.388530962497768
20
51.067982212017149
30
0
10
37.580089812825371
20
51.561484230705936
30
0
0
ARC
5
365
100
AcDbEntity
8
0
100
AcDbCircle
10
-7.0013293644910426e-15
20
1.0867833908893676e-13
30
0
40
68.361865428620135
210
0
220
0
230
1
100
AcDbArc
50
182.91482679737405
51
184.68517320262592
0
ARC
5
366
100
AcDbEntity
8
0
100
AcDbCircle
10
-3.1774495081595374e-13
20
9.1695944463030126e-14
30
0
40
68.361865428620135
210
0
220
-0
230
1
100
AcDbArc
50
70.414826797373777
51
72.185173202625592
0
SPLINE
5
367
100
AcDbEntity
8
0
100
AcDbSpline
70
0
71
3
72
8
73
4
74
0
42
0.000000001
43
0.0000000001
44
0.0000000001
40
0
40
0
40
0
40
0
40
1
40
1
40
1
40
1
10
6.7645703390546128
20
63.443600107034797
30
0
10
6.5872955248954472
20
64.591817264796617
30
0
10
6.2178431212053624
20
66.177017200967128
30
0
10
5.4649144325721544
20
68.143080023766402
30
0
0
SPLINE
5
368
100
AcDbEntity
8
0
100
AcDbSpline
70
0
71
3
72
8
73
4
74
0
42
0.000000001
43
0.0000000001
44
0.0000000001
40
0
40
0
40
0
40
0
40
1
40
1
40
1
40
1
10
61.202932603544788
20
18.029166568072771
30
0
10
62.19590680012498
20
18.632350823536925
30
0
10
63.519057262151406
20
19.580310090101939
30
0
10
65.047329128874708
20
21.028305164244941
30
0
0
SPLINE
5
369
100
AcDbEntity
8
0
100
AcDbSpline
70
0
71
3
72
8
73
4
74
0
42
0.000000001
43
0.0000000001
44
0.0000000001
40
0
40
0
40
0
40
0
40
1
40
1
40
1
40
1
10
-6.7645703390546235
20
-63.443600107034797
30
0
10
-6.587295524895457
20
-64.591817264796617
30
0
10
-6.2178431212053713
20
-66.177017200967128
30
0
10
-5.4649144325721641
20
-68.143080023766402
30
0
0
SPLINE
5
370
100
AcDbEntity
8
0
100
AcDbSpline
70
0
71
3
72
8
73
4
74
0
42
0.000000001
43
0.0000000001
44
0.0000000001
40
0
40
0
40
0
40
0
40
1
40
1
40
1
40
1
10
63.786435536320596
20
-1.4630269936614104
30
0
10
63.278042099836284
20
-1.3154629420483377
30
0
10
62.858192086491584
20
-1.2201487544443563
30
0
10
62.529287758529357
20
-1.1583575029204995
30
0
0
SPLINE
5
371
100
AcDbEntity
8
0
100
AcDbSpline
70
0
71
3
72
8
73
4
74
0
42
0.000000001
43
0.0000000001
44
0.0000000001
40
0
40
0
40
0
40
0
40
1
40
1
40
1
40
1
10
-50.377738768078231
20
37.058562523508833
30
0
10
-50.676555688250573
20
37.209243192261781
30
0
10
-51.067982212017149
20
37.388530962497768
30
0
10
-51.561484230705936
20
37.580089812825371
30
0
0
ARC
5
372
100
AcDbEntity
8
0
100
AcDbCircle
10
15.357821954257766
20
60.695022266934792
30
0
40
0.39999999999999036
210
0
220
0
230
1
100
AcDbArc
50
175.75086410021723
51
255.80034653412113
0
ARC
5
373
100
AcDbEntity
8
0
100
AcDbCircle
10
-60.272003433299574
20
16.942078541274871
30
0
40
0.39999999999999153
210
-0
220
0
230
1
100
AcDbArc
50
-15.700346534089974
51
64.349135899769905
0
ARC
5
374
100
AcDbEntity
8
0
100
AcDbCircle
10
53.833352128302742
20
-31.964333589057667
30
0
40
0.39999999999999181
210
0
220
0
230
1
100
AcDbArc
50
149.29965346591015
51
229.34913589978413
0
SPLINE
5
375
100
AcDbEntity
8
0
100
AcDbSpline
70
0
71
3
72
8
73
4
74
0
42
0.000000001
43
0.0000000001
44
0.0000000001
40
0
40
0
40
0
40
0
40
1
40
1
40
1
40
1
10
22.757104384227169
20
58.252620711337421
30
0
10
22.825311223758689
20
58.580254718666097
30
0
10
22.897181272258305
20
59.004746796557825
30
0
10
22.954485191810747
20
59.531012220457825
30
0
0
SPLINE
5
376
100
AcDbEntity
8
0
100
AcDbSpline
70
0
71
3
72
8
73
4
74
0
42
0.000000001
43
0.0000000001
44
0.0000000001
40
0
40
0
40
0
40
0
40
1
40
1
40
1
40
1
10
14.958921433199643
20
60.724659647040426
30
0
10
14.983779934345286
20
61.058393479065323
30
0
10
14.999627790062142
20
61.488634892150131
30
0
10
14.987750044760295
20
62.017877704813095
30
0
0
ARC
5
377
100
AcDbEntity
8
0
100
AcDbCircle
10
-49.132967835943901
20
-38.803349015188111
30
0
40
0.39999999999998803
210
-0
220
0
230
1
100
AcDbArc
50
-41.749135899782289
51
38.300346534211172
0
SPLINE
5
378
100
AcDbEntity
8
0
100
AcDbSpline
70
0
71
3
72
8
73
4
74
0
42
0.000000001
43
0.0000000001
44
0.0000000001
40
0
40
0
40
0
40
0
40
1
40
1
40
1
40
1
10
-49.714547294671846
20
39.99141900082067
30
0
10
-49.401042966585116
20
39.564858252673702
30
0
10
-49.12597715712748
20
39.233651929467889
30
0
10
-48.902655940480244
20
38.984405364973242
30
0
0
SPLINE
5
379
100
AcDbEntity
8
0
100
AcDbSpline
70
0
71
3
72
8
73
4
74
0
42
0.000000001
43
0.0000000001
44
0.0000000001
40
0
40
0
40
0
40
0
40
1
40
1
40
1
40
1
10
-60.724659647040518
20
14.958921433199651
30
0
10
-61.058393479065323
20
14.983779934345286
30
0
10
-61.488634892150131
20
14.999627790062142
30
0
10
-62.017877704813095
20
14.987750044760295
30
0
0
SPLINE
5
380
100
AcDbEntity
8
0
100
AcDbSpline
70
0
71
3
72
8
73
4
74
0
42
0.000000001
43
0.0000000001
44
0.0000000001
40
0
40
0
40
0
40
0
40
1
40
1
40
1
40
1
10
-59.531012220457818
20
22.954485191810843
30
0
10
-60.685986925449633
20
23.080431338806129
30
0
10
-62.312793801962457
20
23.133847654273513
30
0
10
-64.406736942833348
20
22.915428890977232
30
0
0
SPLINE
5
381
100
AcDbEntity
8
0
100
AcDbSpline
70
0
71
3
72
8
73
4
74
0
42
0.000000001
43
0.0000000001
44
0.0000000001
40
0
40
0
40
0
40
0
40
1
40
1
40
1
40
1
10
14.429265896656069
20
-66.821710024245604
30
0
10
14.915556141568336
20
-64.77333837069655
30
0
10
15.072110284095519
20
-63.15320111827468
30
0
10
15.095968778268446
20
-61.991624700913476
30
0
0
SPLINE
5
382
100
AcDbEntity
8
0
100
AcDbSpline
70
0
71
3
72
8
73
4
74
0
42
0.000000001
43
0.0000000001
44
0.0000000001
40
0
40
0
40
0
40
0
40
1
40
1
40
1
40
1
10
-61.826801565151264
20
-9.4180798423537553
30
0
10
-62.144644358407447
20
-9.5228279902720097
30
0
10
-62.548200305816728
20
-9.6728327414459123
30
0
10
-63.032611491823786
20
-9.8863388033270923
30
0
0
ARC
5
383
100
AcDbEntity
8
0
100
AcDbCircle
10
-62.180365958004309
20
7.3041435152285539
30
0
40
0.39999999999999036
210
-0
220
0
230
1
100
AcDbArc
50
273.25086410021646
51
353.30034653409115
0
ARC
5
384
100
AcDbEntity
8
0
100
AcDbCircle
10
-58.130679193017471
20
-23.250216337077077
30
0
40
0.39999999999999614
210
0
220
-0
230
1
100
AcDbArc
50
21.799653465905887
51
101.84913589978522
0
SPLINE
5
385
100
AcDbEntity
8
0
100
AcDbSpline
70
0
71
3
72
8
73
4
74
0
42
0.000000001
43
0.0000000001
44
0.0000000001
40
0
40
0
40
0
40
0
40
1
40
1
40
1
40
1
10
-31.232331764564929
20
60.810246648315101
30
0
10
-31.171894475811438
20
58.7058103894827
30
0
10
-30.90379178868421
20
57.100358781559706
30
0
10
-30.626199225227104
20
55.972187088142775
30
0
0
ARC
5
386
100
AcDbEntity
8
0
100
AcDbCircle
10
1.7962481128899223e-14
20
-1.1615815485532436e-15
30
0
40
68.361865428620106
210
0
220
0
230
1
100
AcDbArc
50
107.91482679737399
51
109.685173202626
0
ARC
5
387
100
AcDbEntity
8
0
100
AcDbCircle
10
-1.0977071800993971e-14
20
7.0985539078253789e-16
30
0
40
68.361865428620121
210
0
220
-0
230
1
100
AcDbArc
50
62.914826797374019
51
64.685173202625919
0
ARC
5
388
100
AcDbEntity
8
0
100
AcDbCircle
10
54.651992721766916
20
-30.543544566771146
30
0
40
0.39999999999994401
210
0
220
-0
230
1
100
AcDbArc
50
70.750864100212695
51
150.8003465340897
0
SPLINE
5
389
100
AcDbEntity
8
0
100
AcDbSpline
70
0
71
3
72
8
73
4
74
0
42
0.000000001
43
0.0000000001
44
0.0000000001
40
0
40
0
40
0
40
0
40
1
40
1
40
1
40
1
10
-1.2674898782659449
20
62.527170806794395
30
0
10
-1.3298550817296229
20
62.855966787782734
30
0
10
-1.4259019002995543
20
63.275649807104145
30
0
10
-1.5743530406455053
20
63.783784921536039
30
0
0
ARC
5
390
100
AcDbEntity
8
0
100
AcDbCircle
10
-43.726046839582835
20
44.808272126304942
30
0
40
0.39999999999991848
210
-0
220
0
230
1
100
AcDbArc
50
-45.70034653406389
51
34.349135899786717
0
SPLINE
5
391
100
AcDbEntity
8
0
100
AcDbSpline
70
0
71
3
72
8
73
4
74
0
42
0.000000001
43
0.0000000001
44
0.0000000001
40
0
40
0
40
0
40
0
40
1
40
1
40
1
40
1
10
68.279384290120845
20
-3.3571305966206388
30
0
10
66.426670384950199
20
-2.3572526946007732
30
0
10
64.902257164378653
20
-1.786710628514403
30
0
10
63.786435536320596
20
-1.4630269936614104
30
0
0
ARC
5
392
100
AcDbEntity
8
0
100
AcDbCircle
10
-3.3740565756043886e-13
20
-9.2515480988113962e-13
30
0
40
62.207894255934505
210
0
220
0
230
1
100
AcDbArc
50
239.299663129919
51
240.80033687008091
0
SPLINE
5
393
100
AcDbEntity
8
0
100
AcDbSpline
70
0
71
3
72
8
73
4
74
0
42
0.000000001
43
0.0000000001
44
0.0000000001
40
0
40
0
40
0
40
0
40
1
40
1
40
1
40
1
10
-64.366643897728068
20
-23.027804893733162
30
0
10
-62.272322733650839
20
-23.242568705998469
30
0
10
-60.645611563916617
20
-23.186313159701299
30
0
10
-59.490858435434326
20
-23.058351394418374
30
0
0
ARC
5
394
100
AcDbEntity
8
0
100
AcDbCircle
10
-2.7627641094489461e-12
20
-1.6581687114225658e-12
30
0
40
62.20789425593231
210
0
220
0
230
1
100
AcDbArc
50
209.29966312991914
51
210.800336870081
0
ARC
5
395
100
AcDbEntity
8
0
100
AcDbCircle
10
43.647775092653021
20
44.884520189298826
30
0
40
0.39999999999996894
210
0
220
0
230
1
100
AcDbArc
50
145.75086410022502
51
225.80034653410988
0
ARC
5
396
100
AcDbEntity
8
0
100
AcDbCircle
10
53.777481877329471
20
32.05824178110683
30
0
40
0.39999999999999603
210
0
220
0
230
1
100
AcDbArc
50
130.75086410022973
51
210.80034653408552
0
SPLINE
5
397
100
AcDbEntity
8
0
100
AcDbSpline
70
0
71
3
72
8
73
4
74
0
42
0.000000001
43
0.0000000001
44
0.0000000001
40
0
40
0
40
0
40
0
40
1
40
1
40
1
40
1
10
60.810246648315101
20
31.232331764564929
30
0
10
58.705810389482707
20
31.171894475811545
30
0
10
57.100358781559706
20
30.90379178868421
30
0
10
55.972187088142775
20
30.626199225227104
30
0
0
ARC
5
398
100
AcDbEntity
8
0
100
AcDbCircle
10
1.7947933912848334e-12
20
1.9843139072738183e-12
30
0
40
62.207894255932807
210
0
220
-0
230
1
100
AcDbArc
50
44.299663129919011
51
45.800336870080628
0
SPLINE
5
399
100
AcDbEntity
8
0
100
AcDbSpline
70
0
71
3
72
8
73
4
74
0
42
0.000000001
43
0.0000000001
44
0.0000000001
40
0
40
0
40
0
40
0
40
1
40
1
40
1
40
1
10
50.654665456985995
20
45.90696583658741
30
0
10
48.637578446164426
20
45.303919715519399
30
0
10
47.15622135668599
20
44.629430953804679
30
0
10
46.138337423727776
20
44.069304807173857
30
0
0
SPLINE
5
400
100
AcDbEntity
8
0
100
AcDbSpline
70
0
71
3
72
8
73
4
74
0
42
0.000000001
43
0.0000000001
44
0.0000000001
40
0
40
0
40
0
40
0
40
1
40
1
40
1
40
1
10
55.972187088142775
20
30.626199225227104
30
0
10
55.458123431223626
20
30.499796724367219
30
0
10
55.046865560085848
20
30.37241622550102
30
0
10
54.731130430894062
20
30.261476855071191
30
0
0
SPLINE
5
401
100
AcDbEntity
8
0
100
AcDbSpline
70
0
71
3
72
8
73
4
74
0
42
0.000000001
43
0.0000000001
44
0.0000000001
40
0
40
0
40
0
40
0
40
1
40
1
40
1
40
1
10
54.45120157125033
20
33.255322188492329
30
0
10
55.254225419545556
20
34.094954072226408
30
0
10
56.286940710714845
20
35.353068949180248
30
0
10
57.388369273971023
20
37.14727065283671
30
0
0
ARC
5
402
100
AcDbEntity
8
0
100
AcDbCircle
10
-4.5172615777070575e-16
20
-6.9854093279052518e-15
30
0
40
68.361865428620177
210
0
220
-0
230
1
100
AcDbArc
50
40.414826797374069
51
42.185173202625926
0
ARC
5
403
100
AcDbEntity
8
0
100
AcDbCircle
10
2.0497390655320644e-13
20
8.5951716866607082e-14
30
0
40
68.361865428620135
210
0
220
0
230
1
100
AcDbArc
50
115.41482679737429
51
117.185173202626
0
SPLINE
5
404
100
AcDbEntity
8
0
100
AcDbSpline
70
0
71
3
72
8
73
4
74
0
42
0.000000001
43
0.0000000001
44
0.0000000001
40
0
40
0
40
0
40
0
40
1
40
1
40
1
40
1
10
39.069697180924088
20
-48.834540868983666
30
0
10
39.319333134648737
20
-49.057426728394191
30
0
10
39.651019033558327
20
-49.331914055111895
30
0
10
40.07812630001294
20
-49.644673417130825
30
0
0
ARC
5
405
100
AcDbEntity
8
0
100
AcDbCircle
10
49.200617587901398
20
-38.717536751858077
30
0
40
0.399999999999961
210
0
220
0
230
1
100
AcDbArc
50
141.79965346591652
51
221.84913589977987
0
ARC
5
406
100
AcDbEntity
8
0
100
AcDbCircle
10
44.884520189298826
20
-43.647775092653021
30
0
40
0.39999999999996894
210
0
220
-0
230
1
100
AcDbArc
50
55.750864100225002
51
135.80034653405369
0
ARC
5
407
100
AcDbEntity
8
0
100
AcDbCircle
10
17.047247174281765
20
-60.242342143556584
30
0
40
0.39999999999998814
210
0
220
-0
230
1
100
AcDbArc
50
25.750864100216738
51
105.80034653408828
0
SPLINE
5
408
100
AcDbEntity
8
0
100
AcDbSpline
70
0
71
3
72
8
73
4
74
0
42
0.000000001
43
0.0000000001
44
0.0000000001
40
0
40
0
40
0
40
0
40
1
40
1
40
1
40
1
10
3.3571305966206486
20
68.279384290120845
30
0
10
2.3572526946007732
20
66.426670384950199
30
0
10
1.786710628514413
20
64.902257164378653
30
0
10
1.4630269936614104
20
63.786435536320596
30
0
0
SPLINE
5
409
100
AcDbEntity
8
0
100
AcDbSpline
70
0
71
3
72
8
73
4
74
0
42
0.000000001
43
0.0000000001
44
0.0000000001
40
0
40
0
40
0
40
0
40
1
40
1
40
1
40
1
10
49.714547294671846
20
-39.99141900082067
30
0
10
49.401042966585116
20
-39.564858252673702
30
0
10
49.125977157127387
20
-39.233651929467889
30
0
10
48.902655940480244
20
-38.984405364973242
30
0
0
ARC
5
410
100
AcDbEntity
8
0
100
AcDbCircle
10
-3.2185986213903486e-12
20
1.7071567444321145e-15
30
0
40
62.207894255932253
210
0
220
0
230
1
100
AcDbArc
50
179.29966312991928
51
180.80033687008068
0
SPLINE
5
411
100
AcDbEntity
8
0
100
AcDbSpline
70
0
71
3
72
8
73
4
74
0
42
0.000000001
43
0.0000000001
44
0.0000000001
40
0
40
0
40
0
40
0
40
1
40
1
40
1
40
1
10
1.2674898782659949
20
-62.527170806794395
30
0
10
1.3298550817296739
20
-62.855966787782727
30
0
10
1.4259019002995932
20
-63.275649807104145
30
0
10
1.5743530406455541
20
-63.783784921536039
30
0
0
SPLINE
5
412
100
AcDbEntity
8
0
100
AcDbSpline
70
0
71
3
72
8
73
4
74
0
42
0.000000001
43
0.0000000001
44
0.0000000001
40
0
40
0
40
0
40
0
40
1
40
1
40
1
40
1
10
-62.017877704813095
20
14.987750044760295
30
0
10
-63.179410712086039
20
14.961864254655614
30
0
10
-64.799272258512588
20
14.802482679070629
30
0
10
-66.846792056055534
20
14.312618093669725
30
0
0
ARC
5
413
100
AcDbEntity
8
0
100
AcDbCircle
10
-0.87451084443741944
20
62.601786347877962
30
0
40
0.39999999999999364
210
0
220
0
230
1
100
AcDbArc
50
190.75086410021748
51
270.80034653409098
0
ARC
5
414
100
AcDbEntity
8
0
100
AcDbCircle
10
1.5314194169441066e-12
20
-2.847761852649652e-12
30
0
40
62.207894255932288
210
-0
220
0
230
1
100
AcDbArc
50
299.29966312991928
51
300.80033687008091
0
SPLINE
5
415
100
AcDbEntity
8
0
100
AcDbSpline
70
0
71
3
72
8
73
4
74
0
42
0.000000001
43
0.0000000001
44
0.0000000001
40
0
40
0
40
0
40
0
40
1
40
1
40
1
40
1
10
-63.032611491823786
20
-9.8863388033270923
30
0
10
-64.095822000572824
20
-10.35475359301628
30
0
10
-65.531386240417774
20
-11.121897145101265
30
0
10
-67.235584812843939
20
-12.358024913214521
30
0
0
SPLINE
5
416
100
AcDbEntity
8
0
100
AcDbSpline
70
0
71
3
72
8
73
4
74
0
42
0.000000001
43
0.0000000001
44
0.0000000001
40
0
40
0
40
0
40
0
40
1
40
1
40
1
40
1
10
9.4180798423537553
20
-61.826801565151264
30
0
10
9.5228279902720097
20
-62.144644358407447
30
0
10
9.6728327414459176
20
-62.548200305816621
30
0
10
9.8863388033270923
20
-63.032611491823786
30
0
0
SPLINE
5
417
100
AcDbEntity
8
0
100
AcDbSpline
70
0
71
3
72
8
73
4
74
0
42
0.000000001
43
0.0000000001
44
0.0000000001
40
0
40
0
40
0
40
0
40
1
40
1
40
1
40
1
10
-9.4180798423537553
20
61.826801565151264
30
0
10
-9.5228279902720097
20
62.144644358407447
30
0
10
-9.6728327414459176
20
62.548200305816621
30
0
10
-9.8863388033270923
20
63.032611491823786
30
0
0
SPLINE
5
418
100
AcDbEntity
8
0
100
AcDbSpline
70
0
71
3
72
8
73
4
74
0
42
0.000000001
43
0.0000000001
44
0.0000000001
40
0
40
0
40
0
40
0
40
1
40
1
40
1
40
1
10
-67.257051218645671
20
12.240657917499417
30
0
10
-65.550697793004019
20
11.007506418225521
30
0
10
-64.113796822245746
20
10.242869565555488
30
0
10
-63.049770395239037
20
9.7763111407624876
30
0
0
SPLINE
5
419
100
AcDbEntity
8
0
100
AcDbSpline
70
0
71
3
72
8
73
4
74
0
42
0.000000001
43
0.0000000001
44
0.0000000001
40
0
40
0
40
0
40
0
40
1
40
1
40
1
40
1
10
25.099120296617457
20
-57.282525957131767
30
0
10
25.282563006190934
20
-57.562427704217242
30
0
10
25.531904434369714
20
-57.913408729712657
30
0
10
25.863510294209423
20
-58.326054569760579
30
0
0
ARC
5
420
100
AcDbEntity
8
0
100
AcDbCircle
10
-1.620881813780606e-13
20
-3.2503149726538118e-12
30
0
40
62.207894255932253
210
0
220
0
230
1
100
AcDbArc
50
261.79966312991888
51
263.30033687008063
0
ARC
5
421
100
AcDbEntity
8
0
100
AcDbCircle
10
-7.6369947333907527e-14
20
-2.9769217514777948e-13
30
0
40
68.361865428620106
210
0
220
0
230
1
100
AcDbArc
50
160.41482679737402
51
162.18517320262603
0
ARC
5
422
100
AcDbEntity
8
0
100
AcDbCircle
10
-4.6588713156122299e-14
20
-5.4106300986637024e-14
30
0
40
68.361865428620106
210
-0
220
0
230
1
100
AcDbArc
50
317.91482679737396
51
319.68517320262595
0
ARC
5
423
100
AcDbEntity
8
0
100
AcDbCircle
10
-53.833352128302749
20
31.964333589057574
30
0
40
0.39999999999995367
210
-0
220
0
230
1
100
AcDbArc
50
-30.700346534083444
51
49.349135899791939
0
SPLINE
5
424
100
AcDbEntity
8
0
100
AcDbSpline
70
0
71
3
72
8
73
4
74
0
42
0.000000001
43
0.0000000001
44
0.0000000001
40
0
40
0
40
0
40
0
40
1
40
1
40
1
40
1
10
-58.252620711337421
20
22.757104384227169
30
0
10
-58.580254718666097
20
22.825311223758689
30
0
10
-59.004746796557718
20
22.897181272258301
30
0
10
-59.531012220457818
20
22.954485191810843
30
0
0
SPLINE
5
425
100
AcDbEntity
8
0
100
AcDbSpline
70
0
71
3
72
8
73
4
74
0
42
0.000000001
43
0.0000000001
44
0.0000000001
40
0
40
0
40
0
40
0
40
1
40
1
40
1
40
1
10
-54.783863284585593
20
30.165906969779243
30
0
10
-55.099791558515662
20
30.276295109761669
30
0
10
-55.511271124069864
20
30.402957634588148
30
0
10
-56.025554611895849
20
30.528462733043717
30
0
0
SPLINE
5
426
100
AcDbEntity
8
0
100
AcDbSpline
70
0
71
3
72
8
73
4
74
0
42
0.000000001
43
0.0000000001
44
0.0000000001
40
0
40
0
40
0
40
0
40
1
40
1
40
1
40
1
10
54.783863284585706
20
-30.165906969779247
30
0
10
55.099791558515662
20
-30.276295109761669
30
0
10
55.511271124069864
20
-30.402957634588148
30
0
10
56.025554611895849
20
-30.528462733043717
30
0
0
ARC
5
427
100
AcDbEntity
8
0
100
AcDbCircle
10
61.95207281684521
20
9.0382020810949335
30
0
40
0.39999999999998986
210
0
220
0
230
1
100
AcDbArc
50
108.25086410021564
51
188.30034653411838
0
ARC
5
428
100
AcDbEntity
8
0
100
AcDbCircle
10
-60.668125380857695
20
-15.463731306994521
30
0
40
0.39999999999995206
210
0
220
-0
230
1
100
AcDbArc
50
14.299653465963345
51
94.349135899783036
0
ARC
5
429
100
AcDbEntity
8
0
100
AcDbCircle
10
1.5292074230634001e-13
20
-1.1993682697872568e-12
30
0
40
62.207894255934306
210
0
220
0
230
1
100
AcDbArc
50
269.29966312991894
51
270.80033687008103
0
ARC
5
430
100
AcDbEntity
8
0
100
AcDbCircle
10
38.803349015188111
20
-49.132967835943901
30
0
40
0.39999999999998959
210
0
220
-0
230
1
100
AcDbArc
50
48.250864100219133
51
128.3003465340899
0
SPLINE
5
431
100
AcDbEntity
8
0
100
AcDbSpline
70
0
71
3
72
8
73
4
74
0
42
0.000000001
43
0.0000000001
44
0.0000000001
40
0
40
0
40
0
40
0
40
1
40
1
40
1
40
1
10
45.109637173900964
20
-43.317135797886628
30
0
10
45.386229899963951
20
-43.505530807391175
30
0
10
45.750905965597219
20
-43.734376159579995
30
0
10
46.215182558784484
20
-43.988711136740328
30
0
0
ARC
5
432
100
AcDbEntity
8
0
100
AcDbCircle
10
15.463731306994625
20
-60.668125380857703
30
0
40
0.39999999999999292
210
0
220
0
230
1
100
AcDbArc
50
104.29965346590805
51
184.34913589978748
0
ARC
5
433
100
AcDbEntity
8
0
100
AcDbCircle
10
-2.8978732872704339e-12
20
1.3197573303166181e-12
30
0
40
62.207894255932302
210
0
220
0
230
1
100
AcDbArc
50
156.79966312991897
51
158.30033687008105
0
SPLINE
5
434
100
AcDbEntity
8
0
100
AcDbSpline
70
0
71
3
72
8
73
4
74
0
42
0.000000001
43
0.0000000001
44
0.0000000001
40
0
40
0
40
0
40
0
40
1
40
1
40
1
40
1
10
51.561484230705929
20
-37.580089812825477
30
0
10
52.644506865468458
20
-38.000673899193337
30
0
10
54.202056482114642
20
-38.473318700193786
30
0
10
56.281181176411565
20
-38.804294739998902
30
0
0
SPLINE
5
435
100
AcDbEntity
8
0
100
AcDbSpline
70
0
71
3
72
8
73
4
74
0
42
0.000000001
43
0.0000000001
44
0.0000000001
40
0
40
0
40
0
40
0
40
1
40
1
40
1
40
1
10
-3.3571305966206588
20
-68.279384290120845
30
0
10
-2.3572526946007839
20
-66.426670384950185
30
0
10
-1.7867106285144225
20
-64.902257164378653
30
0
10
-1.4630269936614204
20
-63.786435536320589
30
0
0
ARC
5
436
100
AcDbEntity
8
0
100
AcDbCircle
10
-3.1962422160641668e-12
20
-5.358560406016024e-13
30
0
40
62.20789425593221
210
0
220
0
230
1
100
AcDbArc
50
186.79966312991897
51
188.30033687008094
0
SPLINE
5
437
100
AcDbEntity
8
0
100
AcDbSpline
70
0
71
3
72
8
73
4
74
0
42
0.000000001
43
0.0000000001
44
0.0000000001
40
0
40
0
40
0
40
0
40
1
40
1
40
1
40
1
10
15.095968778268446
20
-61.991624700913476
30
0
10
15.106922802986031
20
-61.462361963767435
30
0
10
15.09032405886439
20
-61.03214886568967
30
0
10
15.064883120456694
20
-60.698458928217676
30
0
0
SPLINE
5
438
100
AcDbEntity
8
0
100
AcDbSpline
70
0
71
3
72
8
73
4
74
0
42
0.000000001
43
0.0000000001
44
0.0000000001
40
0
40
0
40
0
40
0
40
1
40
1
40
1
40
1
10
-54.509160094481395
20
33.16023631109347
30
0
10
-54.142660489175192
20
32.77824537546897
30
0
10
-53.826716805641524
20
32.485775860990572
30
0
10
-53.57277292797356
20
32.267810903458162
30
0
0
ARC
5
439
100
AcDbEntity
8
0
100
AcDbCircle
10
60.272003433299581
20
-16.942078541274771
30
0
40
0.39999999999999292
210
0
220
0
230
1
100
AcDbArc
50
164.29965346590879
51
244.34913589977512
0
ARC
5
440
100
AcDbEntity
8
0
100
AcDbCircle
10
9.195407369604196e-14
20
3.2173661328904252e-13
30
0
40
68.361865428620106
210
-0
220
0
230
1
100
AcDbArc
50
340.41482679737385
51
342.18517320262561
0
SPLINE
5
441
100
AcDbEntity
8
0
100
AcDbSpline
70
0
71
3
72
8
73
4
74
0
42
0.000000001
43
0.0000000001
44
0.0000000001
40
0
40
0
40
0
40
0
40
1
40
1
40
1
40
1
10
61.991624700913462
20
15.09596877826835
30
0
10
61.462361963767542
20
15.10692280298602
30
0
10
61.03214886568967
20
15.09032405886439
30
0
10
60.698458928217676
20
15.064883120456694
30
0
0
SPLINE
5
442
100
AcDbEntity
8
0
100
AcDbSpline
70
0
71
3
72
8
73
4
74
0
42
0.000000001
43
0.0000000001
44
0.0000000001
40
0
40
0
40
0
40
0
40
1
40
1
40
1
40
1
10
23.027804893733265
20
-64.366643897727954
30
0
10
23.242568705998469
20
-62.272322733650839
30
0
10
23.186313159701303
20
-60.645611563916532
30
0
10
23.058351394418374
20
-59.490858435434326
30
0
0
ARC
5
443
100
AcDbEntity
8
0
100
AcDbCircle
10
2.6142478936501417e-12
20
6.7871124238942628e-13
30
0
40
62.207894255932736
210
0
220
-0
230
1
100
AcDbArc
50
14.299663129919139
51
15.800336870080848
0
ARC
5
444
100
AcDbEntity
8
0
100
AcDbCircle
10
-4.5172615777070575e-16
20
-6.9854093279052518e-15
30
0
40
68.361865428620106
210
0
220
0
230
1
100
AcDbArc
50
152.91482679737402
51
154.68517320262598
0
ARC
5
445
100
AcDbEntity
8
0
100
AcDbCircle
10
23.250216337077084
20
-58.130679193017365
30
0
40
0.3999999999999877
210
0
220
0
230
1
100
AcDbArc
50
111.79965346590893
51
191.84913589978214
0
SPLINE
5
446
100
AcDbEntity
8
0
100
AcDbSpline
70
0
71
3
72
8
73
4
74
0
42
0.000000001
43
0.0000000001
44
0.0000000001
40
0
40
0
40
0
40
0
40
1
40
1
40
1
40
1
10
-65.083931353641958
20
20.91474418765829
30
0
10
-63.553134587732643
20
19.469418655177137
30
0
10
-62.228331640781406
20
18.52377016446998
30
0
10
-61.234306201996212
20
17.922319893739612
30
0
0
SPLINE
5
447
100
AcDbEntity
8
0
100
AcDbSpline
70
0
71
3
72
8
73
4
74
0
42
0.000000001
43
0.0000000001
44
0.0000000001
40
0
40
0
40
0
40
0
40
1
40
1
40
1
40
1
10
63.049770395239037
20
-9.7763111407624876
30
0
10
62.564987308846185
20
-9.5636508606532633
30
0
10
62.161170168540352
20
-9.414350675591848
30
0
10
61.84314503947256
20
-9.3101574272570637
30
0
0
SPLINE
5
448
100
AcDbEntity
8
0
100
AcDbSpline
70
0
71
3
72
8
73
4
74
0
42
0.000000001
43
0.0000000001
44
0.0000000001
40
0
40
0
40
0
40
0
40
1
40
1
40
1
40
1
10
50.377738768078146
20
-37.058562523508925
30
0
10
50.676555688250566
20
-37.20924319226188
30
0
10
51.067982212017043
20
-37.388530962497853
30
0
10
51.561484230705929
20
-37.580089812825477
30
0
0
SPLINE
5
449
100
AcDbEntity
8
0
100
AcDbSpline
70
0
71
3
72
8
73
4
74
0
42
0.000000001
43
0.0000000001
44
0.0000000001
40
0
40
0
40
0
40
0
40
1
40
1
40
1
40
1
10
59.490858435434326
20
23.058351394418374
30
0
10
58.964693827238399
20
23.000129056172476
30
0
10
58.540327832719314
20
22.927518239072448
30
0
10
58.212813367737269
20
22.858739674499311
30
0
0
ARC
5
450
100
AcDbEntity
8
0
100
AcDbCircle
10
50.197704778630516
20
-37.415756816077497
30
0
40
0.39999999999998648
210
0
220
-0
230
1
100
AcDbArc
50
63.25086410021791
51
143.30034653409072
0
ARC
5
451
100
AcDbEntity
8
0
100
AcDbCircle
10
-5.3792980083966901e-14
20
-1.055060631840373e-14
30
0
40
68.361865428620121
210
-0
220
0
230
1
100
AcDbArc
50
272.91482679737402
51
274.68517320262595
0
SPLINE
5
452
100
AcDbEntity
8
0
100
AcDbSpline
70
0
71
3
72
8
73
4
74
0
42
0.000000001
43
0.0000000001
44
0.0000000001
40
0
40
0
40
0
40
0
40
1
40
1
40
1
40
1
10
62.527170806794395
20
1.2674898782659549
30
0
10
62.855966787782727
20
1.3298550817296451
30
0
10
63.275649807104145
20
1.4259019002995643
30
0
10
63.783784921536039
20
1.5743530406455253
30
0
0
ARC
5
453
100
AcDbEntity
8
0
100
AcDbCircle
10
-61.952072816845202
20
-9.038202081094834
30
0
40
0.4000000000000733
210
-0
220
0
230
1
100
AcDbArc
50
-71.749135899777528
51
8.3003465340516325
0
ARC
5
454
100
AcDbEntity
8
0
100
AcDbCircle
10
-54.651992721766916
20
30.543544566771146
30
0
40
0.3999999999999887
210
0
220
0
230
1
100
AcDbArc
50
250.75086410021677
51
330.80034653404749
0
ARC
5
455
100
AcDbEntity
8
0
100
AcDbCircle
10
1.1690442216541962e-12
20
-3.0588168640533114e-12
30
0
40
62.207894255932146
210
-0
220
0
230
1
100
AcDbArc
50
291.79966312991922
51
293.30033687008091
0
SPLINE
5
456
100
AcDbEntity
8
0
100
AcDbSpline
70
0
71
3
72
8
73
4
74
0
42
0.000000001
43
0.0000000001
44
0.0000000001
40
0
40
0
40
0
40
0
40
1
40
1
40
1
40
1
10
38.902464779666623
20
-56.213369218963948
30
0
10
38.567860488661459
20
-54.13482535322494
30
0
10
38.092497972012929
20
-52.578103029240054
30
0
10
37.670024296105645
20
-51.495816101351096
30
0
0
ARC
5
457
100
AcDbEntity
8
0
100
AcDbCircle
10
8.7904458312691401e-14
20
1.506413164067292e-13
30
0
40
68.361865428620149
210
-0
220
0
230
1
100
AcDbArc
50
325.41482679737396
51
327.18517320262578
0
SPLINE
5
458
100
AcDbEntity
8
0
100
AcDbSpline
70
0
71
3
72
8
73
4
74
0
42
0.000000001
43
0.0000000001
44
0.0000000001
40
0
40
0
40
0
40
0
40
1
40
1
40
1
40
1
10
40.07812630001294
20
-49.644673417130825
30
0
10
41.015390661766688
20
-50.331233332433428
30
0
10
42.397538586144172
20
-51.190896656861078
30
0
10
44.320155921866807
20
-52.048712029618834
30
0
0
SPLINE
5
459
100
AcDbEntity
8
0
100
AcDbSpline
70
0
71
3
72
8
73
4
74
0
42
0.000000001
43
0.0000000001
44
0.0000000001
40
0
40
0
40
0
40
0
40
1
40
1
40
1
40
1
10
66.821710024245604
20
14.429265896656069
30
0
10
64.77333837069655
20
14.915556141568336
30
0
10
63.15320111827468
20
15.072110284095519
30
0
10
61.991624700913462
20
15.09596877826835
30
0
0
SPLINE
5
460
100
AcDbEntity
8
0
100
AcDbSpline
70
0
71
3
72
8
73
4
74
0
42
0.000000001
43
0.0000000001
44
0.0000000001
40
0
40
0
40
0
40
0
40
1
40
1
40
1
40
1
10
46.215182558784484
20
-43.988711136740328
30
0
10
47.234042545469364
20
-44.547059888549107
30
0
10
48.716574583080792
20
-45.218962168410656
30
0
10
50.734711035205031
20
-45.818486891810586
30
0
0
ARC
5
461
100
AcDbEntity
8
0
100
AcDbCircle
10
-3.2296168739031092e-12
20
1.5674134043165987e-13
30
0
40
62.207894255932274
210
0
220
0
230
1
100
AcDbArc
50
171.79966312991891
51
173.30033687008063
0
SPLINE
5
462
100
AcDbEntity
8
0
100
AcDbSpline
70
0
71
3
72
8
73
4
74
0
42
0.000000001
43
0.0000000001
44
0.0000000001
40
0
40
0
40
0
40
0
40
1
40
1
40
1
40
1
10
45.90696583658741
20
-50.654665456985995
30
0
10
45.303919715519399
20
-48.637578446164426
30
0
10
44.629430953804679
20
-47.15622135668599
30
0
10
44.069304807173857
20
-46.13833742372789
30
0
0
ARC
5
463
100
AcDbEntity
8
0
100
AcDbCircle
10
37.503311306688516
20
-50.132325541470777
30
0
40
0.39999999999999197
210
0
220
0
230
1
100
AcDbArc
50
126.7996534659227
51
206.84913589977518
0
ARC
5
464
100
AcDbEntity
8
0
100
AcDbCircle
10
9.0382020810949335
20
-61.95207281684521
30
0
40
0.39999999999998059
210
0
220
-0
230
1
100
AcDbArc
50
18.250864100227925
51
98.300346534048217
0
SPLINE
5
465
100
AcDbEntity
8
0
100
AcDbSpline
70
0
71
3
72
8
73
4
74
0
42
0.000000001
43
0.0000000001
44
0.0000000001
40
0
40
0
40
0
40
0
40
1
40
1
40
1
40
1
10
17.407523849153794
20
-60.068558607100698
30
0
10
17.552862671674141
20
-60.370009834309222
30
0
10
17.754258732570232
20
-60.750533755659362
30
0
10
18.029166568072771
20
-61.202932603544788
30
0
0
ARC
5
466
100
AcDbEntity
8
0
100
AcDbCircle
10
7.4126575468931213
20
-62.167523123049406
30
0
40
0.3999999999999917
210
0
220
0
230
1
100
AcDbArc
50
96.799653465908889
51
176.84913589977683
0
SPLINE
5
467
100
AcDbEntity
8
0
100
AcDbSpline
70
0
71
3
72
8
73
4
74
0
42
0.000000001
43
0.0000000001
44
0.0000000001
40
0
40
0
40
0
40
0
40
1
40
1
40
1
40
1
10
-1.4630269936614204
20
-63.786435536320589
30
0
10
-1.3154629420483577
20
-63.278042099836284
30
0
10
-1.2201487544443661
20
-62.858192086491577
30
0
10
-1.1583575029205089
20
-62.529287758529357
30
0
0
SPLINE
5
468
100
AcDbEntity
8
0
100
AcDbSpline
70
0
71
3
72
8
73
4
74
0
42
0.000000001
43
0.0000000001
44
0.0000000001
40
0
40
0
40
0
40
0
40
1
40
1
40
1
40
1
10
23.058351394418374
20
-59.490858435434326
30
0
10
23.000129056172476
20
-58.964693827238399
30
0
10
22.927518239072448
20
-58.540327832719314
30
0
10
22.858739674499311
20
-58.212813367737269
30
0
0
SPLINE
5
469
100
AcDbEntity
8
0
100
AcDbSpline
70
0
71
3
72
8
73
4
74
0
42
0.000000001
43
0.0000000001
44
0.0000000001
40
0
40
0
40
0
40
0
40
1
40
1
40
1
40
1
10
30.626199225227104
20
-55.972187088142775
30
0
10
30.499796724367219
20
-55.458123431223626
30
0
10
30.37241622550102
20
-55.046865560085848
30
0
10
30.261476855071287
20
-54.731130430894062
30
0
0
SPLINE
5
470
100
AcDbEntity
8
0
100
AcDbSpline
70
0
71
3
72
8
73
4
74
0
42
0.000000001
43
0.0000000001
44
0.0000000001
40
0
40
0
40
0
40
0
40
1
40
1
40
1
40
1
10
18.029166568072771
20
-61.202932603544788
30
0
10
18.632350823536925
20
-62.19590680012498
30
0
10
19.580310090101939
20
-63.519057262151406
30
0
10
21.028305164244941
20
-65.047329128874708
30
0
0
SPLINE
5
471
100
AcDbEntity
8
0
100
AcDbSpline
70
0
71
3
72
8
73
4
74
0
42
0.000000001
43
0.0000000001
44
0.0000000001
40
0
40
0
40
0
40
0
40
1
40
1
40
1
40
1
10
25.863510294209423
20
-58.326054569760579
30
0
10
26.591143365603386
20
-59.231802390363882
30
0
10
27.703698500773459
20
-60.419899603319976
30
0
10
29.338785283767503
20
-61.746095608983687
30
0
0
ARC
5
472
100
AcDbEntity
8
0
100
AcDbCircle
10
-61.967753088935154
20
8.9300616051159523
30
0
40
0.39999999999999114
210
-0
220
0
230
1
100
AcDbArc
50
-8.2003465340907962
51
71.849135899783732
0
SPLINE
5
473
100
AcDbEntity
8
0
100
AcDbSpline
70
0
71
3
72
8
73
4
74
0
42
0.000000001
43
0.0000000001
44
0.0000000001
40
0
40
0
40
0
40
0
40
1
40
1
40
1
40
1
10
6.8752899509289236
20
-63.431697080434645
30
0
10
6.9552329122103105
20
-62.908392046510421
30
0
10
6.9949302501808273
20
-62.479692910259729
30
0
10
7.013262239448391
20
-62.145537027643947
30
0
0
ARC
5
474
100
AcDbEntity
8
0
100
AcDbCircle
10
6.7044367537314653e-13
20
-3.0055299496348644e-12
30
0
40
62.207894255932381
210
-0
220
0
230
1
100
AcDbArc
50
284.29966312991934
51
285.80033687008097
0
ARC
5
475
100
AcDbEntity
8
0
100
AcDbCircle
10
-1.8356595241172003e-13
20
-8.032148601201395e-14
30
0
40
68.361865428620149
210
-0
220
0
230
1
100
AcDbArc
50
295.41482679737425
51
297.185173202626
0
ARC
5
476
100
AcDbEntity
8
0
100
AcDbCircle
10
5.9178325717721432e-13
20
-3.121695945559837e-12
30
0
40
62.207894255932274
210
-0
220
0
230
1
100
AcDbArc
50
276.79966312991905
51
278.30033687008097
0
ARC
5
477
100
AcDbEntity
8
0
100
AcDbCircle
10
32.058241781106723
20
-53.777481877329471
30
0
40
0.3999999999999907
210
0
220
-0
230
1
100
AcDbArc
50
40.750864100218273
51
120.80034653409189
0
ARC
5
478
100
AcDbEntity
8
0
100
AcDbCircle
10
-0.76524883901274987
20
-62.603217308512086
30
0
40
0.39999999999995933
210
0
220
-0
230
1
100
AcDbArc
50
89.299653465917999
51
169.34913589978206
0
SPLINE
5
479
100
AcDbEntity
8
0
100
AcDbSpline
70
0
71
3
72
8
73
4
74
0
42
0.000000001
43
0.0000000001
44
0.0000000001
40
0
40
0
40
0
40
0
40
1
40
1
40
1
40
1
10
32.361263837015152
20
-53.516373406319659
30
0
10
32.579671678021043
20
-53.769936476786022
30
0
10
32.872692172515997
20
-54.085369223770279
30
0
10
33.255322188492329
20
-54.45120157125033
30
0
0
ARC
5
480
100
AcDbEntity
8
0
100
AcDbCircle
10
0.8745108444374694
20
-62.601786347877976
30
0
40
0.39999999999998914
210
0
220
-0
230
1
100
AcDbArc
50
10.750864100216521
51
90.800346534045644
0
ARC
5
481
100
AcDbEntity
8
0
100
AcDbCircle
10
4.5172615777070575e-16
20
6.9854093279052518e-15
30
0
40
68.361865428620106
210
-0
220
0
230
1
100
AcDbArc
50
287.91482679737408
51
289.685173202626
0
ARC
5
482
100
AcDbEntity
8
0
100
AcDbCircle
10
8.6403443024377804e-14
20
-1.9798849722530121e-13
30
0
40
68.361865428620121
210
0
220
-0
230
1
100
AcDbArc
50
25.414826797374268
51
27.185173202626004
0
ARC
5
483
100
AcDbEntity
8
0
100
AcDbCircle
10
49.132967835943901
20
38.803349015188111
30
0
40
0.39999999999999958
210
0
220
0
230
1
100
AcDbArc
50
138.25086410022203
51
218.3003465341088
0
SPLINE
5
484
100
AcDbEntity
8
0
100
AcDbSpline
70
0
71
3
72
8
73
4
74
0
42
0.000000001
43
0.0000000001
44
0.0000000001
40
0
40
0
40
0
40
0
40
1
40
1
40
1
40
1
10
46.138337423727776
20
44.069304807173857
30
0
10
45.674505435724022
20
43.814159902280082
30
0
10
45.310229335808778
20
43.584678419160817
30
0
10
45.033965842174467
20
43.39580095146772
30
0
0
ARC
5
485
100
AcDbEntity
8
0
100
AcDbCircle
10
-17.651048002871207
20
-33.763913246525831
30
0
40
26.116303975076249
210
-0
220
0
230
1
100
AcDbArc
50
-61.688804928877879
51
51.088804928877863
0
ARC
5
486
100
AcDbEntity
8
0
100
AcDbCircle
10
-22.087107364369029
20
-27.335076680770701
30
0
40
40.903334497259259
210
-0
220
0
230
1
100
AcDbArc
50
-45.748005949377998
51
32.529679252704923
0
ARC
5
487
100
AcDbEntity
8
0
100
AcDbCircle
10
26.656915907317472
20
-27.220767212347106
30
0
40
26.116303975076253
210
0
220
-0
230
1
100
AcDbArc
50
10.311195071122127
51
123.08880492887788
0
ARC
5
488
100
AcDbEntity
8
0
100
AcDbCircle
10
19.171911268500587
20
-29.453090621894319
30
0
40
40.903334497259252
210
0
220
-0
230
1
100
AcDbArc
50
26.251994050621992
51
104.52967925270492
0
ARC
5
489
100
AcDbEntity
8
0
100
AcDbCircle
10
34.125928068841134
20
16.940553909446589
30
0
40
26.116303975076249
210
0
220
-0
230
1
100
AcDbArc
50
82.3111950711221
51
195.08880492887781
0
ARC
5
490
100
AcDbEntity
8
0
100
AcDbCircle
10
33.936000157599494
20
9.1320656027092273
30
0
40
40.903334497259259
210
0
220
0
230
1
100
AcDbArc
50
98.251994050621974
51
176.52967925270497
0
ARC
5
491
100
AcDbEntity
8
0
100
AcDbCircle
10
-5.5659324631395712
20
37.690605316635008
30
0
40
26.116303975076253
210
0
220
0
230
1
100
AcDbArc
50
154.31119507112214
51
267.08880492887783
0
ARC
5
492
100
AcDbEntity
8
0
100
AcDbCircle
10
1.8016902711177039
20
35.097017551862415
30
0
40
40.903334497259259
210
0
220
0
230
1
100
AcDbArc
50
170.25199405062202
51
248.52967925270488
0
ARC
5
493
100
AcDbEntity
8
0
100
AcDbCircle
10
-37.565863510147814
20
6.3535212327913451
30
0
40
26.116303975076253
210
0
220
0
230
1
100
AcDbArc
50
226.31119507112209
51
339.08880492887783
0
ARC
5
494
100
AcDbEntity
8
0
100
AcDbCircle
10
-32.822494332848748
20
12.559084148093376
30
0
40
40.903334497259259
210
0
220
0
230
1
100
AcDbArc
50
242.25199405062193
51
320.52967925270485
0
ARC
5
495
100
AcDbEntity
8
0
100
AcDbCircle
10
3.4118057626715627e-14
20
-3.0264800408727492e-14
30
0
40
56.999999999999993
210
-0
220
0
230
1
100
AcDbArc
50
276.50332414092554
51
336.69999999999999
0
ARC
5
496
100
AcDbEntity
8
0
100
AcDbCircle
10
3.4118057626715627e-14
20
-3.0264800408727492e-14
30
0
40
56.999999999999993
210
-0
220
0
230
1
100
AcDbArc
50
-11.496675859074339
51
48.699999999999989
0
ARC
5
497
100
AcDbEntity
8
0
100
AcDbCircle
10
3.4118057626715627e-14
20
-3.0264800408727492e-14
30
0
40
57.000000000000028
210
0
220
-0
230
1
100
AcDbArc
50
60.503324140925635
51
120.69999999999997
0
ARC
5
498
100
AcDbEntity
8
0
100
AcDbCircle
10
3.4118057626715627e-14
20
-3.0264800408727492e-14
30
0
40
57.000000000000085
210
0
220
0
230
1
100
AcDbArc
50
132.50332414092557
51
192.69999999999987
0
ARC
5
499
100
AcDbEntity
8
0
100
AcDbCircle
10
3.4118057626715627e-14
20
-3.0264800408727492e-14
30
0
40
57.000000000000057
210
0
220
0
230
1
100
AcDbArc
50
204.50332414092551
51
264.69999999999993
0
ENDSEC
0
SECTION
2
OBJECTS
0
DICTIONARY
5
C
100
AcDbDictionary
3
ACAD_GROUP
350
D
3
ACAD_MLINESTYLE
350
17
0
DICTIONARY
5
D
100
AcDbDictionary
0
DICTIONARY
5
1A
330
C
100
AcDbDictionary
0
DICTIONARY
5
17
100
AcDbDictionary
0
ENDSEC
0
EOF
