0
SECTION
2
HEADER
9
$INSUNITS
70
4
9
$ACADVER
1
AC1014
9
$HANDSEED
5
FFFF
0
ENDSEC
0
SECTION
2
TABLES
0
TABLE
2
VPORT
5
8
100
AcDbSymbolTable
0
ENDTAB
0
TABLE
2
LTYPE
5
5
100
AcDbSymbolTable
0
LTYPE
5
14
100
AcDbSymbolTableRecord
100
AcDbLinetypeTableRecord
2
BYBLOCK
70
0
0
LTYPE
5
15
100
AcDbSymbolTableRecord
100
AcDbLinetypeTableRecord
2
BYLAYER
70
0
0
ENDTAB
0
TABLE
2
LAYER
5
2
100
AcDbSymbolTable
70
2
0
LAYER
5
50
100
AcDbSymbolTableRecord
100
AcDbLayerTableRecord
2
0
70
0
6
CONTINUOUS
0
ENDTAB
0
TABLE
2
STYLE
5
3
100
AcDbSymbolTable
70
1
0
STYLE
5
11
100
AcDbSymbolTableRecord
100
AcDbTextStyleTableRecord
2
STANDARD
70
0
0
ENDTAB
0
TABLE
2
VIEW
5
6
100
AcDbSymbolTable
70
0
0
ENDTAB
0
TABLE
2
UCS
5
7
100
AcDbSymbolTable
70
0
0
ENDTAB
0
TABLE
2
APPID
5
9
100
AcDbSymbolTable
70
2
0
APPID
5
12
100
AcDbSymbolTableRecord
100
AcDbRegAppTableRecord
2
ACAD
70
0
0
ENDTAB
0
TABLE
2
DIMSTYLE
5
A
100
AcDbSymbolTable
70
1
0
ENDTAB
0
TABLE
2
BLOCK_RECORD
5
1
100
AcDbSymbolTable
70
1
0
BLOCK_RECORD
5
1F
100
AcDbSymbolTableRecord
100
AcDbBlockTableRecord
2
*MODEL_SPACE
0
BLOCK_RECORD
5
1B
100
AcDbSymbolTableRecord
100
AcDbBlockTableRecord
2
*PAPER_SPACE
0
ENDTAB
0
ENDSEC
0
SECTION
2
BLOCKS
0
BLOCK
5
20
100
AcDbEntity
100
AcDbBlockBegin
2
*MODEL_SPACE
0
ENDBLK
5
21
100
AcDbEntity
100
AcDbBlockEnd
0
BLOCK
5
1C
100
AcDbEntity
100
AcDbBlockBegin
2
*PAPER_SPACE
0
ENDBLK
5
1D
100
AcDbEntity
100
AcDbBlockEnd
0
ENDSEC
0
SECTION
2
ENTITIES
0
SPLINE
5
100
100
AcDbEntity
8
0
100
AcDbSpline
70
0
71
3
72
8
73
4
74
0
42
0.000000001
43
0.0000000001
44
0.0000000001
40
0
40
0
40
0
40
0
40
1
40
1
40
1
40
1
10
-1.7980566877989033
20
19.466841819782626
30
0
10
-1.6355691403824832
20
20.019452368698857
30
0
10
-1.5313961745405344
20
20.474044874582852
30
0
10
-1.464384277951102
20
20.827722611329037
30
0
0
SPLINE
5
101
100
AcDbEntity
8
0
100
AcDbSpline
70
0
71
3
72
8
73
4
74
0
42
0.000000001
43
0.0000000001
44
0.0000000001
40
0
40
0
40
0
40
0
40
1
40
1
40
1
40
1
10
-7.4517382264589962
20
19.852271159843514
30
0
10
-7.2669210485114473
20
18.626850794103056
30
0
10
-6.8787422706328085
20
16.934601690793759
30
0
10
-6.0829417726846611
20
14.834672564115293
30
0
0
ARC
5
102
100
AcDbEntity
8
0
100
AcDbCircle
10
8.099076964640517e-13
20
87.500000000000057
30
0
40
72.919489795076288
210
0
220
0
230
1
100
AcDbArc
50
257.71482679737397
51
259.48517320262499
0
ARC
5
103
100
AcDbEntity
8
0
100
AcDbCircle
10
-9.7743768352203926
20
21.464225797149471
30
0
40
0.40000000000001468
210
0
220
-0
230
1
100
AcDbArc
50
81.580438554719649
51
161.7858369827072
0
ARC
5
104
100
AcDbEntity
8
0
100
AcDbCircle
10
3.7608804959177178e-13
20
87.500000000000114
30
0
40
72.919489795076231
210
0
220
0
230
1
100
AcDbArc
50
92.714826797374087
51
94.485173202625916
0
SPLINE
5
105
100
AcDbEntity
8
0
100
AcDbSpline
70
0
71
3
72
8
73
4
74
0
42
0.000000001
43
0.0000000001
44
0.0000000001
40
0
40
0
40
0
40
0
40
1
40
1
40
1
40
1
10
-16.217788030765799
20
21.403653873938254
30
0
10
-16.194501443605024
20
20.164593666807647
30
0
10
-16.030526420725721
20
18.436154491390162
30
0
10
-15.515629859193554
20
16.250317740731614
30
0
0
SPLINE
5
106
100
AcDbEntity
8
0
100
AcDbSpline
70
0
71
3
72
8
73
4
74
0
42
0.000000001
43
0.0000000001
44
0.0000000001
40
0
40
0
40
0
40
0
40
1
40
1
40
1
40
1
10
-35.573741859187024
20
29.480585060146325
30
0
10
-35.156718240867654
20
29.877916060198878
30
0
10
-34.839205553118944
20
30.2195182357435
30
0
10
-34.604332679943674
20
30.49230619222385
30
0
0
SPLINE
5
107
100
AcDbEntity
8
0
100
AcDbSpline
70
0
71
3
72
8
73
4
74
0
42
0.000000001
43
0.0000000001
44
0.0000000001
40
0
40
0
40
0
40
0
40
1
40
1
40
1
40
1
10
-24.486584766758753
20
25.469812510635382
30
0
10
-24.5618646041451
20
25.117801883185834
30
0
10
-24.641993067058181
20
24.658361155072352
30
0
10
-24.706346985445876
20
24.085963395619196
30
0
0
SPLINE
5
108
100
AcDbEntity
8
0
100
AcDbSpline
70
0
71
3
72
8
73
4
74
0
42
0.000000001
43
0.0000000001
44
0.0000000001
40
0
40
0
40
0
40
0
40
1
40
1
40
1
40
1
10
-19.345066427389323
20
22.25038678469501
30
0
10
-19.045089374305427
20
22.742112713909624
30
0
10
-18.826808817913843
20
23.154253408235764
30
0
10
-18.670541762230886
20
23.478535913256575
30
0
0
SPLINE
5
109
100
AcDbEntity
8
0
100
AcDbSpline
70
0
71
3
72
8
73
4
74
0
42
0.000000001
43
0.0000000001
44
0.0000000001
40
0
40
0
40
0
40
0
40
1
40
1
40
1
40
1
10
-7.5976307303010717
20
21.245845407315159
30
0
10
-7.5792384149689749
20
20.886345395505579
30
0
10
-7.5377245561859505
20
20.42182095831506
30
0
10
-7.4517382264589962
20
19.852271159843514
30
0
0
SPLINE
5
110
100
AcDbEntity
8
0
100
AcDbSpline
70
0
71
3
72
8
73
4
74
0
42
0.000000001
43
0.0000000001
44
0.0000000001
40
0
40
0
40
0
40
0
40
1
40
1
40
1
40
1
10
-16.180534463914505
20
22.804348693536944
30
0
10
-16.209223665034351
20
22.44552357527806
30
0
10
-16.228697569047796
20
21.979554563131618
30
0
10
-16.217788030765799
20
21.403653873938254
30
0
0
ARC
5
111
100
AcDbEntity
8
0
100
AcDbCircle
10
-32.750518953163493
20
29.330717510139259
30
0
40
0.40000000000002173
210
-0
220
0
230
1
100
AcDbArc
50
-19.585836982710003
51
60.619561445280723
0
ARC
5
112
100
AcDbEntity
8
0
100
AcDbCircle
10
2.4147350785597155e-14
20
87.500000000000227
30
0
40
72.919489795076259
210
0
220
0
230
1
100
AcDbArc
50
250.2148267973744
51
251.98517320262624
0
SPLINE
5
113
100
AcDbEntity
8
0
100
AcDbSpline
70
0
71
3
72
8
73
4
74
0
42
0.000000001
43
0.0000000001
44
0.0000000001
40
0
40
0
40
0
40
0
40
1
40
1
40
1
40
1
10
-27.696350259195125
20
25.333644130068414
30
0
10
-27.334756438228709
20
25.782008413300055
30
0
10
-27.064548146767258
20
26.162131856991234
30
0
10
-26.867290616824331
20
26.463243136479765
30
0
0
ARC
5
114
100
AcDbEntity
8
0
100
AcDbCircle
10
-26.532639042808576
20
26.244135117437295
30
0
40
0.4000000000000149
210
0
220
-0
230
1
100
AcDbArc
50
66.580438554720089
51
146.78583698270737
0
ARC
5
115
100
AcDbEntity
8
0
100
AcDbCircle
10
3.6720626539477053e-13
20
87.500000000000114
30
0
40
72.919489795076274
210
-0
220
0
230
1
100
AcDbArc
50
272.71482679737403
51
274.48517320262596
0
ARC
5
116
100
AcDbEntity
8
0
100
AcDbCircle
10
-4.1661118999058999e-13
20
87.499999999996874
30
0
40
66.35523887371194
210
0
220
0
230
1
100
AcDbArc
50
254.08041811484088
51
255.61958188515908
0
ARC
5
117
100
AcDbEntity
8
0
100
AcDbCircle
10
-16.579253932905612
20
22.836329704269154
30
0
40
0.40000000000000263
210
-0
220
0
230
1
100
AcDbArc
50
-4.5858369827060992
51
75.619561445281391
0
SPLINE
5
118
100
AcDbEntity
8
0
100
AcDbSpline
70
0
71
3
72
8
73
4
74
0
42
0.000000001
43
0.0000000001
44
0.0000000001
40
0
40
0
40
0
40
0
40
1
40
1
40
1
40
1
10
32.373662815280653
20
145.80336996630615
30
0
10
32.494245230044342
20
146.14254310351501
30
0
10
32.633657231640775
20
146.58759438935647
30
0
10
32.772173493312174
20
147.14669533470672
30
0
0
SPLINE
5
119
100
AcDbEntity
8
0
100
AcDbSpline
70
0
71
3
72
8
73
4
74
0
42
0.000000001
43
0.0000000001
44
0.0000000001
40
0
40
0
40
0
40
0
40
1
40
1
40
1
40
1
10
58.30336996630642
20
55.126337184719844
30
0
10
58.642543103515294
20
55.005754769956063
30
0
10
59.087594389356759
20
54.866342768359722
30
0
10
59.646695334706969
20
54.727826506688316
30
0
0
ARC
5
120
100
AcDbEntity
8
0
100
AcDbCircle
10
-41.208328508514626
20
140.0179548213857
30
0
40
0.40000000000001862
210
0
220
0
230
1
100
AcDbArc
50
227.91416301729257
51
308.11956144528051
0
ARC
5
121
100
AcDbEntity
8
0
100
AcDbCircle
10
32.445497757937282
20
29.160034347571994
30
0
40
0.40000000000001967
210
0
220
0
230
1
100
AcDbArc
50
119.08043855472152
51
199.28583698270342
0
ARC
5
122
100
AcDbEntity
8
0
100
AcDbCircle
10
-1.8346435481930712e-12
20
87.500000000000497
30
0
40
66.355238873712992
210
0
220
0
230
1
100
AcDbArc
50
171.58041811484105
51
173.11958188515922
0
SPLINE
5
123
100
AcDbEntity
8
0
100
AcDbSpline
70
0
71
3
72
8
73
4
74
0
42
0.000000001
43
0.0000000001
44
0.0000000001
40
0
40
0
40
0
40
0
40
1
40
1
40
1
40
1
10
59.81747162765344
20
119.9594163210302
30
0
10
59.257653080184561
20
119.82382939043335
30
0
10
58.811877938797977
20
119.68674957229803
30
0
10
58.472078085728079
20
119.56794470872714
30
0
0
ARC
5
124
100
AcDbEntity
8
0
100
AcDbCircle
10
2.2121193765656244e-13
20
87.499999999999972
30
0
40
72.919489795076274
210
0
220
0
230
1
100
AcDbArc
50
130.21482679737397
51
131.98517320262599
0
SPLINE
5
125
100
AcDbEntity
8
0
100
AcDbSpline
70
0
71
3
72
8
73
4
74
0
42
0.000000001
43
0.0000000001
44
0.0000000001
40
0
40
0
40
0
40
0
40
1
40
1
40
1
40
1
10
71.329944863018
20
102.64235641546929
30
0
10
69.146834055041893
20
103.16869088109455
30
0
10
67.419277139929903
20
103.34171370125219
30
0
10
66.180355845258248
20
103.37148764363563
30
0
0
SPLINE
5
126
100
AcDbEntity
8
0
100
AcDbSpline
70
0
71
3
72
8
73
4
74
0
42
0.000000001
43
0.0000000001
44
0.0000000001
40
0
40
0
40
0
40
0
40
1
40
1
40
1
40
1
10
66.254154592685353
20
79.902369269698653
30
0
10
66.61365460449494
20
79.92076158503076
30
0
10
67.078179041685445
20
79.96227544381378
30
0
10
67.647728840157001
20
80.048261773540744
30
0
0
ARC
5
127
100
AcDbEntity
8
0
100
AcDbCircle
10
-64.195016810631969
20
105.81015384341219
30
0
40
0.40000000000004876
210
-0
220
0
230
1
100
AcDbArc
50
-15.919561445258262
51
64.285836982706584
0
SPLINE
5
128
100
AcDbEntity
8
0
100
AcDbSpline
70
0
71
3
72
8
73
4
74
0
42
0.000000001
43
0.0000000001
44
0.0000000001
40
0
40
0
40
0
40
0
40
1
40
1
40
1
40
1
10
22.551307102554606
20
156.84472250965126
30
0
10
21.003932680447729
20
155.21726032348025
30
0
10
19.990312065200925
20
153.80766355858864
30
0
10
19.34506642739019
20
152.74961321530523
30
0
0
ARC
5
129
100
AcDbEntity
8
0
100
AcDbCircle
10
52.517954821385956
20
128.70832850851514
30
0
40
0.3999999999999625
210
0
220
0
230
1
100
AcDbArc
50
137.91416301729302
51
218.11956144532596
0
SPLINE
5
130
100
AcDbEntity
8
0
100
AcDbSpline
70
0
71
3
72
8
73
4
74
0
42
0.000000001
43
0.0000000001
44
0.0000000001
40
0
40
0
40
0
40
0
40
1
40
1
40
1
40
1
10
-53.103342426299619
20
44.935006836813081
30
0
10
-53.839159996912329
20
43.937818306587353
30
0
10
-54.761276967168456
20
42.466733644029873
30
0
10
-55.683435164083122
20
40.419143589973544
30
0
0
SPLINE
5
131
100
AcDbEntity
8
0
100
AcDbSpline
70
0
71
3
72
8
73
4
74
0
42
0.000000001
43
0.0000000001
44
0.0000000001
40
0
40
0
40
0
40
0
40
1
40
1
40
1
40
1
10
-54.20236609418162
20
38.721362239536731
30
0
10
-52.048569442385251
20
39.357098625405968
30
0
10
-50.465949857336071
20
40.071034925271022
30
0
10
-49.378125571669138
20
40.664710582131967
30
0
0
SPLINE
5
132
100
AcDbEntity
8
0
100
AcDbSpline
70
0
71
3
72
8
73
4
74
0
42
0.000000001
43
0.0000000001
44
0.0000000001
40
0
40
0
40
0
40
0
40
1
40
1
40
1
40
1
10
61.145150618824502
20
47.769375190219648
30
0
10
59.973632832238827
20
49.685242316437098
30
0
10
58.874411232110887
20
51.029155135431914
30
0
10
58.019414939854173
20
51.926258140812706
30
0
0
ARC
5
133
100
AcDbEntity
8
0
100
AcDbCircle
10
2.8985147615401274e-12
20
87.499999999998167
30
0
40
66.355238873712096
210
-0
220
0
230
1
100
AcDbArc
50
321.58041811484088
51
323.11958188515894
0
SPLINE
5
134
100
AcDbEntity
8
0
100
AcDbSpline
70
0
71
3
72
8
73
4
74
0
42
0.000000001
43
0.0000000001
44
0.0000000001
40
0
40
0
40
0
40
0
40
1
40
1
40
1
40
1
10
41.476425783922259
20
35.278901795383277
30
0
10
41.743636011002522
20
35.037702230089181
30
0
10
42.101459121625481
20
34.738588581583592
30
0
10
42.564993163187417
20
34.396657573700125
30
0
0
ARC
5
135
100
AcDbEntity
8
0
100
AcDbCircle
10
3.3764657736412573e-12
20
87.500000000000341
30
0
40
66.355238873712295
210
0
220
-0
230
1
100
AcDbArc
50
6.580418114840878
51
8.1195818851591373
0
ARC
5
136
100
AcDbEntity
8
0
100
AcDbCircle
10
4.8655524054197485e-13
20
87.499999999998977
30
0
40
66.355238873714086
210
-0
220
0
230
1
100
AcDbArc
50
276.580418114841
51
278.11958188515894
0
SPLINE
5
137
100
AcDbEntity
8
0
100
AcDbSpline
70
0
71
3
72
8
73
4
74
0
42
0.000000001
43
0.0000000001
44
0.0000000001
40
0
40
0
40
0
40
0
40
1
40
1
40
1
40
1
10
-47.371767489823938
20
32.063841791983386
30
0
10
-45.319377116659595
20
32.975266240717019
30
0
10
-43.843484448262089
20
33.889668024735833
30
0
10
-42.842456873063739
20
34.620254265865931
30
0
0
SPLINE
5
138
100
AcDbEntity
8
0
100
AcDbSpline
70
0
71
3
72
8
73
4
74
0
42
0.000000001
43
0.0000000001
44
0.0000000001
40
0
40
0
40
0
40
0
40
1
40
1
40
1
40
1
10
-72.696181420665681
20
81.797614637028403
30
0
10
-70.600447861920486
20
80.990829894760708
30
0
10
-68.910254445584215
20
80.593795882842073
30
0
10
-67.68581857366209
20
80.402564981609288
30
0
0
ARC
5
139
100
AcDbEntity
8
0
100
AcDbCircle
10
57.447422645494434
20
121.50081687955101
30
0
40
0.39999999999997549
210
0
220
0
230
1
100
AcDbArc
50
130.41416301729114
51
210.61956144528403
0
ARC
5
140
100
AcDbEntity
8
0
100
AcDbCircle
10
1.9956258867637189e-13
20
87.500000000000483
30
0
40
72.919489795076288
210
0
220
-0
230
1
100
AcDbArc
50
25.214826797373732
51
26.985173202625599
0
ARC
5
141
100
AcDbEntity
8
0
100
AcDbCircle
10
1.1435297153639112e-13
20
87.499999999999972
30
0
40
72.919489795076288
210
0
220
0
230
1
100
AcDbArc
50
115.21482679737382
51
116.98517320262567
0
SPLINE
5
142
100
AcDbEntity
8
0
100
AcDbSpline
70
0
71
3
72
8
73
4
74
0
42
0.000000001
43
0.0000000001
44
0.0000000001
40
0
40
0
40
0
40
0
40
1
40
1
40
1
40
1
10
-27.370469813612438
20
149.81052079712671
30
0
10
-28.143236367641133
20
150.77935737519897
30
0
10
-29.325533602148568
20
152.05079869925694
30
0
10
-31.064681613055232
20
153.47149042013325
30
0
0
SPLINE
5
143
100
AcDbEntity
8
0
100
AcDbSpline
70
0
71
3
72
8
73
4
74
0
42
0.000000001
43
0.0000000001
44
0.0000000001
40
0
40
0
40
0
40
0
40
1
40
1
40
1
40
1
10
66.180355845258248
20
103.37148764363563
30
0
10
65.604520172316924
20
103.38541242755147
30
0
10
65.138455582901386
20
103.36837858737566
30
0
10
64.779485167709055
20
103.34156857486136
30
0
0
SPLINE
5
144
100
AcDbEntity
8
0
100
AcDbSpline
70
0
71
3
72
8
73
4
74
0
42
0.000000001
43
0.0000000001
44
0.0000000001
40
0
40
0
40
0
40
0
40
1
40
1
40
1
40
1
10
-10.310694178080546
20
154.77134014863341
30
0
10
-10.806375992312152
20
155.90717112244783
30
0
10
-11.619314196076505
20
157.44129017522923
30
0
10
-12.931500100968247
20
159.26369762709336
30
0
0
ARC
5
145
100
AcDbEntity
8
0
100
AcDbCircle
10
-61.393949140703299
20
61.288458153029801
30
0
40
0.40000000000000924
210
-0
220
0
230
1
100
AcDbArc
50
-57.085836982709445
51
23.119561445279803
0
SPLINE
5
146
100
AcDbEntity
8
0
100
AcDbSpline
70
0
71
3
72
8
73
4
74
0
42
0.000000001
43
0.0000000001
44
0.0000000001
40
0
40
0
40
0
40
0
40
1
40
1
40
1
40
1
10
47.371767489824713
20
142.93615820801685
30
0
10
45.319377116660334
20
142.02473375928324
30
0
10
43.843484448262863
20
141.11033197526442
30
0
10
42.842456873064513
20
140.3797457341343
30
0
0
ARC
5
147
100
AcDbEntity
8
0
100
AcDbCircle
10
-40.062948671013643
20
34.103164317813118
30
0
40
0.40000000000002323
210
-0
220
0
230
1
100
AcDbArc
50
-27.085836982707296
51
53.119561445327619
0
ARC
5
148
100
AcDbEntity
8
0
100
AcDbCircle
10
7.997113458516977
20
153.77449051798447
30
0
40
0.39999999999998692
210
0
220
0
230
1
100
AcDbArc
50
182.91416301729205
51
263.11956144528125
0
ARC
5
149
100
AcDbEntity
8
0
100
AcDbCircle
10
47.954566780912643
20
133.93943843267078
30
0
40
0.4000000000000315
210
0
220
0
230
1
100
AcDbArc
50
224.08043855471863
51
304.28583698271001
0
SPLINE
5
150
100
AcDbEntity
8
0
100
AcDbSpline
70
0
71
3
72
8
73
4
74
0
42
0.000000001
43
0.0000000001
44
0.0000000001
40
0
40
0
40
0
40
0
40
1
40
1
40
1
40
1
10
-65.963010550680664
20
77.690910715252272
30
0
10
-66.305500615147338
20
77.580099653096838
30
0
10
-66.743452188683293
20
77.419772573488984
30
0
10
-67.271340148632916
20
77.189305821919191
30
0
0
ARC
5
151
100
AcDbEntity
8
0
100
AcDbCircle
10
26.532639042809244
20
148.75586488256295
30
0
40
0.40000000000002595
210
0
220
0
230
1
100
AcDbArc
50
246.58043855472314
51
326.7858369827153
0
ARC
5
152
100
AcDbEntity
8
0
100
AcDbCircle
10
3.8533065627177621e-12
20
87.499999999999275
30
0
40
66.355238873711656
210
-0
220
0
230
1
100
AcDbArc
50
351.58041811484122
51
353.11958188515945
0
SPLINE
5
153
100
AcDbEntity
8
0
100
AcDbSpline
70
0
71
3
72
8
73
4
74
0
42
0.000000001
43
0.0000000001
44
0.0000000001
40
0
40
0
40
0
40
0
40
1
40
1
40
1
40
1
10
-63.542528879679445
20
63.126025285110202
30
0
10
-62.969802011723971
20
63.187381267384602
30
0
10
-62.509948031776645
20
63.26510301688139
30
0
10
-62.157548067095824
20
63.338538707436854
30
0
0
ARC
5
154
100
AcDbEntity
8
0
100
AcDbCircle
10
3.3437141944148152e-12
20
87.500000000001393
30
0
40
66.355238873712096
210
0
220
-0
230
1
100
AcDbArc
50
14.080418114840404
51
15.619581885158468
0
ARC
5
155
100
AcDbEntity
8
0
100
AcDbCircle
10
-1.8710033522495451e-12
20
87.499999999997613
30
0
40
66.355238873711897
210
0
220
0
230
1
100
AcDbArc
50
224.08041811484074
51
225.61958188515896
0
SPLINE
5
156
100
AcDbEntity
8
0
100
AcDbSpline
70
0
71
3
72
8
73
4
74
0
42
0.000000001
43
0.0000000001
44
0.0000000001
40
0
40
0
40
0
40
0
40
1
40
1
40
1
40
1
10
3.8351550840864581
20
160.31856615901776
30
0
10
2.7617243757995236
20
158.34606843174069
30
0
10
2.1474725341424246
20
156.72215819214389
30
0
10
1.7980566877996826
20
155.53315818021761
30
0
0
ARC
5
157
100
AcDbEntity
8
0
100
AcDbCircle
10
18.310153843412444
20
151.69501681063244
30
0
40
0.39999999999999025
210
0
220
0
230
1
100
AcDbArc
50
254.08043855472906
51
334.28583698271058
0
ARC
5
158
100
AcDbEntity
8
0
100
AcDbCircle
10
-2.3309132402005162e-12
20
87.499999999997996
30
0
40
66.355238873711798
210
0
220
0
230
1
100
AcDbArc
50
216.58041811484082
51
218.11958188515896
0
ARC
5
159
100
AcDbEntity
8
0
100
AcDbCircle
10
4.9654724776360126e-13
20
87.500000000000284
30
0
40
72.919489795076231
210
0
220
0
230
1
100
AcDbArc
50
145.21482679737429
51
146.98517320262613
0
SPLINE
5
160
100
AcDbEntity
8
0
100
AcDbSpline
70
0
71
3
72
8
73
4
74
0
42
0.000000001
43
0.0000000001
44
0.0000000001
40
0
40
0
40
0
40
0
40
1
40
1
40
1
40
1
10
62.030187489365133
20
63.013415233240977
30
0
10
62.382198116814678
20
62.938135395854644
30
0
10
62.841638844928163
20
62.858006932941549
30
0
10
63.414036604381309
20
62.793653014553854
30
0
0
ARC
5
161
100
AcDbEntity
8
0
100
AcDbCircle
10
-58.169282489860485
20
120.250518953164
30
0
40
0.40000000000000491
210
0
220
0
230
1
100
AcDbArc
50
250.41416301728941
51
330.61956144530723
0
SPLINE
5
162
100
AcDbEntity
8
0
100
AcDbSpline
70
0
71
3
72
8
73
4
74
0
42
0.000000001
43
0.0000000001
44
0.0000000001
40
0
40
0
40
0
40
0
40
1
40
1
40
1
40
1
10
66.096346126062258
20
71.282211969233927
30
0
10
67.335406333192864
20
71.30549855639471
30
0
10
69.063845508610356
20
71.469473579274009
30
0
10
71.24968225926888
20
71.984370140806192
30
0
0
SPLINE
5
163
100
AcDbEntity
8
0
100
AcDbSpline
70
0
71
3
72
8
73
4
74
0
42
0.000000001
43
0.0000000001
44
0.0000000001
40
0
40
0
40
0
40
0
40
1
40
1
40
1
40
1
10
-63.414036604380541
20
112.20634698544637
30
0
10
-64.645535989224811
20
112.34498942903505
30
0
10
-66.380591163245356
20
112.40802381925894
30
0
10
-68.614935265051798
20
112.18284121706689
30
0
0
ARC
5
164
100
AcDbEntity
8
0
100
AcDbCircle
10
2.3980817331903381e-13
20
87.5
30
0
40
72.919489795076259
210
-0
220
0
230
1
100
AcDbArc
50
302.71482679737397
51
304.48517320262596
0
SPLINE
5
165
100
AcDbEntity
8
0
100
AcDbSpline
70
0
71
3
72
8
73
4
74
0
42
0.000000001
43
0.0000000001
44
0.0000000001
40
0
40
0
40
0
40
0
40
1
40
1
40
1
40
1
10
19.003156635196653
20
22.149991142118253
30
0
10
19.642853514810554
20
21.088576819505143
30
0
10
20.649079637918991
20
19.673692096136996
30
0
10
22.187911515856303
20
18.038150222307156
30
0
0
ARC
5
166
100
AcDbEntity
8
0
100
AcDbCircle
10
3.5832448119776927e-13
20
87.500000000000114
30
0
40
72.919489795076259
210
-0
220
0
230
1
100
AcDbArc
50
317.71482679737403
51
319.48517320262602
0
SPLINE
5
167
100
AcDbEntity
8
0
100
AcDbSpline
70
0
71
3
72
8
73
4
74
0
42
0.000000001
43
0.0000000001
44
0.0000000001
40
0
40
0
40
0
40
0
40
1
40
1
40
1
40
1
10
46.835289417868566
20
38.121874428330599
30
0
10
46.559430798011135
20
38.627525141460957
30
0
10
46.311646764987145
20
39.022631995611306
30
0
10
46.108943405477788
20
39.320104488117799
30
0
0
SPLINE
5
168
100
AcDbEntity
8
0
100
AcDbSpline
70
0
71
3
72
8
73
4
74
0
42
0.000000001
43
0.0000000001
44
0.0000000001
40
0
40
0
40
0
40
0
40
1
40
1
40
1
40
1
10
-53.578965618375477
20
127.20681851735696
30
0
10
-53.899497918929498
20
127.37064031094975
30
0
10
-54.322544811606676
20
127.5669504732298
30
0
10
-54.858782570666769
20
127.7772590265439
30
0
0
SPLINE
5
169
100
AcDbEntity
8
0
100
AcDbSpline
70
0
71
3
72
8
73
4
74
0
42
0.000000001
43
0.0000000001
44
0.0000000001
40
0
40
0
40
0
40
0
40
1
40
1
40
1
40
1
10
24.373974714890302
20
23.957471120320307
30
0
10
24.31261873261591
20
24.530197988275756
30
0
10
24.234896983119107
20
24.990051968223106
30
0
10
24.161461292563754
20
25.342451932903927
30
0
0
SPLINE
5
170
100
AcDbEntity
8
0
100
AcDbSpline
70
0
71
3
72
8
73
4
74
0
42
0.000000001
43
0.0000000001
44
0.0000000001
40
0
40
0
40
0
40
0
40
1
40
1
40
1
40
1
10
-67.216431587953679
20
98.162783145545831
30
0
10
-66.689757579737105
20
97.929555550891905
30
0
10
-66.252651476322981
20
97.766937570409056
30
0
10
-65.91074630933889
20
97.654334761633976
30
0
0
SPLINE
5
171
100
AcDbEntity
8
0
100
AcDbSpline
70
0
71
3
72
8
73
4
74
0
42
0.000000001
43
0.0000000001
44
0.0000000001
40
0
40
0
40
0
40
0
40
1
40
1
40
1
40
1
10
58.019414939854173
20
51.926258140812706
30
0
10
57.622083939801605
20
52.343281759132068
30
0
10
57.28048176425699
20
52.660794446880786
30
0
10
57.007693807776654
20
52.895667320056049
30
0
0
ARC
5
172
100
AcDbEntity
8
0
100
AcDbCircle
10
-64.663670295730583
20
104.07925393290623
30
0
40
0.39999999999999819
210
0
220
0
230
1
100
AcDbArc
50
265.41416301729384
51
345.61956144532689
0
ARC
5
173
100
AcDbEntity
8
0
100
AcDbCircle
10
1.0713575294100539
20
154.24664118988295
30
0
40
0.40000000000000929
210
0
220
0
230
1
100
AcDbArc
50
269.08043855471902
51
349.28583698270756
0
ARC
5
174
100
AcDbEntity
8
0
100
AcDbCircle
10
-1.324773624133968e-12
20
87.500000000001563
30
0
40
66.355238873713063
210
0
220
0
230
1
100
AcDbArc
50
141.580418114841
51
143.11958188515922
0
SPLINE
5
175
100
AcDbEntity
8
0
100
AcDbSpline
70
0
71
3
72
8
73
4
74
0
42
0.000000001
43
0.0000000001
44
0.0000000001
40
0
40
0
40
0
40
0
40
1
40
1
40
1
40
1
10
-71.695005041267493
20
100.80707496434937
30
0
10
-69.87949312845177
20
99.485364987073297
30
0
10
-68.349651620026904
20
98.664405334991244
30
0
10
-67.216431587953679
20
98.162783145545831
30
0
0
ARC
5
176
100
AcDbEntity
8
0
100
AcDbCircle
10
2.911559882079473e-13
20
87.500000000000256
30
0
40
72.919489795076288
210
0
220
0
230
1
100
AcDbArc
50
212.7148267973742
51
214.48517320262604
0
ARC
5
177
100
AcDbEntity
8
0
100
AcDbCircle
10
-7.6499930007657078
20
153.81545464049103
30
0
40
0.40000000000001579
210
-0
220
0
230
1
100
AcDbArc
50
276.58043855472232
51
356.78583698271149
0
ARC
5
178
100
AcDbEntity
8
0
100
AcDbCircle
10
-3.5943470422239443e-13
20
87.500000000003382
30
0
40
66.355238873711897
210
0
220
0
230
1
100
AcDbArc
50
96.580418114840583
51
98.119581885158624
0
ARC
5
179
100
AcDbEntity
8
0
100
AcDbCircle
10
2.5954238758174597e-12
20
87.500000000001961
30
0
40
66.355238873712381
210
0
220
-0
230
1
100
AcDbArc
50
36.580418114840789
51
38.119581885158766
0
ARC
5
180
100
AcDbEntity
8
0
100
AcDbCircle
10
-2.966238366042262e-12
20
87.499999999999417
30
0
40
66.355238873711841
210
0
220
0
230
1
100
AcDbArc
50
194.080418114841
51
195.61958188515896
0
ARC
5
181
100
AcDbEntity
8
0
100
AcDbCircle
10
-64.290008144496852
20
69.526219933824379
30
0
40
0.39999999999999869
210
-0
220
0
230
1
100
AcDbArc
50
-64.585836982721602
51
15.619561445327255
0
SPLINE
5
182
100
AcDbEntity
8
0
100
AcDbSpline
70
0
71
3
72
8
73
4
74
0
42
0.000000001
43
0.0000000001
44
0.0000000001
40
0
40
0
40
0
40
0
40
1
40
1
40
1
40
1
10
24.486584766759535
20
149.53018748936475
30
0
10
24.56186460414596
20
149.88219811681444
30
0
10
24.641993067058952
20
150.34163884492787
30
0
10
24.70634698544665
20
150.91403660438104
30
0
0
ARC
5
183
100
AcDbEntity
8
0
100
AcDbCircle
10
-66.035774202850263
20
97.274376835220991
30
0
40
0.39999999999998426
210
-0
220
0
230
1
100
AcDbArc
50
-8.4195614452975072
51
71.785836982703685
0
ARC
5
184
100
AcDbEntity
8
0
100
AcDbCircle
10
41.482745746889123
20
139.80146960063149
30
0
40
0.40000000000000502
210
0
220
0
230
1
100
AcDbArc
50
231.58043855471342
51
311.78583698270853
0
SPLINE
5
185
100
AcDbEntity
8
0
100
AcDbSpline
70
0
71
3
72
8
73
4
74
0
42
0.000000001
43
0.0000000001
44
0.0000000001
40
0
40
0
40
0
40
0
40
1
40
1
40
1
40
1
10
-1.1152705715682929
20
154.17903092470391
30
0
10
-1.1804297057376565
20
154.53305468519002
30
0
10
-1.2822210136835102
20
154.98818640551383
30
0
10
-1.4418128849138381
20
155.54164015830267
30
0
0
ARC
5
186
100
AcDbEntity
8
0
100
AcDbCircle
10
7.6499930007664672
20
21.184545359509208
30
0
40
0.39999999999998126
210
0
220
0
230
1
100
AcDbArc
50
96.580438554707129
51
176.78583698270791
0
ARC
5
187
100
AcDbEntity
8
0
100
AcDbCircle
10
61.393949140704052
20
113.71154184697045
30
0
40
0.40000000000002633
210
0
220
0
230
1
100
AcDbArc
50
122.91416301729309
51
203.11956144528114
0
ARC
5
188
100
AcDbEntity
8
0
100
AcDbCircle
10
5.4484194933479557e-13
20
87.499999999999787
30
0
40
72.919489795076274
210
0
220
0
230
1
100
AcDbArc
50
205.21482679737397
51
206.98517320262596
0
SPLINE
5
189
100
AcDbEntity
8
0
100
AcDbSpline
70
0
71
3
72
8
73
4
74
0
42
0.000000001
43
0.0000000001
44
0.0000000001
40
0
40
0
40
0
40
0
40
1
40
1
40
1
40
1
10
52.221098204617235
20
128.97642578392202
30
0
10
52.462297769911295
20
129.24363601100225
30
0
10
52.761411418416898
20
129.60145912162523
30
0
10
53.103342426300379
20
130.06499316318715
30
0
0
SPLINE
5
190
100
AcDbEntity
8
0
100
AcDbSpline
70
0
71
3
72
8
73
4
74
0
42
0.000000001
43
0.0000000001
44
0.0000000001
40
0
40
0
40
0
40
0
40
1
40
1
40
1
40
1
10
31.409680123831386
20
153.30793254990516
30
0
10
29.663117262269225
20
151.896366419602
30
0
10
28.474179013613107
20
150.63113298970504
30
0
10
27.696350259195913
20
149.66635586993181
30
0
0
SPLINE
5
191
100
AcDbEntity
8
0
100
AcDbSpline
70
0
71
3
72
8
73
4
74
0
42
0.000000001
43
0.0000000001
44
0.0000000001
40
0
40
0
40
0
40
0
40
1
40
1
40
1
40
1
10
-18.335071760671237
20
151.61834477773465
30
0
10
-18.489638742816741
20
151.94344104622269
30
0
10
-18.705758353303416
20
152.35671900012451
30
0
10
-19.003156635195783
20
152.85000885788199
30
0
0
SPLINE
5
192
100
AcDbEntity
8
0
100
AcDbSpline
70
0
71
3
72
8
73
4
74
0
42
0.000000001
43
0.0000000001
44
0.0000000001
40
0
40
0
40
0
40
0
40
1
40
1
40
1
40
1
10
-42.564993163186656
20
140.60334242630015
30
0
10
-43.562181693412384
20
141.33915999691285
30
0
10
-45.033266355969879
20
142.26127696716895
30
0
10
-47.080856410026193
20
143.18343516408362
30
0
0
ARC
5
193
100
AcDbEntity
8
0
100
AcDbCircle
10
-24.553028455961638
20
149.5758464358523
30
0
40
0.40000000000001762
210
-0
220
0
230
1
100
AcDbArc
50
-68.419561445281857
51
11.785836982709474
0
SPLINE
5
194
100
AcDbEntity
8
0
100
AcDbSpline
70
0
71
3
72
8
73
4
74
0
42
0.000000001
43
0.0000000001
44
0.0000000001
40
0
40
0
40
0
40
0
40
1
40
1
40
1
40
1
10
13.307074964349631
20
159.19500504126799
30
0
10
11.985364987073577
20
157.37949312845225
30
0
10
11.164405334991487
20
155.8496516200274
30
0
10
10.662783145546005
20
154.71643158795419
30
0
0
SPLINE
5
195
100
AcDbEntity
8
0
100
AcDbSpline
70
0
71
3
72
8
73
4
74
0
42
0.000000001
43
0.0000000001
44
0.0000000001
40
0
40
0
40
0
40
0
40
1
40
1
40
1
40
1
10
-49.378125571669138
20
40.664710582131967
30
0
10
-48.872474858538773
20
40.940569201989362
30
0
10
-48.477368004388445
20
41.188353235013352
30
0
10
-48.179895511881938
20
41.39105659452273
30
0
0
SPLINE
5
196
100
AcDbEntity
8
0
100
AcDbSpline
70
0
71
3
72
8
73
4
74
0
42
0.000000001
43
0.0000000001
44
0.0000000001
40
0
40
0
40
0
40
0
40
1
40
1
40
1
40
1
10
32.459416321030467
20
27.682528372347058
30
0
10
32.323829390433609
20
28.242346919815937
30
0
10
32.186749572298304
20
28.688122061202517
30
0
10
32.067944708727396
20
29.027921914272433
30
0
0
ARC
5
197
100
AcDbEntity
8
0
100
AcDbCircle
10
9.428481925176099
20
21.413952715619264
30
0
40
0.40000000000001484
210
0
220
-0
230
1
100
AcDbArc
50
17.914163017291457
51
98.119561445310197
0
ARC
5
198
100
AcDbEntity
8
0
100
AcDbCircle
10
3.1077918016819694e-12
20
87.500000000000256
30
0
40
66.355238873712509
210
-0
220
0
230
1
100
AcDbArc
50
-0.91958188515904538
51
0.61958188515887735
0
ARC
5
199
100
AcDbEntity
8
0
100
AcDbCircle
10
53.39683568218738
20
47.437051328986087
30
0
40
0.40000000000007313
210
0
220
-0
230
1
100
AcDbArc
50
62.914163017288679
51
143.11956144529896
0
ARC
5
200
100
AcDbEntity
8
0
100
AcDbCircle
10
66.315454640491296
20
95.14999300076623
30
0
40
0.39999999999993979
210
0
220
0
230
1
100
AcDbArc
50
186.58043855473935
51
266.78583698270938
0
SPLINE
5
201
100
AcDbEntity
8
0
100
AcDbSpline
70
0
71
3
72
8
73
4
74
0
42
0.000000001
43
0.0000000001
44
0.0000000001
40
0
40
0
40
0
40
0
40
1
40
1
40
1
40
1
10
53.578965618376259
20
47.793181482643277
30
0
10
53.899497918930273
20
47.62935968905046
30
0
10
54.322544811607337
20
47.433049526770446
30
0
10
54.858782570667522
20
47.222740973456332
30
0
0
ARC
5
202
100
AcDbEntity
8
0
100
AcDbCircle
10
-46.689890229554827
20
39.789245788408877
30
0
40
0.40000000000000702
210
-0
220
0
230
1
100
AcDbArc
50
-34.585836982704031
51
45.619561445279615
0
SPLINE
5
203
100
AcDbEntity
8
0
100
AcDbSpline
70
0
71
3
72
8
73
4
74
0
42
0.000000001
43
0.0000000001
44
0.0000000001
40
0
40
0
40
0
40
0
40
1
40
1
40
1
40
1
10
49.378125571669898
20
134.33528941786827
30
0
10
48.872474858539547
20
134.05943079801091
30
0
10
48.47736800438922
20
133.81164676498688
30
0
10
48.179895511882698
20
133.60894340547753
30
0
0
ARC
5
204
100
AcDbEntity
8
0
100
AcDbCircle
10
-61.946436746560856
20
112.37771877586596
30
0
40
0.40000000000000946
210
0
220
0
230
1
100
AcDbArc
50
257.91416301729066
51
338.11956144527886
0
SPLINE
5
205
100
AcDbEntity
8
0
100
AcDbSpline
70
0
71
3
72
8
73
4
74
0
42
0.000000001
43
0.0000000001
44
0.0000000001
40
0
40
0
40
0
40
0
40
1
40
1
40
1
40
1
10
-72.818566159017294
20
91.335155084086196
30
0
10
-70.846068431740193
20
90.261724375799275
30
0
10
-69.222158192143382
20
89.647472534142167
30
0
10
-68.033158180217114
20
89.298056687799402
30
0
0
ARC
5
206
100
AcDbEntity
8
0
100
AcDbCircle
10
2.08305594995295e-12
20
87.500000000002387
30
0
40
66.355238873712437
210
0
220
-0
230
1
100
AcDbArc
50
51.580418114840867
51
53.119581885159015
0
SPLINE
5
207
100
AcDbEntity
8
0
100
AcDbSpline
70
0
71
3
72
8
73
4
74
0
42
0.000000001
43
0.0000000001
44
0.0000000001
40
0
40
0
40
0
40
0
40
1
40
1
40
1
40
1
10
-67.271340148632916
20
77.189305821919191
30
0
10
-68.407171122447309
20
76.693624007687603
30
0
10
-69.941290175228715
20
75.880685803923228
30
0
10
-71.763697627092881
20
74.568499899031494
30
0
0
ARC
5
208
100
AcDbEntity
8
0
100
AcDbCircle
10
64.195016810632723
20
69.189846156588061
30
0
40
0.40000000000004743
210
0
220
0
230
1
100
AcDbArc
50
164.08043855469083
51
244.28583698270651
0
ARC
5
209
100
AcDbEntity
8
0
100
AcDbCircle
10
66.274490517984702
20
79.502886541483534
30
0
40
0.39999999999997005
210
0
220
0
230
1
100
AcDbArc
50
92.914163017284039
51
173.11956144528219
0
SPLINE
5
210
100
AcDbEntity
8
0
100
AcDbSpline
70
0
71
3
72
8
73
4
74
0
42
0.000000001
43
0.0000000001
44
0.0000000001
40
0
40
0
40
0
40
0
40
1
40
1
40
1
40
1
10
72.69618142066642
20
93.202385362971839
30
0
10
70.600447861921225
20
94.009170105239562
30
0
10
68.910254445584997
20
94.406204117158182
30
0
10
67.685818573662857
20
94.597435018390939
30
0
0
ARC
5
211
100
AcDbEntity
8
0
100
AcDbCircle
10
-2.5693336347387685e-12
20
87.500000000001862
30
0
40
66.355238873711812
210
0
220
0
230
1
100
AcDbArc
50
149.08041811484094
51
150.61958188515899
0
SPLINE
5
212
100
AcDbEntity
8
0
100
AcDbSpline
70
0
71
3
72
8
73
4
74
0
42
0.000000001
43
0.0000000001
44
0.0000000001
40
0
40
0
40
0
40
0
40
1
40
1
40
1
40
1
10
-64.118344777734194
20
69.164928239328489
30
0
10
-64.44344104622219
20
69.010361257183092
30
0
10
-64.856719000124031
20
68.794241646696321
30
0
10
-65.350008857881491
20
68.496843364803951
30
0
0
SPLINE
5
213
100
AcDbEntity
8
0
100
AcDbSpline
70
0
71
3
72
8
73
4
74
0
42
0.000000001
43
0.0000000001
44
0.0000000001
40
0
40
0
40
0
40
0
40
1
40
1
40
1
40
1
10
40.277259026544172
20
142.35878257066727
30
0
10
40.729912838256013
20
143.51243632668715
30
0
10
41.239864707057791
20
145.17205642862368
30
0
10
41.600645822829598
20
147.3885486474482
30
0
0
ARC
5
214
100
AcDbEntity
8
0
100
AcDbCircle
10
1.1199374760906267e-12
20
87.499999999996859
30
0
40
66.35523887371194
210
-0
220
0
230
1
100
AcDbArc
50
284.08041811484105
51
285.61958188515894
0
SPLINE
5
215
100
AcDbEntity
8
0
100
AcDbSpline
70
0
71
3
72
8
73
4
74
0
42
0.000000001
43
0.0000000001
44
0.0000000001
40
0
40
0
40
0
40
0
40
1
40
1
40
1
40
1
10
15.871487643635984
20
21.31964415474226
30
0
10
15.885412427551726
20
21.89547982768357
30
0
10
15.868378587375926
20
22.361544417099136
30
0
10
15.841568574861618
20
22.720514832291453
30
0
0
ARC
5
216
100
AcDbEntity
8
0
100
AcDbCircle
10
57.268608123018879
20
53.198856568054168
30
0
40
0.40000000000000879
210
0
220
0
230
1
100
AcDbArc
50
149.08043855471917
51
229.28583698270506
0
ARC
5
217
100
AcDbEntity
8
0
100
AcDbCircle
10
26.211541846970704
20
26.106050859296538
30
0
40
0.4000000000000079
210
0
220
-0
230
1
100
AcDbArc
50
32.914163017291933
51
113.11956144528074
0
ARC
5
218
100
AcDbEntity
8
0
100
AcDbCircle
10
52.301469600631769
20
46.017254253111375
30
0
40
0.40000000000000641
210
0
220
0
230
1
100
AcDbArc
50
141.58043855471755
51
221.78583698271012
0
ARC
5
219
100
AcDbEntity
8
0
100
AcDbCircle
10
66.03577420285103
20
77.725623164779336
30
0
40
0.39999999999998231
210
0
220
0
230
1
100
AcDbArc
50
171.58043855471919
51
251.78583698271524
0
SPLINE
5
220
100
AcDbEntity
8
0
100
AcDbSpline
70
0
71
3
72
8
73
4
74
0
42
0.000000001
43
0.0000000001
44
0.0000000001
40
0
40
0
40
0
40
0
40
1
40
1
40
1
40
1
10
68.041640158302911
20
88.94181288491437
30
0
10
69.232453400444754
20
89.284998380493121
30
0
10
70.85955758030812
20
89.890739066857975
30
0
10
72.837648713438583
20
90.953827134064738
30
0
0
ARC
5
221
100
AcDbEntity
8
0
100
AcDbCircle
10
-46.439438432670279
20
135.45456678091239
30
0
40
0.40000000000002506
210
-0
220
0
230
1
100
AcDbArc
50
-45.91956144527996
51
34.285836982707757
0
ARC
5
222
100
AcDbEntity
8
0
100
AcDbCircle
10
3.677613769070831e-13
20
87.500000000000128
30
0
40
72.919489795076288
210
0
220
0
230
1
100
AcDbArc
50
227.71482679737397
51
229.4851732026259
0
ARC
5
223
100
AcDbEntity
8
0
100
AcDbCircle
10
16.579253932906482
20
152.16367029573109
30
0
40
0.40000000000010089
210
0
220
0
230
1
100
AcDbArc
50
175.41416301729919
51
255.61956144525877
0
ARC
5
224
100
AcDbEntity
8
0
100
AcDbCircle
10
-66.746641189882453
20
88.571357529409781
30
0
40
0.4000000000000053
210
-0
220
0
230
1
100
AcDbArc
50
-0.91956144532240025
51
79.285836982710165
0
ARC
5
225
100
AcDbEntity
8
0
100
AcDbCircle
10
40.062948671014418
20
140.89683568218709
30
0
40
0.40000000000007307
210
0
220
0
230
1
100
AcDbArc
50
152.91416301728825
51
233.11956144528082
0
ARC
5
226
100
AcDbEntity
8
0
100
AcDbCircle
10
-26.21154184696994
20
148.8939491407038
30
0
40
0.40000000000007174
210
0
220
0
230
1
100
AcDbArc
50
212.91416301729259
51
293.1195614453419
0
SPLINE
5
227
100
AcDbEntity
8
0
100
AcDbSpline
70
0
71
3
72
8
73
4
74
0
42
0.000000001
43
0.0000000001
44
0.0000000001
40
0
40
0
40
0
40
0
40
1
40
1
40
1
40
1
10
-55.06892085154054
20
47.510531685533159
30
0
10
-54.531589275116296
20
47.718029634478079
30
0
10
-54.107520308551813
20
47.912122047558043
30
0
10
-53.786134636789278
20
48.074263299989624
30
0
0
SPLINE
5
228
100
AcDbEntity
8
0
100
AcDbSpline
70
0
71
3
72
8
73
4
74
0
42
0.000000001
43
0.0000000001
44
0.0000000001
40
0
40
0
40
0
40
0
40
1
40
1
40
1
40
1
10
-35.26946666499034
20
145.70488244979239
30
0
10
-36.16208064344282
20
146.56456422086083
30
0
10
-37.500219555872285
20
147.67080743204386
30
0
10
-39.409926395098729
20
148.85234057073228
30
0
0
SPLINE
5
229
100
AcDbEntity
8
0
100
AcDbSpline
70
0
71
3
72
8
73
4
74
0
42
0.000000001
43
0.0000000001
44
0.0000000001
40
0
40
0
40
0
40
0
40
1
40
1
40
1
40
1
10
-65.350008857881491
20
68.496843364803951
30
0
10
-66.411423180494594
20
67.857146485189944
30
0
10
-67.826307903862755
20
66.850920362081624
30
0
10
-69.461849777692592
20
65.312088484144198
30
0
0
SPLINE
5
230
100
AcDbEntity
8
0
100
AcDbSpline
70
0
71
3
72
8
73
4
74
0
42
0.000000001
43
0.0000000001
44
0.0000000001
40
0
40
0
40
0
40
0
40
1
40
1
40
1
40
1
10
61.176596348677691
20
114.04733607532825
30
0
10
61.478736333899597
20
114.243014293545
30
0
10
61.860269367793741
20
114.51122856845552
30
0
10
62.310520797127026
20
114.87046981361294
30
0
0
SPLINE
5
231
100
AcDbEntity
8
0
100
AcDbSpline
70
0
71
3
72
8
73
4
74
0
42
0.000000001
43
0.0000000001
44
0.0000000001
40
0
40
0
40
0
40
0
40
1
40
1
40
1
40
1
10
10.662783145546005
20
154.71643158795419
30
0
10
10.429555550892143
20
154.1897575797376
30
0
10
10.266937570409205
20
153.75265147632345
30
0
10
10.15433476163423
20
153.41074630933949
30
0
0
SPLINE
5
232
100
AcDbEntity
8
0
100
AcDbSpline
70
0
71
3
72
8
73
4
74
0
42
0.000000001
43
0.0000000001
44
0.0000000001
40
0
40
0
40
0
40
0
40
1
40
1
40
1
40
1
10
-32.772173493311421
20
27.853304665293543
30
0
10
-33.070372757000783
20
26.6504373986464
30
0
10
-33.359338024434692
20
24.938453501098504
30
0
10
-33.427722318338816
20
22.693832295203336
30
0
0
ARC
5
233
100
AcDbEntity
8
0
100
AcDbCircle
10
-4.3770542745846797e-13
20
87.499999999996746
30
0
40
66.355238873711755
210
0
220
0
230
1
100
AcDbArc
50
261.58041811484122
51
263.11958188515945
0
SPLINE
5
234
100
AcDbEntity
8
0
100
AcDbSpline
70
0
71
3
72
8
73
4
74
0
42
0.000000001
43
0.0000000001
44
0.0000000001
40
0
40
0
40
0
40
0
40
1
40
1
40
1
40
1
10
-13.307074964348871
20
15.80499495873225
30
0
10
-11.985364987072709
20
17.620506871547978
30
0
10
-11.164405334990725
20
19.150348379972836
30
0
10
-10.662783145545234
20
20.283568412046073
30
0
0
ARC
5
235
100
AcDbEntity
8
0
100
AcDbCircle
10
5.0681681074138396e-13
20
87.499999999999702
30
0
40
72.919489795076288
210
0
220
-0
230
1
100
AcDbArc
50
17.714826797374396
51
19.48517320262599
0
ARC
5
236
100
AcDbEntity
8
0
100
AcDbCircle
10
0
20
87.5
30
0
40
72.919489795076302
210
-0
220
0
230
1
100
AcDbArc
50
287.71482679737437
51
289.48517320262602
0
ARC
5
237
100
AcDbEntity
8
0
100
AcDbCircle
10
2.2093438190040615e-12
20
87.499999999997357
30
0
40
66.35523887371194
210
-0
220
0
230
1
100
AcDbArc
50
299.08041811484071
51
300.61958188515894
0
SPLINE
5
238
100
AcDbEntity
8
0
100
AcDbSpline
70
0
71
3
72
8
73
4
74
0
42
0.000000001
43
0.0000000001
44
0.0000000001
40
0
40
0
40
0
40
0
40
1
40
1
40
1
40
1
10
-41.47642578392152
20
139.72109820461696
30
0
10
-41.743636011001747
20
139.96229776991106
30
0
10
-42.101459121624728
20
140.26141141841666
30
0
10
-42.564993163186656
20
140.60334242630015
30
0
0
ARC
5
239
100
AcDbEntity
8
0
100
AcDbCircle
10
66.746641189883206
20
86.428642470590447
30
0
40
0.40000000000006775
210
0
220
0
230
1
100
AcDbArc
50
179.08043855467363
51
259.28583698271177
0
SPLINE
5
240
100
AcDbEntity
8
0
100
AcDbSpline
70
0
71
3
72
8
73
4
74
0
42
0.000000001
43
0.0000000001
44
0.0000000001
40
0
40
0
40
0
40
0
40
1
40
1
40
1
40
1
10
35.269466664991128
20
29.295117550207816
30
0
10
36.162080643443595
20
28.435435779139397
30
0
10
37.500219555873066
20
27.329192567956383
30
0
10
39.409926395099497
20
26.147659429267964
30
0
0
ARC
5
241
100
AcDbEntity
8
0
100
AcDbCircle
10
61.255864882563181
20
60.967360957191154
30
0
40
0.39999999999998059
210
0
220
0
230
1
100
AcDbArc
50
156.58043855471863
51
236.78583698271134
0
ARC
5
242
100
AcDbEntity
8
0
100
AcDbCircle
10
-66.751335832714375
20
86.778140155633352
30
0
40
0.39999999999999841
210
-0
220
0
230
1
100
AcDbArc
50
-79.585836982706269
51
0.6195614452843361
0
SPLINE
5
243
100
AcDbEntity
8
0
100
AcDbSpline
70
0
71
3
72
8
73
4
74
0
42
0.000000001
43
0.0000000001
44
0.0000000001
40
0
40
0
40
0
40
0
40
1
40
1
40
1
40
1
10
-31.409680123830618
20
21.692067450095173
30
0
10
-29.663117262268454
20
23.103633580398206
30
0
10
-28.474179013612435
20
24.368867010295215
30
0
10
-27.696350259195125
20
25.333644130068414
30
0
0
SPLINE
5
244
100
AcDbEntity
8
0
100
AcDbSpline
70
0
71
3
72
8
73
4
74
0
42
0.000000001
43
0.0000000001
44
0.0000000001
40
0
40
0
40
0
40
0
40
1
40
1
40
1
40
1
10
-32.373662815279893
20
29.196630033694078
30
0
10
-32.494245230043674
20
28.857456896485214
30
0
10
-32.633657231640015
20
28.412405610643759
30
0
10
-32.772173493311421
20
27.853304665293543
30
0
0
ARC
5
245
100
AcDbEntity
8
0
100
AcDbCircle
10
3.0059288391726113e-13
20
87.499999999999943
30
0
40
72.919489795076288
210
0
220
0
230
1
100
AcDbArc
50
152.714826797374
51
154.48517320262599
0
ARC
5
246
100
AcDbEntity
8
0
100
AcDbCircle
10
0.72185984436713779
20
20.748664167285366
30
0
40
0.40000000000001373
210
0
220
-0
230
1
100
AcDbArc
50
10.414163017292422
51
90.619561445277213
0
ARC
5
247
100
AcDbEntity
8
0
100
AcDbCircle
10
64.663670295731364
20
70.920746067094029
30
0
40
0.40000000000000641
210
0
220
-0
230
1
100
AcDbArc
50
85.414163017295891
51
165.61956144529336
0
ARC
5
248
100
AcDbEntity
8
0
100
AcDbCircle
10
6.5197847121112318e-13
20
87.500000000000128
30
0
40
72.919489795076288
210
0
220
0
230
1
100
AcDbArc
50
265.21482679737403
51
266.9851732026259
0
ARC
5
249
100
AcDbEntity
8
0
100
AcDbCircle
10
3.7747582837255322e-13
20
87.499999999999844
30
0
40
72.919489795076302
210
0
220
0
230
1
100
AcDbArc
50
175.214826797374
51
176.98517320262604
0
SPLINE
5
250
100
AcDbEntity
8
0
100
AcDbSpline
70
0
71
3
72
8
73
4
74
0
42
0.000000001
43
0.0000000001
44
0.0000000001
40
0
40
0
40
0
40
0
40
1
40
1
40
1
40
1
10
55.436158208017133
20
40.128232510175792
30
0
10
54.524733759283393
20
42.180622883340142
30
0
10
53.610331975264685
20
43.656515551737655
30
0
10
52.879745734134488
20
44.657543126935984
30
0
0
SPLINE
5
251
100
AcDbEntity
8
0
100
AcDbSpline
70
0
71
3
72
8
73
4
74
0
42
0.000000001
43
0.0000000001
44
0.0000000001
40
0
40
0
40
0
40
0
40
1
40
1
40
1
40
1
10
9.8090892847482749
20
21.536989449319087
30
0
10
9.919900346903713
20
21.194499384852392
30
0
10
10.080227426511579
20
20.756547811316448
30
0
10
10.310694178081366
20
20.228659851366825
30
0
0
SPLINE
5
252
100
AcDbEntity
8
0
100
AcDbSpline
70
0
71
3
72
8
73
4
74
0
42
0.000000001
43
0.0000000001
44
0.0000000001
40
0
40
0
40
0
40
0
40
1
40
1
40
1
40
1
10
-54.858782570666769
20
127.7772590265439
30
0
10
-56.012436326686654
20
128.22991283825576
30
0
10
-57.672056428623279
20
128.73986470705751
30
0
10
-59.888548647447706
20
129.10064582282925
30
0
0
ARC
5
253
100
AcDbEntity
8
0
100
AcDbCircle
10
5.415112802609201e-13
20
87.499999999996817
30
0
40
66.355238873711983
210
0
220
0
230
1
100
AcDbArc
50
269.08041811484077
51
270.61958188515894
0
SPLINE
5
254
100
AcDbEntity
8
0
100
AcDbSpline
70
0
71
3
72
8
73
4
74
0
42
0.000000001
43
0.0000000001
44
0.0000000001
40
0
40
0
40
0
40
0
40
1
40
1
40
1
40
1
10
1.4418128849145908
20
19.458359841697582
30
0
10
1.7849983804933791
20
18.26754659955575
30
0
10
2.3907390668582238
20
16.640442419692377
30
0
10
3.453827134064996
20
14.662351286561917
30
0
0
ARC
5
255
100
AcDbEntity
8
0
100
AcDbCircle
10
-57.268608123018097
20
121.80114343194597
30
0
40
0.40000000000002095
210
-0
220
0
230
1
100
AcDbArc
50
-30.919561445279825
51
49.285836982711146
0
SPLINE
5
256
100
AcDbEntity
8
0
100
AcDbSpline
70
0
71
3
72
8
73
4
74
0
42
0.000000001
43
0.0000000001
44
0.0000000001
40
0
40
0
40
0
40
0
40
1
40
1
40
1
40
1
10
15.142356415469557
20
16.170055136982512
30
0
10
15.668690881094927
20
18.353165944958622
30
0
10
15.841713701252457
20
20.08072286007058
30
0
10
15.871487643635984
20
21.31964415474226
30
0
0
ARC
5
257
100
AcDbEntity
8
0
100
AcDbCircle
10
-9.4284819251752765
20
153.58604728438098
30
0
40
0.40000000000002783
210
0
220
0
230
1
100
AcDbArc
50
197.91416301729723
51
278.11956144531484
0
SPLINE
5
258
100
AcDbEntity
8
0
100
AcDbSpline
70
0
71
3
72
8
73
4
74
0
42
0.000000001
43
0.0000000001
44
0.0000000001
40
0
40
0
40
0
40
0
40
1
40
1
40
1
40
1
10
-65.807932549904663
20
118.90968012383109
30
0
10
-64.39636641960152
20
117.16311726226897
30
0
10
-63.131132989704525
20
115.97417901361284
30
0
10
-62.166355869931337
20
115.19635025919564
30
0
0
SPLINE
5
259
100
AcDbEntity
8
0
100
AcDbSpline
70
0
71
3
72
8
73
4
74
0
42
0.000000001
43
0.0000000001
44
0.0000000001
40
0
40
0
40
0
40
0
40
1
40
1
40
1
40
1
10
67.647728840157001
20
80.048261773540744
30
0
10
68.873149205897434
20
80.233078951488295
30
0
10
70.565398309206728
20
80.621257729366945
30
0
10
72.665327435885217
20
81.417058227315081
30
0
0
SPLINE
5
260
100
AcDbEntity
8
0
100
AcDbSpline
70
0
71
3
72
8
73
4
74
0
42
0.000000001
43
0.0000000001
44
0.0000000001
40
0
40
0
40
0
40
0
40
1
40
1
40
1
40
1
10
68.743233172366359
20
111.82323755144367
30
0
10
66.510098746356562
20
112.06011601179227
30
0
10
64.774737310255773
20
112.0061671717649
30
0
10
63.542528879680226
20
111.87397471489004
30
0
0
SPLINE
5
261
100
AcDbEntity
8
0
100
AcDbSpline
70
0
71
3
72
8
73
4
74
0
42
0.000000001
43
0.0000000001
44
0.0000000001
40
0
40
0
40
0
40
0
40
1
40
1
40
1
40
1
10
62.166355869932076
20
59.803649740804616
30
0
10
61.717991586700442
20
60.165243561771021
30
0
10
61.337868143009253
20
60.435451853232472
30
0
10
61.036756863520722
20
60.632709383175403
30
0
0
SPLINE
5
262
100
AcDbEntity
8
0
100
AcDbSpline
70
0
71
3
72
8
73
4
74
0
42
0.000000001
43
0.0000000001
44
0.0000000001
40
0
40
0
40
0
40
0
40
1
40
1
40
1
40
1
10
72.818566159018062
20
83.66484491591406
30
0
10
70.846068431740974
20
84.738275624200966
30
0
10
69.222158192144136
20
85.352527465858088
30
0
10
68.033158180217882
20
85.701943312200854
30
0
0
ARC
5
263
100
AcDbEntity
8
0
100
AcDbCircle
10
47.710754211591606
20
40.810109770444917
30
0
40
0.40000000000002467
210
0
220
-0
230
1
100
AcDbArc
50
55.414163017292587
51
135.61956144527747
0
ARC
5
264
100
AcDbEntity
8
0
100
AcDbCircle
10
58.16928248986126
20
54.749481046836237
30
0
40
0.39999999999997149
210
0
220
-0
230
1
100
AcDbArc
50
70.414163017288075
51
150.61956144529788
0
ARC
5
265
100
AcDbEntity
8
0
100
AcDbCircle
10
4.5075054799781356e-13
20
87.500000000000227
30
0
40
72.919489795076302
210
-0
220
0
230
1
100
AcDbArc
50
325.21482679737397
51
326.9851732026259
0
ARC
5
266
100
AcDbEntity
8
0
100
AcDbCircle
10
2.2704060853584451e-13
20
87.500000000000171
30
0
40
72.919489795076288
210
0
220
-0
230
1
100
AcDbArc
50
62.714826797373988
51
64.485173202625887
0
ARC
5
267
100
AcDbEntity
8
0
100
AcDbCircle
10
3.7608804959177178e-13
20
87.500000000000114
30
0
40
72.919489795076288
210
0
220
-0
230
1
100
AcDbArc
50
2.7148267973739126
51
4.4851732026259405
0
ARC
5
268
100
AcDbEntity
8
0
100
AcDbCircle
10
-1.0713575294092665
20
20.75335881011728
30
0
40
0.4000000000000179
210
0
220
-0
230
1
100
AcDbArc
50
89.080438554721567
51
169.28583698270876
0
SPLINE
5
269
100
AcDbEntity
8
0
100
AcDbSpline
70
0
71
3
72
8
73
4
74
0
42
0.000000001
43
0.0000000001
44
0.0000000001
40
0
40
0
40
0
40
0
40
1
40
1
40
1
40
1
10
-3.8351550840856872
20
14.681433840982457
30
0
10
-2.7617243757987531
20
16.653931568259548
30
0
10
-2.1474725341416545
20
18.277841807856362
30
0
10
-1.7980566877989033
20
19.466841819782626
30
0
0
SPLINE
5
270
100
AcDbEntity
8
0
100
AcDbSpline
70
0
71
3
72
8
73
4
74
0
42
0.000000001
43
0.0000000001
44
0.0000000001
40
0
40
0
40
0
40
0
40
1
40
1
40
1
40
1
10
-22.551307102553828
20
18.155277490348954
30
0
10
-21.003932680446962
20
19.782739676519956
30
0
10
-19.990312065200062
20
21.19233644141158
30
0
10
-19.345066427389323
20
22.25038678469501
30
0
0
ARC
5
271
100
AcDbEntity
8
0
100
AcDbCircle
10
3.7664316110408436e-13
20
87.500000000000128
30
0
40
72.919489795076231
210
0
220
0
230
1
100
AcDbArc
50
182.71482679737406
51
184.48517320262584
0
ARC
5
272
100
AcDbEntity
8
0
100
AcDbCircle
10
5.0737192225369654e-13
20
87.500000000000028
30
0
40
72.919489795076274
210
0
220
0
230
1
100
AcDbArc
50
242.71482679737392
51
244.48517320262576
0
ARC
5
273
100
AcDbEntity
8
0
100
AcDbCircle
10
34.301143431946343
20
144.76860812301859
30
0
40
0.40000000000001101
210
0
220
0
230
1
100
AcDbArc
50
239.08043855471908
51
319.28583698270955
0
SPLINE
5
274
100
AcDbEntity
8
0
100
AcDbSpline
70
0
71
3
72
8
73
4
74
0
42
0.000000001
43
0.0000000001
44
0.0000000001
40
0
40
0
40
0
40
0
40
1
40
1
40
1
40
1
10
49.132220827116001
20
40.406810509134424
30
0
10
50.216921736889844
20
39.807447181617803
30
0
10
51.79578148313739
20
39.08523412930866
30
0
10
53.946219918499317
20
38.438229256587519
30
0
0
SPLINE
5
275
100
AcDbEntity
8
0
100
AcDbSpline
70
0
71
3
72
8
73
4
74
0
42
0.000000001
43
0.0000000001
44
0.0000000001
40
0
40
0
40
0
40
0
40
1
40
1
40
1
40
1
10
35.573741859187798
20
145.51941493985393
30
0
10
35.156718240868429
20
145.12208393980134
30
0
10
34.839205553119712
20
144.78048176425673
30
0
10
34.604332679944434
20
144.50769380777641
30
0
0
SPLINE
5
276
100
AcDbEntity
8
0
100
AcDbSpline
70
0
71
3
72
8
73
4
74
0
42
0.000000001
43
0.0000000001
44
0.0000000001
40
0
40
0
40
0
40
0
40
1
40
1
40
1
40
1
10
-58.019414939853405
20
123.07374185918752
30
0
10
-57.622083939800973
20
122.65671824086816
30
0
10
-57.280481764256237
20
122.33920555311946
30
0
10
-57.007693807775901
20
122.10433267994418
30
0
0
SPLINE
5
277
100
AcDbEntity
8
0
100
AcDbSpline
70
0
71
3
72
8
73
4
74
0
42
0.000000001
43
0.0000000001
44
0.0000000001
40
0
40
0
40
0
40
0
40
1
40
1
40
1
40
1
10
-1.4418128849138381
20
155.54164015830267
30
0
10
-1.7849983804926182
20
156.73245340044451
30
0
10
-2.3907390668574626
20
158.35955758030786
30
0
10
-3.4538271340642526
20
160.33764871343831
30
0
0
SPLINE
5
278
100
AcDbEntity
8
0
100
AcDbSpline
70
0
71
3
72
8
73
4
74
0
42
0.000000001
43
0.0000000001
44
0.0000000001
40
0
40
0
40
0
40
0
40
1
40
1
40
1
40
1
10
-67.647728840156219
20
94.951738226459511
30
0
10
-68.873149205896681
20
94.766921048511946
30
0
10
-70.565398309205975
20
94.378742270633296
30
0
10
-72.66532743588445
20
93.58294177268516
30
0
0
ARC
5
279
100
AcDbEntity
8
0
100
AcDbCircle
10
2.4230617512444041e-13
20
87.50000000000297
30
0
40
66.355238873712437
210
0
220
-0
230
1
100
AcDbArc
50
89.080418114840754
51
90.619581885158965
0
SPLINE
5
280
100
AcDbEntity
8
0
100
AcDbSpline
70
0
71
3
72
8
73
4
74
0
42
0.000000001
43
0.0000000001
44
0.0000000001
40
0
40
0
40
0
40
0
40
1
40
1
40
1
40
1
10
-49.13222082711529
20
134.59318949086583
30
0
10
-50.216921736889063
20
135.19255281838244
30
0
10
-51.795781483136651
20
135.91476587069158
30
0
10
-53.94621991849867
20
136.56177074341269
30
0
0
ARC
5
281
100
AcDbEntity
8
0
100
AcDbCircle
10
-7.9971134585162087
20
21.225509482015777
30
0
40
0.40000000000002506
210
0
220
-0
230
1
100
AcDbArc
50
2.9141630172901896
51
83.119561445281818
0
ARC
5
282
100
AcDbEntity
8
0
100
AcDbCircle
10
3.7608804959177178e-13
20
87.500000000000114
30
0
40
72.919489795076288
210
0
220
-0
230
1
100
AcDbArc
50
47.714826797374087
51
49.48517320262588
0
SPLINE
5
283
100
AcDbEntity
8
0
100
AcDbSpline
70
0
71
3
72
8
73
4
74
0
42
0.000000001
43
0.0000000001
44
0.0000000001
40
0
40
0
40
0
40
0
40
1
40
1
40
1
40
1
10
24.323237551443931
20
18.756766827634141
30
0
10
24.560116011792552
20
20.989901253643932
30
0
10
24.506167171765188
20
22.725262689744827
30
0
10
24.373974714890302
20
23.957471120320307
30
0
0
SPLINE
5
284
100
AcDbEntity
8
0
100
AcDbSpline
70
0
71
3
72
8
73
4
74
0
42
0.000000001
43
0.0000000001
44
0.0000000001
40
0
40
0
40
0
40
0
40
1
40
1
40
1
40
1
10
-52.221098204616467
20
46.023574216078217
30
0
10
-52.462297769910563
20
45.75636398899799
30
0
10
-52.761411418416159
20
45.398540878375016
30
0
10
-53.103342426299619
20
44.935006836813081
30
0
0
ARC
5
285
100
AcDbEntity
8
0
100
AcDbCircle
10
64.290008144497605
20
105.47378006617589
30
0
40
0.39999999999998226
210
0
220
0
230
1
100
AcDbArc
50
115.41416301728285
51
195.61956144531541
0
SPLINE
5
286
100
AcDbEntity
8
0
100
AcDbSpline
70
0
71
3
72
8
73
4
74
0
42
0.000000001
43
0.0000000001
44
0.0000000001
40
0
40
0
40
0
40
0
40
1
40
1
40
1
40
1
10
32.772173493312174
20
147.14669533470672
30
0
10
33.070372757001543
20
148.34956260135382
30
0
10
33.359338024435473
20
150.06154649890175
30
0
10
33.427722318339505
20
152.30616770479691
30
0
0
SPLINE
5
287
100
AcDbEntity
8
0
100
AcDbSpline
70
0
71
3
72
8
73
4
74
0
42
0.000000001
43
0.0000000001
44
0.0000000001
40
0
40
0
40
0
40
0
40
1
40
1
40
1
40
1
10
52.879745734134488
20
44.657543126935984
30
0
10
52.540246460833018
20
45.122861152878038
30
0
10
52.243010461368577
20
45.482245506795479
30
0
10
52.003213305462722
20
45.750714983224114
30
0
0
SPLINE
5
288
100
AcDbEntity
8
0
100
AcDbSpline
70
0
71
3
72
8
73
4
74
0
42
0.000000001
43
0.0000000001
44
0.0000000001
40
0
40
0
40
0
40
0
40
1
40
1
40
1
40
1
10
-66.096346126061491
20
103.71778803076631
30
0
10
-67.335406333191997
20
103.69450144360553
30
0
10
-69.063845508609575
20
103.53052642072623
30
0
10
-71.249682259268127
20
103.01562985919404
30
0
0
SPLINE
5
289
100
AcDbEntity
8
0
100
AcDbSpline
70
0
71
3
72
8
73
4
74
0
42
0.000000001
43
0.0000000001
44
0.0000000001
40
0
40
0
40
0
40
0
40
1
40
1
40
1
40
1
10
-61.176596348676938
20
60.952663924672109
30
0
10
-61.478736333898844
20
60.756985706455225
30
0
10
-61.860269367793009
20
60.488771431544812
30
0
10
-62.310520797126244
20
60.129530186387299
30
0
0
ARC
5
290
100
AcDbEntity
8
0
100
AcDbCircle
10
5.595524044110789e-13
20
87.5
30
0
40
72.919489795076288
210
0
220
-0
230
1
100
AcDbArc
50
55.2148267973743
51
56.985173202626001
0
ARC
5
291
100
AcDbEntity
8
0
100
AcDbCircle
10
3.6326497365735122e-12
20
87.499999999999304
30
0
40
66.355238873711897
210
-0
220
0
230
1
100
AcDbArc
50
344.08041811484111
51
345.61958188515894
0
SPLINE
5
292
100
AcDbEntity
8
0
100
AcDbSpline
70
0
71
3
72
8
73
4
74
0
42
0.000000001
43
0.0000000001
44
0.0000000001
40
0
40
0
40
0
40
0
40
1
40
1
40
1
40
1
10
-62.310520797126244
20
60.129530186387299
30
0
10
-63.279357375198479
20
59.356763632358692
30
0
10
-64.550798699256447
20
58.174466397851177
30
0
10
-65.971490420132753
20
56.435318386944502
30
0
0
ARC
5
293
100
AcDbEntity
8
0
100
AcDbCircle
10
6.7057470687359455e-13
20
87.500000000000156
30
0
40
72.919489795076274
210
0
220
0
230
1
100
AcDbArc
50
100.21482679737431
51
101.98517320262617
0
ARC
5
294
100
AcDbEntity
8
0
100
AcDbCircle
10
1.532107773982716e-13
20
87.500000000000085
30
0
40
72.919489795076217
210
-0
220
0
230
1
100
AcDbArc
50
280.21482679737431
51
281.98517320262613
0
ARC
5
295
100
AcDbEntity
8
0
100
AcDbCircle
10
4.8766546356660001e-13
20
87.499999999999972
30
0
40
72.919489795076316
210
0
220
-0
230
1
100
AcDbArc
50
32.714826797374165
51
34.485173202626164
0
SPLINE
5
296
100
AcDbEntity
8
0
100
AcDbSpline
70
0
71
3
72
8
73
4
74
0
42
0.000000001
43
0.0000000001
44
0.0000000001
40
0
40
0
40
0
40
0
40
1
40
1
40
1
40
1
10
67.216431587954432
20
76.837216854454496
30
0
10
66.689757579737872
20
77.070444449108379
30
0
10
66.252651476323763
20
77.2330624295913
30
0
10
65.910746309339714
20
77.345665238366266
30
0
0
SPLINE
5
297
100
AcDbEntity
8
0
100
AcDbSpline
70
0
71
3
72
8
73
4
74
0
42
0.000000001
43
0.0000000001
44
0.0000000001
40
0
40
0
40
0
40
0
40
1
40
1
40
1
40
1
10
-7.0974350183904491
20
155.1858185736626
30
0
10
-7.1864023115830209
20
154.61672680375125
30
0
10
-7.2303478344562748
20
154.15242609920986
30
0
10
-7.2506222267302887
20
153.79302731683526
30
0
0
SPLINE
5
298
100
AcDbEntity
8
0
100
AcDbSpline
70
0
71
3
72
8
73
4
74
0
42
0.000000001
43
0.0000000001
44
0.0000000001
40
0
40
0
40
0
40
0
40
1
40
1
40
1
40
1
10
7.4517382264597662
20
155.14772884015673
30
0
10
7.2669210485122084
20
156.37314920589716
30
0
10
6.8787422706335679
20
158.0653983092065
30
0
10
6.0829417726854231
20
160.16532743588496
30
0
0
ARC
5
299
100
AcDbEntity
8
0
100
AcDbCircle
10
-47.71075421159086
20
134.18989022955532
30
0
40
0.40000000000000224
210
0
220
0
230
1
100
AcDbArc
50
235.41416301729419
51
315.61956144528546
0
ARC
5
300
100
AcDbEntity
8
0
100
AcDbCircle
10
-62.075846435851794
20
62.946971544038206
30
0
40
0.40000000000000613
210
0
220
-0
230
1
100
AcDbArc
50
21.58043855471832
51
101.78583698270847
0
SPLINE
5
301
100
AcDbEntity
8
0
100
AcDbSpline
70
0
71
3
72
8
73
4
74
0
42
0.000000001
43
0.0000000001
44
0.0000000001
40
0
40
0
40
0
40
0
40
1
40
1
40
1
40
1
10
64.980305702910599
20
120.58794134923743
30
0
10
62.735357208037982
20
120.53131074817756
30
0
10
61.021883766252962
20
120.25131332757566
30
0
10
59.81747162765344
20
119.9594163210302
30
0
0
ARC
5
302
100
AcDbEntity
8
0
100
AcDbCircle
10
4.4908521346087582e-13
20
87.500000000000497
30
0
40
72.919489795076274
210
-0
220
0
230
1
100
AcDbArc
50
347.71482679737392
51
349.48517320262562
0
SPLINE
5
303
100
AcDbEntity
8
0
100
AcDbSpline
70
0
71
3
72
8
73
4
74
0
42
0.000000001
43
0.0000000001
44
0.0000000001
40
0
40
0
40
0
40
0
40
1
40
1
40
1
40
1
10
59.646695334706969
20
54.727826506688316
30
0
10
60.849562601354123
20
54.429627242998947
30
0
10
62.561546498902025
20
54.140661975565045
30
0
10
64.806167704797161
20
54.072277681660914
30
0
0
SPLINE
5
304
100
AcDbEntity
8
0
100
AcDbSpline
70
0
71
3
72
8
73
4
74
0
42
0.000000001
43
0.0000000001
44
0.0000000001
40
0
40
0
40
0
40
0
40
1
40
1
40
1
40
1
10
1.115270571569055
20
20.82096907529635
30
0
10
1.1804297057384092
20
20.466945314810236
30
0
10
1.2822210136842629
20
20.011813594486419
30
0
10
1.4418128849145908
20
19.458359841697582
30
0
0
SPLINE
5
305
100
AcDbEntity
8
0
100
AcDbSpline
70
0
71
3
72
8
73
4
74
0
42
0.000000001
43
0.0000000001
44
0.0000000001
40
0
40
0
40
0
40
0
40
1
40
1
40
1
40
1
10
33.087941349237695
20
22.519694297089913
30
0
10
33.031310748177944
20
24.764642791962537
30
0
10
32.751313327575943
20
26.478116233747549
30
0
10
32.459416321030467
20
27.682528372347058
30
0
0
ARC
5
306
100
AcDbEntity
8
0
100
AcDbCircle
10
2.4730217873525362e-13
20
87.50000000000027
30
0
40
72.919489795076316
210
0
220
-0
230
1
100
AcDbArc
50
40.214826797373895
51
41.985173202625695
0
SPLINE
5
307
100
AcDbEntity
8
0
100
AcDbSpline
70
0
71
3
72
8
73
4
74
0
42
0.000000001
43
0.0000000001
44
0.0000000001
40
0
40
0
40
0
40
0
40
1
40
1
40
1
40
1
10
46.360579545791943
20
135.43781031381971
30
0
10
46.564837681905416
20
135.73421738118796
30
0
10
46.814687083565083
20
136.12802143107632
30
0
10
47.093189490866052
20
136.63222082711576
30
0
0
ARC
5
308
100
AcDbEntity
8
0
100
AcDbCircle
10
3.7470027081099033e-13
20
87.500000000000369
30
0
40
72.919489795076316
210
-0
220
0
230
1
100
AcDbArc
50
355.21482679737397
51
356.98517320262613
0
ARC
5
309
100
AcDbEntity
8
0
100
AcDbCircle
10
41.20832850851528
20
34.982045178614527
30
0
40
0.40000000000004177
210
0
220
-0
230
1
100
AcDbArc
50
47.914163017285929
51
128.11956144527826
0
SPLINE
5
310
100
AcDbEntity
8
0
100
AcDbSpline
70
0
71
3
72
8
73
4
74
0
42
0.000000001
43
0.0000000001
44
0.0000000001
40
0
40
0
40
0
40
0
40
1
40
1
40
1
40
1
10
-32.459416321029693
20
147.31747162765319
30
0
10
-32.323829390432842
20
146.75765308018433
30
0
10
-32.186749572297444
20
146.31187793879772
30
0
10
-32.067944708726628
20
145.97207808572784
30
0
0
ARC
5
311
100
AcDbEntity
8
0
100
AcDbCircle
10
-8.1989970368567811e-13
20
87.499999999999588
30
0
40
66.35523887371393
210
0
220
0
230
1
100
AcDbArc
50
209.080418114841
51
210.61958188515919
0
ARC
5
312
100
AcDbEntity
8
0
100
AcDbCircle
10
4.8960835385969403e-13
20
87.500000000000028
30
0
40
72.919489795076274
210
0
220
0
230
1
100
AcDbArc
50
235.214826797374
51
236.98517320262593
0
SPLINE
5
313
100
AcDbEntity
8
0
100
AcDbSpline
70
0
71
3
72
8
73
4
74
0
42
0.000000001
43
0.0000000001
44
0.0000000001
40
0
40
0
40
0
40
0
40
1
40
1
40
1
40
1
10
67.271340148633683
20
97.81069417808105
30
0
10
68.407171122448062
20
98.306375992312667
30
0
10
69.941290175229483
20
99.119314196077028
30
0
10
71.763697627093677
20
100.43150010096878
30
0
0
ARC
5
314
100
AcDbEntity
8
0
100
AcDbCircle
10
58.339965652428489
20
119.94549775793701
30
0
40
0.39999999999998209
210
0
220
0
230
1
100
AcDbArc
50
209.08043855472334
51
289.28583698270694
0
ARC
5
315
100
AcDbEntity
8
0
100
AcDbCircle
10
-18.310153843411683
20
23.304983189367775
30
0
40
0.40000000000002067
210
0
220
-0
230
1
100
AcDbArc
50
74.080438554718739
51
154.2858369827083
0
SPLINE
5
316
100
AcDbEntity
8
0
100
AcDbSpline
70
0
71
3
72
8
73
4
74
0
42
0.000000001
43
0.0000000001
44
0.0000000001
40
0
40
0
40
0
40
0
40
1
40
1
40
1
40
1
10
18.335071760672101
20
23.381655222265657
30
0
10
18.489638742817501
20
23.056558953777568
30
0
10
18.705758353304191
20
22.643280999875724
30
0
10
19.003156635196653
20
22.149991142118253
30
0
0
ARC
5
317
100
AcDbEntity
8
0
100
AcDbCircle
10
2.681188604469753e-13
20
87.49999999999973
30
0
40
72.919489795076259
210
-0
220
0
230
1
100
AcDbArc
50
340.21482679737443
51
341.9851732026263
0
SPLINE
5
318
100
AcDbEntity
8
0
100
AcDbSpline
70
0
71
3
72
8
73
4
74
0
42
0.000000001
43
0.0000000001
44
0.0000000001
40
0
40
0
40
0
40
0
40
1
40
1
40
1
40
1
10
-68.041640158302158
20
86.0581871150859
30
0
10
-69.232453400443987
20
85.71500161950712
30
0
10
-70.859557580307367
20
85.109260933142281
30
0
10
-72.837648713437829
20
84.046172865935503
30
0
0
SPLINE
5
319
100
AcDbEntity
8
0
100
AcDbSpline
70
0
71
3
72
8
73
4
74
0
42
0.000000001
43
0.0000000001
44
0.0000000001
40
0
40
0
40
0
40
0
40
1
40
1
40
1
40
1
10
-61.145150618823727
20
127.23062480978045
30
0
10
-59.973632832238067
20
125.31475768356316
30
0
10
-58.874411232110226
20
123.97084486456832
30
0
10
-58.019414939853405
20
123.07374185918752
30
0
0
SPLINE
5
320
100
AcDbEntity
8
0
100
AcDbSpline
70
0
71
3
72
8
73
4
74
0
42
0.000000001
43
0.0000000001
44
0.0000000001
40
0
40
0
40
0
40
0
40
1
40
1
40
1
40
1
10
7.0974350183912014
20
19.81418142633764
30
0
10
7.1864023115837741
20
20.383273196248982
30
0
10
7.2303478344570262
20
20.847573900790401
30
0
10
7.2506222267310481
20
21.206972683164995
30
0
0
SPLINE
5
321
100
AcDbEntity
8
0
100
AcDbSpline
70
0
71
3
72
8
73
4
74
0
42
0.000000001
43
0.0000000001
44
0.0000000001
40
0
40
0
40
0
40
0
40
1
40
1
40
1
40
1
10
-57.188099394736994
20
53.194631890576545
30
0
10
-57.46211339777652
20
52.961190544854219
30
0
10
-57.805373375672076
20
52.645470826126825
30
0
10
-58.204882449791917
20
52.230533335009412
30
0
0
ARC
5
322
100
AcDbEntity
8
0
100
AcDbCircle
10
-2.9073965457371287e-12
20
87.499999999999929
30
0
40
66.355238873712011
210
0
220
0
230
1
100
AcDbArc
50
179.08041811484136
51
180.61958188515885
0
ARC
5
323
100
AcDbEntity
8
0
100
AcDbCircle
10
4.1300296516055823e-13
20
87.499999999999844
30
0
40
72.919489795076316
210
0
220
-0
230
1
100
AcDbArc
50
10.214826797374245
51
11.985173202626029
0
ARC
5
324
100
AcDbEntity
8
0
100
AcDbCircle
10
6.6335825721353103e-14
20
87.499999999999204
30
0
40
66.355238873714285
210
0
220
0
230
1
100
AcDbArc
50
246.58041811484077
51
248.11958188515905
0
SPLINE
5
325
100
AcDbEntity
8
0
100
AcDbSpline
70
0
71
3
72
8
73
4
74
0
42
0.000000001
43
0.0000000001
44
0.0000000001
40
0
40
0
40
0
40
0
40
1
40
1
40
1
40
1
10
-48.778637760463006
20
141.70236609418211
30
0
10
-48.142901374593777
20
139.54856944238574
30
0
10
-47.428965074728715
20
137.96594985733657
30
0
10
-46.835289417867784
20
136.87812557166961
30
0
0
ARC
5
326
100
AcDbEntity
8
0
100
AcDbCircle
10
6.8306471590062756e-13
20
87.500000000000284
30
0
40
72.919489795076302
210
-0
220
0
230
1
100
AcDbArc
50
295.21482679737386
51
296.98517320262567
0
SPLINE
5
327
100
AcDbEntity
8
0
100
AcDbSpline
70
0
71
3
72
8
73
4
74
0
42
0.000000001
43
0.0000000001
44
0.0000000001
40
0
40
0
40
0
40
0
40
1
40
1
40
1
40
1
10
66.679030924704165
20
88.615270571568786
30
0
10
67.033054685190251
20
88.680429705738163
30
0
10
67.488186405514085
20
88.782221013684008
30
0
10
68.041640158302911
20
88.94181288491437
30
0
0
SPLINE
5
328
100
AcDbEntity
8
0
100
AcDbSpline
70
0
71
3
72
8
73
4
74
0
42
0.000000001
43
0.0000000001
44
0.0000000001
40
0
40
0
40
0
40
0
40
1
40
1
40
1
40
1
10
-42.842456873063739
20
34.620254265865931
30
0
10
-42.377138847121699
20
34.959753539167508
30
0
10
-42.017754493204258
20
35.256989538631935
30
0
10
-41.749285016775623
20
35.496786694537775
30
0
0
ARC
5
329
100
AcDbEntity
8
0
100
AcDbCircle
10
7.8853590324001743e-13
20
87.500000000000256
30
0
40
72.919489795076288
210
0
220
0
230
1
100
AcDbArc
50
107.71482679737441
51
109.48517320262623
0
SPLINE
5
330
100
AcDbEntity
8
0
100
AcDbSpline
70
0
71
3
72
8
73
4
74
0
42
0.000000001
43
0.0000000001
44
0.0000000001
40
0
40
0
40
0
40
0
40
1
40
1
40
1
40
1
10
34.305368109423959
20
30.311900605262757
30
0
10
34.538809455146286
20
30.037886602223217
30
0
10
34.854529173873686
20
29.694626624327665
30
0
10
35.269466664991128
20
29.295117550207816
30
0
0
SPLINE
5
331
100
AcDbEntity
8
0
100
AcDbSpline
70
0
71
3
72
8
73
4
74
0
42
0.000000001
43
0.0000000001
44
0.0000000001
40
0
40
0
40
0
40
0
40
1
40
1
40
1
40
1
10
-59.646695334706195
20
120.27217349331193
30
0
10
-60.849562601353341
20
120.57037275700128
30
0
10
-62.561546498901237
20
120.85933802443519
30
0
10
-64.806167704796394
20
120.92772231833922
30
0
0
SPLINE
5
332
100
AcDbEntity
8
0
100
AcDbSpline
70
0
71
3
72
8
73
4
74
0
42
0.000000001
43
0.0000000001
44
0.0000000001
40
0
40
0
40
0
40
0
40
1
40
1
40
1
40
1
10
16.21778803076657
20
153.596346126062
30
0
10
16.194501443605787
20
154.83540633319257
30
0
10
16.030526420726488
20
156.56384550861006
30
0
10
15.515629859194316
20
158.74968225926861
30
0
0
ARC
5
333
100
AcDbEntity
8
0
100
AcDbCircle
10
4.5102810375396984e-13
20
87.500000000000256
30
0
40
72.919489795076288
210
-0
220
0
230
1
100
AcDbArc
50
332.71482679737397
51
334.48517320262579
0
ARC
5
334
100
AcDbEntity
8
0
100
AcDbCircle
10
16.24045002972046
20
22.750407723917398
30
0
40
0.40000000000001656
210
0
220
0
230
1
100
AcDbArc
50
104.08043855471834
51
184.28583698271063
0
ARC
5
335
100
AcDbEntity
8
0
100
AcDbCircle
10
-1.4763190669953019e-12
20
87.499999999996788
30
0
40
66.355238873711471
210
0
220
0
230
1
100
AcDbArc
50
239.08041811484077
51
240.61958188515905
0
SPLINE
5
336
100
AcDbEntity
8
0
100
AcDbSpline
70
0
71
3
72
8
73
4
74
0
42
0.000000001
43
0.0000000001
44
0.0000000001
40
0
40
0
40
0
40
0
40
1
40
1
40
1
40
1
10
-41.2865012968347
20
147.60554718693345
30
0
10
-40.937330599651638
20
145.38719631436263
30
0
10
-40.436075431971503
20
143.72492887254697
30
0
10
-39.989468314466571
20
142.56892085154104
30
0
0
ARC
5
337
100
AcDbEntity
8
0
100
AcDbCircle
10
-58.33996565242775
20
55.054502242063244
30
0
40
0.40000000000001656
210
0
220
-0
230
1
100
AcDbArc
50
29.080438554719482
51
109.28583698271954
0
SPLINE
5
338
100
AcDbEntity
8
0
100
AcDbSpline
70
0
71
3
72
8
73
4
74
0
42
0.000000001
43
0.0000000001
44
0.0000000001
40
0
40
0
40
0
40
0
40
1
40
1
40
1
40
1
10
-47.937810313819199
20
133.86057954579169
30
0
10
-48.234217381187449
20
134.06483768190515
30
0
10
-48.62802143107583
20
134.31468708356482
30
0
10
-49.13222082711529
20
134.59318949086583
30
0
0
SPLINE
5
339
100
AcDbEntity
8
0
100
AcDbSpline
70
0
71
3
72
8
73
4
74
0
42
0.000000001
43
0.0000000001
44
0.0000000001
40
0
40
0
40
0
40
0
40
1
40
1
40
1
40
1
10
-62.166355869931337
20
115.19635025919564
30
0
10
-61.717991586699689
20
114.83475643822922
30
0
10
-61.337868143008492
20
114.56454814676768
30
0
10
-61.036756863519976
20
114.36729061682483
30
0
0
SPLINE
5
340
100
AcDbEntity
8
0
100
AcDbSpline
70
0
71
3
72
8
73
4
74
0
42
0.000000001
43
0.0000000001
44
0.0000000001
40
0
40
0
40
0
40
0
40
1
40
1
40
1
40
1
10
-10.662783145545234
20
20.283568412046073
30
0
10
-10.429555550891369
20
20.810242420262629
30
0
10
-10.266937570408443
20
21.247348523676767
30
0
10
-10.154334761633468
20
21.58925369066074
30
0
0
SPLINE
5
341
100
AcDbEntity
8
0
100
AcDbSpline
70
0
71
3
72
8
73
4
74
0
42
0.000000001
43
0.0000000001
44
0.0000000001
40
0
40
0
40
0
40
0
40
1
40
1
40
1
40
1
10
55.068920851541321
20
127.48946831446709
30
0
10
54.531589275117057
20
127.28197036552216
30
0
10
54.10752030855258
20
127.08787795244221
30
0
10
53.786134636790031
20
126.92573670001053
30
0
0
SPLINE
5
342
100
AcDbEntity
8
0
100
AcDbSpline
70
0
71
3
72
8
73
4
74
0
42
0.000000001
43
0.0000000001
44
0.0000000001
40
0
40
0
40
0
40
0
40
1
40
1
40
1
40
1
10
63.414036604381309
20
62.793653014553854
30
0
10
64.645535989225607
20
62.655010570965182
30
0
10
66.380591163246109
20
62.591976180741383
30
0
10
68.614935265052566
20
62.817158782933326
30
0
0
SPLINE
5
343
100
AcDbEntity
8
0
100
AcDbSpline
70
0
71
3
72
8
73
4
74
0
42
0.000000001
43
0.0000000001
44
0.0000000001
40
0
40
0
40
0
40
0
40
1
40
1
40
1
40
1
10
39.989468314467317
20
32.431079148459197
30
0
10
39.781970365522412
20
32.968410724883455
30
0
10
39.587877952442454
20
33.392479691447924
30
0
10
39.425736700010866
20
33.713865363210459
30
0
0
ARC
5
344
100
AcDbEntity
8
0
100
AcDbCircle
10
64.749592276083106
20
103.74045002972011
30
0
40
0.40000000000000535
210
0
220
0
230
1
100
AcDbArc
50
194.0804385547319
51
274.28583698270569
0
SPLINE
5
345
100
AcDbEntity
8
0
100
AcDbSpline
70
0
71
3
72
8
73
4
74
0
42
0.000000001
43
0.0000000001
44
0.0000000001
40
0
40
0
40
0
40
0
40
1
40
1
40
1
40
1
10
5.7023853629720787
20
14.80381857933406
30
0
10
6.5091701052398108
20
16.899552138079258
30
0
10
6.9062041171584223
20
18.589745554415515
30
0
10
7.0974350183912014
20
19.81418142633764
30
0
0
ARC
5
346
100
AcDbEntity
8
0
100
AcDbCircle
10
17.973780066176236
20
23.209991855502906
30
0
40
0.40000000000001673
210
0
220
-0
230
1
100
AcDbArc
50
25.414163017291866
51
105.61956144533417
0
SPLINE
5
347
100
AcDbEntity
8
0
100
AcDbSpline
70
0
71
3
72
8
73
4
74
0
42
0.000000001
43
0.0000000001
44
0.0000000001
40
0
40
0
40
0
40
0
40
1
40
1
40
1
40
1
10
-66.254154592684586
20
95.097630730301574
30
0
10
-66.613654604494158
20
95.079238414969481
30
0
10
-67.078179041684677
20
95.037724556186447
30
0
10
-67.647728840156219
20
94.951738226459511
30
0
0
ARC
5
348
100
AcDbEntity
8
0
100
AcDbCircle
10
61.946436746561616
20
62.622281224134262
30
0
40
0.40000000000001634
210
0
220
-0
230
1
100
AcDbArc
50
77.914163017293859
51
158.11956144527844
0
ARC
5
349
100
AcDbEntity
8
0
100
AcDbCircle
10
-24.877718775865457
20
25.553563253438881
30
0
40
0.4000000000000129
210
-0
220
0
230
1
100
AcDbArc
50
-12.085836982708226
51
68.119561445280524
0
SPLINE
5
350
100
AcDbEntity
8
0
100
AcDbSpline
70
0
71
3
72
8
73
4
74
0
42
0.000000001
43
0.0000000001
44
0.0000000001
40
0
40
0
40
0
40
0
40
1
40
1
40
1
40
1
10
54.858782570667522
20
47.222740973456332
30
0
10
56.012436326687414
20
46.770087161744485
30
0
10
57.672056428623918
20
46.260135292942699
30
0
10
59.888548647448481
20
45.899354177170899
30
0
0
SPLINE
5
351
100
AcDbEntity
8
0
100
AcDbSpline
70
0
71
3
72
8
73
4
74
0
42
0.000000001
43
0.0000000001
44
0.0000000001
40
0
40
0
40
0
40
0
40
1
40
1
40
1
40
1
10
-65.249613215304734
20
106.84506642738992
30
0
10
-64.757887286090124
20
106.54508937430592
30
0
10
-64.345746591763984
20
106.32680881791435
30
0
10
-64.02146408674318
20
106.17054176223138
30
0
0
SPLINE
5
352
100
AcDbEntity
8
0
100
AcDbSpline
70
0
71
3
72
8
73
4
74
0
42
0.000000001
43
0.0000000001
44
0.0000000001
40
0
40
0
40
0
40
0
40
1
40
1
40
1
40
1
10
-46.835289417867784
20
136.87812557166961
30
0
10
-46.559430798010382
20
136.37247485853925
30
0
10
-46.311646764986392
20
135.97736800438892
30
0
10
-46.108943405477007
20
135.67989551188242
30
0
0
SPLINE
5
353
100
AcDbEntity
8
0
100
AcDbSpline
70
0
71
3
72
8
73
4
74
0
42
0.000000001
43
0.0000000001
44
0.0000000001
40
0
40
0
40
0
40
0
40
1
40
1
40
1
40
1
10
65.807932549905331
20
56.090319876169104
30
0
10
64.396366419602273
20
57.836882737731273
30
0
10
63.131132989705293
20
59.025820986387302
30
0
10
62.166355869932076
20
59.803649740804616
30
0
0
ARC
5
354
100
AcDbEntity
8
0
100
AcDbCircle
10
-34.000816879550499
20
144.94742264549421
30
0
40
0.40000000000000696
210
0
220
0
230
1
100
AcDbArc
50
220.41416301728572
51
300.6195614453078
0
ARC
5
355
100
AcDbEntity
8
0
100
AcDbCircle
10
66.751335832715142
20
88.22185984436689
30
0
40
0.3999999999999968
210
0
220
0
230
1
100
AcDbArc
50
100.41416301729174
51
180.61956144528023
0
SPLINE
5
356
100
AcDbEntity
8
0
100
AcDbSpline
70
0
71
3
72
8
73
4
74
0
42
0.000000001
43
0.0000000001
44
0.0000000001
40
0
40
0
40
0
40
0
40
1
40
1
40
1
40
1
10
48.778637760463781
20
33.297633905818124
30
0
10
48.142901374594544
20
35.451430557614486
30
0
10
47.428965074729483
20
37.034050142663659
30
0
10
46.835289417868566
20
38.121874428330599
30
0
0
ARC
5
357
100
AcDbEntity
8
0
100
AcDbCircle
10
-34.301143431945569
20
30.231391876981636
30
0
40
0.4000000000000164
210
0
220
-0
230
1
100
AcDbArc
50
59.080438554720423
51
139.28583698270879
0
ARC
5
358
100
AcDbEntity
8
0
100
AcDbCircle
10
-4.801714581503802e-14
20
87.500000000000199
30
0
40
72.919489795076288
210
0
220
-0
230
1
100
AcDbArc
50
77.714826797373789
51
79.48517320262529
0
ARC
5
359
100
AcDbEntity
8
0
100
AcDbCircle
10
66.086047284381237
20
96.928481925175802
30
0
40
0.4000000000000058
210
0
220
0
230
1
100
AcDbArc
50
107.91416301728985
51
188.11956144529447
0
SPLINE
5
360
100
AcDbEntity
8
0
100
AcDbSpline
70
0
71
3
72
8
73
4
74
0
42
0.000000001
43
0.0000000001
44
0.0000000001
40
0
40
0
40
0
40
0
40
1
40
1
40
1
40
1
10
-5.7023853629713361
20
160.19618142066616
30
0
10
-6.5091701052390505
20
158.100447861921
30
0
10
-6.9062041171576629
20
156.41025444558471
30
0
10
-7.0974350183904491
20
155.1858185736626
30
0
0
SPLINE
5
361
100
AcDbEntity
8
0
100
AcDbSpline
70
0
71
3
72
8
73
4
74
0
42
0.000000001
43
0.0000000001
44
0.0000000001
40
0
40
0
40
0
40
0
40
1
40
1
40
1
40
1
10
57.188099394737748
20
121.8053681094237
30
0
10
57.462113397777294
20
122.03880945514595
30
0
10
57.805373375672829
20
122.35452917387342
30
0
10
58.204882449792677
20
122.76946666499086
30
0
0
ARC
5
362
100
AcDbEntity
8
0
100
AcDbCircle
10
46.689890229555573
20
135.21075421159136
30
0
40
0.40000000000002522
210
0
220
0
230
1
100
AcDbArc
50
145.4141630172906
51
225.61956144532138
0
SPLINE
5
363
100
AcDbEntity
8
0
100
AcDbSpline
70
0
71
3
72
8
73
4
74
0
42
0.000000001
43
0.0000000001
44
0.0000000001
40
0
40
0
40
0
40
0
40
1
40
1
40
1
40
1
10
-15.871487643635117
20
153.68035584525799
30
0
10
-15.885412427550961
20
153.10452017231668
30
0
10
-15.868378587375165
20
152.63845558290112
30
0
10
-15.841568574860856
20
152.2794851677088
30
0
0
SPLINE
5
364
100
AcDbEntity
8
0
100
AcDbSpline
70
0
71
3
72
8
73
4
74
0
42
0.000000001
43
0.0000000001
44
0.0000000001
40
0
40
0
40
0
40
0
40
1
40
1
40
1
40
1
10
27.370469813613308
20
25.189479202873596
30
0
10
28.143236367641901
20
24.220642624801258
30
0
10
29.325533602149324
20
22.949201300743283
30
0
10
31.064681613055999
20
21.528509579866988
30
0
0
ARC
5
365
100
AcDbEntity
8
0
100
AcDbCircle
10
-1.8615664565402312e-12
20
87.500000000002402
30
0
40
66.355238873712054
210
0
220
0
230
1
100
AcDbArc
50
134.08041811484094
51
135.61958188515914
0
SPLINE
5
366
100
AcDbEntity
8
0
100
AcDbSpline
70
0
71
3
72
8
73
4
74
0
42
0.000000001
43
0.0000000001
44
0.0000000001
40
0
40
0
40
0
40
0
40
1
40
1
40
1
40
1
10
65.249613215305516
20
68.154933572610418
30
0
10
64.757887286090877
20
68.454910625694311
30
0
10
64.345746591764723
20
68.673191182085901
30
0
10
64.021464086743919
20
68.829458237768847
30
0
0
SPLINE
5
367
100
AcDbEntity
8
0
100
AcDbSpline
70
0
71
3
72
8
73
4
74
0
42
0.000000001
43
0.0000000001
44
0.0000000001
40
0
40
0
40
0
40
0
40
1
40
1
40
1
40
1
10
60.105547186933691
20
128.78650129683518
30
0
10
57.887196314362903
20
128.43733059965214
30
0
10
56.224928872547224
20
127.936075431972
30
0
10
55.068920851541321
20
127.48946831446709
30
0
0
SPLINE
5
368
100
AcDbEntity
8
0
100
AcDbSpline
70
0
71
3
72
8
73
4
74
0
42
0.000000001
43
0.0000000001
44
0.0000000001
40
0
40
0
40
0
40
0
40
1
40
1
40
1
40
1
10
-24.706346985445876
20
24.085963395619196
30
0
10
-24.844989429034552
20
22.85446401077493
30
0
10
-24.908023819258336
20
21.119408836754392
30
0
10
-24.682841217066411
20
18.885064734947939
30
0
0
ARC
5
369
100
AcDbEntity
8
0
100
AcDbCircle
10
3.282096816548119e-12
20
87.50000000000172
30
0
40
66.35523887371194
210
0
220
-0
230
1
100
AcDbArc
50
29.080418114840903
51
30.61958188515915
0
SPLINE
5
370
100
AcDbEntity
8
0
100
AcDbSpline
70
0
71
3
72
8
73
4
74
0
42
0.000000001
43
0.0000000001
44
0.0000000001
40
0
40
0
40
0
40
0
40
1
40
1
40
1
40
1
10
47.937810313819973
20
41.139420454208562
30
0
10
48.23421738118823
20
40.935162318095095
30
0
10
48.628021431076604
20
40.685312916435407
30
0
10
49.132220827116001
20
40.406810509134424
30
0
0
ARC
5
371
100
AcDbEntity
8
0
100
AcDbCircle
10
-32.445497757936494
20
145.83996565242825
30
0
40
0.40000000000004204
210
-0
220
0
230
1
100
AcDbArc
50
-60.919561445280607
51
19.285836982708911
0
ARC
5
372
100
AcDbEntity
8
0
100
AcDbCircle
10
-16.240450029719597
20
152.24959227608284
30
0
40
0.4000000000000391
210
-0
220
0
230
1
100
AcDbArc
50
-75.919561445310052
51
4.2858369827141329
0
ARC
5
373
100
AcDbEntity
8
0
100
AcDbCircle
10
1.3744561044859438e-12
20
87.500000000002771
30
0
40
66.355238873712381
210
0
220
-0
230
1
100
AcDbArc
50
66.580418114840782
51
68.119581885159008
0
ARC
5
374
100
AcDbEntity
8
0
100
AcDbCircle
10
-2.9484747976482595e-12
20
87.500000000001307
30
0
40
66.355238873711684
210
0
220
0
230
1
100
AcDbArc
50
156.580418114841
51
158.11958188515896
0
SPLINE
5
375
100
AcDbEntity
8
0
100
AcDbSpline
70
0
71
3
72
8
73
4
74
0
42
0.000000001
43
0.0000000001
44
0.0000000001
40
0
40
0
40
0
40
0
40
1
40
1
40
1
40
1
10
-69.344722509650779
20
110.05130710255436
30
0
10
-67.717260323479792
20
108.50393268044746
30
0
10
-66.307663558588175
20
107.49031206520067
30
0
10
-65.249613215304734
20
106.84506642738992
30
0
0
ARC
5
376
100
AcDbEntity
8
0
100
AcDbCircle
10
3.1141755840735641e-13
20
87.499999999999702
30
0
40
72.919489795076274
210
0
220
0
230
1
100
AcDbArc
50
167.71482679737377
51
169.48517320262562
0
SPLINE
5
377
100
AcDbEntity
8
0
100
AcDbSpline
70
0
71
3
72
8
73
4
74
0
42
0.000000001
43
0.0000000001
44
0.0000000001
40
0
40
0
40
0
40
0
40
1
40
1
40
1
40
1
10
27.696350259195913
20
149.66635586993181
30
0
10
27.334756438229473
20
149.21799158670018
30
0
10
27.064548146768026
20
148.83786814300899
30
0
10
26.867290616825095
20
148.53675686352048
30
0
0
SPLINE
5
378
100
AcDbEntity
8
0
100
AcDbSpline
70
0
71
3
72
8
73
4
74
0
42
0.000000001
43
0.0000000001
44
0.0000000001
40
0
40
0
40
0
40
0
40
1
40
1
40
1
40
1
10
68.033158180217882
20
85.701943312200854
30
0
10
67.480547631301647
20
85.864430859617258
30
0
10
67.025955125417653
20
85.968603825459184
30
0
10
66.672277388671475
20
86.035615722048618
30
0
0
ARC
5
379
100
AcDbEntity
8
0
100
AcDbCircle
10
62.075846435852554
20
112.05302845596215
30
0
40
0.40000000000000091
210
0
220
0
230
1
100
AcDbArc
50
201.58043855472701
51
281.78583698271103
0
ARC
5
380
100
AcDbEntity
8
0
100
AcDbCircle
10
6.8389738316909643e-13
20
87.5
30
0
40
72.919489795076316
210
0
220
-0
230
1
100
AcDbArc
50
70.2148267973743
51
71.9851732026261
0
ARC
5
381
100
AcDbEntity
8
0
100
AcDbCircle
10
-66.274490517983963
20
95.497113458516708
30
0
40
0.39999999999998914
210
-0
220
0
230
1
100
AcDbArc
50
272.91416301728799
51
353.11956144528011
0
ARC
5
382
100
AcDbEntity
8
0
100
AcDbCircle
10
2.6512125828048738e-12
20
87.500000000002359
30
0
40
66.35523887371204
210
0
220
-0
230
1
100
AcDbArc
50
44.080418114840967
51
45.619581885158894
0
ARC
5
383
100
AcDbEntity
8
0
100
AcDbCircle
10
-17.973780066175369
20
151.79000814449734
30
0
40
0.40000000000002223
210
0
220
0
230
1
100
AcDbArc
50
205.41416301729527
51
285.61956144528091
0
ARC
5
384
100
AcDbEntity
8
0
100
AcDbCircle
10
5.1181281435219717e-13
20
87.500000000000512
30
0
40
72.919489795076259
210
0
220
0
230
1
100
AcDbArc
50
160.21482679737443
51
161.98517320262627
0
SPLINE
5
385
100
AcDbEntity
8
0
100
AcDbSpline
70
0
71
3
72
8
73
4
74
0
42
0.000000001
43
0.0000000001
44
0.0000000001
40
0
40
0
40
0
40
0
40
1
40
1
40
1
40
1
10
19.34506642739019
20
152.74961321530523
30
0
10
19.04508937430619
20
152.25788728609061
30
0
10
18.82680881791461
20
151.84574659176451
30
0
10
18.670541762231665
20
151.52146408674366
30
0
0
SPLINE
5
386
100
AcDbEntity
8
0
100
AcDbSpline
70
0
71
3
72
8
73
4
74
0
42
0.000000001
43
0.0000000001
44
0.0000000001
40
0
40
0
40
0
40
0
40
1
40
1
40
1
40
1
10
10.310694178081366
20
20.228659851366825
30
0
10
10.806375992312967
20
19.092828877552435
30
0
10
11.61931419607731
20
17.558709824771032
30
0
10
12.931500100969071
20
15.736302372906861
30
0
0
ARC
5
387
100
AcDbEntity
8
0
100
AcDbCircle
10
24.877718775866246
20
149.44643674656135
30
0
40
0.40000000000001257
210
0
220
0
230
1
100
AcDbArc
50
167.91416301729376
51
248.11956144528116
0
SPLINE
5
388
100
AcDbEntity
8
0
100
AcDbSpline
70
0
71
3
72
8
73
4
74
0
42
0.000000001
43
0.0000000001
44
0.0000000001
40
0
40
0
40
0
40
0
40
1
40
1
40
1
40
1
10
42.842456873064513
20
140.3797457341343
30
0
10
42.377138847122346
20
140.04024646083272
30
0
10
42.01775449320504
20
139.74301046136833
30
0
10
41.749285016776398
20
139.50321330546248
30
0
0
ARC
5
389
100
AcDbEntity
8
0
100
AcDbCircle
10
-53.396835682186605
20
127.56294867101406
30
0
40
0.39999999999999009
210
0
220
0
230
1
100
AcDbArc
50
242.9141630172831
51
323.1195614452796
0
SPLINE
5
390
100
AcDbEntity
8
0
100
AcDbSpline
70
0
71
3
72
8
73
4
74
0
42
0.000000001
43
0.0000000001
44
0.0000000001
40
0
40
0
40
0
40
0
40
1
40
1
40
1
40
1
10
65.963010550681432
20
97.309089284747969
30
0
10
66.305500615148119
20
97.419900346903432
30
0
10
66.743452188684074
20
97.580227426511271
30
0
10
67.271340148633683
20
97.81069417808105
30
0
0
ARC
5
391
100
AcDbEntity
8
0
100
AcDbCircle
10
-52.517954821385196
20
46.291671491485104
30
0
40
0.39999999999996311
210
-0
220
0
230
1
100
AcDbArc
50
-42.085836982706311
51
38.119561445301521
0
SPLINE
5
392
100
AcDbEntity
8
0
100
AcDbSpline
70
0
71
3
72
8
73
4
74
0
42
0.000000001
43
0.0000000001
44
0.0000000001
40
0
40
0
40
0
40
0
40
1
40
1
40
1
40
1
10
24.70634698544665
20
150.91403660438104
30
0
10
24.844989429035316
20
152.14553598922529
30
0
10
24.908023819259121
20
153.88059116324587
30
0
10
24.682841217067192
20
156.11493526505231
30
0
0
ARC
5
393
100
AcDbEntity
8
0
100
AcDbCircle
10
5.3096416152698112e-13
20
87.500000000000256
30
0
40
72.919489795076245
210
-0
220
0
230
1
100
AcDbArc
50
310.21482679737397
51
311.98517320262596
0
SPLINE
5
394
100
AcDbEntity
8
0
100
AcDbSpline
70
0
71
3
72
8
73
4
74
0
42
0.000000001
43
0.0000000001
44
0.0000000001
40
0
40
0
40
0
40
0
40
1
40
1
40
1
40
1
10
65.350008857882258
20
106.50315663519628
30
0
10
66.41142318049539
20
107.14285351481031
30
0
10
67.826307903863523
20
108.1490796379187
30
0
10
69.461849777693331
20
109.68791151585604
30
0
0
ARC
5
395
100
AcDbEntity
8
0
100
AcDbCircle
10
-0.72185984436637729
20
154.25133583271486
30
0
40
0.40000000000001595
210
0
220
0
230
1
100
AcDbArc
50
190.41416301728719
51
270.61956144528114
0
SPLINE
5
396
100
AcDbEntity
8
0
100
AcDbSpline
70
0
71
3
72
8
73
4
74
0
42
0.000000001
43
0.0000000001
44
0.0000000001
40
0
40
0
40
0
40
0
40
1
40
1
40
1
40
1
10
63.542528879680226
20
111.87397471489004
30
0
10
62.969802011724731
20
111.81261873261563
30
0
10
62.509948031777405
20
111.73489698311884
30
0
10
62.157548067096577
20
111.66146129256339
30
0
0
ARC
5
397
100
AcDbEntity
8
0
100
AcDbCircle
10
2.5321411634138258e-12
20
87.499999999997158
30
0
40
66.355238873711571
210
-0
220
0
230
1
100
AcDbArc
50
306.58041811484094
51
308.11958188515916
0
ARC
5
398
100
AcDbEntity
8
0
100
AcDbCircle
10
-2.8882451985623447e-12
20
87.500000000001251
30
0
40
66.355238873711798
210
0
220
0
230
1
100
AcDbArc
50
164.080418114841
51
165.61958188515902
0
ARC
5
399
100
AcDbEntity
8
0
100
AcDbCircle
10
46.439438432671039
20
39.54543321908784
30
0
40
0.40000000000003544
210
0
220
0
230
1
100
AcDbArc
50
134.08043855468122
51
214.28583698271024
0
ARC
5
400
100
AcDbEntity
8
0
100
AcDbCircle
10
5.3956838996782608e-13
20
87.500000000000227
30
0
40
72.919489795076288
210
0
220
0
230
1
100
AcDbArc
50
122.71482679737424
51
124.485173202626
0
SPLINE
5
401
100
AcDbEntity
8
0
100
AcDbSpline
70
0
71
3
72
8
73
4
74
0
42
0.000000001
43
0.0000000001
44
0.0000000001
40
0
40
0
40
0
40
0
40
1
40
1
40
1
40
1
10
39.730624809780835
20
148.64515061882423
30
0
10
37.814757683563421
20
147.47363283223859
30
0
10
36.470844864568591
20
146.3744112321107
30
0
10
35.573741859187798
20
145.51941493985393
30
0
0
SPLINE
5
402
100
AcDbEntity
8
0
100
AcDbSpline
70
0
71
3
72
8
73
4
74
0
42
0.000000001
43
0.0000000001
44
0.0000000001
40
0
40
0
40
0
40
0
40
1
40
1
40
1
40
1
10
-15.142356415468797
20
158.82994486301774
30
0
10
-15.668690881094058
20
156.64683405504161
30
0
10
-15.841713701251702
20
154.91927713992976
30
0
10
-15.871487643635117
20
153.68035584525799
30
0
0
SPLINE
5
403
100
AcDbEntity
8
0
100
AcDbSpline
70
0
71
3
72
8
73
4
74
0
42
0.000000001
43
0.0000000001
44
0.0000000001
40
0
40
0
40
0
40
0
40
1
40
1
40
1
40
1
10
-60.105547186932931
20
46.213498703165044
30
0
10
-57.887196314362122
20
46.562669400348106
30
0
10
-56.22492887254645
20
47.063924568028234
30
0
10
-55.06892085154054
20
47.510531685533159
30
0
0
SPLINE
5
404
100
AcDbEntity
8
0
100
AcDbSpline
70
0
71
3
72
8
73
4
74
0
42
0.000000001
43
0.0000000001
44
0.0000000001
40
0
40
0
40
0
40
0
40
1
40
1
40
1
40
1
10
62.310520797127026
20
114.87046981361294
30
0
10
63.279357375199233
20
115.64323636764163
30
0
10
64.550798699257228
20
116.82553360214905
30
0
10
65.97149042013352
20
118.56468161305573
30
0
0
ARC
5
405
100
AcDbEntity
8
0
100
AcDbCircle
10
3.0955793484110927e-12
20
87.50000000000108
30
0
40
66.355238873712381
210
0
220
-0
230
1
100
AcDbArc
50
21.580418114841013
51
23.119581885159203
0
SPLINE
5
406
100
AcDbEntity
8
0
100
AcDbSpline
70
0
71
3
72
8
73
4
74
0
42
0.000000001
43
0.0000000001
44
0.0000000001
40
0
40
0
40
0
40
0
40
1
40
1
40
1
40
1
10
-39.989468314466571
20
142.56892085154104
30
0
10
-39.781970365521559
20
142.03158927511677
30
0
10
-39.587877952441694
20
141.6075203085523
30
0
10
-39.42573670001002
20
141.28613463678977
30
0
0
ARC
5
407
100
AcDbEntity
8
0
100
AcDbCircle
10
53.605871881797128
20
127.28281559768219
30
0
40
0.40000000000001695
210
0
220
0
230
1
100
AcDbArc
50
216.58043855472025
51
296.78583698270666
0
ARC
5
408
100
AcDbEntity
8
0
100
AcDbCircle
10
2.4646951146678475e-13
20
87.500000000000554
30
0
40
72.919489795076316
210
0
220
0
230
1
100
AcDbArc
50
197.71482679737443
51
199.4851732026259
0
ARC
5
409
100
AcDbEntity
8
0
100
AcDbCircle
10
34.000816879551266
20
30.052577354506042
30
0
40
0.40000000000000585
210
0
220
-0
230
1
100
AcDbArc
50
40.414163017293014
51
120.61956144527996
0
SPLINE
5
410
100
AcDbEntity
8
0
100
AcDbSpline
70
0
71
3
72
8
73
4
74
0
42
0.000000001
43
0.0000000001
44
0.0000000001
40
0
40
0
40
0
40
0
40
1
40
1
40
1
40
1
10
53.103342426300379
20
130.06499316318715
30
0
10
53.839159996913097
20
131.06218169341287
30
0
10
54.761276967169231
20
132.53326635597037
30
0
10
55.683435164083868
20
134.58085641002671
30
0
0
SPLINE
5
411
100
AcDbEntity
8
0
100
AcDbSpline
70
0
71
3
72
8
73
4
74
0
42
0.000000001
43
0.0000000001
44
0.0000000001
40
0
40
0
40
0
40
0
40
1
40
1
40
1
40
1
10
-58.303369966305667
20
119.87366281528031
30
0
10
-58.642543103514512
20
119.99424523004409
30
0
10
-59.087594389355978
20
120.13365723164051
30
0
10
-59.646695334706195
20
120.27217349331193
30
0
0
ARC
5
412
100
AcDbEntity
8
0
100
AcDbCircle
10
-61.255864882562427
20
114.03263904280898
30
0
40
0.40000000000000391
210
-0
220
0
230
1
100
AcDbArc
50
-23.419561445324003
51
56.785836982710215
0
SPLINE
5
413
100
AcDbEntity
8
0
100
AcDbSpline
70
0
71
3
72
8
73
4
74
0
42
0.000000001
43
0.0000000001
44
0.0000000001
40
0
40
0
40
0
40
0
40
1
40
1
40
1
40
1
10
41.286501296835461
20
27.39445281306681
30
0
10
40.937330599652419
20
29.612803685637626
30
0
10
40.436075431972263
20
31.27507112745328
30
0
10
39.989468314467317
20
32.431079148459197
30
0
0
SPLINE
5
414
100
AcDbEntity
8
0
100
AcDbSpline
70
0
71
3
72
8
73
4
74
0
42
0.000000001
43
0.0000000001
44
0.0000000001
40
0
40
0
40
0
40
0
40
1
40
1
40
1
40
1
10
-66.18035584525748
20
71.628512356364638
30
0
10
-65.604520172316171
20
71.614587572448784
30
0
10
-65.138455582900605
20
71.631621412624568
30
0
10
-64.779485167708287
20
71.658431425138872
30
0
0
SPLINE
5
415
100
AcDbEntity
8
0
100
AcDbSpline
70
0
71
3
72
8
73
4
74
0
42
0.000000001
43
0.0000000001
44
0.0000000001
40
0
40
0
40
0
40
0
40
1
40
1
40
1
40
1
10
-68.033158180217114
20
89.298056687799402
30
0
10
-67.48054763130088
20
89.135569140382984
30
0
10
-67.025955125416885
20
89.031396174541044
30
0
10
-66.672277388670693
20
88.964384277951623
30
0
0
SPLINE
5
416
100
AcDbEntity
8
0
100
AcDbSpline
70
0
71
3
72
8
73
4
74
0
42
0.000000001
43
0.0000000001
44
0.0000000001
40
0
40
0
40
0
40
0
40
1
40
1
40
1
40
1
10
-24.323237551443167
20
156.2432331723661
30
0
10
-24.560116011791774
20
154.01009874635631
30
0
10
-24.506167171764414
20
152.27473731025552
30
0
10
-24.373974714889535
20
151.04252887967994
30
0
0
ARC
5
417
100
AcDbEntity
8
0
100
AcDbCircle
10
1.4416245974757658e-12
20
87.499999999996902
30
0
40
66.355238873711912
210
-0
220
0
230
1
100
AcDbArc
50
291.58041811484105
51
293.11958188515928
0
SPLINE
5
418
100
AcDbEntity
8
0
100
AcDbSpline
70
0
71
3
72
8
73
4
74
0
42
0.000000001
43
0.0000000001
44
0.0000000001
40
0
40
0
40
0
40
0
40
1
40
1
40
1
40
1
10
-64.980305702909845
20
54.412058650762916
30
0
10
-62.735357208037215
20
54.468689251822681
30
0
10
-61.021883766252209
20
54.748686672424675
30
0
10
-59.817471627652694
20
55.04058367897013
30
0
0
ARC
5
419
100
AcDbEntity
8
0
100
AcDbCircle
10
2.8810287489022812e-12
20
87.499999999997868
30
0
40
66.355238873711897
210
-0
220
0
230
1
100
AcDbArc
50
314.080418114841
51
315.61958188515894
0
SPLINE
5
420
100
AcDbEntity
8
0
100
AcDbSpline
70
0
71
3
72
8
73
4
74
0
42
0.000000001
43
0.0000000001
44
0.0000000001
40
0
40
0
40
0
40
0
40
1
40
1
40
1
40
1
10
1.7980566877996826
20
155.53315818021761
30
0
10
1.6355691403832531
20
154.98054763130136
30
0
10
1.5313961745413138
20
154.5259551254174
30
0
10
1.464384277951881
20
154.1722773886712
30
0
0
ARC
5
421
100
AcDbEntity
8
0
100
AcDbCircle
10
2.1557755580658977e-12
20
87.50000000000307
30
0
40
66.355238873711855
210
0
220
-0
230
1
100
AcDbArc
50
59.080418114840896
51
60.619581885159228
0
SPLINE
5
422
100
AcDbEntity
8
0
100
AcDbSpline
70
0
71
3
72
8
73
4
74
0
42
0.000000001
43
0.0000000001
44
0.0000000001
40
0
40
0
40
0
40
0
40
1
40
1
40
1
40
1
10
64.118344777734933
20
105.83507176067174
30
0
10
64.443441046222958
20
105.98963874281715
30
0
10
64.856719000124784
20
106.20575835330392
30
0
10
65.350008857882258
20
106.50315663519628
30
0
0
SPLINE
5
423
100
AcDbEntity
8
0
100
AcDbSpline
70
0
71
3
72
8
73
4
74
0
42
0.000000001
43
0.0000000001
44
0.0000000001
40
0
40
0
40
0
40
0
40
1
40
1
40
1
40
1
10
-52.879745734133806
20
130.34245687306426
30
0
10
-52.540246460832229
20
129.87713884712207
30
0
10
-52.243010461367803
20
129.51775449320476
30
0
10
-52.003213305461962
20
129.24928501677616
30
0
0
ARC
5
424
100
AcDbEntity
8
0
100
AcDbCircle
10
39.782815597682429
20
33.894128118203383
30
0
40
0.40000000000001523
210
0
220
0
230
1
100
AcDbArc
50
126.58043855471863
51
206.78583698271439
0
SPLINE
5
425
100
AcDbEntity
8
0
100
AcDbSpline
70
0
71
3
72
8
73
4
74
0
42
0.000000001
43
0.0000000001
44
0.0000000001
40
0
40
0
40
0
40
0
40
1
40
1
40
1
40
1
10
-47.093189490865313
20
38.367779172884447
30
0
10
-47.692552818381927
20
37.283078263110667
30
0
10
-48.41476587069107
20
35.704218516863101
30
0
10
-49.061770743412218
20
33.553780081501074
30
0
0
ARC
5
426
100
AcDbEntity
8
0
100
AcDbCircle
10
1.1879386363489175e-13
20
87.500000000000128
30
0
40
72.919489795076288
210
0
220
-0
230
1
100
AcDbArc
50
85.214826797373917
51
86.985173202625703
0
ARC
5
427
100
AcDbEntity
8
0
100
AcDbCircle
10
3.8496983378877303e-13
20
87.500000000000114
30
0
40
72.919489795076302
210
0
220
0
230
1
100
AcDbArc
50
137.714826797374
51
139.48517320262596
0
SPLINE
5
428
100
AcDbEntity
8
0
100
AcDbSpline
70
0
71
3
72
8
73
4
74
0
42
0.000000001
43
0.0000000001
44
0.0000000001
40
0
40
0
40
0
40
0
40
1
40
1
40
1
40
1
10
-19.003156635195783
20
152.85000885788199
30
0
10
-19.642853514809783
20
153.91142318049509
30
0
10
-20.64907963791822
20
155.32630790386327
30
0
10
-22.187911515855539
20
156.96184977769309
30
0
0
ARC
5
429
100
AcDbEntity
8
0
100
AcDbCircle
10
24.553028455962405
20
25.424153564147947
30
0
40
0.39999999999997921
210
0
220
0
230
1
100
AcDbArc
50
111.58043855473608
51
191.78583698270626
0
ARC
5
430
100
AcDbEntity
8
0
100
AcDbCircle
10
1.4160894679093872e-12
20
87.499999999999801
30
0
40
66.355238873714214
210
-0
220
0
230
1
100
AcDbArc
50
336.58041811484077
51
338.11958188515905
0
SPLINE
5
431
100
AcDbEntity
8
0
100
AcDbSpline
70
0
71
3
72
8
73
4
74
0
42
0.000000001
43
0.0000000001
44
0.0000000001
40
0
40
0
40
0
40
0
40
1
40
1
40
1
40
1
10
-55.436158208016366
20
134.87176748982444
30
0
10
-54.524733759282711
20
132.81937711666009
30
0
10
-53.610331975263904
20
131.34348444826261
30
0
10
-52.879745734133806
20
130.34245687306426
30
0
0
SPLINE
5
432
100
AcDbEntity
8
0
100
AcDbSpline
70
0
71
3
72
8
73
4
74
0
42
0.000000001
43
0.0000000001
44
0.0000000001
40
0
40
0
40
0
40
0
40
1
40
1
40
1
40
1
10
-62.030187489364252
20
111.98658476675928
30
0
10
-62.38219811681391
20
112.06186460414571
30
0
10
-62.841638844927388
20
112.14199306705871
30
0
10
-63.414036604380541
20
112.20634698544637
30
0
0
SPLINE
5
433
100
AcDbEntity
8
0
100
AcDbSpline
70
0
71
3
72
8
73
4
74
0
42
0.000000001
43
0.0000000001
44
0.0000000001
40
0
40
0
40
0
40
0
40
1
40
1
40
1
40
1
10
69.344722509651547
20
64.948692897445909
30
0
10
67.717260323480573
20
66.496067319552779
30
0
10
66.307663558588928
20
67.509687934799672
30
0
10
65.249613215305516
20
68.154933572610418
30
0
0
SPLINE
5
434
100
AcDbEntity
8
0
100
AcDbSpline
70
0
71
3
72
8
73
4
74
0
42
0.000000001
43
0.0000000001
44
0.0000000001
40
0
40
0
40
0
40
0
40
1
40
1
40
1
40
1
10
-40.277259026543405
20
32.641217429332976
30
0
10
-40.72991283825526
20
31.48756367331309
30
0
10
-41.239864707057038
20
29.827943571376569
30
0
10
-41.600645822828838
20
27.61145135255202
30
0
0
ARC
5
435
100
AcDbEntity
8
0
100
AcDbCircle
10
-52.30146960063103
20
128.98274574688887
30
0
40
0.40000000000000924
210
-0
220
0
230
1
100
AcDbArc
50
-38.419561445279612
51
41.785836982706634
0
SPLINE
5
436
100
AcDbEntity
8
0
100
AcDbSpline
70
0
71
3
72
8
73
4
74
0
42
0.000000001
43
0.0000000001
44
0.0000000001
40
0
40
0
40
0
40
0
40
1
40
1
40
1
40
1
10
-67.68581857366209
20
80.402564981609288
30
0
10
-67.116726803750751
20
80.313597688416706
30
0
10
-66.65242609920935
20
80.269652165543462
30
0
10
-66.293027316834753
20
80.24937777326943
30
0
0
ARC
5
437
100
AcDbEntity
8
0
100
AcDbCircle
10
3.3112401709445294e-13
20
87.500000000000412
30
0
40
72.919489795076274
210
0
220
0
230
1
100
AcDbArc
50
190.21482679737397
51
191.98517320262607
0
SPLINE
5
438
100
AcDbEntity
8
0
100
AcDbSpline
70
0
71
3
72
8
73
4
74
0
42
0.000000001
43
0.0000000001
44
0.0000000001
40
0
40
0
40
0
40
0
40
1
40
1
40
1
40
1
10
64.695651306463574
20
71.319465536085232
30
0
10
65.054476424722424
20
71.290776334965372
30
0
10
65.520445436868883
20
71.271302430951934
30
0
10
66.096346126062258
20
71.282211969233927
30
0
0
ARC
5
439
100
AcDbEntity
8
0
100
AcDbCircle
10
3.7272962494228068e-12
20
87.49999999999828
30
0
40
66.355238873711485
210
-0
220
0
230
1
100
AcDbArc
50
329.08041811484077
51
330.61958188515899
0
SPLINE
5
440
100
AcDbEntity
8
0
100
AcDbSpline
70
0
71
3
72
8
73
4
74
0
42
0.000000001
43
0.0000000001
44
0.0000000001
40
0
40
0
40
0
40
0
40
1
40
1
40
1
40
1
10
42.564993163187417
20
34.396657573700125
30
0
10
43.562181693413137
20
33.660840003087408
30
0
10
45.03326635597066
20
32.738723032831281
30
0
10
47.080856410026939
20
31.816564835916626
30
0
0
SPLINE
5
441
100
AcDbEntity
8
0
100
AcDbSpline
70
0
71
3
72
8
73
4
74
0
42
0.000000001
43
0.0000000001
44
0.0000000001
40
0
40
0
40
0
40
0
40
1
40
1
40
1
40
1
10
-46.360579545791182
20
39.562189686180538
30
0
10
-46.564837681904649
20
39.265782618812281
30
0
10
-46.81468708356433
20
38.871978568923907
30
0
10
-47.093189490865313
20
38.367779172884447
30
0
0
ARC
5
442
100
AcDbEntity
8
0
100
AcDbCircle
10
-66.08604728438047
20
78.071518074824468
30
0
40
0.40000000000002262
210
-0
220
0
230
1
100
AcDbArc
50
-72.085836982711427
51
8.1195614452783573
0
SPLINE
5
443
100
AcDbEntity
8
0
100
AcDbSpline
70
0
71
3
72
8
73
4
74
0
42
0.000000001
43
0.0000000001
44
0.0000000001
40
0
40
0
40
0
40
0
40
1
40
1
40
1
40
1
10
26.547336075328502
20
26.323403651322806
30
0
10
26.743014293545254
20
26.021263666100975
30
0
10
27.011228568455788
20
25.639730632206739
30
0
10
27.370469813613308
20
25.189479202873596
30
0
0
SPLINE
5
444
100
AcDbEntity
8
0
100
AcDbSpline
70
0
71
3
72
8
73
4
74
0
42
0.000000001
43
0.0000000001
44
0.0000000001
40
0
40
0
40
0
40
0
40
1
40
1
40
1
40
1
10
47.093189490866052
20
136.63222082711576
30
0
10
47.692552818382687
20
137.71692173688959
30
0
10
48.414765870691809
20
139.29578148313715
30
0
10
49.061770743413007
20
141.44621991849917
30
0
0
SPLINE
5
445
100
AcDbEntity
8
0
100
AcDbSpline
70
0
71
3
72
8
73
4
74
0
42
0.000000001
43
0.0000000001
44
0.0000000001
40
0
40
0
40
0
40
0
40
1
40
1
40
1
40
1
10
71.695005041268246
20
74.192925035650859
30
0
10
69.879493128452538
20
75.51463501292703
30
0
10
68.349651620027686
20
76.335594665009012
30
0
10
67.216431587954432
20
76.837216854454496
30
0
0
SPLINE
5
446
100
AcDbEntity
8
0
100
AcDbSpline
70
0
71
3
72
8
73
4
74
0
42
0.000000001
43
0.0000000001
44
0.0000000001
40
0
40
0
40
0
40
0
40
1
40
1
40
1
40
1
10
39.70681851735722
20
141.07896561837597
30
0
10
39.870640310950037
20
141.39949791893
30
0
10
40.066950473230051
20
141.82254481160714
30
0
10
40.277259026544172
20
142.35878257066727
30
0
0
ARC
5
447
100
AcDbEntity
8
0
100
AcDbCircle
10
-1.8271495427768514e-12
20
87.499999999997598
30
0
40
66.35523887371194
210
0
220
0
230
1
100
AcDbArc
50
231.58041811484102
51
233.11958188515896
0
ARC
5
448
100
AcDbEntity
8
0
100
AcDbCircle
10
-2.6534330288541241e-13
20
87.500000000002274
30
0
40
66.355238873712977
210
0
220
0
230
1
100
AcDbArc
50
104.080418114841
51
105.61958188515902
0
SPLINE
5
449
100
AcDbEntity
8
0
100
AcDbSpline
70
0
71
3
72
8
73
4
74
0
42
0.000000001
43
0.0000000001
44
0.0000000001
40
0
40
0
40
0
40
0
40
1
40
1
40
1
40
1
10
-64.695651306462793
20
103.68053446391512
30
0
10
-65.05447642472167
20
103.70922366503486
30
0
10
-65.52044543686813
20
103.72869756904828
30
0
10
-66.096346126061491
20
103.71778803076631
30
0
0
ARC
5
450
100
AcDbEntity
8
0
100
AcDbCircle
10
-53.605871881796354
20
47.717184402318068
30
0
40
0.40000000000001168
210
0
220
-0
230
1
100
AcDbArc
50
36.580438554718619
51
116.78583698270849
0
SPLINE
5
451
100
AcDbEntity
8
0
100
AcDbSpline
70
0
71
3
72
8
73
4
74
0
42
0.000000001
43
0.0000000001
44
0.0000000001
40
0
40
0
40
0
40
0
40
1
40
1
40
1
40
1
10
-39.706818517356453
20
33.921034381624267
30
0
10
-39.870640310949277
20
33.600502081070239
30
0
10
-40.066950473229291
20
33.177455188393182
30
0
10
-40.277259026543405
20
32.641217429332976
30
0
0
SPLINE
5
452
100
AcDbEntity
8
0
100
AcDbSpline
70
0
71
3
72
8
73
4
74
0
42
0.000000001
43
0.0000000001
44
0.0000000001
40
0
40
0
40
0
40
0
40
1
40
1
40
1
40
1
10
54.202366094182366
20
136.27863776046351
30
0
10
52.04856944238599
20
135.64290137459426
30
0
10
50.465949857336831
20
134.92896507472923
30
0
10
49.378125571669898
20
134.33528941786827
30
0
0
SPLINE
5
453
100
AcDbEntity
8
0
100
AcDbSpline
70
0
71
3
72
8
73
4
74
0
42
0.000000001
43
0.0000000001
44
0.0000000001
40
0
40
0
40
0
40
0
40
1
40
1
40
1
40
1
10
67.685818573662857
20
94.597435018390939
30
0
10
67.116726803751533
20
94.686402311583535
30
0
10
66.652426099210103
20
94.730347834456779
30
0
10
66.29302731683552
20
94.750622226730812
30
0
0
ARC
5
454
100
AcDbEntity
8
0
100
AcDbCircle
10
-1.4352408150841711e-12
20
87.500000000002061
30
0
40
66.355238873712608
210
0
220
0
230
1
100
AcDbArc
50
126.58041811484067
51
128.11958188515891
0
SPLINE
5
455
100
AcDbEntity
8
0
100
AcDbSpline
70
0
71
3
72
8
73
4
74
0
42
0.000000001
43
0.0000000001
44
0.0000000001
40
0
40
0
40
0
40
0
40
1
40
1
40
1
40
1
10
7.5976307303018418
20
153.75415459268507
30
0
10
7.5792384149697343
20
154.11365460449466
30
0
10
7.5377245561867099
20
154.57817904168519
30
0
10
7.4517382264597662
20
155.14772884015673
30
0
0
ARC
5
456
100
AcDbEntity
8
0
100
AcDbCircle
10
32.75051895316426
20
145.66928248986099
30
0
40
0.39999999999997266
210
0
220
0
230
1
100
AcDbArc
50
160.4141630172881
51
240.61956144527147
0
SPLINE
5
457
100
AcDbEntity
8
0
100
AcDbSpline
70
0
71
3
72
8
73
4
74
0
42
0.000000001
43
0.0000000001
44
0.0000000001
40
0
40
0
40
0
40
0
40
1
40
1
40
1
40
1
10
-59.817471627652694
20
55.04058367897013
30
0
10
-59.2576530801838
20
55.176170609566988
30
0
10
-58.811877938797224
20
55.313250427702286
30
0
10
-58.472078085727418
20
55.432055291273095
30
0
0
SPLINE
5
458
100
AcDbEntity
8
0
100
AcDbSpline
70
0
71
3
72
8
73
4
74
0
42
0.000000001
43
0.0000000001
44
0.0000000001
40
0
40
0
40
0
40
0
40
1
40
1
40
1
40
1
10
-24.373974714889535
20
151.04252887967994
30
0
10
-24.312618732615135
20
150.46980201172448
30
0
10
-24.234896983118329
20
150.00994803177713
30
0
10
-24.16146129256299
20
149.65754806709629
30
0
0
SPLINE
5
459
100
AcDbEntity
8
0
100
AcDbSpline
70
0
71
3
72
8
73
4
74
0
42
0.000000001
43
0.0000000001
44
0.0000000001
40
0
40
0
40
0
40
0
40
1
40
1
40
1
40
1
10
-34.305368109423192
20
144.68809939473749
30
0
10
-34.538809455145426
20
144.96211339777702
30
0
10
-34.854529173872912
20
145.30537337567259
30
0
10
-35.26946666499034
20
145.70488244979239
30
0
0
ARC
5
460
100
AcDbEntity
8
0
100
AcDbCircle
10
-39.782815597681676
20
141.10587188179687
30
0
40
0.40000000000001695
210
-0
220
0
230
1
100
AcDbArc
50
-53.419561445281779
51
26.785836982704804
0
ARC
5
461
100
AcDbEntity
8
0
100
AcDbCircle
10
-66.315454640490529
20
79.850006999234012
30
0
40
0.40000000000002456
210
0
220
-0
230
1
100
AcDbArc
50
6.5804385547217557
51
86.785836982709412
0
SPLINE
5
462
100
AcDbEntity
8
0
100
AcDbSpline
70
0
71
3
72
8
73
4
74
0
42
0.000000001
43
0.0000000001
44
0.0000000001
40
0
40
0
40
0
40
0
40
1
40
1
40
1
40
1
10
-26.547336075327721
20
148.67659634867744
30
0
10
-26.743014293544501
20
148.97873633389935
30
0
10
-27.011228568455024
20
149.36026936779348
30
0
10
-27.370469813612438
20
149.81052079712671
30
0
0
SPLINE
5
463
100
AcDbEntity
8
0
100
AcDbSpline
70
0
71
3
72
8
73
4
74
0
42
0.000000001
43
0.0000000001
44
0.0000000001
40
0
40
0
40
0
40
0
40
1
40
1
40
1
40
1
10
58.204882449792677
20
122.76946666499086
30
0
10
59.064564220861087
20
123.66208064344332
30
0
10
60.170807432044093
20
125.00021955587279
30
0
10
61.352340570732537
20
126.90992639509921
30
0
0
SPLINE
5
464
100
AcDbEntity
8
0
100
AcDbSpline
70
0
71
3
72
8
73
4
74
0
42
0.000000001
43
0.0000000001
44
0.0000000001
40
0
40
0
40
0
40
0
40
1
40
1
40
1
40
1
10
-9.8090892847474525
20
153.46301055068116
30
0
10
-9.9199003469028959
20
153.80550061514788
30
0
10
-10.080227426510755
20
154.24345218868379
30
0
10
-10.310694178080546
20
154.77134014863341
30
0
0
SPLINE
5
465
100
AcDbEntity
8
0
100
AcDbSpline
70
0
71
3
72
8
73
4
74
0
42
0.000000001
43
0.0000000001
44
0.0000000001
40
0
40
0
40
0
40
0
40
1
40
1
40
1
40
1
10
16.180534463915276
20
152.19565130646328
30
0
10
16.209223665035118
20
152.55447642472217
30
0
10
16.228697569048567
20
153.02044543686861
30
0
10
16.21778803076657
20
153.596346126062
30
0
0
SPLINE
5
466
100
AcDbEntity
8
0
100
AcDbSpline
70
0
71
3
72
8
73
4
74
0
42
0.000000001
43
0.0000000001
44
0.0000000001
40
0
40
0
40
0
40
0
40
1
40
1
40
1
40
1
10
-39.730624809780075
20
26.354849381175999
30
0
10
-37.814757683562647
20
27.526367167761663
30
0
10
-36.470844864567823
20
28.62558876788961
30
0
10
-35.573741859187024
20
29.480585060146325
30
0
0
ARC
5
467
100
AcDbEntity
8
0
100
AcDbCircle
10
-47.95456678091189
20
41.060561567329465
30
0
40
0.40000000000001873
210
0
220
-0
230
1
100
AcDbArc
50
44.080438554719329
51
124.28583698270995
0
SPLINE
5
468
100
AcDbEntity
8
0
100
AcDbSpline
70
0
71
3
72
8
73
4
74
0
42
0.000000001
43
0.0000000001
44
0.0000000001
40
0
40
0
40
0
40
0
40
1
40
1
40
1
40
1
10
-33.087941349236921
20
152.48030570291033
30
0
10
-33.031310748177049
20
150.23535720803775
30
0
10
-32.751313327575161
20
148.5218837662527
30
0
10
-32.459416321029693
20
147.31747162765319
30
0
0
ARC
5
469
100
AcDbEntity
8
0
100
AcDbCircle
10
9.77437683522116
20
153.53577420285075
30
0
40
0.39999999999993185
210
0
220
0
230
1
100
AcDbArc
50
261.58043855472607
51
341.78583698272297
0
ARC
5
470
100
AcDbEntity
8
0
100
AcDbCircle
10
1.2270739979669543e-12
20
87.500000000003539
30
0
40
66.35523887371177
210
0
220
-0
230
1
100
AcDbArc
50
81.580418114841194
51
83.119581885159462
0
ARC
5
471
100
AcDbEntity
8
0
100
AcDbCircle
10
-41.482745746888355
20
35.198530399368714
30
0
40
0.40000000000001479
210
0
220
-0
230
1
100
AcDbArc
50
51.580438554719613
51
131.78583698270302
0
ARC
5
472
100
AcDbEntity
8
0
100
AcDbCircle
10
-6.081246617384295e-13
20
87.500000000003354
30
0
40
66.355238873711883
210
0
220
0
230
1
100
AcDbArc
50
111.58041811484121
51
113.11958188515898
0
ARC
5
473
100
AcDbEntity
8
0
100
AcDbCircle
10
-2.8965718712470334e-12
20
87.499999999999361
30
0
40
66.355238873711869
210
0
220
0
230
1
100
AcDbArc
50
186.5804181148406
51
188.11958188515879
0
ARC
5
474
100
AcDbEntity
8
0
100
AcDbCircle
10
-64.749592276082353
20
71.259549970280148
30
0
40
0.40000000000001817
210
0
220
-0
230
1
100
AcDbArc
50
14.080438554718578
51
94.285836982710364
0
SPLINE
5
475
100
AcDbEntity
8
0
100
AcDbSpline
70
0
71
3
72
8
73
4
74
0
42
0.000000001
43
0.0000000001
44
0.0000000001
40
0
40
0
40
0
40
0
40
1
40
1
40
1
40
1
10
-58.204882449791917
20
52.230533335009412
30
0
10
-59.064564220860341
20
51.33791935655691
30
0
10
-60.170807432043354
20
49.999780444127438
30
0
10
-61.352340570731769
20
48.090073604901008
30
0
0
ARC
5
476
100
AcDbEntity
8
0
100
AcDbCircle
10
-1.2637113577795844e-12
20
87.500000000003112
30
0
40
66.355238873711798
210
0
220
0
230
1
100
AcDbArc
50
119.08041811484092
51
120.61958188515901
0
SPLINE
5
477
100
AcDbEntity
8
0
100
AcDbSpline
70
0
71
3
72
8
73
4
74
0
42
0.000000001
43
0.0000000001
44
0.0000000001
40
0
40
0
40
0
40
0
40
1
40
1
40
1
40
1
10
-68.743233172365606
20
63.176762448556573
30
0
10
-66.510098746355808
20
62.939883988207953
30
0
10
-64.774737310255006
20
62.993832828235313
30
0
10
-63.542528879679445
20
63.126025285110202
30
0
0
SPLINE
5
478
100
AcDbEntity
8
0
100
AcDbSpline
70
0
71
3
72
8
73
4
74
0
42
0.000000001
43
0.0000000001
44
0.0000000001
40
0
40
0
40
0
40
0
40
1
40
1
40
1
40
1
10
-71.329944863017232
20
72.357643584531033
30
0
10
-69.146834055041126
20
71.831309118905693
30
0
10
-67.419277139929264
20
71.658286298748038
30
0
10
-66.18035584525748
20
71.628512356364638
30
0
0
SPLINE
5
479
100
AcDbEntity
8
0
100
AcDbSpline
70
0
71
3
72
8
73
4
74
0
42
0.000000001
43
0.0000000001
44
0.0000000001
40
0
40
0
40
0
40
0
40
1
40
1
40
1
40
1
10
-66.679030924703383
20
86.384729428431456
30
0
10
-67.033054685189498
20
86.319570294262093
30
0
10
-67.488186405513332
20
86.217778986316219
30
0
10
-68.041640158302158
20
86.0581871150859
30
0
0
ARC
5
480
100
AcDbEntity
8
0
100
AcDbCircle
10
5.1375570464529119e-13
20
87.499999999999943
30
0
40
72.919489795076274
210
0
220
0
230
1
100
AcDbArc
50
220.21482679737395
51
221.98517320262573
0
ARC
5
481
100
AcDbEntity
8
0
100
AcDbCircle
10
-57.447422645493695
20
53.499183120449246
30
0
40
0.3999999999999988
210
-0
220
0
230
1
100
AcDbArc
50
-49.58583698271724
51
30.619561445279473
0
ARC
5
482
100
AcDbEntity
8
0
100
AcDbCircle
10
1.0114131754335176e-12
20
87.500000000002814
30
0
40
66.355238873712523
210
0
220
-0
230
1
100
AcDbArc
50
74.080418114840796
51
75.619581885159107
0
ARC
5
483
100
AcDbEntity
8
0
100
AcDbCircle
10
-2.7230995236493527e-12
20
87.499999999998892
30
0
40
66.355238873711883
210
0
220
0
230
1
100
AcDbArc
50
201.58041811484088
51
203.11958188515914
0
ARC
5
484
100
AcDbEntity
8
0
100
AcDbCircle
10
29.178607305661476
20
57.863975262508205
30
0
40
49.414392689732921
210
0
220
0
230
1
100
AcDbArc
50
148.49256680628443
51
218.26235382469187
0
ARC
5
485
100
AcDbEntity
8
0
100
AcDbCircle
10
6.1044552956762468
20
129.81457069301217
30
0
40
31.690491750538364
210
-0
220
0
230
1
100
AcDbArc
50
-86.141558693301107
51
10.941558693301941
0
ARC
5
486
100
AcDbEntity
8
0
100
AcDbCircle
10
42.129928619591077
20
94.770239466441268
30
0
40
31.690491750538104
210
0
220
0
230
1
100
AcDbArc
50
201.85844130669295
51
298.94155869330234
0
ARC
5
487
100
AcDbEntity
8
0
100
AcDbCircle
10
-38.357167764050814
20
106.38160344120078
30
0
40
31.690491750538069
210
-0
220
0
230
1
100
AcDbArc
50
-14.14155869330707
51
82.941558693302355
0
ARC
5
488
100
AcDbEntity
8
0
100
AcDbCircle
10
37.202219973322578
20
106.09246932485999
30
0
40
49.414392689732914
210
0
220
0
230
1
100
AcDbArc
50
220.4925668062844
51
290.26235382469179
0
ARC
5
489
100
AcDbEntity
8
0
100
AcDbCircle
10
3.104461132608094e-12
20
87.50000000000108
30
0
40
60.999999999999595
210
0
220
-0
230
1
100
AcDbArc
50
52.399999999992872
51
116.92557549730857
0
ARC
5
490
100
AcDbEntity
8
0
100
AcDbCircle
10
-29.810488686033338
20
56.85490199574717
30
0
40
31.690491750538044
210
0
220
-0
230
1
100
AcDbArc
50
57.858441306693024
51
154.94155869330237
0
ARC
5
491
100
AcDbEntity
8
0
100
AcDbCircle
10
3.104461132608094e-12
20
87.50000000000108
30
0
40
60.999999999995765
210
0
220
0
230
1
100
AcDbArc
50
124.39999999999449
51
188.92557549731168
0
ARC
5
492
100
AcDbEntity
8
0
100
AcDbCircle
10
19.93327253484609
20
49.678684403599704
30
0
40
31.690491750538037
210
0
220
0
230
1
100
AcDbArc
50
129.85844130669292
51
226.94155869330231
0
ARC
5
493
100
AcDbEntity
8
0
100
AcDbCircle
10
-6.1863709051898148
20
128.62680271504533
30
0
40
49.414392689732864
210
-0
220
0
230
1
100
AcDbArc
50
-67.507433193715556
51
2.2623538246917385
0
ARC
5
494
100
AcDbEntity
8
0
100
AcDbCircle
10
-19.168848914029699
20
50.591460095937691
30
0
40
49.414392689732558
210
0
220
-0
230
1
100
AcDbArc
50
76.492566806284302
51
146.26235382469187
0
ARC
5
495
100
AcDbEntity
8
0
100
AcDbCircle
10
3.104461132608094e-12
20
87.50000000000108
30
0
40
60.999999999998835
210
0
220
0
230
1
100
AcDbArc
50
268.39999999999873
51
332.92557549731094
0
ARC
5
496
100
AcDbEntity
8
0
100
AcDbCircle
10
3.104461132608094e-12
20
87.50000000000108
30
0
40
61.000000000000902
210
-0
220
0
230
1
100
AcDbArc
50
-19.600000000003767
51
44.925575497308046
0
ARC
5
497
100
AcDbEntity
8
0
100
AcDbCircle
10
3.104461132608094e-12
20
87.50000000000108
30
0
40
60.999999999995673
210
0
220
0
230
1
100
AcDbArc
50
196.39999999999762
51
260.92557549731316
0
ARC
5
498
100
AcDbEntity
8
0
100
AcDbCircle
10
-41.025607459735234
20
94.325292601649807
30
0
40
49.414392689734719
210
0
220
-0
230
1
100
AcDbArc
50
4.4925668062841737
51
74.2623538246919
0
CIRCLE
5
499
100
AcDbEntity
8
0
100
AcDbCircle
10
5.1181281435219717e-13
20
87.500000000000512
30
0
40
2.4249999999999998
210
0
220
0
230
1
0
ENDSEC
0
SECTION
2
OBJECTS
0
DICTIONARY
5
C
100
AcDbDictionary
3
ACAD_GROUP
350
D
3
ACAD_MLINESTYLE
350
17
0
DICTIONARY
5
D
100
AcDbDictionary
0
DICTIONARY
5
1A
330
C
100
AcDbDictionary
0
DICTIONARY
5
17
100
AcDbDictionary
0
ENDSEC
0
EOF
