0
SECTION
2
HEADER
9
$INSUNITS
70
4
9
$ACADVER
1
AC1014
9
$HANDSEED
5
FFFF
0
ENDSEC
0
SECTION
2
TABLES
0
TABLE
2
VPORT
5
8
100
AcDbSymbolTable
0
ENDTAB
0
TABLE
2
LTYPE
5
5
100
AcDbSymbolTable
0
LTYPE
5
14
100
AcDbSymbolTableRecord
100
AcDbLinetypeTableRecord
2
BYBLOCK
70
0
0
LTYPE
5
15
100
AcDbSymbolTableRecord
100
AcDbLinetypeTableRecord
2
BYLAYER
70
0
0
ENDTAB
0
TABLE
2
LAYER
5
2
100
AcDbSymbolTable
70
2
0
LAYER
5
50
100
AcDbSymbolTableRecord
100
AcDbLayerTableRecord
2
0
70
0
6
CONTINUOUS
0
ENDTAB
0
TABLE
2
STYLE
5
3
100
AcDbSymbolTable
70
1
0
STYLE
5
11
100
AcDbSymbolTableRecord
100
AcDbTextStyleTableRecord
2
STANDARD
70
0
0
ENDTAB
0
TABLE
2
VIEW
5
6
100
AcDbSymbolTable
70
0
0
ENDTAB
0
TABLE
2
UCS
5
7
100
AcDbSymbolTable
70
0
0
ENDTAB
0
TABLE
2
APPID
5
9
100
AcDbSymbolTable
70
2
0
APPID
5
12
100
AcDbSymbolTableRecord
100
AcDbRegAppTableRecord
2
ACAD
70
0
0
ENDTAB
0
TABLE
2
DIMSTYLE
5
A
100
AcDbSymbolTable
70
1
0
ENDTAB
0
TABLE
2
BLOCK_RECORD
5
1
100
AcDbSymbolTable
70
1
0
BLOCK_RECORD
5
1F
100
AcDbSymbolTableRecord
100
AcDbBlockTableRecord
2
*MODEL_SPACE
0
BLOCK_RECORD
5
1B
100
AcDbSymbolTableRecord
100
AcDbBlockTableRecord
2
*PAPER_SPACE
0
ENDTAB
0
ENDSEC
0
SECTION
2
BLOCKS
0
BLOCK
5
20
100
AcDbEntity
100
AcDbBlockBegin
2
*MODEL_SPACE
0
ENDBLK
5
21
100
AcDbEntity
100
AcDbBlockEnd
0
BLOCK
5
1C
100
AcDbEntity
100
AcDbBlockBegin
2
*PAPER_SPACE
0
ENDBLK
5
1D
100
AcDbEntity
100
AcDbBlockEnd
0
ENDSEC
0
SECTION
2
ENTITIES
0
SPLINE
5
100
100
AcDbEntity
8
0
100
AcDbSpline
70
0
71
3
72
8
73
4
74
0
42
0.000000001
43
0.0000000001
44
0.0000000001
40
0
40
0
40
0
40
0
40
1
40
1
40
1
40
1
10
-70.056313786936485
20
117.32953684198087
30
0
10
-71.186321753806254
20
117.46376336933255
30
0
10
-72.634151729333695
20
117.54435183302095
30
0
10
-74.397091887629102
20
117.47108805859986
30
0
0
SPLINE
5
101
100
AcDbEntity
8
0
100
AcDbSpline
70
0
71
3
72
8
73
4
74
0
42
0.000000001
43
0.0000000001
44
0.0000000001
40
0
40
0
40
0
40
0
40
1
40
1
40
1
40
1
10
2.6973200316593311
20
7.3381770080121935
30
0
10
3.3695536249423377
20
8.9695652445869793
30
0
10
3.7893756396326177
20
10.35753340506373
30
0
10
4.050019453297975
20
11.465233530653638
30
0
0
ARC
5
102
100
AcDbEntity
8
0
100
AcDbCircle
10
3.3062441673337162e-12
20
87.500000000005812
30
0
40
80.207190455425064
210
0
220
0
230
1
100
AcDbArc
50
163.68281369808898
51
165.05218630191143
0
SPLINE
5
103
100
AcDbEntity
8
0
100
AcDbSpline
70
0
71
3
72
8
73
4
74
0
42
0.000000001
43
0.0000000001
44
0.0000000001
40
0
40
0
40
0
40
0
40
1
40
1
40
1
40
1
10
35.409197883781701
20
159.46792414667124
30
0
10
34.047309692038453
20
158.34605689268653
30
0
10
33.022776068374412
20
157.31988098549638
30
0
10
32.270742522097166
20
156.46584333345305
30
0
0
SPLINE
5
104
100
AcDbEntity
8
0
100
AcDbSpline
70
0
71
3
72
8
73
4
74
0
42
0.000000001
43
0.0000000001
44
0.0000000001
40
0
40
0
40
0
40
0
40
1
40
1
40
1
40
1
10
-51.36665258482406
20
143.70636415790656
30
0
10
-51.18122994593827
20
143.3282925847501
30
0
10
-51.003751528233167
20
142.99474672512349
30
0
10
-50.838555078491396
20
142.70297528834689
30
0
0
ARC
5
105
100
AcDbEntity
8
0
100
AcDbCircle
10
30.057639792364348
20
156.36395524870895
30
0
40
0.39999999999997171
210
0
220
0
230
1
100
AcDbArc
50
169.82802906942499
51
246.41971071438766
0
SPLINE
5
106
100
AcDbEntity
8
0
100
AcDbSpline
70
0
71
3
72
8
73
4
74
0
42
0.000000001
43
0.0000000001
44
0.0000000001
40
0
40
0
40
0
40
0
40
1
40
1
40
1
40
1
10
-34.468567695398058
20
154.16217071310115
30
0
10
-34.686175875072479
20
154.41725328495727
30
0
10
-34.938831727984066
20
154.69817400191258
30
0
10
-35.230605039099963
20
155.00179877751691
30
0
0
SPLINE
5
107
100
AcDbEntity
8
0
100
AcDbSpline
70
0
71
3
72
8
73
4
74
0
42
0.000000001
43
0.0000000001
44
0.0000000001
40
0
40
0
40
0
40
0
40
1
40
1
40
1
40
1
10
-10.541564351727574
20
167.01143830778062
30
0
10
-11.050656946802444
20
165.32201523702167
30
0
10
-11.332412733784539
20
163.89958076928065
30
0
10
-11.483227877592881
20
162.7716669613005
30
0
0
ARC
5
108
100
AcDbEntity
8
0
100
AcDbCircle
10
-73.404708284408613
20
103.54539946724186
30
0
40
0.39999999999995806
210
-0
220
0
230
1
100
AcDbArc
50
271.0780290694301
51
347.66971071436592
0
SPLINE
5
109
100
AcDbEntity
8
0
100
AcDbSpline
70
0
71
3
72
8
73
4
74
0
42
0.000000001
43
0.0000000001
44
0.0000000001
40
0
40
0
40
0
40
0
40
1
40
1
40
1
40
1
10
-71.796839845838676
20
112.85551533240339
30
0
10
-71.45508997184109
20
112.60949359949544
30
0
10
-71.141335551494336
20
112.39899516021872
30
0
10
-70.858105186476664
20
112.21954879313954
30
0
0
ARC
5
110
100
AcDbEntity
8
0
100
AcDbCircle
10
8.7732168903874879
20
162.12396872170399
30
0
40
0.39999999999998259
210
0
220
0
230
1
100
AcDbArc
50
186.70302906942661
51
263.29471071436205
0
SPLINE
5
111
100
AcDbEntity
8
0
100
AcDbSpline
70
0
71
3
72
8
73
4
74
0
42
0.000000001
43
0.0000000001
44
0.0000000001
40
0
40
0
40
0
40
0
40
1
40
1
40
1
40
1
10
18.196100669319438
20
161.43639354238093
30
0
10
17.984760943657378
20
161.07217494071793
30
0
10
17.806029422948889
20
160.73929887860115
30
0
10
17.655208569608433
20
160.43984352546207
30
0
0
SPLINE
5
112
100
AcDbEntity
8
0
100
AcDbSpline
70
0
71
3
72
8
73
4
74
0
42
0.000000001
43
0.0000000001
44
0.0000000001
40
0
40
0
40
0
40
0
40
1
40
1
40
1
40
1
10
-46.77826231991169
20
152.65356916610762
30
0
10
-46.430853382356091
20
150.92364644746402
30
0
10
-46.008808835806853
20
149.53635248465594
30
0
10
-45.61012102961449
20
148.470527546391
30
0
0
SPLINE
5
113
100
AcDbEntity
8
0
100
AcDbSpline
70
0
71
3
72
8
73
4
74
0
42
0.000000001
43
0.0000000001
44
0.0000000001
40
0
40
0
40
0
40
0
40
1
40
1
40
1
40
1
10
-52.335369453175396
20
141.28602297394985
30
0
10
-52.617654059735443
20
141.46695345569665
30
0
10
-52.940977616100866
20
141.66243569817505
30
0
10
-53.308324886390643
20
141.86828917142969
30
0
0
ARC
5
114
100
AcDbEntity
8
0
100
AcDbCircle
10
1.255662240851052e-12
20
87.500000000006324
30
0
40
74.737913481693795
210
0
220
0
230
1
100
AcDbArc
50
172.31523691862606
51
173.29476308137507
0
ARC
5
115
100
AcDbEntity
8
0
100
AcDbCircle
10
-40.559156228794826
20
150.75077776906326
30
0
40
0.39999999999999059
210
0
220
0
230
1
100
AcDbArc
50
226.0780290694307
51
302.66971071436319
0
SPLINE
5
116
100
AcDbEntity
8
0
100
AcDbSpline
70
0
71
3
72
8
73
4
74
0
42
0.000000001
43
0.0000000001
44
0.0000000001
40
0
40
0
40
0
40
0
40
1
40
1
40
1
40
1
10
-75.363899351349033
20
98.361447609794013
30
0
10
-74.980719646256631
20
98.186825208465919
30
0
10
-74.631927720816577
20
98.04158188857474
30
0
10
-74.319131298305933
20
97.920839036237737
30
0
0
SPLINE
5
117
100
AcDbEntity
8
0
100
AcDbSpline
70
0
71
3
72
8
73
4
74
0
42
0.000000001
43
0.0000000001
44
0.0000000001
40
0
40
0
40
0
40
0
40
1
40
1
40
1
40
1
10
-80.040205499885261
20
92.672900954833835
30
0
10
-78.482563258020335
20
91.844000340326275
30
0
10
-77.142428296933929
20
91.290155213427354
30
0
10
-76.065609611474088
20
90.922192872312962
30
0
0
SPLINE
5
118
100
AcDbEntity
8
0
100
AcDbSpline
70
0
71
3
72
8
73
4
74
0
42
0.000000001
43
0.0000000001
44
0.0000000001
40
0
40
0
40
0
40
0
40
1
40
1
40
1
40
1
10
-75.698769910254811
20
95.708812563022576
30
0
10
-76.819084017622401
20
95.509235343212922
30
0
10
-78.227964516659142
20
95.166070837545661
30
0
10
-79.89372571250189
20
94.584207261784442
30
0
0
SPLINE
5
119
100
AcDbEntity
8
0
100
AcDbSpline
70
0
71
3
72
8
73
4
74
0
42
0.000000001
43
0.0000000001
44
0.0000000001
40
0
40
0
40
0
40
0
40
1
40
1
40
1
40
1
10
-28.44462676305973
20
158.12996232429791
30
0
10
-29.148750571522566
20
159.02391110817177
30
0
10
-30.115536316063817
20
160.10466615103195
30
0
10
-31.413928568529002
20
161.29944778008013
30
0
0
ARC
5
120
100
AcDbEntity
8
0
100
AcDbCircle
10
3.0153657348819252e-12
20
87.5000000000054
30
0
40
74.737913481695884
210
0
220
-0
230
1
100
AcDbArc
50
71.065236918625175
51
72.044763081374398
0
SPLINE
5
121
100
AcDbEntity
8
0
100
AcDbSpline
70
0
71
3
72
8
73
4
74
0
42
0.000000001
43
0.0000000001
44
0.0000000001
40
0
40
0
40
0
40
0
40
1
40
1
40
1
40
1
10
28.184602797342091
20
162.5920872390019
30
0
10
26.939234689548968
20
161.34213369647941
30
0
10
26.020217303214217
20
160.22047725080168
30
0
10
25.355515332401168
20
159.29683984584724
30
0
0
ARC
5
122
100
AcDbEntity
8
0
100
AcDbCircle
10
-33.015165849127648
20
154.99596185208338
30
0
40
0.40000000000001434
210
-0
220
0
230
1
100
AcDbArc
50
-63.934710714363973
51
12.656970930574362
0
SPLINE
5
123
100
AcDbEntity
8
0
100
AcDbSpline
70
0
71
3
72
8
73
4
74
0
42
0.000000001
43
0.0000000001
44
0.0000000001
40
0
40
0
40
0
40
0
40
1
40
1
40
1
40
1
10
3.4221928723107355
20
163.56560961148264
30
0
10
3.2859695044995885
20
163.16715903298825
30
0
10
3.175613157994456
20
162.80581030113598
30
0
10
3.0861111263335883
20
162.48268520979448
30
0
0
SPLINE
5
124
100
AcDbEntity
8
0
100
AcDbSpline
70
0
71
3
72
8
73
4
74
0
42
0.000000001
43
0.0000000001
44
0.0000000001
40
0
40
0
40
0
40
0
40
1
40
1
40
1
40
1
10
-2.6973200316529655
20
167.66182299199866
30
0
10
-3.3695536249359681
20
166.03043475542381
30
0
10
-3.7893756396262557
20
164.64246659494702
30
0
10
-4.0500194532916041
20
163.53476646935715
30
0
0
SPLINE
5
125
100
AcDbEntity
8
0
100
AcDbSpline
70
0
71
3
72
8
73
4
74
0
42
0.000000001
43
0.0000000001
44
0.0000000001
40
0
40
0
40
0
40
0
40
1
40
1
40
1
40
1
10
-73.397182665773641
20
103.14547026717742
30
0
10
-73.732413328053582
20
103.13907954004465
30
0
10
-74.109851155117909
20
103.12198814085953
30
0
10
-74.529655309630073
20
103.08906183990381
30
0
0
ARC
5
126
100
AcDbEntity
8
0
100
AcDbCircle
10
3.2729374765949615e-12
20
87.500000000005699
30
0
40
74.737913481695855
210
0
220
0
230
1
100
AcDbArc
50
166.69023691862554
51
167.66976308137492
0
SPLINE
5
127
100
AcDbEntity
8
0
100
AcDbSpline
70
0
71
3
72
8
73
4
74
0
42
0.000000001
43
0.0000000001
44
0.0000000001
40
0
40
0
40
0
40
0
40
1
40
1
40
1
40
1
10
8.3759510983509351
20
162.07727942445518
30
0
10
8.3367327934485935
20
162.41026945867023
30
0
10
8.2827283175610926
20
162.7842145693607
30
0
10
8.2088125630203237
20
163.19876991026337
30
0
0
SPLINE
5
128
100
AcDbEntity
8
0
100
AcDbSpline
70
0
71
3
72
8
73
4
74
0
42
0.000000001
43
0.0000000001
44
0.0000000001
40
0
40
0
40
0
40
0
40
1
40
1
40
1
40
1
10
-73.936393542372343
20
105.69610066932159
30
0
10
-73.572174940709303
20
105.48476094365955
30
0
10
-73.239298878592521
20
105.30602942295107
30
0
10
-72.939843525453512
20
105.15520856961064
30
0
0
SPLINE
5
129
100
AcDbEntity
8
0
100
AcDbSpline
70
0
71
3
72
8
73
4
74
0
42
0.000000001
43
0.0000000001
44
0.0000000001
40
0
40
0
40
0
40
0
40
1
40
1
40
1
40
1
10
29.663926944374968
20
156.43459654915011
30
0
10
29.723059271125891
20
156.76463261726835
30
0
10
29.779930745606702
20
157.13815244889122
30
0
10
29.829536841978673
20
157.55631378694511
30
0
0
ARC
5
130
100
AcDbEntity
8
0
100
AcDbCircle
10
3.3673064336880998e-12
20
87.500000000005528
30
0
40
80.207190455425035
210
0
220
0
230
1
100
AcDbArc
50
124.30781369808905
51
125.67718630191099
0
SPLINE
5
131
100
AcDbEntity
8
0
100
AcDbSpline
70
0
71
3
72
8
73
4
74
0
42
0.000000001
43
0.0000000001
44
0.0000000001
40
0
40
0
40
0
40
0
40
1
40
1
40
1
40
1
10
-71.585076362624406
20
61.552645379973285
30
0
10
-71.164825602473897
20
61.579271833608871
30
0
10
-70.788751359552833
20
61.615598036776021
30
0
10
-70.455971756541913
20
61.656563560644322
30
0
0
ARC
5
132
100
AcDbEntity
8
0
100
AcDbCircle
10
31.2304845811944
20
155.84005322801184
30
0
40
0.39999999999992941
210
0
220
0
230
1
100
AcDbArc
50
245.44028928564839
51
322.03197093058259
0
ARC
5
133
100
AcDbEntity
8
0
100
AcDbCircle
10
5.4578563890572696e-12
20
87.500000000005457
30
0
40
74.737913481697902
210
0
220
0
230
1
100
AcDbArc
50
206.06523691862498
51
207.0447630813739
0
SPLINE
5
134
100
AcDbEntity
8
0
100
AcDbSpline
70
0
71
3
72
8
73
4
74
0
42
0.000000001
43
0.0000000001
44
0.0000000001
40
0
40
0
40
0
40
0
40
1
40
1
40
1
40
1
10
-40.166845669115965
20
156.92490842447503
30
0
10
-39.990671678423844
20
155.16926372597351
30
0
10
-39.706637978753704
20
153.7472823632379
30
0
10
-39.414339075861164
20
152.64751142472304
30
0
0
ARC
5
135
100
AcDbEntity
8
0
100
AcDbCircle
10
1.5798473640415978e-12
20
87.50000000000469
30
0
40
74.737913481694022
210
0
220
0
230
1
100
AcDbArc
50
200.44023691862517
51
201.41976308137401
0
SPLINE
5
136
100
AcDbEntity
8
0
100
AcDbSpline
70
0
71
3
72
8
73
4
74
0
42
0.000000001
43
0.0000000001
44
0.0000000001
40
0
40
0
40
0
40
0
40
1
40
1
40
1
40
1
10
-74.529655309630073
20
103.08906183990381
30
0
10
-75.664136786718444
20
103.00025562403256
30
0
10
-77.099869144574228
20
102.7968379868382
30
0
10
-78.814641848718097
20
102.38104939212215
30
0
0
SPLINE
5
137
100
AcDbEntity
8
0
100
AcDbSpline
70
0
71
3
72
8
73
4
74
0
42
0.000000001
43
0.0000000001
44
0.0000000001
40
0
40
0
40
0
40
0
40
1
40
1
40
1
40
1
10
29.829536841978673
20
157.55631378694511
30
0
10
29.963763369330323
20
158.68632175381487
30
0
10
30.044351833018787
20
160.13415172934228
30
0
10
29.97108805859763
20
161.89709188763769
30
0
0
ARC
5
138
100
AcDbEntity
8
0
100
AcDbCircle
10
-45.548597627405904
20
147.25810653425859
30
0
40
0.39999999999994124
210
-0
220
0
230
1
100
AcDbArc
50
-52.684710714367618
51
23.906970930581007
0
SPLINE
5
139
100
AcDbEntity
8
0
100
AcDbSpline
70
0
71
3
72
8
73
4
74
0
42
0.000000001
43
0.0000000001
44
0.0000000001
40
0
40
0
40
0
40
0
40
1
40
1
40
1
40
1
10
8.2088125630203237
20
163.19876991026337
30
0
10
8.0092353432106762
20
164.31908401763113
30
0
10
7.6660708375434616
20
165.72796451666773
30
0
10
7.0842072617822227
20
167.3937257125105
30
0
0
SPLINE
5
140
100
AcDbEntity
8
0
100
AcDbSpline
70
0
71
3
72
8
73
4
74
0
42
0.000000001
43
0.0000000001
44
0.0000000001
40
0
40
0
40
0
40
0
40
1
40
1
40
1
40
1
10
36.277859051680906
20
153.19508433499178
30
0
10
36.369055831718676
20
153.51773520766486
30
0
10
36.46226480025738
20
153.88388205991012
30
0
10
36.552619008268877
20
154.295167589117
30
0
0
SPLINE
5
141
100
AcDbEntity
8
0
100
AcDbSpline
70
0
71
3
72
8
73
4
74
0
42
0.000000001
43
0.0000000001
44
0.0000000001
40
0
40
0
40
0
40
0
40
1
40
1
40
1
40
1
10
-69.424908424466437
20
47.333154330886174
30
0
10
-67.669263725964939
20
47.509328321578373
30
0
10
-66.247282363229246
20
47.79336202124852
30
0
10
-65.147511424714494
20
48.085660924141052
30
0
0
ARC
5
142
100
AcDbEntity
8
0
100
AcDbCircle
10
-34.16419244506443
20
154.42170049363574
30
0
40
0.40000000000003277
210
0
220
0
230
1
100
AcDbArc
50
220.45302906942518
51
297.04471071435665
0
SPLINE
5
143
100
AcDbEntity
8
0
100
AcDbSpline
70
0
71
3
72
8
73
4
74
0
42
0.000000001
43
0.0000000001
44
0.0000000001
40
0
40
0
40
0
40
0
40
1
40
1
40
1
40
1
10
-71.967924146662639
20
122.9091978837839
30
0
10
-70.846056892677979
20
121.54730969204066
30
0
10
-69.819880985487814
20
120.52277606837661
30
0
10
-68.965843333444482
20
119.77074252209947
30
0
0
SPLINE
5
144
100
AcDbEntity
8
0
100
AcDbSpline
70
0
71
3
72
8
73
4
74
0
42
0.000000001
43
0.0000000001
44
0.0000000001
40
0
40
0
40
0
40
0
40
1
40
1
40
1
40
1
10
-35.230605039099963
20
155.00179877751691
30
0
10
-36.018960602364814
20
155.8224267515119
30
0
10
-37.087023527994567
20
156.80321608944897
30
0
10
-38.496272745475068
20
157.86497982277359
30
0
0
ARC
5
145
100
AcDbEntity
8
0
100
AcDbCircle
10
3.1574742820339452e-12
20
87.500000000005699
30
0
40
80.207190455425092
210
0
220
0
230
1
100
AcDbArc
50
186.18281369808906
51
187.55218630191132
0
SPLINE
5
146
100
AcDbEntity
8
0
100
AcDbSpline
70
0
71
3
72
8
73
4
74
0
42
0.000000001
43
0.0000000001
44
0.0000000001
40
0
40
0
40
0
40
0
40
1
40
1
40
1
40
1
10
-48.881361437572238
20
29.119345039393227
30
0
10
-49.337832213677984
20
28.076958740368166
30
0
10
-49.835233422341531
20
26.714865433675872
30
0
10
-50.276878876319643
20
25.006569535608701
30
0
0
SPLINE
5
147
100
AcDbEntity
8
0
100
AcDbSpline
70
0
71
3
72
8
73
4
74
0
42
0.000000001
43
0.0000000001
44
0.0000000001
40
0
40
0
40
0
40
0
40
1
40
1
40
1
40
1
10
42.542415544824237
20
149.32289254610146
30
0
10
42.664798503303786
20
149.63505091904662
30
0
10
42.793447312580071
20
149.99029859757096
30
0
10
42.923679471815603
20
150.39074741345283
30
0
0
ARC
5
148
100
AcDbEntity
8
0
100
AcDbCircle
10
3.2662761384472105e-12
20
87.500000000005329
30
0
40
80.207190455425078
210
0
220
0
230
1
100
AcDbArc
50
219.93281369808875
51
221.30218630191101
0
ARC
5
149
100
AcDbEntity
8
0
100
AcDbCircle
10
-31.230484581188122
20
19.159946771998953
30
0
40
0.39999999999998859
210
0
220
-0
230
1
100
AcDbArc
50
65.440289285638102
51
142.03197093057631
0
ARC
5
150
100
AcDbEntity
8
0
100
AcDbCircle
10
3.0897506775318107e-12
20
87.500000000005571
30
0
40
80.207190455425078
210
0
220
0
230
1
100
AcDbArc
50
214.30781369808895
51
215.67718630191129
0
SPLINE
5
151
100
AcDbEntity
8
0
100
AcDbSpline
70
0
71
3
72
8
73
4
74
0
42
0.000000001
43
0.0000000001
44
0.0000000001
40
0
40
0
40
0
40
0
40
1
40
1
40
1
40
1
10
-58.65679182399785
20
40.68859181706155
30
0
10
-58.864519805915734
20
40.425400776457494
30
0
10
-59.09075199836208
20
40.122794721782299
30
0
10
-59.331620559819136
20
39.777393497780551
30
0
0
ARC
5
152
100
AcDbEntity
8
0
100
AcDbCircle
10
58.970715478180161
20
134.06351316616025
30
0
40
0.39999999999997604
210
0
220
0
230
1
100
AcDbArc
50
141.70302906942518
51
218.29471071432792
0
ARC
5
153
100
AcDbEntity
8
0
100
AcDbCircle
10
48.753518938058768
20
144.67342418939114
30
0
40
0.39999999999998181
210
0
220
0
230
1
100
AcDbArc
50
152.95302906942976
51
229.54471071445681
0
ARC
5
154
100
AcDbEntity
8
0
100
AcDbCircle
10
37.77859784915541
20
152.44985440272762
30
0
40
0.39999999999998337
210
0
220
0
230
1
100
AcDbArc
50
239.81528928564063
51
316.40697093057577
0
ARC
5
155
100
AcDbEntity
8
0
100
AcDbCircle
10
3.1930014188219502e-12
20
87.500000000005414
30
0
40
80.207190455425092
210
0
220
0
230
1
100
AcDbArc
50
225.55781369808886
51
226.92718630191098
0
ARC
5
156
100
AcDbEntity
8
0
100
AcDbCircle
10
-30.057639792357964
20
18.636044751301839
30
0
40
0.40000000000002101
210
-0
220
0
230
1
100
AcDbArc
50
-10.171970930573591
51
66.41971071432323
0
SPLINE
5
157
100
AcDbEntity
8
0
100
AcDbSpline
70
0
71
3
72
8
73
4
74
0
42
0.000000001
43
0.0000000001
44
0.0000000001
40
0
40
0
40
0
40
0
40
1
40
1
40
1
40
1
10
-54.368289171421168
20
34.191675113611581
30
0
10
-54.924733640123009
20
33.199050149647398
30
0
10
-55.553248216797257
20
31.892269538594427
30
0
10
-56.160209305965779
20
30.235488376639672
30
0
0
ARC
5
158
100
AcDbEntity
8
0
100
AcDbCircle
10
43.962882567946728
20
148.43415297434305
30
0
40
0.39999999999993785
210
0
220
0
230
1
100
AcDbArc
50
234.19028928564671
51
310.78197093057656
0
SPLINE
5
159
100
AcDbEntity
8
0
100
AcDbSpline
70
0
71
3
72
8
73
4
74
0
42
0.000000001
43
0.0000000001
44
0.0000000001
40
0
40
0
40
0
40
0
40
1
40
1
40
1
40
1
10
48.769065571903752
20
151.17708884675224
30
0
10
47.214480236047685
20
150.34246916335493
30
0
10
46.00943575050092
20
149.53588753303529
30
0
10
45.105237837391769
20
148.84497444171114
30
0
0
SPLINE
5
160
100
AcDbEntity
8
0
100
AcDbSpline
70
0
71
3
72
8
73
4
74
0
42
0.000000001
43
0.0000000001
44
0.0000000001
40
0
40
0
40
0
40
0
40
1
40
1
40
1
40
1
10
-29.663926944368466
20
18.5654034508607
30
0
10
-29.72305927111951
20
18.235367382742442
30
0
10
-29.779930745600332
20
17.861847551119602
30
0
10
-29.829536841972182
20
17.443686213065725
30
0
0
ARC
5
161
100
AcDbEntity
8
0
100
AcDbCircle
10
-43.962882567940326
20
26.565847025667736
30
0
40
0.39999999999993935
210
0
220
-0
230
1
100
AcDbArc
50
54.190289285616792
51
130.78197093058074
0
SPLINE
5
162
100
AcDbEntity
8
0
100
AcDbSpline
70
0
71
3
72
8
73
4
74
0
42
0.000000001
43
0.0000000001
44
0.0000000001
40
0
40
0
40
0
40
0
40
1
40
1
40
1
40
1
10
-56.206364157897966
20
36.13334741517815
30
0
10
-55.828292584741519
20
36.318770054063968
30
0
10
-55.494746725114922
20
36.496248471769078
30
0
10
-55.20297528833833
20
36.661444921510807
30
0
0
SPLINE
5
163
100
AcDbEntity
8
0
100
AcDbSpline
70
0
71
3
72
8
73
4
74
0
42
0.000000001
43
0.0000000001
44
0.0000000001
40
0
40
0
40
0
40
0
40
1
40
1
40
1
40
1
10
-65.15356916609899
20
40.721737680090556
30
0
10
-63.423646447455432
20
41.069146617646133
30
0
10
-62.03635248464731
20
41.491191164195349
30
0
10
-60.970527546382449
20
41.889878970387741
30
0
0
SPLINE
5
164
100
AcDbEntity
8
0
100
AcDbSpline
70
0
71
3
72
8
73
4
74
0
42
0.000000001
43
0.0000000001
44
0.0000000001
40
0
40
0
40
0
40
0
40
1
40
1
40
1
40
1
10
-48.397265320214657
20
30.144687493849311
30
0
10
-48.549655842344336
20
29.846027876406758
30
0
10
-48.712505533998367
20
29.505100600945674
30
0
10
-48.881361437572238
20
29.119345039393227
30
0
0
SPLINE
5
165
100
AcDbEntity
8
0
100
AcDbSpline
70
0
71
3
72
8
73
4
74
0
42
0.000000001
43
0.0000000001
44
0.0000000001
40
0
40
0
40
0
40
0
40
1
40
1
40
1
40
1
10
60.970527546388816
20
133.11012102962295
30
0
10
60.576101894378667
20
132.96264874586529
30
0
10
60.226766222259833
20
132.81871814658069
30
0
10
59.920207661104314
20
132.68291576475977
30
0
0
ARC
5
166
100
AcDbEntity
8
0
100
AcDbCircle
10
-48.753518938052387
20
30.326575810619584
30
0
40
0.39999999999999597
210
-0
220
0
230
1
100
AcDbArc
50
-27.04697093057613
51
49.544710714334052
0
SPLINE
5
167
100
AcDbEntity
8
0
100
AcDbSpline
70
0
71
3
72
8
73
4
74
0
42
0.000000001
43
0.0000000001
44
0.0000000001
40
0
40
0
40
0
40
0
40
1
40
1
40
1
40
1
10
-36.552619008262624
20
20.704832410893811
30
0
10
-36.796959347659389
20
19.593422241614643
30
0
10
-37.019071909752782
20
18.160463013905744
30
0
10
-37.118959273318751
20
16.398830788674566
30
0
0
ARC
5
168
100
AcDbEntity
8
0
100
AcDbCircle
10
3.9201974999514277e-12
20
87.500000000005471
30
0
40
74.737913481695429
210
0
220
-0
230
1
100
AcDbArc
50
59.815236918625779
51
60.794763081375173
0
ARC
5
169
100
AcDbEntity
8
0
100
AcDbCircle
10
3.3884006711559778e-12
20
87.500000000006025
30
0
40
74.737913481695259
210
0
220
-0
230
1
100
AcDbArc
50
48.565236918625068
51
49.544763081373979
0
SPLINE
5
170
100
AcDbEntity
8
0
100
AcDbSpline
70
0
71
3
72
8
73
4
74
0
42
0.000000001
43
0.0000000001
44
0.0000000001
40
0
40
0
40
0
40
0
40
1
40
1
40
1
40
1
10
-32.270742522090892
20
18.534156666557742
30
0
10
-31.99240810571424
20
18.850146574783761
30
0
10
-31.752169962909509
20
19.141757726777001
30
0
10
-31.545826248702006
20
19.406035440428781
30
0
0
SPLINE
5
171
100
AcDbEntity
8
0
100
AcDbSpline
70
0
71
3
72
8
73
4
74
0
42
0.000000001
43
0.0000000001
44
0.0000000001
40
0
40
0
40
0
40
0
40
1
40
1
40
1
40
1
10
-60.970527546382449
20
41.889878970387741
30
0
10
-60.576101894372272
20
42.037351254145463
30
0
10
-60.226766222253445
20
42.181281853430093
30
0
10
-59.920207661097926
20
42.317084235251023
30
0
0
ARC
5
172
100
AcDbEntity
8
0
100
AcDbCircle
10
-58.970715478173787
20
40.936486833850552
30
0
40
0.39999999999996766
210
-0
220
0
230
1
100
AcDbArc
50
-38.296970930576904
51
38.294710714358487
0
ARC
5
173
100
AcDbEntity
8
0
100
AcDbCircle
10
3.1863400806741993e-12
20
87.500000000005386
30
0
40
80.207190455425064
210
0
220
-0
230
1
100
AcDbArc
50
45.557813698088871
51
46.9271863019111
0
SPLINE
5
174
100
AcDbEntity
8
0
100
AcDbSpline
70
0
71
3
72
8
73
4
74
0
42
0.000000001
43
0.0000000001
44
0.0000000001
40
0
40
0
40
0
40
0
40
1
40
1
40
1
40
1
10
-59.331620559819136
20
39.777393497780551
30
0
10
-59.982679856700017
20
38.844089389904141
30
0
10
-60.736254862430584
20
37.605206486134001
30
0
10
-61.502686219702134
20
36.015895768570047
30
0
0
ARC
5
175
100
AcDbEntity
8
0
100
AcDbCircle
10
3.3806291099836017e-12
20
87.500000000006537
30
0
40
74.737913481694989
210
0
220
-0
230
1
100
AcDbArc
50
37.31523691862467
51
38.294763081374278
0
ARC
5
176
100
AcDbEntity
8
0
100
AcDbCircle
10
54.122732960572357
20
139.61943801752159
30
0
40
0.40000000000004798
210
0
220
0
230
1
100
AcDbArc
50
147.32802906943218
51
223.91971071432559
0
ARC
5
177
100
AcDbEntity
8
0
100
AcDbCircle
10
-24.381604674390786
20
16.427900017773585
30
0
40
0.40000000000002223
210
0
220
-0
230
1
100
AcDbArc
50
71.065289285695528
51
147.65697093057261
0
ARC
5
178
100
AcDbEntity
8
0
100
AcDbCircle
10
3.3106850594322168e-12
20
87.500000000005343
30
0
40
80.20719045542512
210
0
220
0
230
1
100
AcDbArc
50
236.80781369808886
51
238.17718630190996
0
SPLINE
5
179
100
AcDbEntity
8
0
100
AcDbSpline
70
0
71
3
72
8
73
4
74
0
42
0.000000001
43
0.0000000001
44
0.0000000001
40
0
40
0
40
0
40
0
40
1
40
1
40
1
40
1
10
53.786022973947638
20
139.83536945318397
30
0
10
53.966953455694451
20
140.11765405974404
30
0
10
54.162435698172835
20
140.44097761610945
30
0
10
54.36828917142752
20
140.80832488639919
30
0
0
SPLINE
5
180
100
AcDbEntity
8
0
100
AcDbSpline
70
0
71
3
72
8
73
4
74
0
42
0.000000001
43
0.0000000001
44
0.0000000001
40
0
40
0
40
0
40
0
40
1
40
1
40
1
40
1
10
-42.292783037957662
20
19.349329396871873
30
0
10
-40.827490490034535
20
20.332306167387905
30
0
10
-39.70730744790405
20
21.25311890113948
30
0
10
-38.87518482031691
20
22.029331950818062
30
0
0
ARC
5
181
100
AcDbEntity
8
0
100
AcDbCircle
10
3.0020430585864233e-12
20
87.500000000005556
30
0
40
80.207190455425035
210
0
220
-0
230
1
100
AcDbArc
50
51.182813698088701
51
52.552186301910886
0
SPLINE
5
182
100
AcDbEntity
8
0
100
AcDbSpline
70
0
71
3
72
8
73
4
74
0
42
0.000000001
43
0.0000000001
44
0.0000000001
40
0
40
0
40
0
40
0
40
1
40
1
40
1
40
1
10
-12.993304077319497
20
8.3522429256128561
30
0
10
-12.015719207628315
20
9.8211382264847487
30
0
10
-11.33318479985528
20
11.100533755913295
30
0
10
-10.861447609785547
20
12.136100648653176
30
0
0
ARC
5
183
100
AcDbEntity
8
0
100
AcDbCircle
10
1.4055423491754482e-12
20
87.50000000000432
30
0
40
74.737913481693766
210
0
220
0
230
1
100
AcDbArc
50
217.31523691862498
51
218.29476308137487
0
SPLINE
5
184
100
AcDbEntity
8
0
100
AcDbSpline
70
0
71
3
72
8
73
4
74
0
42
0.000000001
43
0.0000000001
44
0.0000000001
40
0
40
0
40
0
40
0
40
1
40
1
40
1
40
1
10
-53.786022973941257
20
35.164630546826828
30
0
10
-53.966953455688071
20
34.882345940266752
30
0
10
-54.162435698166448
20
34.559022383901343
30
0
10
-54.368289171421168
20
34.191675113611581
30
0
0
ARC
5
185
100
AcDbEntity
8
0
100
AcDbCircle
10
4.4131365228849972e-12
20
87.500000000007077
30
0
40
74.737913481697944
210
0
220
0
230
1
100
AcDbArc
50
228.56523691862546
51
229.54476308137498
0
SPLINE
5
186
100
AcDbEntity
8
0
100
AcDbSpline
70
0
71
3
72
8
73
4
74
0
42
0.000000001
43
0.0000000001
44
0.0000000001
40
0
40
0
40
0
40
0
40
1
40
1
40
1
40
1
10
60.254765420104604
20
140.43917873297568
30
0
10
58.567224782771405
20
139.92388058653842
30
0
10
57.227978619124642
20
139.36788971280649
30
0
10
56.206364157904261
20
138.86665258483265
30
0
0
ARC
5
187
100
AcDbEntity
8
0
100
AcDbCircle
10
3.1608049511078207e-12
20
87.500000000005002
30
0
40
74.7379134816956
210
0
220
0
230
1
100
AcDbArc
50
222.94023691862506
51
223.91976308137495
0
SPLINE
5
188
100
AcDbEntity
8
0
100
AcDbSpline
70
0
71
3
72
8
73
4
74
0
42
0.000000001
43
0.0000000001
44
0.0000000001
40
0
40
0
40
0
40
0
40
1
40
1
40
1
40
1
10
-42.923679471809209
20
24.609252586558039
30
0
10
-43.275780492212768
20
23.527143702358014
30
0
10
-43.637278087319054
20
22.122855403165801
30
0
10
-43.909354618956968
20
20.379496592333975
30
0
0
ARC
5
189
100
AcDbEntity
8
0
100
AcDbCircle
10
3.056443986793056e-12
20
87.500000000004974
30
0
40
74.737913481695671
210
0
220
0
230
1
100
AcDbArc
50
183.56523691862492
51
184.54476308137399
0
SPLINE
5
190
100
AcDbEntity
8
0
100
AcDbSpline
70
0
71
3
72
8
73
4
74
0
42
0.000000001
43
0.0000000001
44
0.0000000001
40
0
40
0
40
0
40
0
40
1
40
1
40
1
40
1
10
-75.845699158897872
20
80.782985133384685
30
0
10
-76.905551160752424
20
80.368680293926019
30
0
10
-78.220412342139682
20
79.757250647771485
30
0
10
-79.740650451324342
20
78.861593529363134
30
0
0
ARC
5
191
100
AcDbEntity
8
0
100
AcDbCircle
10
3.1308289294429414e-12
20
87.500000000005713
30
0
40
80.207190455425092
210
0
220
0
230
1
100
AcDbArc
50
191.80781369808895
51
193.17718630191098
0
SPLINE
5
192
100
AcDbEntity
8
0
100
AcDbSpline
70
0
71
3
72
8
73
4
74
0
42
0.000000001
43
0.0000000001
44
0.0000000001
40
0
40
0
40
0
40
0
40
1
40
1
40
1
40
1
10
-73.797417071707585
20
73.866643967892657
30
0
10
-74.104684193863733
20
73.73245248542149
30
0
10
-74.44685068178002
20
73.572222888366966
30
0
10
-74.822098797932156
20
73.381150858062782
30
0
0
ARC
5
193
100
AcDbEntity
8
0
100
AcDbCircle
10
-74.173405158310118
20
75.499499610293498
30
0
40
0.39999999999994823
210
0
220
-0
230
1
100
AcDbArc
50
9.1902892857375011
51
85.781970930589523
0
ARC
5
194
100
AcDbEntity
8
0
100
AcDbCircle
10
-74.901659795772275
20
81.546227899841611
30
0
40
0.39999999999998581
210
-0
220
0
230
1
100
AcDbArc
50
-72.046970930578624
51
4.5447107144386099
0
ARC
5
195
100
AcDbEntity
8
0
100
AcDbCircle
10
-73.957416115717521
20
74.23325044071585
30
0
40
0.39999999999998231
210
-0
220
0
230
1
100
AcDbArc
50
-66.421970930580571
51
10.169710714359832
0
ARC
5
196
100
AcDbEntity
8
0
100
AcDbCircle
10
-74.99249466954241
20
82.827550361864155
30
0
40
0.40000000000005109
210
0
220
-0
230
1
100
AcDbArc
50
3.5652892856436367
51
80.156970930573252
0
ARC
5
197
100
AcDbEntity
8
0
100
AcDbCircle
10
-72.300922089232273
20
67.048039032188967
30
0
40
0.39999999999999258
210
-0
220
0
230
1
100
AcDbArc
50
-60.796970930568484
51
15.794710714463106
0
SPLINE
5
198
100
AcDbEntity
8
0
100
AcDbSpline
70
0
71
3
72
8
73
4
74
0
42
0.000000001
43
0.0000000001
44
0.0000000001
40
0
40
0
40
0
40
0
40
1
40
1
40
1
40
1
10
-74.778364908983946
20
81.165704088639444
30
0
10
-75.097305521330668
20
81.062276219465701
30
0
10
-75.453529630983354
20
80.936356352378382
30
0
10
-75.845699158897872
20
80.782985133384685
30
0
0
ARC
5
199
100
AcDbEntity
8
0
100
AcDbCircle
10
3.0608848788915566e-12
20
87.500000000005116
30
0
40
74.737913481695614
210
0
220
0
230
1
100
AcDbArc
50
194.81523691862495
51
195.79476308137396
0
SPLINE
5
200
100
AcDbEntity
8
0
100
AcDbSpline
70
0
71
3
72
8
73
4
74
0
42
0.000000001
43
0.0000000001
44
0.0000000001
40
0
40
0
40
0
40
0
40
1
40
1
40
1
40
1
10
-73.783660152719222
20
68.694153459940154
30
0
10
-73.362823166002642
20
68.679459922192507
30
0
10
-72.984999232799311
20
68.678749482919713
30
0
10
-72.649806731033081
20
68.686899641546404
30
0
0
SPLINE
5
201
100
AcDbEntity
8
0
100
AcDbSpline
70
0
71
3
72
8
73
4
74
0
42
0.000000001
43
0.0000000001
44
0.0000000001
40
0
40
0
40
0
40
0
40
1
40
1
40
1
40
1
10
-80.161822991990022
20
84.802679968349267
30
0
10
-78.530434755415229
20
84.130446375066242
30
0
10
-77.142466594938469
20
83.710624360375988
30
0
10
-76.034766469348568
20
83.449980546710606
30
0
0
ARC
5
202
100
AcDbEntity
8
0
100
AcDbCircle
10
1.1535217225855376e-12
20
87.500000000005272
30
0
40
74.737913481693795
210
0
220
0
230
1
100
AcDbArc
50
189.19023691862495
51
190.16976308137487
0
SPLINE
5
203
100
AcDbEntity
8
0
100
AcDbSpline
70
0
71
3
72
8
73
4
74
0
42
0.000000001
43
0.0000000001
44
0.0000000001
40
0
40
0
40
0
40
0
40
1
40
1
40
1
40
1
10
-74.822098797932156
20
73.381150858062782
30
0
10
-75.836238347122276
20
72.864957347252769
30
0
10
-77.08483752710427
20
72.127592969035263
30
0
10
-78.509965524807598
20
71.087239292377703
30
0
0
SPLINE
5
204
100
AcDbEntity
8
0
100
AcDbSpline
70
0
71
3
72
8
73
4
74
0
42
0.000000001
43
0.0000000001
44
0.0000000001
40
0
40
0
40
0
40
0
40
1
40
1
40
1
40
1
10
-75.27166696129197
20
76.016772122409307
30
0
10
-74.85429663824408
20
75.960900100079144
30
0
10
-74.478361665774912
20
75.923159860285011
30
0
10
-74.143984352280313
20
75.89841616318715
30
0
0
SPLINE
5
205
100
AcDbEntity
8
0
100
AcDbSpline
70
0
71
3
72
8
73
4
74
0
42
0.000000001
43
0.0000000001
44
0.0000000001
40
0
40
0
40
0
40
0
40
1
40
1
40
1
40
1
10
-79.511438307772124
20
76.958435648274616
30
0
10
-77.822015237013005
20
76.449343053199769
30
0
10
-76.399580769272021
20
76.16758726621768
30
0
10
-75.27166696129197
20
76.016772122409307
30
0
0
SPLINE
5
206
100
AcDbEntity
8
0
100
AcDbSpline
70
0
71
3
72
8
73
4
74
0
42
0.000000001
43
0.0000000001
44
0.0000000001
40
0
40
0
40
0
40
0
40
1
40
1
40
1
40
1
10
-78.095315007276653
20
69.215712355512466
30
0
10
-76.364127170037506
20
68.874663598634612
30
0
10
-74.920925216538166
20
68.733687501612678
30
0
10
-73.783660152719222
20
68.694153459940154
30
0
0
SPLINE
5
207
100
AcDbEntity
8
0
100
AcDbSpline
70
0
71
3
72
8
73
4
74
0
42
0.000000001
43
0.0000000001
44
0.0000000001
40
0
40
0
40
0
40
0
40
1
40
1
40
1
40
1
10
74.822098797938537
20
101.61884914194803
30
0
10
75.836238347128656
20
102.13504265275803
30
0
10
77.084837527110636
20
102.87240703097564
30
0
10
78.509965524813978
20
103.91276070763308
30
0
0
SPLINE
5
208
100
AcDbEntity
8
0
100
AcDbSpline
70
0
71
3
72
8
73
4
74
0
42
0.000000001
43
0.0000000001
44
0.0000000001
40
0
40
0
40
0
40
0
40
1
40
1
40
1
40
1
10
-76.034766469348568
20
83.449980546710606
30
0
10
-75.624882314338322
20
83.353468117915796
30
0
10
-75.254456761895085
20
83.279061536740386
30
0
10
-74.924114872990287
20
83.221662279247397
30
0
0
ARC
5
209
100
AcDbEntity
8
0
100
AcDbCircle
10
-72.63998520809568
20
68.28702023761673
30
0
40
0.40000000000000391
210
0
220
-0
230
1
100
AcDbArc
50
14.815289285658098
51
91.406970930577344
0
SPLINE
5
210
100
AcDbEntity
8
0
100
AcDbSpline
70
0
71
3
72
8
73
4
74
0
42
0.000000001
43
0.0000000001
44
0.0000000001
40
0
40
0
40
0
40
0
40
1
40
1
40
1
40
1
10
61.822892546099261
20
44.95758445518436
30
0
10
62.13505091904441
20
44.835201496704798
30
0
10
62.490298597568774
20
44.706552687428534
30
0
10
62.890747413450654
20
44.576320528193101
30
0
0
ARC
5
211
100
AcDbEntity
8
0
100
AcDbCircle
10
-55.005811632275261
20
36.313412605873616
30
0
40
0.39999999999999059
210
0
220
-0
230
1
100
AcDbArc
50
42.940289285636112
51
119.5319709305616
0
ARC
5
212
100
AcDbEntity
8
0
100
AcDbCircle
10
-10.047640105356969
20
13.036915382888337
30
0
40
0.39999999999997271
210
0
220
-0
230
1
100
AcDbArc
50
82.315289285637448
51
158.90697093057662
0
SPLINE
5
213
100
AcDbEntity
8
0
100
AcDbSpline
70
0
71
3
72
8
73
4
74
0
42
0.000000001
43
0.0000000001
44
0.0000000001
40
0
40
0
40
0
40
0
40
1
40
1
40
1
40
1
10
-8.3759510983445473
20
12.922720575555573
30
0
10
-8.3367327934422057
20
12.589730541340543
30
0
10
-8.2827283175547155
20
12.215785430650177
30
0
10
-8.2088125630139182
20
11.801230089747383
30
0
0
SPLINE
5
214
100
AcDbEntity
8
0
100
AcDbSpline
70
0
71
3
72
8
73
4
74
0
42
0.000000001
43
0.0000000001
44
0.0000000001
40
0
40
0
40
0
40
0
40
1
40
1
40
1
40
1
10
-18.196100669313068
20
13.56360645762987
30
0
10
-17.984760943651004
20
13.927825059292886
30
0
10
-17.806029422942508
20
14.260701121409662
30
0
10
-17.655208569602067
20
14.560156474548693
30
0
0
SPLINE
5
215
100
AcDbEntity
8
0
100
AcDbSpline
70
0
71
3
72
8
73
4
74
0
42
0.000000001
43
0.0000000001
44
0.0000000001
40
0
40
0
40
0
40
0
40
1
40
1
40
1
40
1
10
-15.645470267168918
20
14.102817334228575
30
0
10
-15.63907954003607
20
13.767586671948626
30
0
10
-15.621988140851075
20
13.390148844884324
30
0
10
-15.58906183989521
20
12.970344690372116
30
0
0
SPLINE
5
216
100
AcDbEntity
8
0
100
AcDbSpline
70
0
71
3
72
8
73
4
74
0
42
0.000000001
43
0.0000000001
44
0.0000000001
40
0
40
0
40
0
40
0
40
1
40
1
40
1
40
1
10
-54.775675344496548
20
28.909738084676896
30
0
10
-53.146768727314736
20
29.587962837155089
30
0
10
-51.868468035491688
20
30.272545542020325
30
0
10
-50.900902757048819
20
30.871504804229026
30
0
0
SPLINE
5
217
100
AcDbEntity
8
0
100
AcDbSpline
70
0
71
3
72
8
73
4
74
0
42
0.000000001
43
0.0000000001
44
0.0000000001
40
0
40
0
40
0
40
0
40
1
40
1
40
1
40
1
10
-48.769065571897272
20
23.822911153258435
30
0
10
-47.214480236041325
20
24.657530836655862
30
0
10
-46.009435750494461
20
25.464112466975521
30
0
10
-45.105237837385424
20
26.155025558299624
30
0
0
SPLINE
5
218
100
AcDbEntity
8
0
100
AcDbSpline
70
0
71
3
72
8
73
4
74
0
42
0.000000001
43
0.0000000001
44
0.0000000001
40
0
40
0
40
0
40
0
40
1
40
1
40
1
40
1
10
32.838975490744431
20
18.802910845228084
30
0
10
32.771285473029508
20
19.218528134259746
30
0
10
32.69827246861685
20
19.589230886356106
30
0
10
32.624886099895953
20
19.916392741119001
30
0
0
ARC
5
219
100
AcDbEntity
8
0
100
AcDbCircle
10
68.340053228009623
20
56.26951541881408
30
0
40
0.39999999999997005
210
0
220
0
230
1
100
AcDbArc
50
155.44028928563549
51
232.0319709305752
0
SPLINE
5
220
100
AcDbEntity
8
0
100
AcDbSpline
70
0
71
3
72
8
73
4
74
0
42
0.000000001
43
0.0000000001
44
0.0000000001
40
0
40
0
40
0
40
0
40
1
40
1
40
1
40
1
10
54.36828917142752
20
140.80832488639919
30
0
10
54.924733640129411
20
141.80094985036337
30
0
10
55.553248216803638
20
143.10773046141637
30
0
10
56.160209305972145
20
144.76451162337111
30
0
0
SPLINE
5
221
100
AcDbEntity
8
0
100
AcDbSpline
70
0
71
3
72
8
73
4
74
0
42
0.000000001
43
0.0000000001
44
0.0000000001
40
0
40
0
40
0
40
0
40
1
40
1
40
1
40
1
10
33.168600337101751
20
14.472352136811487
30
0
10
33.165357945109982
20
16.236810996991323
30
0
10
33.022070492115247
20
17.67978530179715
30
0
10
32.838975490744431
20
18.802910845228084
30
0
0
SPLINE
5
222
100
AcDbEntity
8
0
100
AcDbSpline
70
0
71
3
72
8
73
4
74
0
42
0.000000001
43
0.0000000001
44
0.0000000001
40
0
40
0
40
0
40
0
40
1
40
1
40
1
40
1
10
69.42490842447279
20
127.66684566912461
30
0
10
67.669263725971319
20
127.49067167843242
30
0
10
66.247282363235612
20
127.20663797876229
30
0
10
65.147511424720889
20
126.91433907586972
30
0
0
SPLINE
5
223
100
AcDbEntity
8
0
100
AcDbSpline
70
0
71
3
72
8
73
4
74
0
42
0.000000001
43
0.0000000001
44
0.0000000001
40
0
40
0
40
0
40
0
40
1
40
1
40
1
40
1
10
39.414339075867531
20
22.352488575287708
30
0
10
39.306237385947192
20
22.759469771507788
30
0
10
39.197240735434455
20
23.121230962630015
30
0
10
39.092140272708633
20
23.439624321638565
30
0
0
SPLINE
5
224
100
AcDbEntity
8
0
100
AcDbSpline
70
0
71
3
72
8
73
4
74
0
42
0.000000001
43
0.0000000001
44
0.0000000001
40
0
40
0
40
0
40
0
40
1
40
1
40
1
40
1
10
-5.1729009548252254
20
7.4597945001169634
30
0
10
-4.3440003403176615
20
9.0174367419818608
30
0
10
-3.7901552134187155
20
10.357571703068288
30
0
10
-3.422192872304346
20
11.434390388528143
30
0
0
ARC
5
225
100
AcDbEntity
8
0
100
AcDbCircle
10
3.2140956562898282e-12
20
87.500000000006992
30
0
40
74.737913481697277
210
0
220
0
230
1
100
AcDbArc
50
239.81523691862589
51
240.79476308137501
0
ARC
5
226
100
AcDbEntity
8
0
100
AcDbCircle
10
33.015165849134007
20
20.004038147927417
30
0
40
0.40000000000000729
210
0
220
0
230
1
100
AcDbArc
50
116.06528928568878
51
192.65697093057699
0
ARC
5
227
100
AcDbEntity
8
0
100
AcDbCircle
10
2.8144153674247718e-12
20
87.500000000003297
30
0
40
74.73791348169371
210
0
220
0
230
1
100
AcDbArc
50
267.94023691862594
51
268.91976308137498
0
SPLINE
5
228
100
AcDbEntity
8
0
100
AcDbSpline
70
0
71
3
72
8
73
4
74
0
42
0.000000001
43
0.0000000001
44
0.0000000001
40
0
40
0
40
0
40
0
40
1
40
1
40
1
40
1
10
27.768556779274647
20
17.780315422758783
30
0
10
27.960114651844261
20
17.505131811723246
30
0
10
28.184018852430892
20
17.200799200613687
30
0
10
28.444626763066108
20
16.87003767571289
30
0
0
ARC
5
229
100
AcDbEntity
8
0
100
AcDbCircle
10
59.758106534256399
20
133.04859762741452
30
0
40
0.399999999999956
210
0
220
0
230
1
100
AcDbArc
50
217.31528928564478
51
293.90697093057628
0
ARC
5
230
100
AcDbEntity
8
0
100
AcDbCircle
10
3.2873703759150885e-12
20
87.50000000000523
30
0
40
80.207190455425078
210
0
220
-0
230
1
100
AcDbArc
50
34.307813698088992
51
35.677186301911306
0
ARC
5
231
100
AcDbEntity
8
0
100
AcDbCircle
10
-37.778597849149158
20
22.550145597283176
30
0
40
0.40000000000001323
210
0
220
-0
230
1
100
AcDbArc
50
59.815289285626271
51
136.40697093056249
0
ARC
5
232
100
AcDbEntity
8
0
100
AcDbCircle
10
3.7436720390360279e-12
20
87.500000000005429
30
0
40
74.737913481695486
210
0
220
-0
230
1
100
AcDbArc
50
54.190236918625594
51
55.169763081375287
0
SPLINE
5
233
100
AcDbEntity
8
0
100
AcDbSpline
70
0
71
3
72
8
73
4
74
0
42
0.000000001
43
0.0000000001
44
0.0000000001
40
0
40
0
40
0
40
0
40
1
40
1
40
1
40
1
10
-35.409197883775327
20
15.532075853339551
30
0
10
-34.047309692032066
20
16.653943107324221
30
0
10
-33.022776068368017
20
17.68011901451441
30
0
10
-32.270742522090892
20
18.534156666557742
30
0
0
ARC
5
234
100
AcDbEntity
8
0
100
AcDbCircle
10
2.7788882306367668e-12
20
87.500000000005627
30
0
40
80.207190455425078
210
0
220
0
230
1
100
AcDbArc
50
242.43281369808906
51
243.80218630191141
0
ARC
5
235
100
AcDbEntity
8
0
100
AcDbCircle
10
-16.045399467233285
20
14.095291715593621
30
0
40
0.39999999999997954
210
0
220
-0
230
1
100
AcDbArc
50
1.0780290694252102
51
77.669710714361472
0
SPLINE
5
236
100
AcDbEntity
8
0
100
AcDbSpline
70
0
71
3
72
8
73
4
74
0
42
0.000000001
43
0.0000000001
44
0.0000000001
40
0
40
0
40
0
40
0
40
1
40
1
40
1
40
1
10
72.642779386326083
20
64.680820070591949
30
0
10
73.780502556340195
20
64.658000030119496
30
0
10
75.229259885557639
20
64.719711775795417
30
0
10
76.9765298994717
20
64.965421118005921
30
0
0
ARC
5
237
100
AcDbEntity
8
0
100
AcDbCircle
10
3.120836922221315e-12
20
87.500000000005457
30
0
40
80.207190455425078
210
0
220
0
230
1
100
AcDbArc
50
231.18281369808892
51
232.55218630191098
0
ARC
5
238
100
AcDbEntity
8
0
100
AcDbCircle
10
36.662752006436243
20
153.08619258424963
30
0
40
0.3999999999999686
210
0
220
0
230
1
100
AcDbArc
50
164.20302906942723
51
240.79471071436291
0
ARC
5
239
100
AcDbEntity
8
0
100
AcDbCircle
10
3.8025138593411612e-12
20
87.500000000006963
30
0
40
74.737913481697518
210
0
220
0
230
1
100
AcDbArc
50
245.44023691862532
51
246.41976308137498
0
ARC
5
240
100
AcDbEntity
8
0
100
AcDbCircle
10
4.3243186809149847e-12
20
87.500000000003325
30
0
40
74.73791348169344
210
-0
220
0
230
1
100
AcDbArc
50
296.06523691862498
51
297.04476308137396
0
SPLINE
5
241
100
AcDbEntity
8
0
100
AcDbSpline
70
0
71
3
72
8
73
4
74
0
42
0.000000001
43
0.0000000001
44
0.0000000001
40
0
40
0
40
0
40
0
40
1
40
1
40
1
40
1
10
-0.74950793375744951
20
11.36113602451549
30
0
10
-0.44108174773616726
20
10.265778524148468
30
0
10
0.038524764621540308
20
8.8973181733089195
30
0
10
0.78085965711443883
20
7.2966106766811603
30
0
0
ARC
5
242
100
AcDbEntity
8
0
100
AcDbCircle
10
0
20
87.5
30
0
40
74.737913481689603
210
0
220
0
230
1
100
AcDbArc
50
234.190236918625
51
235.16976308137399
0
SPLINE
5
243
100
AcDbEntity
8
0
100
AcDbSpline
70
0
71
3
72
8
73
4
74
0
42
0.000000001
43
0.0000000001
44
0.0000000001
40
0
40
0
40
0
40
0
40
1
40
1
40
1
40
1
10
25.850923252033546
20
11.572908867982839
30
0
10
26.020643684749388
20
13.329189186466056
30
0
10
26.019482414931421
20
14.779259801976929
30
0
10
25.947354620035298
20
15.914923637377843
30
0
0
ARC
5
244
100
AcDbEntity
8
0
100
AcDbCircle
10
-23.163056075908408
20
16.021479620754732
30
0
40
0.40000000000005498
210
-0
220
0
230
1
100
AcDbArc
50
-4.5469709305802262
51
72.044710714316068
0
ARC
5
245
100
AcDbEntity
8
0
100
AcDbCircle
10
3.0375701953744283e-12
20
87.500000000007304
30
0
40
74.737913481697618
210
-0
220
0
230
1
100
AcDbArc
50
290.44023691862486
51
291.41976308137424
0
SPLINE
5
246
100
AcDbEntity
8
0
100
AcDbSpline
70
0
71
3
72
8
73
4
74
0
42
0.000000001
43
0.0000000001
44
0.0000000001
40
0
40
0
40
0
40
0
40
1
40
1
40
1
40
1
10
66.795167589114769
20
50.947380991739607
30
0
10
67.906577758393951
20
50.703040652342786
30
0
10
69.339536986102843
20
50.480928090249428
30
0
10
71.101169211334025
20
50.381040726683437
30
0
0
SPLINE
5
247
100
AcDbEntity
8
0
100
AcDbSpline
70
0
71
3
72
8
73
4
74
0
42
0.000000001
43
0.0000000001
44
0.0000000001
40
0
40
0
40
0
40
0
40
1
40
1
40
1
40
1
10
58.656791824004209
20
134.31140818294924
30
0
10
58.864519805922129
20
134.57459922355332
30
0
10
59.090751998368447
20
134.87720527822847
30
0
10
59.331620559825524
20
135.22260650223024
30
0
0
SPLINE
5
248
100
AcDbEntity
8
0
100
AcDbSpline
70
0
71
3
72
8
73
4
74
0
42
0.000000001
43
0.0000000001
44
0.0000000001
40
0
40
0
40
0
40
0
40
1
40
1
40
1
40
1
10
65.470668049190635
20
48.624815179685399
30
0
10
65.183481262290087
20
48.932781766947926
30
0
10
64.916821753454954
20
49.200445988637888
30
0
10
64.674041830020471
20
49.431699847206957
30
0
0
ARC
5
249
100
AcDbEntity
8
0
100
AcDbCircle
10
3.4638958368304884e-12
20
87.500000000005315
30
0
40
80.207190455425092
210
0
220
0
230
1
100
AcDbArc
50
248.05781369808895
51
249.42718630191089
0
ARC
5
250
100
AcDbEntity
8
0
100
AcDbCircle
10
3.560485239972877e-12
20
87.500000000005627
30
0
40
80.207190455425092
210
-0
220
0
230
1
100
AcDbArc
50
298.68281369808898
51
300.05218630191001
0
ARC
5
251
100
AcDbEntity
8
0
100
AcDbCircle
10
49.723780695052568
20
143.8316223428194
30
0
40
0.3999999999999877
210
0
220
0
230
1
100
AcDbArc
50
228.56528928564808
51
305.15697093057355
0
ARC
5
252
100
AcDbEntity
8
0
100
AcDbCircle
10
71.478520379253865
20
64.336943924093802
30
0
40
0.39999999999998398
210
0
220
-0
230
1
100
AcDbArc
50
85.453029069420268
51
162.04471071435935
0
ARC
5
253
100
AcDbEntity
8
0
100
AcDbCircle
10
3.8302694349567901e-12
20
87.500000000007219
30
0
40
74.737913481697703
210
0
220
0
230
1
100
AcDbArc
50
262.31523691862498
51
263.29476308137441
0
SPLINE
5
254
100
AcDbEntity
8
0
100
AcDbSpline
70
0
71
3
72
8
73
4
74
0
42
0.000000001
43
0.0000000001
44
0.0000000001
40
0
40
0
40
0
40
0
40
1
40
1
40
1
40
1
10
-15.58906183989521
20
12.970344690372116
30
0
10
-15.500255624023989
20
11.835863213283766
30
0
10
-15.296837986829599
20
10.400130855427989
30
0
10
-14.881049392113683
20
8.685358151284122
30
0
0
SPLINE
5
255
100
AcDbEntity
8
0
100
AcDbSpline
70
0
71
3
72
8
73
4
74
0
42
0.000000001
43
0.0000000001
44
0.0000000001
40
0
40
0
40
0
40
0
40
1
40
1
40
1
40
1
10
50.900902757055178
20
144.12849519578177
30
0
10
50.5428262986769
20
143.90690792314268
30
0
10
50.228282480505499
20
143.69759090119931
30
0
10
49.954108086542561
20
143.50459131565307
30
0
0
SPLINE
5
256
100
AcDbEntity
8
0
100
AcDbSpline
70
0
71
3
72
8
73
4
74
0
42
0.000000001
43
0.0000000001
44
0.0000000001
40
0
40
0
40
0
40
0
40
1
40
1
40
1
40
1
10
62.890747413450654
20
44.576320528193101
30
0
10
63.972856297650665
20
44.224219507789414
30
0
10
65.377144596842911
20
43.862721912683291
30
0
10
67.120503407674619
20
43.590645381045249
30
0
0
ARC
5
257
100
AcDbEntity
8
0
100
AcDbCircle
10
2.7899904608830184e-12
20
87.500000000005528
30
0
40
80.207190455425035
210
0
220
0
230
1
100
AcDbArc
50
253.68281369808915
51
255.05218630191141
0
SPLINE
5
258
100
AcDbEntity
8
0
100
AcDbSpline
70
0
71
3
72
8
73
4
74
0
42
0.000000001
43
0.0000000001
44
0.0000000001
40
0
40
0
40
0
40
0
40
1
40
1
40
1
40
1
10
-10.861447609785547
20
12.136100648653176
30
0
10
-10.686825208457293
20
12.519280353745632
30
0
10
-10.541581888566254
20
12.868072279185634
30
0
10
-10.42083903622914
20
13.180868701696269
30
0
0
SPLINE
5
259
100
AcDbEntity
8
0
100
AcDbSpline
70
0
71
3
72
8
73
4
74
0
42
0.000000001
43
0.0000000001
44
0.0000000001
40
0
40
0
40
0
40
0
40
1
40
1
40
1
40
1
10
59.331620559825524
20
135.22260650223024
30
0
10
59.982679856706383
20
136.15591061010667
30
0
10
60.736254862436958
20
137.39479351387678
30
0
10
61.502686219708437
20
138.98410423144077
30
0
0
ARC
5
260
100
AcDbEntity
8
0
100
AcDbCircle
10
-36.662752006429869
20
21.91380741576117
30
0
40
0.3999999999999746
210
-0
220
0
230
1
100
AcDbArc
50
-15.796970930569348
51
60.794710714417867
0
ARC
5
261
100
AcDbEntity
8
0
100
AcDbCircle
10
-49.72378069504618
20
31.168377657191392
30
0
40
0.39999999999997543
210
0
220
-0
230
1
100
AcDbArc
50
48.565289285642415
51
125.15697093057545
0
ARC
5
262
100
AcDbEntity
8
0
100
AcDbCircle
10
63.250777769061024
20
128.0591562288034
30
0
40
0.40000000000003982
210
0
220
0
230
1
100
AcDbArc
50
136.07802906942626
51
212.6697107144677
0
ARC
5
263
100
AcDbEntity
8
0
100
AcDbCircle
10
55.005811632281521
20
138.68658739413712
30
0
40
0.39999999999987762
210
0
220
0
230
1
100
AcDbArc
50
222.94028928563546
51
299.53197093058395
0
ARC
5
264
100
AcDbEntity
8
0
100
AcDbCircle
10
8.7818641247849882e-12
20
87.500000000003126
30
0
40
74.737913481689802
210
-0
220
0
230
1
100
AcDbArc
50
341.06523691862594
51
342.04476308137504
0
ARC
5
265
100
AcDbEntity
8
0
100
AcDbCircle
10
-8.7732168903810255
20
12.876031278306794
30
0
40
0.39999999999998709
210
0
220
-0
230
1
100
AcDbArc
50
6.7030290694240433
51
83.29471071436005
0
ARC
5
266
100
AcDbEntity
8
0
100
AcDbCircle
10
3.1019631308026874e-12
20
87.500000000005485
30
0
40
80.207190455425035
210
0
220
-0
230
1
100
AcDbArc
50
39.932813698088793
51
41.302186301911007
0
ARC
5
267
100
AcDbEntity
8
0
100
AcDbCircle
10
3.1752378504279477e-12
20
87.500000000005414
30
0
40
80.207190455425049
210
-0
220
0
230
1
100
AcDbArc
50
270.55781369808881
51
271.92718630191109
0
ARC
5
268
100
AcDbEntity
8
0
100
AcDbCircle
10
34.164192445070825
20
20.578299506375096
30
0
40
0.39999999999993463
210
0
220
-0
230
1
100
AcDbArc
50
40.453029069415827
51
117.04471071447939
0
SPLINE
5
269
100
AcDbEntity
8
0
100
AcDbSpline
70
0
71
3
72
8
73
4
74
0
42
0.000000001
43
0.0000000001
44
0.0000000001
40
0
40
0
40
0
40
0
40
1
40
1
40
1
40
1
10
48.881361437578612
20
145.88065496061748
30
0
10
49.337832213684507
20
146.92304125964262
30
0
10
49.835233422347933
20
148.28513456633485
30
0
10
50.276878876326059
20
149.99343046440208
30
0
0
SPLINE
5
270
100
AcDbEntity
8
0
100
AcDbSpline
70
0
71
3
72
8
73
4
74
0
42
0.000000001
43
0.0000000001
44
0.0000000001
40
0
40
0
40
0
40
0
40
1
40
1
40
1
40
1
10
-28.184602797335714
20
12.407912761008888
30
0
10
-26.939234689542602
20
13.657866303531367
30
0
10
-26.02021730320784
20
14.779522749209095
30
0
10
-25.355515332394774
20
15.70316015416353
30
0
0
SPLINE
5
271
100
AcDbEntity
8
0
100
AcDbSpline
70
0
71
3
72
8
73
4
74
0
42
0.000000001
43
0.0000000001
44
0.0000000001
40
0
40
0
40
0
40
0
40
1
40
1
40
1
40
1
10
-3.422192872304346
20
11.434390388528143
30
0
10
-3.2859695044931958
20
11.832840967022559
30
0
10
-3.1756131579880584
20
12.194189698874728
30
0
10
-3.0861111263272178
20
12.517314790216323
30
0
0
SPLINE
5
272
100
AcDbEntity
8
0
100
AcDbSpline
70
0
71
3
72
8
73
4
74
0
42
0.000000001
43
0.0000000001
44
0.0000000001
40
0
40
0
40
0
40
0
40
1
40
1
40
1
40
1
10
-36.277859051674554
20
21.804915665018992
30
0
10
-36.369055831712316
20
21.482264792345958
30
0
10
-36.46226480025102
20
21.116117940100686
30
0
10
-36.552619008262624
20
20.704832410893811
30
0
0
SPLINE
5
273
100
AcDbEntity
8
0
100
AcDbSpline
70
0
71
3
72
8
73
4
74
0
42
0.000000001
43
0.0000000001
44
0.0000000001
40
0
40
0
40
0
40
0
40
1
40
1
40
1
40
1
10
-42.542415544817949
20
25.677107453909333
30
0
10
-42.664798503297419
20
25.364949080964188
30
0
10
-42.793447312573818
20
25.009701402439916
30
0
10
-42.923679471809209
20
24.609252586558039
30
0
0
SPLINE
5
274
100
AcDbEntity
8
0
100
AcDbSpline
70
0
71
3
72
8
73
4
74
0
42
0.000000001
43
0.0000000001
44
0.0000000001
40
0
40
0
40
0
40
0
40
1
40
1
40
1
40
1
10
11.483227877599251
20
12.228333038710243
30
0
10
11.539099899929399
20
12.645703361758141
30
0
10
11.576840139723547
20
13.021638334227305
30
0
10
11.601583836821378
20
13.356015647721915
30
0
0
SPLINE
5
275
100
AcDbEntity
8
0
100
AcDbSpline
70
0
71
3
72
8
73
4
74
0
42
0.000000001
43
0.0000000001
44
0.0000000001
40
0
40
0
40
0
40
0
40
1
40
1
40
1
40
1
10
13.633356032116033
20
13.702582928294628
30
0
10
13.76754751458712
20
13.395315806138463
30
0
10
13.927777111641639
20
13.053149318222275
30
0
10
14.118849141945809
20
12.677901202070061
30
0
0
ARC
5
276
100
AcDbEntity
8
0
100
AcDbCircle
10
1.4976908602193362e-12
20
87.500000000007049
30
0
40
74.737913481693582
210
0
220
0
230
1
100
AcDbArc
50
149.81523691862597
51
150.79476308137521
0
SPLINE
5
277
100
AcDbEntity
8
0
100
AcDbSpline
70
0
71
3
72
8
73
4
74
0
42
0.000000001
43
0.0000000001
44
0.0000000001
40
0
40
0
40
0
40
0
40
1
40
1
40
1
40
1
10
6.3342959113690895
20
12.721635091018296
30
0
10
6.4377237805428607
20
12.402694478671553
30
0
10
6.5636436476301609
20
12.046470369018866
30
0
10
6.7170148666238703
20
11.654300841104305
30
0
0
ARC
5
278
100
AcDbEntity
8
0
100
AcDbCircle
10
-4.6724496381380387
20
162.49249466955095
30
0
40
0.39999999999999569
210
-0
220
0
230
1
100
AcDbArc
50
273.56528928563989
51
350.15697093057861
0
SPLINE
5
279
100
AcDbEntity
8
0
100
AcDbSpline
70
0
71
3
72
8
73
4
74
0
42
0.000000001
43
0.0000000001
44
0.0000000001
40
0
40
0
40
0
40
0
40
1
40
1
40
1
40
1
10
76.034766469354963
20
91.550019453300209
30
0
10
75.624882314344717
20
91.646531882095019
30
0
10
75.254456761901494
20
91.720938463270443
30
0
10
74.924114872996668
20
91.778337720763417
30
0
0
SPLINE
5
280
100
AcDbEntity
8
0
100
AcDbSpline
70
0
71
3
72
8
73
4
74
0
42
0.000000001
43
0.0000000001
44
0.0000000001
40
0
40
0
40
0
40
0
40
1
40
1
40
1
40
1
10
-63.72355600826311
20
45.822706670396293
30
0
10
-64.462960076388725
20
44.957711647362537
30
0
10
-65.334338171924415
20
43.798657570480664
30
0
10
-66.252858644354419
20
42.292123228323263
30
0
0
SPLINE
5
281
100
AcDbEntity
8
0
100
AcDbSpline
70
0
71
3
72
8
73
4
74
0
42
0.000000001
43
0.0000000001
44
0.0000000001
40
0
40
0
40
0
40
0
40
1
40
1
40
1
40
1
10
79.147757074395727
20
74.506695922682695
30
0
10
77.678861773523835
20
75.484280792373909
30
0
10
76.399466244095308
20
76.166815200146942
30
0
10
75.363899351355414
20
76.638552390216688
30
0
0
SPLINE
5
282
100
AcDbEntity
8
0
100
AcDbSpline
70
0
71
3
72
8
73
4
74
0
42
0.000000001
43
0.0000000001
44
0.0000000001
40
0
40
0
40
0
40
0
40
1
40
1
40
1
40
1
10
57.35531250615918
20
39.102734679787559
30
0
10
57.653972123601832
20
38.950344157657774
30
0
10
57.994899399062909
20
38.787494466003729
30
0
10
58.380654960615281
20
38.618638562429979
30
0
0
SPLINE
5
283
100
AcDbEntity
8
0
100
AcDbSpline
70
0
71
3
72
8
73
4
74
0
42
0.000000001
43
0.0000000001
44
0.0000000001
40
0
40
0
40
0
40
0
40
1
40
1
40
1
40
1
10
45.610121029620728
20
26.529472453619775
30
0
10
45.46264874586312
20
26.923898105629917
30
0
10
45.318718146578391
20
27.273233777748761
30
0
10
45.182915764757574
20
27.579792338904277
30
0
0
SPLINE
5
284
100
AcDbEntity
8
0
100
AcDbSpline
70
0
71
3
72
8
73
4
74
0
42
0.000000001
43
0.0000000001
44
0.0000000001
40
0
40
0
40
0
40
0
40
1
40
1
40
1
40
1
10
68.150670603136717
20
45.207216962044654
30
0
10
67.167693832620785
20
46.672509509967682
30
0
10
66.24688109886911
20
47.792692552098153
30
0
10
65.470668049190635
20
48.624815179685399
30
0
0
SPLINE
5
285
100
AcDbEntity
8
0
100
AcDbSpline
70
0
71
3
72
8
73
4
74
0
42
0.000000001
43
0.0000000001
44
0.0000000001
40
0
40
0
40
0
40
0
40
1
40
1
40
1
40
1
10
-47.722606502221687
20
146.83162055982771
30
0
10
-48.655910610098076
20
147.48267985670861
30
0
10
-49.894793513868194
20
148.23625486243915
30
0
10
-51.484104231432177
20
149.00268621971071
30
0
0
SPLINE
5
286
100
AcDbEntity
8
0
100
AcDbSpline
70
0
71
3
72
8
73
4
74
0
42
0.000000001
43
0.0000000001
44
0.0000000001
40
0
40
0
40
0
40
0
40
1
40
1
40
1
40
1
10
-38.87518482031691
20
22.029331950818062
30
0
10
-38.56721823305439
20
22.316518737718496
30
0
10
-38.299554011364435
20
22.583178246553722
30
0
10
-38.068300152795224
20
22.82595816998812
30
0
0
ARC
5
287
100
AcDbEntity
8
0
100
AcDbCircle
10
52.119438017519343
20
33.377267039436241
30
0
40
0.39999999999997904
210
0
220
-0
230
1
100
AcDbArc
50
57.328029069421923
51
133.91971071452284
0
ARC
5
288
100
AcDbEntity
8
0
100
AcDbCircle
10
3.2296387786345804e-12
20
87.50000000000513
30
0
40
80.207190455425092
210
0
220
-0
230
1
100
AcDbArc
50
6.1828136980890367
51
7.5521863019113065
0
ARC
5
289
100
AcDbEntity
8
0
100
AcDbCircle
10
3.2474023470285829e-12
20
87.50000000000513
30
0
40
80.207190455425078
210
0
220
-0
230
1
100
AcDbArc
50
11.807813698089088
51
13.177186301911078
0
ARC
5
290
100
AcDbEntity
8
0
100
AcDbCircle
10
-66.921700493627142
20
53.335807554937766
30
0
40
0.40000000000001246
210
-0
220
0
230
1
100
AcDbArc
50
-49.546970930570609
51
27.044710714355723
0
SPLINE
5
291
100
AcDbEntity
8
0
100
AcDbSpline
70
0
71
3
72
8
73
4
74
0
42
0.000000001
43
0.0000000001
44
0.0000000001
40
0
40
0
40
0
40
0
40
1
40
1
40
1
40
1
10
71.510230915054251
20
64.735684995365929
30
0
10
71.844473750865603
20
64.709186598533364
30
0
10
72.221769361700694
20
64.68920032149876
30
0
10
72.642779386326083
20
64.680820070591949
30
0
0
SPLINE
5
292
100
AcDbEntity
8
0
100
AcDbSpline
70
0
71
3
72
8
73
4
74
0
42
0.000000001
43
0.0000000001
44
0.0000000001
40
0
40
0
40
0
40
0
40
1
40
1
40
1
40
1
10
-69.719684577243441
20
59.731443220734022
30
0
10
-69.994868188278986
20
59.539885348164425
30
0
10
-70.29920079938853
20
59.315981147577702
30
0
10
-70.629962324289323
20
59.055373236942572
30
0
0
SPLINE
5
293
100
AcDbEntity
8
0
100
AcDbSpline
70
0
71
3
72
8
73
4
74
0
42
0.000000001
43
0.0000000001
44
0.0000000001
40
0
40
0
40
0
40
0
40
1
40
1
40
1
40
1
10
71.585076362630744
20
113.44735462003753
30
0
10
71.164825602480292
20
113.42072816640191
30
0
10
70.788751359559228
20
113.38440196323477
30
0
10
70.45597175654828
20
113.34343643936649
30
0
0
ARC
5
294
100
AcDbEntity
8
0
100
AcDbCircle
10
3.7581049383561549e-12
20
87.500000000005542
30
0
40
74.73791348169523
210
0
220
-0
230
1
100
AcDbArc
50
9.1902369186253168
51
10.169763081374498
0
ARC
5
295
100
AcDbEntity
8
0
100
AcDbCircle
10
65.586192584247428
20
50.837247993572348
30
0
40
0.39999999999998065
210
0
220
-0
230
1
100
AcDbArc
50
74.203029069423309
51
150.79471071436103
0
ARC
5
296
100
AcDbEntity
8
0
100
AcDbCircle
10
2.9198865547641617e-12
20
87.500000000004476
30
0
40
74.737913481696722
210
0
220
0
230
1
100
AcDbArc
50
104.815236918625
51
105.794763081374
0
ARC
5
297
100
AcDbEntity
8
0
100
AcDbCircle
10
57.173424189388903
20
38.746481061949829
30
0
40
0.39999999999999414
210
0
220
-0
230
1
100
AcDbArc
50
62.95302906942112
51
139.54471071436291
0
ARC
5
298
100
AcDbEntity
8
0
100
AcDbCircle
10
63.934898203202494
20
126.97194996614373
30
0
40
0.40000000000003144
210
0
220
0
230
1
100
AcDbArc
50
211.69028928564714
51
288.28197093057724
0
SPLINE
5
299
100
AcDbEntity
8
0
100
AcDbSpline
70
0
71
3
72
8
73
4
74
0
42
0.000000001
43
0.0000000001
44
0.0000000001
40
0
40
0
40
0
40
0
40
1
40
1
40
1
40
1
10
-75.927091132019356
20
61.649076747975045
30
0
10
-74.17081081353615
20
61.47935631525921
30
0
10
-72.720740198025283
20
61.48051758507718
30
0
10
-71.585076362624406
20
61.552645379973285
30
0
0
ARC
5
300
100
AcDbEntity
8
0
100
AcDbCircle
10
1.425526363618701e-12
20
87.500000000005997
30
0
40
74.737913481697703
210
-0
220
0
230
1
100
AcDbArc
50
335.44023691862543
51
336.41976308137498
0
SPLINE
5
301
100
AcDbEntity
8
0
100
AcDbSpline
70
0
71
3
72
8
73
4
74
0
42
0.000000001
43
0.0000000001
44
0.0000000001
40
0
40
0
40
0
40
0
40
1
40
1
40
1
40
1
10
-68.150670603130322
20
129.79278303796616
30
0
10
-67.167693832614447
20
128.32749049004312
30
0
10
-66.246881098862758
20
127.2073074479126
30
0
10
-65.470668049184269
20
126.37518482032544
30
0
0
ARC
5
302
100
AcDbEntity
8
0
100
AcDbCircle
10
4.6562753652779065e-12
20
87.500000000004349
30
0
40
74.737913481694008
210
-0
220
0
230
1
100
AcDbArc
50
318.56523691862515
51
319.54476308137458
0
SPLINE
5
303
100
AcDbEntity
8
0
100
AcDbSpline
70
0
71
3
72
8
73
4
74
0
42
0.000000001
43
0.0000000001
44
0.0000000001
40
0
40
0
40
0
40
0
40
1
40
1
40
1
40
1
10
73.077920723628836
20
108.884711181885
30
0
10
74.036581101910897
20
109.49782213835721
30
0
10
75.206893587830606
20
110.35402002659112
30
0
10
76.523186712380621
20
111.52905108687641
30
0
0
SPLINE
5
304
100
AcDbEntity
8
0
100
AcDbSpline
70
0
71
3
72
8
73
4
74
0
42
0.000000001
43
0.0000000001
44
0.0000000001
40
0
40
0
40
0
40
0
40
1
40
1
40
1
40
1
10
-20.801119481516778
20
159.60575976626751
30
0
10
-20.964782239952562
20
159.89839424787758
30
0
10
-21.157778468364192
20
160.22320786373132
30
0
10
-21.384711181876419
20
160.57792072363102
30
0
0
ARC
5
305
100
AcDbEntity
8
0
100
AcDbCircle
10
1.4810375148499588e-12
20
87.50000000000702
30
0
40
74.737913481693596
210
0
220
0
230
1
100
AcDbArc
50
116.06523691862469
51
117.04476308137406
0
ARC
5
306
100
AcDbEntity
8
0
100
AcDbCircle
10
3.2296387786345804e-12
20
87.50000000000567
30
0
40
80.207190455425078
210
-0
220
0
230
1
100
AcDbArc
50
349.30781369808864
51
350.67718630191092
0
SPLINE
5
307
100
AcDbEntity
8
0
100
AcDbSpline
70
0
71
3
72
8
73
4
74
0
42
0.000000001
43
0.0000000001
44
0.0000000001
40
0
40
0
40
0
40
0
40
1
40
1
40
1
40
1
10
80.161822991996416
20
90.197320031661562
30
0
10
78.530434755421624
20
90.869553624944558
30
0
10
77.14246659494485
20
91.289375639634841
30
0
10
76.034766469354963
20
91.550019453300209
30
0
0
SPLINE
5
308
100
AcDbEntity
8
0
100
AcDbSpline
70
0
71
3
72
8
73
4
74
0
42
0.000000001
43
0.0000000001
44
0.0000000001
40
0
40
0
40
0
40
0
40
1
40
1
40
1
40
1
10
-21.384711181876419
20
160.57792072363102
30
0
10
-21.997822138348624
20
161.53658110191304
30
0
10
-22.854020026582546
20
162.70689358783284
30
0
10
-24.029051086867838
20
164.02318671238288
30
0
0
ARC
5
309
100
AcDbEntity
8
0
100
AcDbCircle
10
4.6540549192286562e-12
20
87.500000000003553
30
0
40
74.737913481693482
210
-0
220
0
230
1
100
AcDbArc
50
312.94023691862492
51
313.91976308137396
0
ARC
5
310
100
AcDbEntity
8
0
100
AcDbCircle
10
3.694822225952521e-12
20
87.500000000006423
30
0
40
74.737913481694903
210
0
220
-0
230
1
100
AcDbArc
50
26.065236918624798
51
27.044763081373596
0
SPLINE
5
311
100
AcDbEntity
8
0
100
AcDbSpline
70
0
71
3
72
8
73
4
74
0
42
0.000000001
43
0.0000000001
44
0.0000000001
40
0
40
0
40
0
40
0
40
1
40
1
40
1
40
1
10
75.03915621418065
20
86.474233058319641
30
0
10
75.366698744270423
20
86.545901247276461
30
0
10
75.733549842751671
20
86.636298707241735
30
0
10
76.138863975493109
20
86.750492066244789
30
0
0
SPLINE
5
312
100
AcDbEntity
8
0
100
AcDbSpline
70
0
71
3
72
8
73
4
74
0
42
0.000000001
43
0.0000000001
44
0.0000000001
40
0
40
0
40
0
40
0
40
1
40
1
40
1
40
1
10
6.7170148666238703
20
11.654300841104305
30
0
10
7.1313197060825289
20
10.594448839249797
30
0
10
7.7427493522370838
20
9.2795876578625407
30
0
10
8.6384064706454247
20
7.7593495486778696
30
0
0
ARC
5
313
100
AcDbEntity
8
0
100
AcDbCircle
10
3.5638159090467525e-12
20
87.500000000005528
30
0
40
80.207190455425078
210
-0
220
0
230
1
100
AcDbArc
50
287.43281369808892
51
288.80218630191104
0
SPLINE
5
314
100
AcDbEntity
8
0
100
AcDbSpline
70
0
71
3
72
8
73
4
74
0
42
0.000000001
43
0.0000000001
44
0.0000000001
40
0
40
0
40
0
40
0
40
1
40
1
40
1
40
1
10
68.934596549147884
20
57.836073055633747
30
0
10
69.264632617266159
20
57.776940728882707
30
0
10
69.638152448888974
20
57.720069254401885
30
0
10
70.05631378694288
20
57.670463158030017
30
0
0
ARC
5
315
100
AcDbEntity
8
0
100
AcDbCircle
10
26.240427637073857
20
17.092997508730203
30
0
40
0.39999999999998598
210
0
220
0
230
1
100
AcDbArc
50
110.44028928563787
51
187.03197093058057
0
SPLINE
5
316
100
AcDbEntity
8
0
100
AcDbSpline
70
0
71
3
72
8
73
4
74
0
42
0.000000001
43
0.0000000001
44
0.0000000001
40
0
40
0
40
0
40
0
40
1
40
1
40
1
40
1
10
-32.838975490738072
20
156.19708915478267
30
0
10
-32.771285473023099
20
155.78147186575106
30
0
10
-32.698272468610469
20
155.41076911365471
30
0
10
-32.624886099889572
20
155.08360725889179
30
0
0
ARC
5
317
100
AcDbEntity
8
0
100
AcDbCircle
10
3.0753177782116836e-12
20
87.50000000000523
30
0
40
80.207190455425078
210
0
220
0
230
1
100
AcDbArc
50
146.80781369808898
51
148.17718630191001
0
SPLINE
5
318
100
AcDbEntity
8
0
100
AcDbSpline
70
0
71
3
72
8
73
4
74
0
42
0.000000001
43
0.0000000001
44
0.0000000001
40
0
40
0
40
0
40
0
40
1
40
1
40
1
40
1
10
35.230605039106315
20
19.998201222493897
30
0
10
36.018960602371308
20
19.177573248498906
30
0
10
37.087023528001033
20
18.196783910561827
30
0
10
38.496272745481534
20
17.135020177237198
30
0
0
ARC
5
319
100
AcDbEntity
8
0
100
AcDbCircle
10
5.9537721001669466
20
12.598340204229924
30
0
40
0.39999999999995267
210
0
220
-0
230
1
100
AcDbArc
50
17.953029069416601
51
94.544710714444136
0
SPLINE
5
320
100
AcDbEntity
8
0
100
AcDbSpline
70
0
71
3
72
8
73
4
74
0
42
0.000000001
43
0.0000000001
44
0.0000000001
40
0
40
0
40
0
40
0
40
1
40
1
40
1
40
1
10
76.138863975493109
20
86.750492066244789
30
0
10
77.234221475860124
20
87.058918252266025
30
0
10
78.602681826699666
20
87.53852476462373
30
0
10
80.203389323327428
20
88.28085965711665
30
0
0
ARC
5
321
100
AcDbEntity
8
0
100
AcDbCircle
10
1.3800072196090696e-12
20
87.50000000000604
30
0
40
74.737913481697717
210
-0
220
0
230
1
100
AcDbArc
50
352.31523691862509
51
353.29476308137441
0
SPLINE
5
322
100
AcDbEntity
8
0
100
AcDbSpline
70
0
71
3
72
8
73
4
74
0
42
0.000000001
43
0.0000000001
44
0.0000000001
40
0
40
0
40
0
40
0
40
1
40
1
40
1
40
1
10
79.511438307778491
20
98.041564351736184
30
0
10
77.822015237019414
20
98.550656946811031
30
0
10
76.399580769278373
20
98.832412733793149
30
0
10
75.271666961298337
20
98.983227877601493
30
0
0
SPLINE
5
323
100
AcDbEntity
8
0
100
AcDbSpline
70
0
71
3
72
8
73
4
74
0
42
0.000000001
43
0.0000000001
44
0.0000000001
40
0
40
0
40
0
40
0
40
1
40
1
40
1
40
1
10
-56.628495195773183
20
138.40090275705739
30
0
10
-56.406907923134128
20
138.0428262986791
30
0
10
-56.197590901190736
20
137.72828248050772
30
0
10
-56.004591315644483
20
137.45410808654478
30
0
0
SPLINE
5
324
100
AcDbEntity
8
0
100
AcDbSpline
70
0
71
3
72
8
73
4
74
0
42
0.000000001
43
0.0000000001
44
0.0000000001
40
0
40
0
40
0
40
0
40
1
40
1
40
1
40
1
10
34.468567695404424
20
20.837829286909635
30
0
10
34.686175875078845
20
20.582746715053517
30
0
10
34.938831727990419
20
20.301825998098295
30
0
10
35.230605039106315
20
19.998201222493897
30
0
0
SPLINE
5
325
100
AcDbEntity
8
0
100
AcDbSpline
70
0
71
3
72
8
73
4
74
0
42
0.000000001
43
0.0000000001
44
0.0000000001
40
0
40
0
40
0
40
0
40
1
40
1
40
1
40
1
10
21.384711181882814
20
14.42207927637976
30
0
10
21.997822138354906
20
13.463418898097688
30
0
10
22.854020026588806
20
12.293106412177998
30
0
10
24.029051086874105
20
10.976813287627984
30
0
0
ARC
5
326
100
AcDbEntity
8
0
100
AcDbCircle
10
3.056443986793056e-12
20
87.500000000006395
30
0
40
74.737913481694818
210
0
220
0
230
1
100
AcDbArc
50
99.190236918625288
51
100.16976308137421
0
ARC
5
327
100
AcDbEntity
8
0
100
AcDbCircle
10
51.186587394134982
20
32.494188367727055
30
0
40
0.39999999999997177
210
0
220
0
230
1
100
AcDbArc
50
132.94028928573613
51
209.53197093057565
0
ARC
5
328
100
AcDbEntity
8
0
100
AcDbCircle
10
68.863955248706759
20
57.442360207644242
30
0
40
0.40000000000002817
210
0
220
-0
230
1
100
AcDbArc
50
79.828029069428581
51
156.41971071432553
0
ARC
5
329
100
AcDbEntity
8
0
100
AcDbCircle
10
-52.119438017512977
20
141.62273296057452
30
0
40
0.39999999999998487
210
0
220
0
230
1
100
AcDbArc
50
237.32802906941879
51
313.91971071437007
0
ARC
5
330
100
AcDbEntity
8
0
100
AcDbCircle
10
3.2984726061613401e-12
20
87.500000000005173
30
0
40
80.207190455425049
210
0
220
-0
230
1
100
AcDbArc
50
23.057813698089028
51
24.427186301911309
0
SPLINE
5
331
100
AcDbEntity
8
0
100
AcDbSpline
70
0
71
3
72
8
73
4
74
0
42
0.000000001
43
0.0000000001
44
0.0000000001
40
0
40
0
40
0
40
0
40
1
40
1
40
1
40
1
10
63.723556008269512
20
129.17729332961454
30
0
10
64.462960076395092
20
130.04228835264828
30
0
10
65.334338171930796
20
131.20134242953011
30
0
10
66.252858644360813
20
132.70787677168752
30
0
0
ARC
5
332
100
AcDbEntity
8
0
100
AcDbCircle
10
-19.212979762385498
20
160.13998520810429
30
0
40
0.39999999999991925
210
-0
220
0
230
1
100
AcDbArc
50
-75.184710714382661
51
1.4069709305791227
0
ARC
5
333
100
AcDbEntity
8
0
100
AcDbCircle
10
3.1663560662309465e-12
20
87.500000000005414
30
0
40
80.20719045542512
210
-0
220
0
230
1
100
AcDbArc
50
315.55781369808892
51
316.92718630191109
0
ARC
5
334
100
AcDbEntity
8
0
100
AcDbCircle
10
-42.914781876780964
20
25.823200967866722
30
0
40
0.39999999999997177
210
-0
220
0
230
1
100
AcDbArc
50
-21.421970930576759
51
55.169710714413434
0
SPLINE
5
335
100
AcDbEntity
8
0
100
AcDbSpline
70
0
71
3
72
8
73
4
74
0
42
0.000000001
43
0.0000000001
44
0.0000000001
40
0
40
0
40
0
40
0
40
1
40
1
40
1
40
1
10
65.147511424720889
20
126.91433907586972
30
0
10
64.740530228500816
20
126.80623738594939
30
0
10
64.378769037378575
20
126.69724073543665
30
0
10
64.060375678370022
20
126.59214027271082
30
0
0
ARC
5
336
100
AcDbEntity
8
0
100
AcDbCircle
10
-57.17342418938253
20
136.25351893806095
30
0
40
0.39999999999997027
210
0
220
0
230
1
100
AcDbArc
50
242.95302906942109
51
319.54471071429839
0
SPLINE
5
337
100
AcDbEntity
8
0
100
AcDbSpline
70
0
71
3
72
8
73
4
74
0
42
0.000000001
43
0.0000000001
44
0.0000000001
40
0
40
0
40
0
40
0
40
1
40
1
40
1
40
1
10
52.335369453181769
20
33.713977026060952
30
0
10
52.617654059741824
20
33.533046544314125
30
0
10
52.940977616107247
20
33.337564301835755
30
0
10
53.30832488639701
20
33.131710828581063
30
0
0
SPLINE
5
338
100
AcDbEntity
8
0
100
AcDbSpline
70
0
71
3
72
8
73
4
74
0
42
0.000000001
43
0.0000000001
44
0.0000000001
40
0
40
0
40
0
40
0
40
1
40
1
40
1
40
1
10
-22.819179929410176
20
14.8572206136825
30
0
10
-22.841999969882629
20
13.719497443668406
30
0
10
-22.780288224206686
20
12.270740114450948
30
0
10
-22.534578881996179
20
10.523470100536887
30
0
0
SPLINE
5
339
100
AcDbEntity
8
0
100
AcDbSpline
70
0
71
3
72
8
73
4
74
0
42
0.000000001
43
0.0000000001
44
0.0000000001
40
0
40
0
40
0
40
0
40
1
40
1
40
1
40
1
10
52.939178732973495
20
27.24523457990399
30
0
10
52.423880586536242
20
28.932775217237293
30
0
10
51.867889712804271
20
30.272021380883942
30
0
10
51.366652584830426
20
31.293635842104326
30
0
0
SPLINE
5
340
100
AcDbEntity
8
0
100
AcDbSpline
70
0
71
3
72
8
73
4
74
0
42
0.000000001
43
0.0000000001
44
0.0000000001
40
0
40
0
40
0
40
0
40
1
40
1
40
1
40
1
10
54.775675344502929
20
146.09026191533391
30
0
10
53.146768727321131
20
145.41203716285568
30
0
10
51.868468035498054
20
144.72745445799049
30
0
10
50.900902757055178
20
144.12849519578177
30
0
0
SPLINE
5
341
100
AcDbEntity
8
0
100
AcDbSpline
70
0
71
3
72
8
73
4
74
0
42
0.000000001
43
0.0000000001
44
0.0000000001
40
0
40
0
40
0
40
0
40
1
40
1
40
1
40
1
10
67.501798777514693
20
122.73060503910854
30
0
10
68.322426751509695
20
123.51896060237351
30
0
10
69.303216089446764
20
124.58702352800329
30
0
10
70.364979822771389
20
125.99627274548375
30
0
0
ARC
5
342
100
AcDbEntity
8
0
100
AcDbCircle
10
71.072099982235002
20
63.118395325611445
30
0
40
0.40000000000001346
210
0
220
0
230
1
100
AcDbArc
50
161.06528928556244
51
237.65697093057315
0
SPLINE
5
343
100
AcDbEntity
8
0
100
AcDbSpline
70
0
71
3
72
8
73
4
74
0
42
0.000000001
43
0.0000000001
44
0.0000000001
40
0
40
0
40
0
40
0
40
1
40
1
40
1
40
1
10
18.284287644496139
20
9.4046849927255565
30
0
10
18.625336401373978
20
11.135872829964736
30
0
10
18.766312498395916
20
12.579074783464083
30
0
10
18.805846540068444
20
13.716339847282962
30
0
0
SPLINE
5
344
100
AcDbEntity
8
0
100
AcDbSpline
70
0
71
3
72
8
73
4
74
0
42
0.000000001
43
0.0000000001
44
0.0000000001
40
0
40
0
40
0
40
0
40
1
40
1
40
1
40
1
10
-45.105237837385424
20
26.155025558299624
30
0
10
-44.770604965823956
20
26.410643458124458
30
0
10
-44.478092418023792
20
26.649783246960617
30
0
10
-44.224155516167308
20
26.868727276798104
30
0
0
ARC
5
345
100
AcDbEntity
8
0
100
AcDbCircle
10
40.559156228801186
20
24.249222230947559
30
0
40
0.39999999999998026
210
0
220
-0
230
1
100
AcDbArc
50
46.078029069424971
51
122.66971071436198
0
SPLINE
5
346
100
AcDbEntity
8
0
100
AcDbSpline
70
0
71
3
72
8
73
4
74
0
42
0.000000001
43
0.0000000001
44
0.0000000001
40
0
40
0
40
0
40
0
40
1
40
1
40
1
40
1
10
70.05631378694288
20
57.670463158030017
30
0
10
71.186321753812635
20
57.536236630678268
30
0
10
72.634151729340203
20
57.45564816698981
30
0
10
74.397091887635497
20
57.528911941410961
30
0
0
ARC
5
347
100
AcDbEntity
8
0
100
AcDbCircle
10
3.6304292905242619e-12
20
87.500000000003354
30
0
40
74.737913481693781
210
-0
220
0
230
1
100
AcDbArc
50
273.56523691862498
51
274.54476308137401
0
ARC
5
348
100
AcDbEntity
8
0
100
AcDbCircle
10
75.124559546587932
20
86.083456561055911
30
0
40
0.39999999999997127
210
0
220
0
230
1
100
AcDbArc
50
102.32802906942413
51
178.91971071436487
0
ARC
5
349
100
AcDbEntity
8
0
100
AcDbCircle
10
-64.949854402719026
20
125.27859784915763
30
0
40
0.3999999999999625
210
-0
220
0
230
1
100
AcDbArc
50
-30.184710714403476
51
46.406970930575874
0
SPLINE
5
350
100
AcDbEntity
8
0
100
AcDbSpline
70
0
71
3
72
8
73
4
74
0
42
0.000000001
43
0.0000000001
44
0.0000000001
40
0
40
0
40
0
40
0
40
1
40
1
40
1
40
1
10
10.541564351733939
20
7.9885616922301095
30
0
10
11.050656946808793
20
9.6779847629891869
30
0
10
11.332412733790898
20
11.100419230730205
30
0
10
11.483227877599251
20
12.228333038710243
30
0
0
SPLINE
5
351
100
AcDbEntity
8
0
100
AcDbSpline
70
0
71
3
72
8
73
4
74
0
42
0.000000001
43
0.0000000001
44
0.0000000001
40
0
40
0
40
0
40
0
40
1
40
1
40
1
40
1
10
-20.688574578686705
20
10.006927518300179
30
0
10
-19.571720130509139
20
11.372929613451877
30
0
10
-18.767069621320196
20
12.579264432885397
30
0
10
-18.196100669313068
20
13.56360645762987
30
0
0
SPLINE
5
352
100
AcDbEntity
8
0
100
AcDbSpline
70
0
71
3
72
8
73
4
74
0
42
0.000000001
43
0.0000000001
44
0.0000000001
40
0
40
0
40
0
40
0
40
1
40
1
40
1
40
1
10
-25.355515332394774
20
15.70316015416353
30
0
10
-25.109493599486914
20
16.044910028161105
30
0
10
-24.898995160210031
20
16.358664448507881
30
0
10
-24.719548793130841
20
16.641894813525543
30
0
0
ARC
5
353
100
AcDbEntity
8
0
100
AcDbCircle
10
2.4402702081260941e-12
20
87.500000000003297
30
0
40
74.737913481693596
210
0
220
0
230
1
100
AcDbArc
50
251.065236918625
51
252.04476308137495
0
ARC
5
354
100
AcDbEntity
8
0
100
AcDbCircle
10
2.9554136915521667e-12
20
87.500000000005329
30
0
40
80.207190455425064
210
-0
220
0
230
1
100
AcDbArc
50
293.05781369808903
51
294.42718630191132
0
SPLINE
5
355
100
AcDbEntity
8
0
100
AcDbSpline
70
0
71
3
72
8
73
4
74
0
42
0.000000001
43
0.0000000001
44
0.0000000001
40
0
40
0
40
0
40
0
40
1
40
1
40
1
40
1
10
40.166845669122409
20
18.075091575535783
30
0
10
39.990671678430218
20
19.830736274037278
30
0
10
39.706637978760071
20
21.252717636772974
30
0
10
39.414339075867531
20
22.352488575287708
30
0
0
SPLINE
5
356
100
AcDbEntity
8
0
100
AcDbSpline
70
0
71
3
72
8
73
4
74
0
42
0.000000001
43
0.0000000001
44
0.0000000001
40
0
40
0
40
0
40
0
40
1
40
1
40
1
40
1
10
77.49307248170841
20
66.811425421315519
30
0
10
76.12707038655671
20
67.928279869493068
30
0
10
74.920735567123103
20
68.732930378681999
30
0
10
73.936393542378738
20
69.303899330689063
30
0
0
SPLINE
5
357
100
AcDbEntity
8
0
100
AcDbSpline
70
0
71
3
72
8
73
4
74
0
42
0.000000001
43
0.0000000001
44
0.0000000001
40
0
40
0
40
0
40
0
40
1
40
1
40
1
40
1
10
-50.900902757048819
20
30.871504804229026
30
0
10
-50.542826298670498
20
31.093092076868096
30
0
10
-50.228282480499118
20
31.302409098811488
30
0
10
-49.954108086536195
20
31.495408684357727
30
0
0
SPLINE
5
358
100
AcDbEntity
8
0
100
AcDbSpline
70
0
71
3
72
8
73
4
74
0
42
0.000000001
43
0.0000000001
44
0.0000000001
40
0
40
0
40
0
40
0
40
1
40
1
40
1
40
1
10
-11.483227877592881
20
162.7716669613005
30
0
10
-11.539099899923038
20
162.35429663825261
30
0
10
-11.576840139717177
20
161.97836166578352
30
0
10
-11.601583836815028
20
161.64398435228887
30
0
0
ARC
5
359
100
AcDbEntity
8
0
100
AcDbCircle
10
2.9654056987737931e-12
20
87.500000000005002
30
0
40
80.20719045542512
210
-0
220
0
230
1
100
AcDbArc
50
332.43281369808921
51
333.80218630191143
0
ARC
5
360
100
AcDbEntity
8
0
100
AcDbCircle
10
46.563513166158039
20
28.529284521828423
30
0
40
0.39999999999997954
210
0
220
-0
230
1
100
AcDbArc
50
51.703029069425497
51
128.29471071436276
0
ARC
5
361
100
AcDbEntity
8
0
100
AcDbCircle
10
3.3129055054814671e-12
20
87.500000000005556
30
0
40
80.207190455425092
210
-0
220
0
230
1
100
AcDbArc
50
321.18281369808898
51
322.55218630191104
0
ARC
5
362
100
AcDbEntity
8
0
100
AcDbCircle
10
74.6239687217018
20
78.726783109621095
30
0
40
0.39999999999997615
210
0
220
0
230
1
100
AcDbArc
50
96.703029069424673
51
173.29471071435884
0
ARC
5
363
100
AcDbEntity
8
0
100
AcDbCircle
10
27.440208812047253
20
17.551869340678952
30
0
40
0.39999999999997748
210
0
220
-0
230
1
100
AcDbArc
50
34.828029069427352
51
111.41971071436322
0
ARC
5
364
100
AcDbEntity
8
0
100
AcDbCircle
10
3.822497873784414e-12
20
87.50000000000604
30
0
40
74.737913481694974
210
0
220
-0
230
1
100
AcDbArc
50
42.940236918625288
51
43.91976308137486
0
ARC
5
365
100
AcDbEntity
8
0
100
AcDbCircle
10
19.212979762391971
20
14.860014791906529
30
0
40
0.39999999999998748
210
0
220
0
230
1
100
AcDbArc
50
104.8152892856384
51
181.40697093057705
0
ARC
5
366
100
AcDbEntity
8
0
100
AcDbCircle
10
3.4783287361506154e-12
20
87.500000000003382
30
0
40
74.737913481693809
210
-0
220
0
230
1
100
AcDbArc
50
284.81523691862549
51
285.79476308137487
0
SPLINE
5
367
100
AcDbEntity
8
0
100
AcDbSpline
70
0
71
3
72
8
73
4
74
0
42
0.000000001
43
0.0000000001
44
0.0000000001
40
0
40
0
40
0
40
0
40
1
40
1
40
1
40
1
10
-6.3342959113627479
20
162.27836490899253
30
0
10
-6.4377237805364924
20
162.59730552133928
30
0
10
-6.5636436476237918
20
162.95352963099188
30
0
10
-6.7170148666175074
20
163.34569915890651
30
0
0
SPLINE
5
368
100
AcDbEntity
8
0
100
AcDbSpline
70
0
71
3
72
8
73
4
74
0
42
0.000000001
43
0.0000000001
44
0.0000000001
40
0
40
0
40
0
40
0
40
1
40
1
40
1
40
1
10
65.695084334989602
20
51.222140948327578
30
0
10
66.017735207662639
20
51.130944168289922
30
0
10
66.383882059907904
20
51.037735199751204
30
0
10
66.795167589114769
20
50.947380991739607
30
0
0
SPLINE
5
369
100
AcDbEntity
8
0
100
AcDbSpline
70
0
71
3
72
8
73
4
74
0
42
0.000000001
43
0.0000000001
44
0.0000000001
40
0
40
0
40
0
40
0
40
1
40
1
40
1
40
1
10
45.105237837391769
20
148.84497444171114
30
0
10
44.770604965830444
20
148.58935654188633
30
0
10
44.47809241803018
20
148.3502167530502
30
0
10
44.224155516173695
20
148.1312727232127
30
0
0
ARC
5
370
100
AcDbEntity
8
0
100
AcDbCircle
10
13.266749559292743
20
13.542583884284687
30
0
40
0.39999999999998082
210
0
220
-0
230
1
100
AcDbArc
50
23.578029069424314
51
100.16971071436021
0
SPLINE
5
371
100
AcDbEntity
8
0
100
AcDbSpline
70
0
71
3
72
8
73
4
74
0
42
0.000000001
43
0.0000000001
44
0.0000000001
40
0
40
0
40
0
40
0
40
1
40
1
40
1
40
1
10
56.206364157904261
20
138.86665258483265
30
0
10
55.828292584747871
20
138.68122994594682
30
0
10
55.494746725121296
20
138.50375152824171
30
0
10
55.202975288344724
20
138.33855507850001
30
0
0
ARC
5
372
100
AcDbEntity
8
0
100
AcDbCircle
10
-5.9537721001605837
20
162.40165979578083
30
0
40
0.39999999999995084
210
0
220
0
230
1
100
AcDbArc
50
197.95302906940597
51
274.54471071436092
0
SPLINE
5
373
100
AcDbEntity
8
0
100
AcDbSpline
70
0
71
3
72
8
73
4
74
0
42
0.000000001
43
0.0000000001
44
0.0000000001
40
0
40
0
40
0
40
0
40
1
40
1
40
1
40
1
10
53.30832488639701
20
33.131710828581063
30
0
10
54.300949850361199
20
32.575266359879166
30
0
10
55.607730461414164
20
31.946751783204963
30
0
10
57.264511623368925
20
31.339790694036452
30
0
0
ARC
5
374
100
AcDbEntity
8
0
100
AcDbCircle
10
-2.7005993576622722
20
12.410634537963077
30
0
40
0.39999999999997771
210
0
220
-0
230
1
100
AcDbArc
50
87.94028928556385
51
164.53197093058489
0
ARC
5
375
100
AcDbEntity
8
0
100
AcDbCircle
10
66.921700493633494
20
121.66419244507307
30
0
40
0.3999999999999781
210
0
220
0
230
1
100
AcDbArc
50
130.4530290694108
51
207.04471071446775
0
ARC
5
376
100
AcDbEntity
8
0
100
AcDbCircle
10
72.300922089238625
20
107.95196096782186
30
0
40
0.39999999999992347
210
0
220
0
230
1
100
AcDbArc
50
119.2030290694274
51
195.79471071436492
0
SPLINE
5
377
100
AcDbEntity
8
0
100
AcDbSpline
70
0
71
3
72
8
73
4
74
0
42
0.000000001
43
0.0000000001
44
0.0000000001
40
0
40
0
40
0
40
0
40
1
40
1
40
1
40
1
10
56.628495195779571
20
36.599097242953405
30
0
10
56.406907923140508
20
36.957173701331698
30
0
10
56.19759090119711
20
37.271717519503092
30
0
10
56.004591315650856
20
37.545891913466022
30
0
0
SPLINE
5
378
100
AcDbEntity
8
0
100
AcDbSpline
70
0
71
3
72
8
73
4
74
0
42
0.000000001
43
0.0000000001
44
0.0000000001
40
0
40
0
40
0
40
0
40
1
40
1
40
1
40
1
10
61.344974441708978
20
42.394762162616729
30
0
10
61.08935654188403
20
42.729395034178161
30
0
10
60.850216753047974
20
43.021907581978418
30
0
10
60.631272723210486
20
43.275844483834895
30
0
0
SPLINE
5
379
100
AcDbEntity
8
0
100
AcDbSpline
70
0
71
3
72
8
73
4
74
0
42
0.000000001
43
0.0000000001
44
0.0000000001
40
0
40
0
40
0
40
0
40
1
40
1
40
1
40
1
10
65.153569166105399
20
134.27826231992029
30
0
10
63.423646447461799
20
133.93085338236466
30
0
10
62.036352484653705
20
133.50880883581542
30
0
10
60.970527546388816
20
133.11012102962295
30
0
0
ARC
5
380
100
AcDbEntity
8
0
100
AcDbCircle
10
2.7888802378583932e-12
20
87.500000000005272
30
0
40
80.207190455425177
210
0
220
0
230
1
100
AcDbArc
50
107.43281369808899
51
108.80218630191099
0
SPLINE
5
381
100
AcDbEntity
8
0
100
AcDbSpline
70
0
71
3
72
8
73
4
74
0
42
0.000000001
43
0.0000000001
44
0.0000000001
40
0
40
0
40
0
40
0
40
1
40
1
40
1
40
1
10
74.529655309636482
20
71.910938160107008
30
0
10
75.664136786724825
20
71.999744375978224
30
0
10
77.099869144580609
20
72.203162013172516
30
0
10
78.814641848724477
20
72.618950607888536
30
0
0
ARC
5
382
100
AcDbEntity
8
0
100
AcDbCircle
10
2.9587443606260422e-12
20
87.500000000006096
30
0
40
74.737913481695259
210
0
220
0
230
1
100
AcDbArc
50
144.190236918626
51
145.16976308137501
0
SPLINE
5
383
100
AcDbEntity
8
0
100
AcDbSpline
70
0
71
3
72
8
73
4
74
0
42
0.000000001
43
0.0000000001
44
0.0000000001
40
0
40
0
40
0
40
0
40
1
40
1
40
1
40
1
10
-63.677088846743686
20
136.26906557190586
30
0
10
-62.842469163346351
20
134.71448023604984
30
0
10
-62.035887533026717
20
133.50943575050312
30
0
10
-61.34497444170259
20
132.60523783739396
30
0
0
ARC
5
384
100
AcDbEntity
8
0
100
AcDbCircle
10
3.4439118223872356e-12
20
87.500000000005386
30
0
40
80.207190455425092
210
0
220
0
230
1
100
AcDbArc
50
259.30781369808864
51
260.67718630191092
0
SPLINE
5
385
100
AcDbEntity
8
0
100
AcDbSpline
70
0
71
3
72
8
73
4
74
0
42
0.000000001
43
0.0000000001
44
0.0000000001
40
0
40
0
40
0
40
0
40
1
40
1
40
1
40
1
10
-29.829536841972182
20
17.443686213065725
30
0
10
-29.963763369323964
20
16.313678246195963
30
0
10
-30.044351833012321
20
14.865848270668383
30
0
10
-29.971088058591249
20
13.102908112373104
30
0
0
SPLINE
5
386
100
AcDbEntity
8
0
100
AcDbSpline
70
0
71
3
72
8
73
4
74
0
42
0.000000001
43
0.0000000001
44
0.0000000001
40
0
40
0
40
0
40
0
40
1
40
1
40
1
40
1
10
38.875184820323199
20
152.97066804919285
30
0
10
38.567218233060771
20
152.6834812622923
30
0
10
38.299554011370702
20
152.41682175345713
30
0
10
38.068300152801619
20
152.17404183002267
30
0
0
SPLINE
5
387
100
AcDbEntity
8
0
100
AcDbSpline
70
0
71
3
72
8
73
4
74
0
42
0.000000001
43
0.0000000001
44
0.0000000001
40
0
40
0
40
0
40
0
40
1
40
1
40
1
40
1
10
73.027647863197103
20
120.66860033710397
30
0
10
71.263189003017288
20
120.66535794511218
30
0
10
69.820214698211444
20
120.52207049211746
30
0
10
68.697089154780514
20
120.33897549074665
30
0
0
ARC
5
388
100
AcDbEntity
8
0
100
AcDbCircle
10
4.5830006456526462e-12
20
87.500000000003567
30
0
40
74.737913481693596
210
-0
220
0
230
1
100
AcDbArc
50
301.69023691862492
51
302.66976308137453
0
SPLINE
5
389
100
AcDbEntity
8
0
100
AcDbSpline
70
0
71
3
72
8
73
4
74
0
42
0.000000001
43
0.0000000001
44
0.0000000001
40
0
40
0
40
0
40
0
40
1
40
1
40
1
40
1
10
68.965843333450863
20
55.229257477911332
30
0
10
68.649853425224833
20
55.507591894287955
30
0
10
68.358242273231582
20
55.747830037092726
30
0
10
68.093964559579803
20
55.954173751300218
30
0
0
ARC
5
390
100
AcDbEntity
8
0
100
AcDbCircle
10
60.934152974340847
20
43.53711743206177
30
0
40
0.39999999999997427
210
0
220
0
230
1
100
AcDbArc
50
144.19028928563932
51
220.78197093057676
0
SPLINE
5
391
100
AcDbEntity
8
0
100
AcDbSpline
70
0
71
3
72
8
73
4
74
0
42
0.000000001
43
0.0000000001
44
0.0000000001
40
0
40
0
40
0
40
0
40
1
40
1
40
1
40
1
10
-60.254765420098231
20
34.560821267035088
30
0
10
-58.56722478276501
20
35.076119413472341
30
0
10
-57.227978619118247
20
35.632110287204426
30
0
10
-56.206364157897966
20
36.13334741517815
30
0
0
ARC
5
392
100
AcDbEntity
8
0
100
AcDbCircle
10
-59.758106534250018
20
41.951402372596291
30
0
40
0.39999999999992686
210
0
220
-0
230
1
100
AcDbArc
50
37.315289285729094
51
113.90697093057803
0
ARC
5
393
100
AcDbEntity
8
0
100
AcDbCircle
10
-54.122732960565976
20
35.380561982489247
30
0
40
0.39999999999998814
210
-0
220
0
230
1
100
AcDbArc
50
-32.671970930574176
51
43.919710714267211
0
SPLINE
5
394
100
AcDbEntity
8
0
100
AcDbSpline
70
0
71
3
72
8
73
4
74
0
42
0.000000001
43
0.0000000001
44
0.0000000001
40
0
40
0
40
0
40
0
40
1
40
1
40
1
40
1
10
-22.764315004636213
20
15.989769084954338
30
0
10
-22.790813401468853
20
15.655526249142982
30
0
10
-22.81079967850345
20
15.2782306383078
30
0
10
-22.819179929410176
20
14.8572206136825
30
0
0
ARC
5
395
100
AcDbEntity
8
0
100
AcDbCircle
10
1.312283615106935e-12
20
87.500000000005912
30
0
40
74.737913481697689
210
-0
220
0
230
1
100
AcDbArc
50
324.19023691862577
51
325.16976308137504
0
ARC
5
396
100
AcDbEntity
8
0
100
AcDbCircle
10
3.0009328355617981e-12
20
87.500000000005272
30
0
40
80.207190455425092
210
-0
220
0
230
1
100
AcDbArc
50
309.93281369808909
51
311.30218630191098
0
ARC
5
397
100
AcDbEntity
8
0
100
AcDbCircle
10
64.949854402725421
20
49.72140215085318
30
0
40
0.39999999999998015
210
0
220
0
230
1
100
AcDbArc
50
149.81528928563873
51
226.40697093057722
0
SPLINE
5
398
100
AcDbEntity
8
0
100
AcDbSpline
70
0
71
3
72
8
73
4
74
0
42
0.000000001
43
0.0000000001
44
0.0000000001
40
0
40
0
40
0
40
0
40
1
40
1
40
1
40
1
10
-13.63335603210955
20
161.29741707171621
30
0
10
-13.767547514580752
20
161.60468419387232
30
0
10
-13.927777111635262
20
161.94685068178859
30
0
10
-14.118849141939435
20
162.32209879794067
30
0
0
ARC
5
399
100
AcDbEntity
8
0
100
AcDbCircle
10
-20.451960967813243
20
159.80092208924083
30
0
40
0.40000000000001834
210
0
220
0
230
1
100
AcDbArc
50
209.20302906942368
51
285.79471071442254
0
SPLINE
5
400
100
AcDbEntity
8
0
100
AcDbSpline
70
0
71
3
72
8
73
4
74
0
42
0.000000001
43
0.0000000001
44
0.0000000001
40
0
40
0
40
0
40
0
40
1
40
1
40
1
40
1
10
-1.0257669416825621
20
12.460843785827937
30
0
10
-0.95409875272578715
20
12.133301255738173
30
0
10
-0.86370129276051699
20
11.766450157256914
30
0
10
-0.74950793375744951
20
11.36113602451549
30
0
0
SPLINE
5
401
100
AcDbEntity
8
0
100
AcDbSpline
70
0
71
3
72
8
73
4
74
0
42
0.000000001
43
0.0000000001
44
0.0000000001
40
0
40
0
40
0
40
0
40
1
40
1
40
1
40
1
10
58.380654960615281
20
38.618638562429979
30
0
10
59.423041259640328
20
38.16216778632409
30
0
10
60.78513456633263
20
37.664766577660657
30
0
10
62.493430464399893
20
37.223121123682446
30
0
0
SPLINE
5
402
100
AcDbEntity
8
0
100
AcDbSpline
70
0
71
3
72
8
73
4
74
0
42
0.000000001
43
0.0000000001
44
0.0000000001
40
0
40
0
40
0
40
0
40
1
40
1
40
1
40
1
10
-4.0500194532916041
20
163.53476646935715
30
0
10
-4.1465318820864328
20
163.12488231434682
30
0
10
-4.2209384632618203
20
162.75445676190361
30
0
10
-4.2783377207548234
20
162.42411487299887
30
0
0
SPLINE
5
403
100
AcDbEntity
8
0
100
AcDbSpline
70
0
71
3
72
8
73
4
74
0
42
0.000000001
43
0.0000000001
44
0.0000000001
40
0
40
0
40
0
40
0
40
1
40
1
40
1
40
1
10
25.947354620035298
20
15.914923637377843
30
0
10
25.920728166399726
20
16.335174397528309
30
0
10
25.88440196323246
20
16.711248640449377
30
0
10
25.843436439364265
20
17.044028243460314
30
0
0
SPLINE
5
404
100
AcDbEntity
8
0
100
AcDbSpline
70
0
71
3
72
8
73
4
74
0
42
0.000000001
43
0.0000000001
44
0.0000000001
40
0
40
0
40
0
40
0
40
1
40
1
40
1
40
1
10
75.927091132025751
20
113.35092325203574
30
0
10
74.170810813542531
20
113.5206436847516
30
0
10
72.720740198031649
20
113.51948241493362
30
0
10
71.585076362630744
20
113.44735462003753
30
0
0
ARC
5
405
100
AcDbEntity
8
0
100
AcDbCircle
10
-1.4165434389463105
20
12.375440453420655
30
0
40
0.39999999999999158
210
0
220
-0
230
1
100
AcDbArc
50
12.328029069423538
51
88.91971071434908
0
ARC
5
406
100
AcDbEntity
8
0
100
AcDbCircle
10
-13.266749559286362
20
161.45741611572606
30
0
40
0.39999999999990604
210
0
220
0
230
1
100
AcDbArc
50
203.57802906941097
51
280.16971071445261
0
ARC
5
407
100
AcDbEntity
8
0
100
AcDbCircle
10
3.4883207433722419e-12
20
87.500000000005386
30
0
40
80.20719045542512
210
0
220
0
230
1
100
AcDbArc
50
264.93281369808869
51
266.30218630191092
0
ARC
5
408
100
AcDbEntity
8
0
100
AcDbCircle
10
2.9742874829707944e-12
20
87.500000000005286
30
0
40
80.207190455425092
210
-0
220
0
230
1
100
AcDbArc
50
304.30781369808903
51
305.67718630191104
0
ARC
5
409
100
AcDbEntity
8
0
100
AcDbCircle
10
2.758904216193514e-12
20
87.500000000006537
30
0
40
74.73791348169469
210
0
220
0
230
1
100
AcDbArc
50
93.565236918625018
51
94.544763081374427
0
ARC
5
410
100
AcDbEntity
8
0
100
AcDbCircle
10
56.331622342817084
20
37.776219304956008
30
0
40
0.39999999999997266
210
0
220
0
230
1
100
AcDbArc
50
138.56528928563668
51
215.15697093058091
0
SPLINE
5
411
100
AcDbEntity
8
0
100
AcDbSpline
70
0
71
3
72
8
73
4
74
0
42
0.000000001
43
0.0000000001
44
0.0000000001
40
0
40
0
40
0
40
0
40
1
40
1
40
1
40
1
10
-8.2088125630139182
20
11.801230089747383
30
0
10
-8.0092353432042991
20
10.680915982379716
30
0
10
-7.6660708375370756
20
9.2720354833430623
30
0
10
-7.0842072617758278
20
7.6062742875003249
30
0
0
SPLINE
5
412
100
AcDbEntity
8
0
100
AcDbSpline
70
0
71
3
72
8
73
4
74
0
42
0.000000001
43
0.0000000001
44
0.0000000001
40
0
40
0
40
0
40
0
40
1
40
1
40
1
40
1
10
48.397265320221038
20
144.85531250616137
30
0
10
48.549655842350816
20
145.15397212360401
30
0
10
48.712505534004862
20
145.49489939906513
30
0
10
48.881361437578612
20
145.88065496061748
30
0
0
ARC
5
413
100
AcDbEntity
8
0
100
AcDbCircle
10
39.471949966141494
20
23.56510179680609
30
0
40
0.39999999999994007
210
0
220
0
230
1
100
AcDbArc
50
121.69028928567243
51
198.28197093056841
0
ARC
5
414
100
AcDbEntity
8
0
100
AcDbCircle
10
-17.297916586238141
20
14.380316438339072
30
0
40
0.39999999999998193
210
0
220
-0
230
1
100
AcDbArc
50
76.690289285638798
51
153.28197093057315
0
SPLINE
5
415
100
AcDbEntity
8
0
100
AcDbSpline
70
0
71
3
72
8
73
4
74
0
42
0.000000001
43
0.0000000001
44
0.0000000001
40
0
40
0
40
0
40
0
40
1
40
1
40
1
40
1
10
58.590261915331688
20
32.724324655505661
30
0
10
57.912037162853508
20
34.353231272687466
30
0
10
57.227454457988259
20
35.631531964510515
30
0
10
56.628495195779571
20
36.599097242953405
30
0
0
SPLINE
5
416
100
AcDbEntity
8
0
100
AcDbSpline
70
0
71
3
72
8
73
4
74
0
42
0.000000001
43
0.0000000001
44
0.0000000001
40
0
40
0
40
0
40
0
40
1
40
1
40
1
40
1
10
69.719684577249808
20
115.26855677927685
30
0
10
69.994868188285338
20
115.46011465184651
30
0
10
70.29920079939491
20
115.68401885243306
30
0
10
70.629962324295704
20
115.94462676306834
30
0
0
ARC
5
417
100
AcDbEntity
8
0
100
AcDbCircle
10
42.914781876787245
20
149.17679903214409
30
0
40
0.40000000000000469
210
0
220
0
230
1
100
AcDbArc
50
158.57802906942521
51
235.16971071431425
0
SPLINE
5
418
100
AcDbEntity
8
0
100
AcDbSpline
70
0
71
3
72
8
73
4
74
0
42
0.000000001
43
0.0000000001
44
0.0000000001
40
0
40
0
40
0
40
0
40
1
40
1
40
1
40
1
10
51.366652584830426
20
31.293635842104326
30
0
10
51.181229945944722
20
31.671707415260713
30
0
10
51.003751528239633
20
32.005253274887281
30
0
10
50.838555078497777
20
32.297024711663866
30
0
0
SPLINE
5
419
100
AcDbEntity
8
0
100
AcDbSpline
70
0
71
3
72
8
73
4
74
0
42
0.000000001
43
0.0000000001
44
0.0000000001
40
0
40
0
40
0
40
0
40
1
40
1
40
1
40
1
10
41.677293329612297
20
23.776443991739086
30
0
10
42.542288352646054
20
23.037039923613499
30
0
10
43.701342429527827
20
22.165661828077784
30
0
10
45.207876771685335
20
21.247141355647791
30
0
0
SPLINE
5
420
100
AcDbEntity
8
0
100
AcDbSpline
70
0
71
3
72
8
73
4
74
0
42
0.000000001
43
0.0000000001
44
0.0000000001
40
0
40
0
40
0
40
0
40
1
40
1
40
1
40
1
10
28.444626763066108
20
16.87003767571289
30
0
10
29.148750571528943
20
15.976088891839048
30
0
10
30.115536316070191
20
14.895333848978847
30
0
10
31.413928568535383
20
13.700552219930625
30
0
0
SPLINE
5
421
100
AcDbEntity
8
0
100
AcDbSpline
70
0
71
3
72
8
73
4
74
0
42
0.000000001
43
0.0000000001
44
0.0000000001
40
0
40
0
40
0
40
0
40
1
40
1
40
1
40
1
10
46.811408182947048
20
28.843208176004378
30
0
10
47.074599223551118
20
28.635480194086462
30
0
10
47.377205278226384
20
28.409248001640144
30
0
10
47.722606502228039
20
28.168379440183081
30
0
0
ARC
5
422
100
AcDbEntity
8
0
100
AcDbCircle
10
2.0827783941967937e-12
20
87.500000000003382
30
0
40
74.737913481693596
210
0
220
0
230
1
100
AcDbArc
50
256.69023691862577
51
257.66976308137521
0
SPLINE
5
423
100
AcDbEntity
8
0
100
AcDbSpline
70
0
71
3
72
8
73
4
74
0
42
0.000000001
43
0.0000000001
44
0.0000000001
40
0
40
0
40
0
40
0
40
1
40
1
40
1
40
1
10
68.697089154780514
20
120.33897549074665
30
0
10
68.281471865748841
20
120.27128547303171
30
0
10
67.910769113652492
20
120.19827246861907
30
0
10
67.5836072588896
20
120.12488609989813
30
0
0
ARC
5
424
100
AcDbEntity
8
0
100
AcDbCircle
10
-12.000500389708614
20
161.6734051583187
30
0
40
0.39999999999994496
210
-0
220
0
230
1
100
AcDbArc
50
279.19028928564012
51
355.78197093057321
0
SPLINE
5
425
100
AcDbEntity
8
0
100
AcDbSpline
70
0
71
3
72
8
73
4
74
0
42
0.000000001
43
0.0000000001
44
0.0000000001
40
0
40
0
40
0
40
0
40
1
40
1
40
1
40
1
10
70.629962324295704
20
115.94462676306834
30
0
10
71.523911108169557
20
116.64875057153111
30
0
10
72.604666151029733
20
117.61553631607241
30
0
10
73.799447780077969
20
118.91392856853759
30
0
0
ARC
5
426
100
AcDbEntity
8
0
100
AcDbCircle
10
61.676799032141865
20
44.585218123221352
30
0
40
0.39999999999998487
210
0
220
-0
230
1
100
AcDbArc
50
68.578029069421234
51
145.16971071439687
0
ARC
5
427
100
AcDbEntity
8
0
100
AcDbCircle
10
-65.586192584241033
20
124.16275200643844
30
0
40
0.3999999999999771
210
0
220
0
230
1
100
AcDbArc
50
254.20302906942973
51
330.79471071436001
0
ARC
5
428
100
AcDbEntity
8
0
100
AcDbCircle
10
2.7278179715040096e-12
20
87.500000000004675
30
0
40
74.737913481695102
210
0
220
0
230
1
100
AcDbArc
50
211.690236918625
51
212.66976308137436
0
SPLINE
5
429
100
AcDbEntity
8
0
100
AcDbSpline
70
0
71
3
72
8
73
4
74
0
42
0.000000001
43
0.0000000001
44
0.0000000001
40
0
40
0
40
0
40
0
40
1
40
1
40
1
40
1
10
-58.380654960608894
20
136.38136143758084
30
0
10
-59.423041259634068
20
136.83783221368671
30
0
10
-60.785134566326356
20
137.33523342235011
30
0
10
-62.493430464393512
20
137.77687887632823
30
0
0
SPLINE
5
430
100
AcDbEntity
8
0
100
AcDbSpline
70
0
71
3
72
8
73
4
74
0
42
0.000000001
43
0.0000000001
44
0.0000000001
40
0
40
0
40
0
40
0
40
1
40
1
40
1
40
1
10
-57.355312506152806
20
135.89726532022326
30
0
10
-57.653972123595445
20
136.04965584235291
30
0
10
-57.99489939905655
20
136.21250553400697
30
0
10
-58.380654960608894
20
136.38136143758084
30
0
0
ARC
5
431
100
AcDbEntity
8
0
100
AcDbCircle
10
3.4083846855992306e-12
20
87.500000000005031
30
0
40
80.207190455425092
210
0
220
0
230
1
100
AcDbArc
50
208.68281369808858
51
210.05218630191084
0
ARC
5
432
100
AcDbEntity
8
0
100
AcDbCircle
10
3.0975222387041867e-12
20
87.500000000005329
30
0
40
80.207190455425078
210
0
220
0
230
1
100
AcDbArc
50
129.93281369808903
51
131.30218630191104
0
ARC
5
433
100
AcDbEntity
8
0
100
AcDbCircle
10
-39.471949966135085
20
151.43489820320474
30
0
40
0.39999999999996505
210
-0
220
0
230
1
100
AcDbArc
50
-58.309710714363888
51
18.281970930565315
0
ARC
5
434
100
AcDbEntity
8
0
100
AcDbCircle
10
10.047640105363255
20
161.96308461712238
30
0
40
0.39999999999989611
210
0
220
0
230
1
100
AcDbArc
50
262.31528928563745
51
338.90697093059242
0
SPLINE
5
435
100
AcDbEntity
8
0
100
AcDbSpline
70
0
71
3
72
8
73
4
74
0
42
0.000000001
43
0.0000000001
44
0.0000000001
40
0
40
0
40
0
40
0
40
1
40
1
40
1
40
1
10
-73.027647863190808
20
54.331399662906833
30
0
10
-71.263189003010979
20
54.334642054898701
30
0
10
-69.820214698205064
20
54.477929507893343
30
0
10
-68.697089154774147
20
54.661024509264251
30
0
0
ARC
5
436
100
AcDbEntity
8
0
100
AcDbCircle
10
17.297916586244522
20
160.61968356167174
30
0
40
0.39999999999996561
210
0
220
0
230
1
100
AcDbArc
50
256.69028928563722
51
333.28197093056559
0
SPLINE
5
437
100
AcDbEntity
8
0
100
AcDbSpline
70
0
71
3
72
8
73
4
74
0
42
0.000000001
43
0.0000000001
44
0.0000000001
40
0
40
0
40
0
40
0
40
1
40
1
40
1
40
1
10
42.292783037963929
20
155.65067060313896
30
0
10
40.827490490040915
20
154.66769383262303
30
0
10
39.707307447910424
20
153.74688109887131
30
0
10
38.875184820323199
20
152.97066804919285
30
0
0
ARC
5
438
100
AcDbEntity
8
0
100
AcDbCircle
10
-70.407002491271996
20
61.259572362934719
30
0
40
0.39999999999999325
210
0
220
-0
230
1
100
AcDbArc
50
20.440289285637689
51
97.031970930580016
0
ARC
5
439
100
AcDbEntity
8
0
100
AcDbCircle
10
3.1585845050585704e-12
20
87.500000000005116
30
0
40
80.207190455425092
210
0
220
0
230
1
100
AcDbArc
50
169.30781369808901
51
170.67718630191104
0
ARC
5
440
100
AcDbEntity
8
0
100
AcDbCircle
10
16.045399467239662
20
160.90470828441721
30
0
40
0.40000000000006508
210
0
220
0
230
1
100
AcDbArc
50
181.07802906943601
51
257.66971071445147
0
ARC
5
441
100
AcDbEntity
8
0
100
AcDbCircle
10
3.1119551380243138e-12
20
87.500000000005144
30
0
40
80.207190455425078
210
0
220
0
230
1
100
AcDbArc
50
158.05781369808898
51
159.42718630191098
0
SPLINE
5
442
100
AcDbEntity
8
0
100
AcDbSpline
70
0
71
3
72
8
73
4
74
0
42
0.000000001
43
0.0000000001
44
0.0000000001
40
0
40
0
40
0
40
0
40
1
40
1
40
1
40
1
10
-18.284287644489751
20
165.59531500728522
30
0
10
-18.625336401367601
20
163.86412717004606
30
0
10
-18.766312498389549
20
162.42092521654672
30
0
10
-18.805846540062067
20
161.28366015272786
30
0
0
ARC
5
443
100
AcDbEntity
8
0
100
AcDbCircle
10
2.9709568138969189e-12
20
87.50000000000567
30
0
40
74.737913481695585
210
0
220
0
230
1
100
AcDbArc
50
132.94023691862532
51
133.9197630813747
0
SPLINE
5
444
100
AcDbEntity
8
0
100
AcDbSpline
70
0
71
3
72
8
73
4
74
0
42
0.000000001
43
0.0000000001
44
0.0000000001
40
0
40
0
40
0
40
0
40
1
40
1
40
1
40
1
10
-27.76855677926827
20
157.21968457725205
30
0
10
-27.960114651837877
20
157.49486818828754
30
0
10
-28.184018852424515
20
157.79920079939711
30
0
10
-28.44462676305973
20
158.12996232429791
30
0
0
SPLINE
5
445
100
AcDbEntity
8
0
100
AcDbSpline
70
0
71
3
72
8
73
4
74
0
42
0.000000001
43
0.0000000001
44
0.0000000001
40
0
40
0
40
0
40
0
40
1
40
1
40
1
40
1
10
-46.811408182940653
20
146.15679182400646
30
0
10
-47.07459922354473
20
146.36451980592432
30
0
10
-47.377205278219904
20
146.59075199837065
30
0
10
-47.722606502221687
20
146.83162055982771
30
0
0
SPLINE
5
446
100
AcDbEntity
8
0
100
AcDbSpline
70
0
71
3
72
8
73
4
74
0
42
0.000000001
43
0.0000000001
44
0.0000000001
40
0
40
0
40
0
40
0
40
1
40
1
40
1
40
1
10
73.783660152725631
20
106.30584654007069
30
0
10
73.362823166008923
20
106.32054007781829
30
0
10
72.984999232805691
20
106.3212505170911
30
0
10
72.649806731039462
20
106.31310035846438
30
0
0
SPLINE
5
447
100
AcDbEntity
8
0
100
AcDbSpline
70
0
71
3
72
8
73
4
74
0
42
0.000000001
43
0.0000000001
44
0.0000000001
40
0
40
0
40
0
40
0
40
1
40
1
40
1
40
1
10
5.1729009548316052
20
167.5402054998938
30
0
10
4.3440003403240359
20
165.98256325802896
30
0
10
3.7901552134251206
20
164.64242829694254
30
0
10
3.4221928723107355
20
163.56560961148264
30
0
0
ARC
5
448
100
AcDbEntity
8
0
100
AcDbCircle
10
3.1930014188219502e-12
20
87.500000000005414
30
0
40
80.207190455425035
210
0
220
-0
230
1
100
AcDbArc
50
0.55781369808840109
51
1.9271863019110456
0
SPLINE
5
449
100
AcDbEntity
8
0
100
AcDbSpline
70
0
71
3
72
8
73
4
74
0
42
0.000000001
43
0.0000000001
44
0.0000000001
40
0
40
0
40
0
40
0
40
1
40
1
40
1
40
1
10
-68.934596549141503
20
117.16392694437717
30
0
10
-69.264632617259778
20
117.22305927112811
30
0
10
-69.638152448882636
20
117.27993074560891
30
0
10
-70.056313786936485
20
117.32953684198087
30
0
0
ARC
5
450
100
AcDbEntity
8
0
100
AcDbCircle
10
72.639985208102061
20
106.71297976239418
30
0
40
0.39999999999998925
210
0
220
0
230
1
100
AcDbArc
50
194.81528928563986
51
271.40697093057281
0
ARC
5
451
100
AcDbEntity
8
0
100
AcDbCircle
10
3.5926817076870066e-12
20
87.500000000006594
30
0
40
74.737913481694576
210
0
220
-0
230
1
100
AcDbArc
50
87.940236918625587
51
88.919763081374924
0
SPLINE
5
452
100
AcDbEntity
8
0
100
AcDbSpline
70
0
71
3
72
8
73
4
74
0
42
0.000000001
43
0.0000000001
44
0.0000000001
40
0
40
0
40
0
40
0
40
1
40
1
40
1
40
1
10
-75.092087238993315
20
115.68460279734431
30
0
10
-73.842133696470839
20
114.43923468955118
30
0
10
-72.720477250793095
20
113.5202173032164
30
0
10
-71.796839845838676
20
112.85551533240339
30
0
0
SPLINE
5
453
100
AcDbEntity
8
0
100
AcDbSpline
70
0
71
3
72
8
73
4
74
0
42
0.000000001
43
0.0000000001
44
0.0000000001
40
0
40
0
40
0
40
0
40
1
40
1
40
1
40
1
10
-45.61012102961449
20
148.470527546391
30
0
10
-45.462648745856725
20
148.07610189438088
30
0
10
-45.31871814657211
20
147.726766222262
30
0
10
-45.182915764751201
20
147.42020766110653
30
0
0
ARC
5
454
100
AcDbEntity
8
0
100
AcDbCircle
10
3.056443986793056e-12
20
87.500000000004945
30
0
40
80.207190455425049
210
-0
220
0
230
1
100
AcDbArc
50
343.68281369808915
51
345.05218630191104
0
SPLINE
5
455
100
AcDbEntity
8
0
100
AcDbSpline
70
0
71
3
72
8
73
4
74
0
42
0.000000001
43
0.0000000001
44
0.0000000001
40
0
40
0
40
0
40
0
40
1
40
1
40
1
40
1
10
40.8366274621918
20
24.537336296277029
30
0
10
41.078190263243982
20
24.304811348209491
30
0
10
41.357164554501182
20
24.050007945479678
30
0
10
41.677293329612297
20
23.776443991739086
30
0
0
SPLINE
5
456
100
AcDbEntity
8
0
100
AcDbSpline
70
0
71
3
72
8
73
4
74
0
42
0.000000001
43
0.0000000001
44
0.0000000001
40
0
40
0
40
0
40
0
40
1
40
1
40
1
40
1
10
-61.34497444170259
20
132.60523783739396
30
0
10
-61.089356541877734
20
132.27060496583252
30
0
10
-60.850216753041593
20
131.97809241803236
30
0
10
-60.631272723204084
20
131.7241555161759
30
0
0
ARC
5
457
100
AcDbEntity
8
0
100
AcDbCircle
10
-63.250777769054636
20
46.940843771207398
30
0
40
0.39999999999998315
210
-0
220
0
230
1
100
AcDbArc
50
-43.921970930576478
51
32.669710714362523
0
SPLINE
5
458
100
AcDbEntity
8
0
100
AcDbSpline
70
0
71
3
72
8
73
4
74
0
42
0.000000001
43
0.0000000001
44
0.0000000001
40
0
40
0
40
0
40
0
40
1
40
1
40
1
40
1
10
1.0257669416889348
20
162.53915621418284
30
0
10
0.95409875273215095
20
162.8666987442725
30
0
10
0.86370129276688856
20
163.23354984275386
30
0
10
0.74950793376381109
20
163.63886397549524
30
0
0
SPLINE
5
459
100
AcDbEntity
8
0
100
AcDbSpline
70
0
71
3
72
8
73
4
74
0
42
0.000000001
43
0.0000000001
44
0.0000000001
40
0
40
0
40
0
40
0
40
1
40
1
40
1
40
1
10
-72.105759766258913
20
66.698880518485467
30
0
10
-72.398394247868893
20
66.535217760049647
30
0
10
-72.723207863722706
20
66.342221531638032
30
0
10
-73.077920723622441
20
66.115288818125777
30
0
0
ARC
5
460
100
AcDbEntity
8
0
100
AcDbCircle
10
-68.863955248700364
20
117.55763979236653
30
0
40
0.39999999999988267
210
0
220
0
230
1
100
AcDbArc
50
259.828029069423
51
336.41971071432857
0
ARC
5
461
100
AcDbEntity
8
0
100
AcDbCircle
10
2.978728375069295e-12
20
87.500000000005414
30
0
40
74.737913481695642
210
0
220
0
230
1
100
AcDbArc
50
161.06523691862529
51
162.04476308137458
0
SPLINE
5
462
100
AcDbEntity
8
0
100
AcDbSpline
70
0
71
3
72
8
73
4
74
0
42
0.000000001
43
0.0000000001
44
0.0000000001
40
0
40
0
40
0
40
0
40
1
40
1
40
1
40
1
10
-68.965843333444482
20
119.77074252209947
30
0
10
-68.649853425218424
20
119.49240810572286
30
0
10
-68.358242273225216
20
119.25216996291806
30
0
10
-68.093964559573422
20
119.04582624871055
30
0
0
SPLINE
5
463
100
AcDbEntity
8
0
100
AcDbSpline
70
0
71
3
72
8
73
4
74
0
42
0.000000001
43
0.0000000001
44
0.0000000001
40
0
40
0
40
0
40
0
40
1
40
1
40
1
40
1
10
74.57727942445301
20
79.124048901657659
30
0
10
74.910269458668054
20
79.163267206560008
30
0
10
75.284214569358426
20
79.217271682447489
30
0
10
75.69876991026122
20
79.291187436988253
30
0
0
SPLINE
5
464
100
AcDbEntity
8
0
100
AcDbSpline
70
0
71
3
72
8
73
4
74
0
42
0.000000001
43
0.0000000001
44
0.0000000001
40
0
40
0
40
0
40
0
40
1
40
1
40
1
40
1
10
-71.510230915047856
20
110.2643150046448
30
0
10
-71.844473750859237
20
110.29081340147746
30
0
10
-72.221769361694385
20
110.31079967851205
30
0
10
-72.642779386319717
20
110.31917992941877
30
0
0
SPLINE
5
465
100
AcDbEntity
8
0
100
AcDbSpline
70
0
71
3
72
8
73
4
74
0
42
0.000000001
43
0.0000000001
44
0.0000000001
40
0
40
0
40
0
40
0
40
1
40
1
40
1
40
1
10
15.589061839901582
20
162.02965530963877
30
0
10
15.500255624030361
20
163.16413678672706
30
0
10
15.296837986835977
20
164.59986914458281
30
0
10
14.881049392119948
20
166.31464184872667
30
0
0
SPLINE
5
466
100
AcDbEntity
8
0
100
AcDbSpline
70
0
71
3
72
8
73
4
74
0
42
0.000000001
43
0.0000000001
44
0.0000000001
40
0
40
0
40
0
40
0
40
1
40
1
40
1
40
1
10
22.819179929416542
20
160.14277938632827
30
0
10
22.841999969888995
20
161.28050255634238
30
0
10
22.780288224213059
20
162.72925988555986
30
0
10
22.534578882002556
20
164.47652989947389
30
0
0
ARC
5
467
100
AcDbEntity
8
0
100
AcDbCircle
10
20.451960967819627
20
15.199077910769958
30
0
40
0.39999999999998209
210
0
220
-0
230
1
100
AcDbArc
50
29.203029069425646
51
105.79471071436191
0
SPLINE
5
468
100
AcDbEntity
8
0
100
AcDbSpline
70
0
71
3
72
8
73
4
74
0
42
0.000000001
43
0.0000000001
44
0.0000000001
40
0
40
0
40
0
40
0
40
1
40
1
40
1
40
1
10
-68.697089154774147
20
54.661024509264251
30
0
10
-68.281471865742461
20
54.72871452697909
30
0
10
-67.910769113646097
20
54.801727531391748
30
0
10
-67.583607258883205
20
54.875113900112737
30
0
0
ARC
5
469
100
AcDbEntity
8
0
100
AcDbCircle
10
3.3284486278262193e-12
20
87.500000000005372
30
0
40
74.737913481695827
210
0
220
-0
230
1
100
AcDbArc
50
82.315236918625445
51
83.294763081374754
0
ARC
5
470
100
AcDbEntity
8
0
100
AcDbCircle
10
-63.934898203196127
20
48.028050033867089
30
0
40
0.39999999999997149
210
0
220
-0
230
1
100
AcDbArc
50
31.69028928564008
51
108.28197093057145
0
SPLINE
5
471
100
AcDbEntity
8
0
100
AcDbSpline
70
0
71
3
72
8
73
4
74
0
42
0.000000001
43
0.0000000001
44
0.0000000001
40
0
40
0
40
0
40
0
40
1
40
1
40
1
40
1
10
12.993304077325881
20
166.64775707439799
30
0
10
12.015719207634687
20
165.17886177352597
30
0
10
11.333184799861646
20
163.89946624409748
30
0
10
10.861447609791814
20
162.86389935135762
30
0
0
ARC
5
472
100
AcDbEntity
8
0
100
AcDbCircle
10
-71.478520379247513
20
110.663056075917
30
0
40
0.40000000000006009
210
0
220
0
230
1
100
AcDbArc
50
265.45302906942715
51
342.044710714367
0
ARC
5
473
100
AcDbEntity
8
0
100
AcDbCircle
10
75.089365462045521
20
84.799400642339933
30
0
40
0.39999999999994545
210
0
220
0
230
1
100
AcDbArc
50
177.94028928556054
51
254.53197093058094
0
SPLINE
5
474
100
AcDbEntity
8
0
100
AcDbSpline
70
0
71
3
72
8
73
4
74
0
42
0.000000001
43
0.0000000001
44
0.0000000001
40
0
40
0
40
0
40
0
40
1
40
1
40
1
40
1
10
-58.590261915325328
20
142.27567534450512
30
0
10
-57.912037162847142
20
140.64676872732332
30
0
10
-57.227454457981899
20
139.36846803550026
30
0
10
-56.628495195773183
20
138.40090275705739
30
0
0
SPLINE
5
475
100
AcDbEntity
8
0
100
AcDbSpline
70
0
71
3
72
8
73
4
74
0
42
0.000000001
43
0.0000000001
44
0.0000000001
40
0
40
0
40
0
40
0
40
1
40
1
40
1
40
1
10
15.645470267175183
20
160.8971826657822
30
0
10
15.63907954004245
20
161.23241332806219
30
0
10
15.621988140857344
20
161.60985115512648
30
0
10
15.589061839901582
20
162.02965530963877
30
0
0
ARC
5
476
100
AcDbEntity
8
0
100
AcDbCircle
10
1.8052226380405045e-12
20
87.500000000005755
30
0
40
74.73791348169722
210
-0
220
0
230
1
100
AcDbArc
50
346.69023691862503
51
347.66976308137498
0
SPLINE
5
477
100
AcDbEntity
8
0
100
AcDbSpline
70
0
71
3
72
8
73
4
74
0
42
0.000000001
43
0.0000000001
44
0.0000000001
40
0
40
0
40
0
40
0
40
1
40
1
40
1
40
1
10
-6.7170148666175074
20
163.34569915890651
30
0
10
-7.1313197060761491
20
164.40555116076101
30
0
10
-7.7427493522307529
20
165.72041234214825
30
0
10
-8.6384064706390902
20
167.2406504513329
30
0
0
ARC
5
478
100
AcDbEntity
8
0
100
AcDbCircle
10
67.49596185208118
20
120.51516584913617
30
0
40
0.39999999999998342
210
0
220
0
230
1
100
AcDbArc
50
206.06528928562415
51
282.6569709305777
0
SPLINE
5
479
100
AcDbEntity
8
0
100
AcDbSpline
70
0
71
3
72
8
73
4
74
0
42
0.000000001
43
0.0000000001
44
0.0000000001
40
0
40
0
40
0
40
0
40
1
40
1
40
1
40
1
10
72.105759766265294
20
108.30111948152535
30
0
10
72.398394247875288
20
108.46478223996115
30
0
10
72.723207863729087
20
108.65777846837278
30
0
10
73.077920723628836
20
108.884711181885
30
0
0
ARC
5
480
100
AcDbEntity
8
0
100
AcDbCircle
10
3.5416114485542494e-12
20
87.50000000000567
30
0
40
74.737913481695443
210
0
220
-0
230
1
100
AcDbArc
50
14.815236918625187
51
15.794763081374569
0
SPLINE
5
481
100
AcDbEntity
8
0
100
AcDbSpline
70
0
71
3
72
8
73
4
74
0
42
0.000000001
43
0.0000000001
44
0.0000000001
40
0
40
0
40
0
40
0
40
1
40
1
40
1
40
1
10
-62.890747413444274
20
130.42367947181771
30
0
10
-63.972856297644299
20
130.77578049222137
30
0
10
-65.37714459683653
20
131.13727808732753
30
0
10
-67.120503407668238
20
131.40935461896558
30
0
0
SPLINE
5
482
100
AcDbEntity
8
0
100
AcDbSpline
70
0
71
3
72
8
73
4
74
0
42
0.000000001
43
0.0000000001
44
0.0000000001
40
0
40
0
40
0
40
0
40
1
40
1
40
1
40
1
10
-65.147511424714494
20
48.085660924141052
30
0
10
-64.740530228494421
20
48.193762614061406
30
0
10
-64.378769037372209
20
48.302759264574142
30
0
10
-64.060375678363641
20
48.407859727299957
30
0
0
SPLINE
5
483
100
AcDbEntity
8
0
100
AcDbSpline
70
0
71
3
72
8
73
4
74
0
42
0.000000001
43
0.0000000001
44
0.0000000001
40
0
40
0
40
0
40
0
40
1
40
1
40
1
40
1
10
4.050019453297975
20
11.465233530653638
30
0
10
4.1465318820928134
20
11.875117685663874
30
0
10
4.2209384632681921
20
12.245543238107107
30
0
10
4.2783377207611926
20
12.575885127011921
30
0
0
ARC
5
484
100
AcDbEntity
8
0
100
AcDbCircle
10
74.463084617120245
20
77.452359894645227
30
0
40
0.39999999999995933
210
0
220
0
230
1
100
AcDbArc
50
172.31528928562696
51
248.90697093057867
0
SPLINE
5
485
100
AcDbEntity
8
0
100
AcDbSpline
70
0
71
3
72
8
73
4
74
0
42
0.000000001
43
0.0000000001
44
0.0000000001
40
0
40
0
40
0
40
0
40
1
40
1
40
1
40
1
10
-65.470668049184269
20
126.37518482032544
30
0
10
-65.183481262283692
20
126.06721823306289
30
0
10
-64.916821753448588
20
125.79955401137286
30
0
10
-64.67404183001409
20
125.56830015280383
30
0
0
SPLINE
5
486
100
AcDbEntity
8
0
100
AcDbSpline
70
0
71
3
72
8
73
4
74
0
42
0.000000001
43
0.0000000001
44
0.0000000001
40
0
40
0
40
0
40
0
40
1
40
1
40
1
40
1
10
-41.677293329605916
20
151.22355600827171
30
0
10
-42.542288352639694
20
151.96296007639728
30
0
10
-43.701342429521532
20
152.83433817193301
30
0
10
-45.20787677167894
20
153.75285864436299
30
0
0
SPLINE
5
487
100
AcDbEntity
8
0
100
AcDbSpline
70
0
71
3
72
8
73
4
74
0
42
0.000000001
43
0.0000000001
44
0.0000000001
40
0
40
0
40
0
40
0
40
1
40
1
40
1
40
1
10
-67.501798777508313
20
52.269394960902261
30
0
10
-68.322426751503315
20
51.481039397637282
30
0
10
-69.303216089440397
20
50.412976472007564
30
0
10
-70.364979822764994
20
49.003727254527057
30
0
0
SPLINE
5
488
100
AcDbEntity
8
0
100
AcDbSpline
70
0
71
3
72
8
73
4
74
0
42
0.000000001
43
0.0000000001
44
0.0000000001
40
0
40
0
40
0
40
0
40
1
40
1
40
1
40
1
10
-40.836627462185533
20
150.46266370373377
30
0
10
-41.078190263237602
20
150.69518865180123
30
0
10
-41.357164554494936
20
150.94999205453101
30
0
10
-41.677293329605916
20
151.22355600827171
30
0
0
SPLINE
5
489
100
AcDbEntity
8
0
100
AcDbSpline
70
0
71
3
72
8
73
4
74
0
42
0.000000001
43
0.0000000001
44
0.0000000001
40
0
40
0
40
0
40
0
40
1
40
1
40
1
40
1
10
-14.118849141939435
20
162.32209879794067
30
0
10
-14.635042652749453
20
163.33623834713092
30
0
10
-15.372407030966933
20
164.58483752711285
30
0
10
-16.412760707624489
20
166.00996552481629
30
0
0
SPLINE
5
490
100
AcDbEntity
8
0
100
AcDbSpline
70
0
71
3
72
8
73
4
74
0
42
0.000000001
43
0.0000000001
44
0.0000000001
40
0
40
0
40
0
40
0
40
1
40
1
40
1
40
1
10
78.095315007283034
20
105.78428764449831
30
0
10
76.364127170043872
20
106.12533640137615
30
0
10
74.920925216544504
20
106.26631249839815
30
0
10
73.783660152725631
20
106.30584654007069
30
0
0
SPLINE
5
491
100
AcDbEntity
8
0
100
AcDbSpline
70
0
71
3
72
8
73
4
74
0
42
0.000000001
43
0.0000000001
44
0.0000000001
40
0
40
0
40
0
40
0
40
1
40
1
40
1
40
1
10
-77.493072481702043
20
108.18857457869527
30
0
10
-76.127070386550329
20
107.07172013051773
30
0
10
-74.920735567116793
20
106.26706962132883
30
0
10
-73.936393542372343
20
105.69610066932159
30
0
0
SPLINE
5
492
100
AcDbEntity
8
0
100
AcDbSpline
70
0
71
3
72
8
73
4
74
0
42
0.000000001
43
0.0000000001
44
0.0000000001
40
0
40
0
40
0
40
0
40
1
40
1
40
1
40
1
10
63.677088846750067
20
38.730934428104845
30
0
10
62.842469163352604
20
40.285519763960906
30
0
10
62.035887533033076
20
41.490564249507671
30
0
10
61.344974441708978
20
42.394762162616729
30
0
0
SPLINE
5
493
100
AcDbEntity
8
0
100
AcDbSpline
70
0
71
3
72
8
73
4
74
0
42
0.000000001
43
0.0000000001
44
0.0000000001
40
0
40
0
40
0
40
0
40
1
40
1
40
1
40
1
10
42.923679471815603
20
150.39074741345283
30
0
10
43.27578049221917
20
151.47285629765287
30
0
10
43.637278087325306
20
152.87714459684514
30
0
10
43.909354618963349
20
154.62050340767684
30
0
0
SPLINE
5
494
100
AcDbEntity
8
0
100
AcDbSpline
70
0
71
3
72
8
73
4
74
0
42
0.000000001
43
0.0000000001
44
0.0000000001
40
0
40
0
40
0
40
0
40
1
40
1
40
1
40
1
10
20.688574578693071
20
164.99307248171061
30
0
10
19.571720130515509
20
163.62707038655887
30
0
10
18.767069621326577
20
162.42073556712538
30
0
10
18.196100669319438
20
161.43639354238093
30
0
0
ARC
5
495
100
AcDbEntity
8
0
100
AcDbCircle
10
12.000500389714988
20
13.326594841691987
30
0
40
0.39999999999997971
210
0
220
0
230
1
100
AcDbArc
50
99.190289285638741
51
175.78197093057813
0
ARC
5
496
100
AcDbEntity
8
0
100
AcDbCircle
10
2.7005993576686582
20
162.58936546204768
30
0
40
0.39999999999998731
210
0
220
0
230
1
100
AcDbArc
50
267.94028928564069
51
344.53197093059089
0
ARC
5
497
100
AcDbEntity
8
0
100
AcDbCircle
10
3.4483527144857362e-12
20
87.500000000005528
30
0
40
80.207190455424993
210
0
220
0
230
1
100
AcDbArc
50
113.05781369808909
51
114.42718630191098
0
ARC
5
498
100
AcDbEntity
8
0
100
AcDbCircle
10
4.1722181265413383e-12
20
87.500000000005969
30
0
40
74.737913481694676
210
0
220
-0
230
1
100
AcDbArc
50
31.690236918625281
51
32.669763081374136
0
ARC
5
499
100
AcDbEntity
8
0
100
AcDbCircle
10
3.2118752102405779e-12
20
87.5000000000054
30
0
40
80.207190455425078
210
0
220
0
230
1
100
AcDbArc
50
135.55781369808901
51
136.92718630191104
0
SPLINE
5
500
100
AcDbEntity
8
0
100
AcDbSpline
70
0
71
3
72
8
73
4
74
0
42
0.000000001
43
0.0000000001
44
0.0000000001
40
0
40
0
40
0
40
0
40
1
40
1
40
1
40
1
10
-66.66217071309255
20
53.03143230460406
30
0
10
-66.917253284948714
20
52.813824124929752
30
0
10
-67.198174001903936
20
52.561168272018165
30
0
10
-67.501798777508313
20
52.269394960902261
30
0
0
ARC
5
501
100
AcDbEntity
8
0
100
AcDbCircle
10
3.3850700020821023e-12
20
87.500000000005244
30
0
40
74.737913481696125
210
0
220
0
230
1
100
AcDbArc
50
138.56523691862535
51
139.54476308137504
0
ARC
5
502
100
AcDbEntity
8
0
100
AcDbCircle
10
-26.240427637067576
20
157.90700249128059
30
0
40
0.39999999999999325
210
-0
220
0
230
1
100
AcDbArc
50
-69.559710714362069
51
7.0319709305809166
0
ARC
5
503
100
AcDbEntity
8
0
100
AcDbCircle
10
-71.07209998222865
20
111.88160467439934
30
0
40
0.40000000000000591
210
-0
220
0
230
1
100
AcDbArc
50
-18.934710714359699
51
57.656970930570338
0
ARC
5
504
100
AcDbEntity
8
0
100
AcDbCircle
10
-61.676799032135492
20
130.41478187678945
30
0
40
0.39999999999999142
210
0
220
0
230
1
100
AcDbArc
50
248.57802906941987
51
325.1697107143678
0
SPLINE
5
505
100
AcDbEntity
8
0
100
AcDbSpline
70
0
71
3
72
8
73
4
74
0
42
0.000000001
43
0.0000000001
44
0.0000000001
40
0
40
0
40
0
40
0
40
1
40
1
40
1
40
1
10
-25.947354620028939
20
159.085076362633
30
0
10
-25.920728166393332
20
158.66482560248247
30
0
10
-25.884401963226182
20
158.28875135956136
30
0
10
-25.843436439357887
20
157.9559717565505
30
0
0
SPLINE
5
506
100
AcDbEntity
8
0
100
AcDbSpline
70
0
71
3
72
8
73
4
74
0
42
0.000000001
43
0.0000000001
44
0.0000000001
40
0
40
0
40
0
40
0
40
1
40
1
40
1
40
1
10
-62.962663703725177
20
46.663372537816684
30
0
10
-63.195188651792726
20
46.421809736764615
30
0
10
-63.44999205452244
20
46.142835445507316
30
0
10
-63.72355600826311
20
45.822706670396293
30
0
0
ARC
5
507
100
AcDbEntity
8
0
100
AcDbCircle
10
3.3106850594322168e-12
20
87.500000000005031
30
0
40
80.207190455425064
210
0
220
0
230
1
100
AcDbArc
50
197.43281369808852
51
198.80218630191084
0
SPLINE
5
508
100
AcDbEntity
8
0
100
AcDbSpline
70
0
71
3
72
8
73
4
74
0
42
0.000000001
43
0.0000000001
44
0.0000000001
40
0
40
0
40
0
40
0
40
1
40
1
40
1
40
1
10
14.118849141945809
20
12.677901202070061
30
0
10
14.635042652755821
20
11.663761652879936
30
0
10
15.37240703097342
20
10.41516247289797
30
0
10
16.41276070763087
20
8.9900344751946122
30
0
0
ARC
5
509
100
AcDbEntity
8
0
100
AcDbCircle
10
3.4128255776977312e-12
20
87.500000000005826
30
0
40
80.207190455425078
210
0
220
0
230
1
100
AcDbArc
50
152.43281369808926
51
153.80218630191101
0
SPLINE
5
510
100
AcDbEntity
8
0
100
AcDbSpline
70
0
71
3
72
8
73
4
74
0
42
0.000000001
43
0.0000000001
44
0.0000000001
40
0
40
0
40
0
40
0
40
1
40
1
40
1
40
1
10
-65.695084334983221
20
123.77785905168311
30
0
10
-66.017735207656273
20
123.86905583172089
30
0
10
-66.383882059901524
20
123.96226480025959
30
0
10
-66.795167589108388
20
124.05261900827122
30
0
0
ARC
5
511
100
AcDbEntity
8
0
100
AcDbCircle
10
3.0686564400639327e-12
20
87.500000000005699
30
0
40
80.207190455425149
210
0
220
0
230
1
100
AcDbArc
50
203.05781369808903
51
204.42718630191101
0
ARC
5
512
100
AcDbEntity
8
0
100
AcDbCircle
10
-27.440208812040865
20
157.44813065933189
30
0
40
0.4000000000000003
210
0
220
0
230
1
100
AcDbArc
50
214.82802906942251
51
291.41971071435654
0
ARC
5
513
100
AcDbEntity
8
0
100
AcDbCircle
10
74.901659795778656
20
93.453772100169175
30
0
40
0.40000000000002783
210
0
220
0
230
1
100
AcDbArc
50
107.95302906942206
51
184.5447107143857
0
ARC
5
514
100
AcDbEntity
8
0
100
AcDbCircle
10
3.2107649872159527e-12
20
87.500000000005699
30
0
40
80.207190455425092
210
-0
220
0
230
1
100
AcDbArc
50
354.93281369808875
51
356.30218630191098
0
ARC
5
515
100
AcDbEntity
8
0
100
AcDbCircle
10
3.0575542098176811e-12
20
87.500000000005798
30
0
40
80.207190455425092
210
0
220
-0
230
1
100
AcDbArc
50
17.432813698088587
51
18.802186301910599
0
ARC
5
516
100
AcDbEntity
8
0
100
AcDbCircle
10
2.9254376698872875e-12
20
87.500000000005457
30
0
40
80.207190455425078
210
0
220
-0
230
1
100
AcDbArc
50
79.307813698088694
51
80.677186301910709
0
SPLINE
5
517
100
AcDbEntity
8
0
100
AcDbSpline
70
0
71
3
72
8
73
4
74
0
42
0.000000001
43
0.0000000001
44
0.0000000001
40
0
40
0
40
0
40
0
40
1
40
1
40
1
40
1
10
22.764315004642583
20
159.01023091505644
30
0
10
22.790813401475241
20
159.34447375086782
30
0
10
22.810799678509845
20
159.721769361703
30
0
10
22.819179929416542
20
160.14277938632827
30
0
0
ARC
5
518
100
AcDbEntity
8
0
100
AcDbCircle
10
74.992494669548762
20
92.172449638146645
30
0
40
0.40000000000000563
210
0
220
0
230
1
100
AcDbArc
50
183.56528928564188
51
260.1569709305769
0
SPLINE
5
519
100
AcDbEntity
8
0
100
AcDbSpline
70
0
71
3
72
8
73
4
74
0
42
0.000000001
43
0.0000000001
44
0.0000000001
40
0
40
0
40
0
40
0
40
1
40
1
40
1
40
1
10
20.801119481523145
20
15.394240233743295
30
0
10
20.964782239958943
20
15.101605752133311
30
0
10
21.157778468370569
20
14.776792136279495
30
0
10
21.384711181882814
20
14.42207927637976
30
0
0
ARC
5
520
100
AcDbEntity
8
0
100
AcDbCircle
10
70.407002491278391
20
113.74042763707615
30
0
40
0.39999999999997432
210
0
220
0
230
1
100
AcDbArc
50
200.440289285652
51
277.03197093057651
0
ARC
5
521
100
AcDbEntity
8
0
100
AcDbCircle
10
73.119683561669518
20
70.202083413764072
30
0
40
0.40000000000002578
210
0
220
0
230
1
100
AcDbArc
50
166.69028928568355
51
243.28197093057585
0
ARC
5
522
100
AcDbEntity
8
0
100
AcDbCircle
10
73.957416115723916
20
100.76674955929492
30
0
40
0.40000000000000924
210
0
220
0
230
1
100
AcDbArc
50
113.57802906942423
51
190.16971071437987
0
SPLINE
5
523
100
AcDbEntity
8
0
100
AcDbSpline
70
0
71
3
72
8
73
4
74
0
42
0.000000001
43
0.0000000001
44
0.0000000001
40
0
40
0
40
0
40
0
40
1
40
1
40
1
40
1
10
47.722606502228039
20
28.168379440183081
30
0
10
48.655910610104456
20
27.5173201433022
30
0
10
49.894793513874589
20
26.763745137571625
30
0
10
51.48410423143865
20
25.997313780300161
30
0
0
ARC
5
524
100
AcDbEntity
8
0
100
AcDbCircle
10
2.907674101493285e-12
20
87.500000000005429
30
0
40
80.20719045542512
210
0
220
-0
230
1
100
AcDbArc
50
84.932813698088665
51
86.302186301910936
0
SPLINE
5
525
100
AcDbEntity
8
0
100
AcDbSpline
70
0
71
3
72
8
73
4
74
0
42
0.000000001
43
0.0000000001
44
0.0000000001
40
0
40
0
40
0
40
0
40
1
40
1
40
1
40
1
10
80.040205499891641
20
82.327099045176979
30
0
10
78.482563258026715
20
83.155999659684568
30
0
10
77.142428296940309
20
83.709844786583488
30
0
10
76.065609611480454
20
84.077807127697852
30
0
0
ARC
5
526
100
AcDbEntity
8
0
100
AcDbCircle
10
-46.563513166151658
20
146.47071547818237
30
0
40
0.39999999999997027
210
0
220
0
230
1
100
AcDbArc
50
231.7030290694174
51
308.29471071458761
0
ARC
5
527
100
AcDbEntity
8
0
100
AcDbCircle
10
-73.119683561663123
20
104.79791658624676
30
0
40
0.39999999999996716
210
-0
220
0
230
1
100
AcDbArc
50
-13.309710714368673
51
63.28197093056945
0
ARC
5
528
100
AcDbEntity
8
0
100
AcDbCircle
10
4.1788794646890892e-12
20
87.500000000006594
30
0
40
74.737913481694363
210
0
220
-0
230
1
100
AcDbArc
50
65.440236918625587
51
66.419763081374896
0
SPLINE
5
529
100
AcDbEntity
8
0
100
AcDbSpline
70
0
71
3
72
8
73
4
74
0
42
0.000000001
43
0.0000000001
44
0.0000000001
40
0
40
0
40
0
40
0
40
1
40
1
40
1
40
1
10
-73.077920723622441
20
66.115288818125777
30
0
10
-74.036581101904517
20
65.502177861653678
30
0
10
-75.206893587824212
20
64.645979973419799
30
0
10
-76.52318671237424
20
63.470948913134478
30
0
0
ARC
5
530
100
AcDbEntity
8
0
100
AcDbCircle
10
-60.934152974334481
20
131.46288256794895
30
0
40
0.3999999999999424
210
-0
220
0
230
1
100
AcDbArc
50
-35.809710714429201
51
40.781970930574204
0
SPLINE
5
531
100
AcDbEntity
8
0
100
AcDbSpline
70
0
71
3
72
8
73
4
74
0
42
0.000000001
43
0.0000000001
44
0.0000000001
40
0
40
0
40
0
40
0
40
1
40
1
40
1
40
1
10
75.271666961298337
20
98.983227877601493
30
0
10
74.85429663825046
20
99.039099899931642
30
0
10
74.478361665781279
20
99.076840139725789
30
0
10
74.143984352286665
20
99.10158383682365
30
0
0
SPLINE
5
532
100
AcDbEntity
8
0
100
AcDbSpline
70
0
71
3
72
8
73
4
74
0
42
0.000000001
43
0.0000000001
44
0.0000000001
40
0
40
0
40
0
40
0
40
1
40
1
40
1
40
1
10
73.797417071713951
20
101.13335603211824
30
0
10
74.104684193870128
20
101.26754751458932
30
0
10
74.446850681786316
20
101.42777711164386
30
0
10
74.822098797938537
20
101.61884914194803
30
0
0
ARC
5
533
100
AcDbEntity
8
0
100
AcDbCircle
10
3.0631053249408069e-12
20
87.500000000005599
30
0
40
74.737913481695642
210
0
220
0
230
1
100
AcDbArc
50
155.44023691862537
51
156.41976308137501
0
ARC
5
534
100
AcDbEntity
8
0
100
AcDbCircle
10
74.173405158316513
20
99.500500389717274
30
0
40
0.39999999999997649
210
0
220
0
230
1
100
AcDbArc
50
189.19028928563409
51
265.78197093057457
0
ARC
5
535
100
AcDbEntity
8
0
100
AcDbCircle
10
3.3739677718358507e-12
20
87.500000000005315
30
0
40
74.737913481695685
210
0
220
-0
230
1
100
AcDbArc
50
20.440236918625374
51
21.419763081374686
0
ARC
5
536
100
AcDbEntity
8
0
100
AcDbCircle
10
73.40470828441498
20
71.454600532768922
30
0
40
0.39999999999997543
210
0
220
0
230
1
100
AcDbArc
50
91.078029069428055
51
167.66971071429637
0
SPLINE
5
537
100
AcDbEntity
8
0
100
AcDbSpline
70
0
71
3
72
8
73
4
74
0
42
0.000000001
43
0.0000000001
44
0.0000000001
40
0
40
0
40
0
40
0
40
1
40
1
40
1
40
1
10
-66.795167589108388
20
124.05261900827122
30
0
10
-67.906577758387598
20
124.29695934766804
30
0
10
-69.339536986096462
20
124.51907190976138
30
0
10
-71.101169211327658
20
124.61895927332733
30
0
0
ARC
5
538
100
AcDbEntity
8
0
100
AcDbCircle
10
3.5793590313915047e-12
20
87.500000000005286
30
0
40
80.207190455424993
210
0
220
-0
230
1
100
AcDbArc
50
73.682813698089163
51
75.052186301911178
0
ARC
5
539
100
AcDbEntity
8
0
100
AcDbCircle
10
4.2454928461665986e-12
20
87.500000000005031
30
0
40
74.73791348169479
210
-0
220
0
230
1
100
AcDbArc
50
357.94023691862617
51
358.91976308137515
0
SPLINE
5
540
100
AcDbEntity
8
0
100
AcDbSpline
70
0
71
3
72
8
73
4
74
0
42
0.000000001
43
0.0000000001
44
0.0000000001
40
0
40
0
40
0
40
0
40
1
40
1
40
1
40
1
10
73.397182665780022
20
71.854529732833313
30
0
10
73.732413328059963
20
71.860920459966152
30
0
10
74.109851155124261
20
71.878011859151158
30
0
10
74.529655309636482
20
71.910938160107008
30
0
0
SPLINE
5
541
100
AcDbEntity
8
0
100
AcDbSpline
70
0
71
3
72
8
73
4
74
0
42
0.000000001
43
0.0000000001
44
0.0000000001
40
0
40
0
40
0
40
0
40
1
40
1
40
1
40
1
10
-72.642779386319717
20
110.31917992941877
30
0
10
-73.780502556333772
20
110.34199996989118
30
0
10
-75.229259885551272
20
110.2802882242153
30
0
10
-76.976529899465334
20
110.03457888200478
30
0
0
ARC
5
542
100
AcDbEntity
8
0
100
AcDbCircle
10
4.6724496381444087
20
12.507505330459823
30
0
40
0.40000000000001279
210
0
220
0
230
1
100
AcDbArc
50
93.565289285653662
51
170.15697093057614
0
ARC
5
543
100
AcDbEntity
8
0
100
AcDbCircle
10
3.2829294838165879e-12
20
87.50000000000567
30
0
40
80.207190455425049
210
-0
220
0
230
1
100
AcDbArc
50
338.05781369808869
51
339.42718630191092
0
SPLINE
5
544
100
AcDbEntity
8
0
100
AcDbSpline
70
0
71
3
72
8
73
4
74
0
42
0.000000001
43
0.0000000001
44
0.0000000001
40
0
40
0
40
0
40
0
40
1
40
1
40
1
40
1
10
25.355515332401168
20
159.29683984584724
30
0
10
25.109493599493284
20
158.9550899718497
30
0
10
24.898995160216497
20
158.64133555150295
30
0
10
24.719548793137321
20
158.35810518648526
30
0
0
SPLINE
5
545
100
AcDbEntity
8
0
100
AcDbSpline
70
0
71
3
72
8
73
4
74
0
42
0.000000001
43
0.0000000001
44
0.0000000001
40
0
40
0
40
0
40
0
40
1
40
1
40
1
40
1
10
76.065609611480454
20
84.077807127697852
30
0
10
75.667159032986035
20
84.214030495509022
30
0
10
75.30581030113386
20
84.324386842014135
30
0
10
74.982685209792251
20
84.413888873675006
30
0
0
ARC
5
546
100
AcDbEntity
8
0
100
AcDbCircle
10
3.1930014188219502e-12
20
87.500000000006267
30
0
40
74.737913481694974
210
0
220
0
230
1
100
AcDbArc
50
110.4402369186256
51
111.41976308137497
0
ARC
5
547
100
AcDbEntity
8
0
100
AcDbCircle
10
-51.18658739412858
20
142.50581163228387
30
0
40
0.39999999999994684
210
-0
220
0
230
1
100
AcDbArc
50
-47.059710714366929
51
29.531970930571443
0
SPLINE
5
548
100
AcDbEntity
8
0
100
AcDbSpline
70
0
71
3
72
8
73
4
74
0
42
0.000000001
43
0.0000000001
44
0.0000000001
40
0
40
0
40
0
40
0
40
1
40
1
40
1
40
1
10
66.662170713098959
20
121.96856769540672
30
0
10
66.917253284955081
20
122.18617587508101
30
0
10
67.198174001910289
20
122.43883172799265
30
0
10
67.501798777514693
20
122.73060503910854
30
0
0
ARC
5
549
100
AcDbEntity
8
0
100
AcDbCircle
10
2.8665958495821542e-12
20
87.500000000005372
30
0
40
80.207190455425078
210
-0
220
0
230
1
100
AcDbArc
50
276.18281369808898
51
277.55218630191104
0
ARC
5
550
100
AcDbEntity
8
0
100
AcDbCircle
10
5.4656279502296456e-12
20
87.50000000000405
30
0
40
74.737913481693226
210
-0
220
0
230
1
100
AcDbArc
50
329.81523691862532
51
330.79476308137475
0
ARC
5
551
100
AcDbEntity
8
0
100
AcDbCircle
10
3.2018832030189515e-12
20
87.500000000005414
30
0
40
80.207190455425035
210
0
220
0
230
1
100
AcDbArc
50
90.557813698088879
51
91.927186301911092
0
ARC
5
552
100
AcDbEntity
8
0
100
AcDbCircle
10
3.0120350658080497e-12
20
87.500000000005528
30
0
40
80.207190455425049
210
0
220
-0
230
1
100
AcDbArc
50
56.807813698088708
51
58.177186301910979
0
SPLINE
5
553
100
AcDbEntity
8
0
100
AcDbSpline
70
0
71
3
72
8
73
4
74
0
42
0.000000001
43
0.0000000001
44
0.0000000001
40
0
40
0
40
0
40
0
40
1
40
1
40
1
40
1
10
-25.850923252027158
20
163.42709113202798
30
0
10
-26.020643684743014
20
161.67081081354479
30
0
10
-26.019482414925044
20
160.22074019803381
30
0
10
-25.947354620028939
20
159.085076362633
30
0
0
ARC
5
554
100
AcDbEntity
8
0
100
AcDbCircle
10
45.548597627412306
20
27.741893465752096
30
0
40
0.39999999999997704
210
0
220
0
230
1
100
AcDbArc
50
127.31528928563895
51
203.90697093057489
0
SPLINE
5
555
100
AcDbEntity
8
0
100
AcDbSpline
70
0
71
3
72
8
73
4
74
0
42
0.000000001
43
0.0000000001
44
0.0000000001
40
0
40
0
40
0
40
0
40
1
40
1
40
1
40
1
10
75.09208723899971
20
59.315397202666503
30
0
10
73.842133696477234
20
60.56076531045963
30
0
10
72.72047725079949
20
61.479782696794388
30
0
10
71.796839845845057
20
62.144484667607422
30
0
0
ARC
5
556
100
AcDbEntity
8
0
100
AcDbCircle
10
3.8180569816859133e-12
20
87.500000000005855
30
0
40
74.737913481695202
210
0
220
-0
230
1
100
AcDbArc
50
3.5652369186249295
51
4.5447630813742057
0
ARC
5
557
100
AcDbEntity
8
0
100
AcDbCircle
10
2.9409807922320397e-12
20
87.500000000005528
30
0
40
80.207190455425064
210
0
220
-0
230
1
100
AcDbArc
50
68.05781369808868
51
69.427186301910936
0
SPLINE
5
558
100
AcDbEntity
8
0
100
AcDbSpline
70
0
71
3
72
8
73
4
74
0
42
0.000000001
43
0.0000000001
44
0.0000000001
40
0
40
0
40
0
40
0
40
1
40
1
40
1
40
1
10
74.778364908990284
20
93.83429591137137
30
0
10
75.097305521337034
20
93.937723780545099
30
0
10
75.453529630989735
20
94.063643647632375
30
0
10
75.845699158904281
20
94.21701486662613
30
0
0
ARC
5
559
100
AcDbEntity
8
0
100
AcDbCircle
10
2.8355096048926498e-12
20
87.500000000005187
30
0
40
80.207190455425064
210
0
220
0
230
1
100
AcDbArc
50
118.68281369808855
51
120.05218630191079
0
SPLINE
5
560
100
AcDbEntity
8
0
100
AcDbSpline
70
0
71
3
72
8
73
4
74
0
42
0.000000001
43
0.0000000001
44
0.0000000001
40
0
40
0
40
0
40
0
40
1
40
1
40
1
40
1
10
71.796839845845057
20
62.144484667607422
30
0
10
71.455089971847485
20
62.390506400515314
30
0
10
71.141335551500731
20
62.601004839792182
30
0
10
70.858105186483044
20
62.780451206871362
30
0
0
ARC
5
561
100
AcDbEntity
8
0
100
AcDbCircle
10
-56.331622342810789
20
137.22378069505476
30
0
40
0.39999999999993879
210
-0
220
0
230
1
100
AcDbArc
50
-41.434710714363895
51
35.156970930578396
0
SPLINE
5
562
100
AcDbEntity
8
0
100
AcDbSpline
70
0
71
3
72
8
73
4
74
0
42
0.000000001
43
0.0000000001
44
0.0000000001
40
0
40
0
40
0
40
0
40
1
40
1
40
1
40
1
10
71.967924146669048
20
52.090802116226875
30
0
10
70.846056892684359
20
53.452690307970137
30
0
10
69.81988098549418
20
54.477223931634185
30
0
10
68.965843333450863
20
55.229257477911332
30
0
0
ARC
5
563
100
AcDbEntity
8
0
100
AcDbCircle
10
23.163056075914781
20
158.97852037925605
30
0
40
0.39999999999998326
210
0
220
0
230
1
100
AcDbArc
50
175.45302906942433
51
252.04471071438496
0
SPLINE
5
564
100
AcDbEntity
8
0
100
AcDbSpline
70
0
71
3
72
8
73
4
74
0
42
0.000000001
43
0.0000000001
44
0.0000000001
40
0
40
0
40
0
40
0
40
1
40
1
40
1
40
1
10
73.936393542378738
20
69.303899330689063
30
0
10
73.572174940715712
20
69.515239056351106
30
0
10
73.23929887859893
20
69.693970577059616
30
0
10
72.939843525459892
20
69.84479143040015
30
0
0
SPLINE
5
565
100
AcDbEntity
8
0
100
AcDbSpline
70
0
71
3
72
8
73
4
74
0
42
0.000000001
43
0.0000000001
44
0.0000000001
40
0
40
0
40
0
40
0
40
1
40
1
40
1
40
1
10
-18.805846540062067
20
161.28366015272786
30
0
10
-18.820540077809717
20
160.86282316601125
30
0
10
-18.821250517082511
20
160.48499923280789
30
0
10
-18.81310035845582
20
160.14980673104165
30
0
0
ARC
5
566
100
AcDbEntity
8
0
100
AcDbCircle
10
3.2795988147427124e-12
20
87.500000000005485
30
0
40
80.207190455425078
210
0
220
0
230
1
100
AcDbArc
50
141.18281369808901
51
142.55218630191123
0
ARC
5
567
100
AcDbEntity
8
0
100
AcDbCircle
10
3.2585045772748344e-12
20
87.500000000007319
30
0
40
74.737913481697774
210
-0
220
0
230
1
100
AcDbArc
50
279.19023691862498
51
280.16976308137436
0
SPLINE
5
568
100
AcDbEntity
8
0
100
AcDbSpline
70
0
71
3
72
8
73
4
74
0
42
0.000000001
43
0.0000000001
44
0.0000000001
40
0
40
0
40
0
40
0
40
1
40
1
40
1
40
1
10
75.363899351355414
20
76.638552390216688
30
0
10
74.980719646262969
20
76.813174791544924
30
0
10
74.631927720822944
20
76.958418111435961
30
0
10
74.319131298312328
20
77.079160963773063
30
0
0
ARC
5
569
100
AcDbEntity
8
0
100
AcDbCircle
10
-69.948130659323269
20
60.059791187961444
30
0
40
0.39999999999999514
210
-0
220
0
230
1
100
AcDbArc
50
-55.171970930577814
51
21.419710714462795
0
SPLINE
5
570
100
AcDbEntity
8
0
100
AcDbSpline
70
0
71
3
72
8
73
4
74
0
42
0.000000001
43
0.0000000001
44
0.0000000001
40
0
40
0
40
0
40
0
40
1
40
1
40
1
40
1
10
-39.414339075861164
20
152.64751142472304
30
0
10
-39.306237385940705
20
152.2405302285031
30
0
10
-39.197240735428096
20
151.87876903738089
30
0
10
-39.092140272702274
20
151.56037567837222
30
0
0
ARC
5
571
100
AcDbEntity
8
0
100
AcDbCircle
10
2.9676261448230434e-12
20
87.500000000005812
30
0
40
80.207190455425092
210
0
220
-0
230
1
100
AcDbArc
50
28.682813698088584
51
30.052186301910805
0
SPLINE
5
572
100
AcDbEntity
8
0
100
AcDbSpline
70
0
71
3
72
8
73
4
74
0
42
0.000000001
43
0.0000000001
44
0.0000000001
40
0
40
0
40
0
40
0
40
1
40
1
40
1
40
1
10
18.805846540068444
20
13.716339847282962
30
0
10
18.820540077816091
20
14.13717683399967
30
0
10
18.821250517088881
20
14.51500076720291
30
0
10
18.813100358462187
20
14.850193268969132
30
0
0
SPLINE
5
573
100
AcDbEntity
8
0
100
AcDbSpline
70
0
71
3
72
8
73
4
74
0
42
0.000000001
43
0.0000000001
44
0.0000000001
40
0
40
0
40
0
40
0
40
1
40
1
40
1
40
1
10
-70.629962324289323
20
59.055373236942572
30
0
10
-71.523911108163162
20
58.351249428479655
30
0
10
-72.604666151023352
20
57.384463683938478
30
0
10
-73.799447780071688
20
56.086071431473208
30
0
0
ARC
5
574
100
AcDbEntity
8
0
100
AcDbCircle
10
3.5726976932437537e-12
20
87.500000000005201
30
0
40
80.207190455425092
210
0
220
-0
230
1
100
AcDbArc
50
62.43281369808917
51
63.802186301911426
0
SPLINE
5
575
100
AcDbEntity
8
0
100
AcDbSpline
70
0
71
3
72
8
73
4
74
0
42
0.000000001
43
0.0000000001
44
0.0000000001
40
0
40
0
40
0
40
0
40
1
40
1
40
1
40
1
10
-61.822892546092874
20
130.04241554482644
30
0
10
-62.135050919038015
20
130.164798503306
30
0
10
-62.490298597562386
20
130.29344731258226
30
0
10
-62.890747413444274
20
130.42367947181771
30
0
0
ARC
5
576
100
AcDbEntity
8
0
100
AcDbCircle
10
3.4949820815199928e-12
20
87.500000000005429
30
0
40
80.207190455425078
210
0
220
0
230
1
100
AcDbArc
50
96.182813698089106
51
97.552186301911419
0
ARC
5
577
100
AcDbEntity
8
0
100
AcDbCircle
10
-67.495961852074785
20
54.484834150874583
30
0
40
0.39999999999995955
210
0
220
-0
230
1
100
AcDbArc
50
26.065289285560354
51
102.65697093057392
0
ARC
5
578
100
AcDbEntity
8
0
100
AcDbCircle
10
2.3714363805993344e-12
20
87.500000000006963
30
0
40
74.737913481697618
210
-0
220
0
230
1
100
AcDbArc
50
307.31523691862503
51
308.29476308137441
0
ARC
5
579
100
AcDbEntity
8
0
100
AcDbCircle
10
24.381604674397153
20
158.57209998223723
30
0
40
0.40000000000002583
210
0
220
0
230
1
100
AcDbArc
50
251.06528928563617
51
327.65697093057662
0
SPLINE
5
580
100
AcDbEntity
8
0
100
AcDbSpline
70
0
71
3
72
8
73
4
74
0
42
0.000000001
43
0.0000000001
44
0.0000000001
40
0
40
0
40
0
40
0
40
1
40
1
40
1
40
1
10
75.845699158904281
20
94.21701486662613
30
0
10
76.905551160758804
20
94.631319706084781
30
0
10
78.220412342146062
20
95.242749352239372
30
0
10
79.740650451330737
20
96.138406470647695
30
0
0
SPLINE
5
581
100
AcDbEntity
8
0
100
AcDbSpline
70
0
71
3
72
8
73
4
74
0
42
0.000000001
43
0.0000000001
44
0.0000000001
40
0
40
0
40
0
40
0
40
1
40
1
40
1
40
1
10
62.96266370373155
20
128.33662746219409
30
0
10
63.1951886517991
20
128.57819026324617
30
0
10
63.449992054528806
20
128.85716455450341
30
0
10
63.723556008269512
20
129.17729332961454
30
0
0
ARC
5
582
100
AcDbEntity
8
0
100
AcDbCircle
10
2.9110047705671604e-12
20
87.500000000005372
30
0
40
80.207190455425064
210
-0
220
0
230
1
100
AcDbArc
50
281.80781369808909
51
283.17718630191104
0
SPLINE
5
583
100
AcDbEntity
8
0
100
AcDbSpline
70
0
71
3
72
8
73
4
74
0
42
0.000000001
43
0.0000000001
44
0.0000000001
40
0
40
0
40
0
40
0
40
1
40
1
40
1
40
1
10
46.778262319917943
20
22.346430833903199
30
0
10
46.430853382362443
20
24.076353552546795
30
0
10
46.008808835813241
20
25.463647515354893
30
0
10
45.610121029620728
20
26.529472453619775
30
0
0
ARC
5
584
100
AcDbEntity
8
0
100
AcDbCircle
10
69.948130659329649
20
114.94020881204945
30
0
40
0.39999999999999514
210
0
220
0
230
1
100
AcDbArc
50
124.8280290694228
51
201.41971071438235
0
ARC
5
585
100
AcDbEntity
8
0
100
AcDbCircle
10
3.4849900742983664e-12
20
87.500000000005457
30
0
40
80.20719045542512
210
0
220
0
230
1
100
AcDbArc
50
101.80781369808899
51
103.17718630191099
0
ARC
5
586
100
AcDbEntity
8
0
100
AcDbCircle
10
3.2851499298658382e-12
20
87.500000000005599
30
0
40
80.207190455425078
210
-0
220
0
230
1
100
AcDbArc
50
326.80781369808898
51
328.17718630191007
0
SPLINE
5
587
100
AcDbEntity
8
0
100
AcDbSpline
70
0
71
3
72
8
73
4
74
0
42
0.000000001
43
0.0000000001
44
0.0000000001
40
0
40
0
40
0
40
0
40
1
40
1
40
1
40
1
10
75.69876991026122
20
79.291187436988253
30
0
10
76.819084017628867
20
79.490764656797907
30
0
10
78.227964516665537
20
79.833929162465139
30
0
10
79.893725712508257
20
80.415792738226401
30
0
0
ARC
5
588
100
AcDbEntity
8
0
100
AcDbCircle
10
4.0822900615467006e-12
20
87.500000000003695
30
0
40
74.737913481697802
210
0
220
0
230
1
100
AcDbArc
50
121.69023691862519
51
122.66976308137453
0
SPLINE
5
589
100
AcDbEntity
8
0
100
AcDbSpline
70
0
71
3
72
8
73
4
74
0
42
0.000000001
43
0.0000000001
44
0.0000000001
40
0
40
0
40
0
40
0
40
1
40
1
40
1
40
1
10
36.552619008268877
20
154.295167589117
30
0
10
36.796959347665783
20
155.40657775839617
30
0
10
37.019071909759056
20
156.83953698610514
30
0
10
37.118959273325146
20
158.60116921133624
30
0
0
SPLINE
5
590
100
AcDbEntity
8
0
100
AcDbSpline
70
0
71
3
72
8
73
4
74
0
42
0.000000001
43
0.0000000001
44
0.0000000001
40
0
40
0
40
0
40
0
40
1
40
1
40
1
40
1
10
10.861447609791814
20
162.86389935135762
30
0
10
10.686825208463677
20
162.48071964626521
30
0
10
10.541581888572527
20
162.13192772082519
30
0
10
10.420839036235531
20
161.81913129831455
30
0
0
ARC
5
591
100
AcDbEntity
8
0
100
AcDbCircle
10
-75.124559546581565
20
88.916543438954889
30
0
40
0.39999999999999625
210
-0
220
0
230
1
100
AcDbArc
50
282.32802906942766
51
358.91971071424234
0
SPLINE
5
592
100
AcDbEntity
8
0
100
AcDbSpline
70
0
71
3
72
8
73
4
74
0
42
0.000000001
43
0.0000000001
44
0.0000000001
40
0
40
0
40
0
40
0
40
1
40
1
40
1
40
1
10
32.270742522097166
20
156.46584333345305
30
0
10
31.992408105720635
20
156.14985342522704
30
0
10
31.752169962915868
20
155.85824227323383
30
0
10
31.545826248708273
20
155.5939645595821
30
0
0
ARC
5
593
100
AcDbEntity
8
0
100
AcDbCircle
10
3.4694469519536142e-12
20
87.500000000006551
30
0
40
74.737913481694676
210
0
220
-0
230
1
100
AcDbArc
50
76.690236918625303
51
77.669763081374199
0
ARC
5
594
100
AcDbEntity
8
0
100
AcDbCircle
10
-74.62396872169542
20
96.273216890389676
30
0
40
0.40000000000000313
210
-0
220
0
230
1
100
AcDbArc
50
276.70302906941413
51
353.29471071439718
0
ARC
5
595
100
AcDbEntity
8
0
100
AcDbCircle
10
1.4344081478157023e-12
20
87.500000000006565
30
0
40
74.737913481693795
210
0
220
0
230
1
100
AcDbArc
50
127.31523691862481
51
128.29476308137299
0
SPLINE
5
596
100
AcDbEntity
8
0
100
AcDbSpline
70
0
71
3
72
8
73
4
74
0
42
0.000000001
43
0.0000000001
44
0.0000000001
40
0
40
0
40
0
40
0
40
1
40
1
40
1
40
1
10
-33.168600337095391
20
160.52764786319929
30
0
10
-33.165357945103587
20
158.76318900301948
30
0
10
-33.022070492108881
20
157.32021469821365
30
0
10
-32.838975490738072
20
156.19708915478267
30
0
0
ARC
5
597
100
AcDbEntity
8
0
100
AcDbCircle
10
3.1930014188219502e-12
20
87.500000000005414
30
0
40
80.207190455425092
210
0
220
0
230
1
100
AcDbArc
50
180.55781369808906
51
181.92718630191106
0
ARC
5
598
100
AcDbEntity
8
0
100
AcDbCircle
10
1.4165434389526621
20
162.62455954659015
30
0
40
0.39999999999997671
210
0
220
0
230
1
100
AcDbArc
50
192.32802906942814
51
268.9197107143749
0
ARC
5
599
100
AcDbEntity
8
0
100
AcDbCircle
10
-68.340053228003256
20
118.73048458119672
30
0
40
0.39999999999998992
210
-0
220
0
230
1
100
AcDbArc
50
-24.559710714363749
51
52.031970930571127
0
SPLINE
5
600
100
AcDbEntity
8
0
100
AcDbSpline
70
0
71
3
72
8
73
4
74
0
42
0.000000001
43
0.0000000001
44
0.0000000001
40
0
40
0
40
0
40
0
40
1
40
1
40
1
40
1
10
-52.939178732967122
20
147.75476542010682
30
0
10
-52.423880586529847
20
146.06722478277359
30
0
10
-51.86788971279779
20
144.72797861912684
30
0
10
-51.36665258482406
20
143.70636415790656
30
0
0
SPLINE
5
601
100
AcDbEntity
8
0
100
AcDbSpline
70
0
71
3
72
8
73
4
74
0
42
0.000000001
43
0.0000000001
44
0.0000000001
40
0
40
0
40
0
40
0
40
1
40
1
40
1
40
1
10
0.74950793376381109
20
163.63886397549524
30
0
10
0.44108174774252884
20
164.73422147586231
30
0
10
-0.038524764615159857
20
166.10268182670185
30
0
10
-0.78085965710807725
20
167.70338932332965
30
0
0
ARC
5
602
100
AcDbEntity
8
0
100
AcDbCircle
10
3.1763480734525729e-12
20
87.50000000000513
30
0
40
80.207190455425135
210
0
220
0
230
1
100
AcDbArc
50
174.93281369808869
51
176.30218630191098
0
SPLINE
5
603
100
AcDbEntity
8
0
100
AcDbSpline
70
0
71
3
72
8
73
4
74
0
42
0.000000001
43
0.0000000001
44
0.0000000001
40
0
40
0
40
0
40
0
40
1
40
1
40
1
40
1
10
-76.138863975486743
20
88.249507933766026
30
0
10
-77.234221475853786
20
87.941081747744775
30
0
10
-78.602681826693299
20
87.46147523538707
30
0
10
-80.203389323321019
20
86.71914034289415
30
0
0
SPLINE
5
604
100
AcDbEntity
8
0
100
AcDbSpline
70
0
71
3
72
8
73
4
74
0
42
0.000000001
43
0.0000000001
44
0.0000000001
40
0
40
0
40
0
40
0
40
1
40
1
40
1
40
1
10
-53.308324886390643
20
141.86828917142969
30
0
10
-54.300949850354812
20
142.42473364013165
30
0
10
-55.607730461407776
20
143.0532482168058
30
0
10
-57.26451162336253
20
143.66020930597438
30
0
0
SPLINE
5
605
100
AcDbEntity
8
0
100
AcDbSpline
70
0
71
3
72
8
73
4
74
0
42
0.000000001
43
0.0000000001
44
0.0000000001
40
0
40
0
40
0
40
0
40
1
40
1
40
1
40
1
10
-79.147757074389361
20
100.49330407732809
30
0
10
-77.67886177351744
20
99.515719207636778
30
0
10
-76.399466244088927
20
98.833184799863844
30
0
10
-75.363899351349033
20
98.361447609794013
30
0
0
ARC
5
606
100
AcDbEntity
8
0
100
AcDbCircle
10
3.0264679651281767e-12
20
87.500000000005031
30
0
40
74.737913481695685
210
0
220
0
230
1
100
AcDbArc
50
177.94023691862509
51
178.91976308137549
0
ARC
5
607
100
AcDbEntity
8
0
100
AcDbCircle
10
-74.46308461711385
20
97.547640105365446
30
0
40
0.39999999999992553
210
-0
220
0
230
1
100
AcDbArc
50
-7.6847107143942885
51
68.906970930584961
0
SPLINE
5
608
100
AcDbEntity
8
0
100
AcDbSpline
70
0
71
3
72
8
73
4
74
0
42
0.000000001
43
0.0000000001
44
0.0000000001
40
0
40
0
40
0
40
0
40
1
40
1
40
1
40
1
10
-74.577279424446644
20
95.875951098353141
30
0
10
-74.910269458661645
20
95.836732793450849
30
0
10
-75.284214569352045
20
95.782728317563311
30
0
10
-75.698769910254811
20
95.708812563022576
30
0
0
SPLINE
5
609
100
AcDbEntity
8
0
100
AcDbSpline
70
0
71
3
72
8
73
4
74
0
42
0.000000001
43
0.0000000001
44
0.0000000001
40
0
40
0
40
0
40
0
40
1
40
1
40
1
40
1
10
-75.039156214174255
20
88.525766941691145
30
0
10
-75.366698744264056
20
88.454098752734339
30
0
10
-75.733549842745276
20
88.363701292769122
30
0
10
-76.138863975486743
20
88.249507933766026
30
0
0
SPLINE
5
610
100
AcDbEntity
8
0
100
AcDbSpline
70
0
71
3
72
8
73
4
74
0
42
0.000000001
43
0.0000000001
44
0.0000000001
40
0
40
0
40
0
40
0
40
1
40
1
40
1
40
1
10
-76.065609611474088
20
90.922192872312962
30
0
10
-75.667159032979669
20
90.785969504501793
30
0
10
-75.30581030112748
20
90.675613157996665
30
0
10
-74.98268520978587
20
90.586111126335837
30
0
0
ARC
5
611
100
AcDbEntity
8
0
100
AcDbCircle
10
-75.08936546203914
20
90.20059935767091
30
0
40
0.39999999999997071
210
-0
220
0
230
1
100
AcDbArc
50
-2.0597107143638764
51
74.53197093057257
0
LWPOLYLINE
5
612
100
AcDbEntity
8
0
100
AcDbPolyline
90
4
70
1
43
0.0
10
8.4393687059097608
20
99.900687716643205
42
0.023272583934260297
10
7.2503311128603709
20
100.63136317195872
42
0.2961152523119161
10
-33.822388493642556
20
148.2148749202787
42
-0.2837178052467263
10
39.102408337391765
20
144.95651975377424
42
-0.4248116679665998
0
LWPOLYLINE
5
613
100
AcDbEntity
8
0
100
AcDbPolyline
90
4
70
1
43
0.0
10
0.46134865325050178
20
72.507096431306451
42
0.42481166796659958
10
2.1375820933813543
20
18.032880131719473
42
0.28371780524672513
10
63.050195154630671
20
58.260935532014848
42
-0.29611525231191604
10
1.8527805298248072
20
72.614866332198972
42
-0.023272583934260564
0
LWPOLYLINE
5
614
100
AcDbEntity
8
0
100
AcDbPolyline
90
4
70
1
43
0.0
10
-13.584062700123143
20
81.138141736952306
42
0.29611525231191599
10
-8.3244209912132696
20
18.500333224275487
42
-0.28371780524672574
10
-65.406607825258106
20
64.000518031393568
42
-0.42481166796659997
10
-14.116534063004265
20
82.42816935929099
42
0.023272583934259104
0
LWPOLYLINE
5
615
100
AcDbEntity
8
0
100
AcDbPolyline
90
4
70
1
43
0.0
10
-9.1858465075325935
20
99.358339847552045
42
0.42481166796659992
10
-42.5610888182255
20
142.4436412936663
42
0.28371780524672657
10
-68.194970263863397
20
74.094925188170222
42
-0.29611525231191593
10
-10.248192983810533
20
98.453289029627797
42
-0.023272583934260564
0
CIRCLE
5
616
100
AcDbEntity
8
0
100
AcDbCircle
10
1.4876988529977098e-13
20
87.499999999999829
30
0
40
2.9249999999999998
210
0
220
-0
230
1
0
LWPOLYLINE
5
617
100
AcDbEntity
8
0
100
AcDbPolyline
90
4
70
1
43
0.0
10
66.727706212711098
20
68.066440789445736
42
0.28371780524672541
10
47.291584594089159
20
138.42893113526031
42
-0.29611525231191588
10
14.72914404124937
20
84.66233972926122
42
-0.023272583934260897
10
14.401663211377222
20
83.30570664520657
42
0.4248116679665998
0
ENDSEC
0
SECTION
2
OBJECTS
0
DICTIONARY
5
C
100
AcDbDictionary
3
ACAD_GROUP
350
D
3
ACAD_MLINESTYLE
350
17
0
DICTIONARY
5
D
100
AcDbDictionary
0
DICTIONARY
5
1A
330
C
100
AcDbDictionary
0
DICTIONARY
5
17
100
AcDbDictionary
0
ENDSEC
0
EOF
