0
SECTION
2
HEADER
9
$INSUNITS
70
4
9
$ACADVER
1
AC1014
9
$HANDSEED
5
FFFF
0
ENDSEC
0
SECTION
2
TABLES
0
TABLE
2
VPORT
5
8
100
AcDbSymbolTable
0
ENDTAB
0
TABLE
2
LTYPE
5
5
100
AcDbSymbolTable
0
LTYPE
5
14
100
AcDbSymbolTableRecord
100
AcDbLinetypeTableRecord
2
BYBLOCK
70
0
0
LTYPE
5
15
100
AcDbSymbolTableRecord
100
AcDbLinetypeTableRecord
2
BYLAYER
70
0
0
ENDTAB
0
TABLE
2
LAYER
5
2
100
AcDbSymbolTable
70
2
0
LAYER
5
50
100
AcDbSymbolTableRecord
100
AcDbLayerTableRecord
2
0
70
0
6
CONTINUOUS
0
ENDTAB
0
TABLE
2
STYLE
5
3
100
AcDbSymbolTable
70
1
0
STYLE
5
11
100
AcDbSymbolTableRecord
100
AcDbTextStyleTableRecord
2
STANDARD
70
0
0
ENDTAB
0
TABLE
2
VIEW
5
6
100
AcDbSymbolTable
70
0
0
ENDTAB
0
TABLE
2
UCS
5
7
100
AcDbSymbolTable
70
0
0
ENDTAB
0
TABLE
2
APPID
5
9
100
AcDbSymbolTable
70
2
0
APPID
5
12
100
AcDbSymbolTableRecord
100
AcDbRegAppTableRecord
2
ACAD
70
0
0
ENDTAB
0
TABLE
2
DIMSTYLE
5
A
100
AcDbSymbolTable
70
1
0
ENDTAB
0
TABLE
2
BLOCK_RECORD
5
1
100
AcDbSymbolTable
70
1
0
BLOCK_RECORD
5
1F
100
AcDbSymbolTableRecord
100
AcDbBlockTableRecord
2
*MODEL_SPACE
0
BLOCK_RECORD
5
1B
100
AcDbSymbolTableRecord
100
AcDbBlockTableRecord
2
*PAPER_SPACE
0
ENDTAB
0
ENDSEC
0
SECTION
2
BLOCKS
0
BLOCK
5
20
100
AcDbEntity
100
AcDbBlockBegin
2
*MODEL_SPACE
0
ENDBLK
5
21
100
AcDbEntity
100
AcDbBlockEnd
0
BLOCK
5
1C
100
AcDbEntity
100
AcDbBlockBegin
2
*PAPER_SPACE
0
ENDBLK
5
1D
100
AcDbEntity
100
AcDbBlockEnd
0
ENDSEC
0
SECTION
2
ENTITIES
0
LINE
5
100
100
AcDbEntity
8
0
100
AcDbLine
10
0
20
-50
30
0
11
0
21
-54.000000804662704
31
0
0
LINE
5
101
100
AcDbEntity
8
0
100
AcDbLine
10
0
20
-54.000000804662704
30
0
11
5.2264231633826501
21
-49.726094768413667
31
0
0
LINE
5
102
100
AcDbEntity
8
0
100
AcDbLine
10
5.2264231633826732
20
-49.726094768413667
30
0
11
5.6445371005634426
21
-53.704183150141432
31
0
0
LINE
5
103
100
AcDbEntity
8
0
100
AcDbLine
10
5.6445371005634426
20
-53.704183150141432
30
0
11
10.395584540887942
21
-48.907380036690284
31
0
0
LINE
5
104
100
AcDbEntity
8
0
100
AcDbLine
10
10.395584540887963
20
-48.907380036690284
30
0
11
11.227231471457786
21
-52.819971226704403
31
0
0
LINE
5
105
100
AcDbEntity
8
0
100
AcDbLine
10
11.227231471457786
20
-52.819971226704403
30
0
11
15.450849718747346
21
-47.552825814757682
31
0
0
LINE
5
106
100
AcDbEntity
8
0
100
AcDbLine
10
15.450849718747373
20
-47.552825814757675
30
0
11
16.686917944901612
21
-51.357052645217998
31
0
0
LINE
5
107
100
AcDbEntity
8
0
100
AcDbLine
10
16.686917944901612
20
-51.357052645217998
30
0
11
20.336832153789992
21
-45.677272882130055
31
0
0
LINE
5
108
100
AcDbEntity
8
0
100
AcDbLine
10
20.336832153790013
20
-45.67727288213004
30
0
11
21.963779053379021
21
-49.331455447796408
31
0
0
LINE
5
109
100
AcDbEntity
8
0
100
AcDbLine
10
21.963779053379021
20
-49.331455447796408
30
0
11
24.999999999999979
21
-43.301270189221945
31
0
0
LINE
5
110
100
AcDbEntity
8
0
100
AcDbLine
10
24.999999999999996
20
-43.301270189221938
30
0
11
27.000000402331349
21
-46.765372501218032
31
0
0
LINE
5
111
100
AcDbEntity
8
0
100
AcDbLine
10
27.000000402331349
20
-46.765372501218032
30
0
11
29.389262614623632
21
-40.450849718747378
31
0
0
LINE
5
112
100
AcDbEntity
8
0
100
AcDbLine
10
29.38926261462365
20
-40.450849718747371
30
0
11
31.740404096762415
21
-43.686918347232968
31
0
0
LINE
5
113
100
AcDbEntity
8
0
100
AcDbLine
10
31.740404096762415
20
-43.686918347232968
30
0
11
33.456530317942885
21
-37.15724127386973
31
0
0
LINE
5
114
100
AcDbEntity
8
0
100
AcDbLine
10
33.456530317942907
20
-37.157241273869708
30
0
11
36.133053281802781
21
-40.12982117376022
31
0
0
LINE
5
115
100
AcDbEntity
8
0
100
AcDbLine
10
36.133053281802781
20
-40.12982117376022
30
0
11
37.157241273869694
21
-33.456530317942928
31
0
0
LINE
5
116
100
AcDbEntity
8
0
100
AcDbLine
10
37.157241273869708
20
-33.456530317942914
30
0
11
40.129821173760206
21
-36.133053281802788
31
0
0
LINE
5
117
100
AcDbEntity
8
0
100
AcDbLine
10
40.129821173760206
20
-36.133053281802788
30
0
11
40.450849718747357
21
-29.389262614623675
31
0
0
LINE
5
118
100
AcDbEntity
8
0
100
AcDbLine
10
40.450849718747364
20
-29.389262614623661
30
0
11
43.686918347232961
21
-31.740404096762418
31
0
0
LINE
5
119
100
AcDbEntity
8
0
100
AcDbLine
10
43.686918347232961
20
-31.740404096762418
30
0
11
43.30127018922191
21
-25.000000000000021
31
0
0
LINE
5
120
100
AcDbEntity
8
0
100
AcDbLine
10
43.301270189221924
20
-25.000000000000004
30
0
11
46.765372501218032
21
-27.000000402331356
31
0
0
LINE
5
121
100
AcDbEntity
8
0
100
AcDbLine
10
46.765372501218032
20
-27.000000402331356
30
0
11
45.677272882130033
21
-20.336832153790034
31
0
0
LINE
5
122
100
AcDbEntity
8
0
100
AcDbLine
10
45.677272882130033
20
-20.336832153790027
30
0
11
49.331455447796401
21
-21.963779053379035
31
0
0
LINE
5
123
100
AcDbEntity
8
0
100
AcDbLine
10
49.331455447796401
20
-21.963779053379035
30
0
11
47.552825814757668
21
-15.450849718747408
31
0
0
LINE
5
124
100
AcDbEntity
8
0
100
AcDbLine
10
47.552825814757682
20
-15.450849718747373
30
0
11
51.357052645218005
21
-16.686917944901612
31
0
0
LINE
5
125
100
AcDbEntity
8
0
100
AcDbLine
10
51.357052645218005
20
-16.686917944901612
30
0
11
48.907380036690277
21
-10.39558454088799
31
0
0
LINE
5
126
100
AcDbEntity
8
0
100
AcDbLine
10
48.907380036690277
20
-10.395584540887977
30
0
11
52.819971226704396
21
-11.227231471457797
31
0
0
LINE
5
127
100
AcDbEntity
8
0
100
AcDbLine
10
52.819971226704396
20
-11.227231471457797
30
0
11
49.72609476841366
21
-5.2264231633827052
31
0
0
LINE
5
128
100
AcDbEntity
8
0
100
AcDbLine
10
49.726094768413667
20
-5.2264231633826874
30
0
11
53.704183150141446
21
-5.6445371005634577
31
0
0
LINE
5
129
100
AcDbEntity
8
0
100
AcDbLine
10
53.704183150141446
20
-5.6445371005634577
30
0
11
50
21
-3.6637359812630166e-14
31
0
0
LINE
5
130
100
AcDbEntity
8
0
100
AcDbLine
10
50.000000000000007
20
1.1102230246251565e-14
30
0
11
54.000000804662712
21
1.1990408844622703e-14
31
0
0
LINE
5
131
100
AcDbEntity
8
0
100
AcDbLine
10
54.000000804662712
20
1.1990408844622703e-14
30
0
11
49.726094768413674
21
5.2264231633826617
31
0
0
LINE
5
132
100
AcDbEntity
8
0
100
AcDbLine
10
49.726094768413667
20
5.2264231633826537
30
0
11
53.704183150141432
21
5.6445371005634222
31
0
0
LINE
5
133
100
AcDbEntity
8
0
100
AcDbLine
10
53.704183150141432
20
5.6445371005634222
30
0
11
48.907380036690284
21
10.395584540887924
31
0
0
LINE
5
134
100
AcDbEntity
8
0
100
AcDbLine
10
48.907380036690277
20
10.395584540887947
30
0
11
52.819971226704396
21
11.227231471457767
31
0
0
LINE
5
135
100
AcDbEntity
8
0
100
AcDbLine
10
52.819971226704396
20
11.227231471457767
30
0
11
47.552825814757682
21
15.450849718747328
31
0
0
LINE
5
136
100
AcDbEntity
8
0
100
AcDbLine
10
47.552825814757682
20
15.450849718747373
30
0
11
51.357052645218005
21
16.686917944901612
31
0
0
LINE
5
137
100
AcDbEntity
8
0
100
AcDbLine
10
51.357052645218005
20
16.686917944901612
30
0
11
45.677272882130062
21
20.336832153789992
31
0
0
LINE
5
138
100
AcDbEntity
8
0
100
AcDbLine
10
45.677272882130055
20
20.336832153789999
30
0
11
49.331455447796415
21
21.963779053379003
31
0
0
LINE
5
139
100
AcDbEntity
8
0
100
AcDbLine
10
49.331455447796415
20
21.963779053379003
30
0
11
43.301270189221952
21
24.999999999999964
31
0
0
LINE
5
140
100
AcDbEntity
8
0
100
AcDbLine
10
43.301270189221945
20
24.999999999999993
30
0
11
46.765372501218039
21
27.000000402331338
31
0
0
LINE
5
141
100
AcDbEntity
8
0
100
AcDbLine
10
46.765372501218039
20
27.000000402331338
30
0
11
40.450849718747392
21
29.389262614623629
31
0
0
LINE
5
142
100
AcDbEntity
8
0
100
AcDbLine
10
40.450849718747364
20
29.389262614623647
30
0
11
43.686918347232961
21
31.740404096762408
31
0
0
LINE
5
143
100
AcDbEntity
8
0
100
AcDbLine
10
43.686918347232961
20
31.740404096762408
30
0
11
37.157241273869715
21
33.456530317942878
31
0
0
LINE
5
144
100
AcDbEntity
8
0
100
AcDbLine
10
37.157241273869722
20
33.456530317942907
30
0
11
40.129821173760227
21
36.133053281802773
31
0
0
LINE
5
145
100
AcDbEntity
8
0
100
AcDbLine
10
40.129821173760227
20
36.133053281802773
30
0
11
33.456530317942935
21
37.157241273869687
31
0
0
LINE
5
146
100
AcDbEntity
8
0
100
AcDbLine
10
33.456530317942921
20
37.157241273869708
30
0
11
36.133053281802802
21
40.12982117376022
31
0
0
LINE
5
147
100
AcDbEntity
8
0
100
AcDbLine
10
36.133053281802802
20
40.12982117376022
30
0
11
29.389262614623686
21
40.450849718747357
31
0
0
LINE
5
148
100
AcDbEntity
8
0
100
AcDbLine
10
29.389262614623661
20
40.450849718747364
30
0
11
31.740404096762418
21
43.686918347232947
31
0
0
LINE
5
149
100
AcDbEntity
8
0
100
AcDbLine
10
31.740404096762418
20
43.686918347232947
30
0
11
25.000000000000021
21
43.30127018922191
31
0
0
LINE
5
150
100
AcDbEntity
8
0
100
AcDbLine
10
25.000000000000018
20
43.301270189221917
30
0
11
27.00000040233137
21
46.76537250121801
31
0
0
LINE
5
151
100
AcDbEntity
8
0
100
AcDbLine
10
27.00000040233137
20
46.76537250121801
30
0
11
20.336832153790052
21
45.677272882130026
31
0
0
LINE
5
152
100
AcDbEntity
8
0
100
AcDbLine
10
20.33683215379002
20
45.677272882130033
30
0
11
21.963779053379028
21
49.331455447796401
31
0
0
LINE
5
153
100
AcDbEntity
8
0
100
AcDbLine
10
21.963779053379028
20
49.331455447796401
30
0
11
15.450849718747403
21
47.552825814757668
31
0
0
LINE
5
154
100
AcDbEntity
8
0
100
AcDbLine
10
15.450849718747378
20
47.552825814757682
30
0
11
16.686917944901619
21
51.357052645218005
31
0
0
LINE
5
155
100
AcDbEntity
8
0
100
AcDbLine
10
16.686917944901619
20
51.357052645218005
30
0
11
10.395584540887997
21
48.907380036690277
31
0
0
LINE
5
156
100
AcDbEntity
8
0
100
AcDbLine
10
10.395584540887985
20
48.907380036690277
30
0
11
11.227231471457808
21
52.819971226704389
31
0
0
LINE
5
157
100
AcDbEntity
8
0
100
AcDbLine
10
11.227231471457808
20
52.819971226704389
30
0
11
5.2264231633827158
21
49.72609476841366
31
0
0
LINE
5
158
100
AcDbEntity
8
0
100
AcDbLine
10
5.2264231633826865
20
49.726094768413645
30
0
11
5.6445371005634577
21
53.704183150141425
31
0
0
LINE
5
159
100
AcDbEntity
8
0
100
AcDbLine
10
5.6445371005634577
20
53.704183150141425
30
0
11
3.7747582837255322e-14
21
49.999999999999986
31
0
0
LINE
5
160
100
AcDbEntity
8
0
100
AcDbLine
10
6.1232339957367661e-15
20
50
30
0
11
6.6130928139384676e-15
21
54.000000804662704
31
0
0
LINE
5
161
100
AcDbEntity
8
0
100
AcDbLine
10
6.6130928139384676e-15
20
54.000000804662704
30
0
11
-5.2264231633826439
21
49.726094768413667
31
0
0
LINE
5
162
100
AcDbEntity
8
0
100
AcDbLine
10
-5.2264231633826519
20
49.726094768413645
30
0
11
-5.6445371005634204
21
53.704183150141425
31
0
0
LINE
5
163
100
AcDbEntity
8
0
100
AcDbLine
10
-5.6445371005634204
20
53.704183150141425
30
0
11
-10.395584540887919
21
48.90738003669027
31
0
0
LINE
5
164
100
AcDbEntity
8
0
100
AcDbLine
10
-10.395584540887954
20
48.907380036690292
30
0
11
-11.227231471457772
21
52.819971226704411
31
0
0
LINE
5
165
100
AcDbEntity
8
0
100
AcDbLine
10
-11.227231471457772
20
52.819971226704411
30
0
11
-15.450849718747335
21
47.552825814757696
31
0
0
LINE
5
166
100
AcDbEntity
8
0
100
AcDbLine
10
-15.450849718747367
20
47.552825814757682
30
0
11
-16.686917944901609
21
51.357052645218005
31
0
0
LINE
5
167
100
AcDbEntity
8
0
100
AcDbLine
10
-16.686917944901609
20
51.357052645218005
30
0
11
-20.336832153789985
21
45.677272882130062
31
0
0
LINE
5
168
100
AcDbEntity
8
0
100
AcDbLine
10
-20.336832153789992
20
45.677272882130062
30
0
11
-21.963779053379
21
49.331455447796422
31
0
0
LINE
5
169
100
AcDbEntity
8
0
100
AcDbLine
10
-21.963779053379
20
49.331455447796422
30
0
11
-24.999999999999961
21
43.301270189221967
31
0
0
LINE
5
170
100
AcDbEntity
8
0
100
AcDbLine
10
-24.999999999999993
20
43.301270189221945
30
0
11
-27.000000402331338
21
46.765372501218039
31
0
0
LINE
5
171
100
AcDbEntity
8
0
100
AcDbLine
10
-27.000000402331338
20
46.765372501218039
30
0
11
-29.389262614623629
21
40.450849718747392
31
0
0
LINE
5
172
100
AcDbEntity
8
0
100
AcDbLine
10
-29.38926261462365
20
40.450849718747378
30
0
11
-31.740404096762415
21
43.686918347232975
31
0
0
LINE
5
173
100
AcDbEntity
8
0
100
AcDbLine
10
-31.740404096762415
20
43.686918347232975
30
0
11
-33.456530317942892
21
37.157241273869737
31
0
0
LINE
5
174
100
AcDbEntity
8
0
100
AcDbLine
10
-33.456530317942892
20
37.157241273869737
30
0
11
-36.133053281802773
21
40.129821173760234
31
0
0
LINE
5
175
100
AcDbEntity
8
0
100
AcDbLine
10
-36.133053281802773
20
40.129821173760234
30
0
11
-37.15724127386968
21
33.456530317942949
31
0
0
LINE
5
176
100
AcDbEntity
8
0
100
AcDbLine
10
-37.157241273869708
20
33.456530317942921
30
0
11
-40.129821173760206
21
36.133053281802802
31
0
0
LINE
5
177
100
AcDbEntity
8
0
100
AcDbLine
10
-40.129821173760206
20
36.133053281802802
30
0
11
-40.450849718747357
21
29.389262614623689
31
0
0
LINE
5
178
100
AcDbEntity
8
0
100
AcDbLine
10
-40.450849718747364
20
29.389262614623668
30
0
11
-43.686918347232961
21
31.740404096762433
31
0
0
LINE
5
179
100
AcDbEntity
8
0
100
AcDbLine
10
-43.686918347232961
20
31.740404096762433
30
0
11
-43.30127018922191
21
25.000000000000032
31
0
0
LINE
5
180
100
AcDbEntity
8
0
100
AcDbLine
10
-43.301270189221917
20
25.000000000000007
30
0
11
-46.76537250121801
21
27.000000402331366
31
0
0
LINE
5
181
100
AcDbEntity
8
0
100
AcDbLine
10
-46.76537250121801
20
27.000000402331366
30
0
11
-45.677272882130026
21
20.336832153790041
31
0
0
LINE
5
182
100
AcDbEntity
8
0
100
AcDbLine
10
-45.677272882130033
20
20.336832153790052
30
0
11
-49.331455447796401
21
21.963779053379064
31
0
0
LINE
5
183
100
AcDbEntity
8
0
100
AcDbLine
10
-49.331455447796401
20
21.963779053379064
30
0
11
-47.552825814757668
21
15.450849718747435
31
0
0
LINE
5
184
100
AcDbEntity
8
0
100
AcDbLine
10
-47.552825814757675
20
15.450849718747373
30
0
11
-51.357052645217998
21
16.686917944901612
31
0
0
LINE
5
185
100
AcDbEntity
8
0
100
AcDbLine
10
-51.357052645217998
20
16.686917944901612
30
0
11
-48.90738003669027
21
10.395584540887992
31
0
0
LINE
5
186
100
AcDbEntity
8
0
100
AcDbLine
10
-48.907380036690277
20
10.395584540887992
30
0
11
-52.819971226704396
21
11.227231471457815
31
0
0
LINE
5
187
100
AcDbEntity
8
0
100
AcDbLine
10
-52.819971226704396
20
11.227231471457815
30
0
11
-49.72609476841366
21
5.2264231633827229
31
0
0
LINE
5
188
100
AcDbEntity
8
0
100
AcDbLine
10
-49.72609476841366
20
5.2264231633827096
30
0
11
-53.704183150141425
21
5.6445371005634826
31
0
0
LINE
5
189
100
AcDbEntity
8
0
100
AcDbLine
10
-53.704183150141425
20
5.6445371005634826
30
0
11
-49.999999999999993
21
6.106226635438361e-14
31
0
0
LINE
5
190
100
AcDbEntity
8
0
100
AcDbLine
10
-50
20
1.1102230246251565e-14
30
0
11
-54.000000804662704
21
1.1990408844622703e-14
31
0
0
LINE
5
191
100
AcDbEntity
8
0
100
AcDbLine
10
-54.000000804662704
20
1.1990408844622703e-14
30
0
11
-49.726094768413667
21
-5.2264231633826386
31
0
0
LINE
5
192
100
AcDbEntity
8
0
100
AcDbLine
10
-49.726094768413667
20
-5.2264231633826537
30
0
11
-53.704183150141446
21
-5.6445371005634222
31
0
0
LINE
5
193
100
AcDbEntity
8
0
100
AcDbLine
10
-53.704183150141446
20
-5.6445371005634222
30
0
11
-48.907380036690284
21
-10.395584540887924
31
0
0
LINE
5
194
100
AcDbEntity
8
0
100
AcDbLine
10
-48.907380036690292
20
-10.395584540887931
30
0
11
-52.819971226704403
21
-11.227231471457749
31
0
0
LINE
5
195
100
AcDbEntity
8
0
100
AcDbLine
10
-52.819971226704403
20
-11.227231471457749
30
0
11
-47.552825814757696
21
-15.450849718747314
31
0
0
LINE
5
196
100
AcDbEntity
8
0
100
AcDbLine
10
-47.552825814757682
20
-15.450849718747355
30
0
11
-51.357052645218005
21
-16.686917944901595
31
0
0
LINE
5
197
100
AcDbEntity
8
0
100
AcDbLine
10
-51.357052645218005
20
-16.686917944901595
30
0
11
-45.677272882130062
21
-20.33683215378997
31
0
0
LINE
5
198
100
AcDbEntity
8
0
100
AcDbLine
10
-45.677272882130062
20
-20.336832153789985
30
0
11
-49.331455447796422
21
-21.963779053378993
31
0
0
LINE
5
199
100
AcDbEntity
8
0
100
AcDbLine
10
-49.331455447796422
20
-21.963779053378993
30
0
11
-43.301270189221967
21
-24.999999999999957
31
0
0
LINE
5
200
100
AcDbEntity
8
0
100
AcDbLine
10
-43.301270189221952
20
-24.999999999999964
30
0
11
-46.765372501218046
21
-27.000000402331317
31
0
0
LINE
5
201
100
AcDbEntity
8
0
100
AcDbLine
10
-46.765372501218046
20
-27.000000402331317
30
0
11
-40.450849718747399
21
-29.389262614623604
31
0
0
LINE
5
202
100
AcDbEntity
8
0
100
AcDbLine
10
-40.450849718747371
20
-29.38926261462365
30
0
11
-43.686918347232968
21
-31.740404096762415
31
0
0
LINE
5
203
100
AcDbEntity
8
0
100
AcDbLine
10
-43.686918347232968
20
-31.740404096762415
30
0
11
-37.15724127386973
21
-33.456530317942885
31
0
0
LINE
5
204
100
AcDbEntity
8
0
100
AcDbLine
10
-37.15724127386973
20
-33.456530317942892
30
0
11
-40.129821173760234
21
-36.133053281802759
31
0
0
LINE
5
205
100
AcDbEntity
8
0
100
AcDbLine
10
-40.129821173760234
20
-36.133053281802759
30
0
11
-33.456530317942949
21
-37.157241273869673
31
0
0
LINE
5
206
100
AcDbEntity
8
0
100
AcDbLine
10
-33.456530317942935
20
-37.157241273869687
30
0
11
-36.133053281802816
21
-40.129821173760185
31
0
0
LINE
5
207
100
AcDbEntity
8
0
100
AcDbLine
10
-36.133053281802816
20
-40.129821173760185
30
0
11
-29.389262614623703
21
-40.450849718747328
31
0
0
LINE
5
208
100
AcDbEntity
8
0
100
AcDbLine
10
-29.389262614623664
20
-40.450849718747364
30
0
11
-31.740404096762425
21
-43.686918347232961
31
0
0
LINE
5
209
100
AcDbEntity
8
0
100
AcDbLine
10
-31.740404096762425
20
-43.686918347232961
30
0
11
-25.000000000000028
21
-43.30127018922191
31
0
0
LINE
5
210
100
AcDbEntity
8
0
100
AcDbLine
10
-25.000000000000021
20
-43.301270189221917
30
0
11
-27.000000402331374
21
-46.76537250121801
31
0
0
LINE
5
211
100
AcDbEntity
8
0
100
AcDbLine
10
-27.000000402331374
20
-46.76537250121801
30
0
11
-20.336832153790056
21
-45.677272882130026
31
0
0
LINE
5
212
100
AcDbEntity
8
0
100
AcDbLine
10
-20.336832153790048
20
-45.677272882130026
30
0
11
-21.963779053379056
21
-49.331455447796387
31
0
0
LINE
5
213
100
AcDbEntity
8
0
100
AcDbLine
10
-21.963779053379056
20
-49.331455447796387
30
0
11
-15.450849718747431
21
-47.552825814757654
31
0
0
LINE
5
214
100
AcDbEntity
8
0
100
AcDbLine
10
-15.450849718747381
20
-47.552825814757675
30
0
11
-16.686917944901623
21
-51.357052645217998
31
0
0
LINE
5
215
100
AcDbEntity
8
0
100
AcDbLine
10
-16.686917944901623
20
-51.357052645217998
30
0
11
-10.395584540887999
21
-48.90738003669027
31
0
0
LINE
5
216
100
AcDbEntity
8
0
100
AcDbLine
10
-10.395584540887992
20
-48.907380036690277
30
0
11
-11.227231471457815
21
-52.819971226704396
31
0
0
LINE
5
217
100
AcDbEntity
8
0
100
AcDbLine
10
-11.227231471457815
20
-52.819971226704396
30
0
11
-5.2264231633827229
21
-49.72609476841366
31
0
0
LINE
5
218
100
AcDbEntity
8
0
100
AcDbLine
10
-5.226423163382715
20
-49.726094768413667
30
0
11
-5.6445371005634879
21
-53.704183150141432
31
0
0
LINE
5
219
100
AcDbEntity
8
0
100
AcDbLine
10
-5.6445371005634879
20
-53.704183150141432
30
0
11
-6.5503158452884236e-14
21
-50
31
0
0
CIRCLE
5
220
100
AcDbEntity
8
0
100
AcDbCircle
10
0
20
0
30
0
40
1.905
210
0
220
0
230
1
0
LWPOLYLINE
5
221
100
AcDbEntity
8
0
100
AcDbPolyline
90
4
70
1
43
0.0
10
-0.22211591449646351
20
-45.999463741662552
42
0.35837465853047717
10
6.6613381477509392e-15
20
-15.000000000000004
42
-0.17273431782952978
10
-9.4806348138733476
20
-11.624008066324318
42
-0.24753101848153758
10
-41.175397157177812
20
-20.508209793852664
42
0.28319225445651997
0
LWPOLYLINE
5
222
100
AcDbEntity
8
0
100
AcDbPolyline
90
4
70
1
43
0.0
10
6.7805690902858418
20
-45.49751512788211
42
0.24753101848153797
10
8.1254113419955392
20
-12.608635553594622
42
0.17273431782952964
10
14.265847744427303
20
-4.6352549156242251
42
-0.35837465853047723
10
43.679452145290284
20
-14.425860816162658
42
-0.2831922544565198
0
LWPOLYLINE
5
223
100
AcDbEntity
8
0
100
AcDbPolyline
90
4
70
1
43
0.0
10
45.36601931804141
20
-7.6108009588409864
42
0.24753101848153766
10
14.502415195800486
20
3.8314427424424946
42
0.17273431782952955
10
8.8167787843871004
20
12.135254915624206
42
-0.35837465853047723
10
27.21750195026037
20
37.083791440298739
42
-0.2831922544565198
0
LWPOLYLINE
5
224
100
AcDbEntity
8
0
100
AcDbPolyline
90
4
70
1
43
0.0
10
21.257172782548075
20
40.793781453708078
42
0.24753101848153763
10
0.83757416797212381
20
14.976597394373188
42
0.17273431782952947
10
-8.8167787843870986
20
12.135254915624207
42
-0.35837465853047717
10
-26.858110851162813
20
37.344904357979686
42
-0.2831922544565198
0
LWPOLYLINE
5
225
100
AcDbEntity
8
0
100
AcDbPolyline
90
4
70
1
43
0.0
10
-32.228364033697517
20
32.822744426867686
42
0.24753101848153763
10
-13.984765891894801
20
5.4246034831032546
42
0.17273431782952955
10
-14.265847744427305
20
-4.6352549156241993
42
-0.35837465853047723
10
-43.816727329891378
20
-14.003371240453211
42
-0.2831922544565198
0
ENDSEC
0
SECTION
2
OBJECTS
0
DICTIONARY
5
C
100
AcDbDictionary
3
ACAD_GROUP
350
D
3
ACAD_MLINESTYLE
350
17
0
DICTIONARY
5
D
100
AcDbDictionary
0
DICTIONARY
5
1A
330
C
100
AcDbDictionary
0
DICTIONARY
5
17
100
AcDbDictionary
0
ENDSEC
0
EOF
