M48
; DRILL file {KiCad (5.1.6)-1} date 11/17/22 17:52:02
; FORMAT={-:-/ absolute / metric / decimal}
; #@! TF.CreationDate,2022-11-17T17:52:02-05:00
; #@! TF.GenerationSoftware,Kicad,Pcbnew,(5.1.6)-1
FMAT,2
METRIC
T1C0.800
T2C0.900
T3C3.000
%
G90
G05
T1
X12.7Y27.94
X20.32Y27.94
X50.8Y39.37
X53.34Y39.37
X99.06Y3.81
X101.6Y3.81
X104.14Y3.81
X106.68Y3.81
X71.12Y3.81
X73.66Y3.81
X76.2Y3.81
X78.74Y3.81
X15.24Y12.7
X22.86Y12.7
X71.12Y39.37
X73.66Y39.37
X76.2Y39.37
X78.74Y39.37
X66.04Y25.4
X66.04Y17.78
X68.58Y25.4
X68.58Y17.78
X71.12Y25.4
X71.12Y17.78
X73.66Y25.4
X73.66Y17.78
X76.2Y25.4
X76.2Y17.78
X78.74Y25.4
X78.74Y17.78
X81.28Y25.4
X81.28Y17.78
X83.82Y25.4
X83.82Y17.78
X12.7Y15.24
X20.32Y15.24
X35.56Y39.37
X38.1Y39.37
X40.64Y39.37
X43.18Y39.37
X45.72Y39.37
X116.84Y12.7
X116.84Y10.16
X43.18Y3.81
X45.72Y3.81
X48.26Y3.81
X99.06Y38.735
X101.6Y38.735
X104.14Y38.735
X106.68Y38.735
X17.78Y30.48
X25.4Y30.48
X57.15Y36.83
X57.15Y34.29
X5.08Y39.37
X7.62Y39.37
X93.98Y25.4
X93.98Y17.78
X96.52Y25.4
X96.52Y17.78
X99.06Y25.4
X99.06Y17.78
X101.6Y25.4
X101.6Y17.78
X104.14Y25.4
X104.14Y17.78
X106.68Y25.4
X106.68Y17.78
X109.22Y25.4
X109.22Y17.78
X111.76Y25.4
X111.76Y17.78
T2
X19.05Y19.05
X48.26Y36.83
X49.53Y17.78
X52.07Y17.78
X53.975Y36.83
X54.61Y17.78
X54.61Y3.81
X57.15Y17.78
X59.69Y6.35
X62.498Y34.925
X63.5Y25.4
X65.543Y32.882
X66.04Y27.94
X67.31Y10.16
X68.58Y12.7
X74.93Y30.48
X74.93Y8.255
X81.28Y33.02
X81.28Y12.7
X86.36Y30.48
X86.36Y17.78
X86.36Y8.255
X88.9Y30.48
X88.9Y8.255
X90.805Y25.4
X93.98Y32.385
X93.98Y27.94
X93.98Y15.24
X96.52Y34.925
X96.52Y10.16
X102.87Y30.48
X102.87Y8.255
X109.22Y6.35
X114.935Y32.385
X5.08Y34.29
X5.08Y8.89
X7.62Y34.29
X7.62Y8.89
X10.16Y34.29
X10.16Y8.89
X12.7Y34.29
X12.7Y8.89
X15.24Y34.29
X15.24Y8.89
X17.78Y34.29
X17.78Y8.89
X20.32Y34.29
X20.32Y8.89
X22.86Y34.29
X22.86Y8.89
X25.4Y34.29
X25.4Y8.89
X27.94Y34.29
X27.94Y8.89
X30.48Y34.29
X30.48Y8.89
X33.02Y34.29
X33.02Y8.89
X35.56Y34.29
X35.56Y8.89
X38.1Y34.29
X38.1Y8.89
X40.64Y34.29
X40.64Y8.89
X43.18Y34.29
X43.18Y8.89
X45.72Y34.29
X45.72Y8.89
X48.26Y34.29
X48.26Y8.89
X50.8Y34.29
X50.8Y8.89
X27.26Y5.68
X27.26Y5.08
X28.52Y2.89
X33.02Y2.89
X34.27Y5.68
X34.27Y5.08
T3
X13.97Y39.37
X13.97Y3.81
X116.84Y39.37
X116.84Y3.81
T0
M30
