0
SECTION
2
HEADER
9
$INSUNITS
70
4
9
$ACADVER
1
AC1014
9
$HANDSEED
5
FFFF
0
ENDSEC
0
SECTION
2
TABLES
0
TABLE
2
VPORT
5
8
100
AcDbSymbolTable
0
ENDTAB
0
TABLE
2
LTYPE
5
5
100
AcDbSymbolTable
0
LTYPE
5
14
100
AcDbSymbolTableRecord
100
AcDbLinetypeTableRecord
2
BYBLOCK
70
0
0
LTYPE
5
15
100
AcDbSymbolTableRecord
100
AcDbLinetypeTableRecord
2
BYLAYER
70
0
0
ENDTAB
0
TABLE
2
LAYER
5
2
100
AcDbSymbolTable
70
2
0
LAYER
5
50
100
AcDbSymbolTableRecord
100
AcDbLayerTableRecord
2
0
70
0
6
CONTINUOUS
0
ENDTAB
0
TABLE
2
STYLE
5
3
100
AcDbSymbolTable
70
1
0
STYLE
5
11
100
AcDbSymbolTableRecord
100
AcDbTextStyleTableRecord
2
STANDARD
70
0
0
ENDTAB
0
TABLE
2
VIEW
5
6
100
AcDbSymbolTable
70
0
0
ENDTAB
0
TABLE
2
UCS
5
7
100
AcDbSymbolTable
70
0
0
ENDTAB
0
TABLE
2
APPID
5
9
100
AcDbSymbolTable
70
2
0
APPID
5
12
100
AcDbSymbolTableRecord
100
AcDbRegAppTableRecord
2
ACAD
70
0
0
ENDTAB
0
TABLE
2
DIMSTYLE
5
A
100
AcDbSymbolTable
70
1
0
ENDTAB
0
TABLE
2
BLOCK_RECORD
5
1
100
AcDbSymbolTable
70
1
0
BLOCK_RECORD
5
1F
100
AcDbSymbolTableRecord
100
AcDbBlockTableRecord
2
*MODEL_SPACE
0
BLOCK_RECORD
5
1B
100
AcDbSymbolTableRecord
100
AcDbBlockTableRecord
2
*PAPER_SPACE
0
ENDTAB
0
ENDSEC
0
SECTION
2
BLOCKS
0
BLOCK
5
20
100
AcDbEntity
100
AcDbBlockBegin
2
*MODEL_SPACE
0
ENDBLK
5
21
100
AcDbEntity
100
AcDbBlockEnd
0
BLOCK
5
1C
100
AcDbEntity
100
AcDbBlockBegin
2
*PAPER_SPACE
0
ENDBLK
5
1D
100
AcDbEntity
100
AcDbBlockEnd
0
ENDSEC
0
SECTION
2
ENTITIES
0
SPLINE
5
100
100
AcDbEntity
8
0
100
AcDbSpline
70
4
71
5
72
16
73
10
74
0
42
0.000000001
43
0.0000000001
44
0.0000000001
40
0
40
0
40
0
40
0
40
0
40
0
40
0.20000000000000001
40
0.40000000000000002
40
0.60000000000000009
40
0.80000000000000004
40
1
40
1
40
1
40
1
40
1
40
1
41
1
41
1
41
1
41
1
41
1
41
1
41
1
41
1
41
1
41
1
10
75
20
225
30
0
10
75
20
212.89259949736018
30
0
10
74.001944479854785
20
189.5439048985657
30
0
10
69.513504711728274
20
157.11705029125594
30
0
10
58.472392406259871
20
118.53518806927651
30
0
10
39.775139136324036
20
76.729612132727738
30
0
10
23.464588079766507
20
48.287725198938595
30
0
10
11.507471283947247
20
30.232837716330955
30
0
10
3.7929346725173079
20
19.808660415545493
30
0
10
1.1102230246251565e-15
20
15.000000000000002
30
0
0
SPLINE
5
101
100
AcDbEntity
8
0
100
AcDbSpline
70
0
71
3
72
20
73
16
74
0
42
0.000000001
43
0.0000000001
44
0.0000000001
40
0
40
0
40
0
40
0
40
0.18935939500211837
40
0.18935939500211837
40
0.18935939500211837
40
0.50951577005253523
40
0.50951577005253523
40
0.50951577005253523
40
0.75475788502626762
40
0.75475788502626762
40
0.75475788502626762
40
0.9750194724700838
40
0.9750194724700838
40
0.9750194724700838
40
1
40
1
40
1
40
1
10
99.999999999999972
20
225.00004793809944
30
0
10
100.0000014708057
20
204.59383435474888
30
0
10
98.357719210920195
20
185.32648701568371
30
0
10
95.312332072605258
20
167.32159648914904
30
0
10
90.163392370843042
20
136.88011517743251
30
0
10
81.099727919891237
20
110.05143170211929
30
0
10
70.751476234785798
20
86.415240237737777
30
0
10
62.824640078122968
20
68.309745434655426
30
0
10
54.165867048321566
20
52.043860606258846
30
0
10
45.507120372493866
20
37.556158236002709
30
0
10
37.730359483378422
20
24.544183017847587
30
0
10
29.955086503825569
20
12.988255310864647
30
0
10
22.249710487421218
20
2.8954709096609159
30
0
10
21.375820673314429
20
1.7508179471824292
30
0
10
20.50228494611034
20
0.62484317017341273
30
0
10
19.628786134314449
20
-0.48257368368439191
30
0
0
SPLINE
5
102
100
AcDbEntity
8
0
100
AcDbSpline
70
4
71
5
72
16
73
10
74
0
42
0.000000001
43
0.0000000001
44
0.0000000001
40
0
40
0
40
0
40
0
40
0
40
0
40
0.20000000000000001
40
0.40000000000000002
40
0.60000000000000009
40
0.80000000000000004
40
1
40
1
40
1
40
1
40
1
40
1
41
1
41
1
41
1
41
1
41
1
41
1
41
1
41
1
41
1
41
1
10
19.628786134314449
20
-0.48257368368439213
30
0
10
18.336642407066044
20
-2.1207461938673746
30
0
10
16.033644493835254
20
-5.8354889961343943
30
0
10
13.422241339378953
20
-12.7215784670334
30
0
10
11.380297859626829
20
-24.138213437057114
30
0
10
10.328723066388614
20
-40.674700107194084
30
0
10
10.081925777176629
20
-54.701004035796075
30
0
10
10.014886026103099
20
-65.28592663134026
30
0
10
10.000000000000004
20
-72.326980458891285
30
0
10
10.000000000000002
20
-75.843589050097066
30
0
0
SPLINE
5
103
100
AcDbEntity
8
0
100
AcDbSpline
70
0
71
3
72
20
73
16
74
0
42
0.000000001
43
0.0000000001
44
0.0000000001
40
0
40
0
40
0
40
0
40
0.18935939500211837
40
0.18935939500211837
40
0.18935939500211837
40
0.50951577005253523
40
0.50951577005253523
40
0.50951577005253523
40
0.75475788502626762
40
0.75475788502626762
40
0.75475788502626762
40
0.9750194724700838
40
0.9750194724700838
40
0.9750194724700838
40
1
40
1
40
1
40
1
10
-99.999999999999972
20
225
30
0
10
-99.999999999999972
20
204.59378641664938
30
0
10
-98.357716351394117
20
185.32643919595401
30
0
10
-95.312327915352114
20
167.32154888891984
30
0
10
-90.163386019478622
20
136.88006794832029
30
0
10
-81.099719634812857
20
110.05138512628309
30
0
10
-70.751466246096697
20
86.415194407766023
30
0
10
-62.824628784455626
20
68.309700176021266
30
0
10
-54.165854582268395
20
52.043815971717613
30
0
10
-45.5071068622198
20
37.556114225552498
30
0
10
-37.730345035248497
20
24.544139567918073
30
0
10
-29.955071222786408
20
12.988212421348573
30
0
10
-22.24969447893087
20
2.8954285755203668
30
0
10
-21.375804582321649
20
1.7507756760286843
30
0
10
-20.502268773961401
20
0.62480096198095081
30
0
10
-19.628769882346933
20
-0.48261582891823146
30
0
0
SPLINE
5
104
100
AcDbEntity
8
0
100
AcDbSpline
70
4
71
5
72
16
73
10
74
0
42
0.000000001
43
0.0000000001
44
0.0000000001
40
0
40
0
40
0
40
0
40
0
40
0
40
0.20000000000000001
40
0.40000000000000002
40
0.60000000000000009
40
0.80000000000000004
40
1
40
1
40
1
40
1
40
1
40
1
41
1
41
1
41
1
41
1
41
1
41
1
41
1
41
1
41
1
41
1
10
-74.999999999999972
20
225
30
0
10
-74.999999999999972
20
212.89259949736018
30
0
10
-74.001944479854728
20
189.5439048985657
30
0
10
-69.513504711728274
20
157.11705029125594
30
0
10
-58.472392406259821
20
118.53518806927651
30
0
10
-39.775139136323972
20
76.729612132727738
30
0
10
-23.46458807976644
20
48.287725198938595
30
0
10
-11.507471283947236
20
30.232837716330955
30
0
10
-3.7929346725172963
20
19.808660415545493
30
0
10
9.9788295002658743e-15
20
15
30
0
0
SPLINE
5
105
100
AcDbEntity
8
0
100
AcDbSpline
70
4
71
5
72
16
73
10
74
0
42
0.000000001
43
0.0000000001
44
0.0000000001
40
0
40
0
40
0
40
0
40
0
40
0
40
0.20000000000000001
40
0.40000000000000002
40
0.60000000000000009
40
0.80000000000000004
40
1
40
1
40
1
40
1
40
1
40
1
41
1
41
1
41
1
41
1
41
1
41
1
41
1
41
1
41
1
41
1
10
-19.628769882346933
20
-0.48261582891823113
30
0
10
-18.336626716652692
20
-2.1207873843401863
30
0
10
-16.033630050703724
20
-5.8355280595938446
30
0
10
-13.422229139261898
20
-12.721613688089743
30
0
10
-11.3802892107256
20
-24.138242414396455
30
0
10
-10.328718905181521
20
-40.674720060841352
30
0
10
-10.081924387030909
20
-54.701016207623034
30
0
10
-10.01488577321431
20
-65.285932780722092
30
0
10
-10.000000000000004
20
-72.326982520777122
30
0
10
-10.000000000000002
20
-75.843589050097066
30
0
0
CIRCLE
5
106
100
AcDbEntity
8
0
100
AcDbCircle
10
0
20
-87.000000000000014
30
0
40
7.4300000000000033
210
0
220
0
230
1
0
LINE
5
107
100
AcDbEntity
8
0
100
AcDbLine
10
-99.999999999999972
20
225
30
0
11
-99.999999999999972
21
270
31
0
0
LINE
5
108
100
AcDbEntity
8
0
100
AcDbLine
10
100
20
270
30
0
11
100
21
225.00004793809936
31
0
0
ARC
5
109
100
AcDbEntity
8
0
100
AcDbCircle
10
-23.487828343053714
20
-87.657768735732944
30
0
40
14.336081571262431
210
0
220
-0
230
1
100
AcDbArc
50
80.765619003846339
51
248.24088748205341
0
ARC
5
110
100
AcDbEntity
8
0
100
AcDbCircle
10
23.487828343053714
20
-87.657768735732944
30
0
40
14.33608157126244
210
-0
220
0
230
1
100
AcDbArc
50
-68.240887482053409
51
99.234380996153661
0
ARC
5
111
100
AcDbEntity
8
0
100
AcDbCircle
10
0
20
0
30
0
40
105.00000000000001
210
0
220
0
230
1
100
AcDbArc
50
254.07924996010016
51
285.92075003989981
0
ARC
5
112
100
AcDbEntity
8
0
100
AcDbCircle
10
0
20
0
30
0
40
76.5
210
0
220
0
230
1
100
AcDbArc
50
253.92128325753697
51
262.48886010455408
0
ARC
5
113
100
AcDbEntity
8
0
100
AcDbCircle
10
0
20
0
30
0
40
76.500000000000028
210
0
220
0
230
1
100
AcDbArc
50
277.51113989544592
51
286.07871674246303
0
CIRCLE
5
114
100
AcDbEntity
8
0
100
AcDbCircle
10
-23.487828343053714
20
-87.657768735732944
30
0
40
1.5000000000000002
210
0
220
0
230
1
0
CIRCLE
5
115
100
AcDbEntity
8
0
100
AcDbCircle
10
23.487828343053714
20
-87.657768735732944
30
0
40
1.5000000000000002
210
0
220
0
230
1
0
CIRCLE
5
116
100
AcDbEntity
8
0
100
AcDbCircle
10
51.78149086682658
20
74.526771724050633
30
0
40
1.5000000000000002
210
0
220
0
230
1
0
CIRCLE
5
117
100
AcDbEntity
8
0
100
AcDbCircle
10
-51.78149086682658
20
74.526771724050633
30
0
40
1.5000000000000002
210
0
220
0
230
1
0
LINE
5
118
100
AcDbEntity
8
0
100
AcDbLine
10
-74.999999999999972
20
225
30
0
11
-74.999999999999972
21
270
31
0
0
LINE
5
119
100
AcDbEntity
8
0
100
AcDbLine
10
75
20
225
30
0
11
75
21
270
31
0
0
LINE
5
120
100
AcDbEntity
8
0
100
AcDbLine
10
-99.999999999999972
20
270
30
0
11
-74.999999999999972
21
270
31
0
0
LINE
5
121
100
AcDbEntity
8
0
100
AcDbLine
10
75
20
270
30
0
11
100
21
270
31
0
0
CIRCLE
5
122
100
AcDbEntity
8
0
100
AcDbCircle
10
76.076230206119362
20
140.49304809983619
30
0
40
1.4999999999999889
210
0
220
0
230
1
0
CIRCLE
5
123
100
AcDbEntity
8
0
100
AcDbCircle
10
-77.076230206119376
20
140.49304809983619
30
0
40
1.4999999999999889
210
0
220
0
230
1
0
CIRCLE
5
124
100
AcDbEntity
8
0
100
AcDbCircle
10
-87.499999999999972
20
247.5
30
0
40
1.5000000000000036
210
0
220
0
230
1
0
CIRCLE
5
125
100
AcDbEntity
8
0
100
AcDbCircle
10
87.5
20
247.50002396904966
30
0
40
1.4999999999999858
210
0
220
0
230
1
0
ENDSEC
0
SECTION
2
OBJECTS
0
DICTIONARY
5
C
100
AcDbDictionary
3
ACAD_GROUP
350
D
3
ACAD_MLINESTYLE
350
17
0
DICTIONARY
5
D
100
AcDbDictionary
0
DICTIONARY
5
1A
330
C
100
AcDbDictionary
0
DICTIONARY
5
17
100
AcDbDictionary
0
ENDSEC
0
EOF
