0
SECTION
2
HEADER
9
$INSUNITS
70
4
9
$ACADVER
1
AC1014
9
$HANDSEED
5
FFFF
0
ENDSEC
0
SECTION
2
TABLES
0
TABLE
2
VPORT
5
8
100
AcDbSymbolTable
0
ENDTAB
0
TABLE
2
LTYPE
5
5
100
AcDbSymbolTable
0
LTYPE
5
14
100
AcDbSymbolTableRecord
100
AcDbLinetypeTableRecord
2
BYBLOCK
70
0
0
LTYPE
5
15
100
AcDbSymbolTableRecord
100
AcDbLinetypeTableRecord
2
BYLAYER
70
0
0
ENDTAB
0
TABLE
2
LAYER
5
2
100
AcDbSymbolTable
70
2
0
LAYER
5
50
100
AcDbSymbolTableRecord
100
AcDbLayerTableRecord
2
0
70
0
6
CONTINUOUS
0
ENDTAB
0
TABLE
2
STYLE
5
3
100
AcDbSymbolTable
70
1
0
STYLE
5
11
100
AcDbSymbolTableRecord
100
AcDbTextStyleTableRecord
2
STANDARD
70
0
0
ENDTAB
0
TABLE
2
VIEW
5
6
100
AcDbSymbolTable
70
0
0
ENDTAB
0
TABLE
2
UCS
5
7
100
AcDbSymbolTable
70
0
0
ENDTAB
0
TABLE
2
APPID
5
9
100
AcDbSymbolTable
70
2
0
APPID
5
12
100
AcDbSymbolTableRecord
100
AcDbRegAppTableRecord
2
ACAD
70
0
0
ENDTAB
0
TABLE
2
DIMSTYLE
5
A
100
AcDbSymbolTable
70
1
0
ENDTAB
0
TABLE
2
BLOCK_RECORD
5
1
100
AcDbSymbolTable
70
1
0
BLOCK_RECORD
5
1F
100
AcDbSymbolTableRecord
100
AcDbBlockTableRecord
2
*MODEL_SPACE
0
BLOCK_RECORD
5
1B
100
AcDbSymbolTableRecord
100
AcDbBlockTableRecord
2
*PAPER_SPACE
0
ENDTAB
0
ENDSEC
0
SECTION
2
BLOCKS
0
BLOCK
5
20
100
AcDbEntity
100
AcDbBlockBegin
2
*MODEL_SPACE
0
ENDBLK
5
21
100
AcDbEntity
100
AcDbBlockEnd
0
BLOCK
5
1C
100
AcDbEntity
100
AcDbBlockBegin
2
*PAPER_SPACE
0
ENDBLK
5
1D
100
AcDbEntity
100
AcDbBlockEnd
0
ENDSEC
0
SECTION
2
ENTITIES
0
LINE
5
100
100
AcDbEntity
8
0
100
AcDbLine
10
80.199999999999989
20
270
30
0
11
80.199999999999989
21
274.80000000000001
31
0
0
LINE
5
101
100
AcDbEntity
8
0
100
AcDbLine
10
80.199999999999989
20
274.80000000000001
30
0
11
95.199999999999989
21
274.80000000000001
31
0
0
LINE
5
102
100
AcDbEntity
8
0
100
AcDbLine
10
95.199999999999989
20
230
30
0
11
-95.199999999999989
21
229.80000000152327
31
0
0
LINE
5
103
100
AcDbEntity
8
0
100
AcDbLine
10
-95.199999999999989
20
229.80000000152327
30
0
11
-95.199999999999989
21
270
31
0
0
LINE
5
104
100
AcDbEntity
8
0
100
AcDbLine
10
95.199999999999989
20
274.80000000000001
30
0
11
95.199999999999989
21
230
31
0
0
LINE
5
105
100
AcDbEntity
8
0
100
AcDbLine
10
-95.199999999999989
20
270
30
0
11
-95.199999999999989
21
274.80000000000001
31
0
0
LINE
5
106
100
AcDbEntity
8
0
100
AcDbLine
10
-80.199999999999989
20
274.80000000000001
30
0
11
-80.199999999999989
21
270
31
0
0
LINE
5
107
100
AcDbEntity
8
0
100
AcDbLine
10
-95.199999999999989
20
274.80000000000001
30
0
11
-80.199999999999989
21
274.80000000000001
31
0
0
LINE
5
108
100
AcDbEntity
8
0
100
AcDbLine
10
-57.000000864267349
20
270
30
0
11
-39.199999999999989
21
270
31
0
0
LINE
5
109
100
AcDbEntity
8
0
100
AcDbLine
10
-57.000000864267349
20
266.0000039935112
30
0
11
-57.000000864267349
21
270
31
0
0
LINE
5
110
100
AcDbEntity
8
0
100
AcDbLine
10
-63.000000923871994
20
266.0000039935112
30
0
11
-57.000000864267349
21
266.0000039935112
31
0
0
LINE
5
111
100
AcDbEntity
8
0
100
AcDbLine
10
-63.000000923871994
20
266.0000039935112
30
0
11
-63.000000923871994
21
270
31
0
0
LINE
5
112
100
AcDbEntity
8
0
100
AcDbLine
10
-63.000000923871994
20
270
30
0
11
-80.199999999999989
21
270
31
0
0
LINE
5
113
100
AcDbEntity
8
0
100
AcDbLine
10
-39.199999999999989
20
274.80000000000001
30
0
11
-24.199999999999989
21
274.80000000000001
31
0
0
LINE
5
114
100
AcDbEntity
8
0
100
AcDbLine
10
-24.199999999999989
20
274.80000000000001
30
0
11
-24.199999999999989
21
270
31
0
0
LINE
5
115
100
AcDbEntity
8
0
100
AcDbLine
10
-6.0000000298023348
20
270
30
0
11
-24.199999999999989
21
270
31
0
0
LINE
5
116
100
AcDbEntity
8
0
100
AcDbLine
10
-6.0000000298023348
20
266.0000039935112
30
0
11
-6.0000000298023348
21
270
31
0
0
LINE
5
117
100
AcDbEntity
8
0
100
AcDbLine
10
6.0000000298023037
20
266.0000039935112
30
0
11
-6.0000000298023348
21
266.0000039935112
31
0
0
LINE
5
118
100
AcDbEntity
8
0
100
AcDbLine
10
6.0000000298023037
20
266.0000039935112
30
0
11
6.0000000298023037
21
270.00000384208317
31
0
0
LINE
5
119
100
AcDbEntity
8
0
100
AcDbLine
10
6.0000000298023037
20
270.00000384208317
30
0
11
24.199999999999989
21
270
31
0
0
LINE
5
120
100
AcDbEntity
8
0
100
AcDbLine
10
-39.199999999999989
20
270
30
0
11
-39.199999999999989
21
274.80000000000001
31
0
0
LINE
5
121
100
AcDbEntity
8
0
100
AcDbLine
10
24.199999999999989
20
274.80000000000001
30
0
11
39.199999999999989
21
274.80000000000001
31
0
0
LINE
5
122
100
AcDbEntity
8
0
100
AcDbLine
10
39.199999999999989
20
274.80000000000001
30
0
11
39.199999999999989
21
270
31
0
0
LINE
5
123
100
AcDbEntity
8
0
100
AcDbLine
10
57.000000864267335
20
270
30
0
11
39.199999999999989
21
270
31
0
0
LINE
5
124
100
AcDbEntity
8
0
100
AcDbLine
10
57.000000864267335
20
266.0000039935112
30
0
11
57.000000864267335
21
270
31
0
0
LINE
5
125
100
AcDbEntity
8
0
100
AcDbLine
10
63.000000923871973
20
266.0000039935112
30
0
11
57.000000864267335
21
266.0000039935112
31
0
0
LINE
5
126
100
AcDbEntity
8
0
100
AcDbLine
10
63.000000923871973
20
266.0000039935112
30
0
11
63.000000923871973
21
270
31
0
0
LINE
5
127
100
AcDbEntity
8
0
100
AcDbLine
10
63.000000923871973
20
270
30
0
11
80.199999999999989
21
270
31
0
0
LINE
5
128
100
AcDbEntity
8
0
100
AcDbLine
10
24.199999999999989
20
270
30
0
11
24.199999999999989
21
274.80000000000001
31
0
0
ELLIPSE
5
129
100
AcDbEntity
8
0
100
AcDbEllipse
10
59.966974824684655
20
244.62171510680002
30
0
11
-1.4680342501591932
21
-8.1183357555818922
31
0.0
40
0.87878787878787978
41
0
42
6.2831853071795862
0
ELLIPSE
5
130
100
AcDbEntity
8
0
100
AcDbEllipse
10
9.9975242566823077
20
249.85167286023241
30
0
11
-0.24474651370216358
21
-8.2463688459849109
31
0.0
40
0.87878787878787967
41
0
42
6.2831853071795862
0
ELLIPSE
5
131
100
AcDbEntity
8
0
100
AcDbEllipse
10
-9.9975242566823077
20
249.85167286023241
30
0
11
0.24474651370216358
21
-8.2463688459849109
31
0.0
40
0.87878787878787967
41
0
42
6.2831853071795862
0
ELLIPSE
5
132
100
AcDbEntity
8
0
100
AcDbEllipse
10
-59.966974824684655
20
244.62171510680002
30
0
11
1.4680342501591932
21
-8.1183357555818922
31
0.0
40
0.87878787878787978
41
0
42
6.2831853071795862
0
LWPOLYLINE
5
133
100
AcDbEntity
8
0
100
AcDbPolyline
90
4
70
1
43
0.0
10
0.85000000000000009
20
247.90000372529028
10
-0.85000000000000009
20
247.90000372529028
10
-0.85000000000000009
20
252.10000372529032
10
0.85000000000000009
20
252.10000372529032
0
LWPOLYLINE
5
134
100
AcDbEntity
8
0
100
AcDbPolyline
90
4
70
1
43
0.0
10
-50.342035821797197
20
244.09577832481699
10
-50.96283534854156
20
248.24964495093707
10
-49.281508380826303
20
248.50092094985737
10
-48.660708854081932
20
244.3470543237373
0
LWPOLYLINE
5
135
100
AcDbEntity
8
0
100
AcDbPolyline
90
4
70
1
43
0.0
10
-25.666596299849409
20
246.91609848819809
10
-25.977851958670087
20
251.10454926561596
10
-24.282526644000964
20
251.23053369894814
10
-23.971270985180286
20
247.04208292153027
0
LWPOLYLINE
5
136
100
AcDbEntity
8
0
100
AcDbPolyline
90
4
70
1
43
0.0
10
50.342035821797197
20
244.09577832481699
10
50.96283534854156
20
248.24964495093707
10
49.281508380826303
20
248.50092094985737
10
48.660708854081932
20
244.3470543237373
0
LWPOLYLINE
5
137
100
AcDbEntity
8
0
100
AcDbPolyline
90
4
70
1
43
0.0
10
25.666596299849409
20
246.91609848819809
10
25.977851958670087
20
251.10454926561596
10
24.282526644000964
20
251.23053369894814
10
23.971270985180286
20
247.04208292153027
0
CIRCLE
5
138
100
AcDbEntity
8
0
100
AcDbCircle
10
-75
20
240
30
0
40
1.350000000000001
210
0
220
0
230
1
0
CIRCLE
5
139
100
AcDbEntity
8
0
100
AcDbCircle
10
-75
20
260
30
0
40
1.3500000000000045
210
0
220
0
230
1
0
CIRCLE
5
140
100
AcDbEntity
8
0
100
AcDbCircle
10
75
20
240
30
0
40
1.3500000000000036
210
0
220
0
230
1
0
CIRCLE
5
141
100
AcDbEntity
8
0
100
AcDbCircle
10
75
20
260
30
0
40
1.3499999999999961
210
0
220
0
230
1
0
ENDSEC
0
SECTION
2
OBJECTS
0
DICTIONARY
5
C
100
AcDbDictionary
3
ACAD_GROUP
350
D
3
ACAD_MLINESTYLE
350
17
0
DICTIONARY
5
D
100
AcDbDictionary
0
DICTIONARY
5
1A
330
C
100
AcDbDictionary
0
DICTIONARY
5
17
100
AcDbDictionary
0
ENDSEC
0
EOF
