0
SECTION
2
HEADER
9
$INSUNITS
70
4
9
$ACADVER
1
AC1014
9
$HANDSEED
5
FFFF
0
ENDSEC
0
SECTION
2
TABLES
0
TABLE
2
VPORT
5
8
100
AcDbSymbolTable
0
ENDTAB
0
TABLE
2
LTYPE
5
5
100
AcDbSymbolTable
0
LTYPE
5
14
100
AcDbSymbolTableRecord
100
AcDbLinetypeTableRecord
2
BYBLOCK
70
0
0
LTYPE
5
15
100
AcDbSymbolTableRecord
100
AcDbLinetypeTableRecord
2
BYLAYER
70
0
0
ENDTAB
0
TABLE
2
LAYER
5
2
100
AcDbSymbolTable
70
2
0
LAYER
5
50
100
AcDbSymbolTableRecord
100
AcDbLayerTableRecord
2
0
70
0
6
CONTINUOUS
0
ENDTAB
0
TABLE
2
STYLE
5
3
100
AcDbSymbolTable
70
1
0
STYLE
5
11
100
AcDbSymbolTableRecord
100
AcDbTextStyleTableRecord
2
STANDARD
70
0
0
ENDTAB
0
TABLE
2
VIEW
5
6
100
AcDbSymbolTable
70
0
0
ENDTAB
0
TABLE
2
UCS
5
7
100
AcDbSymbolTable
70
0
0
ENDTAB
0
TABLE
2
APPID
5
9
100
AcDbSymbolTable
70
2
0
APPID
5
12
100
AcDbSymbolTableRecord
100
AcDbRegAppTableRecord
2
ACAD
70
0
0
ENDTAB
0
TABLE
2
DIMSTYLE
5
A
100
AcDbSymbolTable
70
1
0
ENDTAB
0
TABLE
2
BLOCK_RECORD
5
1
100
AcDbSymbolTable
70
1
0
BLOCK_RECORD
5
1F
100
AcDbSymbolTableRecord
100
AcDbBlockTableRecord
2
*MODEL_SPACE
0
BLOCK_RECORD
5
1B
100
AcDbSymbolTableRecord
100
AcDbBlockTableRecord
2
*PAPER_SPACE
0
ENDTAB
0
ENDSEC
0
SECTION
2
BLOCKS
0
BLOCK
5
20
100
AcDbEntity
100
AcDbBlockBegin
2
*MODEL_SPACE
0
ENDBLK
5
21
100
AcDbEntity
100
AcDbBlockEnd
0
BLOCK
5
1C
100
AcDbEntity
100
AcDbBlockBegin
2
*PAPER_SPACE
0
ENDBLK
5
1D
100
AcDbEntity
100
AcDbBlockEnd
0
ENDSEC
0
SECTION
2
ENTITIES
0
SPLINE
5
100
100
AcDbEntity
8
0
100
AcDbSpline
70
0
71
3
72
8
73
4
74
0
42
0.000000001
43
0.0000000001
44
0.0000000001
40
0
40
0
40
0
40
0
40
1
40
1
40
1
40
1
10
-50.507836203430656
20
54.454606712088548
30
0
10
-50.797362509514691
20
54.654985491211569
30
0
10
-51.136586469160932
20
54.875655125136369
30
0
10
-51.529807998104971
20
55.110990652829976
30
0
0
ARC
5
101
100
AcDbEntity
8
0
100
AcDbCircle
10
-1.2631761195286805e-15
20
-2.4339968033276264e-13
30
0
40
79.748391366097223
210
0
220
0
230
1
100
AcDbArc
50
176.27419698475404
51
177.72580301524613
0
SPLINE
5
102
100
AcDbEntity
8
0
100
AcDbSpline
70
0
71
3
72
8
73
4
74
0
42
0.000000001
43
0.0000000001
44
0.0000000001
40
0
40
0
40
0
40
0
40
1
40
1
40
1
40
1
10
-29.387334053586933
20
69.490481364578088
30
0
10
-29.332281955908304
20
69.035536040433371
30
0
10
-29.268665028794068
20
68.635885106843645
30
0
10
-29.203370863136996
20
68.289888273088394
30
0
0
ARC
5
103
100
AcDbEntity
8
0
100
AcDbCircle
10
-74.356065344875105
20
-0.70813272003957928
30
0
40
0.40000000000000674
210
-0
220
0
230
1
100
AcDbArc
50
-76.693055045957294
51
0.5455935992142682
0
ARC
5
104
100
AcDbEntity
8
0
100
AcDbCircle
10
3.6032988915053857e-13
20
1.750981752753598e-13
30
0
40
79.748391366097209
210
0
220
0
230
1
100
AcDbArc
50
116.27419698475403
51
117.725803015246
0
ARC
5
105
100
AcDbEntity
8
0
100
AcDbCircle
10
-74.022755063927661
20
7.0680717502229928
30
0
40
0.4000000000000058
210
-0
220
0
230
1
100
AcDbArc
50
277.3069449540414
51
354.54559359912128
0
SPLINE
5
106
100
AcDbEntity
8
0
100
AcDbSpline
70
0
71
3
72
8
73
4
74
0
42
0.000000001
43
0.0000000001
44
0.0000000001
40
0
40
0
40
0
40
0
40
1
40
1
40
1
40
1
10
-78.918266371032502
20
11.47663532883085
30
0
10
-77.330710590032766
20
10.45164160246472
30
0
10
-75.961840650504598
20
9.7587750420502815
30
0
10
-74.874189209727177
20
9.2950628423832597
30
0
0
SPLINE
5
107
100
AcDbEntity
8
0
100
AcDbSpline
70
0
71
3
72
8
73
4
74
0
42
0.000000001
43
0.0000000001
44
0.0000000001
40
0
40
0
40
0
40
0
40
1
40
1
40
1
40
1
10
-75.435619201911123
20
-1.4176595790698747
30
0
10
-76.56578349792278
20
-1.7651409811128003
30
0
10
-77.999578901504691
20
-2.3111260748213263
30
0
10
-79.685578904903437
20
-3.1645600121679656
30
0
0
ARC
5
108
100
AcDbEntity
8
0
100
AcDbCircle
10
-54.783491927560341
20
50.280164257323804
30
0
40
0.3999999999999998
210
-0
220
0
230
1
100
AcDbArc
50
-42.545593599090559
51
34.693055045956584
0
ARC
5
109
100
AcDbEntity
8
0
100
AcDbCircle
10
-29.596424980899112
20
68.215669269388158
30
0
40
0.40000000000008201
210
-0
220
0
230
1
100
AcDbArc
50
-66.545593599076398
51
10.693055045953384
0
ARC
5
110
100
AcDbEntity
8
0
100
AcDbCircle
10
-50.280164257323847
20
54.783491927560377
30
0
40
0.40000000000000863
210
0
220
0
230
1
100
AcDbArc
50
235.30694495404285
51
312.54559359906278
0
SPLINE
5
111
100
AcDbEntity
8
0
100
AcDbSpline
70
0
71
3
72
8
73
4
74
0
42
0.000000001
43
0.0000000001
44
0.0000000001
40
0
40
0
40
0
40
0
40
1
40
1
40
1
40
1
10
-31.977526991472544
20
68.337253168147768
30
0
10
-32.754646279808057
20
69.228376208160839
30
0
10
-33.836605611416431
20
70.316141342107585
30
0
10
-35.302014289885747
20
71.50925613203448
30
0
0
SPLINE
5
112
100
AcDbEntity
8
0
100
AcDbSpline
70
0
71
3
72
8
73
4
74
0
42
0.000000001
43
0.0000000001
44
0.0000000001
40
0
40
0
40
0
40
0
40
1
40
1
40
1
40
1
10
-75.170560764200843
20
6.4752758592560884
30
0
10
-76.330855598917523
20
6.2478323337932
30
0
10
-77.813867504070615
20
5.8547106337320383
30
0
10
-79.579839561012875
20
5.1821868862149785
30
0
0
SPLINE
5
113
100
AcDbEntity
8
0
100
AcDbSpline
70
0
71
3
72
8
73
4
74
0
42
0.000000001
43
0.0000000001
44
0.0000000001
40
0
40
0
40
0
40
0
40
1
40
1
40
1
40
1
10
-74.874189209727177
20
9.2950628423832597
30
0
10
-74.452668952845585
20
9.1152666954321724
30
0
10
-74.074752628153647
20
8.9705351036289613
30
0
10
-73.74246349766409
20
8.8540830929292458
30
0
0
SPLINE
5
114
100
AcDbEntity
8
0
100
AcDbSpline
70
0
71
3
72
8
73
4
74
0
42
0.000000001
43
0.0000000001
44
0.0000000001
40
0
40
0
40
0
40
0
40
1
40
1
40
1
40
1
10
14.297266820229472
20
-74.081917932306823
30
0
10
14.338006194542308
20
-73.625468280318188
30
0
10
14.35887155125906
20
-73.221323975615419
30
0
10
14.366941006503263
20
-72.86931258243402
30
0
0
SPLINE
5
115
100
AcDbEntity
8
0
100
AcDbSpline
70
0
71
3
72
8
73
4
74
0
42
0.000000001
43
0.0000000001
44
0.0000000001
40
0
40
0
40
0
40
0
40
1
40
1
40
1
40
1
10
-21.962613934025022
20
-72.181618104908509
30
0
10
-21.981379456224094
20
-73.363845881574989
30
0
10
-21.905183921216079
20
-74.896185015816869
30
0
10
-21.614522667441534
20
-76.763391895739389
30
0
0
SPLINE
5
116
100
AcDbEntity
8
0
100
AcDbSpline
70
0
71
3
72
8
73
4
74
0
42
0.000000001
43
0.0000000001
44
0.0000000001
40
0
40
0
40
0
40
0
40
1
40
1
40
1
40
1
10
35.302014289885705
20
71.509256132034466
30
0
10
33.836605611416445
20
70.316141342107571
30
0
10
32.754646279808043
20
69.22837620816081
30
0
10
31.977526991472534
20
68.337253168147797
30
0
0
ARC
5
117
100
AcDbEntity
8
0
100
AcDbCircle
10
8.4765787400350447
20
-73.874715013897173
30
0
40
0.40000000000000807
210
0
220
-0
230
1
100
AcDbArc
50
19.30694495404477
51
96.545593599143501
0
ARC
5
118
100
AcDbEntity
8
0
100
AcDbCircle
10
36.564771747632378
20
-64.748307874137353
30
0
40
0.40000000000003022
210
0
220
0
230
1
100
AcDbArc
50
119.4544064008897
51
196.69305504595653
0
ARC
5
119
100
AcDbEntity
8
0
100
AcDbCircle
10
5.5545852212105315e-12
20
-8.9752549841748832e-13
30
0
40
73.959437232403275
210
-0
220
0
230
1
100
AcDbArc
50
347.454357773033
51
348.54564222696609
0
SPLINE
5
120
100
AcDbEntity
8
0
100
AcDbSpline
70
0
71
3
72
8
73
4
74
0
42
0.000000001
43
0.0000000001
44
0.0000000001
40
0
40
0
40
0
40
0
40
1
40
1
40
1
40
1
10
75.435619201911109
20
-1.4176595790698872
30
0
10
74.997614262158947
20
-1.2829092389121843
30
0
10
74.606639631758171
20
-1.1784735145761771
30
0
10
74.263998266170631
20
-1.0973931123463465
30
0
0
ARC
5
121
100
AcDbEntity
8
0
100
AcDbCircle
10
1.8446143926293504e-13
20
4.6199854953695518e-12
30
0
40
73.959437232404298
210
0
220
-0
230
1
100
AcDbArc
50
77.454357773032584
51
78.545642226965796
0
SPLINE
5
122
100
AcDbEntity
8
0
100
AcDbSpline
70
0
71
3
72
8
73
4
74
0
42
0.000000001
43
0.0000000001
44
0.0000000001
40
0
40
0
40
0
40
0
40
1
40
1
40
1
40
1
10
-35.302014289885705
20
-71.509256132034466
30
0
10
-33.836605611416545
20
-70.316141342107471
30
0
10
-32.754646279808043
20
-69.22837620816081
30
0
10
-31.977526991472537
20
-68.337253168147697
30
0
0
SPLINE
5
123
100
AcDbEntity
8
0
100
AcDbSpline
70
0
71
3
72
8
73
4
74
0
42
0.000000001
43
0.0000000001
44
0.0000000001
40
0
40
0
40
0
40
0
40
1
40
1
40
1
40
1
10
-13.472156660630192
20
78.602206841739786
30
0
10
-13.956401907405242
20
76.775611090663205
30
0
10
-14.192353090207208
20
75.259630872712066
30
0
10
-14.297266820229472
20
74.081917932306823
30
0
0
ARC
5
124
100
AcDbEntity
8
0
100
AcDbCircle
10
-1.2096719061818054e-14
20
-3.6683366638565883e-14
30
0
40
79.748391366097252
210
0
220
0
230
1
100
AcDbArc
50
140.27419698475413
51
141.72580301524582
0
ARC
5
125
100
AcDbEntity
8
0
100
AcDbCircle
10
3.3623400976969027e-13
20
-1.6763260623815353e-13
30
0
40
79.748391366097195
210
0
220
-0
230
1
100
AcDbArc
50
62.274196984754397
51
63.725803015245802
0
SPLINE
5
126
100
AcDbEntity
8
0
100
AcDbSpline
70
0
71
3
72
8
73
4
74
0
42
0.000000001
43
0.0000000001
44
0.0000000001
40
0
40
0
40
0
40
0
40
1
40
1
40
1
40
1
10
31.208407849201571
20
-67.39718829178787
30
0
10
31.421843281180458
20
-67.677228384298743
30
0
10
31.676273771460231
20
-67.991923646021192
30
0
10
31.977526991472544
20
-68.337253168147768
30
0
0
ARC
5
127
100
AcDbEntity
8
0
100
AcDbCircle
10
-3.5568748726849094e-13
20
1.3757329464916908e-13
30
0
40
79.748391366097195
210
0
220
-0
230
1
100
AcDbArc
50
68.2741969847539
51
69.725803015245504
0
ARC
5
128
100
AcDbEntity
8
0
100
AcDbCircle
10
7.0680717502229928
20
74.022755063927661
30
0
40
0.40000000000006025
210
0
220
0
230
1
100
AcDbArc
50
187.30694495403012
51
264.54559359919341
0
SPLINE
5
129
100
AcDbEntity
8
0
100
AcDbSpline
70
0
71
3
72
8
73
4
74
0
42
0.000000001
43
0.0000000001
44
0.0000000001
40
0
40
0
40
0
40
0
40
1
40
1
40
1
40
1
10
-31.977526991472537
20
-68.337253168147697
30
0
10
-31.676273771460252
20
-67.991923646021192
30
0
10
-31.421843281180518
20
-67.677228384298672
30
0
10
-31.208407849201556
20
-67.397188291787899
30
0
0
SPLINE
5
130
100
AcDbEntity
8
0
100
AcDbSpline
70
0
71
3
72
8
73
4
74
0
42
0.000000001
43
0.0000000001
44
0.0000000001
40
0
40
0
40
0
40
0
40
1
40
1
40
1
40
1
10
60.195418522194821
20
-45.486855156140244
30
0
10
59.920269345001188
20
-45.120386996937292
30
0
10
59.665350003214684
20
-44.806087599359572
30
0
10
59.43580518015915
20
-44.539092634527087
30
0
0
SPLINE
5
131
100
AcDbEntity
8
0
100
AcDbSpline
70
0
71
3
72
8
73
4
74
0
42
0.000000001
43
0.0000000001
44
0.0000000001
40
0
40
0
40
0
40
0
40
1
40
1
40
1
40
1
10
-5.1821868862149501
20
79.579839561012847
30
0
10
-5.8547106337320205
20
77.813867504070515
30
0
10
-6.2478323337931938
20
76.330855598917509
30
0
10
-6.4752758592560822
20
75.1705607642008
30
0
0
SPLINE
5
132
100
AcDbEntity
8
0
100
AcDbSpline
70
0
71
3
72
8
73
4
74
0
42
0.000000001
43
0.0000000001
44
0.0000000001
40
0
40
0
40
0
40
0
40
1
40
1
40
1
40
1
10
72.869312582433935
20
-14.366941006503339
30
0
10
73.221323975615419
20
-14.358871551259121
30
0
10
73.625468280318117
20
-14.33800619454245
30
0
10
74.081917932306766
20
-14.297266820229542
30
0
0
ARC
5
133
100
AcDbEntity
8
0
100
AcDbCircle
10
2.7315771528270537e-13
20
4.235401493993762e-14
30
0
40
79.748391366097195
210
0
220
0
230
1
100
AcDbArc
50
98.274196984754312
51
99.725803015245987
0
ARC
5
134
100
AcDbEntity
8
0
100
AcDbCircle
10
-59.739090529353014
20
44.278290032998044
30
0
40
0.40000000000000396
210
-0
220
0
230
1
100
AcDbArc
50
-36.545593599108585
51
40.693055045962979
0
ARC
5
135
100
AcDbEntity
8
0
100
AcDbCircle
10
-3.1912015207824766e-13
20
-1.5891925162659212e-13
30
0
40
79.748391366097223
210
-0
220
0
230
1
100
AcDbArc
50
296.27419698475398
51
297.72580301524613
0
ARC
5
136
100
AcDbEntity
8
0
100
AcDbCircle
10
-72.878435988242529
20
14.766836947301005
30
0
40
0.40000000000009672
210
-0
220
0
230
1
100
AcDbArc
50
271.30694495405265
51
348.54559359911258
0
ARC
5
137
100
AcDbEntity
8
0
100
AcDbCircle
10
1.8496292092426597e-13
20
2.7305442293279877e-13
30
0
40
79.748391366097295
210
0
220
0
230
1
100
AcDbArc
50
146.27419698475444
51
147.7258030152461
0
ARC
5
138
100
AcDbEntity
8
0
100
AcDbCircle
10
-60.571550468363043
20
43.132507223428071
30
0
40
0.40000000000000252
210
0
220
0
230
1
100
AcDbArc
50
247.30694495404168
51
324.54559359908723
0
ARC
5
139
100
AcDbEntity
8
0
100
AcDbCircle
10
-2.7305442293279877e-13
20
1.8496292092426597e-13
30
0
40
79.748391366097295
210
0
220
0
230
1
100
AcDbArc
50
236.27419698475438
51
237.72580301524607
0
ARC
5
140
100
AcDbEntity
8
0
100
AcDbCircle
10
14.766836947300897
20
-72.878435988242572
30
0
40
0.4000000000000109
210
0
220
0
230
1
100
AcDbArc
50
101.45440640085621
51
178.69305504595536
0
ARC
5
141
100
AcDbEntity
8
0
100
AcDbCircle
10
4.2604442863716558e-15
20
1.4242493267778749e-14
30
0
40
79.748391366097152
210
0
220
0
230
1
100
AcDbArc
50
92.27419698475417
51
93.725803015245702
0
SPLINE
5
142
100
AcDbEntity
8
0
100
AcDbSpline
70
0
71
3
72
8
73
4
74
0
42
0.000000001
43
0.0000000001
44
0.0000000001
40
0
40
0
40
0
40
0
40
1
40
1
40
1
40
1
10
29.387334053586905
20
69.490481364577988
30
0
10
29.529573229019253
20
70.664271242587603
30
0
10
29.613968156031664
20
72.196180664903068
30
0
10
29.52007544077874
20
74.08354116435676
30
0
0
SPLINE
5
143
100
AcDbEntity
8
0
100
AcDbSpline
70
0
71
3
72
8
73
4
74
0
42
0.000000001
43
0.0000000001
44
0.0000000001
40
0
40
0
40
0
40
0
40
1
40
1
40
1
40
1
10
72.181618104908509
20
-21.962613934025022
30
0
10
73.363845881574989
20
-21.981379456224094
30
0
10
74.896185015816869
20
-21.905183921216079
30
0
10
76.763391895739389
20
-21.614522667441534
30
0
0
SPLINE
5
144
100
AcDbEntity
8
0
100
AcDbSpline
70
0
71
3
72
8
73
4
74
0
42
0.000000001
43
0.0000000001
44
0.0000000001
40
0
40
0
40
0
40
0
40
1
40
1
40
1
40
1
10
-57.008189480336917
20
49.422755237156473
30
0
10
-58.080575670104665
20
49.920753751954045
30
0
10
-59.511428641885978
20
50.474404142570165
30
0
10
-61.335429588150568
20
50.968333332739412
30
0
0
ARC
5
145
100
AcDbEntity
8
0
100
AcDbCircle
10
-64.748307874137382
20
36.564771747632356
30
0
40
0.40000000000000679
210
0
220
0
230
1
100
AcDbArc
50
253.30694495404538
51
330.54559359914379
0
SPLINE
5
146
100
AcDbEntity
8
0
100
AcDbSpline
70
0
71
3
72
8
73
4
74
0
42
0.000000001
43
0.0000000001
44
0.0000000001
40
0
40
0
40
0
40
0
40
1
40
1
40
1
40
1
10
-72.869312582433921
20
14.366941006503243
30
0
10
-73.221323975615419
20
14.358871551259121
30
0
10
-73.625468280318117
20
14.338006194542348
30
0
10
-74.081917932306865
20
14.297266820229439
30
0
0
SPLINE
5
147
100
AcDbEntity
8
0
100
AcDbSpline
70
0
71
3
72
8
73
4
74
0
42
0.000000001
43
0.0000000001
44
0.0000000001
40
0
40
0
40
0
40
0
40
1
40
1
40
1
40
1
10
37.102200090113953
20
-70.592015652999777
30
0
10
36.998295558608497
20
-68.705179850602477
30
0
10
36.754234818056773
20
-67.190484060416964
30
0
10
36.490080391562707
20
-66.037992368599149
30
0
0
SPLINE
5
148
100
AcDbEntity
8
0
100
AcDbSpline
70
0
71
3
72
8
73
4
74
0
42
0.000000001
43
0.0000000001
44
0.0000000001
40
0
40
0
40
0
40
0
40
1
40
1
40
1
40
1
10
-45.486855156140244
20
-60.195418522194821
30
0
10
-45.120386996937292
20
-59.920269345001188
30
0
10
-44.806087599359572
20
-59.665350003214684
30
0
10
-44.539092634527087
20
-59.43580518015915
30
0
0
ARC
5
149
100
AcDbEntity
8
0
100
AcDbCircle
10
-68.215669269388087
20
29.596424980899162
30
0
40
0.40000000000000602
210
0
220
0
230
1
100
AcDbArc
50
259.30694495404236
51
336.54559359914344
0
SPLINE
5
150
100
AcDbEntity
8
0
100
AcDbSpline
70
0
71
3
72
8
73
4
74
0
42
0.000000001
43
0.0000000001
44
0.0000000001
40
0
40
0
40
0
40
0
40
1
40
1
40
1
40
1
10
-21.905154664043934
20
-70.968372598398574
30
0
10
-21.933924624101891
20
-71.319299124092737
30
0
10
-21.955418153101331
20
-71.723410507681052
30
0
10
-21.962613934025022
20
-72.181618104908509
30
0
0
SPLINE
5
151
100
AcDbEntity
8
0
100
AcDbSpline
70
0
71
3
72
8
73
4
74
0
42
0.000000001
43
0.0000000001
44
0.0000000001
40
0
40
0
40
0
40
0
40
1
40
1
40
1
40
1
10
21.614522667441474
20
-76.763391895739403
30
0
10
21.905183921216022
20
-74.896185015816997
30
0
10
21.981379456224065
20
-73.363845881575017
30
0
10
21.962613934024965
20
-72.181618104908523
30
0
0
ARC
5
152
100
AcDbEntity
8
0
100
AcDbCircle
10
22.303813588624987
20
-70.935645517076964
30
0
40
0.4000000000000104
210
0
220
0
230
1
100
AcDbArc
50
107.45440640085559
51
184.69305504596434
0
SPLINE
5
153
100
AcDbEntity
8
0
100
AcDbSpline
70
0
71
3
72
8
73
4
74
0
42
0.000000001
43
0.0000000001
44
0.0000000001
40
0
40
0
40
0
40
0
40
1
40
1
40
1
40
1
10
-57.100421668548684
20
55.671786128650005
30
0
10
-56.41853825825207
20
53.909406909628849
30
0
10
-55.718355960102876
20
52.544264524658217
30
0
10
-55.110990652829926
20
51.529807998104992
30
0
0
SPLINE
5
154
100
AcDbEntity
8
0
100
AcDbSpline
70
0
71
3
72
8
73
4
74
0
42
0.000000001
43
0.0000000001
44
0.0000000001
40
0
40
0
40
0
40
0
40
1
40
1
40
1
40
1
10
36.490080391562671
20
66.037992368599191
30
0
10
36.75423481805668
20
67.190484060416964
30
0
10
36.998295558608454
20
68.705179850602548
30
0
10
37.10220009011384
20
70.592015652999763
30
0
0
SPLINE
5
155
100
AcDbEntity
8
0
100
AcDbSpline
70
0
71
3
72
8
73
4
74
0
42
0.000000001
43
0.0000000001
44
0.0000000001
40
0
40
0
40
0
40
0
40
1
40
1
40
1
40
1
10
14.297266820229439
20
74.081917932306865
30
0
10
14.192353090207179
20
75.259630872712137
30
0
10
13.956401907405274
20
76.775611090663205
30
0
10
13.472156660630212
20
78.602206841739829
30
0
0
SPLINE
5
156
100
AcDbEntity
8
0
100
AcDbSpline
70
0
71
3
72
8
73
4
74
0
42
0.000000001
43
0.0000000001
44
0.0000000001
40
0
40
0
40
0
40
0
40
1
40
1
40
1
40
1
10
-74.081917932306865
20
14.297266820229439
30
0
10
-75.259630872712137
20
14.192353090207179
30
0
10
-76.775611090663205
20
13.956401907405274
30
0
10
-78.602206841739829
20
13.472156660630212
30
0
0
ARC
5
157
100
AcDbEntity
8
0
100
AcDbCircle
10
4.8284273678655213e-13
20
-1.9524056677679648e-12
30
0
40
73.959437232406856
210
-0
220
0
230
1
100
AcDbArc
50
287.45435777303334
51
288.54564222696683
0
ARC
5
158
100
AcDbEntity
8
0
100
AcDbCircle
10
-3.2474271078951508e-13
20
8.2116817942960787e-14
30
0
40
79.748391366097223
210
0
220
0
230
1
100
AcDbArc
50
254.27419698475441
51
255.72580301524604
0
SPLINE
5
159
100
AcDbEntity
8
0
100
AcDbSpline
70
0
71
3
72
8
73
4
74
0
42
0.000000001
43
0.0000000001
44
0.0000000001
40
0
40
0
40
0
40
0
40
1
40
1
40
1
40
1
10
-27.633873509000448
20
-74.807586248780765
30
0
10
-26.301206948093004
20
-73.46783054929125
30
0
10
-25.338877120758042
20
-72.272928760311885
30
0
10
-24.659162695150325
20
-71.305456300566405
30
0
0
ARC
5
160
100
AcDbEntity
8
0
100
AcDbCircle
10
-1.8459656923056536e-13
20
-2.8004482967608078e-13
30
0
40
79.748391366097209
210
-0
220
0
230
1
100
AcDbArc
50
326.27419698475393
51
327.72580301524607
0
ARC
5
161
100
AcDbEntity
8
0
100
AcDbCircle
10
29.596424980899112
20
-68.215669269388158
30
0
40
0.39999999999999419
210
0
220
0
230
1
100
AcDbArc
50
113.45440640091387
51
190.69305504595766
0
SPLINE
5
162
100
AcDbEntity
8
0
100
AcDbSpline
70
0
71
3
72
8
73
4
74
0
42
0.000000001
43
0.0000000001
44
0.0000000001
40
0
40
0
40
0
40
0
40
1
40
1
40
1
40
1
10
-70.290146355948494
20
-23.992520404912746
30
0
10
-70.590962437243107
20
-24.175514454739666
30
0
10
-70.930528993552088
20
-24.395656536066731
30
0
10
-71.305456300566362
20
-24.659162695150293
30
0
0
ARC
5
163
100
AcDbEntity
8
0
100
AcDbCircle
10
-16.152153589516605
20
72.583977845948894
30
0
40
0.40000000000000707
210
0
220
0
230
1
100
AcDbArc
50
205.30694495404217
51
282.54559359914424
0
ARC
5
164
100
AcDbEntity
8
0
100
AcDbCircle
10
8.3118706614368338e-13
20
3.629475039323932e-12
30
0
40
73.959437232405222
210
0
220
-0
230
1
100
AcDbArc
50
83.454357773033607
51
84.54564222696682
0
ARC
5
165
100
AcDbEntity
8
0
100
AcDbCircle
10
-8.4765787400350749
20
73.874715013897173
30
0
40
0.40000000000000413
210
0
220
0
230
1
100
AcDbArc
50
199.30694495404271
51
276.54559359908779
0
ARC
5
166
100
AcDbEntity
8
0
100
AcDbCircle
10
3.894655185542838e-14
20
2.0411022934748096e-15
30
0
40
79.748391366097223
210
0
220
0
230
1
100
AcDbArc
50
104.27419698475421
51
105.72580301524587
0
SPLINE
5
167
100
AcDbEntity
8
0
100
AcDbSpline
70
0
71
3
72
8
73
4
74
0
42
0.000000001
43
0.0000000001
44
0.0000000001
40
0
40
0
40
0
40
0
40
1
40
1
40
1
40
1
10
-55.110990652829926
20
51.529807998104992
30
0
10
-54.875655125136319
20
51.136586469160918
30
0
10
-54.65498549121159
20
50.79736250951462
30
0
10
-54.454606712088491
20
50.507836203430692
30
0
0
SPLINE
5
168
100
AcDbEntity
8
0
100
AcDbSpline
70
0
71
3
72
8
73
4
74
0
42
0.000000001
43
0.0000000001
44
0.0000000001
40
0
40
0
40
0
40
0
40
1
40
1
40
1
40
1
10
-70.592015652999777
20
-37.102200090113847
30
0
10
-68.705179850602576
20
-36.998295558608504
30
0
10
-67.190484060416964
20
-36.754234818056673
30
0
10
-66.037992368599248
20
-36.490080391562707
30
0
0
ARC
5
169
100
AcDbEntity
8
0
100
AcDbCircle
10
-5.3636097283558873e-13
20
4.483072931240229e-12
30
0
40
73.959437232404397
210
0
220
-0
230
1
100
AcDbArc
50
89.454357773032797
51
90.545642226966351
0
SPLINE
5
170
100
AcDbEntity
8
0
100
AcDbSpline
70
0
71
3
72
8
73
4
74
0
42
0.000000001
43
0.0000000001
44
0.0000000001
40
0
40
0
40
0
40
0
40
1
40
1
40
1
40
1
10
-73.492421932130014
20
-17.070627452078512
30
0
10
-74.525643980882336
20
-17.645489921472063
30
0
10
-75.814590830844878
20
-18.477646757564894
30
0
10
-77.286308796091561
20
-19.662970227190709
30
0
0
SPLINE
5
171
100
AcDbEntity
8
0
100
AcDbSpline
70
0
71
3
72
8
73
4
74
0
42
0.000000001
43
0.0000000001
44
0.0000000001
40
0
40
0
40
0
40
0
40
1
40
1
40
1
40
1
10
-16.513765886310033
20
72.412990867474591
30
0
10
-16.664313632881079
20
72.731287133616476
30
0
10
-16.847755382544783
20
73.092004622262237
30
0
10
-17.070627452078512
20
73.492421932130014
30
0
0
SPLINE
5
172
100
AcDbEntity
8
0
100
AcDbSpline
70
0
71
3
72
8
73
4
74
0
42
0.000000001
43
0.0000000001
44
0.0000000001
40
0
40
0
40
0
40
0
40
1
40
1
40
1
40
1
10
-8.8540830929292689
20
73.742463497664119
30
0
10
-8.9705351036288938
20
74.07475262815359
30
0
10
-9.1152666954321298
20
74.452668952845599
30
0
10
-9.2950628423832313
20
74.874189209727206
30
0
0
SPLINE
5
173
100
AcDbEntity
8
0
100
AcDbSpline
70
0
71
3
72
8
73
4
74
0
42
0.000000001
43
0.0000000001
44
0.0000000001
40
0
40
0
40
0
40
0
40
1
40
1
40
1
40
1
10
-74.081917932306823
20
-14.297266820229472
30
0
10
-73.625468280318188
20
-14.338006194542308
30
0
10
-73.221323975615419
20
-14.35887155125906
30
0
10
-72.86931258243402
20
-14.366941006503263
30
0
0
SPLINE
5
174
100
AcDbEntity
8
0
100
AcDbSpline
70
0
71
3
72
8
73
4
74
0
42
0.000000001
43
0.0000000001
44
0.0000000001
40
0
40
0
40
0
40
0
40
1
40
1
40
1
40
1
10
-61.86197730889166
20
-43.193033772728278
30
0
10
-61.428419606325889
20
-43.044596243896123
30
0
10
-61.050728707385034
20
-42.899277397933695
30
0
10
-60.725868154968133
20
-42.763473279730668
30
0
0
ARC
5
175
100
AcDbEntity
8
0
100
AcDbCircle
10
-1.7588321461900397e-13
20
3.7530933217185711e-13
30
0
40
79.748391366097181
210
0
220
0
230
1
100
AcDbArc
50
206.27419698475441
51
207.7258030152461
0
SPLINE
5
176
100
AcDbEntity
8
0
100
AcDbSpline
70
0
71
3
72
8
73
4
74
0
42
0.000000001
43
0.0000000001
44
0.0000000001
40
0
40
0
40
0
40
0
40
1
40
1
40
1
40
1
10
-51.529807998104971
20
55.110990652829976
30
0
10
-52.544264524658246
20
55.718355960102926
30
0
10
-53.909406909628814
20
56.418538258251999
30
0
10
-55.671786128650027
20
57.100421668548677
30
0
0
SPLINE
5
177
100
AcDbEntity
8
0
100
AcDbSpline
70
0
71
3
72
8
73
4
74
0
42
0.000000001
43
0.0000000001
44
0.0000000001
40
0
40
0
40
0
40
0
40
1
40
1
40
1
40
1
10
29.203370863137046
20
68.289888273088394
30
0
10
29.268665028794096
20
68.635885106843631
30
0
10
29.332281955908329
20
69.0355360404333
30
0
10
29.387334053586905
20
69.490481364577988
30
0
0
ARC
5
178
100
AcDbEntity
8
0
100
AcDbCircle
10
-72.583977845948894
20
-16.152153589516605
30
0
40
0.40000000000000707
210
-0
220
0
230
1
100
AcDbArc
50
-64.693055045957834
51
12.545593599143336
0
SPLINE
5
179
100
AcDbEntity
8
0
100
AcDbSpline
70
0
71
3
72
8
73
4
74
0
42
0.000000001
43
0.0000000001
44
0.0000000001
40
0
40
0
40
0
40
0
40
1
40
1
40
1
40
1
10
-71.509256132034466
20
35.302014289885705
30
0
10
-70.316141342107571
20
33.836605611416445
30
0
10
-69.22837620816081
20
32.754646279808043
30
0
10
-68.337253168147797
20
31.977526991472534
30
0
0
SPLINE
5
180
100
AcDbEntity
8
0
100
AcDbSpline
70
0
71
3
72
8
73
4
74
0
42
0.000000001
43
0.0000000001
44
0.0000000001
40
0
40
0
40
0
40
0
40
1
40
1
40
1
40
1
10
43.193033772728278
20
-61.86197730889166
30
0
10
43.044596243896123
20
-61.428419606325889
30
0
10
42.899277397933695
20
-61.050728707385034
30
0
10
42.763473279730668
20
-60.725868154968133
30
0
0
ARC
5
181
100
AcDbEntity
8
0
100
AcDbCircle
10
-64.040175154097852
20
-37.791293597242849
30
0
40
0.40000000000000546
210
-0
220
0
230
1
100
AcDbArc
50
-46.693055045956108
51
30.545593599144098
0
ARC
5
182
100
AcDbEntity
8
0
100
AcDbCircle
10
-22.303813588624987
20
70.935645517076964
30
0
40
0.40000000000001479
210
-0
220
0
230
1
100
AcDbArc
50
-72.545593599132147
51
4.6930550459480243
0
SPLINE
5
183
100
AcDbEntity
8
0
100
AcDbSpline
70
0
71
3
72
8
73
4
74
0
42
0.000000001
43
0.0000000001
44
0.0000000001
40
0
40
0
40
0
40
0
40
1
40
1
40
1
40
1
10
74.081917932306766
20
-14.297266820229542
30
0
10
75.259630872712151
20
-14.192353090207277
30
0
10
76.775611090663091
20
-13.956401907405279
30
0
10
78.602206841739829
20
-13.472156660630212
30
0
0
SPLINE
5
184
100
AcDbEntity
8
0
100
AcDbSpline
70
0
71
3
72
8
73
4
74
0
42
0.000000001
43
0.0000000001
44
0.0000000001
40
0
40
0
40
0
40
0
40
1
40
1
40
1
40
1
10
74.263998266170603
20
1.0973931123463525
30
0
10
74.606639631758227
20
1.1784735145761798
30
0
10
74.99761426215899
20
1.2829092389121888
30
0
10
75.435619201911123
20
1.4176595790698854
30
0
0
SPLINE
5
185
100
AcDbEntity
8
0
100
AcDbSpline
70
0
71
3
72
8
73
4
74
0
42
0.000000001
43
0.0000000001
44
0.0000000001
40
0
40
0
40
0
40
0
40
1
40
1
40
1
40
1
10
-24.659162695150293
20
71.305456300566362
30
0
10
-25.33887712075801
20
72.272928760311942
30
0
10
-26.301206948093039
20
73.467830549291236
30
0
10
-27.633873509000427
20
74.80758624878078
30
0
0
ARC
5
186
100
AcDbEntity
8
0
100
AcDbCircle
10
3.1775230404623308e-13
20
-8.2483169636661386e-14
30
0
40
79.748391366097195
210
0
220
-0
230
1
100
AcDbArc
50
74.274196984754411
51
75.725803015246299
0
ARC
5
187
100
AcDbEntity
8
0
100
AcDbCircle
10
1.2296841811564925e-12
20
-5.1016349158493774e-12
30
0
40
73.959437232403673
210
-0
220
0
230
1
100
AcDbArc
50
281.45435777303305
51
282.54564222696661
0
SPLINE
5
188
100
AcDbEntity
8
0
100
AcDbSpline
70
0
71
3
72
8
73
4
74
0
42
0.000000001
43
0.0000000001
44
0.0000000001
40
0
40
0
40
0
40
0
40
1
40
1
40
1
40
1
10
-74.874189209727206
20
-9.29506284238321
30
0
10
-75.961840650504641
20
-9.7587750420502335
30
0
10
-77.330710590032822
20
-10.451641602464701
30
0
10
-78.918266371032587
20
-11.47663532883082
30
0
0
ARC
5
189
100
AcDbEntity
8
0
100
AcDbCircle
10
-74.022755063927661
20
-7.0680717502229555
30
0
40
0.39999999999997038
210
0
220
-0
230
1
100
AcDbArc
50
5.4544064008832542
51
82.693055045962694
0
SPLINE
5
190
100
AcDbEntity
8
0
100
AcDbSpline
70
0
71
3
72
8
73
4
74
0
42
0.000000001
43
0.0000000001
44
0.0000000001
40
0
40
0
40
0
40
0
40
1
40
1
40
1
40
1
10
-72.181618104908523
20
-21.962613934024965
30
0
10
-71.723410507681052
20
-21.95541815310132
30
0
10
-71.319299124092709
20
-21.933924624101767
30
0
10
-70.968372598398531
20
-21.905154664043877
30
0
0
SPLINE
5
191
100
AcDbEntity
8
0
100
AcDbSpline
70
0
71
3
72
8
73
4
74
0
42
0.000000001
43
0.0000000001
44
0.0000000001
40
0
40
0
40
0
40
0
40
1
40
1
40
1
40
1
10
-66.327069245819558
20
-44.277825271127142
30
0
10
-64.461430708375559
20
-43.977261892654084
30
0
10
-62.980543874367683
20
-43.576209319109466
30
0
10
-61.86197730889166
20
-43.193033772728278
30
0
0
ARC
5
192
100
AcDbEntity
8
0
100
AcDbCircle
10
-70.935645517076964
20
-22.303813588624987
30
0
40
0.39999999999997171
210
0
220
-0
230
1
100
AcDbArc
50
17.454406400813319
51
94.693055045958147
0
ARC
5
193
100
AcDbEntity
8
0
100
AcDbCircle
10
72.583977845948894
20
-16.152153589516633
30
0
40
0.40000000000001079
210
0
220
0
230
1
100
AcDbArc
50
167.45440640085718
51
244.69305504595738
0
ARC
5
194
100
AcDbEntity
8
0
100
AcDbCircle
10
8.4765787400350714
20
73.874715013897145
30
0
40
0.39999999999997321
210
0
220
0
230
1
100
AcDbArc
50
263.45440640085684
51
340.69305504595718
0
ARC
5
195
100
AcDbEntity
8
0
100
AcDbCircle
10
-1.2231099182947978e-12
20
3.237424150118253e-12
30
0
40
73.959437232405406
210
0
220
0
230
1
100
AcDbArc
50
107.45435777303302
51
108.54564222696666
0
ARC
5
196
100
AcDbEntity
8
0
100
AcDbCircle
10
72.878435988242529
20
-14.766836947301005
30
0
40
0.39999999999999913
210
0
220
0
230
1
100
AcDbArc
50
91.306944954050877
51
168.54559359923255
0
ARC
5
197
100
AcDbEntity
8
0
100
AcDbCircle
10
-0.70813272003957928
20
74.356065344875105
30
0
40
0.40000000000000674
210
0
220
0
230
1
100
AcDbArc
50
193.30694495404265
51
270.54559359914396
0
ARC
5
198
100
AcDbEntity
8
0
100
AcDbCircle
10
5.0345918021533608e-13
20
-2.4398535582469244e-13
30
0
40
79.748391366097195
210
0
220
0
230
1
100
AcDbArc
50
242.27419698475398
51
243.72580301524542
0
SPLINE
5
199
100
AcDbEntity
8
0
100
AcDbSpline
70
0
71
3
72
8
73
4
74
0
42
0.000000001
43
0.0000000001
44
0.0000000001
40
0
40
0
40
0
40
0
40
1
40
1
40
1
40
1
10
-68.337253168147768
20
-31.977526991472544
30
0
10
-69.228376208160839
20
-32.754646279808057
30
0
10
-70.316141342107585
20
-33.836605611416431
30
0
10
-71.509256132034494
20
-35.302014289885648
30
0
0
ARC
5
200
100
AcDbEntity
8
0
100
AcDbCircle
10
-2.8389602522857472e-12
20
-5.1576480769767194e-12
30
0
40
73.959437232402991
210
0
220
0
230
1
100
AcDbArc
50
239.45435777303317
51
240.54564222696666
0
SPLINE
5
201
100
AcDbEntity
8
0
100
AcDbSpline
70
0
71
3
72
8
73
4
74
0
42
0.000000001
43
0.0000000001
44
0.0000000001
40
0
40
0
40
0
40
0
40
1
40
1
40
1
40
1
10
21.962613934025022
20
72.181618104908509
30
0
10
21.981379456224094
20
73.363845881574989
30
0
10
21.905183921216079
20
74.896185015816869
30
0
10
21.614522667441534
20
76.763391895739389
30
0
0
SPLINE
5
202
100
AcDbEntity
8
0
100
AcDbSpline
70
0
71
3
72
8
73
4
74
0
42
0.000000001
43
0.0000000001
44
0.0000000001
40
0
40
0
40
0
40
0
40
1
40
1
40
1
40
1
10
-23.992520404912746
20
70.290146355948494
30
0
10
-24.175514454739666
20
70.590962437243107
30
0
10
-24.395656536066731
20
70.930528993552088
30
0
10
-24.659162695150293
20
71.305456300566362
30
0
0
ARC
5
203
100
AcDbEntity
8
0
100
AcDbCircle
10
-4.3827888540248721e-12
20
-3.1186514491099103e-12
30
0
40
73.959437232403488
210
0
220
0
230
1
100
AcDbArc
50
215.45435777303328
51
216.54564222696678
0
ARC
5
204
100
AcDbEntity
8
0
100
AcDbCircle
10
4.3830529698960429e-12
20
5.3412326581555812e-13
30
0
40
73.959437232404511
210
-0
220
0
230
1
100
AcDbArc
50
-0.54564222696706477
51
0.54564222696572562
0
SPLINE
5
205
100
AcDbEntity
8
0
100
AcDbSpline
70
0
71
3
72
8
73
4
74
0
42
0.000000001
43
0.0000000001
44
0.0000000001
40
0
40
0
40
0
40
0
40
1
40
1
40
1
40
1
10
21.905154664043934
20
70.968372598398574
30
0
10
21.933924624101788
20
71.319299124092737
30
0
10
21.955418153101331
20
71.723410507681052
30
0
10
21.962613934025022
20
72.181618104908509
30
0
0
ARC
5
206
100
AcDbEntity
8
0
100
AcDbCircle
10
-3.5635317344578232e-12
20
-4.2708614764707965e-13
30
0
40
73.959437232405335
210
0
220
0
230
1
100
AcDbArc
50
191.45435777303339
51
192.54564222696695
0
SPLINE
5
207
100
AcDbEntity
8
0
100
AcDbSpline
70
0
71
3
72
8
73
4
74
0
42
0.000000001
43
0.0000000001
44
0.0000000001
40
0
40
0
40
0
40
0
40
1
40
1
40
1
40
1
10
16.513765886310033
20
-72.412990867474591
30
0
10
16.664313632881079
20
-72.731287133616476
30
0
10
16.847755382544683
20
-73.092004622262237
30
0
10
17.070627452078416
20
-73.492421932130014
30
0
0
ARC
5
208
100
AcDbEntity
8
0
100
AcDbCircle
10
-72.878435988242572
20
-14.766836947300897
30
0
40
0.40000000000001068
210
0
220
-0
230
1
100
AcDbArc
50
11.454406400855689
51
88.693055045955134
0
SPLINE
5
209
100
AcDbEntity
8
0
100
AcDbSpline
70
0
71
3
72
8
73
4
74
0
42
0.000000001
43
0.0000000001
44
0.0000000001
40
0
40
0
40
0
40
0
40
1
40
1
40
1
40
1
10
-21.61452266744157
20
76.763391895739403
30
0
10
-21.905183921216114
20
74.896185015816997
30
0
10
-21.981379456224065
20
73.363845881575017
30
0
10
-21.962613934024965
20
72.181618104908523
30
0
0
ARC
5
210
100
AcDbEntity
8
0
100
AcDbCircle
10
74.022755063927661
20
-7.0680717502229928
30
0
40
0.4000000000000058
210
0
220
0
230
1
100
AcDbArc
50
97.306944954041398
51
174.54559359914401
0
ARC
5
211
100
AcDbEntity
8
0
100
AcDbCircle
10
16.152153589516633
20
72.583977845948894
30
0
40
0.4000000000000476
210
0
220
0
230
1
100
AcDbArc
50
257.45440640086196
51
334.69305504595951
0
ARC
5
212
100
AcDbEntity
8
0
100
AcDbCircle
10
-2.9640485982782985e-13
20
-1.1466978272607185e-13
30
0
40
79.748391366097223
210
0
220
0
230
1
100
AcDbArc
50
110.27419698475397
51
111.72580301524559
0
ARC
5
213
100
AcDbEntity
8
0
100
AcDbCircle
10
-64.748307874137453
20
-36.564771747632285
30
0
40
0.40000000000000291
210
0
220
-0
230
1
100
AcDbArc
50
29.454406400856215
51
106.6930550459482
0
ARC
5
214
100
AcDbEntity
8
0
100
AcDbCircle
10
1.1634453332584608e-13
20
-3.2836100493997623e-13
30
0
40
79.748391366097209
210
0
220
0
230
1
100
AcDbArc
50
200.27419698475398
51
201.72580301524596
0
SPLINE
5
215
100
AcDbEntity
8
0
100
AcDbSpline
70
0
71
3
72
8
73
4
74
0
42
0.000000001
43
0.0000000001
44
0.0000000001
40
0
40
0
40
0
40
0
40
1
40
1
40
1
40
1
10
17.070627452078416
20
-73.492421932130014
30
0
10
17.645489921471963
20
-74.525643980882336
30
0
10
18.477646757564898
20
-75.814590830844978
30
0
10
19.662970227190605
20
-77.286308796091575
30
0
0
ARC
5
216
100
AcDbEntity
8
0
100
AcDbCircle
10
6.9957453199926075e-13
20
-5.3427090950357776e-12
30
0
40
73.959437232403502
210
-0
220
0
230
1
100
AcDbArc
50
275.454357773033
51
276.54564222696666
0
SPLINE
5
217
100
AcDbEntity
8
0
100
AcDbSpline
70
0
71
3
72
8
73
4
74
0
42
0.000000001
43
0.0000000001
44
0.0000000001
40
0
40
0
40
0
40
0
40
1
40
1
40
1
40
1
10
21.962613934024965
20
-72.181618104908523
30
0
10
21.95541815310132
20
-71.723410507681052
30
0
10
21.93392462410177
20
-71.319299124092794
30
0
10
21.905154664043884
20
-70.968372598398645
30
0
0
SPLINE
5
218
100
AcDbEntity
8
0
100
AcDbSpline
70
0
71
3
72
8
73
4
74
0
42
0.000000001
43
0.0000000001
44
0.0000000001
40
0
40
0
40
0
40
0
40
1
40
1
40
1
40
1
10
-66.037992368599248
20
-36.490080391562707
30
0
10
-65.591293793711841
20
-36.387775139431753
30
0
10
-65.200481969381613
20
-36.28273181456899
30
0
10
-64.863205641280416
20
-36.181628819855241
30
0
0
ARC
5
219
100
AcDbEntity
8
0
100
AcDbCircle
10
-68.215669269388087
20
-29.596424980899101
30
0
40
0.4000000000000053
210
0
220
-0
230
1
100
AcDbArc
50
23.454406400854793
51
100.69305504595798
0
SPLINE
5
220
100
AcDbEntity
8
0
100
AcDbSpline
70
0
71
3
72
8
73
4
74
0
42
0.000000001
43
0.0000000001
44
0.0000000001
40
0
40
0
40
0
40
0
40
1
40
1
40
1
40
1
10
9.29506284238321
20
-74.874189209727206
30
0
10
9.7587750420502246
20
-75.961840650504641
30
0
10
10.451641602464701
20
-77.330710590032822
30
0
10
11.476635328830811
20
-78.918266371032587
30
0
0
SPLINE
5
221
100
AcDbEntity
8
0
100
AcDbSpline
70
0
71
3
72
8
73
4
74
0
42
0.000000001
43
0.0000000001
44
0.0000000001
40
0
40
0
40
0
40
0
40
1
40
1
40
1
40
1
10
73.971881128932267
20
-6.6713201368196788
30
0
10
74.321120679114173
20
-6.6264996769136699
30
0
10
74.72087001535634
20
-6.5635040396953332
30
0
10
75.170560764200843
20
-6.4752758592560884
30
0
0
SPLINE
5
222
100
AcDbEntity
8
0
100
AcDbSpline
70
0
71
3
72
8
73
4
74
0
42
0.000000001
43
0.0000000001
44
0.0000000001
40
0
40
0
40
0
40
0
40
1
40
1
40
1
40
1
10
-1.0973931123463421
20
74.263998266170603
30
0
10
-1.1784735145761798
20
74.606639631758227
30
0
10
-1.2829092389121888
20
74.99761426215899
30
0
10
-1.4176595790698854
20
75.435619201911123
30
0
0
SPLINE
5
223
100
AcDbEntity
8
0
100
AcDbSpline
70
0
71
3
72
8
73
4
74
0
42
0.000000001
43
0.0000000001
44
0.0000000001
40
0
40
0
40
0
40
0
40
1
40
1
40
1
40
1
10
-9.2950628423832313
20
74.874189209727206
30
0
10
-9.758775042050253
20
75.961840650504641
30
0
10
-10.451641602464719
20
77.330710590032822
30
0
10
-11.47663532883084
20
78.918266371032587
30
0
0
ARC
5
224
100
AcDbEntity
8
0
100
AcDbCircle
10
1.971056905101765e-12
20
-9.6216146090490058e-13
30
0
40
73.959437232406799
210
-0
220
0
230
1
100
AcDbArc
50
353.45435777303396
51
354.54564222696735
0
SPLINE
5
225
100
AcDbEntity
8
0
100
AcDbSpline
70
0
71
3
72
8
73
4
74
0
42
0.000000001
43
0.0000000001
44
0.0000000001
40
0
40
0
40
0
40
0
40
1
40
1
40
1
40
1
10
-61.861977308891682
20
43.193033772728299
30
0
10
-62.980543874367633
20
43.576209319109537
30
0
10
-64.461430708375502
20
43.977261892654091
30
0
10
-66.327069245819601
20
44.277825271127199
30
0
0
SPLINE
5
226
100
AcDbEntity
8
0
100
AcDbSpline
70
0
71
3
72
8
73
4
74
0
42
0.000000001
43
0.0000000001
44
0.0000000001
40
0
40
0
40
0
40
0
40
1
40
1
40
1
40
1
10
-60.725868154968197
20
42.76347327973069
30
0
10
-61.050728707385076
20
42.899277397933716
30
0
10
-61.428419606325868
20
43.044596243896088
30
0
10
-61.861977308891682
20
43.193033772728299
30
0
0
SPLINE
5
227
100
AcDbEntity
8
0
100
AcDbSpline
70
0
71
3
72
8
73
4
74
0
42
0.000000001
43
0.0000000001
44
0.0000000001
40
0
40
0
40
0
40
0
40
1
40
1
40
1
40
1
10
14.366941006503339
20
72.869312582433935
30
0
10
14.358871551259121
20
73.221323975615419
30
0
10
14.338006194542348
20
73.625468280318117
30
0
10
14.297266820229439
20
74.081917932306865
30
0
0
SPLINE
5
228
100
AcDbEntity
8
0
100
AcDbSpline
70
0
71
3
72
8
73
4
74
0
42
0.000000001
43
0.0000000001
44
0.0000000001
40
0
40
0
40
0
40
0
40
1
40
1
40
1
40
1
10
9.2950628423832597
20
74.874189209727177
30
0
10
9.1152666954321724
20
74.452668952845585
30
0
10
8.9705351036289613
20
74.074752628153647
30
0
10
8.8540830929292458
20
73.74246349766409
30
0
0
SPLINE
5
229
100
AcDbEntity
8
0
100
AcDbSpline
70
0
71
3
72
8
73
4
74
0
42
0.000000001
43
0.0000000001
44
0.0000000001
40
0
40
0
40
0
40
0
40
1
40
1
40
1
40
1
10
6.4752758592560822
20
-75.1705607642008
30
0
10
6.5635040396953013
20
-74.720870015356383
30
0
10
6.6264996769136779
20
-74.321120679114216
30
0
10
6.6713201368197028
20
-73.971881128932225
30
0
0
ARC
5
230
100
AcDbEntity
8
0
100
AcDbCircle
10
7.0680717502229466
20
-74.022755063927661
30
0
40
0.3999999999999424
210
0
220
0
230
1
100
AcDbArc
50
95.454406400878668
51
172.69305504596258
0
SPLINE
5
231
100
AcDbEntity
8
0
100
AcDbSpline
70
0
71
3
72
8
73
4
74
0
42
0.000000001
43
0.0000000001
44
0.0000000001
40
0
40
0
40
0
40
0
40
1
40
1
40
1
40
1
10
-6.4752758592560822
20
75.1705607642008
30
0
10
-6.5635040396953119
20
74.720870015356383
30
0
10
-6.6264996769136868
20
74.321120679114216
30
0
10
-6.6713201368197117
20
73.971881128932225
30
0
0
SPLINE
5
232
100
AcDbEntity
8
0
100
AcDbSpline
70
0
71
3
72
8
73
4
74
0
42
0.000000001
43
0.0000000001
44
0.0000000001
40
0
40
0
40
0
40
0
40
1
40
1
40
1
40
1
10
78.918266371032502
20
-11.47663532883085
30
0
10
77.330710590032879
20
-10.451641602464814
30
0
10
75.961840650504598
20
-9.7587750420502815
30
0
10
74.874189209727177
20
-9.2950628423832597
30
0
0
ARC
5
233
100
AcDbEntity
8
0
100
AcDbCircle
10
-5.0041030958442408e-13
20
4.4849570256649755e-12
30
0
40
73.95943723240444
210
0
220
0
230
1
100
AcDbArc
50
101.45435777303361
51
102.5456422269671
0
ARC
5
234
100
AcDbEntity
8
0
100
AcDbCircle
10
23.650762064215986
20
-70.49799542754657
30
0
40
0.4000000000000058
210
0
220
-0
230
1
100
AcDbArc
50
31.306944954042265
51
108.54559359914215
0
SPLINE
5
235
100
AcDbEntity
8
0
100
AcDbSpline
70
0
71
3
72
8
73
4
74
0
42
0.000000001
43
0.0000000001
44
0.0000000001
40
0
40
0
40
0
40
0
40
1
40
1
40
1
40
1
10
24.659162695150293
20
-71.305456300566362
30
0
10
25.33887712075801
20
-72.272928760311942
30
0
10
26.301206948093039
20
-73.467830549291236
30
0
10
27.633873509000427
20
-74.80758624878078
30
0
0
ARC
5
236
100
AcDbEntity
8
0
100
AcDbCircle
10
-23.650762064215986
20
70.49799542754657
30
0
40
0.39999999999998281
210
0
220
0
230
1
100
AcDbArc
50
211.30694495404666
51
288.54559359914327
0
SPLINE
5
237
100
AcDbEntity
8
0
100
AcDbSpline
70
0
71
3
72
8
73
4
74
0
42
0.000000001
43
0.0000000001
44
0.0000000001
40
0
40
0
40
0
40
0
40
1
40
1
40
1
40
1
10
-69.490481364578088
20
-29.387334053586933
30
0
10
-69.035536040433271
20
-29.332281955908396
30
0
10
-68.635885106843631
20
-29.268665028794171
30
0
10
-68.289888273088394
20
-29.203370863136996
30
0
0
SPLINE
5
238
100
AcDbEntity
8
0
100
AcDbSpline
70
0
71
3
72
8
73
4
74
0
42
0.000000001
43
0.0000000001
44
0.0000000001
40
0
40
0
40
0
40
0
40
1
40
1
40
1
40
1
10
75.170560764200843
20
-6.4752758592560884
30
0
10
76.330855598917523
20
-6.2478323337932
30
0
10
77.813867504070615
20
-5.8547106337320187
30
0
10
79.579839561012861
20
-5.1821868862149607
30
0
0
SPLINE
5
239
100
AcDbEntity
8
0
100
AcDbSpline
70
0
71
3
72
8
73
4
74
0
42
0.000000001
43
0.0000000001
44
0.0000000001
40
0
40
0
40
0
40
0
40
1
40
1
40
1
40
1
10
79.685578904903423
20
-3.1645600121679784
30
0
10
77.999578901504762
20
-2.3111260748213325
30
0
10
76.565783497922865
20
-1.7651409811128098
30
0
10
75.435619201911109
20
-1.4176595790698872
30
0
0
ARC
5
240
100
AcDbEntity
8
0
100
AcDbCircle
10
1.6235670644441081e-12
20
3.6429634896952154e-12
30
0
40
73.959437232404937
210
0
220
-0
230
1
100
AcDbArc
50
65.454357773033266
51
66.545642226966478
0
SPLINE
5
241
100
AcDbEntity
8
0
100
AcDbSpline
70
0
71
3
72
8
73
4
74
0
42
0.000000001
43
0.0000000001
44
0.0000000001
40
0
40
0
40
0
40
0
40
1
40
1
40
1
40
1
10
73.492421932129943
20
-17.070627452078469
30
0
10
73.092004622262237
20
-16.847755382544754
30
0
10
72.73128713361649
20
-16.664313632881111
30
0
10
72.412990867474591
20
-16.513765886310047
30
0
0
ARC
5
242
100
AcDbEntity
8
0
100
AcDbCircle
10
74.356065344875176
20
-0.70813272003957317
30
0
40
0.40000000000002456
210
0
220
0
230
1
100
AcDbArc
50
179.45440640082182
51
256.69305504595735
0
ARC
5
243
100
AcDbEntity
8
0
100
AcDbCircle
10
4.1056975569700691e-14
20
3.8201109369611248e-14
30
0
40
79.748391366097223
210
0
220
0
230
1
100
AcDbArc
50
134.27419698475418
51
135.7258030152459
0
SPLINE
5
244
100
AcDbEntity
8
0
100
AcDbSpline
70
0
71
3
72
8
73
4
74
0
42
0.000000001
43
0.0000000001
44
0.0000000001
40
0
40
0
40
0
40
0
40
1
40
1
40
1
40
1
10
-59.4358051801591
20
-44.539092634527073
30
0
10
-59.665350003214705
20
-44.806087599359508
30
0
10
-59.920269345001202
20
-45.12038699693727
30
0
10
-60.195418522194771
20
-45.486855156140209
30
0
0
ARC
5
245
100
AcDbEntity
8
0
100
AcDbCircle
10
3.1380157529197997e-12
20
-4.7522817818840647e-12
30
0
40
73.959437232403161
210
-0
220
0
230
1
100
AcDbArc
50
305.45435777303345
51
306.54564222696695
0
SPLINE
5
246
100
AcDbEntity
8
0
100
AcDbSpline
70
0
71
3
72
8
73
4
74
0
42
0.000000001
43
0.0000000001
44
0.0000000001
40
0
40
0
40
0
40
0
40
1
40
1
40
1
40
1
10
-19.662970227190723
20
-77.286308796091575
30
0
10
-18.477646757564912
20
-75.814590830844949
30
0
10
-17.645489921472031
20
-74.525643980882364
30
0
10
-17.070627452078469
20
-73.492421932129943
30
0
0
SPLINE
5
247
100
AcDbEntity
8
0
100
AcDbSpline
70
0
71
3
72
8
73
4
74
0
42
0.000000001
43
0.0000000001
44
0.0000000001
40
0
40
0
40
0
40
0
40
1
40
1
40
1
40
1
10
-24.659162695150325
20
-71.305456300566405
30
0
10
-24.395656536066728
20
-70.93052899355213
30
0
10
-24.175514454739666
20
-70.590962437243135
30
0
10
-23.992520404912771
20
-70.290146355948494
30
0
0
ARC
5
248
100
AcDbEntity
8
0
100
AcDbCircle
10
-2.8575116898869724e-12
20
1.4444289328863835e-12
30
0
40
73.959437232405691
210
0
220
0
230
1
100
AcDbArc
50
149.45435777303302
51
150.54564222696661
0
SPLINE
5
249
100
AcDbEntity
8
0
100
AcDbSpline
70
0
71
3
72
8
73
4
74
0
42
0.000000001
43
0.0000000001
44
0.0000000001
40
0
40
0
40
0
40
0
40
1
40
1
40
1
40
1
10
74.874189209727177
20
-9.2950628423832597
30
0
10
74.452668952845585
20
-9.1152666954321724
30
0
10
74.074752628153647
20
-8.9705351036289613
30
0
10
73.74246349766409
20
-8.8540830929293435
30
0
0
ARC
5
250
100
AcDbEntity
8
0
100
AcDbCircle
10
-36.564771747632356
20
-64.748307874137382
30
0
40
0.40000000000002894
210
-0
220
0
230
1
100
AcDbArc
50
-16.693055045953749
51
60.545593599143778
0
ARC
5
251
100
AcDbEntity
8
0
100
AcDbCircle
10
-1.324811009916282e-14
20
-1.4713516873965245e-14
30
0
40
79.748391366097209
210
-0
220
0
230
1
100
AcDbArc
50
350.27419698475404
51
351.72580301524596
0
ARC
5
252
100
AcDbEntity
8
0
100
AcDbCircle
10
-4.1152626006426828e-12
20
3.7187201733595957e-12
30
0
40
73.959437232403303
210
0
220
0
230
1
100
AcDbArc
50
137.454357773033
51
138.54564222696675
0
SPLINE
5
253
100
AcDbEntity
8
0
100
AcDbSpline
70
0
71
3
72
8
73
4
74
0
42
0.000000001
43
0.0000000001
44
0.0000000001
40
0
40
0
40
0
40
0
40
1
40
1
40
1
40
1
10
-78.602206841739786
20
-13.472156660630175
30
0
10
-76.775611090663205
20
-13.956401907405221
30
0
10
-75.259630872712066
20
-14.192353090207208
30
0
10
-74.081917932306823
20
-14.297266820229472
30
0
0
ARC
5
254
100
AcDbEntity
8
0
100
AcDbCircle
10
74.356065344875105
20
0.70813272003958982
30
0
40
0.40000000000000674
210
0
220
0
230
1
100
AcDbArc
50
103.30694495404269
51
180.5455935992029
0
ARC
5
255
100
AcDbEntity
8
0
100
AcDbCircle
10
73.874715013897145
20
-8.4765787400351709
30
0
40
0.40000000000002872
210
0
220
0
230
1
100
AcDbArc
50
173.45440640082495
51
250.69305504595627
0
ARC
5
256
100
AcDbEntity
8
0
100
AcDbCircle
10
-59.739090529353085
20
-44.278290032998001
30
0
40
0.40000000000006636
210
-0
220
0
230
1
100
AcDbArc
50
-40.6930550459548
51
36.545593599141739
0
ARC
5
257
100
AcDbEntity
8
0
100
AcDbCircle
10
-14.766836947300998
20
72.878435988242558
30
0
40
0.40000000000001068
210
-0
220
0
230
1
100
AcDbArc
50
281.45440640085639
51
358.69305504595764
0
SPLINE
5
258
100
AcDbEntity
8
0
100
AcDbSpline
70
0
71
3
72
8
73
4
74
0
42
0.000000001
43
0.0000000001
44
0.0000000001
40
0
40
0
40
0
40
0
40
1
40
1
40
1
40
1
10
-14.297266820229472
20
74.081917932306823
30
0
10
-14.338006194542407
20
73.625468280318174
30
0
10
-14.35887155125906
20
73.221323975615419
30
0
10
-14.366941006503263
20
72.86931258243402
30
0
0
SPLINE
5
259
100
AcDbEntity
8
0
100
AcDbSpline
70
0
71
3
72
8
73
4
74
0
42
0.000000001
43
0.0000000001
44
0.0000000001
40
0
40
0
40
0
40
0
40
1
40
1
40
1
40
1
10
-73.742463497664119
20
-8.8540830929292476
30
0
10
-74.07475262815359
20
-8.9705351036288832
30
0
10
-74.452668952845599
20
-9.1152666954321102
30
0
10
-74.874189209727206
20
-9.29506284238321
30
0
0
ARC
5
260
100
AcDbEntity
8
0
100
AcDbCircle
10
1.3980813486564032e-14
20
7.3270338740121355e-16
30
0
40
79.748391366097209
210
0
220
-0
230
1
100
AcDbArc
50
2.2741969847540466
51
3.7258030152458641
0
SPLINE
5
261
100
AcDbEntity
8
0
100
AcDbSpline
70
0
71
3
72
8
73
4
74
0
42
0.000000001
43
0.0000000001
44
0.0000000001
40
0
40
0
40
0
40
0
40
1
40
1
40
1
40
1
10
-74.08354116435676
20
-29.520075440778744
30
0
10
-72.196180664903039
20
-29.613968156031632
30
0
10
-70.664271242587574
20
-29.529573229019213
30
0
10
-69.490481364578088
20
-29.387334053586933
30
0
0
SPLINE
5
262
100
AcDbEntity
8
0
100
AcDbSpline
70
0
71
3
72
8
73
4
74
0
42
0.000000001
43
0.0000000001
44
0.0000000001
40
0
40
0
40
0
40
0
40
1
40
1
40
1
40
1
10
-17.070627452078512
20
73.492421932130014
30
0
10
-17.645489921472063
20
74.525643980882336
30
0
10
-18.477646757564894
20
75.814590830844878
30
0
10
-19.662970227190709
20
77.286308796091561
30
0
0
SPLINE
5
263
100
AcDbEntity
8
0
100
AcDbSpline
70
0
71
3
72
8
73
4
74
0
42
0.000000001
43
0.0000000001
44
0.0000000001
40
0
40
0
40
0
40
0
40
1
40
1
40
1
40
1
10
31.977526991472534
20
68.337253168147797
30
0
10
31.676273771460252
20
67.991923646021192
30
0
10
31.421843281180514
20
67.677228384298743
30
0
10
31.208407849201556
20
67.397188291787899
30
0
0
SPLINE
5
264
100
AcDbEntity
8
0
100
AcDbSpline
70
0
71
3
72
8
73
4
74
0
42
0.000000001
43
0.0000000001
44
0.0000000001
40
0
40
0
40
0
40
0
40
1
40
1
40
1
40
1
10
24.659162695150325
20
71.305456300566405
30
0
10
24.395656536066728
20
70.93052899355213
30
0
10
24.175514454739666
20
70.590962437243135
30
0
10
23.992520404912771
20
70.290146355948494
30
0
0
SPLINE
5
265
100
AcDbEntity
8
0
100
AcDbSpline
70
0
71
3
72
8
73
4
74
0
42
0.000000001
43
0.0000000001
44
0.0000000001
40
0
40
0
40
0
40
0
40
1
40
1
40
1
40
1
10
-21.962613934024965
20
72.181618104908523
30
0
10
-21.95541815310132
20
71.723410507681052
30
0
10
-21.933924624101767
20
71.319299124092709
30
0
10
-21.905154664043877
20
70.968372598398531
30
0
0
SPLINE
5
266
100
AcDbEntity
8
0
100
AcDbSpline
70
0
71
3
72
8
73
4
74
0
42
0.000000001
43
0.0000000001
44
0.0000000001
40
0
40
0
40
0
40
0
40
1
40
1
40
1
40
1
10
1.4176595790698872
20
75.435619201911109
30
0
10
1.2829092389121843
20
74.997614262158947
30
0
10
1.178473514576186
20
74.606639631758171
30
0
10
1.0973931123463465
20
74.263998266170631
30
0
0
ARC
5
267
100
AcDbEntity
8
0
100
AcDbCircle
10
-60.571550468363078
20
-43.132507223428114
30
0
40
0.40000000000000535
210
0
220
-0
230
1
100
AcDbArc
50
35.454406400856257
51
112.69305504595656
0
SPLINE
5
268
100
AcDbEntity
8
0
100
AcDbSpline
70
0
71
3
72
8
73
4
74
0
42
0.000000001
43
0.0000000001
44
0.0000000001
40
0
40
0
40
0
40
0
40
1
40
1
40
1
40
1
10
75.435619201911123
20
1.4176595790698854
30
0
10
76.56578349792278
20
1.7651409811128098
30
0
10
77.999578901504691
20
2.3111260748213365
30
0
10
79.685578904903437
20
3.1645600121679758
30
0
0
SPLINE
5
269
100
AcDbEntity
8
0
100
AcDbSpline
70
0
71
3
72
8
73
4
74
0
42
0.000000001
43
0.0000000001
44
0.0000000001
40
0
40
0
40
0
40
0
40
1
40
1
40
1
40
1
10
-76.763391895739403
20
-21.61452266744157
30
0
10
-74.896185015816997
20
-21.905183921216114
30
0
10
-73.363845881575017
20
-21.981379456224065
30
0
10
-72.181618104908523
20
-21.962613934024965
30
0
0
SPLINE
5
270
100
AcDbEntity
8
0
100
AcDbSpline
70
0
71
3
72
8
73
4
74
0
42
0.000000001
43
0.0000000001
44
0.0000000001
40
0
40
0
40
0
40
0
40
1
40
1
40
1
40
1
10
-72.412990867474591
20
-16.513765886310033
30
0
10
-72.731287133616476
20
-16.664313632881079
30
0
10
-73.092004622262237
20
-16.847755382544783
30
0
10
-73.492421932130014
20
-17.070627452078512
30
0
0
SPLINE
5
271
100
AcDbEntity
8
0
100
AcDbSpline
70
0
71
3
72
8
73
4
74
0
42
0.000000001
43
0.0000000001
44
0.0000000001
40
0
40
0
40
0
40
0
40
1
40
1
40
1
40
1
10
-64.620332789529343
20
-38.945538810348452
30
0
10
-65.425343079304071
20
-39.8115486798661
30
0
10
-66.394053775781202
20
-41.001283342896251
30
0
10
-67.427455640831738
20
-42.58337881478959
30
0
0
ARC
5
272
100
AcDbEntity
8
0
100
AcDbCircle
10
1.9055625508405739e-12
20
3.9561512060124759e-12
30
0
40
73.959437232404511
210
0
220
-0
230
1
100
AcDbArc
50
71.454357773033706
51
72.545642226966891
0
ARC
5
273
100
AcDbEntity
8
0
100
AcDbCircle
10
-4.5222786544917291e-17
20
2.6836541870162703e-13
30
0
40
79.748391366097223
210
-0
220
0
230
1
100
AcDbArc
50
356.2741969847541
51
357.72580301524567
0
SPLINE
5
274
100
AcDbEntity
8
0
100
AcDbSpline
70
0
71
3
72
8
73
4
74
0
42
0.000000001
43
0.0000000001
44
0.0000000001
40
0
40
0
40
0
40
0
40
1
40
1
40
1
40
1
10
-63.765812528934092
20
-38.082369446315312
30
0
10
-64.022008454805459
20
-38.323907817189252
30
0
10
-64.308384554799702
20
-38.609839122727195
30
0
10
-64.620332789529343
20
-38.945538810348452
30
0
0
ARC
5
275
100
AcDbEntity
8
0
100
AcDbCircle
10
-73.874715013897173
20
-8.4765787400350554
30
0
40
0.40000000000000302
210
-0
220
0
230
1
100
AcDbArc
50
-70.693055045957252
51
6.5455935992642083
0
ARC
5
276
100
AcDbEntity
8
0
100
AcDbCircle
10
3.1686970595980109e-13
20
2.0186032162103881e-13
30
0
40
79.748391366097209
210
-0
220
0
230
1
100
AcDbArc
50
302.27419698475393
51
303.72580301524556
0
ARC
5
277
100
AcDbEntity
8
0
100
AcDbCircle
10
-70.49799542754657
20
-23.650762064215986
30
0
40
0.39999999999998281
210
-0
220
0
230
1
100
AcDbArc
50
-58.693055045953322
51
18.545593599201059
0
ARC
5
278
100
AcDbEntity
8
0
100
AcDbCircle
10
-4.350540597728238e-14
20
2.9512756504730601e-13
30
0
40
79.748391366097223
210
0
220
0
230
1
100
AcDbArc
50
188.27419698475393
51
189.72580301524593
0
ARC
5
279
100
AcDbEntity
8
0
100
AcDbCircle
10
74.022755063927661
20
7.0680717502229555
30
0
40
0.40000000000000668
210
0
220
0
230
1
100
AcDbArc
50
185.45440640085587
51
262.69305504595656
0
ARC
5
280
100
AcDbEntity
8
0
100
AcDbCircle
10
72.583977845948894
20
16.152153589516605
30
0
40
0.39999999999998981
210
0
220
0
230
1
100
AcDbArc
50
115.3069449540437
51
192.54559359914074
0
SPLINE
5
281
100
AcDbEntity
8
0
100
AcDbSpline
70
0
71
3
72
8
73
4
74
0
42
0.000000001
43
0.0000000001
44
0.0000000001
40
0
40
0
40
0
40
0
40
1
40
1
40
1
40
1
10
72.412990867474591
20
16.513765886310033
30
0
10
72.731287133616462
20
16.664313632881182
30
0
10
73.092004622262237
20
16.847755382544783
30
0
10
73.492421932130014
20
17.070627452078512
30
0
0
ARC
5
282
100
AcDbEntity
8
0
100
AcDbCircle
10
-5.3134871587466803e-12
20
-7.030499369419882e-13
30
0
40
73.959437232403502
210
0
220
0
230
1
100
AcDbArc
50
185.45435777303291
51
186.54564222696595
0
SPLINE
5
283
100
AcDbEntity
8
0
100
AcDbSpline
70
0
71
3
72
8
73
4
74
0
42
0.000000001
43
0.0000000001
44
0.0000000001
40
0
40
0
40
0
40
0
40
1
40
1
40
1
40
1
10
-71.305456300566362
20
-24.659162695150293
30
0
10
-72.272928760311942
20
-25.33887712075801
30
0
10
-73.467830549291236
20
-26.301206948093039
30
0
10
-74.80758624878078
20
-27.633873509000427
30
0
0
ARC
5
284
100
AcDbEntity
8
0
100
AcDbCircle
10
-6.6179876789529609e-12
20
-3.2498124686244251e-12
30
0
40
73.959437232401456
210
0
220
0
230
1
100
AcDbArc
50
203.45435777303302
51
204.54564222696598
0
ARC
5
285
100
AcDbEntity
8
0
100
AcDbCircle
10
2.0186032162103881e-13
20
-3.1686970595980109e-13
30
0
40
79.748391366097209
210
0
220
0
230
1
100
AcDbArc
50
212.27419698475396
51
213.72580301524499
0
SPLINE
5
286
100
AcDbEntity
8
0
100
AcDbSpline
70
0
71
3
72
8
73
4
74
0
42
0.000000001
43
0.0000000001
44
0.0000000001
40
0
40
0
40
0
40
0
40
1
40
1
40
1
40
1
10
-79.579839561012847
20
-5.1821868862149501
30
0
10
-77.813867504070515
20
-5.8547106337320107
30
0
10
-76.330855598917509
20
-6.2478323337931938
30
0
10
-75.1705607642008
20
-6.4752758592560822
30
0
0
SPLINE
5
287
100
AcDbEntity
8
0
100
AcDbSpline
70
0
71
3
72
8
73
4
74
0
42
0.000000001
43
0.0000000001
44
0.0000000001
40
0
40
0
40
0
40
0
40
1
40
1
40
1
40
1
10
-67.39718829178787
20
-31.208407849201571
30
0
10
-67.677228384298743
20
-31.421843281180458
30
0
10
-67.991923646021192
20
-31.676273771460231
30
0
10
-68.337253168147768
20
-31.977526991472544
30
0
0
ARC
5
288
100
AcDbEntity
8
0
100
AcDbCircle
10
-67.639622218586041
20
-30.890247840499573
30
0
40
0.40000000000005131
210
-0
220
0
230
1
100
AcDbArc
50
-52.693055045963874
51
24.54559359924674
0
ARC
5
289
100
AcDbEntity
8
0
100
AcDbCircle
10
-6.7217458956221082e-13
20
4.4759552411911888e-12
30
0
40
73.959437232404298
210
0
220
0
230
1
100
AcDbArc
50
95.454357773033095
51
96.545642226966905
0
ARC
5
290
100
AcDbEntity
8
0
100
AcDbCircle
10
-7.0680717502229555
20
74.022755063927661
30
0
40
0.40000000000001512
210
-0
220
0
230
1
100
AcDbArc
50
275.45440640085445
51
352.69305504596252
0
ARC
5
291
100
AcDbEntity
8
0
100
AcDbCircle
10
2.7849841890944151e-14
20
-2.6390412332256089e-13
30
0
40
79.748391366097223
210
0
220
-0
230
1
100
AcDbArc
50
8.2741969847542922
51
9.7258030152460009
0
SPLINE
5
292
100
AcDbEntity
8
0
100
AcDbSpline
70
0
71
3
72
8
73
4
74
0
42
0.000000001
43
0.0000000001
44
0.0000000001
40
0
40
0
40
0
40
0
40
1
40
1
40
1
40
1
10
75.1705607642008
20
6.4752758592560911
30
0
10
74.720870015356383
20
6.5635040396953119
30
0
10
74.321120679114216
20
6.6264996769136868
30
0
10
73.971881128932225
20
6.6713201368197117
30
0
0
SPLINE
5
293
100
AcDbEntity
8
0
100
AcDbSpline
70
0
71
3
72
8
73
4
74
0
42
0.000000001
43
0.0000000001
44
0.0000000001
40
0
40
0
40
0
40
0
40
1
40
1
40
1
40
1
10
74.081917932306823
20
14.297266820229472
30
0
10
73.625468280318174
20
14.338006194542407
30
0
10
73.221323975615419
20
14.35887155125906
30
0
10
72.86931258243402
20
14.366941006503263
30
0
0
ARC
5
294
100
AcDbEntity
8
0
100
AcDbCircle
10
-1.675634638193111e-12
20
4.2100738187456339e-12
30
0
40
73.959437232404298
210
0
220
0
230
1
100
AcDbArc
50
113.45435777303301
51
114.54564222696688
0
ARC
5
295
100
AcDbEntity
8
0
100
AcDbCircle
10
4.2730678373566038e-12
20
-8.0475197101720927e-14
30
0
40
73.959437232404568
210
0
220
-0
230
1
100
AcDbArc
50
5.454357773033597
51
6.5456422269671481
0
SPLINE
5
296
100
AcDbEntity
8
0
100
AcDbSpline
70
0
71
3
72
8
73
4
74
0
42
0.000000001
43
0.0000000001
44
0.0000000001
40
0
40
0
40
0
40
0
40
1
40
1
40
1
40
1
10
74.874189209727106
20
9.2950628423832331
30
0
10
75.961840650504641
20
9.7587750420502655
30
0
10
77.330710590032822
20
10.451641602464729
30
0
10
78.918266371032473
20
11.476635328830845
30
0
0
SPLINE
5
297
100
AcDbEntity
8
0
100
AcDbSpline
70
0
71
3
72
8
73
4
74
0
42
0.000000001
43
0.0000000001
44
0.0000000001
40
0
40
0
40
0
40
0
40
1
40
1
40
1
40
1
10
-45.486855156140209
20
60.195418522194771
30
0
10
-46.432267421485378
20
60.905496200537343
30
0
10
-47.716742434001162
20
61.744539062438434
30
0
10
-49.398190930253733
20
62.606905835525914
30
0
0
SPLINE
5
298
100
AcDbEntity
8
0
100
AcDbSpline
70
0
71
3
72
8
73
4
74
0
42
0.000000001
43
0.0000000001
44
0.0000000001
40
0
40
0
40
0
40
0
40
1
40
1
40
1
40
1
10
-38.082369446315312
20
63.765812528934092
30
0
10
-38.323907817189252
20
64.022008454805459
30
0
10
-38.609839122727195
20
64.308384554799702
30
0
10
-38.945538810348452
20
64.620332789529343
30
0
0
SPLINE
5
299
100
AcDbEntity
8
0
100
AcDbSpline
70
0
71
3
72
8
73
4
74
0
42
0.000000001
43
0.0000000001
44
0.0000000001
40
0
40
0
40
0
40
0
40
1
40
1
40
1
40
1
10
73.742463497664119
20
8.854083092929276
30
0
10
74.07475262815359
20
8.9705351036289134
30
0
10
74.452668952845599
20
9.1152666954321404
30
0
10
74.874189209727106
20
9.2950628423832331
30
0
0
SPLINE
5
300
100
AcDbEntity
8
0
100
AcDbSpline
70
0
71
3
72
8
73
4
74
0
42
0.000000001
43
0.0000000001
44
0.0000000001
40
0
40
0
40
0
40
0
40
1
40
1
40
1
40
1
10
77.286308796091575
20
-19.662970227190723
30
0
10
75.814590830844949
20
-18.477646757564912
30
0
10
74.525643980882364
20
-17.645489921472031
30
0
10
73.492421932129943
20
-17.070627452078469
30
0
0
SPLINE
5
301
100
AcDbEntity
8
0
100
AcDbSpline
70
0
71
3
72
8
73
4
74
0
42
0.000000001
43
0.0000000001
44
0.0000000001
40
0
40
0
40
0
40
0
40
1
40
1
40
1
40
1
10
-29.520075440778744
20
74.08354116435676
30
0
10
-29.613968156031643
20
72.196180664903153
30
0
10
-29.529573229019213
20
70.664271242587574
30
0
10
-29.387334053586933
20
69.490481364578088
30
0
0
SPLINE
5
302
100
AcDbEntity
8
0
100
AcDbSpline
70
0
71
3
72
8
73
4
74
0
42
0.000000001
43
0.0000000001
44
0.0000000001
40
0
40
0
40
0
40
0
40
1
40
1
40
1
40
1
10
79.579839561012847
20
5.1821868862149589
30
0
10
77.813867504070515
20
5.8547106337320205
30
0
10
76.330855598917509
20
6.2478323337932036
30
0
10
75.1705607642008
20
6.4752758592560911
30
0
0
ARC
5
303
100
AcDbEntity
8
0
100
AcDbCircle
10
-1.450417304899347e-14
20
9.2535919601445242e-15
30
0
40
79.748391366097209
210
0
220
0
230
1
100
AcDbArc
50
182.2741969847539
51
183.72580301524596
0
ARC
5
304
100
AcDbEntity
8
0
100
AcDbCircle
10
-1.534237433799275e-12
20
-1.1438634082481243e-12
30
0
40
73.959437232407083
210
0
220
0
230
1
100
AcDbArc
50
197.45435777303294
51
198.54564222696595
0
ARC
5
305
100
AcDbEntity
8
0
100
AcDbCircle
10
-49.22767392402654
20
55.73115848024554
30
0
40
0.39999999999997904
210
-0
220
0
230
1
100
AcDbArc
50
-48.545593599125041
51
28.693055045958236
0
SPLINE
5
306
100
AcDbEntity
8
0
100
AcDbSpline
70
0
71
3
72
8
73
4
74
0
42
0.000000001
43
0.0000000001
44
0.0000000001
40
0
40
0
40
0
40
0
40
1
40
1
40
1
40
1
10
-36.181628819855305
20
-64.863205641280388
30
0
10
-36.282731814569075
20
-65.200481969381613
30
0
10
-36.387775139431795
20
-65.591293793711799
30
0
10
-36.490080391562778
20
-66.037992368599191
30
0
0
SPLINE
5
307
100
AcDbEntity
8
0
100
AcDbSpline
70
0
71
3
72
8
73
4
74
0
42
0.000000001
43
0.0000000001
44
0.0000000001
40
0
40
0
40
0
40
0
40
1
40
1
40
1
40
1
10
78.602206841739786
20
13.472156660630203
30
0
10
76.775611090663205
20
13.956401907405251
30
0
10
75.259630872712066
20
14.192353090207208
30
0
10
74.081917932306823
20
14.297266820229472
30
0
0
ARC
5
308
100
AcDbEntity
8
0
100
AcDbCircle
10
-2.319861955056623e-13
20
-1.9741176534038858e-13
30
0
40
79.748391366097252
210
0
220
0
230
1
100
AcDbArc
50
128.27419698475396
51
129.72580301524599
0
ARC
5
309
100
AcDbEntity
8
0
100
AcDbCircle
10
-2.2504461184465846e-15
20
4.2941069994446666e-14
30
0
40
79.748391366097223
210
0
220
0
230
1
100
AcDbArc
50
194.27419698475418
51
195.72580301524584
0
ARC
5
310
100
AcDbEntity
8
0
100
AcDbCircle
10
-2.0561414820054005e-12
20
-4.1417774683900812e-13
30
0
40
73.959437232406898
210
0
220
0
230
1
100
AcDbArc
50
209.45435777303371
51
210.54564222696723
0
ARC
5
311
100
AcDbEntity
8
0
100
AcDbCircle
10
-37.791293597242849
20
64.040175154097852
30
0
40
0.40000000000001029
210
0
220
0
230
1
100
AcDbArc
50
223.30694495404535
51
300.54559359921581
0
ARC
5
312
100
AcDbEntity
8
0
100
AcDbCircle
10
73.874715013897159
20
8.4765787400350838
30
0
40
0.40000000000000302
210
0
220
0
230
1
100
AcDbArc
50
109.30694495404086
51
186.54559359914296
0
ARC
5
313
100
AcDbEntity
8
0
100
AcDbCircle
10
4.2321072563239132e-12
20
1.255211604061435e-12
30
0
40
73.95943723240444
210
0
220
-0
230
1
100
AcDbArc
50
11.454357773033008
51
12.545642226966503
0
SPLINE
5
314
100
AcDbEntity
8
0
100
AcDbSpline
70
0
71
3
72
8
73
4
74
0
42
0.000000001
43
0.0000000001
44
0.0000000001
40
0
40
0
40
0
40
0
40
1
40
1
40
1
40
1
10
-75.1705607642008
20
-6.4752758592560822
30
0
10
-74.720870015356383
20
-6.5635040396953013
30
0
10
-74.321120679114216
20
-6.6264996769136779
30
0
10
-73.971881128932225
20
-6.6713201368197028
30
0
0
SPLINE
5
315
100
AcDbEntity
8
0
100
AcDbSpline
70
0
71
3
72
8
73
4
74
0
42
0.000000001
43
0.0000000001
44
0.0000000001
40
0
40
0
40
0
40
0
40
1
40
1
40
1
40
1
10
-49.422755237156494
20
57.008189480336924
30
0
10
-49.229811744251435
20
56.592522799009728
30
0
10
-49.045809520875743
20
56.232090885984071
30
0
10
-48.876792177521239
20
55.923205349445233
30
0
0
SPLINE
5
316
100
AcDbEntity
8
0
100
AcDbSpline
70
0
71
3
72
8
73
4
74
0
42
0.000000001
43
0.0000000001
44
0.0000000001
40
0
40
0
40
0
40
0
40
1
40
1
40
1
40
1
10
-43.193033772728278
20
61.86197730889166
30
0
10
-43.044596243896123
20
61.428419606325889
30
0
10
-42.899277397933695
20
61.050728707385034
30
0
10
-42.763473279730668
20
60.725868154968133
30
0
0
ARC
5
317
100
AcDbEntity
8
0
100
AcDbCircle
10
-36.564771747632278
20
64.748307874137353
30
0
40
0.40000000000000924
210
-0
220
0
230
1
100
AcDbArc
50
-60.545593599172946
51
16.693055045962119
0
ARC
5
318
100
AcDbEntity
8
0
100
AcDbCircle
10
-3.6459031190122999e-12
20
-4.7946892159594949e-13
30
0
40
73.959437232405207
210
0
220
0
230
1
100
AcDbArc
50
179.45435777303294
51
180.54564222696573
0
SPLINE
5
319
100
AcDbEntity
8
0
100
AcDbSpline
70
0
71
3
72
8
73
4
74
0
42
0.000000001
43
0.0000000001
44
0.0000000001
40
0
40
0
40
0
40
0
40
1
40
1
40
1
40
1
10
-79.685578904903423
20
3.1645600121680086
30
0
10
-77.999578901504762
20
2.3111260748213516
30
0
10
-76.565783497922865
20
1.7651409811128298
30
0
10
-75.435619201911109
20
1.4176595790699058
30
0
0
ARC
5
320
100
AcDbEntity
8
0
100
AcDbCircle
10
-44.278290032998001
20
59.739090529353085
30
0
40
0.40000000000000269
210
0
220
0
230
1
100
AcDbArc
50
229.30694495403935
51
306.54559359928913
0
ARC
5
321
100
AcDbEntity
8
0
100
AcDbCircle
10
-30.890247840499573
20
67.639622218586041
30
0
40
0.40000000000000857
210
0
220
0
230
1
100
AcDbArc
50
217.30694495404268
51
294.54559359914316
0
SPLINE
5
322
100
AcDbEntity
8
0
100
AcDbSpline
70
0
71
3
72
8
73
4
74
0
42
0.000000001
43
0.0000000001
44
0.0000000001
40
0
40
0
40
0
40
0
40
1
40
1
40
1
40
1
10
-31.208407849201571
20
67.39718829178787
30
0
10
-31.421843281180458
20
67.677228384298743
30
0
10
-31.676273771460231
20
67.991923646021192
30
0
10
-31.977526991472544
20
68.337253168147768
30
0
0
SPLINE
5
323
100
AcDbEntity
8
0
100
AcDbSpline
70
0
71
3
72
8
73
4
74
0
42
0.000000001
43
0.0000000001
44
0.0000000001
40
0
40
0
40
0
40
0
40
1
40
1
40
1
40
1
10
-37.102200090113847
20
70.592015652999777
30
0
10
-36.998295558608497
20
68.705179850602477
30
0
10
-36.754234818056673
20
67.190484060416964
30
0
10
-36.490080391562707
20
66.037992368599248
30
0
0
SPLINE
5
324
100
AcDbEntity
8
0
100
AcDbSpline
70
0
71
3
72
8
73
4
74
0
42
0.000000001
43
0.0000000001
44
0.0000000001
40
0
40
0
40
0
40
0
40
1
40
1
40
1
40
1
10
-1.4176595790698854
20
75.435619201911123
30
0
10
-1.7651409811128098
20
76.56578349792278
30
0
10
-2.3111260748213263
20
77.999578901504691
30
0
10
-3.1645600121679758
20
79.685578904903437
30
0
0
SPLINE
5
325
100
AcDbEntity
8
0
100
AcDbSpline
70
0
71
3
72
8
73
4
74
0
42
0.000000001
43
0.0000000001
44
0.0000000001
40
0
40
0
40
0
40
0
40
1
40
1
40
1
40
1
10
-75.435619201911109
20
1.4176595790699058
30
0
10
-74.997614262158947
20
1.2829092389122043
30
0
10
-74.606639631758171
20
1.178473514576206
30
0
10
-74.263998266170631
20
1.0973931123463672
30
0
0
SPLINE
5
326
100
AcDbEntity
8
0
100
AcDbSpline
70
0
71
3
72
8
73
4
74
0
42
0.000000001
43
0.0000000001
44
0.0000000001
40
0
40
0
40
0
40
0
40
1
40
1
40
1
40
1
10
73.492421932130014
20
17.070627452078512
30
0
10
74.525643980882336
20
17.645489921472063
30
0
10
75.814590830844878
20
18.477646757564894
30
0
10
77.286308796091561
20
19.662970227190709
30
0
0
ARC
5
327
100
AcDbEntity
8
0
100
AcDbCircle
10
-74.356065344875176
20
0.70813272003960315
30
0
40
0.40000000000005576
210
-0
220
0
230
1
100
AcDbArc
50
-0.54559359916751682
51
76.693055045957379
0
ARC
5
328
100
AcDbEntity
8
0
100
AcDbCircle
10
-2.9589848572995503e-13
20
-2.00761266539937e-13
30
0
40
79.748391366097181
210
0
220
0
230
1
100
AcDbArc
50
122.27419698475393
51
123.72580301524501
0
ARC
5
329
100
AcDbEntity
8
0
100
AcDbCircle
10
-2.3083288182288339e-12
20
3.3087258978244591e-12
30
0
40
73.959437232404795
210
0
220
0
230
1
100
AcDbArc
50
125.45435777303301
51
126.54564222696598
0
SPLINE
5
330
100
AcDbEntity
8
0
100
AcDbSpline
70
0
71
3
72
8
73
4
74
0
42
0.000000001
43
0.0000000001
44
0.0000000001
40
0
40
0
40
0
40
0
40
1
40
1
40
1
40
1
10
-74.263998266170603
20
-1.0973931123463421
30
0
10
-74.606639631758227
20
-1.1784735145761687
30
0
10
-74.99761426215899
20
-1.2829092389121788
30
0
10
-75.435619201911123
20
-1.4176595790698747
30
0
0
ARC
5
331
100
AcDbEntity
8
0
100
AcDbCircle
10
72.878435988242472
20
14.766836947300991
30
0
40
0.40000000000000191
210
0
220
0
230
1
100
AcDbArc
50
191.45440640085542
51
268.69305504596969
0
ARC
5
332
100
AcDbEntity
8
0
100
AcDbCircle
10
-2.5813832411616332e-12
20
3.4936888187487251e-12
30
0
40
73.959437232404511
210
0
220
0
230
1
100
AcDbArc
50
119.454357773033
51
120.545642226966
0
ARC
5
333
100
AcDbEntity
8
0
100
AcDbCircle
10
-2.8069647054159427e-12
20
2.7919210487671728e-12
30
0
40
73.959437232404909
210
0
220
0
230
1
100
AcDbArc
50
131.45435777303302
51
132.545642226967
0
SPLINE
5
334
100
AcDbEntity
8
0
100
AcDbSpline
70
0
71
3
72
8
73
4
74
0
42
0.000000001
43
0.0000000001
44
0.0000000001
40
0
40
0
40
0
40
0
40
1
40
1
40
1
40
1
10
-73.971881128932267
20
6.6713201368196788
30
0
10
-74.321120679114173
20
6.6264996769136699
30
0
10
-74.72087001535634
20
6.5635040396953332
30
0
10
-75.170560764200843
20
6.4752758592560884
30
0
0
ARC
5
335
100
AcDbEntity
8
0
100
AcDbCircle
10
-43.132507223428114
20
60.571550468363078
30
0
40
0.40000000000003816
210
-0
220
0
230
1
100
AcDbArc
50
-54.545593599083396
51
22.693055045954029
0
SPLINE
5
336
100
AcDbEntity
8
0
100
AcDbSpline
70
0
71
3
72
8
73
4
74
0
42
0.000000001
43
0.0000000001
44
0.0000000001
40
0
40
0
40
0
40
0
40
1
40
1
40
1
40
1
10
-44.277825271127142
20
66.327069245819558
30
0
10
-43.977261892654084
20
64.461430708375559
30
0
10
-43.576209319109466
20
62.980543874367683
30
0
10
-43.193033772728278
20
61.86197730889166
30
0
0
SPLINE
5
337
100
AcDbEntity
8
0
100
AcDbSpline
70
0
71
3
72
8
73
4
74
0
42
0.000000001
43
0.0000000001
44
0.0000000001
40
0
40
0
40
0
40
0
40
1
40
1
40
1
40
1
10
-42.583378814789576
20
-67.427455640831809
30
0
10
-41.001283342896272
20
-66.394053775781117
30
0
10
-39.8115486798661
20
-65.425343079304085
30
0
10
-38.945538810348509
20
-64.620332789529286
30
0
0
ARC
5
338
100
AcDbEntity
8
0
100
AcDbCircle
10
8.2326161767932556e-14
20
3.2074819265049682e-13
30
0
40
79.748391366097195
210
0
220
0
230
1
100
AcDbArc
50
164.27419698475407
51
165.72580301524599
0
SPLINE
5
339
100
AcDbEntity
8
0
100
AcDbSpline
70
0
71
3
72
8
73
4
74
0
42
0.000000001
43
0.0000000001
44
0.0000000001
40
0
40
0
40
0
40
0
40
1
40
1
40
1
40
1
10
-67.427455640831809
20
42.583378814789576
30
0
10
-66.394053775781117
20
41.001283342896272
30
0
10
-65.425343079304085
20
39.8115486798661
30
0
10
-64.620332789529286
20
38.945538810348509
30
0
0
ARC
5
340
100
AcDbEntity
8
0
100
AcDbCircle
10
-14.766836947301005
20
-72.878435988242529
30
0
40
0.39999999999999913
210
0
220
-0
230
1
100
AcDbArc
50
1.3069449540507621
51
78.545593599240078
0
SPLINE
5
341
100
AcDbEntity
8
0
100
AcDbSpline
70
0
71
3
72
8
73
4
74
0
42
0.000000001
43
0.0000000001
44
0.0000000001
40
0
40
0
40
0
40
0
40
1
40
1
40
1
40
1
10
-49.398190930253747
20
-62.606905835525893
30
0
10
-47.716742434001141
20
-61.744539062438335
30
0
10
-46.432267421485378
20
-60.905496200537293
30
0
10
-45.486855156140244
20
-60.195418522194821
30
0
0
SPLINE
5
342
100
AcDbEntity
8
0
100
AcDbSpline
70
0
71
3
72
8
73
4
74
0
42
0.000000001
43
0.0000000001
44
0.0000000001
40
0
40
0
40
0
40
0
40
1
40
1
40
1
40
1
10
-72.181618104908509
20
21.962613934025022
30
0
10
-73.363845881574989
20
21.981379456224094
30
0
10
-74.896185015816869
20
21.905183921216079
30
0
10
-76.763391895739389
20
21.614522667441534
30
0
0
SPLINE
5
343
100
AcDbEntity
8
0
100
AcDbSpline
70
0
71
3
72
8
73
4
74
0
42
0.000000001
43
0.0000000001
44
0.0000000001
40
0
40
0
40
0
40
0
40
1
40
1
40
1
40
1
10
-68.337253168147797
20
31.977526991472534
30
0
10
-67.991923646021192
20
31.676273771460252
30
0
10
-67.677228384298743
20
31.421843281180514
30
0
10
-67.397188291787899
20
31.208407849201556
30
0
0
SPLINE
5
344
100
AcDbEntity
8
0
100
AcDbSpline
70
0
71
3
72
8
73
4
74
0
42
0.000000001
43
0.0000000001
44
0.0000000001
40
0
40
0
40
0
40
0
40
1
40
1
40
1
40
1
10
17.070627452078469
20
73.492421932129943
30
0
10
16.847755382544754
20
73.092004622262237
30
0
10
16.664313632881111
20
72.73128713361649
30
0
10
16.513765886310047
20
72.412990867474591
30
0
0
ARC
5
345
100
AcDbEntity
8
0
100
AcDbCircle
10
-3.0211797179058807e-13
20
-4.3871757670982997e-14
30
0
40
79.748391366097209
210
-0
220
0
230
1
100
AcDbArc
50
278.27419698475404
51
279.72580301524602
0
ARC
5
346
100
AcDbEntity
8
0
100
AcDbCircle
10
-3.0514550557759308e-12
20
2.145239157431989e-12
30
0
40
73.959437232405094
210
0
220
0
230
1
100
AcDbArc
50
143.454357773033
51
144.545642226967
0
ARC
5
347
100
AcDbEntity
8
0
100
AcDbCircle
10
3.6966830075505505e-13
20
-1.3684059126176785e-13
30
0
40
79.748391366097223
210
0
220
0
230
1
100
AcDbArc
50
248.27419698475393
51
249.7258030152455
0
ARC
5
348
100
AcDbEntity
8
0
100
AcDbCircle
10
60.571550468363043
20
-43.132507223428071
30
0
40
0.40000000000000252
210
0
220
-0
230
1
100
AcDbArc
50
67.306944954041711
51
144.54559359921566
0
ARC
5
349
100
AcDbEntity
8
0
100
AcDbCircle
10
-16.152153589516633
20
-72.583977845948894
30
0
40
0.40000000000004732
210
0
220
-0
230
1
100
AcDbArc
50
77.454406400857053
51
154.69305504595545
0
SPLINE
5
350
100
AcDbEntity
8
0
100
AcDbSpline
70
0
71
3
72
8
73
4
74
0
42
0.000000001
43
0.0000000001
44
0.0000000001
40
0
40
0
40
0
40
0
40
1
40
1
40
1
40
1
10
19.662970227190723
20
77.286308796091575
30
0
10
18.477646757564912
20
75.814590830844949
30
0
10
17.645489921472031
20
74.525643980882364
30
0
10
17.070627452078469
20
73.492421932129943
30
0
0
ARC
5
351
100
AcDbEntity
8
0
100
AcDbCircle
10
-2.6118639121039517e-12
20
-4.7331810555533413e-12
30
0
40
73.959437232403602
210
0
220
0
230
1
100
AcDbArc
50
251.45435777303396
51
252.54564222696698
0
ARC
5
352
100
AcDbEntity
8
0
100
AcDbCircle
10
59.739090529353085
20
44.278290032998001
30
0
40
0.40000000000006636
210
0
220
0
230
1
100
AcDbArc
50
139.30694495404524
51
216.54559359914171
0
ARC
5
353
100
AcDbEntity
8
0
100
AcDbCircle
10
29.596424980899059
20
68.215669269388187
30
0
40
0.40000000000000602
210
0
220
0
230
1
100
AcDbArc
50
169.30694495404234
51
246.54559359920216
0
ARC
5
354
100
AcDbEntity
8
0
100
AcDbCircle
10
-44.278290032998044
20
-59.739090529353014
30
0
40
0.40000000000000624
210
0
220
-0
230
1
100
AcDbArc
50
53.454406400857224
51
130.69305504595644
0
SPLINE
5
355
100
AcDbEntity
8
0
100
AcDbSpline
70
0
71
3
72
8
73
4
74
0
42
0.000000001
43
0.0000000001
44
0.0000000001
40
0
40
0
40
0
40
0
40
1
40
1
40
1
40
1
10
23.992520404912746
20
-70.290146355948494
30
0
10
24.175514454739666
20
-70.590962437243107
30
0
10
24.395656536066731
20
-70.930528993552088
30
0
10
24.659162695150293
20
-71.305456300566362
30
0
0
SPLINE
5
356
100
AcDbEntity
8
0
100
AcDbSpline
70
0
71
3
72
8
73
4
74
0
42
0.000000001
43
0.0000000001
44
0.0000000001
40
0
40
0
40
0
40
0
40
1
40
1
40
1
40
1
10
-64.863205641280388
20
36.181628819855305
30
0
10
-65.200481969381613
20
36.282731814568969
30
0
10
-65.591293793711912
20
36.387775139431788
30
0
10
-66.037992368599191
20
36.490080391562671
30
0
0
SPLINE
5
357
100
AcDbEntity
8
0
100
AcDbSpline
70
0
71
3
72
8
73
4
74
0
42
0.000000001
43
0.0000000001
44
0.0000000001
40
0
40
0
40
0
40
0
40
1
40
1
40
1
40
1
10
-43.193033772728299
20
-61.861977308891682
30
0
10
-43.576209319109537
20
-62.980543874367633
30
0
10
-43.977261892654091
20
-64.461430708375502
30
0
10
-44.277825271127199
20
-66.327069245819601
30
0
0
ARC
5
358
100
AcDbEntity
8
0
100
AcDbCircle
10
4.7592104985116191e-12
20
-2.5544229154266494e-12
30
0
40
73.959437232403602
210
-0
220
0
230
1
100
AcDbArc
50
341.45435777303396
51
342.54564222696803
0
ARC
5
359
100
AcDbEntity
8
0
100
AcDbCircle
10
49.22767392402654
20
-55.731158480245647
30
0
40
0.40000000000002822
210
0
220
0
230
1
100
AcDbArc
50
131.45440640084365
51
208.69305504595869
0
SPLINE
5
360
100
AcDbEntity
8
0
100
AcDbSpline
70
0
71
3
72
8
73
4
74
0
42
0.000000001
43
0.0000000001
44
0.0000000001
40
0
40
0
40
0
40
0
40
1
40
1
40
1
40
1
10
-60.195418522194821
20
45.486855156140244
30
0
10
-59.920269345001188
20
45.120386996937292
30
0
10
-59.665350003214684
20
44.806087599359572
30
0
10
-59.43580518015915
20
44.539092634527087
30
0
0
SPLINE
5
361
100
AcDbEntity
8
0
100
AcDbSpline
70
0
71
3
72
8
73
4
74
0
42
0.000000001
43
0.0000000001
44
0.0000000001
40
0
40
0
40
0
40
0
40
1
40
1
40
1
40
1
10
-73.492421932129943
20
17.070627452078469
30
0
10
-73.092004622262237
20
16.847755382544754
30
0
10
-72.73128713361649
20
16.664313632881111
30
0
10
-72.412990867474591
20
16.513765886310047
30
0
0
ARC
5
362
100
AcDbEntity
8
0
100
AcDbCircle
10
-8.6933551652184912e-13
20
-1.4685100475358316e-12
30
0
40
73.959437232407112
210
0
220
0
230
1
100
AcDbArc
50
245.45435777303339
51
246.54564222696692
0
SPLINE
5
363
100
AcDbEntity
8
0
100
AcDbSpline
70
0
71
3
72
8
73
4
74
0
42
0.000000001
43
0.0000000001
44
0.0000000001
40
0
40
0
40
0
40
0
40
1
40
1
40
1
40
1
10
8.8540830929292476
20
-73.742463497664119
30
0
10
8.9705351036288743
20
-74.074752628153604
30
0
10
9.1152666954321102
20
-74.452668952845599
30
0
10
9.29506284238321
20
-74.874189209727206
30
0
0
ARC
5
364
100
AcDbEntity
8
0
100
AcDbCircle
10
7.6273767176360215e-13
20
-1.8666395592273944e-12
30
0
40
73.959437232406898
210
-0
220
0
230
1
100
AcDbArc
50
293.454357773033
51
294.54564222696609
0
SPLINE
5
365
100
AcDbEntity
8
0
100
AcDbSpline
70
0
71
3
72
8
73
4
74
0
42
0.000000001
43
0.0000000001
44
0.0000000001
40
0
40
0
40
0
40
0
40
1
40
1
40
1
40
1
10
13.472156660630166
20
-78.602206841739786
30
0
10
13.956401907405221
20
-76.775611090663205
30
0
10
14.192353090207208
20
-75.259630872712066
30
0
10
14.297266820229472
20
-74.081917932306823
30
0
0
ARC
5
366
100
AcDbEntity
8
0
100
AcDbCircle
10
30.890247840499676
20
-67.639622218586041
30
0
40
0.4000000000000048
210
0
220
-0
230
1
100
AcDbArc
50
37.306944954043011
51
114.54559359928908
0
ARC
5
367
100
AcDbEntity
8
0
100
AcDbCircle
10
-1.3980813486564032e-14
20
-7.3270338740121355e-16
30
0
40
79.748391366097252
210
0
220
-0
230
1
100
AcDbArc
50
80.274196984754155
51
81.72580301524583
0
ARC
5
368
100
AcDbEntity
8
0
100
AcDbCircle
10
-23.650762064215915
20
-70.497995427546542
30
0
40
0.3999999999999253
210
0
220
-0
230
1
100
AcDbArc
50
71.454406400870866
51
148.693055045958
0
ARC
5
369
100
AcDbEntity
8
0
100
AcDbCircle
10
30.890247840499633
20
67.639622218586098
30
0
40
0.40000000000000502
210
0
220
0
230
1
100
AcDbArc
50
245.45440640085553
51
322.69305504595417
0
ARC
5
370
100
AcDbEntity
8
0
100
AcDbCircle
10
1.308398906073596e-15
20
-2.4965738368864351e-14
30
0
40
79.748391366097209
210
0
220
0
230
1
100
AcDbArc
50
170.27419698475401
51
171.72580301524596
0
SPLINE
5
371
100
AcDbEntity
8
0
100
AcDbSpline
70
0
71
3
72
8
73
4
74
0
42
0.000000001
43
0.0000000001
44
0.0000000001
40
0
40
0
40
0
40
0
40
1
40
1
40
1
40
1
10
-42.76347327973069
20
-60.725868154968197
30
0
10
-42.899277397933716
20
-61.050728707385076
30
0
10
-43.044596243896088
20
-61.428419606325868
30
0
10
-43.193033772728299
20
-61.861977308891682
30
0
0
SPLINE
5
372
100
AcDbEntity
8
0
100
AcDbSpline
70
0
71
3
72
8
73
4
74
0
42
0.000000001
43
0.0000000001
44
0.0000000001
40
0
40
0
40
0
40
0
40
1
40
1
40
1
40
1
10
-29.203370863136943
20
-68.289888273088394
30
0
10
-29.268665028794096
20
-68.635885106843631
30
0
10
-29.332281955908329
20
-69.0355360404333
30
0
10
-29.387334053586901
20
-69.490481364578073
30
0
0
ARC
5
373
100
AcDbEntity
8
0
100
AcDbCircle
10
64.748307874137382
20
-36.564771747632356
30
0
40
0.40000000000000563
210
0
220
-0
230
1
100
AcDbArc
50
73.306944954043118
51
150.54559359914379
0
SPLINE
5
374
100
AcDbEntity
8
0
100
AcDbSpline
70
0
71
3
72
8
73
4
74
0
42
0.000000001
43
0.0000000001
44
0.0000000001
40
0
40
0
40
0
40
0
40
1
40
1
40
1
40
1
10
68.289888273088394
20
-29.203370863137046
30
0
10
68.635885106843631
20
-29.268665028794096
30
0
10
69.0355360404333
20
-29.332281955908329
30
0
10
69.490481364578073
20
-29.387334053586901
30
0
0
SPLINE
5
375
100
AcDbEntity
8
0
100
AcDbSpline
70
0
71
3
72
8
73
4
74
0
42
0.000000001
43
0.0000000001
44
0.0000000001
40
0
40
0
40
0
40
0
40
1
40
1
40
1
40
1
10
-66.037992368599191
20
36.490080391562671
30
0
10
-67.190484060416964
20
36.75423481805668
30
0
10
-68.705179850602548
20
36.998295558608454
30
0
10
-70.592015652999763
20
37.10220009011384
30
0
0
SPLINE
5
376
100
AcDbEntity
8
0
100
AcDbSpline
70
0
71
3
72
8
73
4
74
0
42
0.000000001
43
0.0000000001
44
0.0000000001
40
0
40
0
40
0
40
0
40
1
40
1
40
1
40
1
10
38.082369446315312
20
-63.765812528934092
30
0
10
38.323907817189252
20
-64.022008454805459
30
0
10
38.609839122727195
20
-64.308384554799702
30
0
10
38.945538810348452
20
-64.620332789529343
30
0
0
ARC
5
377
100
AcDbEntity
8
0
100
AcDbCircle
10
-72.583977845948894
20
16.152153589516633
30
0
40
0.39999999999996494
210
-0
220
0
230
1
100
AcDbArc
50
-12.545593599081378
51
64.693055045955433
0
ARC
5
378
100
AcDbEntity
8
0
100
AcDbCircle
10
-3.204968205685926e-12
20
1.9599509689128293e-12
30
0
40
73.959437232405222
210
0
220
0
230
1
100
AcDbArc
50
161.45435777303388
51
162.54564222696743
0
SPLINE
5
379
100
AcDbEntity
8
0
100
AcDbSpline
70
0
71
3
72
8
73
4
74
0
42
0.000000001
43
0.0000000001
44
0.0000000001
40
0
40
0
40
0
40
0
40
1
40
1
40
1
40
1
10
-55.671786128650005
20
-57.100421668548684
30
0
10
-53.909406909628849
20
-56.41853825825207
30
0
10
-52.544264524658217
20
-55.718355960102876
30
0
10
-51.529807998104992
20
-55.110990652829926
30
0
0
ARC
5
380
100
AcDbEntity
8
0
100
AcDbCircle
10
-29.596424980899059
20
-68.215669269388187
30
0
40
0.40000000000000635
210
-0
220
0
230
1
100
AcDbArc
50
-10.693055045949388
51
66.545593599144738
0
ARC
5
381
100
AcDbEntity
8
0
100
AcDbCircle
10
-3.7059799245992886e-12
20
-4.4921122869388586e-12
30
0
40
73.959437232403118
210
0
220
0
230
1
100
AcDbArc
50
227.45435777303297
51
228.54564222696655
0
ARC
5
382
100
AcDbEntity
8
0
100
AcDbCircle
10
-8.4150807066737569e-14
20
-1.8429369767214259e-14
30
0
40
79.748391366097209
210
-0
220
0
230
1
100
AcDbArc
50
284.27419698475393
51
285.72580301524602
0
ARC
5
383
100
AcDbEntity
8
0
100
AcDbCircle
10
-64.040175154097838
20
37.791293597242792
30
0
40
0.3999999999999812
210
-0
220
0
230
1
100
AcDbArc
50
-30.545593599116135
51
46.693055045952988
0
ARC
5
384
100
AcDbEntity
8
0
100
AcDbCircle
10
64.040175154097838
20
-37.791293597242891
30
0
40
0.4000000000000053
210
0
220
0
230
1
100
AcDbArc
50
149.45440640085536
51
226.69305504595764
0
ARC
5
385
100
AcDbEntity
8
0
100
AcDbCircle
10
-30.89024784049964
20
-67.639622218585998
30
0
40
0.40000000000000502
210
0
220
-0
230
1
100
AcDbArc
50
65.454406400855106
51
142.69305504596488
0
SPLINE
5
386
100
AcDbEntity
8
0
100
AcDbSpline
70
0
71
3
72
8
73
4
74
0
42
0.000000001
43
0.0000000001
44
0.0000000001
40
0
40
0
40
0
40
0
40
1
40
1
40
1
40
1
10
-29.387334053586901
20
-69.490481364578073
30
0
10
-29.529573229019164
20
-70.664271242587589
30
0
10
-29.613968156031664
20
-72.196180664903068
30
0
10
-29.52007544077874
20
-74.08354116435676
30
0
0
SPLINE
5
387
100
AcDbEntity
8
0
100
AcDbSpline
70
0
71
3
72
8
73
4
74
0
42
0.000000001
43
0.0000000001
44
0.0000000001
40
0
40
0
40
0
40
0
40
1
40
1
40
1
40
1
10
-62.606905835525893
20
49.398190930253747
30
0
10
-61.744539062438335
20
47.716742434001141
30
0
10
-60.905496200537293
20
46.432267421485378
30
0
10
-60.195418522194821
20
45.486855156140244
30
0
0
ARC
5
388
100
AcDbEntity
8
0
100
AcDbCircle
10
16.152153589516605
20
-72.583977845948894
30
0
40
0.40000000000000635
210
0
220
-0
230
1
100
AcDbArc
50
25.306944954042397
51
102.54559359914336
0
ARC
5
389
100
AcDbEntity
8
0
100
AcDbCircle
10
0.70813272003956929
20
-74.356065344875105
30
0
40
0.40000000000000618
210
0
220
-0
230
1
100
AcDbArc
50
13.306944954042699
51
90.545593599124743
0
ARC
5
390
100
AcDbEntity
8
0
100
AcDbCircle
10
-22.303813588625061
20
-70.935645517076892
30
0
40
0.40000000000002567
210
-0
220
0
230
1
100
AcDbArc
50
-4.6930550459640603
51
72.545593599254673
0
ARC
5
391
100
AcDbEntity
8
0
100
AcDbCircle
10
14.766836947301005
20
72.878435988242529
30
0
40
0.40000000000000707
210
0
220
0
230
1
100
AcDbArc
50
181.30694495404461
51
258.54559359920614
0
ARC
5
392
100
AcDbEntity
8
0
100
AcDbCircle
10
2.8131457588245267e-12
20
-4.5339849955207823e-12
30
0
40
73.959437232403488
210
-0
220
0
230
1
100
AcDbArc
50
299.454357773033
51
300.54564222696661
0
ARC
5
393
100
AcDbEntity
8
0
100
AcDbCircle
10
5.0541187397606947e-12
20
-3.0226302725275141e-12
30
0
40
73.959437232403047
210
-0
220
0
230
1
100
AcDbArc
50
329.45435777303328
51
330.54564222696678
0
SPLINE
5
394
100
AcDbEntity
8
0
100
AcDbSpline
70
0
71
3
72
8
73
4
74
0
42
0.000000001
43
0.0000000001
44
0.0000000001
40
0
40
0
40
0
40
0
40
1
40
1
40
1
40
1
10
-49.422755237156473
20
-57.008189480336917
30
0
10
-49.920753751954152
20
-58.080575670104679
30
0
10
-50.474404142570165
20
-59.511428641885978
30
0
10
-50.968333332739412
20
-61.335429588150568
30
0
0
SPLINE
5
395
100
AcDbEntity
8
0
100
AcDbSpline
70
0
71
3
72
8
73
4
74
0
42
0.000000001
43
0.0000000001
44
0.0000000001
40
0
40
0
40
0
40
0
40
1
40
1
40
1
40
1
10
71.509256132034466
20
-35.302014289885705
30
0
10
70.316141342107471
20
-33.836605611416545
30
0
10
69.22837620816081
20
-32.754646279808043
30
0
10
68.337253168147697
20
-31.977526991472537
30
0
0
SPLINE
5
396
100
AcDbEntity
8
0
100
AcDbSpline
70
0
71
3
72
8
73
4
74
0
42
0.000000001
43
0.0000000001
44
0.0000000001
40
0
40
0
40
0
40
0
40
1
40
1
40
1
40
1
10
3.1645600121679784
20
79.685578904903423
30
0
10
2.3111260748213325
20
77.999578901504762
30
0
10
1.7651409811128098
20
76.565783497922865
30
0
10
1.4176595790698872
20
75.435619201911109
30
0
0
ARC
5
397
100
AcDbEntity
8
0
100
AcDbCircle
10
-1.7823727612255982e-13
20
-1.9299731794510544e-12
30
0
40
73.959437232406955
210
0
220
0
230
1
100
AcDbArc
50
263.45435777303317
51
264.54564222696604
0
SPLINE
5
398
100
AcDbEntity
8
0
100
AcDbSpline
70
0
71
3
72
8
73
4
74
0
42
0.000000001
43
0.0000000001
44
0.0000000001
40
0
40
0
40
0
40
0
40
1
40
1
40
1
40
1
10
-54.454606712088548
20
-50.507836203430656
30
0
10
-54.654985491211569
20
-50.797362509514691
30
0
10
-54.875655125136369
20
-51.136586469160932
30
0
10
-55.110990652829976
20
-51.529807998104971
30
0
0
ARC
5
399
100
AcDbEntity
8
0
100
AcDbCircle
10
2.4398535582469244e-13
20
5.0345918021533608e-13
30
0
40
79.748391366097209
210
-0
220
0
230
1
100
AcDbArc
50
332.27419698475398
51
333.72580301524602
0
ARC
5
400
100
AcDbEntity
8
0
100
AcDbCircle
10
1.7436547188795858e-13
20
-3.4634907566397446e-13
30
0
40
79.748391366097209
210
0
220
-0
230
1
100
AcDbArc
50
26.274196984754404
51
27.725803015246001
0
SPLINE
5
401
100
AcDbEntity
8
0
100
AcDbSpline
70
0
71
3
72
8
73
4
74
0
42
0.000000001
43
0.0000000001
44
0.0000000001
40
0
40
0
40
0
40
0
40
1
40
1
40
1
40
1
10
27.633873509000448
20
74.807586248780765
30
0
10
26.301206948093004
20
73.46783054929125
30
0
10
25.338877120758042
20
72.272928760311885
30
0
10
24.659162695150325
20
71.305456300566405
30
0
0
ARC
5
402
100
AcDbEntity
8
0
100
AcDbCircle
10
-70.497995427546542
20
23.650762064216018
30
0
40
0.40000000000000724
210
-0
220
0
230
1
100
AcDbArc
50
-18.545593599145175
51
58.693055045956299
0
ARC
5
403
100
AcDbEntity
8
0
100
AcDbCircle
10
50.280164257323804
20
54.783491927560341
30
0
40
0.40000000000000324
210
0
220
0
230
1
100
AcDbArc
50
227.45440640085764
51
304.69305504595661
0
SPLINE
5
404
100
AcDbEntity
8
0
100
AcDbSpline
70
0
71
3
72
8
73
4
74
0
42
0.000000001
43
0.0000000001
44
0.0000000001
40
0
40
0
40
0
40
0
40
1
40
1
40
1
40
1
10
36.490080391562707
20
-66.037992368599149
30
0
10
36.387775139431753
20
-65.591293793711841
30
0
10
36.28273181456899
20
-65.200481969381613
30
0
10
36.181628819855341
20
-64.863205641280416
30
0
0
ARC
5
405
100
AcDbEntity
8
0
100
AcDbCircle
10
2.8941445308454779e-13
20
1.1430343103237126e-13
30
0
40
79.748391366097238
210
-0
220
0
230
1
100
AcDbArc
50
290.27419698475393
51
291.72580301524607
0
ARC
5
406
100
AcDbEntity
8
0
100
AcDbCircle
10
43.132507223428114
20
-60.571550468363078
30
0
40
0.40000000000000535
210
0
220
0
230
1
100
AcDbArc
50
125.45440640085626
51
202.69305504595656
0
ARC
5
407
100
AcDbEntity
8
0
100
AcDbCircle
10
50.280164257323847
20
-54.783491927560377
30
0
40
0.40000000000000324
210
0
220
-0
230
1
100
AcDbArc
50
55.306944954043665
51
132.54559359922104
0
SPLINE
5
408
100
AcDbEntity
8
0
100
AcDbSpline
70
0
71
3
72
8
73
4
74
0
42
0.000000001
43
0.0000000001
44
0.0000000001
40
0
40
0
40
0
40
0
40
1
40
1
40
1
40
1
10
-64.620332789529286
20
38.945538810348509
30
0
10
-64.308384554799702
20
38.609839122727188
30
0
10
-64.022008454805416
20
38.323907817189195
30
0
10
-63.765812528934035
20
38.082369446315298
30
0
0
SPLINE
5
409
100
AcDbEntity
8
0
100
AcDbSpline
70
0
71
3
72
8
73
4
74
0
42
0.000000001
43
0.0000000001
44
0.0000000001
40
0
40
0
40
0
40
0
40
1
40
1
40
1
40
1
10
69.490481364578088
20
29.387334053586933
30
0
10
69.035536040433271
20
29.3322819559083
30
0
10
68.635885106843645
20
29.268665028794068
30
0
10
68.289888273088394
20
29.203370863136996
30
0
0
SPLINE
5
410
100
AcDbEntity
8
0
100
AcDbSpline
70
0
71
3
72
8
73
4
74
0
42
0.000000001
43
0.0000000001
44
0.0000000001
40
0
40
0
40
0
40
0
40
1
40
1
40
1
40
1
10
6.4752758592560884
20
75.170560764200843
30
0
10
6.2478323337932
20
76.330855598917523
30
0
10
5.8547106337320187
20
77.813867504070615
30
0
10
5.1821868862149607
20
79.579839561012861
30
0
0
ARC
5
411
100
AcDbEntity
8
0
100
AcDbCircle
10
-43.132507223428071
20
-60.571550468363043
30
0
40
0.40000000000001046
210
-0
220
0
230
1
100
AcDbArc
50
-22.693055045957852
51
54.545593599143977
0
ARC
5
412
100
AcDbEntity
8
0
100
AcDbCircle
10
-70.935645517076892
20
22.303813588625061
30
0
40
0.40000000000002567
210
0
220
0
230
1
100
AcDbArc
50
265.30694495403588
51
342.54559359914299
0
ARC
5
413
100
AcDbEntity
8
0
100
AcDbCircle
10
-4.6132068685411966e-12
20
2.7683573447162338e-12
30
0
40
73.959437232403559
210
0
220
0
230
1
100
AcDbArc
50
155.45435777303376
51
156.54564222696723
0
ARC
5
414
100
AcDbEntity
8
0
100
AcDbCircle
10
22.303813588625054
20
70.935645517076978
30
0
40
0.4000000000000139
210
0
220
0
230
1
100
AcDbArc
50
175.30694495404811
51
252.54559359920427
0
SPLINE
5
415
100
AcDbEntity
8
0
100
AcDbSpline
70
0
71
3
72
8
73
4
74
0
42
0.000000001
43
0.0000000001
44
0.0000000001
40
0
40
0
40
0
40
0
40
1
40
1
40
1
40
1
10
31.977526991472544
20
-68.337253168147768
30
0
10
32.754646279808057
20
-69.228376208160839
30
0
10
33.83660561141653
20
-70.3161413421075
30
0
10
35.302014289885747
20
-71.50925613203448
30
0
0
ARC
5
416
100
AcDbEntity
8
0
100
AcDbCircle
10
67.639622218585998
20
-30.89024784049964
30
0
40
0.40000000000000502
210
0
220
0
230
1
100
AcDbArc
50
155.45440640085513
51
232.69305504595891
0
SPLINE
5
417
100
AcDbEntity
8
0
100
AcDbSpline
70
0
71
3
72
8
73
4
74
0
42
0.000000001
43
0.0000000001
44
0.0000000001
40
0
40
0
40
0
40
0
40
1
40
1
40
1
40
1
10
38.945538810348452
20
-64.620332789529343
30
0
10
39.8115486798661
20
-65.425343079304071
30
0
10
41.001283342896251
20
-66.394053775781202
30
0
10
42.58337881478959
20
-67.427455640831738
30
0
0
ARC
5
418
100
AcDbEntity
8
0
100
AcDbCircle
10
1.6836530962555473e-13
20
3.2225319628312621e-13
30
0
40
79.748391366097223
210
0
220
0
230
1
100
AcDbArc
50
152.27419698475398
51
153.72580301524607
0
SPLINE
5
419
100
AcDbEntity
8
0
100
AcDbSpline
70
0
71
3
72
8
73
4
74
0
42
0.000000001
43
0.0000000001
44
0.0000000001
40
0
40
0
40
0
40
0
40
1
40
1
40
1
40
1
10
-55.923205349445141
20
48.876792177521189
30
0
10
-56.232090885984
20
49.045809520875764
30
0
10
-56.59252279900975
20
49.229811744251492
30
0
10
-57.008189480336917
20
49.422755237156473
30
0
0
ARC
5
420
100
AcDbEntity
8
0
100
AcDbCircle
10
-55.731158480245568
20
49.227673924026554
30
0
40
0.40000000000002067
210
0
220
0
230
1
100
AcDbArc
50
241.30694495404958
51
318.54559359914481
0
ARC
5
421
100
AcDbEntity
8
0
100
AcDbCircle
10
0.70813272003958372
20
74.356065344875176
30
0
40
0.40000000000002472
210
0
220
0
230
1
100
AcDbArc
50
269.45440640086304
51
346.69305504595724
0
ARC
5
422
100
AcDbEntity
8
0
100
AcDbCircle
10
-37.791293597242792
20
-64.040175154097838
30
0
40
0.4000000000000053
210
0
220
-0
230
1
100
AcDbArc
50
59.454406400855383
51
136.69305504595687
0
SPLINE
5
423
100
AcDbEntity
8
0
100
AcDbSpline
70
0
71
3
72
8
73
4
74
0
42
0.000000001
43
0.0000000001
44
0.0000000001
40
0
40
0
40
0
40
0
40
1
40
1
40
1
40
1
10
74.807586248780765
20
-27.633873509000448
30
0
10
73.46783054929125
20
-26.301206948093004
30
0
10
72.272928760311885
20
-25.338877120758042
30
0
10
71.305456300566405
20
-24.659162695150325
30
0
0
SPLINE
5
424
100
AcDbEntity
8
0
100
AcDbSpline
70
0
71
3
72
8
73
4
74
0
42
0.000000001
43
0.0000000001
44
0.0000000001
40
0
40
0
40
0
40
0
40
1
40
1
40
1
40
1
10
-38.945538810348509
20
-64.620332789529286
30
0
10
-38.609839122727188
20
-64.308384554799702
30
0
10
-38.323907817189195
20
-64.022008454805416
30
0
10
-38.082369446315298
20
-63.765812528934035
30
0
0
SPLINE
5
425
100
AcDbEntity
8
0
100
AcDbSpline
70
0
71
3
72
8
73
4
74
0
42
0.000000001
43
0.0000000001
44
0.0000000001
40
0
40
0
40
0
40
0
40
1
40
1
40
1
40
1
10
11.47663532883085
20
78.918266371032502
30
0
10
10.45164160246472
20
77.330710590032766
30
0
10
9.7587750420502815
20
75.961840650504598
30
0
10
9.2950628423832597
20
74.874189209727177
30
0
0
SPLINE
5
426
100
AcDbEntity
8
0
100
AcDbSpline
70
0
71
3
72
8
73
4
74
0
42
0.000000001
43
0.0000000001
44
0.0000000001
40
0
40
0
40
0
40
0
40
1
40
1
40
1
40
1
10
-14.297266820229542
20
-74.081917932306766
30
0
10
-14.192353090207277
20
-75.259630872712151
30
0
10
-13.956401907405279
20
-76.775611090663091
30
0
10
-13.472156660630212
20
-78.602206841739829
30
0
0
ARC
5
427
100
AcDbEntity
8
0
100
AcDbCircle
10
1.7452053760123638e-12
20
-9.900197955281218e-13
30
0
40
73.959437232406813
210
-0
220
0
230
1
100
AcDbArc
50
335.45435777303339
51
336.54564222696604
0
ARC
5
428
100
AcDbEntity
8
0
100
AcDbCircle
10
44.278290032998044
20
59.739090529353014
30
0
40
0.40000000000000624
210
0
220
0
230
1
100
AcDbArc
50
233.45440640085721
51
310.69305504595644
0
SPLINE
5
429
100
AcDbEntity
8
0
100
AcDbSpline
70
0
71
3
72
8
73
4
74
0
42
0.000000001
43
0.0000000001
44
0.0000000001
40
0
40
0
40
0
40
0
40
1
40
1
40
1
40
1
10
61.335429588150618
20
50.968333332739419
30
0
10
59.511428641885956
20
50.474404142570108
30
0
10
58.080575670104679
20
49.920753751954116
30
0
10
57.008189480336924
20
49.422755237156494
30
0
0
ARC
5
430
100
AcDbEntity
8
0
100
AcDbCircle
10
68.215669269388087
20
-29.596424980899062
30
0
40
0.3999999999999303
210
0
220
-0
230
1
100
AcDbArc
50
79.306944954033952
51
156.54559359930539
0
ARC
5
431
100
AcDbEntity
8
0
100
AcDbCircle
10
-50.280164257323804
20
-54.783491927560341
30
0
40
0.39999999999992664
210
0
220
-0
230
1
100
AcDbArc
50
47.454406400876799
51
124.69305504596349
0
SPLINE
5
432
100
AcDbEntity
8
0
100
AcDbSpline
70
0
71
3
72
8
73
4
74
0
42
0.000000001
43
0.0000000001
44
0.0000000001
40
0
40
0
40
0
40
0
40
1
40
1
40
1
40
1
10
-77.286308796091575
20
19.662970227190723
30
0
10
-75.814590830844949
20
18.477646757564912
30
0
10
-74.525643980882364
20
17.645489921472031
30
0
10
-73.492421932129943
20
17.070627452078469
30
0
0
ARC
5
433
100
AcDbEntity
8
0
100
AcDbCircle
10
67.639622218586041
20
30.890247840499573
30
0
40
0.40000000000005131
210
0
220
0
230
1
100
AcDbArc
50
127.30694495403614
51
204.54559359919529
0
ARC
5
434
100
AcDbEntity
8
0
100
AcDbCircle
10
-1.4246739633917393e-14
20
-1.476585283020819e-14
30
0
40
79.748391366097152
210
-0
220
0
230
1
100
AcDbArc
50
272.27419698475421
51
273.72580301524584
0
SPLINE
5
435
100
AcDbEntity
8
0
100
AcDbSpline
70
0
71
3
72
8
73
4
74
0
42
0.000000001
43
0.0000000001
44
0.0000000001
40
0
40
0
40
0
40
0
40
1
40
1
40
1
40
1
10
-51.529807998104992
20
-55.110990652829926
30
0
10
-51.136586469160918
20
-54.875655125136319
30
0
10
-50.79736250951462
20
-54.65498549121159
30
0
10
-50.507836203430692
20
-54.454606712088491
30
0
0
ARC
5
436
100
AcDbEntity
8
0
100
AcDbCircle
10
-1.6523864509820018e-13
20
-5.3880320331421665e-12
30
0
40
73.959437232403502
210
0
220
0
230
1
100
AcDbArc
50
269.45435777303305
51
270.54564222696695
0
SPLINE
5
437
100
AcDbEntity
8
0
100
AcDbSpline
70
0
71
3
72
8
73
4
74
0
42
0.000000001
43
0.0000000001
44
0.0000000001
40
0
40
0
40
0
40
0
40
1
40
1
40
1
40
1
10
49.422755237156494
20
-57.008189480336924
30
0
10
49.229811744251435
20
-56.592522799009728
30
0
10
49.045809520875743
20
-56.232090885984071
30
0
10
48.876792177521239
20
-55.923205349445233
30
0
0
SPLINE
5
438
100
AcDbEntity
8
0
100
AcDbSpline
70
0
71
3
72
8
73
4
74
0
42
0.000000001
43
0.0000000001
44
0.0000000001
40
0
40
0
40
0
40
0
40
1
40
1
40
1
40
1
10
6.6713201368196788
20
73.971881128932267
30
0
10
6.6264996769136699
20
74.321120679114173
30
0
10
6.5635040396953332
20
74.72087001535634
30
0
10
6.4752758592560884
20
75.170560764200843
30
0
0
SPLINE
5
439
100
AcDbEntity
8
0
100
AcDbSpline
70
0
71
3
72
8
73
4
74
0
42
0.000000001
43
0.0000000001
44
0.0000000001
40
0
40
0
40
0
40
0
40
1
40
1
40
1
40
1
10
-9.2950628423832597
20
-74.874189209727177
30
0
10
-9.1152666954321724
20
-74.452668952845585
30
0
10
-8.9705351036289613
20
-74.074752628153647
30
0
10
-8.8540830929293435
20
-73.74246349766409
30
0
0
SPLINE
5
440
100
AcDbEntity
8
0
100
AcDbSpline
70
0
71
3
72
8
73
4
74
0
42
0.000000001
43
0.0000000001
44
0.0000000001
40
0
40
0
40
0
40
0
40
1
40
1
40
1
40
1
10
64.863205641280388
20
-36.181628819855305
30
0
10
65.200481969381613
20
-36.282731814569075
30
0
10
65.591293793711799
20
-36.387775139431795
30
0
10
66.037992368599191
20
-36.490080391562778
30
0
0
SPLINE
5
441
100
AcDbEntity
8
0
100
AcDbSpline
70
0
71
3
72
8
73
4
74
0
42
0.000000001
43
0.0000000001
44
0.0000000001
40
0
40
0
40
0
40
0
40
1
40
1
40
1
40
1
10
29.387334053586933
20
-69.490481364578088
30
0
10
29.332281955908304
20
-69.035536040433371
30
0
10
29.268665028794068
20
-68.635885106843645
30
0
10
29.203370863136996
20
-68.289888273088394
30
0
0
ARC
5
442
100
AcDbEntity
8
0
100
AcDbCircle
10
37.791293597242849
20
-64.040175154097852
30
0
40
0.40000000000000213
210
0
220
-0
230
1
100
AcDbArc
50
43.306944954043871
51
120.54559359914413
0
ARC
5
443
100
AcDbEntity
8
0
100
AcDbCircle
10
54.783491927560341
20
-50.280164257323804
30
0
40
0.40000000000000324
210
0
220
0
230
1
100
AcDbArc
50
137.45440640085764
51
214.69305504596349
0
SPLINE
5
444
100
AcDbEntity
8
0
100
AcDbSpline
70
0
71
3
72
8
73
4
74
0
42
0.000000001
43
0.0000000001
44
0.0000000001
40
0
40
0
40
0
40
0
40
1
40
1
40
1
40
1
10
29.520075440778744
20
-74.08354116435676
30
0
10
29.613968156031643
20
-72.196180664903153
30
0
10
29.529573229019213
20
-70.664271242587574
30
0
10
29.387334053586933
20
-69.490481364578088
30
0
0
SPLINE
5
445
100
AcDbEntity
8
0
100
AcDbSpline
70
0
71
3
72
8
73
4
74
0
42
0.000000001
43
0.0000000001
44
0.0000000001
40
0
40
0
40
0
40
0
40
1
40
1
40
1
40
1
10
-71.305456300566405
20
24.659162695150325
30
0
10
-70.93052899355213
20
24.395656536066728
30
0
10
-70.590962437243135
20
24.175514454739666
30
0
10
-70.290146355948494
20
23.992520404912771
30
0
0
SPLINE
5
446
100
AcDbEntity
8
0
100
AcDbSpline
70
0
71
3
72
8
73
4
74
0
42
0.000000001
43
0.0000000001
44
0.0000000001
40
0
40
0
40
0
40
0
40
1
40
1
40
1
40
1
10
76.763391895739403
20
21.61452266744157
30
0
10
74.896185015816997
20
21.905183921216114
30
0
10
73.363845881575017
20
21.981379456224065
30
0
10
72.181618104908523
20
21.962613934024965
30
0
0
SPLINE
5
447
100
AcDbEntity
8
0
100
AcDbSpline
70
0
71
3
72
8
73
4
74
0
42
0.000000001
43
0.0000000001
44
0.0000000001
40
0
40
0
40
0
40
0
40
1
40
1
40
1
40
1
10
57.100421668548684
20
-55.671786128650005
30
0
10
56.418538258251957
20
-53.909406909628856
30
0
10
55.718355960102883
20
-52.544264524658303
30
0
10
55.110990652829926
20
-51.529807998104992
30
0
0
ARC
5
448
100
AcDbEntity
8
0
100
AcDbCircle
10
3.3079931944370583e-12
20
2.3223096317153986e-12
30
0
40
73.959437232404824
210
0
220
-0
230
1
100
AcDbArc
50
35.45435777303333
51
36.545642226966777
0
SPLINE
5
449
100
AcDbEntity
8
0
100
AcDbSpline
70
0
71
3
72
8
73
4
74
0
42
0.000000001
43
0.0000000001
44
0.0000000001
40
0
40
0
40
0
40
0
40
1
40
1
40
1
40
1
10
66.037992368599191
20
-36.490080391562778
30
0
10
67.190484060416864
20
-36.754234818056787
30
0
10
68.705179850602548
20
-36.998295558608561
30
0
10
70.592015652999777
20
-37.102200090113946
30
0
0
ARC
5
450
100
AcDbEntity
8
0
100
AcDbCircle
10
64.748307874137453
20
36.564771747632285
30
0
40
0.40000000000004082
210
0
220
0
230
1
100
AcDbArc
50
209.45440640083859
51
286.69305504595656
0
ARC
5
451
100
AcDbEntity
8
0
100
AcDbCircle
10
-3.5038485690375499e-12
20
8.7982850900247261e-13
30
0
40
73.959437232405307
210
0
220
0
230
1
100
AcDbArc
50
167.45435777303297
51
168.54564222696703
0
SPLINE
5
452
100
AcDbEntity
8
0
100
AcDbSpline
70
0
71
3
72
8
73
4
74
0
42
0.000000001
43
0.0000000001
44
0.0000000001
40
0
40
0
40
0
40
0
40
1
40
1
40
1
40
1
10
50.507836203430656
20
-54.454606712088548
30
0
10
50.797362509514592
20
-54.654985491211661
30
0
10
51.136586469160825
20
-54.875655125136369
30
0
10
51.529807998104971
20
-55.110990652829976
30
0
0
ARC
5
453
100
AcDbEntity
8
0
100
AcDbCircle
10
68.215669269388158
20
29.596424980899112
30
0
40
0.4000000000000084
210
0
220
0
230
1
100
AcDbArc
50
203.45440640085747
51
280.69305504595343
0
SPLINE
5
454
100
AcDbEntity
8
0
100
AcDbSpline
70
0
71
3
72
8
73
4
74
0
42
0.000000001
43
0.0000000001
44
0.0000000001
40
0
40
0
40
0
40
0
40
1
40
1
40
1
40
1
10
62.606905835525893
20
-49.398190930253747
30
0
10
61.744539062438335
20
-47.716742434001141
30
0
10
60.905496200537293
20
-46.432267421485378
30
0
10
60.195418522194821
20
-45.486855156140244
30
0
0
SPLINE
5
455
100
AcDbEntity
8
0
100
AcDbSpline
70
0
71
3
72
8
73
4
74
0
42
0.000000001
43
0.0000000001
44
0.0000000001
40
0
40
0
40
0
40
0
40
1
40
1
40
1
40
1
10
-55.110990652829976
20
-51.529807998104971
30
0
10
-55.718355960102926
20
-52.544264524658246
30
0
10
-56.418538258251999
20
-53.909406909628814
30
0
10
-57.100421668548677
20
-55.671786128650027
30
0
0
SPLINE
5
456
100
AcDbEntity
8
0
100
AcDbSpline
70
0
71
3
72
8
73
4
74
0
42
0.000000001
43
0.0000000001
44
0.0000000001
40
0
40
0
40
0
40
0
40
1
40
1
40
1
40
1
10
1.0973931123463421
20
-74.263998266170603
30
0
10
1.1784735145761687
20
-74.606639631758227
30
0
10
1.2829092389121788
20
-74.99761426215899
30
0
10
1.4176595790698747
20
-75.435619201911123
30
0
0
SPLINE
5
457
100
AcDbEntity
8
0
100
AcDbSpline
70
0
71
3
72
8
73
4
74
0
42
0.000000001
43
0.0000000001
44
0.0000000001
40
0
40
0
40
0
40
0
40
1
40
1
40
1
40
1
10
68.337253168147697
20
-31.977526991472537
30
0
10
67.991923646021192
20
-31.676273771460252
30
0
10
67.677228384298672
20
-31.421843281180518
30
0
10
67.397188291787899
20
-31.208407849201556
30
0
0
SPLINE
5
458
100
AcDbEntity
8
0
100
AcDbSpline
70
0
71
3
72
8
73
4
74
0
42
0.000000001
43
0.0000000001
44
0.0000000001
40
0
40
0
40
0
40
0
40
1
40
1
40
1
40
1
10
66.037992368599149
20
36.490080391562707
30
0
10
65.591293793711841
20
36.387775139431753
30
0
10
65.200481969381613
20
36.28273181456899
30
0
10
64.863205641280416
20
36.181628819855241
30
0
0
ARC
5
459
100
AcDbEntity
8
0
100
AcDbCircle
10
3.7492742841538168e-12
20
2.3093867892111284e-12
30
0
40
73.959437232404539
210
0
220
-0
230
1
100
AcDbArc
50
23.454357773032772
51
24.545642226966002
0
SPLINE
5
460
100
AcDbEntity
8
0
100
AcDbSpline
70
0
71
3
72
8
73
4
74
0
42
0.000000001
43
0.0000000001
44
0.0000000001
40
0
40
0
40
0
40
0
40
1
40
1
40
1
40
1
10
-61.335429588150618
20
-50.968333332739419
30
0
10
-59.511428641885956
20
-50.474404142570108
30
0
10
-58.080575670104679
20
-49.920753751954116
30
0
10
-57.008189480336924
20
-49.422755237156494
30
0
0
ARC
5
461
100
AcDbEntity
8
0
100
AcDbCircle
10
-1.2432518455000626e-13
20
-3.4097397039452571e-13
30
0
40
79.748391366097195
210
0
220
0
230
1
100
AcDbArc
50
158.27419698475401
51
159.72580301524602
0
SPLINE
5
462
100
AcDbEntity
8
0
100
AcDbSpline
70
0
71
3
72
8
73
4
74
0
42
0.000000001
43
0.0000000001
44
0.0000000001
40
0
40
0
40
0
40
0
40
1
40
1
40
1
40
1
10
-60.195418522194771
20
-45.486855156140209
30
0
10
-60.905496200537343
20
-46.432267421485378
30
0
10
-61.744539062438434
20
-47.716742434001162
30
0
10
-62.606905835525914
20
-49.398190930253733
30
0
0
SPLINE
5
463
100
AcDbEntity
8
0
100
AcDbSpline
70
0
71
3
72
8
73
4
74
0
42
0.000000001
43
0.0000000001
44
0.0000000001
40
0
40
0
40
0
40
0
40
1
40
1
40
1
40
1
10
-48.876792177521189
20
-55.923205349445141
30
0
10
-49.045809520875764
20
-56.232090885984
30
0
10
-49.229811744251492
20
-56.59252279900975
30
0
10
-49.422755237156473
20
-57.008189480336917
30
0
0
ARC
5
464
100
AcDbEntity
8
0
100
AcDbCircle
10
1.3684059126176785e-13
20
3.6966830075505505e-13
30
0
40
79.748391366097223
210
-0
220
0
230
1
100
AcDbArc
50
338.27419698475393
51
339.72580301524499
0
ARC
5
465
100
AcDbEntity
8
0
100
AcDbCircle
10
-54.783491927560377
20
-50.280164257323847
30
0
40
0.40000000000000863
210
-0
220
0
230
1
100
AcDbArc
50
-34.693055045957159
51
42.545593599144645
0
SPLINE
5
466
100
AcDbEntity
8
0
100
AcDbSpline
70
0
71
3
72
8
73
4
74
0
42
0.000000001
43
0.0000000001
44
0.0000000001
40
0
40
0
40
0
40
0
40
1
40
1
40
1
40
1
10
55.110990652829926
20
-51.529807998104992
30
0
10
54.875655125136319
20
-51.136586469160918
30
0
10
54.654985491211605
20
-50.797362509514706
30
0
10
54.454606712088491
20
-50.507836203430692
30
0
0
ARC
5
467
100
AcDbEntity
8
0
100
AcDbCircle
10
37.791293597242792
20
64.040175154097838
30
0
40
0.40000000000000291
210
0
220
0
230
1
100
AcDbArc
50
239.45440640085852
51
316.69305504595303
0
SPLINE
5
468
100
AcDbEntity
8
0
100
AcDbSpline
70
0
71
3
72
8
73
4
74
0
42
0.000000001
43
0.0000000001
44
0.0000000001
40
0
40
0
40
0
40
0
40
1
40
1
40
1
40
1
10
-70.968372598398574
20
21.905154664043934
30
0
10
-71.319299124092737
20
21.933924624101891
30
0
10
-71.723410507681052
20
21.955418153101331
30
0
10
-72.181618104908509
20
21.962613934025022
30
0
0
SPLINE
5
469
100
AcDbEntity
8
0
100
AcDbSpline
70
0
71
3
72
8
73
4
74
0
42
0.000000001
43
0.0000000001
44
0.0000000001
40
0
40
0
40
0
40
0
40
1
40
1
40
1
40
1
10
-68.289888273088394
20
29.203370863137046
30
0
10
-68.635885106843631
20
29.268665028794096
30
0
10
-69.0355360404333
20
29.332281955908329
30
0
10
-69.490481364577988
20
29.387334053586905
30
0
0
SPLINE
5
470
100
AcDbEntity
8
0
100
AcDbSpline
70
0
71
3
72
8
73
4
74
0
42
0.000000001
43
0.0000000001
44
0.0000000001
40
0
40
0
40
0
40
0
40
1
40
1
40
1
40
1
10
64.620332789529286
20
-38.945538810348509
30
0
10
64.308384554799702
20
-38.609839122727188
30
0
10
64.022008454805416
20
-38.323907817189195
30
0
10
63.765812528934035
20
-38.082369446315298
30
0
0
ARC
5
471
100
AcDbEntity
8
0
100
AcDbCircle
10
23.650762064216018
20
70.497995427546542
30
0
40
0.4000000000000119
210
0
220
0
230
1
100
AcDbArc
50
251.45440640084644
51
328.69305504595752
0
SPLINE
5
472
100
AcDbEntity
8
0
100
AcDbSpline
70
0
71
3
72
8
73
4
74
0
42
0.000000001
43
0.0000000001
44
0.0000000001
40
0
40
0
40
0
40
0
40
1
40
1
40
1
40
1
10
-69.490481364577988
20
29.387334053586905
30
0
10
-70.664271242587603
20
29.529573229019253
30
0
10
-72.196180664903068
20
29.613968156031664
30
0
10
-74.08354116435676
20
29.52007544077874
30
0
0
SPLINE
5
473
100
AcDbEntity
8
0
100
AcDbSpline
70
0
71
3
72
8
73
4
74
0
42
0.000000001
43
0.0000000001
44
0.0000000001
40
0
40
0
40
0
40
0
40
1
40
1
40
1
40
1
10
-36.490080391562778
20
-66.037992368599191
30
0
10
-36.754234818056787
20
-67.190484060416864
30
0
10
-36.998295558608561
20
-68.705179850602548
30
0
10
-37.102200090113946
20
-70.592015652999777
30
0
0
ARC
5
474
100
AcDbEntity
8
0
100
AcDbCircle
10
-2.1723265713725617e-12
20
-2.6683476661238753e-12
30
0
40
73.959437232405392
210
0
220
0
230
1
100
AcDbArc
50
233.45435777303334
51
234.54564222696686
0
ARC
5
475
100
AcDbEntity
8
0
100
AcDbCircle
10
70.935645517076892
20
-22.303813588625061
30
0
40
0.40000000000000535
210
0
220
-0
230
1
100
AcDbArc
50
85.306944954041768
51
162.54559359904772
0
SPLINE
5
476
100
AcDbEntity
8
0
100
AcDbSpline
70
0
71
3
72
8
73
4
74
0
42
0.000000001
43
0.0000000001
44
0.0000000001
40
0
40
0
40
0
40
0
40
1
40
1
40
1
40
1
10
45.486855156140244
20
60.195418522194821
30
0
10
45.120386996937292
20
59.920269345001188
30
0
10
44.806087599359572
20
59.665350003214684
30
0
10
44.539092634527087
20
59.43580518015915
30
0
0
ARC
5
477
100
AcDbEntity
8
0
100
AcDbCircle
10
-8.525489520582846e-13
20
-5.3809934291303794e-12
30
0
40
73.959437232403403
210
0
220
0
230
1
100
AcDbArc
50
257.45435777303294
51
258.54564222696598
0
SPLINE
5
478
100
AcDbEntity
8
0
100
AcDbSpline
70
0
71
3
72
8
73
4
74
0
42
0.000000001
43
0.0000000001
44
0.0000000001
40
0
40
0
40
0
40
0
40
1
40
1
40
1
40
1
10
-11.47663532883085
20
-78.918266371032502
30
0
10
-10.451641602464717
20
-77.330710590032865
30
0
10
-9.7587750420502815
20
-75.961840650504598
30
0
10
-9.2950628423832597
20
-74.874189209727177
30
0
0
ARC
5
479
100
AcDbEntity
8
0
100
AcDbCircle
10
-3.8201109369611248e-14
20
4.1056975569700691e-14
30
0
40
79.748391366097223
210
0
220
0
230
1
100
AcDbArc
50
224.27419698475421
51
225.72580301524587
0
ARC
5
480
100
AcDbEntity
8
0
100
AcDbCircle
10
3.7967304727245525e-12
20
2.7604886736744274e-12
30
0
40
73.959437232404198
210
0
220
-0
230
1
100
AcDbArc
50
29.454357773032896
51
30.5456422269664
0
ARC
5
481
100
AcDbEntity
8
0
100
AcDbCircle
10
-4.4406476769249091e-14
20
2.5711180854681481e-14
30
0
40
79.748391366097252
210
0
220
-0
230
1
100
AcDbArc
50
50.27419698475412
51
51.725803015245795
0
SPLINE
5
482
100
AcDbEntity
8
0
100
AcDbSpline
70
0
71
3
72
8
73
4
74
0
42
0.000000001
43
0.0000000001
44
0.0000000001
40
0
40
0
40
0
40
0
40
1
40
1
40
1
40
1
10
1.4176595790698747
20
-75.435619201911123
30
0
10
1.7651409811128003
20
-76.56578349792278
30
0
10
2.3111260748213165
20
-77.999578901504691
30
0
10
3.1645600121679656
20
-79.685578904903437
30
0
0
ARC
5
483
100
AcDbEntity
8
0
100
AcDbCircle
10
70.497995427546542
20
-23.650762064215915
30
0
40
0.39999999999991831
210
0
220
0
230
1
100
AcDbArc
50
161.45440640086332
51
238.693055045958
0
SPLINE
5
484
100
AcDbEntity
8
0
100
AcDbSpline
70
0
71
3
72
8
73
4
74
0
42
0.000000001
43
0.0000000001
44
0.0000000001
40
0
40
0
40
0
40
0
40
1
40
1
40
1
40
1
10
71.305456300566362
20
24.659162695150293
30
0
10
72.272928760311942
20
25.33887712075801
30
0
10
73.467830549291236
20
26.301206948093039
30
0
10
74.80758624878078
20
27.633873509000427
30
0
0
ARC
5
485
100
AcDbEntity
8
0
100
AcDbCircle
10
1.308398906073596e-15
20
-2.4965738368864351e-14
30
0
40
79.748391366097209
210
0
220
-0
230
1
100
AcDbArc
50
14.274196984754159
51
15.725803015245845
0
SPLINE
5
486
100
AcDbEntity
8
0
100
AcDbSpline
70
0
71
3
72
8
73
4
74
0
42
0.000000001
43
0.0000000001
44
0.0000000001
40
0
40
0
40
0
40
0
40
1
40
1
40
1
40
1
10
57.008189480336924
20
49.422755237156494
30
0
10
56.592522799009728
20
49.229811744251435
30
0
10
56.232090885984071
20
49.045809520875743
30
0
10
55.923205349445233
20
48.876792177521239
30
0
0
SPLINE
5
487
100
AcDbEntity
8
0
100
AcDbSpline
70
0
71
3
72
8
73
4
74
0
42
0.000000001
43
0.0000000001
44
0.0000000001
40
0
40
0
40
0
40
0
40
1
40
1
40
1
40
1
10
69.490481364578073
20
-29.387334053586901
30
0
10
70.664271242587589
20
-29.529573229019164
30
0
10
72.196180664903068
20
-29.613968156031664
30
0
10
74.08354116435676
20
-29.52007544077874
30
0
0
ARC
5
488
100
AcDbEntity
8
0
100
AcDbCircle
10
49.227673924026554
20
55.731158480245568
30
0
40
0.40000000000002067
210
0
220
0
230
1
100
AcDbArc
50
151.30694495404961
51
228.54559359914407
0
ARC
5
489
100
AcDbEntity
8
0
100
AcDbCircle
10
-0.70813272003957317
20
-74.356065344875176
30
0
40
0.40000000000000785
210
0
220
-0
230
1
100
AcDbArc
50
89.45440640092265
51
166.69305504595729
0
SPLINE
5
490
100
AcDbEntity
8
0
100
AcDbSpline
70
0
71
3
72
8
73
4
74
0
42
0.000000001
43
0.0000000001
44
0.0000000001
40
0
40
0
40
0
40
0
40
1
40
1
40
1
40
1
10
60.725868154968197
20
-42.76347327973069
30
0
10
61.050728707384991
20
-42.899277397933716
30
0
10
61.428419606325868
20
-43.044596243896088
30
0
10
61.861977308891682
20
-43.193033772728299
30
0
0
SPLINE
5
491
100
AcDbEntity
8
0
100
AcDbSpline
70
0
71
3
72
8
73
4
74
0
42
0.000000001
43
0.0000000001
44
0.0000000001
40
0
40
0
40
0
40
0
40
1
40
1
40
1
40
1
10
-1.4176595790698725
20
-75.435619201911209
30
0
10
-1.2829092389121743
20
-74.997614262158947
30
0
10
-1.1784735145761771
20
-74.606639631758171
30
0
10
-1.097393112346337
20
-74.263998266170631
30
0
0
SPLINE
5
492
100
AcDbEntity
8
0
100
AcDbSpline
70
0
71
3
72
8
73
4
74
0
42
0.000000001
43
0.0000000001
44
0.0000000001
40
0
40
0
40
0
40
0
40
1
40
1
40
1
40
1
10
55.92320534944524
20
-48.876792177521189
30
0
10
56.232090885984
20
-49.045809520875764
30
0
10
56.592522799009743
20
-49.229811744251393
30
0
10
57.008189480336917
20
-49.422755237156473
30
0
0
ARC
5
493
100
AcDbEntity
8
0
100
AcDbCircle
10
-8.195981007423197e-14
20
-3.2773859939377877e-13
30
0
40
79.748391366097195
210
-0
220
0
230
1
100
AcDbArc
50
344.27419698475398
51
345.72580301524613
0
SPLINE
5
494
100
AcDbEntity
8
0
100
AcDbSpline
70
0
71
3
72
8
73
4
74
0
42
0.000000001
43
0.0000000001
44
0.0000000001
40
0
40
0
40
0
40
0
40
1
40
1
40
1
40
1
10
60.195418522194764
20
45.486855156140308
30
0
10
60.905496200537343
20
46.432267421485378
30
0
10
61.744539062438434
20
47.716742434001162
30
0
10
62.606905835525914
20
49.398190930253733
30
0
0
ARC
5
495
100
AcDbEntity
8
0
100
AcDbCircle
10
-49.227673924026554
20
-55.731158480245568
30
0
40
0.40000000000000746
210
-0
220
0
230
1
100
AcDbArc
50
-28.693055045955038
51
48.545593599144773
0
SPLINE
5
496
100
AcDbEntity
8
0
100
AcDbSpline
70
0
71
3
72
8
73
4
74
0
42
0.000000001
43
0.0000000001
44
0.0000000001
40
0
40
0
40
0
40
0
40
1
40
1
40
1
40
1
10
-74.807586248780765
20
27.633873509000448
30
0
10
-73.467830549291179
20
26.301206948093103
30
0
10
-72.272928760311885
20
25.338877120758042
30
0
10
-71.305456300566405
20
24.659162695150325
30
0
0
SPLINE
5
497
100
AcDbEntity
8
0
100
AcDbSpline
70
0
71
3
72
8
73
4
74
0
42
0.000000001
43
0.0000000001
44
0.0000000001
40
0
40
0
40
0
40
0
40
1
40
1
40
1
40
1
10
38.945538810348509
20
64.620332789529286
30
0
10
38.609839122727188
20
64.308384554799702
30
0
10
38.323907817189195
20
64.022008454805416
30
0
10
38.082369446315298
20
63.765812528934035
30
0
0
SPLINE
5
498
100
AcDbEntity
8
0
100
AcDbSpline
70
0
71
3
72
8
73
4
74
0
42
0.000000001
43
0.0000000001
44
0.0000000001
40
0
40
0
40
0
40
0
40
1
40
1
40
1
40
1
10
-57.008189480336924
20
-49.422755237156494
30
0
10
-56.592522799009728
20
-49.229811744251435
30
0
10
-56.232090885984071
20
-49.045809520875743
30
0
10
-55.923205349445233
20
-48.876792177521239
30
0
0
ARC
5
499
100
AcDbEntity
8
0
100
AcDbCircle
10
-2.0112761823363761e-13
20
3.0288889247323703e-13
30
0
40
79.748391366097195
210
0
220
-0
230
1
100
AcDbArc
50
32.274196984753885
51
33.725803015245198
0
SPLINE
5
500
100
AcDbEntity
8
0
100
AcDbSpline
70
0
71
3
72
8
73
4
74
0
42
0.000000001
43
0.0000000001
44
0.0000000001
40
0
40
0
40
0
40
0
40
1
40
1
40
1
40
1
10
-14.366941006503339
20
-72.869312582433935
30
0
10
-14.358871551259121
20
-73.221323975615419
30
0
10
-14.33800619454245
20
-73.625468280318117
30
0
10
-14.297266820229542
20
-74.081917932306766
30
0
0
ARC
5
501
100
AcDbEntity
8
0
100
AcDbCircle
10
-2.6536953009736329e-13
20
1.1178508218391555e-16
30
0
40
79.748391366097223
210
0
220
-0
230
1
100
AcDbArc
50
86.274196984753985
51
87.725803015245589
0
SPLINE
5
502
100
AcDbEntity
8
0
100
AcDbSpline
70
0
71
3
72
8
73
4
74
0
42
0.000000001
43
0.0000000001
44
0.0000000001
40
0
40
0
40
0
40
0
40
1
40
1
40
1
40
1
10
49.422755237156473
20
57.008189480336917
30
0
10
49.920753751954045
20
58.080575670104665
30
0
10
50.474404142570165
20
59.511428641885978
30
0
10
50.968333332739412
20
61.335429588150568
30
0
0
ARC
5
503
100
AcDbEntity
8
0
100
AcDbCircle
10
2.1703923617247266e-14
20
-1.2881758405462212e-14
30
0
40
79.748391366097223
210
0
220
0
230
1
100
AcDbArc
50
230.27419698475413
51
231.72580301524599
0
SPLINE
5
504
100
AcDbEntity
8
0
100
AcDbSpline
70
0
71
3
72
8
73
4
74
0
42
0.000000001
43
0.0000000001
44
0.0000000001
40
0
40
0
40
0
40
0
40
1
40
1
40
1
40
1
10
74.08354116435676
20
29.520075440778744
30
0
10
72.196180664903039
20
29.613968156031632
30
0
10
70.664271242587574
20
29.529573229019213
30
0
10
69.490481364578088
20
29.387334053586933
30
0
0
SPLINE
5
505
100
AcDbEntity
8
0
100
AcDbSpline
70
0
71
3
72
8
73
4
74
0
42
0.000000001
43
0.0000000001
44
0.0000000001
40
0
40
0
40
0
40
0
40
1
40
1
40
1
40
1
10
66.327069245819558
20
44.277825271127142
30
0
10
64.461430708375559
20
43.977261892654084
30
0
10
62.980543874367683
20
43.576209319109466
30
0
10
61.86197730889166
20
43.193033772728278
30
0
0
ARC
5
506
100
AcDbEntity
8
0
100
AcDbCircle
10
1.8343095185382457e-13
20
-2.3271889889306347e-13
30
0
40
79.748391366097195
210
0
220
0
230
1
100
AcDbArc
50
218.27419698475396
51
219.72580301524599
0
ARC
5
507
100
AcDbEntity
8
0
100
AcDbCircle
10
-67.639622218586098
20
30.890247840499633
30
0
40
0.40000000000000707
210
-0
220
0
230
1
100
AcDbArc
50
-24.545593599145363
51
52.693055045954139
0
ARC
5
508
100
AcDbEntity
8
0
100
AcDbCircle
10
-7.0680717502229857
20
-74.022755063927761
30
0
40
0.40000000000000713
210
0
220
-0
230
1
100
AcDbArc
50
7.3069449540414402
51
84.5455935992685
0
ARC
5
509
100
AcDbEntity
8
0
100
AcDbCircle
10
55.731158480245568
20
-49.227673924026554
30
0
40
0.40000000000000746
210
0
220
-0
230
1
100
AcDbArc
50
61.306944954044937
51
138.54559359914478
0
ARC
5
510
100
AcDbEntity
8
0
100
AcDbCircle
10
4.5793538899058888e-12
20
-2.7911603234145825e-12
30
0
40
73.959437232403502
210
-0
220
0
230
1
100
AcDbArc
50
323.45435777303305
51
324.54564222696604
0
ARC
5
511
100
AcDbEntity
8
0
100
AcDbCircle
10
-2.8112330166208188e-12
20
-2.4384704070915055e-12
30
0
40
73.959437232405207
210
0
220
0
230
1
100
AcDbArc
50
221.45435777303302
51
222.54564222696678
0
ARC
5
512
100
AcDbEntity
8
0
100
AcDbCircle
10
-55.731158480245647
20
-49.22767392402654
30
0
40
0.39999999999998515
210
0
220
-0
230
1
100
AcDbArc
50
41.454406400905242
51
118.69305504595661
0
ARC
5
513
100
AcDbEntity
8
0
100
AcDbCircle
10
-1.3980813486564032e-14
20
-7.3270338740121355e-16
30
0
40
79.748391366097209
210
0
220
0
230
1
100
AcDbArc
50
260.27419698475404
51
261.72580301524584
0
SPLINE
5
514
100
AcDbEntity
8
0
100
AcDbSpline
70
0
71
3
72
8
73
4
74
0
42
0.000000001
43
0.0000000001
44
0.0000000001
40
0
40
0
40
0
40
0
40
1
40
1
40
1
40
1
10
-6.6713201368196788
20
-73.971881128932267
30
0
10
-6.6264996769136699
20
-74.321120679114173
30
0
10
-6.5635040396953332
20
-74.72087001535634
30
0
10
-6.4752758592560884
20
-75.170560764200843
30
0
0
ARC
5
515
100
AcDbEntity
8
0
100
AcDbCircle
10
3.3333865439017477e-14
20
5.1815571162474678e-14
30
0
40
79.748391366097195
210
-0
220
0
230
1
100
AcDbArc
50
320.27419698475398
51
321.72580301524596
0
SPLINE
5
516
100
AcDbEntity
8
0
100
AcDbSpline
70
0
71
3
72
8
73
4
74
0
42
0.000000001
43
0.0000000001
44
0.0000000001
40
0
40
0
40
0
40
0
40
1
40
1
40
1
40
1
10
55.671786128650005
20
57.100421668548684
30
0
10
53.909406909628849
20
56.41853825825207
30
0
10
52.544264524658217
20
55.718355960102876
30
0
10
51.529807998104992
20
55.110990652829926
30
0
0
ARC
5
517
100
AcDbEntity
8
0
100
AcDbCircle
10
59.739090529353113
20
-44.278290032998029
30
0
40
0.40000000000006486
210
0
220
0
230
1
100
AcDbArc
50
143.45440640084215
51
220.69305504595721
0
ARC
5
518
100
AcDbEntity
8
0
100
AcDbCircle
10
3.1669870661849494e-12
20
2.8346320612413272e-12
30
0
40
73.959437232404596
210
0
220
-0
230
1
100
AcDbArc
50
41.45435777303328
51
42.545642226966095
0
SPLINE
5
519
100
AcDbEntity
8
0
100
AcDbSpline
70
0
71
3
72
8
73
4
74
0
42
0.000000001
43
0.0000000001
44
0.0000000001
40
0
40
0
40
0
40
0
40
1
40
1
40
1
40
1
10
63.765812528934092
20
38.082369446315312
30
0
10
64.022008454805459
20
38.323907817189252
30
0
10
64.308384554799702
20
38.609839122727195
30
0
10
64.620332789529343
20
38.945538810348452
30
0
0
SPLINE
5
520
100
AcDbEntity
8
0
100
AcDbSpline
70
0
71
3
72
8
73
4
74
0
42
0.000000001
43
0.0000000001
44
0.0000000001
40
0
40
0
40
0
40
0
40
1
40
1
40
1
40
1
10
-17.070627452078469
20
-73.492421932129943
30
0
10
-16.847755382544754
20
-73.092004622262237
30
0
10
-16.664313632881111
20
-72.73128713361649
30
0
10
-16.513765886310047
20
-72.412990867474591
30
0
0
SPLINE
5
521
100
AcDbEntity
8
0
100
AcDbSpline
70
0
71
3
72
8
73
4
74
0
42
0.000000001
43
0.0000000001
44
0.0000000001
40
0
40
0
40
0
40
0
40
1
40
1
40
1
40
1
10
55.110990652829976
20
51.529807998104971
30
0
10
55.718355960102926
20
52.544264524658246
30
0
10
56.418538258251999
20
53.909406909628814
30
0
10
57.100421668548677
20
55.671786128650027
30
0
0
SPLINE
5
522
100
AcDbEntity
8
0
100
AcDbSpline
70
0
71
3
72
8
73
4
74
0
42
0.000000001
43
0.0000000001
44
0.0000000001
40
0
40
0
40
0
40
0
40
1
40
1
40
1
40
1
10
70.968372598398574
20
-21.905154664043934
30
0
10
71.319299124092737
20
-21.933924624101891
30
0
10
71.723410507681052
20
-21.955418153101331
30
0
10
72.181618104908509
20
-21.962613934025022
30
0
0
ARC
5
523
100
AcDbEntity
8
0
100
AcDbCircle
10
3.5493533673957278e-12
20
3.544616576353021e-12
30
0
40
73.959437232403843
210
0
220
-0
230
1
100
AcDbArc
50
47.454357773033458
51
48.545642226966962
0
SPLINE
5
524
100
AcDbEntity
8
0
100
AcDbSpline
70
0
71
3
72
8
73
4
74
0
42
0.000000001
43
0.0000000001
44
0.0000000001
40
0
40
0
40
0
40
0
40
1
40
1
40
1
40
1
10
67.427455640831809
20
-42.583378814789576
30
0
10
66.394053775781117
20
-41.001283342896272
30
0
10
65.425343079304085
20
-39.8115486798661
30
0
10
64.620332789529286
20
-38.945538810348509
30
0
0
ARC
5
525
100
AcDbEntity
8
0
100
AcDbCircle
10
70.935645517076949
20
22.30381358862509
30
0
40
0.4000000000000104
210
0
220
0
230
1
100
AcDbArc
50
197.45440640085715
51
274.69305504595815
0
SPLINE
5
526
100
AcDbEntity
8
0
100
AcDbSpline
70
0
71
3
72
8
73
4
74
0
42
0.000000001
43
0.0000000001
44
0.0000000001
40
0
40
0
40
0
40
0
40
1
40
1
40
1
40
1
10
-3.1645600121679625
20
-79.685578904903537
30
0
10
-2.3111260748213325
20
-77.999578901504762
30
0
10
-1.7651409811128
20
-76.565783497922865
30
0
10
-1.4176595790698725
20
-75.435619201911209
30
0
0
ARC
5
527
100
AcDbEntity
8
0
100
AcDbCircle
10
-8.4765787400351709
20
-73.874715013897145
30
0
40
0.40000000000001135
210
0
220
-0
230
1
100
AcDbArc
50
83.454406400855262
51
160.69305504595724
0
ARC
5
528
100
AcDbEntity
8
0
100
AcDbCircle
10
2.6533131280211549e-13
20
-1.7134845913140255e-13
30
0
40
79.748391366097209
210
0
220
-0
230
1
100
AcDbArc
50
56.274196984754397
51
57.725803015245994
0
ARC
5
529
100
AcDbEntity
8
0
100
AcDbCircle
10
-1.981444687277898e-13
20
2.4596700899222631e-13
30
0
40
79.748391366097209
210
0
220
-0
230
1
100
AcDbArc
50
38.274196984753893
51
39.725803015245489
0
SPLINE
5
530
100
AcDbEntity
8
0
100
AcDbSpline
70
0
71
3
72
8
73
4
74
0
42
0.000000001
43
0.0000000001
44
0.0000000001
40
0
40
0
40
0
40
0
40
1
40
1
40
1
40
1
10
72.181618104908523
20
21.962613934024965
30
0
10
71.723410507681052
20
21.95541815310132
30
0
10
71.319299124092709
20
21.933924624101873
30
0
10
70.968372598398531
20
21.905154664043877
30
0
0
ARC
5
531
100
AcDbEntity
8
0
100
AcDbCircle
10
4.0041105788423237e-12
20
-3.9097992879945879e-12
30
0
40
73.959437232403303
210
-0
220
0
230
1
100
AcDbArc
50
311.45435777303294
51
312.54564222696604
0
ARC
5
532
100
AcDbEntity
8
0
100
AcDbCircle
10
70.49799542754657
20
23.650762064215986
30
0
40
0.4000000000000058
210
0
220
0
230
1
100
AcDbArc
50
121.30694495404228
51
198.5455935991431
0
SPLINE
5
533
100
AcDbEntity
8
0
100
AcDbSpline
70
0
71
3
72
8
73
4
74
0
42
0.000000001
43
0.0000000001
44
0.0000000001
40
0
40
0
40
0
40
0
40
1
40
1
40
1
40
1
10
43.193033772728299
20
61.861977308891682
30
0
10
43.576209319109537
20
62.980543874367633
30
0
10
43.977261892654091
20
64.461430708375502
30
0
10
44.277825271127199
20
66.327069245819601
30
0
0
SPLINE
5
534
100
AcDbEntity
8
0
100
AcDbSpline
70
0
71
3
72
8
73
4
74
0
42
0.000000001
43
0.0000000001
44
0.0000000001
40
0
40
0
40
0
40
0
40
1
40
1
40
1
40
1
10
51.529807998104992
20
55.110990652829926
30
0
10
51.136586469160918
20
54.875655125136319
30
0
10
50.79736250951462
20
54.65498549121159
30
0
10
50.507836203430692
20
54.454606712088491
30
0
0
SPLINE
5
535
100
AcDbEntity
8
0
100
AcDbSpline
70
0
71
3
72
8
73
4
74
0
42
0.000000001
43
0.0000000001
44
0.0000000001
40
0
40
0
40
0
40
0
40
1
40
1
40
1
40
1
10
49.398190930253747
20
62.606905835525893
30
0
10
47.716742434001141
20
61.744539062438335
30
0
10
46.432267421485378
20
60.905496200537293
30
0
10
45.486855156140244
20
60.195418522194821
30
0
0
ARC
5
536
100
AcDbEntity
8
0
100
AcDbCircle
10
2.7508989929755562e-13
20
-1.3621574962561455e-14
30
0
40
79.748391366097223
210
0
220
0
230
1
100
AcDbArc
50
266.27419698475398
51
267.72580301524567
0
SPLINE
5
537
100
AcDbEntity
8
0
100
AcDbSpline
70
0
71
3
72
8
73
4
74
0
42
0.000000001
43
0.0000000001
44
0.0000000001
40
0
40
0
40
0
40
0
40
1
40
1
40
1
40
1
10
57.008189480336917
20
-49.422755237156473
30
0
10
58.080575670104665
20
-49.920753751954045
30
0
10
59.511428641885978
20
-50.474404142570165
30
0
10
61.335429588150568
20
-50.968333332739412
30
0
0
ARC
5
538
100
AcDbEntity
8
0
100
AcDbCircle
10
43.132507223428071
20
60.571550468363043
30
0
40
0.40000000000001706
210
0
220
0
230
1
100
AcDbArc
50
157.30694495402929
51
234.54559359912651
0
SPLINE
5
539
100
AcDbEntity
8
0
100
AcDbSpline
70
0
71
3
72
8
73
4
74
0
42
0.000000001
43
0.0000000001
44
0.0000000001
40
0
40
0
40
0
40
0
40
1
40
1
40
1
40
1
10
61.861977308891682
20
-43.193033772728299
30
0
10
62.980543874367633
20
-43.576209319109537
30
0
10
64.461430708375502
20
-43.977261892654091
30
0
10
66.327069245819601
20
-44.277825271127199
30
0
0
SPLINE
5
540
100
AcDbEntity
8
0
100
AcDbSpline
70
0
71
3
72
8
73
4
74
0
42
0.000000001
43
0.0000000001
44
0.0000000001
40
0
40
0
40
0
40
0
40
1
40
1
40
1
40
1
10
54.454606712088548
20
50.507836203430656
30
0
10
54.654985491211569
20
50.797362509514691
30
0
10
54.875655125136369
20
51.136586469160932
30
0
10
55.110990652829976
20
51.529807998104971
30
0
0
SPLINE
5
541
100
AcDbEntity
8
0
100
AcDbSpline
70
0
71
3
72
8
73
4
74
0
42
0.000000001
43
0.0000000001
44
0.0000000001
40
0
40
0
40
0
40
0
40
1
40
1
40
1
40
1
10
-6.4752758592560884
20
-75.170560764200843
30
0
10
-6.2478323337932
20
-76.330855598917523
30
0
10
-5.8547106337320187
20
-77.813867504070615
30
0
10
-5.1821868862149501
20
-79.579839561012861
30
0
0
SPLINE
5
542
100
AcDbEntity
8
0
100
AcDbSpline
70
0
71
3
72
8
73
4
74
0
42
0.000000001
43
0.0000000001
44
0.0000000001
40
0
40
0
40
0
40
0
40
1
40
1
40
1
40
1
10
44.277825271127142
20
-66.327069245819558
30
0
10
43.977261892654084
20
-64.461430708375559
30
0
10
43.576209319109466
20
-62.980543874367683
30
0
10
43.193033772728278
20
-61.86197730889166
30
0
0
ARC
5
543
100
AcDbEntity
8
0
100
AcDbCircle
10
2.2936263581121349e-12
20
4.2899183126690492e-12
30
0
40
73.959437232404014
210
0
220
-0
230
1
100
AcDbArc
50
59.454357773033138
51
60.545642226966621
0
ARC
5
544
100
AcDbEntity
8
0
100
AcDbCircle
10
54.783491927560377
20
50.280164257323847
30
0
40
0.40000000000002278
210
0
220
0
230
1
100
AcDbArc
50
145.30694495404398
51
222.54559359926304
0
SPLINE
5
545
100
AcDbEntity
8
0
100
AcDbSpline
70
0
71
3
72
8
73
4
74
0
42
0.000000001
43
0.0000000001
44
0.0000000001
40
0
40
0
40
0
40
0
40
1
40
1
40
1
40
1
10
36.181628819855305
20
64.863205641280388
30
0
10
36.282731814568969
20
65.200481969381613
30
0
10
36.387775139431788
20
65.591293793711912
30
0
10
36.490080391562671
20
66.037992368599191
30
0
0
SPLINE
5
546
100
AcDbEntity
8
0
100
AcDbSpline
70
0
71
3
72
8
73
4
74
0
42
0.000000001
43
0.0000000001
44
0.0000000001
40
0
40
0
40
0
40
0
40
1
40
1
40
1
40
1
10
70.290146355948494
20
23.992520404912746
30
0
10
70.590962437243107
20
24.175514454739666
30
0
10
70.930528993552088
20
24.395656536066731
30
0
10
71.305456300566362
20
24.659162695150293
30
0
0
ARC
5
547
100
AcDbEntity
8
0
100
AcDbCircle
10
44.278290032998001
20
-59.739090529353085
30
0
40
0.40000000000006636
210
0
220
-0
230
1
100
AcDbArc
50
49.306944954045221
51
126.54559359914174
0
ARC
5
548
100
AcDbEntity
8
0
100
AcDbCircle
10
64.040175154097852
20
37.791293597242849
30
0
40
0.40000000000000924
210
0
220
0
230
1
100
AcDbArc
50
133.30694495404674
51
210.54559359914009
0
ARC
5
549
100
AcDbEntity
8
0
100
AcDbCircle
10
60.571550468363078
20
43.132507223428114
30
0
40
0.40000000000000535
210
0
220
0
230
1
100
AcDbArc
50
215.45440640085624
51
292.69305504595656
0
ARC
5
550
100
AcDbEntity
8
0
100
AcDbCircle
10
2.2472986261502692e-13
20
1.8301226420388103e-13
30
0
40
79.748391366097238
210
-0
220
0
230
1
100
AcDbArc
50
308.27419698475393
51
309.72580301524602
0
ARC
5
551
100
AcDbEntity
8
0
100
AcDbCircle
10
36.564771747632356
20
64.748307874137382
30
0
40
0.40000000000000679
210
0
220
0
230
1
100
AcDbArc
50
163.30694495404535
51
240.54559359914376
0
SPLINE
5
552
100
AcDbEntity
8
0
100
AcDbSpline
70
0
71
3
72
8
73
4
74
0
42
0.000000001
43
0.0000000001
44
0.0000000001
40
0
40
0
40
0
40
0
40
1
40
1
40
1
40
1
10
59.4358051801591
20
44.539092634527073
30
0
10
59.665350003214705
20
44.806087599359508
30
0
10
59.920269345001202
20
45.12038699693727
30
0
10
60.195418522194764
20
45.486855156140308
30
0
0
ARC
5
553
100
AcDbEntity
8
0
100
AcDbCircle
10
3.9825629296016324e-12
20
5.7121406824663179e-13
30
0
40
73.959437232404937
210
0
220
-0
230
1
100
AcDbArc
50
17.454357773033795
51
18.545642226967303
0
SPLINE
5
554
100
AcDbEntity
8
0
100
AcDbSpline
70
0
71
3
72
8
73
4
74
0
42
0.000000001
43
0.0000000001
44
0.0000000001
40
0
40
0
40
0
40
0
40
1
40
1
40
1
40
1
10
70.592015652999777
20
37.102200090113847
30
0
10
68.705179850602477
20
36.998295558608497
30
0
10
67.190484060416964
20
36.754234818056673
30
0
10
66.037992368599149
20
36.490080391562707
30
0
0
SPLINE
5
555
100
AcDbEntity
8
0
100
AcDbSpline
70
0
71
3
72
8
73
4
74
0
42
0.000000001
43
0.0000000001
44
0.0000000001
40
0
40
0
40
0
40
0
40
1
40
1
40
1
40
1
10
48.876792177521189
20
55.923205349445141
30
0
10
49.045809520875764
20
56.232090885984
30
0
10
49.229811744251393
20
56.592522799009743
30
0
10
49.422755237156473
20
57.008189480336917
30
0
0
SPLINE
5
556
100
AcDbEntity
8
0
100
AcDbSpline
70
0
71
3
72
8
73
4
74
0
42
0.000000001
43
0.0000000001
44
0.0000000001
40
0
40
0
40
0
40
0
40
1
40
1
40
1
40
1
10
42.76347327973069
20
60.725868154968197
30
0
10
42.899277397933716
20
61.050728707385076
30
0
10
43.044596243896088
20
61.428419606325868
30
0
10
43.193033772728299
20
61.861977308891682
30
0
0
ARC
5
557
100
AcDbEntity
8
0
100
AcDbCircle
10
3.8201109369611248e-14
20
-4.1056975569700691e-14
30
0
40
79.748391366097209
210
0
220
-0
230
1
100
AcDbArc
50
44.274196984754191
51
45.725803015246086
0
ARC
5
558
100
AcDbEntity
8
0
100
AcDbCircle
10
2.1248281344972408e-12
20
3.4409205743302153e-12
30
0
40
73.959437232404795
210
0
220
-0
230
1
100
AcDbArc
50
53.454357773032974
51
54.545642226966585
0
SPLINE
5
559
100
AcDbEntity
8
0
100
AcDbSpline
70
0
71
3
72
8
73
4
74
0
42
0.000000001
43
0.0000000001
44
0.0000000001
40
0
40
0
40
0
40
0
40
1
40
1
40
1
40
1
10
71.305456300566405
20
-24.659162695150325
30
0
10
70.93052899355213
20
-24.395656536066728
30
0
10
70.590962437243135
20
-24.175514454739666
30
0
10
70.290146355948494
20
-23.992520404912771
30
0
0
SPLINE
5
560
100
AcDbEntity
8
0
100
AcDbSpline
70
0
71
3
72
8
73
4
74
0
42
0.000000001
43
0.0000000001
44
0.0000000001
40
0
40
0
40
0
40
0
40
1
40
1
40
1
40
1
10
64.620332789529343
20
38.945538810348452
30
0
10
65.425343079304071
20
39.8115486798661
30
0
10
66.394053775781202
20
41.001283342896251
30
0
10
67.427455640831738
20
42.58337881478959
30
0
0
SPLINE
5
561
100
AcDbEntity
8
0
100
AcDbSpline
70
0
71
3
72
8
73
4
74
0
42
0.000000001
43
0.0000000001
44
0.0000000001
40
0
40
0
40
0
40
0
40
1
40
1
40
1
40
1
10
61.86197730889166
20
43.193033772728278
30
0
10
61.428419606325889
20
43.044596243896123
30
0
10
61.050728707385034
20
42.899277397933695
30
0
10
60.725868154968133
20
42.763473279730668
30
0
0
SPLINE
5
562
100
AcDbEntity
8
0
100
AcDbSpline
70
0
71
3
72
8
73
4
74
0
42
0.000000001
43
0.0000000001
44
0.0000000001
40
0
40
0
40
0
40
0
40
1
40
1
40
1
40
1
10
68.337253168147768
20
31.977526991472544
30
0
10
69.228376208160839
20
32.754646279808057
30
0
10
70.316141342107585
20
33.836605611416431
30
0
10
71.50925613203448
20
35.302014289885747
30
0
0
ARC
5
563
100
AcDbEntity
8
0
100
AcDbCircle
10
1.1852994746099412e-12
20
-1.4459478398232065e-12
30
0
40
73.959437232406998
210
-0
220
0
230
1
100
AcDbArc
50
317.45435777303351
51
318.54564222696695
0
SPLINE
5
564
100
AcDbEntity
8
0
100
AcDbSpline
70
0
71
3
72
8
73
4
74
0
42
0.000000001
43
0.0000000001
44
0.0000000001
40
0
40
0
40
0
40
0
40
1
40
1
40
1
40
1
10
51.529807998104971
20
-55.110990652829976
30
0
10
52.544264524658246
20
-55.718355960102926
30
0
10
53.909406909628821
20
-56.418538258252099
30
0
10
55.671786128650027
20
-57.100421668548677
30
0
0
ARC
5
565
100
AcDbEntity
8
0
100
AcDbCircle
10
55.73115848024554
20
49.22767392402654
30
0
40
0.40000000000000591
210
0
220
0
230
1
100
AcDbArc
50
221.4544064008565
51
298.69305504595962
0
ARC
5
566
100
AcDbEntity
8
0
100
AcDbCircle
10
2.2253175245282327e-13
20
2.2495470466357311e-13
30
0
40
79.748391366097223
210
-0
220
0
230
1
100
AcDbArc
50
314.27419698475393
51
315.72580301524562
0
SPLINE
5
567
100
AcDbEntity
8
0
100
AcDbSpline
70
0
71
3
72
8
73
4
74
0
42
0.000000001
43
0.0000000001
44
0.0000000001
40
0
40
0
40
0
40
0
40
1
40
1
40
1
40
1
10
45.486855156140209
20
-60.195418522194771
30
0
10
46.432267421485378
20
-60.905496200537343
30
0
10
47.716742434001162
20
-61.744539062438434
30
0
10
49.398190930253733
20
-62.606905835525914
30
0
0
ARC
5
568
100
AcDbEntity
8
0
100
AcDbCircle
10
-1.1487912655104363e-13
20
3.0039937796684816e-13
30
0
40
79.748391366097195
210
0
220
-0
230
1
100
AcDbArc
50
20.274196984753889
51
21.725803015245798
0
SPLINE
5
569
100
AcDbEntity
8
0
100
AcDbSpline
70
0
71
3
72
8
73
4
74
0
42
0.000000001
43
0.0000000001
44
0.0000000001
40
0
40
0
40
0
40
0
40
1
40
1
40
1
40
1
10
44.539092634527073
20
-59.4358051801591
30
0
10
44.806087599359508
20
-59.665350003214705
30
0
10
45.12038699693727
20
-59.920269345001202
30
0
10
45.486855156140209
20
-60.195418522194771
30
0
0
SPLINE
5
570
100
AcDbEntity
8
0
100
AcDbSpline
70
0
71
3
72
8
73
4
74
0
42
0.000000001
43
0.0000000001
44
0.0000000001
40
0
40
0
40
0
40
0
40
1
40
1
40
1
40
1
10
50.96833333273932
20
-61.335429588150625
30
0
10
50.474404142570108
20
-59.511428641885956
30
0
10
49.920753751954024
20
-58.080575670104679
30
0
10
49.422755237156494
20
-57.008189480336924
30
0
0
SPLINE
5
571
100
AcDbEntity
8
0
100
AcDbSpline
70
0
71
3
72
8
73
4
74
0
42
0.000000001
43
0.0000000001
44
0.0000000001
40
0
40
0
40
0
40
0
40
1
40
1
40
1
40
1
10
42.583378814789576
20
67.427455640831809
30
0
10
41.001283342896258
20
66.394053775781231
30
0
10
39.811548679866092
20
65.42534307930417
30
0
10
38.945538810348509
20
64.620332789529286
30
0
0
SPLINE
5
572
100
AcDbEntity
8
0
100
AcDbSpline
70
0
71
3
72
8
73
4
74
0
42
0.000000001
43
0.0000000001
44
0.0000000001
40
0
40
0
40
0
40
0
40
1
40
1
40
1
40
1
10
67.39718829178787
20
31.208407849201571
30
0
10
67.677228384298743
20
31.421843281180458
30
0
10
67.991923646021192
20
31.676273771460231
30
0
10
68.337253168147768
20
31.977526991472544
30
0
0
ARC
5
573
100
AcDbEntity
8
0
100
AcDbCircle
10
-5.4189102473255039e-12
20
7.5443007060339882e-13
30
0
40
73.959437232403388
210
0
220
0
230
1
100
AcDbArc
50
173.45435777303302
51
174.54564222696703
0
ARC
5
574
100
AcDbEntity
8
0
100
AcDbCircle
10
-73.874715013897145
20
8.4765787400350714
30
0
40
0.40000000000000391
210
-0
220
0
230
1
100
AcDbArc
50
-6.5455935990692335
51
70.693055045959312
0
SPLINE
5
575
100
AcDbEntity
8
0
100
AcDbSpline
70
0
71
3
72
8
73
4
74
0
42
0.000000001
43
0.0000000001
44
0.0000000001
40
0
40
0
40
0
40
0
40
1
40
1
40
1
40
1
10
-50.968333332739419
20
61.335429588150618
30
0
10
-50.474404142570108
20
59.511428641885956
30
0
10
-49.920753751954116
20
58.080575670104679
30
0
10
-49.422755237156494
20
57.008189480336924
30
0
0
SPLINE
5
576
100
AcDbEntity
8
0
100
AcDbSpline
70
0
71
3
72
8
73
4
74
0
42
0.000000001
43
0.0000000001
44
0.0000000001
40
0
40
0
40
0
40
0
40
1
40
1
40
1
40
1
10
-38.945538810348452
20
64.620332789529343
30
0
10
-39.8115486798661
20
65.425343079304071
30
0
10
-41.001283342896251
20
66.394053775781202
30
0
10
-42.58337881478959
20
67.427455640831738
30
0
0
CIRCLE
5
577
100
AcDbEntity
8
0
100
AcDbCircle
10
0
20
0
30
0
40
3.3499999999999996
210
0
220
-0
230
1
0
SPLINE
5
578
100
AcDbEntity
8
0
100
AcDbSpline
70
0
71
3
72
8
73
4
74
0
42
0.000000001
43
0.0000000001
44
0.0000000001
40
0
40
0
40
0
40
0
40
1
40
1
40
1
40
1
10
-44.539092634527073
20
59.4358051801591
30
0
10
-44.806087599359508
20
59.665350003214705
30
0
10
-45.12038699693727
20
59.920269345001202
30
0
10
-45.486855156140209
20
60.195418522194771
30
0
0
SPLINE
5
579
100
AcDbEntity
8
0
100
AcDbSpline
70
0
71
3
72
8
73
4
74
0
42
0.000000001
43
0.0000000001
44
0.0000000001
40
0
40
0
40
0
40
0
40
1
40
1
40
1
40
1
10
5.1821868862149403
20
-79.579839561012847
30
0
10
5.8547106337320107
20
-77.813867504070515
30
0
10
6.247832333793184
20
-76.330855598917509
30
0
10
6.4752758592560822
20
-75.1705607642008
30
0
0
SPLINE
5
580
100
AcDbEntity
8
0
100
AcDbSpline
70
0
71
3
72
8
73
4
74
0
42
0.000000001
43
0.0000000001
44
0.0000000001
40
0
40
0
40
0
40
0
40
1
40
1
40
1
40
1
10
-36.490080391562707
20
66.037992368599248
30
0
10
-36.387775139431753
20
65.591293793711841
30
0
10
-36.28273181456899
20
65.200481969381613
30
0
10
-36.181628819855241
20
64.863205641280416
30
0
0
LWPOLYLINE
5
581
100
AcDbEntity
8
0
100
AcDbPolyline
90
4
70
1
43
0.0
10
66.098427882517129
20
-21.476681109065225
42
0.42481166796660508
10
14.26584774443076
20
-4.6352549156304503
42
-0.023272583934254899
10
13.773305125061144
20
-5.9410492282191552
42
-0.29611525231191604
10
10.442676301868092
20
-68.710992655141368
42
0.28371780524672469
0
LWPOLYLINE
5
582
100
AcDbEntity
8
0
100
AcDbPolyline
90
4
70
1
43
0.0
10
40.851075034334833
20
56.226681109053857
42
0.42481166796660497
10
8.8167787843947529
20
12.135254915618876
42
-0.02327258393425612
10
9.906458934484256
20
11.263306414166196
42
-0.29611525231191599
10
68.575001749815073
20
-11.301289086365003
42
0.28371780524672546
0
LWPOLYLINE
5
583
100
AcDbEntity
8
0
100
AcDbPolyline
90
4
70
1
43
0.0
10
-40.85107503431901
20
56.22668110905812
42
0.42481166796660519
10
-8.8167787843789469
20
12.135254915623094
42
-0.02327258393425612
10
-7.6507767953879391
20
12.902155417874541
42
-0.29611525231191599
10
31.939005558108015
20
61.726411883075485
42
0.28371780524672546
0
LWPOLYLINE
5
584
100
AcDbEntity
8
0
100
AcDbPolyline
90
4
70
1
43
0.0
10
-66.098427882509384
20
-21.47668110905834
42
0.42481166796660502
10
-14.265847744423022
20
-4.6352549156235447
42
-0.02327258393425612
10
-14.634899034366093
20
-3.2893358377901549
42
-0.29611525231191599
10
-48.835610748025609
20
49.450309633677051
42
0.28371780524672452
0
LWPOLYLINE
5
585
100
AcDbEntity
8
0
100
AcDbPolyline
90
4
70
1
43
0.0
10
1.3677947663381929e-12
20
-69.500000000003027
42
0.42481166796660524
10
1.398603455271541e-12
20
-15.000000000002462
42
-0.02327258393425612
10
-1.3940882297664636
20
-14.935076766046008
42
-0.29611525231191599
10
-62.121072861740643
20
-31.164439775260764
42
0.28371780524672402
0
ENDSEC
0
SECTION
2
OBJECTS
0
DICTIONARY
5
C
100
AcDbDictionary
3
ACAD_GROUP
350
D
3
ACAD_MLINESTYLE
350
17
0
DICTIONARY
5
D
100
AcDbDictionary
0
DICTIONARY
5
1A
330
C
100
AcDbDictionary
0
DICTIONARY
5
17
100
AcDbDictionary
0
ENDSEC
0
EOF
