0
SECTION
2
HEADER
9
$INSUNITS
70
4
9
$ACADVER
1
AC1014
9
$HANDSEED
5
FFFF
0
ENDSEC
0
SECTION
2
TABLES
0
TABLE
2
VPORT
5
8
100
AcDbSymbolTable
0
ENDTAB
0
TABLE
2
LTYPE
5
5
100
AcDbSymbolTable
0
LTYPE
5
14
100
AcDbSymbolTableRecord
100
AcDbLinetypeTableRecord
2
BYBLOCK
70
0
0
LTYPE
5
15
100
AcDbSymbolTableRecord
100
AcDbLinetypeTableRecord
2
BYLAYER
70
0
0
ENDTAB
0
TABLE
2
LAYER
5
2
100
AcDbSymbolTable
70
2
0
LAYER
5
50
100
AcDbSymbolTableRecord
100
AcDbLayerTableRecord
2
0
70
0
6
CONTINUOUS
0
ENDTAB
0
TABLE
2
STYLE
5
3
100
AcDbSymbolTable
70
1
0
STYLE
5
11
100
AcDbSymbolTableRecord
100
AcDbTextStyleTableRecord
2
STANDARD
70
0
0
ENDTAB
0
TABLE
2
VIEW
5
6
100
AcDbSymbolTable
70
0
0
ENDTAB
0
TABLE
2
UCS
5
7
100
AcDbSymbolTable
70
0
0
ENDTAB
0
TABLE
2
APPID
5
9
100
AcDbSymbolTable
70
2
0
APPID
5
12
100
AcDbSymbolTableRecord
100
AcDbRegAppTableRecord
2
ACAD
70
0
0
ENDTAB
0
TABLE
2
DIMSTYLE
5
A
100
AcDbSymbolTable
70
1
0
ENDTAB
0
TABLE
2
BLOCK_RECORD
5
1
100
AcDbSymbolTable
70
1
0
BLOCK_RECORD
5
1F
100
AcDbSymbolTableRecord
100
AcDbBlockTableRecord
2
*MODEL_SPACE
0
BLOCK_RECORD
5
1B
100
AcDbSymbolTableRecord
100
AcDbBlockTableRecord
2
*PAPER_SPACE
0
ENDTAB
0
ENDSEC
0
SECTION
2
BLOCKS
0
BLOCK
5
20
100
AcDbEntity
100
AcDbBlockBegin
2
*MODEL_SPACE
0
ENDBLK
5
21
100
AcDbEntity
100
AcDbBlockEnd
0
BLOCK
5
1C
100
AcDbEntity
100
AcDbBlockBegin
2
*PAPER_SPACE
0
ENDBLK
5
1D
100
AcDbEntity
100
AcDbBlockEnd
0
ENDSEC
0
SECTION
2
ENTITIES
0
ARC
5
100
100
AcDbEntity
8
0
100
AcDbCircle
10
51.666323676508405
20
71.112593805557765
30
0
40
24.61284534798132
210
0
220
-0
230
1
100
AcDbArc
50
85.383376966822766
51
89.61662303317722
0
SPLINE
5
101
100
AcDbEntity
8
0
100
AcDbSpline
70
0
71
3
72
8
73
4
74
0
42
0.000000001
43
0.0000000001
44
0.0000000001
40
0
40
0
40
0
40
0
40
1
40
1
40
1
40
1
10
72.679196083906959
20
76.425062880702924
30
0
10
73.304988926794138
20
76.827350157741293
30
0
10
74.160506156110245
20
77.517642038869994
30
0
10
75.089963372673068
20
78.670719201970797
30
0
0
ARC
5
102
100
AcDbEntity
8
0
100
AcDbCircle
10
51.666323676508384
20
71.112593805557779
30
0
40
24.612845347981317
210
0
220
-0
230
1
100
AcDbArc
50
17.883376966822709
51
22.116623033177024
0
CIRCLE
5
103
100
AcDbEntity
8
0
100
AcDbCircle
10
51.666323676508405
20
71.112593805557765
30
0
40
2.8500000000000005
210
-0
220
0
230
1
0
LINE
5
104
100
AcDbEntity
8
0
100
AcDbLine
10
69.996377429615947
20
75.522028678488113
30
0
11
71.697003097436522
21
75.931127212867338
31
0
0
LINE
5
105
100
AcDbEntity
8
0
100
AcDbLine
10
60.850585481231519
20
52.670909572178857
30
0
11
60.070832032190864
21
54.236627883878221
31
0
0
ARC
5
106
100
AcDbEntity
8
0
100
AcDbCircle
10
51.666323676508021
20
71.11259380555768
30
0
40
18.457199858156038
210
0
220
-0
230
1
100
AcDbArc
50
5.1895115615577039
51
12.310488438442425
0
SPLINE
5
107
100
AcDbEntity
8
0
100
AcDbSpline
70
0
71
3
72
8
73
4
74
0
42
0.000000001
43
0.0000000001
44
0.0000000001
40
0
40
0
40
0
40
0
40
1
40
1
40
1
40
1
10
74.468142060647949
20
80.379159215695495
30
0
10
73.014952811329408
20
80.665023986435983
30
0
10
71.915877523562514
20
80.643902371227014
30
0
10
71.179893628233458
20
80.549331794975274
30
0
0
LINE
5
108
100
AcDbEntity
8
0
100
AcDbLine
10
67.745570284694168
20
61.26922979707097
30
0
11
69.237370574503018
21
60.355982202928153
31
0
0
ARC
5
109
100
AcDbEntity
8
0
100
AcDbCircle
10
33.106539419528843
20
74.448518688524828
30
0
40
0.40000000000000557
210
0
220
0
230
1
100
AcDbArc
50
261.02594094534294
51
349.81048843845787
0
LINE
5
110
100
AcDbEntity
8
0
100
AcDbLine
10
72.218883115934347
20
72.540418287144007
30
0
11
70.473949287799741
21
72.419194492808245
31
0
0
ARC
5
111
100
AcDbEntity
8
0
100
AcDbCircle
10
51.666323676508405
20
71.112593805557765
30
0
40
24.612845347981303
210
0
220
-0
230
1
100
AcDbArc
50
40.383376966822759
51
44.616623033177063
0
SPLINE
5
112
100
AcDbEntity
8
0
100
AcDbSpline
70
0
71
3
72
8
73
4
74
0
42
0.000000001
43
0.0000000001
44
0.0000000001
40
0
40
0
40
0
40
0
40
1
40
1
40
1
40
1
10
62.768185340108644
20
89.727421284915891
30
0
10
62.926227641353272
20
90.454383709318336
30
0
10
63.043059605480479
20
91.547435813733813
30
0
10
62.88493642487488
20
93.020009995648138
30
0
0
ARC
5
113
100
AcDbEntity
8
0
100
AcDbCircle
10
33.663235290550624
20
76.723546938298924
30
0
40
0.39999999999994545
210
-0
220
0
230
1
100
AcDbArc
50
-17.310488438463317
51
71.474059054646105
0
ARC
5
114
100
AcDbEntity
8
0
100
AcDbCircle
10
49.960684777017626
20
89.892497491012833
30
0
40
0.39999999999992258
210
-0
220
0
230
1
100
AcDbArc
50
-84.810488438442434
51
3.9740590546472951
0
LINE
5
115
100
AcDbEntity
8
0
100
AcDbLine
10
67.208802200139857
20
57.589364028473852
30
0
11
65.889229490528137
21
58.737500404053691
31
0
0
ARC
5
116
100
AcDbEntity
8
0
100
AcDbCircle
10
46.055370543767246
20
53.109505419599977
30
0
40
0.39999999999998098
210
0
220
-0
230
1
100
AcDbArc
50
72.689511561540414
51
161.47405905464899
0
SPLINE
5
117
100
AcDbEntity
8
0
100
AcDbSpline
70
0
71
3
72
8
73
4
74
0
42
0.000000001
43
0.0000000001
44
0.0000000001
40
0
40
0
40
0
40
0
40
1
40
1
40
1
40
1
10
37.249419076002646
20
54.926664796640743
30
0
10
37.790555929501288
20
55.238169989868581
30
0
10
38.057801179298963
20
55.484339837331916
30
0
10
38.1430938994245
20
55.570115281926306
30
0
0
ARC
5
118
100
AcDbEntity
8
0
100
AcDbCircle
10
51.666323676508412
20
71.112593805557751
30
0
40
24.612845347981306
210
0
220
0
230
1
100
AcDbArc
50
197.88337696682302
51
202.11662303317698
0
LINE
5
119
100
AcDbEntity
8
0
100
AcDbLine
10
48.725502419874474
20
52.49041464126671
30
0
11
48.45265891483804
21
50.762686162992104
31
0
0
ARC
5
120
100
AcDbEntity
8
0
100
AcDbCircle
10
48.330398793541328
20
52.552809548578196
30
0
40
0.4000000000000114
210
-0
220
0
230
1
100
AcDbArc
50
-8.9740590546465047
51
79.810488438457739
0
ARC
5
121
100
AcDbEntity
8
0
100
AcDbCircle
10
51.666323676508043
20
71.11259380555758
30
0
40
18.457199858156059
210
0
220
-0
230
1
100
AcDbArc
50
27.68951156155762
51
34.810488438442178
0
LINE
5
122
100
AcDbEntity
8
0
100
AcDbLine
10
65.18955345359231
20
86.655072329189238
30
0
11
64.041417078012472
21
85.33549961957749
31
0
0
SPLINE
5
123
100
AcDbEntity
8
0
100
AcDbSpline
70
0
71
3
72
8
73
4
74
0
42
0.000000001
43
0.0000000001
44
0.0000000001
40
0
40
0
40
0
40
0
40
1
40
1
40
1
40
1
10
50.41543452123625
20
92.752064974304176
30
0
10
50.253060417083624
20
92.14915600113919
30
0
10
50.238157857176795
20
91.786116704302316
30
0
10
50.23849919492217
20
91.665153244983699
30
0
0
ARC
5
124
100
AcDbEntity
8
0
100
AcDbCircle
10
51.666323676508426
20
71.112593805557779
30
0
40
24.612845347981324
210
-0
220
0
230
1
100
AcDbArc
50
287.88337696682271
51
292.11662303317695
0
SPLINE
5
125
100
AcDbEntity
8
0
100
AcDbSpline
70
0
71
3
72
8
73
4
74
0
42
0.000000001
43
0.0000000001
44
0.0000000001
40
0
40
0
40
0
40
0
40
1
40
1
40
1
40
1
10
30.026852507761962
20
69.861704650285603
30
0
10
30.629761480926998
20
69.699330546132984
30
0
10
30.992800777763851
20
69.684427986226154
30
0
10
31.113764237082453
20
69.684769323971523
30
0
0
ARC
5
126
100
AcDbEntity
8
0
100
AcDbCircle
10
61.850838341293304
20
86.9829954240804
30
0
40
0.40000000000000507
210
0
220
0
230
1
100
AcDbArc
50
148.52594094535402
51
237.31048843844124
0
SPLINE
5
127
100
AcDbEntity
8
0
100
AcDbSpline
70
0
71
3
72
8
73
4
74
0
42
0.000000001
43
0.0000000001
44
0.0000000001
40
0
40
0
40
0
40
0
40
1
40
1
40
1
40
1
10
40.564462012908152
20
52.49776632619951
30
0
10
40.406419711663531
20
51.770803901797166
30
0
10
40.289587747536331
20
50.677751797381696
30
0
10
40.44771092814193
20
49.20517761546737
30
0
0
SPLINE
5
128
100
AcDbEntity
8
0
100
AcDbSpline
70
0
71
3
72
8
73
4
74
0
42
0.000000001
43
0.0000000001
44
0.0000000001
40
0
40
0
40
0
40
0
40
1
40
1
40
1
40
1
10
56.978792751653586
20
50.09972139815919
30
0
10
57.381080028691933
20
49.473928555272018
30
0
10
58.071371909820641
20
48.618411325955897
30
0
10
59.224449072921452
20
47.68895410939308
30
0
0
LINE
5
129
100
AcDbEntity
8
0
100
AcDbLine
10
58.212309852119375
20
90.647087585793315
30
0
11
57.656548767959066
21
88.98858859869253
31
0
0
SPLINE
5
130
100
AcDbEntity
8
0
100
AcDbSpline
70
0
71
3
72
8
73
4
74
0
42
0.000000001
43
0.0000000001
44
0.0000000001
40
0
40
0
40
0
40
0
40
1
40
1
40
1
40
1
10
28.864505292368857
20
61.846028395420014
30
0
10
30.317694541687406
20
61.560163624679547
30
0
10
31.416769829454296
20
61.581285239888494
30
0
10
32.152753724783352
20
61.675855816140242
30
0
0
ARC
5
131
100
AcDbEntity
8
0
100
AcDbCircle
10
57.277276809249571
20
89.115682191515546
30
0
40
0.39999999999994662
210
0
220
0
230
1
100
AcDbArc
50
252.68951156155623
51
341.47405905464706
0
ARC
5
132
100
AcDbEntity
8
0
100
AcDbCircle
10
51.666323676508163
20
71.112593805557466
30
0
40
18.457199858156063
210
0
220
-0
230
1
100
AcDbArc
50
50.18951156155763
51
57.310488438442214
0
LINE
5
133
100
AcDbEntity
8
0
100
AcDbLine
10
32.131829896272855
20
77.658579981168742
30
0
11
33.790328883373647
21
77.102818897008419
31
0
0
SPLINE
5
134
100
AcDbEntity
8
0
100
AcDbSpline
70
0
71
3
72
8
73
4
74
0
42
0.000000001
43
0.0000000001
44
0.0000000001
40
0
40
0
40
0
40
0
40
1
40
1
40
1
40
1
10
54.799520367595576
20
92.558950442034416
30
0
10
54.667335939215711
20
93.291056317143699
30
0
10
54.35698166854435
20
94.345614441423777
30
0
10
53.647365156020115
20
95.6455844667083
30
0
0
SPLINE
5
135
100
AcDbEntity
8
0
100
AcDbSpline
70
0
71
3
72
8
73
4
74
0
42
0.000000001
43
0.0000000001
44
0.0000000001
40
0
40
0
40
0
40
0
40
1
40
1
40
1
40
1
10
27.054029309975157
20
71.277281809862316
30
0
10
28.287205402626746
20
70.45706574930395
30
0
10
29.31070145788885
20
70.055981673738799
30
0
10
30.026852507761962
20
69.861704650285603
30
0
0
SPLINE
5
136
100
AcDbEntity
8
0
100
AcDbSpline
70
0
71
3
72
8
73
4
74
0
42
0.000000001
43
0.0000000001
44
0.0000000001
40
0
40
0
40
0
40
0
40
1
40
1
40
1
40
1
10
33.051496197150257
20
82.214455469157997
30
0
10
32.324533772747813
20
82.372497770402617
30
0
10
31.231481668332343
20
82.489329734529832
30
0
10
29.758907486418007
20
82.331206553924233
30
0
0
LINE
5
137
100
AcDbEntity
8
0
100
AcDbLine
10
42.482061871785284
20
89.554278038936673
30
0
11
43.261815320825946
21
87.988559727237316
31
0
0
LINE
5
138
100
AcDbEntity
8
0
100
AcDbLine
10
40.577929161790763
20
86.359937625922214
30
0
11
39.549170131367617
21
87.774555641573244
31
0
0
SPLINE
5
139
100
AcDbEntity
8
0
100
AcDbSpline
70
0
71
3
72
8
73
4
74
0
42
0.000000001
43
0.0000000001
44
0.0000000001
40
0
40
0
40
0
40
0
40
1
40
1
40
1
40
1
10
54.879988438178778
20
91.46250144812339
30
0
10
54.890871137173207
20
91.582974855414705
30
0
10
54.907666245568436
20
91.945931521800077
30
0
10
54.799520367595576
20
92.558950442034416
30
0
0
SPLINE
5
140
100
AcDbEntity
8
0
100
AcDbSpline
70
0
71
3
72
8
73
4
74
0
42
0.000000001
43
0.0000000001
44
0.0000000001
40
0
40
0
40
0
40
0
40
1
40
1
40
1
40
1
10
35.480394667591391
20
85.529498406063524
30
0
10
35.791899860819221
20
84.988361552564868
30
0
10
36.038069708282563
20
84.721116302767214
30
0
10
36.123845152876946
20
84.635823582641649
30
0
0
SPLINE
5
141
100
AcDbEntity
8
0
100
AcDbSpline
70
0
71
3
72
8
73
4
74
0
42
0.000000001
43
0.0000000001
44
0.0000000001
40
0
40
0
40
0
40
0
40
1
40
1
40
1
40
1
10
42.229585687090889
20
90.626163757282796
30
0
10
42.310294850908889
20
90.007010617503937
30
0
10
42.435455805025853
20
89.665903078882963
30
0
10
42.482061871785284
20
89.554278038936673
30
0
0
ARC
5
142
100
AcDbEntity
8
0
100
AcDbCircle
10
67.148928088252973
20
81.877488004752394
30
0
40
0.40000000000002639
210
0
220
0
230
1
100
AcDbArc
50
126.02594094535303
51
214.81048843844368
0
ARC
5
143
100
AcDbEntity
8
0
100
AcDbCircle
10
51.666323676508298
20
71.112593805557381
30
0
40
18.457199858156116
210
0
220
-0
230
1
100
AcDbArc
50
72.68951156155758
51
79.810488438442292
0
SPLINE
5
144
100
AcDbEntity
8
0
100
AcDbSpline
70
0
71
3
72
8
73
4
74
0
42
0.000000001
43
0.0000000001
44
0.0000000001
40
0
40
0
40
0
40
0
40
1
40
1
40
1
40
1
10
56.484857083817978
20
51.081914384629641
30
0
10
56.520905957969518
20
50.966446840816658
30
0
10
56.644286803968967
20
50.624691395827099
30
0
10
56.978792751653586
20
50.09972139815919
30
0
0
ARC
5
145
100
AcDbEntity
8
0
100
AcDbCircle
10
39.592995262578356
20
56.627127727456717
30
0
40
0.40000000000000313
210
0
220
-0
230
1
100
AcDbArc
50
50.189511561554909
51
138.97405905464223
0
ARC
5
146
100
AcDbEntity
8
0
100
AcDbCircle
10
47.64579445446028
20
89.536201792732328
30
0
40
0.40000000000001357
210
0
220
0
230
1
100
AcDbArc
50
193.52594094535576
51
282.31048843846082
0
SPLINE
5
147
100
AcDbEntity
8
0
100
AcDbSpline
70
0
71
3
72
8
73
4
74
0
42
0.000000001
43
0.0000000001
44
0.0000000001
40
0
40
0
40
0
40
0
40
1
40
1
40
1
40
1
10
74.342095319134671
20
61.541724642565761
30
0
10
73.516672264487084
20
62.771421532999156
30
0
10
72.724573438128687
20
63.533649884669821
30
0
10
72.137282739129105
20
63.987197592132773
30
0
0
ARC
5
148
100
AcDbEntity
8
0
100
AcDbCircle
10
36.183719264763845
20
60.347699606363115
30
0
40
0.39999999999999247
210
-0
220
0
230
1
100
AcDbArc
50
-53.974059054644215
51
34.810488438453419
0
ARC
5
149
100
AcDbEntity
8
0
100
AcDbCircle
10
51.666323676508419
20
71.112593805557779
30
0
40
24.612845347981317
210
0
220
0
230
1
100
AcDbArc
50
152.88337696682294
51
157.11662303317704
0
LINE
5
150
100
AcDbEntity
8
0
100
AcDbLine
10
50.23849919492217
20
91.665153244983699
30
0
11
50.359722989257925
21
89.920219416849108
31
0
0
SPLINE
5
151
100
AcDbEntity
8
0
100
AcDbSpline
70
0
71
3
72
8
73
4
74
0
42
0.000000001
43
0.0000000001
44
0.0000000001
40
0
40
0
40
0
40
0
40
1
40
1
40
1
40
1
10
42.399758266370654
20
93.914412189697288
30
0
10
42.113893495630194
20
92.461222940378747
30
0
10
42.135015110839127
20
91.362147652611867
30
0
10
42.229585687090889
20
90.626163757282796
30
0
0
LINE
5
152
100
AcDbEntity
8
0
100
AcDbLine
10
33.336269923400842
20
66.703158932627417
30
0
11
31.635644255580189
21
66.294060398248178
31
0
0
SPLINE
5
153
100
AcDbEntity
8
0
100
AcDbSpline
70
0
71
3
72
8
73
4
74
0
42
0.000000001
43
0.0000000001
44
0.0000000001
40
0
40
0
40
0
40
0
40
1
40
1
40
1
40
1
10
60.932889086646149
20
48.310775421418214
30
0
10
61.218753857386616
20
49.763964670736762
30
0
10
61.197632242177676
20
50.863039958503649
30
0
10
61.103061665925921
20
51.599023853832705
30
0
0
ARC
5
154
100
AcDbEntity
8
0
100
AcDbCircle
10
63.739652090438462
20
85.598059883658806
30
0
40
0.4000000000000099
210
0
220
0
230
1
100
AcDbArc
50
230.1895115615562
51
318.97405905464075
0
SPLINE
5
155
100
AcDbEntity
8
0
100
AcDbSpline
70
0
71
3
72
8
73
4
74
0
42
0.000000001
43
0.0000000001
44
0.0000000001
40
0
40
0
40
0
40
0
40
1
40
1
40
1
40
1
10
76.278618043041661
20
70.947905801253214
30
0
10
75.045441950390071
20
71.768121861811565
30
0
10
74.021945895127971
20
72.169205937376717
30
0
10
73.305794845254852
20
72.363482960829913
30
0
0
ARC
5
156
100
AcDbEntity
8
0
100
AcDbCircle
10
51.666323676508405
20
71.112593805557765
30
0
40
24.612845347981313
210
-0
220
0
230
1
100
AcDbArc
50
355.38337696682299
51
359.61662303317803
0
ARC
5
157
100
AcDbEntity
8
0
100
AcDbCircle
10
70.44622736196348
20
72.81823270504853
30
0
40
0.40000000000000141
210
0
220
0
230
1
100
AcDbArc
50
185.18951156155538
51
273.97405905464541
0
ARC
5
158
100
AcDbEntity
8
0
100
AcDbCircle
10
70.089931663682989
20
75.13312302760589
30
0
40
0.4000000000000008
210
0
220
0
230
1
100
AcDbArc
50
103.52594094535426
51
192.31048843844485
0
ARC
5
159
100
AcDbEntity
8
0
100
AcDbCircle
10
51.666323676508405
20
71.112593805557765
30
0
40
24.612845347981324
210
0
220
0
230
1
100
AcDbArc
50
175.38337696682277
51
179.61662303317803
0
SPLINE
5
160
100
AcDbEntity
8
0
100
AcDbSpline
70
0
71
3
72
8
73
4
74
0
42
0.000000001
43
0.0000000001
44
0.0000000001
40
0
40
0
40
0
40
0
40
1
40
1
40
1
40
1
10
68.328285512523877
20
83.229747350698517
30
0
10
68.421168306028775
20
83.307239683690284
30
0
10
68.689693361143711
20
83.552012868731182
30
0
10
69.046692512965151
20
84.061953387896466
30
0
0
ARC
5
161
100
AcDbEntity
8
0
100
AcDbCircle
10
34.96867478741563
20
62.350030934627398
30
0
40
0.40000000000001373
210
0
220
-0
230
1
100
AcDbArc
50
27.68951156157874
51
116.47405905464552
0
SPLINE
5
162
100
AcDbEntity
8
0
100
AcDbSpline
70
0
71
3
72
8
73
4
74
0
42
0.000000001
43
0.0000000001
44
0.0000000001
40
0
40
0
40
0
40
0
40
1
40
1
40
1
40
1
10
34.285954840051652
20
58.16323422321905
30
0
10
33.861746316889992
20
57.552088688708018
30
0
10
33.335514725418129
20
56.58694987851235
30
0
10
32.918071753248078
20
55.165957610246494
30
0
0
SPLINE
5
163
100
AcDbEntity
8
0
100
AcDbSpline
70
0
71
3
72
8
73
4
74
0
42
0.000000001
43
0.0000000001
44
0.0000000001
40
0
40
0
40
0
40
0
40
1
40
1
40
1
40
1
10
69.186295928267384
20
88.399662048069018
30
0
10
67.734328412297288
20
88.107655209016855
30
0
10
66.726998141445776
20
87.667543477481502
30
0
10
66.083228277014157
20
87.298522814474779
30
0
0
ARC
5
164
100
AcDbEntity
8
0
100
AcDbCircle
10
35.795922057985742
20
81.297108470342636
30
0
40
0.39999999999999514
210
0
220
0
230
1
100
AcDbArc
50
238.52594094535328
51
327.31048843844809
0
ARC
5
165
100
AcDbEntity
8
0
100
AcDbCircle
10
32.886419991053323
20
69.406954906066986
30
0
40
0.40000000000000224
210
0
220
-0
230
1
100
AcDbArc
50
5.1895115615553831
51
93.974059054645323
0
ARC
5
166
100
AcDbEntity
8
0
100
AcDbCircle
10
51.666323676508405
20
71.112593805557765
30
0
40
24.61284534798132
210
0
220
0
230
1
100
AcDbArc
50
130.38337696682288
51
134.61662303317704
0
ARC
5
167
100
AcDbEntity
8
0
100
AcDbCircle
10
37.180857598407364
20
83.185922219487793
30
0
40
0.39999999999995423
210
-0
220
0
230
1
100
AcDbArc
50
-39.810488438462428
51
48.974059054643554
0
SPLINE
5
168
100
AcDbEntity
8
0
100
AcDbSpline
70
0
71
3
72
8
73
4
74
0
42
0.000000001
43
0.0000000001
44
0.0000000001
40
0
40
0
40
0
40
0
40
1
40
1
40
1
40
1
10
28.990552033882125
20
80.683462968549762
30
0
10
29.815975088529711
20
79.453766078116374
30
0
10
30.608073914888116
20
78.691537726445702
30
0
10
31.195364613887708
20
78.237990018982742
30
0
0
SPLINE
5
169
100
AcDbEntity
8
0
100
AcDbSpline
70
0
71
3
72
8
73
4
74
0
42
0.000000001
43
0.0000000001
44
0.0000000001
40
0
40
0
40
0
40
0
40
1
40
1
40
1
40
1
10
58.791719889933404
20
91.583552868178444
30
0
10
58.410982503242437
20
91.088675487408253
30
0
10
58.258285208965574
20
90.758973874339617
30
0
10
58.212309852119375
20
90.647087585793315
30
0
0
ARC
5
170
100
AcDbEntity
8
0
100
AcDbCircle
10
51.666323676508377
20
71.112593805557736
30
0
40
24.612845347981324
210
0
220
0
230
1
100
AcDbArc
50
107.88337696682299
51
112.11662303317699
0
SPLINE
5
171
100
AcDbEntity
8
0
100
AcDbSpline
70
0
71
3
72
8
73
4
74
0
42
0.000000001
43
0.0000000001
44
0.0000000001
40
0
40
0
40
0
40
0
40
1
40
1
40
1
40
1
10
71.179893628233458
20
80.549331794975274
30
0
10
70.560740488454584
20
80.468622631157288
30
0
10
70.21963294983361
20
80.343461677040295
30
0
10
70.108007909887306
20
80.296855610280886
30
0
0
LINE
5
172
100
AcDbEntity
8
0
100
AcDbLine
10
70.108007909887306
20
80.296855610280886
30
0
11
68.542289598187949
21
79.517102161240203
31
0
0
SPLINE
5
173
100
AcDbEntity
8
0
100
AcDbSpline
70
0
71
3
72
8
73
4
74
0
42
0.000000001
43
0.0000000001
44
0.0000000001
40
0
40
0
40
0
40
0
40
1
40
1
40
1
40
1
10
64.615683258847127
20
53.732224969101011
30
0
10
65.226828793358152
20
53.308016445939337
30
0
10
66.191967603553806
20
52.781784854467489
30
0
10
67.612959871819683
20
52.364341882297438
30
0
0
ARC
5
174
100
AcDbEntity
8
0
100
AcDbCircle
10
51.666323676508398
20
71.112593805557736
30
0
40
24.612845347981292
210
-0
220
0
230
1
100
AcDbArc
50
332.88337696682294
51
337.11662303317701
0
SPLINE
5
175
100
AcDbEntity
8
0
100
AcDbSpline
70
0
71
3
72
8
73
4
74
0
42
0.000000001
43
0.0000000001
44
0.0000000001
40
0
40
0
40
0
40
0
40
1
40
1
40
1
40
1
10
73.112680312985077
20
67.979397114470586
30
0
10
73.844786188094361
20
68.111581542850459
30
0
10
74.899344312374424
20
68.421935813521813
30
0
10
76.199314337658961
20
69.131552326046048
30
0
0
ARC
5
176
100
AcDbEntity
8
0
100
AcDbCircle
10
70.226107933487981
20
67.776668922590687
30
0
40
0.40000000000001507
210
0
220
-0
230
1
100
AcDbArc
50
81.025940945343294
51
169.81048843845969
0
LINE
5
177
100
AcDbEntity
8
0
100
AcDbLine
10
56.07575854943876
20
52.782540052450237
30
0
11
56.484857083817978
21
51.081914384629641
31
0
0
SPLINE
5
178
100
AcDbEntity
8
0
100
AcDbSpline
70
0
71
3
72
8
73
4
74
0
42
0.000000001
43
0.0000000001
44
0.0000000001
40
0
40
0
40
0
40
0
40
1
40
1
40
1
40
1
10
46.847790269198825
20
91.143273226485888
30
0
10
46.811741395047299
20
91.258740770298886
30
0
10
46.688360549047843
20
91.600496215288416
30
0
10
46.353854601363238
20
92.125466212956326
30
0
0
SPLINE
5
179
100
AcDbEntity
8
0
100
AcDbSpline
70
0
71
3
72
8
73
4
74
0
42
0.000000001
43
0.0000000001
44
0.0000000001
40
0
40
0
40
0
40
0
40
1
40
1
40
1
40
1
10
46.353854601363238
20
92.125466212956326
30
0
10
45.95156732432487
20
92.751259055843491
30
0
10
45.261275443196169
20
93.606776285159611
30
0
10
44.108198280095372
20
94.536233501722435
30
0
0
SPLINE
5
180
100
AcDbEntity
8
0
100
AcDbSpline
70
0
71
3
72
8
73
4
74
0
42
0.000000001
43
0.0000000001
44
0.0000000001
40
0
40
0
40
0
40
0
40
1
40
1
40
1
40
1
10
61.237192839500416
20
93.788365448184052
30
0
10
60.007495949067014
20
92.962942393536451
30
0
10
59.245267597396349
20
92.170843567178053
30
0
10
58.791719889933404
20
91.583552868178444
30
0
0
SPLINE
5
181
100
AcDbEntity
8
0
100
AcDbSpline
70
0
71
3
72
8
73
4
74
0
42
0.000000001
43
0.0000000001
44
0.0000000001
40
0
40
0
40
0
40
0
40
1
40
1
40
1
40
1
10
51.831011680812964
20
95.724888172090985
30
0
10
51.010795620254598
20
94.491712079439409
30
0
10
50.609711544689446
20
93.468216024177309
30
0
10
50.41543452123625
20
92.752064974304176
30
0
0
ARC
5
182
100
AcDbEntity
8
0
100
AcDbCircle
10
51.666323676508405
20
71.112593805557765
30
0
40
24.612845347981324
210
-0
220
0
230
1
100
AcDbArc
50
310.38337696682288
51
314.61662303317718
0
ARC
5
183
100
AcDbEntity
8
0
100
AcDbCircle
10
51.666323676508725
20
71.112593805557808
30
0
40
18.457199858155967
210
0
220
0
230
1
100
AcDbArc
50
185.18951156155762
51
192.31048843844192
0
ARC
5
184
100
AcDbEntity
8
0
100
AcDbCircle
10
51.666323676508028
20
71.112593805558049
30
0
40
18.457199858156208
210
-0
220
0
230
1
100
AcDbArc
50
320.18951156155794
51
327.31048843844201
0
ARC
5
185
100
AcDbEntity
8
0
100
AcDbCircle
10
51.666323676508426
20
71.112593805557736
30
0
40
24.612845347981313
210
0
220
-0
230
1
100
AcDbArc
50
62.88337696682278
51
67.116623033177206
0
ARC
5
186
100
AcDbEntity
8
0
100
AcDbCircle
10
55.002248559475468
20
89.672378062537319
30
0
40
0.39999999999999802
210
0
220
0
230
1
100
AcDbArc
50
171.02594094535104
51
259.81048843844428
0
SPLINE
5
187
100
AcDbEntity
8
0
100
AcDbSpline
70
0
71
3
72
8
73
4
74
0
42
0.000000001
43
0.0000000001
44
0.0000000001
40
0
40
0
40
0
40
0
40
1
40
1
40
1
40
1
10
66.083228277014157
20
87.298522814474779
30
0
10
65.542091423515515
20
86.98701762124692
30
0
10
65.274846173717847
20
86.740847773783614
30
0
10
65.18955345359231
20
86.655072329189238
30
0
0
SPLINE
5
188
100
AcDbEntity
8
0
100
AcDbSpline
70
0
71
3
72
8
73
4
74
0
42
0.000000001
43
0.0000000001
44
0.0000000001
40
0
40
0
40
0
40
0
40
1
40
1
40
1
40
1
10
62.422935279138017
20
88.683640703552385
30
0
10
62.479092759008438
20
88.790778990156198
30
0
10
62.633506918793202
20
89.119680015690477
30
0
10
62.768185340108644
20
89.727421284915891
30
0
0
LINE
5
189
100
AcDbEntity
8
0
100
AcDbLine
10
54.607144933142344
20
89.734772969848819
30
0
11
54.879988438178778
21
91.46250144812339
31
0
0
SPLINE
5
190
100
AcDbEntity
8
0
100
AcDbSpline
70
0
71
3
72
8
73
4
74
0
42
0.000000001
43
0.0000000001
44
0.0000000001
40
0
40
0
40
0
40
0
40
1
40
1
40
1
40
1
10
48.45265891483804
20
50.762686162992104
30
0
10
48.441776215843603
20
50.642212755700797
30
0
10
48.424981107448374
20
50.279256089315453
30
0
10
48.533126985421205
20
49.666237169081093
30
0
0
LINE
5
191
100
AcDbEntity
8
0
100
AcDbLine
10
66.913667496872861
20
82.200988320275428
30
0
11
68.328285512523877
21
83.229747350698517
31
0
0
SPLINE
5
192
100
AcDbEntity
8
0
100
AcDbSpline
70
0
71
3
72
8
73
4
74
0
42
0.000000001
43
0.0000000001
44
0.0000000001
40
0
40
0
40
0
40
0
40
1
40
1
40
1
40
1
10
39.549170131367617
20
87.774555641573244
30
0
10
39.471677798375879
20
87.867438435078142
30
0
10
39.226904613334966
20
88.135963490193035
30
0
10
38.71696409416969
20
88.49296264201449
30
0
0
ARC
5
193
100
AcDbEntity
8
0
100
AcDbCircle
10
51.666323676508476
20
71.112593805557381
30
0
40
18.457199858156109
210
0
220
0
230
1
100
AcDbArc
50
95.189511561557694
51
102.31048843844204
0
ARC
5
194
100
AcDbEntity
8
0
100
AcDbCircle
10
51.666323676508568
20
71.112593805557381
30
0
40
18.45719985815607
210
0
220
0
230
1
100
AcDbArc
50
117.68951156155755
51
124.81048843844198
0
SPLINE
5
195
100
AcDbEntity
8
0
100
AcDbSpline
70
0
71
3
72
8
73
4
74
0
42
0.000000001
43
0.0000000001
44
0.0000000001
40
0
40
0
40
0
40
0
40
1
40
1
40
1
40
1
10
32.152753724783352
20
61.675855816140242
30
0
10
32.771906864562233
20
61.756564979958235
30
0
10
33.1130144031832
20
61.881725934075213
30
0
10
33.224639443129504
20
61.928332000834658
30
0
0
LINE
5
196
100
AcDbEntity
8
0
100
AcDbLine
10
70.288502840799538
20
68.171772548923826
30
0
11
72.016231319074052
21
67.898929043887392
31
0
0
SPLINE
5
197
100
AcDbEntity
8
0
100
AcDbSpline
70
0
71
3
72
8
73
4
74
0
42
0.000000001
43
0.0000000001
44
0.0000000001
40
0
40
0
40
0
40
0
40
1
40
1
40
1
40
1
10
31.635644255580189
20
66.294060398248178
30
0
10
31.520176711767299
20
66.258011524096659
30
0
10
31.178421266777754
20
66.13463067809721
30
0
10
30.653451269109841
20
65.800124730412605
30
0
0
SPLINE
5
198
100
AcDbEntity
8
0
100
AcDbSpline
70
0
71
3
72
8
73
4
74
0
42
0.000000001
43
0.0000000001
44
0.0000000001
40
0
40
0
40
0
40
0
40
1
40
1
40
1
40
1
10
34.379255433997137
20
88.632566057316708
30
0
10
34.671262273049315
20
87.180598541346654
30
0
10
35.111374004584668
20
86.173268270495129
30
0
10
35.480394667591391
20
85.529498406063524
30
0
0
SPLINE
5
199
100
AcDbEntity
8
0
100
AcDbSpline
70
0
71
3
72
8
73
4
74
0
42
0.000000001
43
0.0000000001
44
0.0000000001
40
0
40
0
40
0
40
0
40
1
40
1
40
1
40
1
10
34.095276778513799
20
81.869205408187383
30
0
10
33.988138491909979
20
81.925362888057762
30
0
10
33.659237466375714
20
82.079777047842555
30
0
10
33.051496197150257
20
82.214455469157997
30
0
0
ARC
5
200
100
AcDbEntity
8
0
100
AcDbCircle
10
51.666323676508831
20
71.112593805557964
30
0
40
18.457199858156194
210
0
220
0
230
1
100
AcDbArc
50
207.68951156155694
51
214.81048843844195
0
SPLINE
5
201
100
AcDbEntity
8
0
100
AcDbSpline
70
0
71
3
72
8
73
4
74
0
42
0.000000001
43
0.0000000001
44
0.0000000001
40
0
40
0
40
0
40
0
40
1
40
1
40
1
40
1
10
63.783477221649186
20
54.450631969542286
30
0
10
63.860969554640931
20
54.357749176037387
30
0
10
64.10574273968183
20
54.089224120922452
30
0
10
64.615683258847127
20
53.732224969101011
30
0
0
LINE
5
202
100
AcDbEntity
8
0
100
AcDbLine
10
61.509687684995185
20
87.191840413743478
30
0
11
62.422935279138017
21
88.683640703552385
31
0
0
SPLINE
5
203
100
AcDbEntity
8
0
100
AcDbSpline
70
0
71
3
72
8
73
4
74
0
42
0.000000001
43
0.0000000001
44
0.0000000001
40
0
40
0
40
0
40
0
40
1
40
1
40
1
40
1
10
31.316416033942755
20
74.326258567228123
30
0
10
31.195942626651451
20
74.337141266222559
30
0
10
30.8329859602661
20
74.353936374617788
30
0
10
30.21996704003174
20
74.245790496644929
30
0
0
SPLINE
5
204
100
AcDbEntity
8
0
100
AcDbSpline
70
0
71
3
72
8
73
4
74
0
42
0.000000001
43
0.0000000001
44
0.0000000001
40
0
40
0
40
0
40
0
40
1
40
1
40
1
40
1
10
69.237370574503018
20
60.355982202928153
30
0
10
69.344508861106831
20
60.299824723057739
30
0
10
69.673409886641096
20
60.145410563272968
30
0
10
70.281151155866638
20
60.010732141957504
30
0
0
SPLINE
5
205
100
AcDbEntity
8
0
100
AcDbSpline
70
0
71
3
72
8
73
4
74
0
42
0.000000001
43
0.0000000001
44
0.0000000001
40
0
40
0
40
0
40
0
40
1
40
1
40
1
40
1
10
71.697003097436522
20
75.931127212867338
30
0
10
71.812470641249519
20
75.967176087018856
30
0
10
72.154226086239049
20
76.09055693301832
30
0
10
72.679196083906959
20
76.425062880702924
30
0
0
SPLINE
5
206
100
AcDbEntity
8
0
100
AcDbSpline
70
0
71
3
72
8
73
4
74
0
42
0.000000001
43
0.0000000001
44
0.0000000001
40
0
40
0
40
0
40
0
40
1
40
1
40
1
40
1
10
73.305794845254852
20
72.363482960829913
30
0
10
72.702885872089809
20
72.525857064982532
30
0
10
72.339846575252949
20
72.540759624889375
30
0
10
72.218883115934347
20
72.540418287144007
30
0
0
ARC
5
207
100
AcDbEntity
8
0
100
AcDbCircle
10
51.666323676508398
20
71.112593805557765
30
0
40
24.612845347981317
210
0
220
0
230
1
100
AcDbArc
50
265.38337696682277
51
269.61662303317723
0
SPLINE
5
208
100
AcDbEntity
8
0
100
AcDbSpline
70
0
71
3
72
8
73
4
74
0
42
0.000000001
43
0.0000000001
44
0.0000000001
40
0
40
0
40
0
40
0
40
1
40
1
40
1
40
1
10
31.195364613887708
20
78.237990018982742
30
0
10
31.690241994657914
20
77.857252632291789
30
0
10
32.019943607726567
20
77.704555338014927
30
0
10
32.131829896272855
20
77.658579981168742
30
0
0
SPLINE
5
209
100
AcDbEntity
8
0
100
AcDbSpline
70
0
71
3
72
8
73
4
74
0
42
0.000000001
43
0.0000000001
44
0.0000000001
40
0
40
0
40
0
40
0
40
1
40
1
40
1
40
1
10
38.71696409416969
20
88.49296264201449
30
0
10
38.105818559658658
20
88.917171165176185
30
0
10
37.140679749462997
20
89.443402756648027
30
0
10
35.719687481197141
20
89.860845728818077
30
0
0
ARC
5
210
100
AcDbEntity
8
0
100
AcDbCircle
10
51.666323676508384
20
71.112593805557765
30
0
40
24.612845347981299
210
0
220
0
230
1
100
AcDbArc
50
242.88337696682294
51
247.11662303317732
0
ARC
5
211
100
AcDbEntity
8
0
100
AcDbCircle
10
69.669412062466193
20
65.501640672816592
30
0
40
0.39999999999993069
210
0
220
0
230
1
100
AcDbArc
50
162.68951156154085
51
251.4740590546451
0
LINE
5
212
100
AcDbEntity
8
0
100
AcDbLine
10
36.418979856143949
20
60.024199290840123
30
0
11
35.004361840492926
21
58.995440260416984
31
0
0
LINE
5
213
100
AcDbEntity
8
0
100
AcDbLine
10
31.113764237082453
20
69.684769323971523
30
0
11
32.858698065217062
21
69.805993118307285
31
0
0
SPLINE
5
214
100
AcDbEntity
8
0
100
AcDbSpline
70
0
71
3
72
8
73
4
74
0
42
0.000000001
43
0.0000000001
44
0.0000000001
40
0
40
0
40
0
40
0
40
1
40
1
40
1
40
1
10
34.146351424749433
20
53.825525563046497
30
0
10
35.598318940719523
20
54.117532402098675
30
0
10
36.605649211571027
20
54.557644133634014
30
0
10
37.249419076002646
20
54.926664796640743
30
0
0
SPLINE
5
215
100
AcDbEntity
8
0
100
AcDbSpline
70
0
71
3
72
8
73
4
74
0
42
0.000000001
43
0.0000000001
44
0.0000000001
40
0
40
0
40
0
40
0
40
1
40
1
40
1
40
1
10
68.953391919019666
20
53.592621553798779
30
0
10
68.661385079967488
20
55.044589069768868
30
0
10
68.221273348432135
20
56.051919340620373
30
0
10
67.852252685425412
20
56.695689205051991
30
0
0
ARC
5
216
100
AcDbEntity
8
0
100
AcDbCircle
10
41.481809011723513
20
55.242192187034995
30
0
40
0.40000000000000507
210
-0
220
0
230
1
100
AcDbArc
50
-31.474059054645664
51
57.31048843844377
0
ARC
5
217
100
AcDbEntity
8
0
100
AcDbCircle
10
51.66632367650805
20
71.112593805557836
30
0
40
18.457199858156098
210
-0
220
0
230
1
100
AcDbArc
50
342.68951156155799
51
349.81048843844206
0
ARC
5
218
100
AcDbEntity
8
0
100
AcDbCircle
10
51.666323676508782
20
71.112593805557651
30
0
40
18.457199858156109
210
0
220
0
230
1
100
AcDbArc
50
162.68951156155802
51
169.81048843844201
0
ARC
5
219
100
AcDbEntity
8
0
100
AcDbCircle
10
51.666323676508405
20
71.112593805557765
30
0
40
24.612845347981299
210
0
220
0
230
1
100
AcDbArc
50
220.38337696682296
51
224.61662303317695
0
ARC
5
220
100
AcDbEntity
8
0
100
AcDbCircle
10
51.666323676508483
20
71.112593805558078
30
0
40
18.457199858156006
210
0
220
0
230
1
100
AcDbArc
50
252.68951156155796
51
259.81048843844201
0
LINE
5
221
100
AcDbEntity
8
0
100
AcDbLine
10
33.224639443129504
20
61.928332000834658
30
0
11
34.790357754828769
21
62.708085449875306
31
0
0
LINE
5
222
100
AcDbEntity
8
0
100
AcDbLine
10
36.123845152876946
20
84.635823582641649
30
0
11
37.443417862488673
21
83.487687207061825
31
0
0
ARC
5
223
100
AcDbEntity
8
0
100
AcDbCircle
10
67.536725295031161
20
60.928079140772851
30
0
40
0.3999999999999726
210
0
220
-0
230
1
100
AcDbArc
50
58.525940945362692
51
147.31048843845986
0
LINE
5
224
100
AcDbEntity
8
0
100
AcDbLine
10
62.75471819122604
20
55.865249985193302
30
0
11
63.783477221649186
21
54.450631969542286
31
0
0
SPLINE
5
225
100
AcDbEntity
8
0
100
AcDbSpline
70
0
71
3
72
8
73
4
74
0
42
0.000000001
43
0.0000000001
44
0.0000000001
40
0
40
0
40
0
40
0
40
1
40
1
40
1
40
1
10
51.501635672203854
20
46.500299439024516
30
0
10
52.321851732762219
20
47.733475531676099
30
0
10
52.722935808327371
20
48.756971586938207
30
0
10
52.91721283178056
20
49.473122636811325
30
0
0
SPLINE
5
226
100
AcDbEntity
8
0
100
AcDbSpline
70
0
71
3
72
8
73
4
74
0
42
0.000000001
43
0.0000000001
44
0.0000000001
40
0
40
0
40
0
40
0
40
1
40
1
40
1
40
1
10
35.004361840492926
20
58.995440260416984
30
0
10
34.911479046988035
20
58.917947927425232
30
0
10
34.6429539918731
20
58.673174742384333
30
0
10
34.285954840051652
20
58.16323422321905
30
0
0
LINE
5
227
100
AcDbEntity
8
0
100
AcDbLine
10
71.200817456744062
20
64.566607629946787
30
0
11
69.542318469643163
21
65.122368714107097
31
0
0
LINE
5
228
100
AcDbEntity
8
0
100
AcDbLine
10
33.044144512217287
20
74.053415062191704
30
0
11
31.316416033942755
21
74.326258567228123
31
0
0
SPLINE
5
229
100
AcDbEntity
8
0
100
AcDbSpline
70
0
71
3
72
8
73
4
74
0
42
0.000000001
43
0.0000000001
44
0.0000000001
40
0
40
0
40
0
40
0
40
1
40
1
40
1
40
1
10
48.533126985421205
20
49.666237169081093
30
0
10
48.665311413801106
20
48.934131293971809
30
0
10
48.975665684472467
20
47.879573169691739
30
0
10
49.685282196996702
20
46.579603144407216
30
0
0
ARC
5
230
100
AcDbEntity
8
0
100
AcDbCircle
10
33.242715689333828
20
67.092064583509639
30
0
40
0.39999999999999253
210
-0
220
0
230
1
100
AcDbArc
50
-76.474059054649686
51
12.310488438462505
0
ARC
5
231
100
AcDbEntity
8
0
100
AcDbCircle
10
53.37196257599917
20
52.332690120102676
30
0
40
0.40000000000000141
210
0
220
0
230
1
100
AcDbArc
50
95.18951156155444
51
183.97405905464544
0
ARC
5
232
100
AcDbEntity
8
0
100
AcDbCircle
10
55.686852898556538
20
52.688985818383188
30
0
40
0.4000000000000008
210
0
220
-0
230
1
100
AcDbArc
50
13.525940945355252
51
102.31048843844488
0
SPLINE
5
233
100
AcDbEntity
8
0
100
AcDbSpline
70
0
71
3
72
8
73
4
74
0
42
0.000000001
43
0.0000000001
44
0.0000000001
40
0
40
0
40
0
40
0
40
1
40
1
40
1
40
1
10
40.909712073878794
20
53.541546907563145
30
0
10
40.853554594008379
20
53.434408620959331
30
0
10
40.699140434223615
20
53.105507595425067
30
0
10
40.564462012908152
20
52.49776632619951
30
0
0
SPLINE
5
234
100
AcDbEntity
8
0
100
AcDbSpline
70
0
71
3
72
8
73
4
74
0
42
0.000000001
43
0.0000000001
44
0.0000000001
40
0
40
0
40
0
40
0
40
1
40
1
40
1
40
1
10
61.103061665925921
20
51.599023853832705
30
0
10
61.022352502107928
20
52.218176993611593
30
0
10
60.897191547990957
20
52.559284532232553
30
0
10
60.850585481231519
20
52.670909572178857
30
0
0
LINE
5
235
100
AcDbEntity
8
0
100
AcDbLine
10
47.256888803578043
20
89.442647558665271
30
0
11
46.847790269198825
21
91.143273226485888
31
0
0
SPLINE
5
236
100
AcDbEntity
8
0
100
AcDbSpline
70
0
71
3
72
8
73
4
74
0
42
0.000000001
43
0.0000000001
44
0.0000000001
40
0
40
0
40
0
40
0
40
1
40
1
40
1
40
1
10
42.095454513516408
20
48.436822162931477
30
0
10
43.325151403949803
20
49.262245217579057
30
0
10
44.087379755620468
20
50.054344043937462
30
0
10
44.540927463083413
20
50.641634742937065
30
0
0
SPLINE
5
237
100
AcDbEntity
8
0
100
AcDbSpline
70
0
71
3
72
8
73
4
74
0
42
0.000000001
43
0.0000000001
44
0.0000000001
40
0
40
0
40
0
40
0
40
1
40
1
40
1
40
1
10
44.540927463083413
20
50.641634742937065
30
0
10
44.92166484977438
20
51.136512123707263
30
0
10
45.074362144051236
20
51.466213736775913
30
0
10
45.120337500897428
20
51.578100025322101
30
0
0
ARC
5
238
100
AcDbEntity
8
0
100
AcDbCircle
10
51.666323676508682
20
71.112593805558149
30
0
40
18.457199858156155
210
0
220
0
230
1
100
AcDbArc
50
230.18951156155777
51
237.31048843844243
0
LINE
5
239
100
AcDbEntity
8
0
100
AcDbLine
10
53.09414815809464
20
50.560034366131809
30
0
11
52.972924363758892
21
52.304968194266415
31
0
0
SPLINE
5
240
100
AcDbEntity
8
0
100
AcDbSpline
70
0
71
3
72
8
73
4
74
0
42
0.000000001
43
0.0000000001
44
0.0000000001
40
0
40
0
40
0
40
0
40
1
40
1
40
1
40
1
10
70.281151155866638
20
60.010732141957504
30
0
10
71.008113580268997
20
59.852689840712891
30
0
10
72.101165684684474
20
59.735857876585683
30
0
10
73.5737398665988
20
59.893981057191283
30
0
0
SPLINE
5
241
100
AcDbEntity
8
0
100
AcDbSpline
70
0
71
3
72
8
73
4
74
0
42
0.000000001
43
0.0000000001
44
0.0000000001
40
0
40
0
40
0
40
0
40
1
40
1
40
1
40
1
10
30.21996704003174
20
74.245790496644929
30
0
10
29.48786116492245
20
74.113606068265071
30
0
10
28.433303040642386
20
73.803251797593703
30
0
10
27.133333015357856
20
73.093635285069467
30
0
0
ARC
5
242
100
AcDbEntity
8
0
100
AcDbCircle
10
60.428886547438772
20
54.414944916465075
30
0
40
0.40000000000000674
210
0
220
0
230
1
100
AcDbArc
50
117.68951156155556
51
206.47405905464456
0
LINE
5
243
100
AcDbEntity
8
0
100
AcDbLine
10
35.587077068322671
20
80.955957814044538
30
0
11
34.095276778513799
21
81.869205408187383
31
0
0
SPLINE
5
244
100
AcDbEntity
8
0
100
AcDbSpline
70
0
71
3
72
8
73
4
74
0
42
0.000000001
43
0.0000000001
44
0.0000000001
40
0
40
0
40
0
40
0
40
1
40
1
40
1
40
1
10
52.91721283178056
20
49.473122636811325
30
0
10
53.079586935933172
20
50.07603160997634
30
0
10
53.094489495840008
20
50.4390709068132
30
0
10
53.09414815809464
20
50.560034366131809
30
0
0
SPLINE
5
245
100
AcDbEntity
8
0
100
AcDbSpline
70
0
71
3
72
8
73
4
74
0
42
0.000000001
43
0.0000000001
44
0.0000000001
40
0
40
0
40
0
40
0
40
1
40
1
40
1
40
1
10
72.016231319074052
20
67.898929043887392
30
0
10
72.136704726365352
20
67.888046344892956
30
0
10
72.49966139275071
20
67.871251236497727
30
0
10
73.112680312985077
20
67.979397114470586
30
0
0
LINE
5
246
100
AcDbEntity
8
0
100
AcDbLine
10
45.120337500897428
20
51.578100025322101
30
0
11
45.676098585057751
21
53.236599012422978
31
0
0
SPLINE
5
247
100
AcDbEntity
8
0
100
AcDbSpline
70
0
71
3
72
8
73
4
74
0
42
0.000000001
43
0.0000000001
44
0.0000000001
40
0
40
0
40
0
40
0
40
1
40
1
40
1
40
1
10
72.137282739129105
20
63.987197592132773
30
0
10
71.642405358358886
20
64.36793497882374
30
0
10
71.31270374529025
20
64.520632273100588
30
0
10
71.200817456744062
20
64.566607629946787
30
0
0
ARC
5
248
100
AcDbEntity
8
0
100
AcDbCircle
10
51.666323676508242
20
71.112593805558035
30
0
40
18.457199858155967
210
-0
220
0
230
1
100
AcDbArc
50
297.68951156155771
51
304.81048843844229
0
ARC
5
249
100
AcDbEntity
8
0
100
AcDbCircle
10
66.151789754609439
20
59.039265391627708
30
0
40
0.39999999999994512
210
0
220
0
230
1
100
AcDbArc
50
140.18951156154267
51
228.97405905464299
0
SPLINE
5
250
100
AcDbEntity
8
0
100
AcDbSpline
70
0
71
3
72
8
73
4
74
0
42
0.000000001
43
0.0000000001
44
0.0000000001
40
0
40
0
40
0
40
0
40
1
40
1
40
1
40
1
10
67.852252685425412
20
56.695689205051991
30
0
10
67.540747492197582
20
57.236826058550641
30
0
10
67.294577644734247
20
57.504071308348315
30
0
10
67.208802200139857
20
57.589364028473852
30
0
0
ARC
5
251
100
AcDbEntity
8
0
100
AcDbCircle
10
51.666323676508334
20
71.112593805558234
30
0
40
18.457199858156127
210
-0
220
0
230
1
100
AcDbArc
50
275.18951156155771
51
282.31048843844235
0
ARC
5
252
100
AcDbEntity
8
0
100
AcDbCircle
10
40.901429477313769
20
86.595198217302311
30
0
40
0.39999999999999969
210
0
220
0
230
1
100
AcDbArc
50
216.02594094535377
51
304.81048843845252
0
ARC
5
253
100
AcDbEntity
8
0
100
AcDbCircle
10
51.666323676508689
20
71.112593805557523
30
0
40
18.457199858156091
210
0
220
0
230
1
100
AcDbArc
50
140.18951156155808
51
147.31048843844218
0
LINE
5
254
100
AcDbEntity
8
0
100
AcDbLine
10
41.822959668021625
20
55.033347197371924
30
0
11
40.909712073878794
21
53.541546907563145
31
0
0
SPLINE
5
255
100
AcDbEntity
8
0
100
AcDbSpline
70
0
71
3
72
8
73
4
74
0
42
0.000000001
43
0.0000000001
44
0.0000000001
40
0
40
0
40
0
40
0
40
1
40
1
40
1
40
1
10
30.653451269109841
20
65.800124730412605
30
0
10
30.027658426222672
20
65.397837453374251
30
0
10
29.172141196906555
20
64.707545572245536
30
0
10
28.242683980343731
20
63.554468409144739
30
0
0
ARC
5
256
100
AcDbEntity
8
0
100
AcDbCircle
10
68.363972565601088
20
79.875156676488118
30
0
40
0.39999999999999847
210
0
220
0
230
1
100
AcDbArc
50
207.68951156155464
51
296.47405905464507
0
SPLINE
5
257
100
AcDbEntity
8
0
100
AcDbSpline
70
0
71
3
72
8
73
4
74
0
42
0.000000001
43
0.0000000001
44
0.0000000001
40
0
40
0
40
0
40
0
40
1
40
1
40
1
40
1
10
69.046692512965151
20
84.061953387896466
30
0
10
69.470901036126818
20
84.67309892240749
30
0
10
69.997132627598674
20
85.638237732603173
30
0
10
70.414575599768739
20
87.059230000869007
30
0
0
ARC
5
258
100
AcDbEntity
8
0
100
AcDbCircle
10
62.431217875703041
20
55.62998939381319
30
0
40
0.39999999999999764
210
0
220
-0
230
1
100
AcDbArc
50
36.02594094535602
51
124.81048843844512
0
LINE
5
259
100
AcDbEntity
8
0
100
AcDbLine
10
38.1430938994245
20
55.570115281926306
30
0
11
39.291230275004338
21
56.889687991538025
31
0
0
ARC
5
260
100
AcDbEntity
8
0
100
AcDbCircle
10
42.903760805578045
20
87.810242694650427
30
0
40
0.39999999999997526
210
-0
220
0
230
1
100
AcDbArc
50
-62.310488438442562
51
26.474059054649612
0
ENDSEC
0
SECTION
2
OBJECTS
0
DICTIONARY
5
C
100
AcDbDictionary
3
ACAD_GROUP
350
D
3
ACAD_MLINESTYLE
350
17
0
DICTIONARY
5
D
100
AcDbDictionary
0
DICTIONARY
5
1A
330
C
100
AcDbDictionary
0
DICTIONARY
5
17
100
AcDbDictionary
0
ENDSEC
0
EOF
