0
SECTION
2
HEADER
9
$INSUNITS
70
4
9
$ACADVER
1
AC1014
9
$HANDSEED
5
FFFF
0
ENDSEC
0
SECTION
2
TABLES
0
TABLE
2
VPORT
5
8
100
AcDbSymbolTable
0
ENDTAB
0
TABLE
2
LTYPE
5
5
100
AcDbSymbolTable
0
LTYPE
5
14
100
AcDbSymbolTableRecord
100
AcDbLinetypeTableRecord
2
BYBLOCK
70
0
0
LTYPE
5
15
100
AcDbSymbolTableRecord
100
AcDbLinetypeTableRecord
2
BYLAYER
70
0
0
ENDTAB
0
TABLE
2
LAYER
5
2
100
AcDbSymbolTable
70
2
0
LAYER
5
50
100
AcDbSymbolTableRecord
100
AcDbLayerTableRecord
2
0
70
0
6
CONTINUOUS
0
ENDTAB
0
TABLE
2
STYLE
5
3
100
AcDbSymbolTable
70
1
0
STYLE
5
11
100
AcDbSymbolTableRecord
100
AcDbTextStyleTableRecord
2
STANDARD
70
0
0
ENDTAB
0
TABLE
2
VIEW
5
6
100
AcDbSymbolTable
70
0
0
ENDTAB
0
TABLE
2
UCS
5
7
100
AcDbSymbolTable
70
0
0
ENDTAB
0
TABLE
2
APPID
5
9
100
AcDbSymbolTable
70
2
0
APPID
5
12
100
AcDbSymbolTableRecord
100
AcDbRegAppTableRecord
2
ACAD
70
0
0
ENDTAB
0
TABLE
2
DIMSTYLE
5
A
100
AcDbSymbolTable
70
1
0
ENDTAB
0
TABLE
2
BLOCK_RECORD
5
1
100
AcDbSymbolTable
70
1
0
BLOCK_RECORD
5
1F
100
AcDbSymbolTableRecord
100
AcDbBlockTableRecord
2
*MODEL_SPACE
0
BLOCK_RECORD
5
1B
100
AcDbSymbolTableRecord
100
AcDbBlockTableRecord
2
*PAPER_SPACE
0
ENDTAB
0
ENDSEC
0
SECTION
2
BLOCKS
0
BLOCK
5
20
100
AcDbEntity
100
AcDbBlockBegin
2
*MODEL_SPACE
0
ENDBLK
5
21
100
AcDbEntity
100
AcDbBlockEnd
0
BLOCK
5
1C
100
AcDbEntity
100
AcDbBlockBegin
2
*PAPER_SPACE
0
ENDBLK
5
1D
100
AcDbEntity
100
AcDbBlockEnd
0
ENDSEC
0
SECTION
2
ENTITIES
0
SPLINE
5
100
100
AcDbEntity
8
0
100
AcDbSpline
70
0
71
3
72
8
73
4
74
0
42
0.000000001
43
0.0000000001
44
0.0000000001
40
0
40
0
40
0
40
0
40
1
40
1
40
1
40
1
10
-120.77203969895365
20
103.08271083139779
30
0
10
-121.89738471572099
20
103.25162903370568
30
0
10
-123.34205110423815
20
103.37670966531701
30
0
10
-125.10641056652889
20
103.35770255617103
30
0
0
SPLINE
5
101
100
AcDbEntity
8
0
100
AcDbSpline
70
0
71
3
72
8
73
4
74
0
42
0.000000001
43
0.0000000001
44
0.0000000001
40
0
40
0
40
0
40
0
40
1
40
1
40
1
40
1
10
-51.435783006550501
20
-9.0942653260164761
30
0
10
-50.713691526177477
20
-7.4843244959405775
30
0
10
-50.251378977920695
20
-6.1099252649162956
30
0
10
-49.956789409573773
20
-5.0107656986771172
30
0
0
ARC
5
102
100
AcDbEntity
8
0
100
AcDbCircle
10
-51.666323676506636
20
71.112593805558959
30
0
40
80.207190455425078
210
0
220
0
230
1
100
AcDbArc
50
161.92031369808899
51
163.28968630191144
0
SPLINE
5
103
100
AcDbEntity
8
0
100
AcDbSpline
70
0
71
3
72
8
73
4
74
0
42
0.000000001
43
0.0000000001
44
0.0000000001
40
0
40
0
40
0
40
0
40
1
40
1
40
1
40
1
10
-14.060390729951344
20
141.95740453981074
30
0
10
-15.456139415077818
20
140.87795505496183
30
0
10
-16.511749994761551
20
139.88377577405944
30
0
10
-17.28969503211821
20
139.05327214090295
30
0
0
SPLINE
5
104
100
AcDbEntity
8
0
100
AcDbSpline
70
0
71
3
72
8
73
4
74
0
42
0.000000001
43
0.0000000001
44
0.0000000001
40
0
40
0
40
0
40
0
40
1
40
1
40
1
40
1
10
-101.27995957268973
20
128.87222938943253
30
0
10
-101.10625284381236
20
128.48863371455718
30
0
10
-100.93911711920954
20
128.14978702535001
30
0
10
-100.78297271377915
20
127.85307274699665
30
0
0
ARC
5
105
100
AcDbEntity
8
0
100
AcDbCircle
10
-19.504884481796566
20
139.01949972320241
30
0
40
0.3999999999999827
210
0
220
0
230
1
100
AcDbArc
50
168.06552906941681
51
244.65721071438489
0
SPLINE
5
106
100
AcDbEntity
8
0
100
AcDbSpline
70
0
71
3
72
8
73
4
74
0
42
0.000000001
43
0.0000000001
44
0.0000000001
40
0
40
0
40
0
40
0
40
1
40
1
40
1
40
1
10
-84.068284271648807
20
138.80336210334968
30
0
10
-84.277944035157134
20
139.06501687951777
30
0
10
-84.52184019811267
20
139.35357552333343
30
0
10
-84.804137013856774
20
139.66603060372267
30
0
0
SPLINE
5
107
100
AcDbEntity
8
0
100
AcDbSpline
70
0
71
3
72
8
73
4
74
0
42
0.000000001
43
0.0000000001
44
0.0000000001
40
0
40
0
40
0
40
0
40
1
40
1
40
1
40
1
10
-59.757401197016911
20
150.91063805045172
30
0
10
-60.318213813280423
20
149.23767218355167
30
0
10
-60.643585517958314
20
147.82457650656778
30
0
10
-60.829020079565481
20
146.70183486701058
30
0
0
ARC
5
108
100
AcDbEntity
8
0
100
AcDbCircle
10
-124.5428029672571
20
89.408079821721813
30
0
40
0.39999999999998248
210
0
220
0
230
1
100
AcDbArc
50
269.31552906943119
51
345.90721071437059
0
SPLINE
5
109
100
AcDbEntity
8
0
100
AcDbSpline
70
0
71
3
72
8
73
4
74
0
42
0.000000001
43
0.0000000001
44
0.0000000001
40
0
40
0
40
0
40
0
40
1
40
1
40
1
40
1
10
-122.64934790948436
20
98.664338584455109
30
0
10
-122.31532650213019
20
98.407922187027907
30
0
10
-122.00819472899423
20
98.187873321647004
30
0
10
-121.73061751495067
20
97.999800653324982
30
0
0
ARC
5
110
100
AcDbEntity
8
0
100
AcDbCircle
10
-40.602079523542109
20
145.43142414959965
30
0
40
0.39999999999998515
210
0
220
0
230
1
100
AcDbArc
50
184.94052906942548
51
261.53221071436082
0
SPLINE
5
111
100
AcDbEntity
8
0
100
AcDbSpline
70
0
71
3
72
8
73
4
74
0
42
0.000000001
43
0.0000000001
44
0.0000000001
40
0
40
0
40
0
40
0
40
1
40
1
40
1
40
1
10
-31.204801126638927
20
144.45435860953754
30
0
10
-31.427242985868936
20
144.09681240454779
30
0
10
-31.616128077710549
20
143.76959099432969
30
0
10
-31.776087799987867
20
143.4749160453182
30
0
0
SPLINE
5
112
100
AcDbEntity
8
0
100
AcDbSpline
70
0
71
3
72
8
73
4
74
0
42
0.000000001
43
0.0000000001
44
0.0000000001
40
0
40
0
40
0
40
0
40
1
40
1
40
1
40
1
10
-96.418554655474907
20
137.67407833796602
30
0
10
-96.124516576594516
20
135.93428892814049
30
0
10
-95.745340110814098
20
134.53467064220894
30
0
10
-95.379622048654724
20
133.45708766867773
30
0
0
SPLINE
5
113
100
AcDbEntity
8
0
100
AcDbSpline
70
0
71
3
72
8
73
4
74
0
42
0.000000001
43
0.0000000001
44
0.0000000001
40
0
40
0
40
0
40
0
40
1
40
1
40
1
40
1
10
-102.32265955523475
20
126.48282767264526
30
0
10
-102.59924581196783
20
126.67235466521433
30
0
10
-102.91640404081934
20
126.87768875175848
30
0
10
-103.27724617262103
20
127.09474318123917
30
0
0
ARC
5
114
100
AcDbEntity
8
0
100
AcDbCircle
10
-51.666323676508668
20
71.112593805559541
30
0
40
74.737913481693795
210
0
220
0
230
1
100
AcDbArc
50
170.55273691862601
51
171.53226308137502
0
ARC
5
115
100
AcDbEntity
8
0
100
AcDbCircle
10
-90.260914144864643
20
135.58090872818184
30
0
40
0.39999999999996994
210
0
220
0
230
1
100
AcDbArc
50
224.31552906943142
51
300.90721071436491
0
SPLINE
5
116
100
AcDbEntity
8
0
100
AcDbSpline
70
0
71
3
72
8
73
4
74
0
42
0.000000001
43
0.0000000001
44
0.0000000001
40
0
40
0
40
0
40
0
40
1
40
1
40
1
40
1
10
-126.66050776373807
20
84.286838478836543
30
0
10
-126.28288012652132
20
84.100513394507061
30
0
10
-125.93872040027888
20
83.944611142894388
30
0
10
-125.62978559714423
20
83.814304866230145
30
0
0
SPLINE
5
117
100
AcDbEntity
8
0
100
AcDbSpline
70
0
71
3
72
8
73
4
74
0
42
0.000000001
43
0.0000000001
44
0.0000000001
40
0
40
0
40
0
40
0
40
1
40
1
40
1
40
1
10
-131.50956179579754
20
78.744810218834203
30
0
10
-129.97815061282245
20
77.868394010043005
30
0
10
-128.65568404367571
20
77.273592940772815
30
0
10
-127.59069205823917
20
76.872685424268354
30
0
0
SPLINE
5
118
100
AcDbEntity
8
0
100
AcDbSpline
70
0
71
3
72
8
73
4
74
0
42
0.000000001
43
0.0000000001
44
0.0000000001
40
0
40
0
40
0
40
0
40
1
40
1
40
1
40
1
10
-127.07680587067493
20
81.645757853648632
30
0
10
-128.20272827467409
20
81.480732079884206
30
0
10
-129.62149680430093
20
81.181062265160833
30
0
10
-131.30436606795382
20
80.650707078681478
30
0
0
SPLINE
5
119
100
AcDbEntity
8
0
100
AcDbSpline
70
0
71
3
72
8
73
4
74
0
42
0.000000001
43
0.0000000001
44
0.0000000001
40
0
40
0
40
0
40
0
40
1
40
1
40
1
40
1
10
-77.925157550432431
20
142.58400076808104
30
0
10
-78.601453436645272
20
143.49918306692939
30
0
10
-79.534541473710689
20
144.60916182960969
30
0
10
-80.795572069714936
20
145.84331231407822
30
0
0
ARC
5
120
100
AcDbEntity
8
0
100
AcDbCircle
10
-51.666323676506934
20
71.112593805558546
30
0
40
74.737913481695912
210
0
220
-0
230
1
100
AcDbArc
50
69.302736918625186
51
70.28226308137441
0
SPLINE
5
121
100
AcDbEntity
8
0
100
AcDbSpline
70
0
71
3
72
8
73
4
74
0
42
0.000000001
43
0.0000000001
44
0.0000000001
40
0
40
0
40
0
40
0
40
1
40
1
40
1
40
1
10
-21.18547933119644
20
145.30229341911536
30
0
10
-22.468702553271971
20
144.09123448384474
30
0
10
-23.421783469397909
20
142.99837451759447
30
0
10
-24.11457889761024
20
142.09561803853614
30
0
0
ARC
5
122
100
AcDbEntity
8
0
100
AcDbCircle
10
-82.58992546186532
20
139.59205711393554
30
0
40
0.39999999999999231
210
-0
220
0
230
1
100
AcDbArc
50
-65.697210714359855
51
10.894470930577587
0
SPLINE
5
123
100
AcDbEntity
8
0
100
AcDbSpline
70
0
71
3
72
8
73
4
74
0
42
0.000000001
43
0.0000000001
44
0.0000000001
40
0
40
0
40
0
40
0
40
1
40
1
40
1
40
1
10
-45.906232057796991
20
147.03696218729095
30
0
10
-46.054645954808258
20
146.64288987842585
30
0
10
-46.176063942284088
20
146.28510628245971
30
0
10
-46.275461852658367
20
145.96488683623701
30
0
0
SPLINE
5
124
100
AcDbEntity
8
0
100
AcDbSpline
70
0
71
3
72
8
73
4
74
0
42
0.000000001
43
0.0000000001
44
0.0000000001
40
0
40
0
40
0
40
0
40
1
40
1
40
1
40
1
10
-51.89686434646304
20
151.31945293713358
30
0
10
-52.618955826836064
20
149.70951210705772
30
0
10
-53.081268375092854
20
148.33511287603341
30
0
10
-53.375857943439762
20
147.23595330979421
30
0
0
SPLINE
5
125
100
AcDbEntity
8
0
100
AcDbSpline
70
0
71
3
72
8
73
4
74
0
42
0.000000001
43
0.0000000001
44
0.0000000001
40
0
40
0
40
0
40
0
40
1
40
1
40
1
40
1
10
-124.54758136214743
20
89.008108364062295
30
0
10
-124.88284998522666
20
89.012031207991271
30
0
10
-125.26063492111659
20
89.006556590215524
30
0
10
-125.6812531685126
20
88.986557605296099
30
0
0
ARC
5
126
100
AcDbEntity
8
0
100
AcDbCircle
10
-51.666323676506671
20
71.112593805558845
30
0
40
74.737913481695855
210
0
220
0
230
1
100
AcDbArc
50
164.92773691862558
51
165.90726308137488
0
SPLINE
5
127
100
AcDbEntity
8
0
100
AcDbSpline
70
0
71
3
72
8
73
4
74
0
42
0.000000001
43
0.0000000001
44
0.0000000001
40
0
40
0
40
0
40
0
40
1
40
1
40
1
40
1
10
-41.00059337391221
20
145.39697547671938
30
0
10
-41.029551491225448
20
145.73101419568414
30
0
10
-41.072029146295705
20
146.10644338746988
30
0
10
-41.133159628416713
20
146.52307599972673
30
0
0
SPLINE
5
128
100
AcDbEntity
8
0
100
AcDbSpline
70
0
71
3
72
8
73
4
74
0
42
0.000000001
43
0.0000000001
44
0.0000000001
40
0
40
0
40
0
40
0
40
1
40
1
40
1
40
1
10
-125.00808848048577
20
91.574116355426369
30
0
10
-124.65054227549599
20
91.351674496196367
30
0
10
-124.32332086527788
20
91.162789404354783
30
0
10
-124.0286459162664
20
91.002829682077476
30
0
0
SPLINE
5
129
100
AcDbEntity
8
0
100
AcDbSpline
70
0
71
3
72
8
73
4
74
0
42
0.000000001
43
0.0000000001
44
0.0000000001
40
0
40
0
40
0
40
0
40
1
40
1
40
1
40
1
10
-19.896238381452463
20
139.10221686304695
30
0
10
-19.82698325023124
20
139.43027808465877
30
0
10
-19.75865048996587
20
139.80187203388255
30
0
10
-19.696206650667509
20
140.21830982800543
30
0
0
ARC
5
130
100
AcDbEntity
8
0
100
AcDbCircle
10
-51.666323676506579
20
71.11259380555866
30
0
40
80.207190455425092
210
0
220
0
230
1
100
AcDbArc
50
122.54531369808903
51
123.91468630191098
0
SPLINE
5
131
100
AcDbEntity
8
0
100
AcDbSpline
70
0
71
3
72
8
73
4
74
0
42
0.000000001
43
0.0000000001
44
0.0000000001
40
0
40
0
40
0
40
0
40
1
40
1
40
1
40
1
10
-124.01558527462159
20
47.379226665001497
30
0
10
-123.59471439461277
20
47.392915046969037
30
0
10
-123.21770080103319
20
47.417657308009666
30
0
10
-122.88381867524406
20
47.44836828983108
30
0
0
ARC
5
132
100
AcDbEntity
8
0
100
AcDbCircle
10
-18.348707993243774
20
138.45977286723243
30
0
40
0.39999999999991376
210
0
220
0
230
1
100
AcDbArc
50
243.67778928564556
51
320.26947093058408
0
ARC
5
133
100
AcDbEntity
8
0
100
AcDbCircle
10
-51.666323676504497
20
71.112593805558532
30
0
40
74.737913481697888
210
0
220
0
230
1
100
AcDbArc
50
204.30273691862496
51
205.28226308137391
0
SPLINE
5
134
100
AcDbEntity
8
0
100
AcDbSpline
70
0
71
3
72
8
73
4
74
0
42
0.000000001
43
0.0000000001
44
0.0000000001
40
0
40
0
40
0
40
0
40
1
40
1
40
1
40
1
10
-89.678894061325252
20
141.7400523007646
30
0
10
-89.556801038890242
20
139.97981968084031
30
0
10
-89.316636993372043
20
138.54977514665404
30
0
10
-89.058301565176109
20
137.44153439105403
30
0
0
ARC
5
135
100
AcDbEntity
8
0
100
AcDbCircle
10
-51.666323676508398
20
71.112593805557879
30
0
40
74.737913481694051
210
0
220
0
230
1
100
AcDbArc
50
198.67773691862521
51
199.657263081374
0
SPLINE
5
136
100
AcDbEntity
8
0
100
AcDbSpline
70
0
71
3
72
8
73
4
74
0
42
0.000000001
43
0.0000000001
44
0.0000000001
40
0
40
0
40
0
40
0
40
1
40
1
40
1
40
1
10
-125.6812531685126
20
88.986557605296099
30
0
10
-126.81792930281574
20
88.932686170011479
30
0
10
-128.25923885246584
20
88.773522981417699
30
0
10
-129.98598853937682
20
88.410671632893738
30
0
0
SPLINE
5
137
100
AcDbEntity
8
0
100
AcDbSpline
70
0
71
3
72
8
73
4
74
0
42
0.000000001
43
0.0000000001
44
0.0000000001
40
0
40
0
40
0
40
0
40
1
40
1
40
1
40
1
10
-19.696206650667509
20
140.21830982800543
30
0
10
-19.527288448359666
20
141.3436548447728
30
0
10
-19.402207816748302
20
142.78832123328993
30
0
10
-19.421214925894311
20
144.55268069558073
30
0
0
ARC
5
138
100
AcDbEntity
8
0
100
AcDbCircle
10
-95.355417672960357
20
132.24334799812368
30
0
40
0.39999999999997515
210
-0
220
0
230
1
100
AcDbArc
50
-54.447210714365895
51
22.144470930579754
0
SPLINE
5
139
100
AcDbEntity
8
0
100
AcDbSpline
70
0
71
3
72
8
73
4
74
0
42
0.000000001
43
0.0000000001
44
0.0000000001
40
0
40
0
40
0
40
0
40
1
40
1
40
1
40
1
10
-41.133159628416713
20
146.52307599972673
30
0
10
-41.298185402181133
20
147.64899840372601
30
0
10
-41.597855216904492
20
149.06776693335271
30
0
10
-42.128210403383846
20
150.75063619700558
30
0
0
SPLINE
5
140
100
AcDbEntity
8
0
100
AcDbSpline
70
0
71
3
72
8
73
4
74
0
42
0.000000001
43
0.0000000001
44
0.0000000001
40
0
40
0
40
0
40
0
40
1
40
1
40
1
40
1
10
-13.38507160161608
20
135.66081533592336
30
0
10
-13.283994329985532
20
135.98050866316942
30
0
10
-13.179568034371382
20
136.34361550420863
30
0
10
-13.076606837521936
20
136.75192746996973
30
0
0
SPLINE
5
141
100
AcDbEntity
8
0
100
AcDbSpline
70
0
71
3
72
8
73
4
74
0
42
0.000000001
43
0.0000000001
44
0.0000000001
40
0
40
0
40
0
40
0
40
1
40
1
40
1
40
1
10
-122.29378217171281
20
33.100023420740001
30
0
10
-120.53354955178852
20
33.222116443175075
30
0
10
-119.10350501760215
20
33.462280488693295
30
0
10
-117.99526426200225
20
33.720615916889216
30
0
0
ARC
5
142
100
AcDbEntity
8
0
100
AcDbCircle
10
-83.756070772203728
20
139.0534075607454
30
0
40
0.39999999999999808
210
0
220
0
230
1
100
AcDbArc
50
218.69052906942483
51
295.28221071435854
0
SPLINE
5
143
100
AcDbEntity
8
0
100
AcDbSpline
70
0
71
3
72
8
73
4
74
0
42
0.000000001
43
0.0000000001
44
0.0000000001
40
0
40
0
40
0
40
0
40
1
40
1
40
1
40
1
10
-122.51113441075893
20
108.71852675211397
30
0
10
-121.43168492591003
20
107.3227780669875
30
0
10
-120.43750564500768
20
106.26716748730377
30
0
10
-119.60700201185118
20
105.48922244994721
30
0
0
SPLINE
5
144
100
AcDbEntity
8
0
100
AcDbSpline
70
0
71
3
72
8
73
4
74
0
42
0.000000001
43
0.0000000001
44
0.0000000001
40
0
40
0
40
0
40
0
40
1
40
1
40
1
40
1
10
-84.804137013856774
20
139.66603060372267
30
0
10
-85.566879902340361
20
140.5105174608741
30
0
10
-86.604271809612854
20
141.52369275135516
30
0
10
-87.980198099846589
20
142.62829785102491
30
0
0
ARC
5
145
100
AcDbEntity
8
0
100
AcDbCircle
10
-51.666323676506785
20
71.112593805558845
30
0
40
80.207190455425092
210
0
220
0
230
1
100
AcDbArc
50
184.42031369808907
51
185.78968630191127
0
SPLINE
5
146
100
AcDbEntity
8
0
100
AcDbSpline
70
0
71
3
72
8
73
4
74
0
42
0.000000001
43
0.0000000001
44
0.0000000001
40
0
40
0
40
0
40
0
40
1
40
1
40
1
40
1
10
-102.3201486686259
20
14.262981816656602
30
0
10
-102.80846372484581
20
13.23512814433612
30
0
10
-103.34752294278471
20
11.888977596265438
30
0
10
-103.84150079044915
20
10.195073387524737
30
0
0
SPLINE
5
147
100
AcDbEntity
8
0
100
AcDbSpline
70
0
71
3
72
8
73
4
74
0
42
0.000000001
43
0.0000000001
44
0.0000000001
40
0
40
0
40
0
40
0
40
1
40
1
40
1
40
1
10
-7.2425742059218905
20
131.59777914981527
30
0
10
-7.110648223262328
20
131.90602576119204
30
0
10
-6.9711340746114807
20
132.25714857667313
30
0
10
-6.8286470928206322
20
132.65340244663591
30
0
0
ARC
5
148
100
AcDbEntity
8
0
100
AcDbCircle
10
-51.666323676506693
20
71.112593805558475
30
0
40
80.207190455425092
210
0
220
0
230
1
100
AcDbArc
50
218.17031369808873
51
219.53968630191096
0
ARC
5
149
100
AcDbEntity
8
0
100
AcDbCircle
10
-84.983939359769849
20
3.7654147438846772
30
0
40
0.39999999999999236
210
0
220
-0
230
1
100
AcDbArc
50
63.677789285639101
51
140.26947093057635
0
ARC
5
150
100
AcDbEntity
8
0
100
AcDbCircle
10
-51.666323676506856
20
71.112593805558745
30
0
40
80.207190455425092
210
0
220
0
230
1
100
AcDbArc
50
212.54531369808899
51
213.9146863019113
0
SPLINE
5
151
100
AcDbEntity
8
0
100
AcDbSpline
70
0
71
3
72
8
73
4
74
0
42
0.000000001
43
0.0000000001
44
0.0000000001
40
0
40
0
40
0
40
0
40
1
40
1
40
1
40
1
10
-111.73512391570571
20
26.127414012902506
30
0
10
-111.95084847794195
20
25.870736488421077
30
0
10
-112.18628076736002
20
25.575231723104981
30
0
10
-112.43765873430526
20
25.237402199269695
30
0
0
ARC
5
152
100
AcDbEntity
8
0
100
AcDbCircle
10
8.7086272988821563
20
115.8403406424177
30
0
40
0.39999999999998725
210
0
220
0
230
1
100
AcDbArc
50
139.94052906942485
51
216.53221071432785
0
ARC
5
153
100
AcDbEntity
8
0
100
AcDbCircle
10
-1.1774109882373385
20
126.75947815624873
30
0
40
0.39999999999998659
210
0
220
0
230
1
100
AcDbArc
50
151.19052906942437
51
227.78221071445489
0
ARC
5
154
100
AcDbEntity
8
0
100
AcDbCircle
10
-11.907963518501216
20
134.86978038032129
30
0
40
0.39999999999998731
210
0
220
0
230
1
100
AcDbArc
50
238.0527892856407
51
314.6444709305735
0
ARC
5
155
100
AcDbEntity
8
0
100
AcDbCircle
10
-51.666323676506764
20
71.112593805558575
30
0
40
80.207190455425064
210
0
220
0
230
1
100
AcDbArc
50
223.79531369808888
51
225.16468630191096
0
ARC
5
156
100
AcDbEntity
8
0
100
AcDbCircle
10
-83.827762871216947
20
3.2056878879146633
30
0
40
0.40000000000002456
210
-0
220
0
230
1
100
AcDbArc
50
-11.934470930573697
51
64.657210714324933
0
SPLINE
5
157
100
AcDbEntity
8
0
100
AcDbSpline
70
0
71
3
72
8
73
4
74
0
42
0.000000001
43
0.0000000001
44
0.0000000001
40
0
40
0
40
0
40
0
40
1
40
1
40
1
40
1
10
-107.64847305218743
20
19.501671309444301
30
0
10
-108.23518401557969
20
18.526630278887588
30
0
10
-108.90359334321927
20
17.239798856656869
30
0
10
-109.56122419906234
20
15.602469555686554
30
0
0
ARC
5
158
100
AcDbEntity
8
0
100
AcDbCircle
10
-5.8501137862107724
20
130.66577133347155
30
0
40
0.39999999999995672
210
0
220
0
230
1
100
AcDbArc
50
232.42778928564894
51
309.0194709305764
0
SPLINE
5
159
100
AcDbEntity
8
0
100
AcDbSpline
70
0
71
3
72
8
73
4
74
0
42
0.000000001
43
0.0000000001
44
0.0000000001
40
0
40
0
40
0
40
0
40
1
40
1
40
1
40
1
10
-0.96184124737737575
20
133.25958779840536
30
0
10
-2.541361160490974
20
132.47317669316172
30
0
10
-3.7706432349356711
20
131.70403969628492
30
0
10
-4.6956634977658602
20
131.0412635054123
30
0
0
SPLINE
5
160
100
AcDbEntity
8
0
100
AcDbSpline
70
0
71
3
72
8
73
4
74
0
42
0.000000001
43
0.0000000001
44
0.0000000001
40
0
40
0
40
0
40
0
40
1
40
1
40
1
40
1
10
-83.436408971560937
20
3.122970748070188
30
0
10
-83.505664102782305
20
2.7949095264583272
30
0
10
-83.573996863047668
20
2.4233155772345909
30
0
10
-83.636440702345908
20
2.0068777831116753
30
0
0
ARC
5
161
100
AcDbEntity
8
0
100
AcDbCircle
10
-97.482533566802729
20
11.559416277645557
30
0
40
0.39999999999994496
210
0
220
-0
230
1
100
AcDbArc
50
52.42778928561728
51
129.01947093058178
0
SPLINE
5
162
100
AcDbEntity
8
0
100
AcDbSpline
70
0
71
3
72
8
73
4
74
0
42
0.000000001
43
0.0000000001
44
0.0000000001
40
0
40
0
40
0
40
0
40
1
40
1
40
1
40
1
10
-109.42595926038074
20
21.49895790937558
30
0
10
-109.04236358550537
20
21.672664638252982
30
0
10
-108.70351689629823
20
21.83980036285579
30
0
10
-108.40680261794488
20
21.995944768286165
30
0
0
SPLINE
5
163
100
AcDbEntity
8
0
100
AcDbSpline
70
0
71
3
72
8
73
4
74
0
42
0.000000001
43
0.0000000001
44
0.0000000001
40
0
40
0
40
0
40
0
40
1
40
1
40
1
40
1
10
-118.22780820891418
20
26.360362826590446
30
0
10
-116.48801879908871
20
26.654400905470826
30
0
10
-115.0884005131571
20
27.033577371251237
30
0
10
-114.01081753962599
20
27.399295433410629
30
0
0
SPLINE
5
164
100
AcDbEntity
8
0
100
AcDbSpline
70
0
71
3
72
8
73
4
74
0
42
0.000000001
43
0.0000000001
44
0.0000000001
40
0
40
0
40
0
40
0
40
1
40
1
40
1
40
1
10
-101.80474555089246
20
15.27295004684078
30
0
10
-101.96624972524975
20
14.979118734705656
30
0
10
-102.13950812941974
20
14.643361449439043
30
0
10
-102.3201486686259
20
14.262981816656602
30
0
0
SPLINE
5
165
100
AcDbEntity
8
0
100
AcDbSpline
70
0
71
3
72
8
73
4
74
0
42
0.000000001
43
0.0000000001
44
0.0000000001
40
0
40
0
40
0
40
0
40
1
40
1
40
1
40
1
10
10.678170186612444
20
114.82589217770638
30
0
10
10.279395392938437
20
114.69062084530154
30
0
10
9.9257981773835358
20
114.55750270838188
30
0
10
9.6152078312820048
20
114.43119326600123
30
0
0
ARC
5
166
100
AcDbEntity
8
0
100
AcDbCircle
10
-102.1552363647762
20
15.465709454868286
30
0
40
0.39999999999998714
210
-0
220
0
230
1
100
AcDbArc
50
-28.809470930576335
51
47.782210714333708
0
SPLINE
5
167
100
AcDbEntity
8
0
100
AcDbSpline
70
0
71
3
72
8
73
4
74
0
42
0.000000001
43
0.0000000001
44
0.0000000001
40
0
40
0
40
0
40
0
40
1
40
1
40
1
40
1
10
-90.256040515491719
20
5.4732601411473976
30
0
10
-90.534448430913017
20
4.3698908473638278
30
0
10
-90.800528833227901
20
2.9444409681959476
30
0
10
-90.954550717514735
20
1.186714356480165
30
0
0
ARC
5
168
100
AcDbEntity
8
0
100
AcDbCircle
10
-51.666323676506032
20
71.112593805558618
30
0
40
74.737913481695443
210
0
220
-0
230
1
100
AcDbArc
50
58.052736918625776
51
59.032263081375177
0
ARC
5
169
100
AcDbEntity
8
0
100
AcDbCircle
10
-51.666323676506551
20
71.112593805559158
30
0
40
74.737913481695315
210
0
220
-0
230
1
100
AcDbArc
50
46.802736918625072
51
47.782263081373983
0
SPLINE
5
170
100
AcDbEntity
8
0
100
AcDbSpline
70
0
71
3
72
8
73
4
74
0
42
0.000000001
43
0.0000000001
44
0.0000000001
40
0
40
0
40
0
40
0
40
1
40
1
40
1
40
1
10
-86.042952320895424
20
3.171915470214159
30
0
10
-85.755030815349869
20
3.479195271185187
30
0
10
-85.505937367294038
20
3.7632795603684412
30
0
10
-85.291562995534335
20
4.0210858191337975
30
0
0
SPLINE
5
171
100
AcDbEntity
8
0
100
AcDbSpline
70
0
71
3
72
8
73
4
74
0
42
0.000000001
43
0.0000000001
44
0.0000000001
40
0
40
0
40
0
40
0
40
1
40
1
40
1
40
1
10
-114.01081753962599
20
27.399295433410629
30
0
10
-113.61204274595195
20
27.534566765815534
30
0
10
-113.25844553039707
20
27.667684902735246
30
0
10
-112.94785518429552
20
27.793994345115877
30
0
0
ARC
5
172
100
AcDbEntity
8
0
100
AcDbCircle
10
-112.04127465189569
20
26.384846968699421
30
0
40
0.39999999999998725
210
-0
220
0
230
1
100
AcDbArc
50
-40.059470930576602
51
36.532210714358001
0
ARC
5
173
100
AcDbEntity
8
0
100
AcDbCircle
10
-51.666323676506771
20
71.112593805558532
30
0
40
80.207190455425064
210
0
220
-0
230
1
100
AcDbArc
50
43.79531369808889
51
45.164686301911097
0
SPLINE
5
174
100
AcDbEntity
8
0
100
AcDbSpline
70
0
71
3
72
8
73
4
74
0
42
0.000000001
43
0.0000000001
44
0.0000000001
40
0
40
0
40
0
40
0
40
1
40
1
40
1
40
1
10
-112.43765873430526
20
25.237402199269695
30
0
10
-113.11711525756363
20
24.324563988612574
30
0
10
-113.90843754768903
20
23.109444582271614
30
0
10
-114.72338806707134
20
21.544458565295336
30
0
0
ARC
5
175
100
AcDbEntity
8
0
100
AcDbCircle
10
-51.666323676506536
20
71.112593805559655
30
0
40
74.737913481695003
210
0
220
-0
230
1
100
AcDbArc
50
35.552736918624696
51
36.532263081374296
0
ARC
5
176
100
AcDbEntity
8
0
100
AcDbCircle
10
4.0338195694495251
20
121.54274435820653
30
0
40
0.40000000000007085
210
0
220
0
230
1
100
AcDbArc
50
145.56552906943097
51
222.15721071432176
0
ARC
5
177
100
AcDbEntity
8
0
100
AcDbCircle
10
-78.222328032736087
20
0.82401240705033962
30
0
40
0.40000000000001973
210
0
220
-0
230
1
100
AcDbArc
50
69.302789285695781
51
145.89447093057316
0
ARC
5
178
100
AcDbEntity
8
0
100
AcDbCircle
10
-51.666323676506643
20
71.11259380555849
30
0
40
80.207190455425078
210
0
220
0
230
1
100
AcDbArc
50
235.04531369808885
51
236.41468630190997
0
SPLINE
5
179
100
AcDbEntity
8
0
100
AcDbSpline
70
0
71
3
72
8
73
4
74
0
42
0.000000001
43
0.0000000001
44
0.0000000001
40
0
40
0
40
0
40
0
40
1
40
1
40
1
40
1
10
3.7039101905799248
20
121.76892968428653
30
0
10
3.8934371831490044
20
122.04551594101964
30
0
10
4.0987712696931808
20
122.36267416987116
30
0
10
4.3158256991738657
20
122.72351630167282
30
0
0
SPLINE
5
180
100
AcDbEntity
8
0
100
AcDbSpline
70
0
71
3
72
8
73
4
74
0
42
0.000000001
43
0.0000000001
44
0.0000000001
40
0
40
0
40
0
40
0
40
1
40
1
40
1
40
1
10
-96.03517953253791
20
4.2949462056948722
30
0
10
-94.54034720719207
20
5.2323905514959135
30
0
10
-93.39237307088824
20
6.1183146571016103
30
0
10
-92.536770460365318
20
6.8685672403695435
30
0
0
ARC
5
181
100
AcDbEntity
8
0
100
AcDbCircle
10
-51.666323676506948
20
71.112593805558717
30
0
40
80.207190455425064
210
0
220
-0
230
1
100
AcDbArc
50
49.420313698088719
51
50.789686301910884
0
SPLINE
5
182
100
AcDbEntity
8
0
100
AcDbSpline
70
0
71
3
72
8
73
4
74
0
42
0.000000001
43
0.0000000001
44
0.0000000001
40
0
40
0
40
0
40
0
40
1
40
1
40
1
40
1
10
-67.087794756760545
20
-7.5980892716052573
30
0
10
-66.065494186739755
20
-6.1599560625777352
30
0
10
-65.343932855904512
20
-4.9021582313031233
30
0
10
-64.84056834978486
20
-3.8815902816727545
30
0
0
ARC
5
183
100
AcDbEntity
8
0
100
AcDbCircle
10
-51.666323676508583
20
71.112593805557538
30
0
40
74.737913481693795
210
0
220
0
230
1
100
AcDbArc
50
215.55273691862499
51
216.53226308137491
0
SPLINE
5
184
100
AcDbEntity
8
0
100
AcDbSpline
70
0
71
3
72
8
73
4
74
0
42
0.000000001
43
0.0000000001
44
0.0000000001
40
0
40
0
40
0
40
0
40
1
40
1
40
1
40
1
10
-107.03655754359346
20
20.456257926830578
30
0
10
-107.22608453616253
20
20.179671670097473
30
0
10
-107.4314186227067
20
19.862513441245969
30
0
10
-107.64847305218743
20
19.501671309444301
30
0
0
ARC
5
185
100
AcDbEntity
8
0
100
AcDbCircle
10
-51.666323676505492
20
71.112593805560195
30
0
40
74.737913481697944
210
0
220
0
230
1
100
AcDbArc
50
226.80273691862547
51
227.78226308137496
0
SPLINE
5
186
100
AcDbEntity
8
0
100
AcDbSpline
70
0
71
3
72
8
73
4
74
0
42
0.000000001
43
0.0000000001
44
0.0000000001
40
0
40
0
40
0
40
0
40
1
40
1
40
1
40
1
10
10.188163410846391
20
122.17349693029075
30
0
10
8.4855723342018443
20
121.71034554240225
30
0
10
7.129859385727678
20
121.19580833300415
30
0
10
6.093311907367128
20
120.72622970174154
30
0
0
ARC
5
187
100
AcDbEntity
8
0
100
AcDbCircle
10
-51.666323676506806
20
71.112593805558177
30
0
40
74.737913481695614
210
0
220
0
230
1
100
AcDbArc
50
221.17773691862507
51
222.15726308137499
0
SPLINE
5
188
100
AcDbEntity
8
0
100
AcDbSpline
70
0
71
3
72
8
73
4
74
0
42
0.000000001
43
0.0000000001
44
0.0000000001
40
0
40
0
40
0
40
0
40
1
40
1
40
1
40
1
10
-96.504000260192868
20
9.5717851644812768
30
0
10
-96.88921666830899
20
8.5010176431434363
30
0
10
-97.293734341598707
20
7.1085121348914821
30
0
10
-97.619301904375746
20
5.3743462418926278
30
0
0
ARC
5
189
100
AcDbEntity
8
0
100
AcDbCircle
10
-51.666323676506913
20
71.112593805558149
30
0
40
74.737913481695713
210
0
220
0
230
1
100
AcDbArc
50
181.8027369186247
51
182.78226308137388
0
SPLINE
5
190
100
AcDbEntity
8
0
100
AcDbSpline
70
0
71
3
72
8
73
4
74
0
42
0.000000001
43
0.0000000001
44
0.0000000001
40
0
40
0
40
0
40
0
40
1
40
1
40
1
40
1
10
-127.68273296664739
20
66.731510805346019
30
0
10
-128.75482615602141
20
66.349999391189328
30
0
10
-130.08787076552582
20
65.779299638616266
30
0
10
-131.63493700404635
20
64.930823571774724
30
0
0
ARC
5
191
100
AcDbEntity
8
0
100
AcDbCircle
10
-51.666323676506813
20
71.112593805558873
30
0
40
80.207190455425078
210
0
220
0
230
1
100
AcDbArc
50
190.04531369808896
51
191.41468630191096
0
SPLINE
5
192
100
AcDbEntity
8
0
100
AcDbSpline
70
0
71
3
72
8
73
4
74
0
42
0.000000001
43
0.0000000001
44
0.0000000001
40
0
40
0
40
0
40
0
40
1
40
1
40
1
40
1
10
-125.84814289113874
20
59.75544358369244
30
0
10
-126.15939191727422
20
59.630766071463327
30
0
10
-126.50632464171282
20
59.481136148189819
30
0
10
-126.88727195128993
20
59.301695860722845
30
0
0
ARC
5
193
100
AcDbEntity
8
0
100
AcDbCircle
10
-126.1737320493948
20
61.399090836059386
30
0
40
0.39999999999995961
210
0
220
-0
230
1
100
AcDbArc
50
7.4277892857359689
51
84.019470930589478
0
ARC
5
194
100
AcDbEntity
8
0
100
AcDbCircle
10
-126.71566548939415
20
67.465357065892789
30
0
40
0.39999999999999475
210
-0
220
0
230
1
100
AcDbArc
50
-73.809470930579749
51
2.7822107144358696
0
ARC
5
195
100
AcDbEntity
8
0
100
AcDbCircle
10
-125.99679068016643
20
60.126797639570562
30
0
40
0.39999999999998453
210
-0
220
0
230
1
100
AcDbArc
50
-68.184470930581696
51
8.4072107143599499
0
ARC
5
196
100
AcDbEntity
8
0
100
AcDbCircle
10
-126.7670482967862
20
68.748867109905248
30
0
40
0.40000000000001201
210
0
220
-0
230
1
100
AcDbArc
50
1.8027892856430645
51
78.394470930574201
0
ARC
5
197
100
AcDbEntity
8
0
100
AcDbCircle
10
-124.56207284052701
20
52.894037435773768
30
0
40
0.40000000000000158
210
-0
220
0
230
1
100
AcDbArc
50
-62.559470930568999
51
14.032210714463345
0
SPLINE
5
198
100
AcDbEntity
8
0
100
AcDbSpline
70
0
71
3
72
8
73
4
74
0
42
0.000000001
43
0.0000000001
44
0.0000000001
40
0
40
0
40
0
40
0
40
1
40
1
40
1
40
1
10
-126.60413254270722
20
67.081221150098258
30
0
10
-126.92610335292096
20
66.987651733640547
30
0
10
-127.2860317986519
20
66.872747672881857
30
0
10
-127.68273296664739
20
66.731510805346019
30
0
0
ARC
5
199
100
AcDbEntity
8
0
100
AcDbCircle
10
-51.666323676506906
20
71.112593805558276
30
0
40
74.737913481695585
210
0
220
0
230
1
100
AcDbArc
50
193.05273691862496
51
194.03226308137394
0
SPLINE
5
200
100
AcDbEntity
8
0
100
AcDbSpline
70
0
71
3
72
8
73
4
74
0
42
0.000000001
43
0.0000000001
44
0.0000000001
40
0
40
0
40
0
40
0
40
1
40
1
40
1
40
1
10
-125.99348058247088
20
54.584977041574874
30
0
10
-125.57329461472888
20
54.55734695013544
30
0
10
-125.19567127897817
20
54.545016276118346
30
0
10
-124.86038668426907
20
54.542853204991104
30
0
0
SPLINE
5
201
100
AcDbEntity
8
0
100
AcDbSpline
70
0
71
3
72
8
73
4
74
0
42
0.000000001
43
0.0000000001
44
0.0000000001
40
0
40
0
40
0
40
0
40
1
40
1
40
1
40
1
10
-131.87318280808179
20
70.882053135602277
30
0
10
-130.26324197800588
20
70.159961655229253
30
0
10
-128.88884274698162
20
69.697649106972477
30
0
10
-127.78968318074243
20
69.40305953862557
30
0
0
ARC
5
202
100
AcDbEntity
8
0
100
AcDbCircle
10
-51.666323676508803
20
71.112593805558475
30
0
40
74.737913481693809
210
0
220
0
230
1
100
AcDbArc
50
187.42773691862496
51
188.40726308137485
0
SPLINE
5
203
100
AcDbEntity
8
0
100
AcDbSpline
70
0
71
3
72
8
73
4
74
0
42
0.000000001
43
0.0000000001
44
0.0000000001
40
0
40
0
40
0
40
0
40
1
40
1
40
1
40
1
10
-126.88727195128993
20
59.301695860722845
30
0
10
-127.91680806110548
20
58.816938019713739
30
0
10
-129.18749533872301
20
58.118325121882094
30
0
10
-130.64394683273886
20
57.122295690614244
30
0
0
SPLINE
5
204
100
AcDbEntity
8
0
100
AcDbSpline
70
0
71
3
72
8
73
4
74
0
42
0.000000001
43
0.0000000001
44
0.0000000001
40
0
40
0
40
0
40
0
40
1
40
1
40
1
40
1
10
-127.25556473795882
20
61.949897402499815
30
0
10
-126.8401103030498
20
61.881214930537986
30
0
10
-126.4655139442813
20
61.831930072594659
30
0
10
-126.13205585458456
20
61.796913780076117
30
0
0
SPLINE
5
205
100
AcDbEntity
8
0
100
AcDbSpline
70
0
71
3
72
8
73
4
74
0
42
0.000000001
43
0.0000000001
44
0.0000000001
40
0
40
0
40
0
40
0
40
1
40
1
40
1
40
1
10
-131.4643679214
20
63.021516285048392
30
0
10
-129.79140205449986
20
62.460703668784902
30
0
10
-128.378306377516
20
62.135331964107003
30
0
10
-127.25556473795882
20
61.949897402499815
30
0
0
SPLINE
5
206
100
AcDbEntity
8
0
100
AcDbSpline
70
0
71
3
72
8
73
4
74
0
42
0.000000001
43
0.0000000001
44
0.0000000001
40
0
40
0
40
0
40
0
40
1
40
1
40
1
40
1
10
-130.28705424659142
20
55.238900934049951
30
0
10
-128.56717491870177
20
54.844768113961919
30
0
10
-127.1289916796041
20
54.659470760245192
30
0
10
-125.99348058247088
20
54.584977041574874
30
0
0
SPLINE
5
207
100
AcDbEntity
8
0
100
AcDbSpline
70
0
71
3
72
8
73
4
74
0
42
0.000000001
43
0.0000000001
44
0.0000000001
40
0
40
0
40
0
40
0
40
1
40
1
40
1
40
1
10
23.554624598276419
20
82.923491750394305
30
0
10
24.584160708091957
20
83.408249591403376
30
0
10
25.854847985709462
20
84.106862489235112
30
0
10
27.311299479725356
20
85.10289192050287
30
0
0
SPLINE
5
208
100
AcDbEntity
8
0
100
AcDbSpline
70
0
71
3
72
8
73
4
74
0
42
0.000000001
43
0.0000000001
44
0.0000000001
40
0
40
0
40
0
40
0
40
1
40
1
40
1
40
1
10
-127.78968318074243
20
69.40305953862557
30
0
10
-127.38296133198524
20
69.293986135892069
30
0
10
-127.014999517909
20
69.208221734146278
30
0
10
-126.68657931691513
20
69.140689446275317
30
0
0
ARC
5
209
100
AcDbEntity
8
0
100
AcDbCircle
10
-124.86286872948014
20
54.142860905750808
30
0
40
0.40000000000001201
210
0
220
-0
230
1
100
AcDbArc
50
13.052789285658584
51
89.644470930579502
0
SPLINE
5
210
100
AcDbEntity
8
0
100
AcDbSpline
70
0
71
3
72
8
73
4
74
0
42
0.000000001
43
0.0000000001
44
0.0000000001
40
0
40
0
40
0
40
0
40
1
40
1
40
1
40
1
10
8.8188616677499159
20
26.688844334973684
30
0
10
9.1271082791267162
20
26.556918352314121
30
0
10
9.4782310946078301
20
26.417404203663271
30
0
10
9.8744849645706143
20
26.274917221872535
30
0
0
ARC
5
211
100
AcDbEntity
8
0
100
AcDbCircle
10
-108.22043652177828
20
21.642013025997393
30
0
40
0.39999999999998548
210
0
220
-0
230
1
100
AcDbArc
50
41.177789285636152
51
117.76947093056053
0
ARC
5
212
100
AcDbEntity
8
0
100
AcDbCircle
10
-63.999439876328765
20
-3.0062316518410412
30
0
40
0.39999999999997121
210
0
220
-0
230
1
100
AcDbArc
50
80.552789285636564
51
157.14447093057652
0
SPLINE
5
213
100
AcDbEntity
8
0
100
AcDbSpline
70
0
71
3
72
8
73
4
74
0
42
0.000000001
43
0.0000000001
44
0.0000000001
40
0
40
0
40
0
40
0
40
1
40
1
40
1
40
1
10
-62.332053979101318
20
-3.1717878656022842
30
0
10
-62.303095861788066
20
-3.50582658456704
30
0
10
-62.260618206717822
20
-3.8812557763527145
30
0
10
-62.199487724596793
20
-4.2978883886096249
30
0
0
SPLINE
5
214
100
AcDbEntity
8
0
100
AcDbSpline
70
0
71
3
72
8
73
4
74
0
42
0.000000001
43
0.0000000001
44
0.0000000001
40
0
40
0
40
0
40
0
40
1
40
1
40
1
40
1
10
-72.127846226374601
20
-2.2291709984204355
30
0
10
-71.905404367144598
20
-1.8716247934306862
30
0
10
-71.716519275302971
20
-1.5444033832125725
30
0
10
-71.556559553025664
20
-1.2497284342010817
30
0
0
SPLINE
5
215
100
AcDbEntity
8
0
100
AcDbSpline
70
0
71
3
72
8
73
4
74
0
42
0.000000001
43
0.0000000001
44
0.0000000001
40
0
40
0
40
0
40
0
40
1
40
1
40
1
40
1
10
-69.561838235010583
20
-1.7686638800820997
30
0
10
-69.56576107893946
20
-2.1039325031613365
30
0
10
-69.560286461163855
20
-2.4817174390512364
30
0
10
-69.540287476244302
20
-2.9023356864472971
30
0
0
SPLINE
5
216
100
AcDbEntity
8
0
100
AcDbSpline
70
0
71
3
72
8
73
4
74
0
42
0.000000001
43
0.0000000001
44
0.0000000001
40
0
40
0
40
0
40
0
40
1
40
1
40
1
40
1
10
-108.21812079505229
20
14.234762944882291
30
0
10
-106.5691249343877
20
14.862567240729271
30
0
10
-105.27037358017283
20
15.507509919144111
30
0
10
-104.28484411583418
20
16.07642682059296
30
0
0
SPLINE
5
217
100
AcDbEntity
8
0
100
AcDbSpline
70
0
71
3
72
8
73
4
74
0
42
0.000000001
43
0.0000000001
44
0.0000000001
40
0
40
0
40
0
40
0
40
1
40
1
40
1
40
1
10
-102.37080610563606
20
8.9655998127116252
30
0
10
-100.79128619252258
20
9.7520109179553955
30
0
10
-99.56200411807778
20
10.521147914832225
30
0
10
-98.636983855247706
20
11.183924105704808
30
0
0
SPLINE
5
218
100
AcDbEntity
8
0
100
AcDbSpline
70
0
71
3
72
8
73
4
74
0
42
0.000000001
43
0.0000000001
44
0.0000000001
40
0
40
0
40
0
40
0
40
1
40
1
40
1
40
1
10
-20.955771458918036
20
1.4379904546123512
30
0
10
-21.01064648769151
20
1.8554930302419972
30
0
10
-21.072223402290508
20
2.2282660346476875
30
0
10
-21.135512673517191
20
2.5575302241270954
30
0
0
ARC
5
219
100
AcDbEntity
8
0
100
AcDbCircle
10
15.680855385167114
20
37.794978122295475
30
0
40
0.39999999999998848
210
0
220
0
230
1
100
AcDbArc
50
153.67778928563803
51
230.26947093057692
0
SPLINE
5
220
100
AcDbEntity
8
0
100
AcDbSpline
70
0
71
3
72
8
73
4
74
0
42
0.000000001
43
0.0000000001
44
0.0000000001
40
0
40
0
40
0
40
0
40
1
40
1
40
1
40
1
10
4.3158256991738657
20
122.72351630167282
30
0
10
4.9025366625661864
20
123.69855733222951
30
0
10
5.5709459902057388
20
124.98538875446023
30
0
10
6.2285768460487843
20
126.62271805543054
30
0
0
SPLINE
5
221
100
AcDbEntity
8
0
100
AcDbSpline
70
0
71
3
72
8
73
4
74
0
42
0.000000001
43
0.0000000001
44
0.0000000001
40
0
40
0
40
0
40
0
40
1
40
1
40
1
40
1
10
-20.759495718428326
20
-2.900657618241
30
0
10
-20.708467861869046
20
-1.1369337905888597
30
0
10
-20.807306576079814
20
0.3097648812460001
30
0
10
-20.955771458918036
20
1.4379904546123512
30
0
0
SPLINE
5
222
100
AcDbEntity
8
0
100
AcDbSpline
70
0
71
3
72
8
73
4
74
0
42
0.000000001
43
0.0000000001
44
0.0000000001
40
0
40
0
40
0
40
0
40
1
40
1
40
1
40
1
10
18.961134818699261
20
109.12516419037712
30
0
10
17.20090219877499
20
109.00307116794202
30
0
10
15.770857664588622
20
108.76290712242383
30
0
10
14.662616908988737
20
108.50457169422789
30
0
0
SPLINE
5
223
100
AcDbEntity
8
0
100
AcDbSpline
70
0
71
3
72
8
73
4
74
0
42
0.000000001
43
0.0000000001
44
0.0000000001
40
0
40
0
40
0
40
0
40
1
40
1
40
1
40
1
10
-14.274345787837424
20
4.783653220063055
30
0
10
-14.369878986891793
20
5.1937667132802332
30
0
10
-14.467697535700243
20
5.5587091207011516
30
0
10
-14.562955586053047
20
5.88018437973194
30
0
0
SPLINE
5
224
100
AcDbEntity
8
0
100
AcDbSpline
70
0
71
3
72
8
73
4
74
0
42
0.000000001
43
0.0000000001
44
0.0000000001
40
0
40
0
40
0
40
0
40
1
40
1
40
1
40
1
10
-59.298540089782385
20
-8.7306443137321885
30
0
10
-58.422123880991194
20
-7.1992331307571522
30
0
10
-57.827322811720975
20
-5.8767665616103804
30
0
10
-57.426415295216529
20
-4.8117745761738249
30
0
0
ARC
5
225
100
AcDbEntity
8
0
100
AcDbCircle
10
-51.666323676506693
20
71.112593805560167
30
0
40
74.737913481697277
210
0
220
0
230
1
100
AcDbArc
50
238.05273691862593
51
239.03226308137499
0
ARC
5
226
100
AcDbEntity
8
0
100
AcDbCircle
10
-20.742721891148229
20
2.6331304971815603
30
0
40
0.40000000000000563
210
0
220
0
230
1
100
AcDbArc
50
114.30278928568978
51
190.89447093057734
0
ARC
5
227
100
AcDbEntity
8
0
100
AcDbCircle
10
-51.666323676507204
20
71.112593805556486
30
0
40
74.73791348169371
210
0
220
0
230
1
100
AcDbArc
50
266.17773691862595
51
267.15726308137499
0
SPLINE
5
228
100
AcDbEntity
8
0
100
AcDbSpline
70
0
71
3
72
8
73
4
74
0
42
0.000000001
43
0.0000000001
44
0.0000000001
40
0
40
0
40
0
40
0
40
1
40
1
40
1
40
1
10
-26.055242913247309
20
0.57182754028337324
30
0
10
-25.872239371719754
20
0.29088245291873815
30
0
10
-25.657801328536671
20
-0.020192706586021902
30
0
10
-25.40748980258109
20
-0.35881315696394245
30
0
0
ARC
5
229
100
AcDbEntity
8
0
100
AcDbCircle
10
9.4644305160583535
20
114.80168780201218
30
0
40
0.39999999999995683
210
0
220
0
230
1
100
AcDbArc
50
215.55278928564428
51
292.14447093057674
0
ARC
5
230
100
AcDbEntity
8
0
100
AcDbCircle
10
-51.666323676506671
20
71.112593805558376
30
0
40
80.207190455425078
210
0
220
-0
230
1
100
AcDbArc
50
32.545313698089018
51
33.914686301911303
0
ARC
5
231
100
AcDbEntity
8
0
100
AcDbCircle
10
-91.424683834512436
20
7.3554072307958478
30
0
40
0.40000000000000924
210
0
220
-0
230
1
100
AcDbArc
50
58.052789285628265
51
134.64447093056228
0
ARC
5
232
100
AcDbEntity
8
0
100
AcDbCircle
10
-51.666323676506209
20
71.112593805558561
30
0
40
74.7379134816955
210
0
220
-0
230
1
100
AcDbArc
50
52.427736918625591
51
53.407263081375291
0
SPLINE
5
233
100
AcDbEntity
8
0
100
AcDbSpline
70
0
71
3
72
8
73
4
74
0
42
0.000000001
43
0.0000000001
44
0.0000000001
40
0
40
0
40
0
40
0
40
1
40
1
40
1
40
1
10
-89.272256623062191
20
0.26778307130637657
30
0
10
-87.876507937935713
20
1.3472325561552787
30
0
10
-86.820897358251955
20
2.341411837057648
30
0
10
-86.042952320895424
20
3.171915470214159
30
0
0
ARC
5
234
100
AcDbEntity
8
0
100
AcDbCircle
10
-51.666323676507169
20
71.112593805558802
30
0
40
80.207190455425092
210
0
220
0
230
1
100
AcDbArc
50
240.67031369808905
51
242.03968630191142
0
ARC
5
235
100
AcDbEntity
8
0
100
AcDbCircle
10
-69.96180969267003
20
-1.7638854851917507
30
0
40
0.39999999999998248
210
-0
220
0
230
1
100
AcDbArc
50
-0.68447093057495723
51
75.907210714362819
0
SPLINE
5
236
100
AcDbEntity
8
0
100
AcDbSpline
70
0
71
3
72
8
73
4
74
0
42
0.000000001
43
0.0000000001
44
0.0000000001
40
0
40
0
40
0
40
0
40
1
40
1
40
1
40
1
10
20.240248881652612
20
46.069966296467456
30
0
10
21.376731933716009
20
46.012164581901381
30
0
10
22.826701904526182
20
46.029288315851964
30
0
10
24.580702471273014
20
46.221141369579371
30
0
0
ARC
5
237
100
AcDbEntity
8
0
100
AcDbCircle
10
-51.666323676506835
20
71.112593805558618
30
0
40
80.207190455425092
210
0
220
0
230
1
100
AcDbArc
50
229.4203136980889
51
230.78968630191102
0
ARC
5
238
100
AcDbEntity
8
0
100
AcDbCircle
10
-13.003709875458638
20
135.54013711161508
30
0
40
0.39999999999997898
210
0
220
0
230
1
100
AcDbArc
50
162.44052906942812
51
239.03221071436212
0
ARC
5
239
100
AcDbEntity
8
0
100
AcDbCircle
10
-51.666323676506103
20
71.112593805560095
30
0
40
74.737913481697518
210
0
220
0
230
1
100
AcDbArc
50
243.6777369186253
51
244.65726308137491
0
ARC
5
240
100
AcDbEntity
8
0
100
AcDbCircle
10
-51.666323676505698
20
71.112593805556429
30
0
40
74.737913481693411
210
-0
220
0
230
1
100
AcDbArc
50
294.30273691862493
51
295.28226308137397
0
SPLINE
5
241
100
AcDbEntity
8
0
100
AcDbSpline
70
0
71
3
72
8
73
4
74
0
42
0.000000001
43
0.0000000001
44
0.0000000001
40
0
40
0
40
0
40
0
40
1
40
1
40
1
40
1
10
-54.757247845153074
20
-4.9671969236791522
30
0
10
-54.482657021322495
20
-6.0715223491321595
30
0
10
-54.045366564601508
20
-7.4540863422176775
30
0
10
-53.352615150534106
20
-9.0768682316533393
30
0
0
ARC
5
242
100
AcDbEntity
8
0
100
AcDbCircle
10
-51.666323676510117
20
71.11259380555326
30
0
40
74.737913481689603
210
0
220
0
230
1
100
AcDbArc
50
232.42773691862499
51
233.407263081374
0
SPLINE
5
243
100
AcDbEntity
8
0
100
AcDbSpline
70
0
71
3
72
8
73
4
74
0
42
0.000000001
43
0.0000000001
44
0.0000000001
40
0
40
0
40
0
40
0
40
1
40
1
40
1
40
1
10
-28.16288779379548
20
-5.5736624758645341
30
0
10
-27.939230484395338
20
-3.8234330650944335
30
0
10
-27.89579199644994
20
-2.3740127546666132
30
0
10
-27.932956535949703
20
-1.2366677925562319
30
0
0
ARC
5
244
100
AcDbEntity
8
0
100
AcDbCircle
10
-77.016856024202994
20
0.3803059020050209
30
0
40
0.40000000000005731
210
-0
220
0
230
1
100
AcDbArc
50
-6.3094709305796197
51
70.282210714317685
0
ARC
5
245
100
AcDbEntity
8
0
100
AcDbCircle
10
-51.666323676506856
20
71.112593805560465
30
0
40
74.737913481697618
210
-0
220
0
230
1
100
AcDbArc
50
288.67773691862487
51
289.65726308137425
0
SPLINE
5
246
100
AcDbEntity
8
0
100
AcDbSpline
70
0
71
3
72
8
73
4
74
0
42
0.000000001
43
0.0000000001
44
0.0000000001
40
0
40
0
40
0
40
0
40
1
40
1
40
1
40
1
10
13.973009987904392
20
32.522876966573634
30
0
10
15.076379281687968
20
32.244469051152286
30
0
10
16.501829160855841
20
31.978388648837431
30
0
10
18.259555772571627
20
31.824366764550575
30
0
0
SPLINE
5
247
100
AcDbEntity
8
0
100
AcDbSpline
70
0
71
3
72
8
73
4
74
0
42
0.000000001
43
0.0000000001
44
0.0000000001
40
0
40
0
40
0
40
0
40
1
40
1
40
1
40
1
10
8.402476562692172
20
116.09777359821462
30
0
10
8.6182011249284383
20
116.35445112269605
30
0
10
8.8536334143464774
20
116.64995588801212
30
0
10
9.1050113812917406
20
116.9877854118474
30
0
0
SPLINE
5
248
100
AcDbEntity
8
0
100
AcDbSpline
70
0
71
3
72
8
73
4
74
0
42
0.000000001
43
0.0000000001
44
0.0000000001
40
0
40
0
40
0
40
0
40
1
40
1
40
1
40
1
10
12.577702888682367
20
30.242147021700085
30
0
10
12.300123966554086
20
30.558800793871658
30
0
10
12.041823048324654
20
30.834539918529241
30
0
10
11.806270560040726
20
31.073151451337672
30
0
0
ARC
5
249
100
AcDbEntity
8
0
100
AcDbCircle
10
-51.666323676506494
20
71.112593805558461
30
0
40
80.207190455425092
210
0
220
0
230
1
100
AcDbArc
50
246.29531369808899
51
247.6646863019109
0
ARC
5
250
100
AcDbEntity
8
0
100
AcDbCircle
10
-51.666323676506387
20
71.112593805558774
30
0
40
80.207190455425092
210
-0
220
0
230
1
100
AcDbArc
50
296.92031369808893
51
298.28968630191002
0
ARC
5
251
100
AcDbEntity
8
0
100
AcDbCircle
10
-0.23349920085182635
20
125.88823263194979
30
0
40
0.39999999999997066
210
0
220
0
230
1
100
AcDbArc
50
226.80278928564846
51
303.39447093057385
0
ARC
5
252
100
AcDbEntity
8
0
100
AcDbCircle
10
19.065964227046774
20
45.762061457862316
30
0
40
0.39999999999996894
210
0
220
-0
230
1
100
AcDbArc
50
83.690529069419583
51
160.28221071436033
0
ARC
5
253
100
AcDbEntity
8
0
100
AcDbCircle
10
-51.666323676506067
20
71.112593805560351
30
0
40
74.737913481697703
210
0
220
0
230
1
100
AcDbArc
50
260.55273691862493
51
261.53226308137437
0
SPLINE
5
254
100
AcDbEntity
8
0
100
AcDbSpline
70
0
71
3
72
8
73
4
74
0
42
0.000000001
43
0.0000000001
44
0.0000000001
40
0
40
0
40
0
40
0
40
1
40
1
40
1
40
1
10
-69.540287476244302
20
-2.9023356864472971
30
0
10
-69.486416040959668
20
-4.0390118207504235
30
0
10
-69.327252852365874
20
-5.480321370400504
30
0
10
-68.964401503842083
20
-7.2070710573114862
30
0
0
SPLINE
5
255
100
AcDbEntity
8
0
100
AcDbSpline
70
0
71
3
72
8
73
4
74
0
42
0.000000001
43
0.0000000001
44
0.0000000001
40
0
40
0
40
0
40
0
40
1
40
1
40
1
40
1
10
0.95219676282062715
20
126.14876079052415
30
0
10
0.58747444278771266
20
125.93829155593113
30
0
10
0.26664155877786838
20
125.73874785203895
30
0
10
-0.013339131126153814
20
125.5542722395401
30
0
0
SPLINE
5
256
100
AcDbEntity
8
0
100
AcDbSpline
70
0
71
3
72
8
73
4
74
0
42
0.000000001
43
0.0000000001
44
0.0000000001
40
0
40
0
40
0
40
0
40
1
40
1
40
1
40
1
10
9.8744849645706143
20
26.274917221872535
30
0
10
10.945252485908448
20
25.88970081375632
30
0
10
12.337757994160427
20
25.485183140466731
30
0
10
14.071923887159164
20
25.159615577689571
30
0
0
ARC
5
257
100
AcDbEntity
8
0
100
AcDbCircle
10
-51.666323676507162
20
71.112593805558689
30
0
40
80.207190455425007
210
0
220
0
230
1
100
AcDbArc
50
251.92031369808913
51
253.28968630191139
0
SPLINE
5
258
100
AcDbEntity
8
0
100
AcDbSpline
70
0
71
3
72
8
73
4
74
0
42
0.000000001
43
0.0000000001
44
0.0000000001
40
0
40
0
40
0
40
0
40
1
40
1
40
1
40
1
10
-64.84056834978486
20
-3.8815902816727545
30
0
10
-64.654243265455236
20
-3.5039626444559469
30
0
10
-64.498341013842676
20
-3.1598029182135408
30
0
10
-64.368034737178334
20
-2.8508681150789172
30
0
0
SPLINE
5
259
100
AcDbEntity
8
0
100
AcDbSpline
70
0
71
3
72
8
73
4
74
0
42
0.000000001
43
0.0000000001
44
0.0000000001
40
0
40
0
40
0
40
0
40
1
40
1
40
1
40
1
10
9.1050113812917406
20
116.9877854118474
30
0
10
9.7844679045500786
20
117.90062362250455
30
0
10
10.575790194675507
20
119.11574302884549
30
0
10
11.390740714057728
20
120.68072904582181
30
0
0
ARC
5
260
100
AcDbEntity
8
0
100
AcDbCircle
10
-90.328937477554888
20
6.6850504995020437
30
0
40
0.39999999999997871
210
-0
220
0
230
1
100
AcDbArc
50
-17.559470930569606
51
59.032210714419122
0
ARC
5
261
100
AcDbEntity
8
0
100
AcDbCircle
10
-103.09914815216169
20
16.336954979167324
30
0
40
0.3999999999999877
210
0
220
-0
230
1
100
AcDbArc
50
46.802789285642099
51
123.39447093057551
0
ARC
5
262
100
AcDbEntity
8
0
100
AcDbCircle
10
12.801991246116478
20
109.70718427391643
30
0
40
0.40000000000005165
210
0
220
0
230
1
100
AcDbArc
50
134.31552906942508
51
210.90721071446441
0
ARC
5
263
100
AcDbEntity
8
0
100
AcDbCircle
10
4.8877891687646402
20
120.58317458511968
30
0
40
0.3999999999999273
210
0
220
0
230
1
100
AcDbArc
50
221.17778928563729
51
297.76947093058038
0
ARC
5
264
100
AcDbEntity
8
0
100
AcDbCircle
10
-51.666323676501243
20
71.112593805556102
30
0
40
74.737913481689787
210
-0
220
0
230
1
100
AcDbArc
50
339.30273691862595
51
340.28226308137499
0
ARC
5
265
100
AcDbEntity
8
0
100
AcDbCircle
10
-62.73056782947134
20
-3.2062365384825449
30
0
40
0.39999999999998431
210
0
220
-0
230
1
100
AcDbArc
50
4.9405290694241373
51
81.532210714359948
0
ARC
5
266
100
AcDbEntity
8
0
100
AcDbCircle
10
-51.666323676506849
20
71.11259380555866
30
0
40
80.207190455425035
210
0
220
-0
230
1
100
AcDbArc
50
38.170313698088783
51
39.539686301911011
0
ARC
5
267
100
AcDbEntity
8
0
100
AcDbCircle
10
-51.666323676506778
20
71.112593805558561
30
0
40
80.207190455425049
210
0
220
0
230
1
100
AcDbArc
50
268.79531369808888
51
270.1646863019111
0
ARC
5
268
100
AcDbEntity
8
0
100
AcDbCircle
10
-19.576576580809785
20
3.1717800503717299
30
0
40
0.39999999999993385
210
0
220
-0
230
1
100
AcDbArc
50
38.690529069416492
51
115.28221071447956
0
SPLINE
5
269
100
AcDbEntity
8
0
100
AcDbSpline
70
0
71
3
72
8
73
4
74
0
42
0.000000001
43
0.0000000001
44
0.0000000001
40
0
40
0
40
0
40
0
40
1
40
1
40
1
40
1
10
-1.012498684387638
20
127.96220579446043
30
0
10
-0.52418362816759545
20
128.99005946678099
30
0
10
0.014875589771194964
20
130.33621001485159
30
0
10
0.50885343743563438
20
132.03011422359239
30
0
0
SPLINE
5
270
100
AcDbEntity
8
0
100
AcDbSpline
70
0
71
3
72
8
73
4
74
0
42
0.000000001
43
0.0000000001
44
0.0000000001
40
0
40
0
40
0
40
0
40
1
40
1
40
1
40
1
10
-82.147168021817095
20
-3.077105807998251
30
0
10
-80.863944799741574
20
-1.8660468727276229
30
0
10
-79.910863883615633
20
-0.77318690647737531
30
0
10
-79.218068455403284
20
0.12956957258096424
30
0
0
SPLINE
5
271
100
AcDbEntity
8
0
100
AcDbSpline
70
0
71
3
72
8
73
4
74
0
42
0.000000001
43
0.0000000001
44
0.0000000001
40
0
40
0
40
0
40
0
40
1
40
1
40
1
40
1
10
-57.426415295216529
20
-4.8117745761738249
30
0
10
-57.278001398205248
20
-4.417702267308723
30
0
10
-57.156583410729425
20
-4.0599186713425928
30
0
10
-57.057185500355168
20
-3.7396992251199093
30
0
0
SPLINE
5
272
100
AcDbEntity
8
0
100
AcDbSpline
70
0
71
3
72
8
73
4
74
0
42
0.000000001
43
0.0000000001
44
0.0000000001
40
0
40
0
40
0
40
0
40
1
40
1
40
1
40
1
10
-89.947575751397466
20
6.5643722751937545
30
0
10
-90.048653023028024
20
6.2446789479476994
30
0
10
-90.153079318642156
20
5.8815721069084903
30
0
10
-90.256040515491719
20
5.4732601411473976
30
0
0
SPLINE
5
273
100
AcDbEntity
8
0
100
AcDbSpline
70
0
71
3
72
8
73
4
74
0
42
0.000000001
43
0.0000000001
44
0.0000000001
40
0
40
0
40
0
40
0
40
1
40
1
40
1
40
1
10
-96.090073147091729
20
10.627408461301881
30
0
10
-96.221999129751211
20
10.319161849925077
30
0
10
-96.361513278402171
20
9.9680390344440699
30
0
10
-96.504000260192868
20
9.5717851644812768
30
0
0
SPLINE
5
274
100
AcDbEntity
8
0
100
AcDbSpline
70
0
71
3
72
8
73
4
74
0
42
0.000000001
43
0.0000000001
44
0.0000000001
40
0
40
0
40
0
40
0
40
1
40
1
40
1
40
1
10
-42.50362727344806
20
-4.4766472558934867
30
0
10
-42.434944801486239
20
-4.0611928209844592
30
0
10
-42.385659943542898
20
-3.6865964622159613
30
0
10
-42.350643651024377
20
-3.3531383725192212
30
0
0
SPLINE
5
275
100
AcDbEntity
8
0
100
AcDbSpline
70
0
71
3
72
8
73
4
74
0
42
0.000000001
43
0.0000000001
44
0.0000000001
40
0
40
0
40
0
40
0
40
1
40
1
40
1
40
1
10
-40.309173454640543
20
-3.0692254090734106
30
0
10
-40.18449594241153
20
-3.3804744352089209
30
0
10
-40.034866019138022
20
-3.7274071596474152
30
0
10
-39.855425731671048
20
-4.108354469224623
30
0
0
ARC
5
276
100
AcDbEntity
8
0
100
AcDbCircle
10
-51.666323676508405
20
71.112593805560266
30
0
40
74.73791348169361
210
0
220
0
230
1
100
AcDbArc
50
148.05273691862601
51
149.03226308137519
0
SPLINE
5
277
100
AcDbEntity
8
0
100
AcDbSpline
70
0
71
3
72
8
73
4
74
0
42
0.000000001
43
0.0000000001
44
0.0000000001
40
0
40
0
40
0
40
0
40
1
40
1
40
1
40
1
10
-47.634951021046504
20
-3.8252150606418809
30
0
10
-47.541381604588786
20
-4.1471858708556351
30
0
10
-47.426477543830103
20
-4.5071143165865868
30
0
10
-47.285240676294251
20
-4.9038154845821014
30
0
0
ARC
5
278
100
AcDbEntity
8
0
100
AcDbCircle
10
-54.030050372160076
20
146.213318425838
30
0
40
0.3999999999999746
210
-0
220
0
230
1
100
AcDbArc
50
271.80278928564019
51
348.39447093057601
0
SPLINE
5
279
100
AcDbEntity
8
0
100
AcDbSpline
70
0
71
3
72
8
73
4
74
0
42
0.000000001
43
0.0000000001
44
0.0000000001
40
0
40
0
40
0
40
0
40
1
40
1
40
1
40
1
10
24.457035827728916
20
72.822128072491552
30
0
10
24.050313978971719
20
72.931201475225066
30
0
10
23.682352164895487
20
73.016965876970858
30
0
10
23.353931963901605
20
73.084498164841804
30
0
0
SPLINE
5
280
100
AcDbEntity
8
0
100
AcDbSpline
70
0
71
3
72
8
73
4
74
0
42
0.000000001
43
0.0000000001
44
0.0000000001
40
0
40
0
40
0
40
0
40
1
40
1
40
1
40
1
10
-116.6415832388256
20
31.414936262194285
30
0
10
-117.40724178420221
20
30.573092002413617
30
0
10
-118.31385617057877
20
29.44138687609717
30
0
10
-119.27827793450136
20
27.963815813966775
30
0
0
SPLINE
5
281
100
AcDbEntity
8
0
100
AcDbSpline
70
0
71
3
72
8
73
4
74
0
42
0.000000001
43
0.0000000001
44
0.0000000001
40
0
40
0
40
0
40
0
40
1
40
1
40
1
40
1
10
27.044359400657054
20
55.691122725304758
30
0
10
25.606226191629524
20
56.713423295325576
30
0
10
24.348428360354916
20
57.434984626160826
30
0
10
23.327860410724544
20
57.938349132280479
30
0
0
SPLINE
5
282
100
AcDbEntity
8
0
100
AcDbSpline
70
0
71
3
72
8
73
4
74
0
42
0.000000001
43
0.0000000001
44
0.0000000001
40
0
40
0
40
0
40
0
40
1
40
1
40
1
40
1
10
4.1733200822109042
20
20.974171931172869
30
0
10
4.4671513943461347
20
20.812667756815454
30
0
10
4.8029086796127478
20
20.639409352645476
30
0
10
5.1832883123951046
20
20.458768813439434
30
0
0
SPLINE
5
283
100
AcDbEntity
8
0
100
AcDbSpline
70
0
71
3
72
8
73
4
74
0
42
0.000000001
43
0.0000000001
44
0.0000000001
40
0
40
0
40
0
40
0
40
1
40
1
40
1
40
1
10
-7.9530253043589436
20
8.7680999424393509
30
0
10
-8.0882966367637401
20
9.1668747361133569
30
0
10
-8.2214147736835468
20
9.5204719516682594
30
0
10
-8.3477242160640834
20
9.8310622977697886
30
0
0
SPLINE
5
284
100
AcDbEntity
8
0
100
AcDbSpline
70
0
71
3
72
8
73
4
74
0
42
0.000000001
43
0.0000000001
44
0.0000000001
40
0
40
0
40
0
40
0
40
1
40
1
40
1
40
1
10
15.151323923356921
20
26.743737949527517
30
0
10
14.213879577555977
20
28.238570274873247
30
0
10
13.327955471950183
20
29.386544411177063
30
0
10
12.577702888682367
20
30.242147021700085
30
0
0
SPLINE
5
285
100
AcDbEntity
8
0
100
AcDbSpline
70
0
71
3
72
8
73
4
74
0
42
0.000000001
43
0.0000000001
44
0.0000000001
40
0
40
0
40
0
40
0
40
1
40
1
40
1
40
1
10
-97.541515282795658
20
131.88392886335706
30
0
10
-98.454353493452743
20
132.56338538661541
30
0
10
-99.669472899793703
20
133.35470767674082
30
0
10
-101.23445891677
20
134.16965819612312
30
0
0
SPLINE
5
286
100
AcDbEntity
8
0
100
AcDbSpline
70
0
71
3
72
8
73
4
74
0
42
0.000000001
43
0.0000000001
44
0.0000000001
40
0
40
0
40
0
40
0
40
1
40
1
40
1
40
1
10
-92.536770460365318
20
6.8685672403695435
30
0
10
-92.22011668819377
20
7.1461461624977076
30
0
10
-91.944377563536193
20
7.4044470807272198
30
0
10
-91.705766030727631
20
7.6399995690110671
30
0
0
ARC
5
287
100
AcDbEntity
8
0
100
AcDbCircle
10
-1.2361731238588143
20
15.412450559602267
30
0
40
0.39999999999998231
210
0
220
-0
230
1
100
AcDbArc
50
55.565529069423157
51
132.15721071452194
0
ARC
5
288
100
AcDbEntity
8
0
100
AcDbCircle
10
-51.666323676506735
20
71.112593805558276
30
0
40
80.207190455425092
210
0
220
-0
230
1
100
AcDbArc
50
4.4203136980889948
51
5.7896863019112983
0
ARC
5
289
100
AcDbEntity
8
0
100
AcDbCircle
10
-51.666323676506714
20
71.112593805558276
30
0
40
80.207190455425092
210
0
220
-0
230
1
100
AcDbArc
50
10.045313698089101
51
11.414686301911068
0
ARC
5
290
100
AcDbEntity
8
0
100
AcDbCircle
10
-119.60713743169362
20
39.022846709861575
30
0
40
0.3999999999999912
210
-0
220
0
230
1
100
AcDbArc
50
-51.309470930571024
51
25.282210714357742
0
SPLINE
5
291
100
AcDbEntity
8
0
100
AcDbSpline
70
0
71
3
72
8
73
4
74
0
42
0.000000001
43
0.0000000001
44
0.0000000001
40
0
40
0
40
0
40
0
40
1
40
1
40
1
40
1
10
19.109923671152941
20
46.15963857902733
30
0
10
19.443193378229907
20
46.12287255298768
30
0
10
19.819695782773131
20
46.091291409906901
30
0
10
20.240248881652612
20
46.069966296467456
30
0
0
SPLINE
5
292
100
AcDbEntity
8
0
100
AcDbSpline
70
0
71
3
72
8
73
4
74
0
42
0.000000001
43
0.0000000001
44
0.0000000001
40
0
40
0
40
0
40
0
40
1
40
1
40
1
40
1
10
-122.20708994178196
20
45.501513042299194
30
0
10
-122.4880350291466
20
45.31850950077164
30
0
10
-122.79911018865134
20
45.104071457588468
30
0
10
-123.13773063902927
20
44.853759931632986
30
0
0
SPLINE
5
293
100
AcDbEntity
8
0
100
AcDbSpline
70
0
71
3
72
8
73
4
74
0
42
0.000000001
43
0.0000000001
44
0.0000000001
40
0
40
0
40
0
40
0
40
1
40
1
40
1
40
1
10
20.682937921608023
20
94.845960946115611
30
0
10
20.262067041599245
20
94.83227256414807
30
0
10
19.885053448019665
20
94.807530303107441
30
0
10
19.551171322230509
20
94.776819321286041
30
0
0
ARC
5
294
100
AcDbEntity
8
0
100
AcDbCircle
10
-51.666323676506195
20
71.11259380555866
30
0
40
74.73791348169523
210
0
220
-0
230
1
100
AcDbArc
50
7.4277369186253015
51
8.4072630813745306
0
ARC
5
295
100
AcDbEntity
8
0
100
AcDbCircle
10
12.76121962954975
20
32.449980004510437
30
0
40
0.3999999999999842
210
0
220
-0
230
1
100
AcDbArc
50
72.440529069421331
51
149.03221071436136
0
ARC
5
296
100
AcDbEntity
8
0
100
AcDbCircle
10
-51.666323676507062
20
71.112593805557651
30
0
40
74.737913481696708
210
0
220
0
230
1
100
AcDbArc
50
103.05273691862502
51
104.03226308137398
0
ARC
5
297
100
AcDbEntity
8
0
100
AcDbCircle
10
3.9805606741833999
20
20.623681117289134
30
0
40
0.39999999999998714
210
0
220
-0
230
1
100
AcDbArc
50
61.190529069422979
51
137.78221071436332
0
ARC
5
298
100
AcDbEntity
8
0
100
AcDbCircle
10
13.452349283008221
20
108.59945116083065
30
0
40
0.4000000000000053
210
0
220
0
230
1
100
AcDbArc
50
209.92778928564505
51
286.51947093057686
0
SPLINE
5
299
100
AcDbEntity
8
0
100
AcDbSpline
70
0
71
3
72
8
73
4
74
0
42
0.000000001
43
0.0000000001
44
0.0000000001
40
0
40
0
40
0
40
0
40
1
40
1
40
1
40
1
10
-128.35257995792983
20
47.609157922847274
30
0
10
-126.60235054715976
20
47.385500613447135
30
0
10
-125.15293023673193
20
47.342062125501741
30
0
10
-124.01558527462159
20
47.379226665001497
30
0
0
ARC
5
300
100
AcDbEntity
8
0
100
AcDbCircle
10
-51.666323676508512
20
71.112593805559214
30
0
40
74.737913481697703
210
-0
220
0
230
1
100
AcDbArc
50
333.67773691862544
51
334.65726308137505
0
SPLINE
5
301
100
AcDbEntity
8
0
100
AcDbSpline
70
0
71
3
72
8
73
4
74
0
42
0.000000001
43
0.0000000001
44
0.0000000001
40
0
40
0
40
0
40
0
40
1
40
1
40
1
40
1
10
-118.48397127637043
20
115.48144966158961
30
0
10
-117.54652693056954
20
113.98661733624387
30
0
10
-116.66060282496373
20
112.83864319994002
30
0
10
-115.91035024169591
20
111.98304058941704
30
0
0
ARC
5
302
100
AcDbEntity
8
0
100
AcDbCircle
10
-51.666323676505328
20
71.112593805557452
30
0
40
74.737913481694008
210
-0
220
0
230
1
100
AcDbArc
50
316.8027369186251
51
317.78226308137454
0
SPLINE
5
303
100
AcDbEntity
8
0
100
AcDbSpline
70
0
71
3
72
8
73
4
74
0
42
0.000000001
43
0.0000000001
44
0.0000000001
40
0
40
0
40
0
40
0
40
1
40
1
40
1
40
1
10
22.034744731079655
20
90.239561291315127
30
0
10
23.011808765797642
20
90.822897076172183
30
0
10
24.207901298416434
20
91.642695095155702
30
0
10
25.559711623863013
20
92.776685582941553
30
0
0
SPLINE
5
304
100
AcDbEntity
8
0
100
AcDbSpline
70
0
71
3
72
8
73
4
74
0
42
0.000000001
43
0.0000000001
44
0.0000000001
40
0
40
0
40
0
40
0
40
1
40
1
40
1
40
1
10
-70.239875899692464
20
143.82401189767785
30
0
10
-70.394460795094446
20
144.12154164146745
30
0
10
-70.577375562925567
20
144.45213749282436
30
0
10
-70.793291162263344
20
144.81366221314499
30
0
0
ARC
5
305
100
AcDbEntity
8
0
100
AcDbCircle
10
-51.666323676508419
20
71.112593805560238
30
0
40
74.73791348169361
210
0
220
0
230
1
100
AcDbArc
50
114.3027369186247
51
115.28226308137408
0
ARC
5
306
100
AcDbEntity
8
0
100
AcDbCircle
10
-51.666323676506714
20
71.112593805558802
30
0
40
80.207190455425064
210
-0
220
0
230
1
100
AcDbArc
50
347.54531369808859
51
348.91468630191093
0
SPLINE
5
307
100
AcDbEntity
8
0
100
AcDbSpline
70
0
71
3
72
8
73
4
74
0
42
0.000000001
43
0.0000000001
44
0.0000000001
40
0
40
0
40
0
40
0
40
1
40
1
40
1
40
1
10
28.540535455068266
20
71.343134475514844
30
0
10
26.93059462499237
20
72.065225955887868
30
0
10
25.556195393968089
20
72.527538504144644
30
0
10
24.457035827728916
20
72.822128072491552
30
0
0
SPLINE
5
308
100
AcDbEntity
8
0
100
AcDbSpline
70
0
71
3
72
8
73
4
74
0
42
0.000000001
43
0.0000000001
44
0.0000000001
40
0
40
0
40
0
40
0
40
1
40
1
40
1
40
1
10
-70.793291162263344
20
144.81366221314499
30
0
10
-71.376626947120386
20
145.79072624786295
30
0
10
-72.196424966103919
20
146.98681878048174
30
0
10
-73.330415453889771
20
148.33862910592836
30
0
0
ARC
5
309
100
AcDbEntity
8
0
100
AcDbCircle
10
-51.666323676505357
20
71.112593805556671
30
0
40
74.737913481693482
210
-0
220
0
230
1
100
AcDbArc
50
311.17773691862493
51
312.15726308137397
0
ARC
5
310
100
AcDbEntity
8
0
100
AcDbCircle
10
-51.666323676506224
20
71.112593805559555
30
0
40
74.737913481694918
210
0
220
-0
230
1
100
AcDbArc
50
24.302736918624817
51
25.28226308137361
0
SPLINE
5
311
100
AcDbEntity
8
0
100
AcDbSpline
70
0
71
3
72
8
73
4
74
0
42
0.000000001
43
0.0000000001
44
0.0000000001
40
0
40
0
40
0
40
0
40
1
40
1
40
1
40
1
10
23.305782776707268
20
67.779364572168419
30
0
10
23.635374616089781
20
67.840924768224028
30
0
10
24.004832475423829
20
67.919996377549879
30
0
10
24.413467052730947
20
68.021669636912279
30
0
0
SPLINE
5
312
100
AcDbEntity
8
0
100
AcDbSpline
70
0
71
3
72
8
73
4
74
0
42
0.000000001
43
0.0000000001
44
0.0000000001
40
0
40
0
40
0
40
0
40
1
40
1
40
1
40
1
10
-47.285240676294251
20
-4.9038154845821014
30
0
10
-46.903729262137581
20
-5.9759086739560709
30
0
10
-46.333029509564518
20
-7.308953283460502
30
0
10
-45.484553442722977
20
-8.85601952198102
30
0
0
ARC
5
313
100
AcDbEntity
8
0
100
AcDbCircle
10
-51.666323676506387
20
71.112593805558674
30
0
40
80.207190455425078
210
-0
220
0
230
1
100
AcDbArc
50
285.67031369808893
51
287.03968630191099
0
SPLINE
5
314
100
AcDbEntity
8
0
100
AcDbSpline
70
0
71
3
72
8
73
4
74
0
42
0.000000001
43
0.0000000001
44
0.0000000001
40
0
40
0
40
0
40
0
40
1
40
1
40
1
40
1
10
16.323299380981606
20
39.342508510504366
30
0
10
16.651360602593467
20
39.273253379283034
30
0
10
17.0229545518172
20
39.20492061901767
30
0
10
17.439392345940121
20
39.142476779719409
30
0
0
ARC
5
315
100
AcDbEntity
8
0
100
AcDbCircle
10
-27.603788650815094
20
-0.068165185338245754
30
0
40
0.39999999999998764
210
0
220
0
230
1
100
AcDbArc
50
108.67778928563804
51
185.26947093058084
0
SPLINE
5
316
100
AcDbEntity
8
0
100
AcDbSpline
70
0
71
3
72
8
73
4
74
0
42
0.000000001
43
0.0000000001
44
0.0000000001
40
0
40
0
40
0
40
0
40
1
40
1
40
1
40
1
10
-82.376875894095519
20
140.78719715650476
30
0
10
-82.322000865321996
20
140.36969458087512
30
0
10
-82.260423950723009
20
139.99692157646945
30
0
10
-82.19713467949633
20
139.66765738699002
30
0
0
ARC
5
317
100
AcDbEntity
8
0
100
AcDbCircle
10
-51.666323676506885
20
71.112593805558376
30
0
40
80.207190455425078
210
0
220
0
230
1
100
AcDbArc
50
145.04531369808902
51
146.41468630191002
0
SPLINE
5
318
100
AcDbEntity
8
0
100
AcDbSpline
70
0
71
3
72
8
73
4
74
0
42
0.000000001
43
0.0000000001
44
0.0000000001
40
0
40
0
40
0
40
0
40
1
40
1
40
1
40
1
10
-18.528510339156789
20
2.5591570073944423
30
0
10
-17.765767450673057
20
1.7146701502430099
30
0
10
-16.728375543400592
20
0.70149485976194947
30
0
10
-15.352449253166842
20
-0.40311023990780792
30
0
0
ARC
5
319
100
AcDbEntity
8
0
100
AcDbCircle
10
-48.019086936841013
20
-3.9367480073288483
30
0
40
0.39999999999995989
210
0
220
-0
230
1
100
AcDbArc
50
16.190529069416268
51
92.782210714444162
0
SPLINE
5
320
100
AcDbEntity
8
0
100
AcDbSpline
70
0
71
3
72
8
73
4
74
0
42
0.000000001
43
0.0000000001
44
0.0000000001
40
0
40
0
40
0
40
0
40
1
40
1
40
1
40
1
10
24.413467052730947
20
68.021669636912279
30
0
10
25.517792478183953
20
68.296260460742843
30
0
10
26.900356471269472
20
68.733550917463816
30
0
10
28.523138360705126
20
69.426302331531232
30
0
0
ARC
5
321
100
AcDbEntity
8
0
100
AcDbCircle
10
-51.666323676508554
20
71.112593805559243
30
0
40
74.737913481697703
210
-0
220
0
230
1
100
AcDbArc
50
350.55273691862504
51
351.53226308137437
0
SPLINE
5
322
100
AcDbEntity
8
0
100
AcDbSpline
70
0
71
3
72
8
73
4
74
0
42
0.000000001
43
0.0000000001
44
0.0000000001
40
0
40
0
40
0
40
0
40
1
40
1
40
1
40
1
10
28.131720568386442
20
79.203671326068715
30
0
10
26.458754701486345
20
79.76448394233222
30
0
10
25.045659024502449
20
80.08985564701014
30
0
10
23.922917384945276
20
80.275290208617321
30
0
0
SPLINE
5
323
100
AcDbEntity
8
0
100
AcDbSpline
70
0
71
3
72
8
73
4
74
0
42
0.000000001
43
0.0000000001
44
0.0000000001
40
0
40
0
40
0
40
0
40
1
40
1
40
1
40
1
10
-106.70249066147235
20
123.73111424488596
30
0
10
-106.49202142687935
20
123.36639192485305
30
0
10
-106.29247772298717
20
123.04555904084317
30
0
10
-106.10800211048829
20
122.76557835093918
30
0
0
SPLINE
5
324
100
AcDbEntity
8
0
100
AcDbSpline
70
0
71
3
72
8
73
4
74
0
42
0.000000001
43
0.0000000001
44
0.0000000001
40
0
40
0
40
0
40
0
40
1
40
1
40
1
40
1
10
-19.264363081364738
20
3.4218255077674291
30
0
10
-19.054703317856415
20
3.1601707315993299
30
0
10
-18.810807154900886
20
2.8716120877837552
30
0
10
-18.528510339156789
20
2.5591570073944423
30
0
0
SPLINE
5
325
100
AcDbEntity
8
0
100
AcDbSpline
70
0
71
3
72
8
73
4
74
0
42
0.000000001
43
0.0000000001
44
0.0000000001
40
0
40
0
40
0
40
0
40
1
40
1
40
1
40
1
10
-32.539356190750176
20
-2.5884746020278566
30
0
10
-31.956020405893245
20
-3.5655386367458473
30
0
10
-31.136222386909726
20
-4.7616311693646303
30
0
10
-30.002231899123867
20
-6.1134414948112203
30
0
0
ARC
5
326
100
AcDbEntity
8
0
100
AcDbCircle
10
-51.666323676506863
20
71.112593805559555
30
0
40
74.737913481694804
210
0
220
0
230
1
100
AcDbArc
50
97.4277369186253
51
98.407263081374225
0
ARC
5
327
100
AcDbEntity
8
0
100
AcDbCircle
10
-2.1957428969455939
20
14.558480960287152
30
0
40
0.39999999999996488
210
0
220
0
230
1
100
AcDbArc
50
131.17778928573583
51
207.76947093057618
0
ARC
5
328
100
AcDbEntity
8
0
100
AcDbCircle
10
16.240582241137133
20
38.951154610848363
30
0
40
0.40000000000001584
210
0
220
-0
230
1
100
AcDbArc
50
78.065529069426447
51
154.6572107143248
0
ARC
5
329
100
AcDbEntity
8
0
100
AcDbCircle
10
-102.09647422915474
20
126.81273705151483
30
0
40
0.39999999999997987
210
0
220
0
230
1
100
AcDbArc
50
235.56552906942127
51
312.15721071436531
0
ARC
5
330
100
AcDbEntity
8
0
100
AcDbCircle
10
-51.666323676506664
20
71.112593805558305
30
0
40
80.207190455425049
210
0
220
-0
230
1
100
AcDbArc
50
21.295313698089064
51
22.664686301911324
0
SPLINE
5
331
100
AcDbEntity
8
0
100
AcDbSpline
70
0
71
3
72
8
73
4
74
0
42
0.000000001
43
0.0000000001
44
0.0000000001
40
0
40
0
40
0
40
0
40
1
40
1
40
1
40
1
10
13.308935885812092
20
110.81025134892286
30
0
10
14.074594431188673
20
111.65209560870352
30
0
10
14.981208817565257
20
112.78380073501992
30
0
10
15.94563058148783
20
114.26137179715035
30
0
0
ARC
5
332
100
AcDbEntity
8
0
100
AcDbCircle
10
-68.636056576314516
20
144.30913885853198
30
0
40
0.39999999999992181
210
-0
220
0
230
1
100
AcDbArc
50
283.05278928561364
51
359.64447093057163
0
ARC
5
333
100
AcDbEntity
8
0
100
AcDbCircle
10
-51.666323676506785
20
71.112593805558561
30
0
40
80.207190455425092
210
-0
220
0
230
1
100
AcDbArc
50
313.79531369808893
51
315.16468630191116
0
ARC
5
334
100
AcDbEntity
8
0
100
AcDbCircle
10
-96.457769977854213
20
10.784885572804574
30
0
40
0.39999999999998992
210
-0
220
0
230
1
100
AcDbArc
50
-23.184470930576612
51
53.407210714411974
0
SPLINE
5
335
100
AcDbEntity
8
0
100
AcDbSpline
70
0
71
3
72
8
73
4
74
0
42
0.000000001
43
0.0000000001
44
0.0000000001
40
0
40
0
40
0
40
0
40
1
40
1
40
1
40
1
10
14.662616908988737
20
108.50457169422789
30
0
10
14.252503415771562
20
108.40903849517353
30
0
10
13.887561008350639
20
108.31121994636507
30
0
10
13.566085749319857
20
108.21596189601226
30
0
0
ARC
5
336
100
AcDbEntity
8
0
100
AcDbCircle
10
-107.31320802719694
20
121.60150649382797
30
0
40
0.39999999999997876
210
0
220
0
230
1
100
AcDbArc
50
241.19052906942161
51
317.78221071429965
0
SPLINE
5
337
100
AcDbEntity
8
0
100
AcDbSpline
70
0
71
3
72
8
73
4
74
0
42
0.000000001
43
0.0000000001
44
0.0000000001
40
0
40
0
40
0
40
0
40
1
40
1
40
1
40
1
10
-1.0099877977787817
20
15.742359938471868
30
0
10
-0.73340154104568289
20
15.552832945902786
30
0
10
-0.41624331219417554
20
15.347498859358613
30
0
10
-0.055401180392509186
20
15.130444429877926
30
0
0
SPLINE
5
338
100
AcDbEntity
8
0
100
AcDbSpline
70
0
71
3
72
8
73
4
74
0
42
0.000000001
43
0.0000000001
44
0.0000000001
40
0
40
0
40
0
40
0
40
1
40
1
40
1
40
1
10
-76.708951185597769
20
-0.79397875260082296
30
0
10
-76.766752900163837
20
-1.9304618046642124
30
0
10
-76.749629166213239
20
-3.380431775474384
30
0
10
-76.55777611248584
20
-5.1344323422212241
30
0
0
SPLINE
5
339
100
AcDbEntity
8
0
100
AcDbSpline
70
0
71
3
72
8
73
4
74
0
42
0.000000001
43
0.0000000001
44
0.0000000001
40
0
40
0
40
0
40
0
40
1
40
1
40
1
40
1
10
-0.60542055177455056
20
9.2581067182054042
30
0
10
-1.0685719396630193
20
10.960697794850049
30
0
10
-1.5831091490611908
20
12.316410743324116
30
0
10
-2.0526877803237875
20
13.352958221684668
30
0
0
SPLINE
5
340
100
AcDbEntity
8
0
100
AcDbSpline
70
0
71
3
72
8
73
4
74
0
42
0.000000001
43
0.0000000001
44
0.0000000001
40
0
40
0
40
0
40
0
40
1
40
1
40
1
40
1
10
4.8854734420387533
20
127.99042466623483
30
0
10
3.2364775813741926
20
127.36262037038784
30
0
10
1.9377262271593061
20
126.71767769197302
30
0
10
0.95219676282062715
20
126.14876079052415
30
0
0
SPLINE
5
341
100
AcDbEntity
8
0
100
AcDbSpline
70
0
71
3
72
8
73
4
74
0
42
0.000000001
43
0.0000000001
44
0.0000000001
40
0
40
0
40
0
40
0
40
1
40
1
40
1
40
1
10
16.88711312165735
20
104.25040714290856
30
0
10
17.731599978808784
20
105.01315003139226
30
0
10
18.744775269289843
20
106.05054193866476
30
0
10
19.849380368959601
20
107.4264682288985
30
0
0
ARC
5
342
100
AcDbEntity
8
0
100
AcDbCircle
10
18.62225772200145
20
44.556589449329245
30
0
40
0.40000000000001762
210
0
220
0
230
1
100
AcDbArc
50
159.3027892855624
51
235.89447093057521
0
SPLINE
5
343
100
AcDbEntity
8
0
100
AcDbSpline
70
0
71
3
72
8
73
4
74
0
42
0.000000001
43
0.0000000001
44
0.0000000001
40
0
40
0
40
0
40
0
40
1
40
1
40
1
40
1
10
-35.792630804998154
20
-7.5081367645260935
30
0
10
-35.398497984910136
20
-5.7882574366364139
30
0
10
-35.213200631193395
20
-4.3500741975387527
30
0
10
-35.138706912523084
20
-3.2145631004055746
30
0
0
SPLINE
5
344
100
AcDbEntity
8
0
100
AcDbSpline
70
0
71
3
72
8
73
4
74
0
42
0.000000001
43
0.0000000001
44
0.0000000001
40
0
40
0
40
0
40
0
40
1
40
1
40
1
40
1
10
-98.636983855247706
20
11.183924105704808
30
0
10
-98.294647365376619
20
11.429128912230055
30
0
10
-97.994918082622092
20
11.659158880461577
30
0
10
-97.734367348264158
20
11.870189099035803
30
0
0
ARC
5
345
100
AcDbEntity
8
0
100
AcDbCircle
10
-13.071733208148913
20
6.6442788829353141
30
0
40
0.39999999999998564
210
0
220
-0
230
1
100
AcDbArc
50
44.315529069424251
51
120.90721071436215
0
SPLINE
5
346
100
AcDbEntity
8
0
100
AcDbSpline
70
0
71
3
72
8
73
4
74
0
42
0.000000001
43
0.0000000001
44
0.0000000001
40
0
40
0
40
0
40
0
40
1
40
1
40
1
40
1
10
17.439392345940121
20
39.142476779719409
30
0
10
18.564737362707461
20
38.97355857741146
30
0
10
20.009403751224745
20
38.848477945800099
30
0
10
21.773763213515384
20
38.867485054946101
30
0
0
ARC
5
347
100
AcDbEntity
8
0
100
AcDbCircle
10
-51.666323676506387
20
71.112593805556514
30
0
40
74.737913481693795
210
-0
220
0
230
1
100
AcDbArc
50
271.80273691862499
51
272.78226308137403
0
ARC
5
348
100
AcDbEntity
8
0
100
AcDbCircle
10
23.37912675780689
20
67.386146235316701
30
0
40
0.39999999999998032
210
0
220
0
230
1
100
AcDbArc
50
100.56552906942514
51
177.1572107143669
0
ARC
5
349
100
AcDbEntity
8
0
100
AcDbCircle
10
-115.42351025126948
20
110.87095396356415
30
0
40
0.39999999999995617
210
-0
220
0
230
1
100
AcDbArc
50
-31.947210714405923
51
44.644470930572396
0
SPLINE
5
350
100
AcDbEntity
8
0
100
AcDbSpline
70
0
71
3
72
8
73
4
74
0
42
0.000000001
43
0.0000000001
44
0.0000000001
40
0
40
0
40
0
40
0
40
1
40
1
40
1
40
1
10
-43.575246155996638
20
-8.6854504393346428
30
0
10
-43.014433539733133
20
-7.0124845724345519
30
0
10
-42.689061835055227
20
-5.5993888954506534
30
0
10
-42.50362727344806
20
-4.4766472558934867
30
0
0
SPLINE
5
351
100
AcDbEntity
8
0
100
AcDbSpline
70
0
71
3
72
8
73
4
74
0
42
0.000000001
43
0.0000000001
44
0.0000000001
40
0
40
0
40
0
40
0
40
1
40
1
40
1
40
1
10
-74.728532227002319
20
-5.7075073238091605
30
0
10
-73.570192609087414
20
-4.3765020976956084
30
0
10
-72.728820046748694
20
-3.1954862849905812
30
0
10
-72.127846226374601
20
-2.2291709984204355
30
0
0
SPLINE
5
352
100
AcDbEntity
8
0
100
AcDbSpline
70
0
71
3
72
8
73
4
74
0
42
0.000000001
43
0.0000000001
44
0.0000000001
40
0
40
0
40
0
40
0
40
1
40
1
40
1
40
1
10
-79.218068455403284
20
0.12956957258096424
30
0
10
-78.961652057976167
20
0.46359097993511444
30
0
10
-78.741603192595093
20
0.77072275307108806
30
0
10
-78.553530524273071
20
1.0482999671146658
30
0
0
ARC
5
353
100
AcDbEntity
8
0
100
AcDbCircle
10
-51.666323676507574
20
71.112593805556486
30
0
40
74.737913481693596
210
0
220
0
230
1
100
AcDbArc
50
249.30273691862499
51
250.28226308137494
0
ARC
5
354
100
AcDbEntity
8
0
100
AcDbCircle
10
-51.666323676506998
20
71.112593805558475
30
0
40
80.207190455425049
210
-0
220
0
230
1
100
AcDbArc
50
291.2953136980891
51
292.66468630191127
0
SPLINE
5
355
100
AcDbEntity
8
0
100
AcDbSpline
70
0
71
3
72
8
73
4
74
0
42
0.000000001
43
0.0000000001
44
0.0000000001
40
0
40
0
40
0
40
0
40
1
40
1
40
1
40
1
10
-13.653753291688208
20
0.48513531035253021
30
0
10
-13.775846314123282
20
2.2453679302768044
30
0
10
-14.016010359641502
20
3.6754124644631716
30
0
10
-14.274345787837424
20
4.783653220063055
30
0
0
SPLINE
5
356
100
AcDbEntity
8
0
100
AcDbSpline
70
0
71
3
72
8
73
4
74
0
42
0.000000001
43
0.0000000001
44
0.0000000001
40
0
40
0
40
0
40
0
40
1
40
1
40
1
40
1
10
25.15377745286095
20
48.050385255063006
30
0
10
23.822772226747404
20
49.208724872977911
30
0
10
22.641756414042273
20
50.050097435316623
30
0
10
21.675441127472229
20
50.651071255690624
30
0
0
SPLINE
5
357
100
AcDbEntity
8
0
100
AcDbSpline
70
0
71
3
72
8
73
4
74
0
42
0.000000001
43
0.0000000001
44
0.0000000001
40
0
40
0
40
0
40
0
40
1
40
1
40
1
40
1
10
-104.28484411583418
20
16.07642682059296
30
0
10
-103.92012179580122
20
16.286896055185963
30
0
10
-103.59928891179139
20
16.486439759078152
30
0
10
-103.31930822188738
20
16.670915371577028
30
0
0
SPLINE
5
358
100
AcDbEntity
8
0
100
AcDbSpline
70
0
71
3
72
8
73
4
74
0
42
0.000000001
43
0.0000000001
44
0.0000000001
40
0
40
0
40
0
40
0
40
1
40
1
40
1
40
1
10
-60.829020079565481
20
146.70183486701058
30
0
10
-60.897702551527303
20
146.28638043210159
30
0
10
-60.946987409470637
20
145.91178407333305
30
0
10
-60.982003701989179
20
145.57832598363632
30
0
0
ARC
5
359
100
AcDbEntity
8
0
100
AcDbCircle
10
-51.666323676506998
20
71.112593805558163
30
0
40
80.207190455425078
210
-0
220
0
230
1
100
AcDbArc
50
330.67031369808922
51
332.03968630191139
0
ARC
5
360
100
AcDbEntity
8
0
100
AcDbCircle
10
-6.9385768396476291
20
10.737642830169635
30
0
40
0.3999999999999817
210
0
220
-0
230
1
100
AcDbArc
50
49.940529069424862
51
126.53221071436231
0
ARC
5
361
100
AcDbEntity
8
0
100
AcDbCircle
10
-51.666323676506636
20
71.112593805558717
30
0
40
80.207190455425092
210
-0
220
0
230
1
100
AcDbArc
50
319.42031369808899
51
320.78968630191099
0
ARC
5
362
100
AcDbEntity
8
0
100
AcDbCircle
10
22.652506667534343
20
60.048349652593899
30
0
40
0.39999999999998431
210
0
220
0
230
1
100
AcDbArc
50
94.940529069425494
51
171.53221071436013
0
ARC
5
363
100
AcDbEntity
8
0
100
AcDbCircle
10
-26.39046176004225
20
0.35358839449723956
30
0
40
0.39999999999998281
210
0
220
-0
230
1
100
AcDbArc
50
33.065529069427072
51
109.65721071436309
0
ARC
5
364
100
AcDbEntity
8
0
100
AcDbCircle
10
-51.66632367650611
20
71.112593805559158
30
0
40
74.737913481695003
210
0
220
-0
230
1
100
AcDbArc
50
41.177736918625293
51
42.157263081374893
0
ARC
5
365
100
AcDbEntity
8
0
100
AcDbCircle
10
-34.696590776698912
20
-2.083951247414833
30
0
40
0.39999999999998731
210
0
220
0
230
1
100
AcDbArc
50
103.05278928563823
51
179.64447093057774
0
ARC
5
366
100
AcDbEntity
8
0
100
AcDbCircle
10
-51.666323676506536
20
71.112593805556529
30
0
40
74.737913481693838
210
-0
220
0
230
1
100
AcDbArc
50
283.0527369186255
51
284.03226308137494
0
SPLINE
5
367
100
AcDbEntity
8
0
100
AcDbSpline
70
0
71
3
72
8
73
4
74
0
42
0.000000001
43
0.0000000001
44
0.0000000001
40
0
40
0
40
0
40
0
40
1
40
1
40
1
40
1
10
-55.697696331967059
20
146.050402671759
30
0
10
-55.791265748424756
20
146.37237348197272
30
0
10
-55.906169809183439
20
146.7323019277037
30
0
10
-56.047406676719298
20
147.1290030956992
30
0
0
SPLINE
5
368
100
AcDbEntity
8
0
100
AcDbSpline
70
0
71
3
72
8
73
4
74
0
42
0.000000001
43
0.0000000001
44
0.0000000001
40
0
40
0
40
0
40
0
40
1
40
1
40
1
40
1
10
12.881897853858037
20
32.831341730667774
30
0
10
13.201591181104092
20
32.730264459037329
30
0
10
13.564698022143302
20
32.625838163423175
30
0
10
13.973009987904392
20
32.522876966573634
30
0
0
SPLINE
5
369
100
AcDbEntity
8
0
100
AcDbSpline
70
0
71
3
72
8
73
4
74
0
42
0.000000001
43
0.0000000001
44
0.0000000001
40
0
40
0
40
0
40
0
40
1
40
1
40
1
40
1
10
-4.6956634977658602
20
131.0412635054123
30
0
10
-5.0379999876368009
20
130.79605869888707
30
0
10
-5.3377292703914332
20
130.56602873065555
30
0
10
-5.5982800047493608
20
130.35499851208132
30
0
0
ARC
5
370
100
AcDbEntity
8
0
100
AcDbCircle
10
-40.680527510518765
20
-3.2178731981011182
30
0
40
0.39999999999998304
210
0
220
-0
230
1
100
AcDbArc
50
21.815529069424823
51
98.407210714359906
0
SPLINE
5
371
100
AcDbEntity
8
0
100
AcDbSpline
70
0
71
3
72
8
73
4
74
0
42
0.000000001
43
0.0000000001
44
0.0000000001
40
0
40
0
40
0
40
0
40
1
40
1
40
1
40
1
10
6.093311907367128
20
120.72622970174154
30
0
10
5.7097162324918251
20
120.55252297286415
30
0
10
5.3708695432847016
20
120.38538724826132
30
0
10
5.074155264931365
20
120.22924284283096
30
0
0
ARC
5
372
100
AcDbEntity
8
0
100
AcDbCircle
10
-55.313560416172535
20
146.16193561844597
30
0
40
0.39999999999995733
210
0
220
0
230
1
100
AcDbArc
50
196.19052906941522
51
272.78221071436127
0
SPLINE
5
373
100
AcDbEntity
8
0
100
AcDbSpline
70
0
71
3
72
8
73
4
74
0
42
0.000000001
43
0.0000000001
44
0.0000000001
40
0
40
0
40
0
40
0
40
1
40
1
40
1
40
1
10
-0.055401180392509186
20
15.130444429877926
30
0
10
0.91963985016420557
20
14.543733466485607
30
0
10
2.2064712723949285
20
13.875324138846052
30
0
10
3.8438005733652392
20
13.217693283003008
30
0
0
ARC
5
374
100
AcDbEntity
8
0
100
AcDbCircle
10
-56.675137234922836
20
-3.8581860297866601
30
0
40
0.39999999999997432
210
0
220
-0
230
1
100
AcDbArc
50
86.177789285563406
51
162.7694709305851
0
ARC
5
375
100
AcDbEntity
8
0
100
AcDbCircle
10
16.27449007868006
20
103.20234090125555
30
0
40
0.40000000000001634
210
0
220
0
230
1
100
AcDbArc
50
128.69052906940786
51
205.28221071446424
0
ARC
5
376
100
AcDbEntity
8
0
100
AcDbCircle
10
21.22942548751346
20
89.331150175343367
30
0
40
0.39999999999997349
210
0
220
0
230
1
100
AcDbArc
50
117.44052906942889
51
194.03221071436505
0
SPLINE
5
377
100
AcDbEntity
8
0
100
AcDbSpline
70
0
71
3
72
8
73
4
74
0
42
0.000000001
43
0.0000000001
44
0.0000000001
40
0
40
0
40
0
40
0
40
1
40
1
40
1
40
1
10
3.3698433084588331
20
18.494073366231166
30
0
10
3.15937407386583
20
18.858795686264081
30
0
10
2.9598303699736395
20
19.179628570273927
30
0
10
2.7753547574747648
20
19.459609260177949
30
0
0
SPLINE
5
378
100
AcDbEntity
8
0
100
AcDbSpline
70
0
71
3
72
8
73
4
74
0
42
0.000000001
43
0.0000000001
44
0.0000000001
40
0
40
0
40
0
40
0
40
1
40
1
40
1
40
1
10
8.2623460233469856
20
24.141933626817554
30
0
10
8.0171412168216332
20
24.484270116688592
30
0
10
7.7871112485902145
20
24.783999399443228
30
0
10
7.57608103001599
20
25.04455013380116
30
0
0
SPLINE
5
379
100
AcDbEntity
8
0
100
AcDbSpline
70
0
71
3
72
8
73
4
74
0
42
0.000000001
43
0.0000000001
44
0.0000000001
40
0
40
0
40
0
40
0
40
1
40
1
40
1
40
1
10
14.895160855900693
20
115.86482478452669
30
0
10
13.155371446075153
20
115.57078670564633
30
0
10
11.755753160143588
20
115.19161023986587
30
0
10
10.678170186612444
20
114.82589217770638
30
0
0
ARC
5
380
100
AcDbEntity
8
0
100
AcDbCircle
10
-51.666323676507169
20
71.112593805558447
30
0
40
80.20719045542512
210
0
220
0
230
1
100
AcDbArc
50
105.670313698089
51
107.03968630191098
0
SPLINE
5
381
100
AcDbEntity
8
0
100
AcDbSpline
70
0
71
3
72
8
73
4
74
0
42
0.000000001
43
0.0000000001
44
0.0000000001
40
0
40
0
40
0
40
0
40
1
40
1
40
1
40
1
10
22.348605815499091
20
53.238630005821015
30
0
10
23.485281949802218
20
53.292501441105642
30
0
10
24.926591499452297
20
53.451664629699358
30
0
10
26.653341186363278
20
53.814515978223255
30
0
0
ARC
5
382
100
AcDbEntity
8
0
100
AcDbCircle
10
-51.666323676506977
20
71.112593805559243
30
0
40
74.737913481695301
210
0
220
0
230
1
100
AcDbArc
50
142.42773691862598
51
143.40726308137499
0
SPLINE
5
383
100
AcDbEntity
8
0
100
AcDbSpline
70
0
71
3
72
8
73
4
74
0
42
0.000000001
43
0.0000000001
44
0.0000000001
40
0
40
0
40
0
40
0
40
1
40
1
40
1
40
1
10
-113.81331766935361
20
121.81707623468785
30
0
10
-113.02690656410994
20
120.23755632157432
30
0
10
-112.25776956723311
20
119.00827424712965
30
0
10
-111.59499337636051
20
118.08325398429946
30
0
0
ARC
5
384
100
AcDbEntity
8
0
100
AcDbCircle
10
-51.666323676506508
20
71.112593805558518
30
0
40
80.207190455425064
210
0
220
0
230
1
100
AcDbArc
50
257.54531369808859
51
258.91468630191099
0
SPLINE
5
385
100
AcDbEntity
8
0
100
AcDbSpline
70
0
71
3
72
8
73
4
74
0
42
0.000000001
43
0.0000000001
44
0.0000000001
40
0
40
0
40
0
40
0
40
1
40
1
40
1
40
1
10
-83.636440702345908
20
2.0068777831116753
30
0
10
-83.805358904653886
20
0.88153276634433642
30
0
10
-83.930439536265155
20
-0.56313362217294749
30
0
10
-83.911432427119209
20
-2.3274930844635868
30
0
0
SPLINE
5
386
100
AcDbEntity
8
0
100
AcDbSpline
70
0
71
3
72
8
73
4
74
0
42
0.000000001
43
0.0000000001
44
0.0000000001
40
0
40
0
40
0
40
0
40
1
40
1
40
1
40
1
10
-10.795876892648293
20
135.35662037074769
30
0
10
-11.112530664819769
20
135.07904144861939
30
0
10
-11.388269789477445
20
134.82074053038997
30
0
10
-11.626881322285882
20
134.58518804210604
30
0
0
SPLINE
5
387
100
AcDbEntity
8
0
100
AcDbSpline
70
0
71
3
72
8
73
4
74
0
42
0.000000001
43
0.0000000001
44
0.0000000001
40
0
40
0
40
0
40
0
40
1
40
1
40
1
40
1
10
22.346927747292792
20
102.01942176363701
30
0
10
20.58320391964066
20
102.07044962019626
30
0
10
19.136505247805793
20
101.97161090598553
30
0
10
18.008279674439443
20
101.8231460231473
30
0
0
ARC
5
388
100
AcDbEntity
8
0
100
AcDbCircle
10
-51.666323676505428
20
71.112593805556685
30
0
40
74.737913481693582
210
-0
220
0
230
1
100
AcDbArc
50
299.92773691862493
51
300.90726308137454
0
SPLINE
5
389
100
AcDbEntity
8
0
100
AcDbSpline
70
0
71
3
72
8
73
4
74
0
42
0.000000001
43
0.0000000001
44
0.0000000001
40
0
40
0
40
0
40
0
40
1
40
1
40
1
40
1
10
16.274354658837634
20
36.735965161169894
30
0
10
15.967074857866608
20
37.023886666715441
30
0
10
15.682990568683351
20
37.2729801147713
30
0
10
15.425184309917999
20
37.487354486530997
30
0
0
ARC
5
390
100
AcDbEntity
8
0
100
AcDbCircle
10
7.8868538514062347
20
25.296383915262474
30
0
40
0.39999999999998709
210
0
220
0
230
1
100
AcDbArc
50
142.42778928563999
51
219.0194709305762
0
SPLINE
5
391
100
AcDbEntity
8
0
100
AcDbSpline
70
0
71
3
72
8
73
4
74
0
42
0.000000001
43
0.0000000001
44
0.0000000001
40
0
40
0
40
0
40
0
40
1
40
1
40
1
40
1
10
-113.52081076385993
20
20.051690680826347
30
0
10
-111.81821968721536
20
20.514842068714813
30
0
10
-110.46250673874118
20
21.02937927811309
30
0
10
-109.42595926038074
20
21.49895790937558
30
0
0
ARC
5
392
100
AcDbEntity
8
0
100
AcDbCircle
10
-112.79707786907188
20
27.42349980910495
30
0
40
0.39999999999992347
210
0
220
-0
230
1
100
AcDbArc
50
35.552789285730114
51
112.14447093057635
0
ARC
5
393
100
AcDbEntity
8
0
100
AcDbCircle
10
-107.36646692246305
20
20.682443252910609
30
0
40
0.3999999999999847
210
-0
220
0
230
1
100
AcDbArc
50
-34.434470930575863
51
42.157210714267251
0
SPLINE
5
394
100
AcDbEntity
8
0
100
AcDbSpline
70
0
71
3
72
8
73
4
74
0
42
0.000000001
43
0.0000000001
44
0.0000000001
40
0
40
0
40
0
40
0
40
1
40
1
40
1
40
1
10
-76.619278903037909
20
0.33634645789885093
30
0
10
-76.656044929077638
20
0.0030767508218867978
30
0
10
-76.687626072158409
20
-0.37342565372144032
30
0
10
-76.708951185597769
20
-0.79397875260082296
30
0
0
ARC
5
395
100
AcDbEntity
8
0
100
AcDbCircle
10
-51.666323676508625
20
71.112593805559129
30
0
40
74.737913481697703
210
-0
220
0
230
1
100
AcDbArc
50
322.42773691862578
51
323.40726308137499
0
ARC
5
396
100
AcDbEntity
8
0
100
AcDbCircle
10
-51.666323676506956
20
71.112593805558419
30
0
40
80.207190455425064
210
-0
220
0
230
1
100
AcDbArc
50
308.1703136980891
51
309.53968630191099
0
ARC
5
397
100
AcDbEntity
8
0
100
AcDbCircle
10
12.090862898255947
20
31.354233647553009
30
0
40
0.39999999999998204
210
0
220
0
230
1
100
AcDbArc
50
148.05278928563774
51
224.64447093057655
0
SPLINE
5
398
100
AcDbEntity
8
0
100
AcDbSpline
70
0
71
3
72
8
73
4
74
0
42
0.000000001
43
0.0000000001
44
0.0000000001
40
0
40
0
40
0
40
0
40
1
40
1
40
1
40
1
10
-63.023473898372877
20
145.29441302019052
30
0
10
-63.148151410602011
20
145.60566204632602
30
0
10
-63.297781333875506
20
145.95259477076462
30
0
10
-63.477221621342494
20
146.33354208034174
30
0
0
ARC
5
399
100
AcDbEntity
8
0
100
AcDbCircle
10
-69.884880046291556
20
144.00834296957879
30
0
40
0.40000000000000158
210
0
220
0
230
1
100
AcDbArc
50
207.44052906942284
51
284.03221071442385
0
SPLINE
5
400
100
AcDbEntity
8
0
100
AcDbSpline
70
0
71
3
72
8
73
4
74
0
42
0.000000001
43
0.0000000001
44
0.0000000001
40
0
40
0
40
0
40
0
40
1
40
1
40
1
40
1
10
-54.999552909896899
20
-3.8595126476554764
30
0
10
-54.937992713841311
20
-4.1891044870379872
30
0
10
-54.858921104515474
20
-4.5585623463720406
30
0
10
-54.757247845153074
20
-4.9671969236791522
30
0
0
SPLINE
5
401
100
AcDbEntity
8
0
100
AcDbSpline
70
0
71
3
72
8
73
4
74
0
42
0.000000001
43
0.0000000001
44
0.0000000001
40
0
40
0
40
0
40
0
40
1
40
1
40
1
40
1
10
5.1832883123951046
20
20.458768813439434
30
0
10
6.2111419847155771
20
19.970453757219392
30
0
10
7.5572925327862581
20
19.431394539280596
30
0
10
9.2511967415270551
20
18.937416691616068
30
0
0
SPLINE
5
402
100
AcDbEntity
8
0
100
AcDbSpline
70
0
71
3
72
8
73
4
74
0
42
0.000000001
43
0.0000000001
44
0.0000000001
40
0
40
0
40
0
40
0
40
1
40
1
40
1
40
1
10
-53.375857943439762
20
147.23595330979421
30
0
10
-53.484931346173269
20
146.82923146103701
30
0
10
-53.570695747919046
20
146.4612696469608
30
0
10
-53.638228035790014
20
146.13284944596694
30
0
0
SPLINE
5
403
100
AcDbEntity
8
0
100
AcDbSpline
70
0
71
3
72
8
73
4
74
0
42
0.000000001
43
0.0000000001
44
0.0000000001
40
0
40
0
40
0
40
0
40
1
40
1
40
1
40
1
10
-27.932956535949703
20
-1.2366677925562319
30
0
10
-27.94664491791724
20
-0.81579691254745379
30
0
10
-27.971387178957976
20
-0.43878331896786665
30
0
10
-28.00209816077929
20
-0.10490119317871346
30
0
0
SPLINE
5
404
100
AcDbEntity
8
0
100
AcDbSpline
70
0
71
3
72
8
73
4
74
0
42
0.000000001
43
0.0000000001
44
0.0000000001
40
0
40
0
40
0
40
0
40
1
40
1
40
1
40
1
10
25.019932604916324
20
94.616029688269833
30
0
10
23.269703194146231
20
94.839686997669972
30
0
10
21.820282883718406
20
94.883125485615381
30
0
10
20.682937921608023
20
94.845960946115611
30
0
0
ARC
5
405
100
AcDbEntity
8
0
100
AcDbCircle
10
-55.392771246748644
20
-3.932856628755097
30
0
40
0.39999999999998898
210
0
220
-0
230
1
100
AcDbArc
50
10.565529069424139
51
87.157210714348977
0
ARC
5
406
100
AcDbEntity
8
0
100
AcDbCircle
10
-62.652119842494763
20
145.4430608092182
30
0
40
0.39999999999993657
210
0
220
0
230
1
100
AcDbArc
50
201.81552906941911
51
278.40721071445194
0
ARC
5
407
100
AcDbEntity
8
0
100
AcDbCircle
10
-51.666323676506465
20
71.112593805558532
30
0
40
80.20719045542512
210
0
220
0
230
1
100
AcDbArc
50
263.17031369808865
51
264.53968630191093
0
ARC
5
408
100
AcDbEntity
8
0
100
AcDbCircle
10
-51.666323676506984
20
71.112593805558447
30
0
40
80.207190455425078
210
-0
220
0
230
1
100
AcDbArc
50
302.54531369808905
51
303.91468630191099
0
ARC
5
409
100
AcDbEntity
8
0
100
AcDbCircle
10
-51.666323676507162
20
71.112593805559698
30
0
40
74.737913481694733
210
0
220
0
230
1
100
AcDbArc
50
91.80273691862503
51
92.782263081374424
0
ARC
5
410
100
AcDbEntity
8
0
100
AcDbCircle
10
3.1093151498843632
20
19.679769329903614
30
0
40
0.3999999999999812
210
0
220
0
230
1
100
AcDbArc
50
136.80278928563789
51
213.39447093058044
0
SPLINE
5
411
100
AcDbEntity
8
0
100
AcDbSpline
70
0
71
3
72
8
73
4
74
0
42
0.000000001
43
0.0000000001
44
0.0000000001
40
0
40
0
40
0
40
0
40
1
40
1
40
1
40
1
10
-62.199487724596793
20
-4.2978883886096249
30
0
10
-62.034461950832394
20
-5.4238107926088608
30
0
10
-61.734792136109029
20
-6.8425793222356113
30
0
10
-61.20443694962966
20
-8.5254485858884745
30
0
0
SPLINE
5
412
100
AcDbEntity
8
0
100
AcDbSpline
70
0
71
3
72
8
73
4
74
0
42
0.000000001
43
0.0000000001
44
0.0000000001
40
0
40
0
40
0
40
0
40
1
40
1
40
1
40
1
10
-1.5279018021210733
20
126.95223756427623
30
0
10
-1.3663976277636651
20
127.24606887641144
30
0
10
-1.1931392235936833
20
127.58182616167808
30
0
10
-1.012498684387638
20
127.96220579446043
30
0
0
ARC
5
413
100
AcDbEntity
8
0
100
AcDbCircle
10
-14.179466321234685
20
5.9939208460435722
30
0
40
0.39999999999994618
210
0
220
0
230
1
100
AcDbArc
50
119.9277892856727
51
196.51947093056859
0
ARC
5
414
100
AcDbEntity
8
0
100
AcDbCircle
10
-71.204967866763184
20
-1.4404724672692231
30
0
40
0.3999999999999832
210
0
220
-0
230
1
100
AcDbArc
50
74.927789285637218
51
151.51947093057214
0
SPLINE
5
415
100
AcDbEntity
8
0
100
AcDbSpline
70
0
71
3
72
8
73
4
74
0
42
0.000000001
43
0.0000000001
44
0.0000000001
40
0
40
0
40
0
40
0
40
1
40
1
40
1
40
1
10
5.211507184169502
20
14.560796687013038
30
0
10
4.583702888322521
20
16.209792547677601
30
0
10
3.9387602099076835
20
17.508543901892487
30
0
10
3.3698433084588331
20
18.494073366231166
30
0
0
SPLINE
5
416
100
AcDbEntity
8
0
100
AcDbSpline
70
0
71
3
72
8
73
4
74
0
42
0.000000001
43
0.0000000001
44
0.0000000001
40
0
40
0
40
0
40
0
40
1
40
1
40
1
40
1
10
18.874442588768421
20
96.723674568818012
30
0
10
19.155387676133056
20
96.906678110345609
30
0
10
19.466462835637813
20
97.121116153528646
30
0
10
19.805083286015737
20
97.371427679484242
30
0
0
ARC
5
417
100
AcDbEntity
8
0
100
AcDbCircle
10
-6.874877375159409
20
131.44030203831252
30
0
40
0.40000000000000502
210
0
220
0
230
1
100
AcDbArc
50
156.81552906941599
51
233.40721071431059
0
SPLINE
5
418
100
AcDbEntity
8
0
100
AcDbSpline
70
0
71
3
72
8
73
4
74
0
42
0.000000001
43
0.0000000001
44
0.0000000001
40
0
40
0
40
0
40
0
40
1
40
1
40
1
40
1
10
-2.0526877803237875
20
13.352958221684668
30
0
10
-2.2263945092010857
20
13.736553896559967
30
0
10
-2.3935302338038955
20
14.07540058576709
30
0
10
-2.5496746392343734
20
14.37211486412043
30
0
0
SPLINE
5
419
100
AcDbEntity
8
0
100
AcDbSpline
70
0
71
3
72
8
73
4
74
0
42
0.000000001
43
0.0000000001
44
0.0000000001
40
0
40
0
40
0
40
0
40
1
40
1
40
1
40
1
10
-11.96866613314249
20
6.137334243239704
30
0
10
-11.126821873361825
20
5.3716756978631182
30
0
10
-9.9951167470454756
20
4.4650613114865374
30
0
10
-8.5175456849149782
20
3.5006395475639609
30
0
0
SPLINE
5
420
100
AcDbEntity
8
0
100
AcDbSpline
70
0
71
3
72
8
73
4
74
0
42
0.000000001
43
0.0000000001
44
0.0000000001
40
0
40
0
40
0
40
0
40
1
40
1
40
1
40
1
10
-25.40748980258109
20
-0.35881315696394245
30
0
10
-24.731193916368255
20
-1.2739954558122739
30
0
10
-23.798105879302838
20
-2.3839742184926016
30
0
10
-22.537075283298584
20
-3.6181247029611252
30
0
0
SPLINE
5
421
100
AcDbEntity
8
0
100
AcDbSpline
70
0
71
3
72
8
73
4
74
0
42
0.000000001
43
0.0000000001
44
0.0000000001
40
0
40
0
40
0
40
0
40
1
40
1
40
1
40
1
10
-6.6811438838507105
20
11.043793566359621
30
0
10
-6.4244663593692897
20
10.828069004123355
30
0
10
-6.1289615940530897
20
10.592636714705312
30
0
10
-5.7911320702179019
20
10.341258747760056
30
0
0
ARC
5
422
100
AcDbEntity
8
0
100
AcDbCircle
10
-51.666323676507929
20
71.112593805556557
30
0
40
74.737913481693596
210
0
220
0
230
1
100
AcDbArc
50
254.92773691862573
51
255.90726308137513
0
SPLINE
5
423
100
AcDbEntity
8
0
100
AcDbSpline
70
0
71
3
72
8
73
4
74
0
42
0.000000001
43
0.0000000001
44
0.0000000001
40
0
40
0
40
0
40
0
40
1
40
1
40
1
40
1
10
18.008279674439443
20
101.8231460231473
30
0
10
17.590777098809795
20
101.76827099437382
30
0
10
17.218004094404105
20
101.70669407977482
30
0
10
16.888739904924698
20
101.64340480854811
30
0
0
ARC
5
424
100
AcDbEntity
8
0
100
AcDbCircle
10
-61.379826646005846
20
145.62000217844661
30
0
40
0.39999999999997177
210
-0
220
0
230
1
100
AcDbArc
50
277.42778928563979
51
354.01947093057305
0
SPLINE
5
425
100
AcDbEntity
8
0
100
AcDbSpline
70
0
71
3
72
8
73
4
74
0
42
0.000000001
43
0.0000000001
44
0.0000000001
40
0
40
0
40
0
40
0
40
1
40
1
40
1
40
1
10
19.805083286015737
20
97.371427679484242
30
0
10
20.720265584864066
20
98.047723565697027
30
0
10
21.830244347544397
20
98.980811602762486
30
0
10
23.064394832012919
20
100.24184219876673
30
0
0
ARC
5
426
100
AcDbEntity
8
0
100
AcDbCircle
10
8.6613845562472189
20
26.321147504211204
30
0
40
0.39999999999998515
210
0
220
-0
230
1
100
AcDbArc
50
66.81552906942261
51
143.40721071439688
0
ARC
5
427
100
AcDbEntity
8
0
100
AcDbCircle
10
-116.09386698256328
20
109.77520760660667
30
0
40
0.39999999999997604
210
0
220
0
230
1
100
AcDbArc
50
252.44052906943051
51
329.03221071436224
0
ARC
5
428
100
AcDbEntity
8
0
100
AcDbCircle
10
-51.666323676507247
20
71.112593805557836
30
0
40
74.737913481695088
210
0
220
0
230
1
100
AcDbArc
50
209.92773691862499
51
210.90726308137434
0
SPLINE
5
429
100
AcDbEntity
8
0
100
AcDbSpline
70
0
71
3
72
8
73
4
74
0
42
0.000000001
43
0.0000000001
44
0.0000000001
40
0
40
0
40
0
40
0
40
1
40
1
40
1
40
1
10
-108.51593566540863
20
121.76641879767769
30
0
10
-109.54378933772922
20
122.25473385389773
30
0
10
-110.88993988579989
20
122.79379307183649
30
0
10
-112.58384409454059
20
123.28777091950094
30
0
0
SPLINE
5
430
100
AcDbEntity
8
0
100
AcDbSpline
70
0
71
3
72
8
73
4
74
0
42
0.000000001
43
0.0000000001
44
0.0000000001
40
0
40
0
40
0
40
0
40
1
40
1
40
1
40
1
10
-107.50596743522443
20
121.25101567994427
30
0
10
-107.79979874735966
20
121.41251985430156
30
0
10
-108.1355560326263
20
121.58577825847154
30
0
10
-108.51593566540863
20
121.76641879767769
30
0
0
ARC
5
431
100
AcDbEntity
8
0
100
AcDbCircle
10
-51.666323676506558
20
71.112593805558191
30
0
40
80.207190455425092
210
0
220
0
230
1
100
AcDbArc
50
206.92031369808856
51
208.28968630191082
0
ARC
5
432
100
AcDbEntity
8
0
100
AcDbCircle
10
-51.666323676506856
20
71.11259380555849
30
0
40
80.207190455425078
210
0
220
0
230
1
100
AcDbArc
50
128.17031369808905
51
129.53968630191105
0
ARC
5
433
100
AcDbEntity
8
0
100
AcDbCircle
10
-89.153181031778814
20
136.23126676507357
30
0
40
0.39999999999997954
210
-0
220
0
230
1
100
AcDbArc
50
-60.072210714364509
51
16.519470930569334
0
ARC
5
434
100
AcDbEntity
8
0
100
AcDbCircle
10
-39.333207476684862
20
145.23141926295813
30
0
40
0.39999999999997859
210
0
220
0
230
1
100
AcDbArc
50
260.55278928563808
51
337.14447093058453
0
SPLINE
5
435
100
AcDbEntity
8
0
100
AcDbSpline
70
0
71
3
72
8
73
4
74
0
42
0.000000001
43
0.0000000001
44
0.0000000001
40
0
40
0
40
0
40
0
40
1
40
1
40
1
40
1
10
-125.67957510030641
20
40.20576584748013
30
0
10
-123.91585127265428
20
40.154737990920935
30
0
10
-122.46915260081933
20
40.2535767051316
30
0
10
-121.34092702745298
20
40.402041587969926
30
0
0
ARC
5
436
100
AcDbEntity
8
0
100
AcDbCircle
10
-32.127679486250351
20
143.66566007838634
30
0
40
0.3999999999999832
210
0
220
0
230
1
100
AcDbArc
50
254.92778928563789
51
331.51947093057515
0
SPLINE
5
437
100
AcDbEntity
8
0
100
AcDbSpline
70
0
71
3
72
8
73
4
74
0
42
0.000000001
43
0.0000000001
44
0.0000000001
40
0
40
0
40
0
40
0
40
1
40
1
40
1
40
1
10
-7.2974678204757248
20
137.93024140542227
30
0
10
-8.7923001458214536
20
136.99279705962135
30
0
10
-9.9402742821252676
20
136.1068729540155
30
0
10
-10.795876892648293
20
135.35662037074769
30
0
0
ARC
5
438
100
AcDbEntity
8
0
100
AcDbCircle
10
-122.84708266740355
20
47.050058779866873
30
0
40
0.39999999999998764
210
0
220
-0
230
1
100
AcDbArc
50
18.677789285638575
51
95.269470930579317
0
ARC
5
439
100
AcDbEntity
8
0
100
AcDbCircle
10
-51.666323676506806
20
71.112593805558276
30
0
40
80.207190455425078
210
0
220
0
230
1
100
AcDbArc
50
167.54531369808899
51
168.91468630191102
0
ARC
5
440
100
AcDbEntity
8
0
100
AcDbCircle
10
-33.37083766034349
20
143.98907309630889
30
0
40
0.40000000000006686
210
0
220
0
230
1
100
AcDbArc
50
179.31552906942983
51
255.90721071444955
0
ARC
5
441
100
AcDbEntity
8
0
100
AcDbCircle
10
-51.666323676506849
20
71.112593805558319
30
0
40
80.207190455425078
210
0
220
0
230
1
100
AcDbArc
50
156.29531369808899
51
157.66468630191105
0
SPLINE
5
442
100
AcDbEntity
8
0
100
AcDbSpline
70
0
71
3
72
8
73
4
74
0
42
0.000000001
43
0.0000000001
44
0.0000000001
40
0
40
0
40
0
40
0
40
1
40
1
40
1
40
1
10
-67.540016548015373
20
149.73332437564321
30
0
10
-67.934149368103391
20
148.01344504775355
30
0
10
-68.11944672182014
20
146.57526180865588
30
0
10
-68.193940440490451
20
145.43975071152266
30
0
0
ARC
5
443
100
AcDbEntity
8
0
100
AcDbCircle
10
-51.666323676506977
20
71.112593805558802
30
0
40
74.7379134816956
210
0
220
0
230
1
100
AcDbArc
50
131.1777369186253
51
132.15726308137468
0
SPLINE
5
444
100
AcDbEntity
8
0
100
AcDbSpline
70
0
71
3
72
8
73
4
74
0
42
0.000000001
43
0.0000000001
44
0.0000000001
40
0
40
0
40
0
40
0
40
1
40
1
40
1
40
1
10
-77.277404439766215
20
141.65336007083374
30
0
10
-77.46040798129377
20
141.93430515819838
30
0
10
-77.674846024476864
20
142.24538031770317
30
0
10
-77.925157550432431
20
142.58400076808104
30
0
0
SPLINE
5
445
100
AcDbEntity
8
0
100
AcDbSpline
70
0
71
3
72
8
73
4
74
0
42
0.000000001
43
0.0000000001
44
0.0000000001
40
0
40
0
40
0
40
0
40
1
40
1
40
1
40
1
10
-96.651503469162805
20
131.18139404475752
30
0
10
-96.908180993644237
20
131.39711860699376
30
0
10
-97.203685758960333
20
131.6325508964118
30
0
10
-97.541515282795658
20
131.88392886335706
30
0
0
SPLINE
5
446
100
AcDbEntity
8
0
100
AcDbSpline
70
0
71
3
72
8
73
4
74
0
42
0.000000001
43
0.0000000001
44
0.0000000001
40
0
40
0
40
0
40
0
40
1
40
1
40
1
40
1
10
22.660833229457367
20
87.640210569542276
30
0
10
22.240647261715239
20
87.667840660981682
30
0
10
21.863023925964637
20
87.680171334998789
30
0
10
21.527739331255553
20
87.682334406126017
30
0
0
SPLINE
5
447
100
AcDbEntity
8
0
100
AcDbSpline
70
0
71
3
72
8
73
4
74
0
42
0.000000001
43
0.0000000001
44
0.0000000001
40
0
40
0
40
0
40
0
40
1
40
1
40
1
40
1
10
-44.034107263231149
20
150.95583192484926
30
0
10
-44.910523472022341
20
149.42442074187429
30
0
10
-45.505324541292531
20
148.10195417272752
30
0
10
-45.906232057796991
20
147.03696218729095
30
0
0
ARC
5
448
100
AcDbEntity
8
0
100
AcDbCircle
10
-51.666323676506764
20
71.112593805558561
30
0
40
80.207190455425049
210
-0
220
0
230
1
100
AcDbArc
50
-1.2046863019111573
51
0.16468630190999184
0
SPLINE
5
449
100
AcDbEntity
8
0
100
AcDbSpline
70
0
71
3
72
8
73
4
74
0
42
0.000000001
43
0.0000000001
44
0.0000000001
40
0
40
0
40
0
40
0
40
1
40
1
40
1
40
1
10
-119.65594673399514
20
102.88267910061286
30
0
10
-119.984007955607
20
102.95193423183409
30
0
10
-120.35560190483075
20
103.02026699209947
30
0
10
-120.77203969895365
20
103.08271083139779
30
0
0
ARC
5
450
100
AcDbEntity
8
0
100
AcDbCircle
10
21.530221376466624
20
88.082326705366427
30
0
40
0.39999999999998526
210
0
220
0
230
1
100
AcDbArc
50
193.05278928564016
51
269.64447093057299
0
ARC
5
451
100
AcDbEntity
8
0
100
AcDbCircle
10
-51.666323676506323
20
71.112593805559726
30
0
40
74.737913481694619
210
0
220
-0
230
1
100
AcDbArc
50
86.177736918625598
51
87.157263081374907
0
SPLINE
5
452
100
AcDbEntity
8
0
100
AcDbSpline
70
0
71
3
72
8
73
4
74
0
42
0.000000001
43
0.0000000001
44
0.0000000001
40
0
40
0
40
0
40
0
40
1
40
1
40
1
40
1
10
-125.85602329006356
20
101.59343815086888
30
0
10
-124.64496435479293
20
100.31021492879336
30
0
10
-123.55210438854269
20
99.357134012667387
30
0
10
-122.64934790948436
20
98.664338584455109
30
0
0
SPLINE
5
453
100
AcDbEntity
8
0
100
AcDbSpline
70
0
71
3
72
8
73
4
74
0
42
0.000000001
43
0.0000000001
44
0.0000000001
40
0
40
0
40
0
40
0
40
1
40
1
40
1
40
1
10
-95.379622048654724
20
133.45708766867773
30
0
10
-95.24435071624977
20
133.05831287500376
30
0
10
-95.111232579330078
20
132.70471565944885
30
0
10
-94.984923136949448
20
132.39412531334733
30
0
0
ARC
5
454
100
AcDbEntity
8
0
100
AcDbCircle
10
-51.666323676506913
20
71.112593805558092
30
0
40
80.207190455425035
210
-0
220
0
230
1
100
AcDbArc
50
341.92031369808916
51
343.28968630191105
0
SPLINE
5
455
100
AcDbEntity
8
0
100
AcDbSpline
70
0
71
3
72
8
73
4
74
0
42
0.000000001
43
0.0000000001
44
0.0000000001
40
0
40
0
40
0
40
0
40
1
40
1
40
1
40
1
10
-12.785531842726696
20
6.9237225774972853
30
0
10
-12.551234995371933
20
6.6838779910551329
30
0
10
-12.280229566020481
20
6.420614840410793
30
0
10
-11.96866613314249
20
6.137334243239704
30
0
0
SPLINE
5
456
100
AcDbEntity
8
0
100
AcDbSpline
70
0
71
3
72
8
73
4
74
0
42
0.000000001
43
0.0000000001
44
0.0000000001
40
0
40
0
40
0
40
0
40
1
40
1
40
1
40
1
10
-111.59499337636051
20
118.08325398429946
30
0
10
-111.34978856983524
20
117.74091749442843
30
0
10
-111.11975860160373
20
117.44118821167388
30
0
10
-110.9087283830295
20
117.18063747731594
30
0
0
ARC
5
457
100
AcDbEntity
8
0
100
AcDbCircle
10
-116.13463859913
20
32.518003337200703
30
0
40
0.39999999999998564
210
-0
220
0
230
1
100
AcDbArc
50
-45.684470930574292
51
30.907210714361788
0
SPLINE
5
458
100
AcDbEntity
8
0
100
AcDbSpline
70
0
71
3
72
8
73
4
74
0
42
0.000000001
43
0.0000000001
44
0.0000000001
40
0
40
0
40
0
40
0
40
1
40
1
40
1
40
1
10
-48.333094443116636
20
146.08470025877256
30
0
10
-48.394654639172231
20
146.41429209815504
30
0
10
-48.473726248498068
20
146.78374995748914
30
0
10
-48.575399507860475
20
147.19238453479625
30
0
0
SPLINE
5
459
100
AcDbEntity
8
0
100
AcDbSpline
70
0
71
3
72
8
73
4
74
0
42
0.000000001
43
0.0000000001
44
0.0000000001
40
0
40
0
40
0
40
0
40
1
40
1
40
1
40
1
10
-124.37774176862601
20
52.539041582372874
30
0
10
-124.67527151241562
20
52.384456686970864
30
0
10
-125.00586736377258
20
52.201541919139764
30
0
10
-125.36739208409317
20
51.985626319801966
30
0
0
ARC
5
460
100
AcDbEntity
8
0
100
AcDbCircle
10
-119.57322959415065
20
103.27403300026873
30
0
40
0.39999999999992181
210
0
220
0
230
1
100
AcDbArc
50
258.06552906941994
51
334.65721071432711
0
ARC
5
461
100
AcDbEntity
8
0
100
AcDbCircle
10
-51.666323676506977
20
71.112593805558561
30
0
40
74.737913481695685
210
0
220
0
230
1
100
AcDbArc
50
159.30273691862524
51
160.28226308137459
0
SPLINE
5
462
100
AcDbEntity
8
0
100
AcDbSpline
70
0
71
3
72
8
73
4
74
0
42
0.000000001
43
0.0000000001
44
0.0000000001
40
0
40
0
40
0
40
0
40
1
40
1
40
1
40
1
10
-119.60700201185118
20
105.48922244994721
30
0
10
-119.29972221088011
20
105.20130094440169
30
0
10
-119.01563792169689
20
104.95220749634581
30
0
10
-118.75783166293152
20
104.7378331245861
30
0
0
SPLINE
5
463
100
AcDbEntity
8
0
100
AcDbSpline
70
0
71
3
72
8
73
4
74
0
42
0.000000001
43
0.0000000001
44
0.0000000001
40
0
40
0
40
0
40
0
40
1
40
1
40
1
40
1
10
22.61805799465407
20
60.446863502964007
30
0
10
22.952096713618836
20
60.475821620277245
30
0
10
23.32752590540451
20
60.518299275347502
30
0
10
23.744158517661415
20
60.579429757468503
30
0
0
SPLINE
5
464
100
AcDbEntity
8
0
100
AcDbSpline
70
0
71
3
72
8
73
4
74
0
42
0.000000001
43
0.0000000001
44
0.0000000001
40
0
40
0
40
0
40
0
40
1
40
1
40
1
40
1
10
-122.44257102416645
20
96.065549032089706
30
0
10
-122.77584073124343
20
96.102315058129449
30
0
10
-123.15234313578674
20
96.133896201210234
30
0
10
-123.57289623466615
20
96.155221314649566
30
0
0
SPLINE
5
465
100
AcDbEntity
8
0
100
AcDbSpline
70
0
71
3
72
8
73
4
74
0
42
0.000000001
43
0.0000000001
44
0.0000000001
40
0
40
0
40
0
40
0
40
1
40
1
40
1
40
1
10
-33.792359876769225
20
145.12752329756444
30
0
10
-33.84623131205386
20
146.26419943186755
30
0
10
-34.005394500647661
20
147.7055089815176
30
0
10
-34.368245849171558
20
149.43225866842857
30
0
0
SPLINE
5
466
100
AcDbEntity
8
0
100
AcDbSpline
70
0
71
3
72
8
73
4
74
0
42
0.000000001
43
0.0000000001
44
0.0000000001
40
0
40
0
40
0
40
0
40
1
40
1
40
1
40
1
10
-26.623696167415766
20
143.01916636371794
30
0
10
-26.56589445284969
20
144.15564941578134
30
0
10
-26.583018186800285
20
145.60561938659148
30
0
10
-26.774871240527681
20
147.35961995333835
30
0
0
ARC
5
467
100
AcDbEntity
8
0
100
AcDbCircle
10
-33.447767306721978
20
-1.7831553584616651
30
0
40
0.39999999999998126
210
0
220
-0
230
1
100
AcDbArc
50
27.440529069425924
51
104.03221071436118
0
SPLINE
5
468
100
AcDbEntity
8
0
100
AcDbSpline
70
0
71
3
72
8
73
4
74
0
42
0.000000001
43
0.0000000001
44
0.0000000001
40
0
40
0
40
0
40
0
40
1
40
1
40
1
40
1
10
-121.34092702745298
20
40.402041587969926
30
0
10
-120.92342445182332
20
40.456916616743314
30
0
10
-120.55065144741762
20
40.518493531342308
30
0
10
-120.22138725793822
20
40.581782802569094
30
0
0
ARC
5
469
100
AcDbEntity
8
0
100
AcDbCircle
10
-51.666323676506629
20
71.112593805558518
30
0
40
74.737913481695827
210
0
220
-0
230
1
100
AcDbArc
50
80.552736918625442
51
81.532263081374765
0
ARC
5
470
100
AcDbEntity
8
0
100
AcDbCircle
10
-116.78499663602175
20
33.625736450286482
30
0
40
0.39999999999997726
210
0
220
-0
230
1
100
AcDbArc
50
29.927789285638283
51
106.51947093057373
0
SPLINE
5
471
100
AcDbEntity
8
0
100
AcDbSpline
70
0
71
3
72
8
73
4
74
0
42
0.000000001
43
0.0000000001
44
0.0000000001
40
0
40
0
40
0
40
0
40
1
40
1
40
1
40
1
10
-36.244852596252969
20
149.82327688272238
30
0
10
-37.267153166273786
20
148.38514367369484
30
0
10
-37.988714497109029
20
147.1273458424202
30
0
10
-38.492079003228781
20
146.10677789278986
30
0
0
ARC
5
472
100
AcDbEntity
8
0
100
AcDbCircle
10
-122.39861158006033
20
96.463126153254819
30
0
40
0.40000000000005731
210
0
220
0
230
1
100
AcDbArc
50
263.69052906942773
51
340.28221071436559
0
ARC
5
473
100
AcDbEntity
8
0
100
AcDbCircle
10
23.304456158838455
20
66.103780247142481
30
0
40
0.39999999999993108
210
0
220
0
230
1
100
AcDbArc
50
176.17778928555899
51
252.76947093058439
0
SPLINE
5
474
100
AcDbEntity
8
0
100
AcDbSpline
70
0
71
3
72
8
73
4
74
0
42
0.000000001
43
0.0000000001
44
0.0000000001
40
0
40
0
40
0
40
0
40
1
40
1
40
1
40
1
10
-108.54415453718305
20
127.66439092410408
30
0
10
-107.91635024133606
20
126.01539506343951
30
0
10
-107.27140756292123
20
124.71664370922461
30
0
10
-106.70249066147235
20
123.73111424488596
30
0
0
SPLINE
5
475
100
AcDbEntity
8
0
100
AcDbSpline
70
0
71
3
72
8
73
4
74
0
42
0.000000001
43
0.0000000001
44
0.0000000001
40
0
40
0
40
0
40
0
40
1
40
1
40
1
40
1
10
-33.770809118003065
20
143.99385149119922
30
0
10
-33.766886274074061
20
144.32912011427845
30
0
10
-33.772360891849772
20
144.70690505016836
30
0
10
-33.792359876769225
20
145.12752329756444
30
0
0
ARC
5
476
100
AcDbEntity
8
0
100
AcDbCircle
10
-51.666323676508135
20
71.112593805558944
30
0
40
74.737913481697205
210
-0
220
0
230
1
100
AcDbArc
50
344.92773691862504
51
345.90726308137499
0
SPLINE
5
477
100
AcDbEntity
8
0
100
AcDbSpline
70
0
71
3
72
8
73
4
74
0
42
0.000000001
43
0.0000000001
44
0.0000000001
40
0
40
0
40
0
40
0
40
1
40
1
40
1
40
1
10
-56.047406676719298
20
147.1290030956992
30
0
10
-56.428918090875946
20
148.20109628507316
30
0
10
-56.999617843449059
20
149.53414089457763
30
0
10
-57.848093910290601
20
151.08120713309808
30
0
0
ARC
5
478
100
AcDbEntity
8
0
100
AcDbCircle
10
16.813139631870232
20
102.03619559091706
30
0
40
0.40000000000000213
210
0
220
0
230
1
100
AcDbArc
50
204.30278928562731
51
280.89447093057726
0
SPLINE
5
479
100
AcDbEntity
8
0
100
AcDbSpline
70
0
71
3
72
8
73
4
74
0
42
0.000000001
43
0.0000000001
44
0.0000000001
40
0
40
0
40
0
40
0
40
1
40
1
40
1
40
1
10
21.045094415612482
20
89.686146028744247
30
0
10
21.342624159402099
20
89.840730924146257
30
0
10
21.673220010759056
20
90.023645691977379
30
0
10
22.034744731079655
20
90.239561291315127
30
0
0
ARC
5
480
100
AcDbEntity
8
0
100
AcDbCircle
10
-51.666323676506408
20
71.112593805558816
30
0
40
74.737913481695443
210
0
220
-0
230
1
100
AcDbArc
50
13.052736918625172
51
14.032263081374577
0
SPLINE
5
481
100
AcDbEntity
8
0
100
AcDbSpline
70
0
71
3
72
8
73
4
74
0
42
0.000000001
43
0.0000000001
44
0.0000000001
40
0
40
0
40
0
40
0
40
1
40
1
40
1
40
1
10
-113.20713231758415
20
115.95027038924457
30
0
10
-114.27789983892198
20
116.3354867973608
30
0
10
-115.67040534717395
20
116.7400044706504
30
0
10
-117.40457124017269
20
117.06557203342757
30
0
0
SPLINE
5
482
100
AcDbEntity
8
0
100
AcDbSpline
70
0
71
3
72
8
73
4
74
0
42
0.000000001
43
0.0000000001
44
0.0000000001
40
0
40
0
40
0
40
0
40
1
40
1
40
1
40
1
10
-117.99526426200225
20
33.720615916889216
30
0
10
-117.58515076878508
20
33.816149115943588
30
0
10
-117.22020836136417
20
33.913967664752036
30
0
10
-116.89873310233338
20
34.00922571510484
30
0
0
SPLINE
5
483
100
AcDbEntity
8
0
100
AcDbSpline
70
0
71
3
72
8
73
4
74
0
42
0.000000001
43
0.0000000001
44
0.0000000001
40
0
40
0
40
0
40
0
40
1
40
1
40
1
40
1
10
-49.956789409573773
20
-5.0107656986771172
30
0
10
-49.847716006840265
20
-4.6040438499199237
30
0
10
-49.761951605094488
20
-4.2360820358436957
30
0
10
-49.69441931722352
20
-3.9076618348498116
30
0
0
ARC
5
484
100
AcDbEntity
8
0
100
AcDbCircle
10
22.452501780892838
20
58.779477605736552
30
0
40
0.3999999999999706
210
0
220
0
230
1
100
AcDbArc
50
170.55278928562933
51
247.14447093057424
0
SPLINE
5
485
100
AcDbEntity
8
0
100
AcDbSpline
70
0
71
3
72
8
73
4
74
0
42
0.000000001
43
0.0000000001
44
0.0000000001
40
0
40
0
40
0
40
0
40
1
40
1
40
1
40
1
10
-115.91035024169591
20
111.98304058941704
30
0
10
-115.6327713195676
20
111.66638681724547
30
0
10
-115.3744704013382
20
111.39064769258783
30
0
10
-115.13891791305426
20
111.15203615977944
30
0
0
SPLINE
5
486
100
AcDbEntity
8
0
100
AcDbSpline
70
0
71
3
72
8
73
4
74
0
42
0.000000001
43
0.0000000001
44
0.0000000001
40
0
40
0
40
0
40
0
40
1
40
1
40
1
40
1
10
-91.36398121987105
20
136.08785336787741
30
0
10
-92.205825479651722
20
136.85351191325398
30
0
10
-93.337530605968141
20
137.7601262996306
30
0
10
-94.815101668098549
20
138.72454806355313
30
0
0
SPLINE
5
487
100
AcDbEntity
8
0
100
AcDbSpline
70
0
71
3
72
8
73
4
74
0
42
0.000000001
43
0.0000000001
44
0.0000000001
40
0
40
0
40
0
40
0
40
1
40
1
40
1
40
1
10
-120.21976047467089
20
37.974780468208579
30
0
10
-121.06424733182232
20
37.21203757972485
30
0
10
-122.07742262230339
20
36.174645672452378
30
0
10
-123.18202772197311
20
34.798719382218636
30
0
0
SPLINE
5
488
100
AcDbEntity
8
0
100
AcDbSpline
70
0
71
3
72
8
73
4
74
0
42
0.000000001
43
0.0000000001
44
0.0000000001
40
0
40
0
40
0
40
0
40
1
40
1
40
1
40
1
10
-90.547115510286943
20
135.30146503361982
30
0
10
-90.781412357641614
20
135.5413096200619
30
0
10
-91.052417786993175
20
135.80457277070622
30
0
10
-91.36398121987105
20
136.08785336787741
30
0
0
SPLINE
5
489
100
AcDbEntity
8
0
100
AcDbSpline
70
0
71
3
72
8
73
4
74
0
42
0.000000001
43
0.0000000001
44
0.0000000001
40
0
40
0
40
0
40
0
40
1
40
1
40
1
40
1
10
-63.477221621342494
20
146.33354208034174
30
0
10
-63.961979462351593
20
147.3630781901573
30
0
10
-64.66059236018323
20
148.63376546777482
30
0
10
-65.656621791451059
20
150.09021696179073
30
0
0
SPLINE
5
490
100
AcDbEntity
8
0
100
AcDbSpline
70
0
71
3
72
8
73
4
74
0
42
0.000000001
43
0.0000000001
44
0.0000000001
40
0
40
0
40
0
40
0
40
1
40
1
40
1
40
1
10
26.954406893577886
20
86.986286677067142
30
0
10
25.234527565688207
20
87.38041949715516
30
0
10
23.796344326590543
20
87.565716850871951
30
0
10
22.660833229457367
20
87.640210569542276
30
0
0
SPLINE
5
491
100
AcDbEntity
8
0
100
AcDbSpline
70
0
71
3
72
8
73
4
74
0
42
0.000000001
43
0.0000000001
44
0.0000000001
40
0
40
0
40
0
40
0
40
1
40
1
40
1
40
1
10
-128.48642480587449
20
94.174802356054101
30
0
10
-127.15541957976093
20
93.016462738139225
30
0
10
-125.97440376705589
20
92.175090175800534
30
0
10
-125.00808848048577
20
91.574116355426369
30
0
0
SPLINE
5
492
100
AcDbEntity
8
0
100
AcDbSpline
70
0
71
3
72
8
73
4
74
0
42
0.000000001
43
0.0000000001
44
0.0000000001
40
0
40
0
40
0
40
0
40
1
40
1
40
1
40
1
10
10.480670316340079
20
20.408111376429172
30
0
10
9.6942592110962895
20
21.987631289542769
30
0
10
8.9251222142195701
20
23.216913363987466
30
0
10
8.2623460233469856
20
24.141933626817554
30
0
0
SPLINE
5
493
100
AcDbEntity
8
0
100
AcDbSpline
70
0
71
3
72
8
73
4
74
0
42
0.000000001
43
0.0000000001
44
0.0000000001
40
0
40
0
40
0
40
0
40
1
40
1
40
1
40
1
10
-6.8286470928206322
20
132.65340244663591
30
0
10
-6.4434306847045271
20
133.72416996797375
30
0
10
-6.0389130114149374
20
135.11667547622577
30
0
10
-5.7133454486377824
20
136.8508413692245
30
0
0
SPLINE
5
494
100
AcDbEntity
8
0
100
AcDbSpline
70
0
71
3
72
8
73
4
74
0
42
0.000000001
43
0.0000000001
44
0.0000000001
40
0
40
0
40
0
40
0
40
1
40
1
40
1
40
1
10
-28.604115126011223
20
147.9326949349263
30
0
10
-29.762454743926124
20
146.60168970881273
30
0
10
-30.603827306264829
20
145.4206738961077
30
0
10
-31.204801126638927
20
144.45435860953754
30
0
0
ARC
5
495
100
AcDbEntity
8
0
100
AcDbCircle
10
-41.952820707007696
20
-3.3948145673295778
30
0
40
0.39999999999998059
210
0
220
0
230
1
100
AcDbArc
50
97.427789285638156
51
174.019470930578
0
ARC
5
496
100
AcDbEntity
8
0
100
AcDbCircle
10
-46.657510118090684
20
146.08337364090377
30
0
40
0.39999999999998753
210
0
220
0
230
1
100
AcDbArc
50
266.17778928564007
51
342.7694709305834
0
ARC
5
497
100
AcDbEntity
8
0
100
AcDbCircle
10
-51.666323676506501
20
71.11259380555866
30
0
40
80.207190455425049
210
0
220
0
230
1
100
AcDbArc
50
111.29531369808909
51
112.66468630191099
0
ARC
5
498
100
AcDbEntity
8
0
100
AcDbCircle
10
-51.666323676505769
20
71.112593805559086
30
0
40
74.737913481694704
210
0
220
-0
230
1
100
AcDbArc
50
29.927736918625293
51
30.907263081374186
0
ARC
5
499
100
AcDbEntity
8
0
100
AcDbCircle
10
-51.666323676506742
20
71.112593805558546
30
0
40
80.207190455425092
210
0
220
0
230
1
100
AcDbArc
50
133.79531369808899
51
135.16468630191099
0
SPLINE
5
500
100
AcDbEntity
8
0
100
AcDbSpline
70
0
71
3
72
8
73
4
74
0
42
0.000000001
43
0.0000000001
44
0.0000000001
40
0
40
0
40
0
40
0
40
1
40
1
40
1
40
1
10
-119.35709197429787
20
38.710633210416425
30
0
10
-119.61874675046602
20
38.500973446908205
30
0
10
-119.90730539428158
20
38.257077283952682
30
0
10
-120.21976047467089
20
37.974780468208579
30
0
0
ARC
5
501
100
AcDbEntity
8
0
100
AcDbCircle
10
-51.666323676506572
20
71.112593805558376
30
0
40
74.737913481696154
210
0
220
0
230
1
100
AcDbArc
50
136.80273691862533
51
137.78226308137502
0
ARC
5
502
100
AcDbEntity
8
0
100
AcDbCircle
10
-75.728858702198522
20
142.29335279645537
30
0
40
0.39999999999998764
210
-0
220
0
230
1
100
AcDbArc
50
-71.322210714363351
51
5.2694709305786445
0
ARC
5
503
100
AcDbEntity
8
0
100
AcDbCircle
10
-121.95490507501501
20
97.66859816178787
30
0
40
0.39999999999998381
210
-0
220
0
230
1
100
AcDbArc
50
-20.697210714359194
51
55.894470930569696
0
ARC
5
504
100
AcDbEntity
8
0
100
AcDbCircle
10
-111.99403190926076
20
115.90404010690591
30
0
40
0.39999999999998037
210
0
220
0
230
1
100
AcDbArc
50
246.81552906941928
51
323.40721071436496
0
SPLINE
5
505
100
AcDbEntity
8
0
100
AcDbSpline
70
0
71
3
72
8
73
4
74
0
42
0.000000001
43
0.0000000001
44
0.0000000001
40
0
40
0
40
0
40
0
40
1
40
1
40
1
40
1
10
-75.399690817063842
20
143.46185540367338
30
0
10
-75.386002435096273
20
143.04098452366458
30
0
10
-75.361260174055658
20
142.66397093008496
30
0
10
-75.330549192234244
20
142.33008880429583
30
0
0
SPLINE
5
506
100
AcDbEntity
8
0
100
AcDbSpline
70
0
71
3
72
8
73
4
74
0
42
0.000000001
43
0.0000000001
44
0.0000000001
40
0
40
0
40
0
40
0
40
1
40
1
40
1
40
1
10
-115.85519490456804
20
32.231801971778388
30
0
10
-116.09503949101018
20
31.997505124423725
30
0
10
-116.35830264165443
20
31.726499695072185
30
0
10
-116.6415832388256
20
31.414936262194285
30
0
0
ARC
5
507
100
AcDbEntity
8
0
100
AcDbCircle
10
-51.66632367650665
20
71.112593805558191
30
0
40
80.207190455425064
210
0
220
0
230
1
100
AcDbArc
50
195.67031369808853
51
197.03968630191082
0
SPLINE
5
508
100
AcDbEntity
8
0
100
AcDbSpline
70
0
71
3
72
8
73
4
74
0
42
0.000000001
43
0.0000000001
44
0.0000000001
40
0
40
0
40
0
40
0
40
1
40
1
40
1
40
1
10
-39.855425731671048
20
-4.108354469224623
30
0
10
-39.370667890661942
20
-5.1378905790401603
30
0
10
-38.672054992830198
20
-6.4085778566576668
30
0
10
-37.676025561562462
20
-7.8650293506735638
30
0
0
ARC
5
509
100
AcDbEntity
8
0
100
AcDbCircle
10
-51.666323676506529
20
71.112593805558959
30
0
40
80.207190455425078
210
0
220
0
230
1
100
AcDbArc
50
150.67031369808919
51
152.03968630191102
0
SPLINE
5
510
100
AcDbEntity
8
0
100
AcDbSpline
70
0
71
3
72
8
73
4
74
0
42
0.000000001
43
0.0000000001
44
0.0000000001
40
0
40
0
40
0
40
0
40
1
40
1
40
1
40
1
10
-116.21454520687158
20
109.39384588044923
30
0
10
-116.53423853411765
20
109.49492315207979
30
0
10
-116.89734537515683
20
109.59934944769394
30
0
10
-117.30565734091792
20
109.7023106445435
30
0
0
ARC
5
511
100
AcDbEntity
8
0
100
AcDbCircle
10
-51.666323676506877
20
71.112593805558873
30
0
40
80.207190455425135
210
0
220
0
230
1
100
AcDbArc
50
201.29531369808907
51
202.66468630191099
0
ARC
5
512
100
AcDbEntity
8
0
100
AcDbCircle
10
-76.942185592971271
20
141.8715992166199
30
0
40
0.39999999999999025
210
0
220
0
230
1
100
AcDbArc
50
213.0655290694238
51
289.65721071435905
0
ARC
5
513
100
AcDbEntity
8
0
100
AcDbCircle
10
23.383018136380642
20
74.759830545224332
30
0
40
0.39999999999999225
210
0
220
0
230
1
100
AcDbArc
50
106.1905290694217
51
182.782210714385
0
ARC
5
514
100
AcDbEntity
8
0
100
AcDbCircle
10
-51.666323676506735
20
71.112593805558845
30
0
40
80.20719045542512
210
-0
220
0
230
1
100
AcDbArc
50
353.17031369808871
51
354.53968630191093
0
ARC
5
515
100
AcDbEntity
8
0
100
AcDbCircle
10
-51.666323676506885
20
71.112593805558959
30
0
40
80.207190455425092
210
0
220
-0
230
1
100
AcDbArc
50
15.670313698088579
51
17.039686301910585
0
ARC
5
516
100
AcDbEntity
8
0
100
AcDbCircle
10
-51.666323676507027
20
71.112593805558603
30
0
40
80.207190455425092
210
0
220
-0
230
1
100
AcDbArc
50
77.545313698088705
51
78.914686301910706
0
SPLINE
5
517
100
AcDbEntity
8
0
100
AcDbSpline
70
0
71
3
72
8
73
4
74
0
42
0.000000001
43
0.0000000001
44
0.0000000001
40
0
40
0
40
0
40
0
40
1
40
1
40
1
40
1
10
-26.713368449975622
20
141.88884115321827
30
0
10
-26.67660242393589
20
142.22211086029523
30
0
10
-26.645021280855104
20
142.59861326483855
30
0
10
-26.623696167415766
20
143.01916636371794
30
0
0
ARC
5
518
100
AcDbEntity
8
0
100
AcDbCircle
10
23.434400943772662
20
73.476320501211873
30
0
40
0.40000000000001046
210
0
220
0
230
1
100
AcDbArc
50
181.80278928563919
51
258.39447093057618
0
SPLINE
5
519
100
AcDbEntity
8
0
100
AcDbSpline
70
0
71
3
72
8
73
4
74
0
42
0.000000001
43
0.0000000001
44
0.0000000001
40
0
40
0
40
0
40
0
40
1
40
1
40
1
40
1
10
-33.092771453321078
20
-1.598824286560689
30
0
10
-32.938186557919082
20
-1.8963540303503028
30
0
10
-32.755271790087967
20
-2.2269498817072657
30
0
10
-32.539356190750176
20
-2.5884746020278566
30
0
0
ARC
5
520
100
AcDbEntity
8
0
100
AcDbCircle
10
19.514435314390038
20
95.175128831250333
30
0
40
0.39999999999996644
210
0
220
0
230
1
100
AcDbArc
50
198.67778928565258
51
275.26947093057635
0
ARC
5
521
100
AcDbEntity
8
0
100
AcDbCircle
10
20.886742596321017
20
51.573949615302148
30
0
40
0.40000000000003211
210
0
220
0
230
1
100
AcDbArc
50
164.9277892856843
51
241.51947093057609
0
ARC
5
522
100
AcDbEntity
8
0
100
AcDbCircle
10
22.66414332715291
20
82.098389971546553
30
0
40
0.39999999999998787
210
0
220
0
230
1
100
AcDbArc
50
111.8155290694242
51
188.40721071438429
0
SPLINE
5
523
100
AcDbEntity
8
0
100
AcDbSpline
70
0
71
3
72
8
73
4
74
0
42
0.000000001
43
0.0000000001
44
0.0000000001
40
0
40
0
40
0
40
0
40
1
40
1
40
1
40
1
10
-5.7911320702179019
20
10.341258747760056
30
0
10
-4.8782938595607819
20
9.6618022245017148
30
0
10
-3.6631744532198196
20
8.8704799343762879
30
0
10
-2.0981884362434311
20
8.0555294149940657
30
0
0
ARC
5
524
100
AcDbEntity
8
0
100
AcDbCircle
10
-51.666323676507048
20
71.112593805558589
30
0
40
80.20719045542512
210
0
220
-0
230
1
100
AcDbArc
50
83.170313698088677
51
84.539686301910919
0
SPLINE
5
525
100
AcDbEntity
8
0
100
AcDbSpline
70
0
71
3
72
8
73
4
74
0
42
0.000000001
43
0.0000000001
44
0.0000000001
40
0
40
0
40
0
40
0
40
1
40
1
40
1
40
1
10
28.176914442783982
20
63.480377392282932
30
0
10
26.64550325980894
20
64.356793601074131
30
0
10
25.323036690662171
20
64.951594670344321
30
0
10
24.258044705225615
20
65.352502186848781
30
0
0
ARC
5
526
100
AcDbEntity
8
0
100
AcDbCircle
10
-96.394070513365904
20
131.48754478094747
30
0
40
0.4000000000000099
210
0
220
0
230
1
100
AcDbArc
50
229.9405290694184
51
306.53221071459075
0
ARC
5
527
100
AcDbEntity
8
0
100
AcDbCircle
10
-124.21938994933454
20
90.651237995814995
30
0
40
0.3999999999999832
210
-0
220
0
230
1
100
AcDbArc
50
-15.072210714367047
51
61.519470930569085
0
ARC
5
528
100
AcDbEntity
8
0
100
AcDbCircle
10
-51.666323676505741
20
71.112593805559698
30
0
40
74.737913481694406
210
0
220
-0
230
1
100
AcDbArc
50
63.677736918625598
51
64.657263081374907
0
SPLINE
5
529
100
AcDbEntity
8
0
100
AcDbSpline
70
0
71
3
72
8
73
4
74
0
42
0.000000001
43
0.0000000001
44
0.0000000001
40
0
40
0
40
0
40
0
40
1
40
1
40
1
40
1
10
-125.36739208409317
20
51.985626319801966
30
0
10
-126.34445611881118
20
51.402290534945024
30
0
10
-127.54054865142996
20
50.582492515961519
30
0
10
-128.89235897687655
20
49.448502028175653
30
0
0
ARC
5
530
100
AcDbEntity
8
0
100
AcDbCircle
10
-111.21950120441977
20
116.92880369585455
30
0
40
0.39999999999990332
210
-0
220
0
230
1
100
AcDbArc
50
-37.572210714427278
51
39.019470930574606
0
SPLINE
5
531
100
AcDbEntity
8
0
100
AcDbSpline
70
0
71
3
72
8
73
4
74
0
42
0.000000001
43
0.0000000001
44
0.0000000001
40
0
40
0
40
0
40
0
40
1
40
1
40
1
40
1
10
23.922917384945276
20
80.275290208617321
30
0
10
23.507462950036249
20
80.3439726805791
30
0
10
23.132866591267749
20
80.393257538522462
30
0
10
22.799408501571016
20
80.428273831040997
30
0
0
SPLINE
5
532
100
AcDbEntity
8
0
100
AcDbSpline
70
0
71
3
72
8
73
4
74
0
42
0.000000001
43
0.0000000001
44
0.0000000001
40
0
40
0
40
0
40
0
40
1
40
1
40
1
40
1
10
22.515495538125201
20
82.469744027424781
30
0
10
22.826744564260718
20
82.594421539653808
30
0
10
23.173677288699203
20
82.744051462927331
30
0
10
23.554624598276419
20
82.923491750394305
30
0
0
ARC
5
533
100
AcDbEntity
8
0
100
AcDbCircle
10
-51.666323676506885
20
71.11259380555876
30
0
40
74.737913481695642
210
0
220
0
230
1
100
AcDbArc
50
153.67773691862536
51
154.65726308137502
0
ARC
5
534
100
AcDbEntity
8
0
100
AcDbCircle
10
22.841084696381287
20
80.826096775057721
30
0
40
0.39999999999998181
210
0
220
0
230
1
100
AcDbArc
50
187.42778928563703
51
264.01947093057458
0
ARC
5
535
100
AcDbEntity
8
0
100
AcDbCircle
10
-51.666323676506579
20
71.112593805558461
30
0
40
74.737913481695699
210
0
220
-0
230
1
100
AcDbArc
50
18.677736918625374
51
19.657263081374715
0
ARC
5
536
100
AcDbEntity
8
0
100
AcDbCircle
10
21.210155614243543
20
52.81710778939528
30
0
40
0.39999999999995584
210
0
220
-0
230
1
100
AcDbArc
50
89.315529069427669
51
165.90721071429491
0
SPLINE
5
537
100
AcDbEntity
8
0
100
AcDbSpline
70
0
71
3
72
8
73
4
74
0
42
0.000000001
43
0.0000000001
44
0.0000000001
40
0
40
0
40
0
40
0
40
1
40
1
40
1
40
1
10
-117.30565734091792
20
109.7023106445435
30
0
10
-118.40902663470152
20
109.98071855996486
30
0
10
-119.83447651386938
20
110.24679896227968
30
0
10
-121.59220312558516
20
110.40082084656653
30
0
0
ARC
5
538
100
AcDbEntity
8
0
100
AcDbCircle
10
-51.66632367650638
20
71.112593805558447
30
0
40
80.207190455425007
210
0
220
-0
230
1
100
AcDbArc
50
71.92031369808916
51
73.289686301911175
0
ARC
5
539
100
AcDbEntity
8
0
100
AcDbCircle
10
-51.666323676505719
20
71.112593805558134
30
0
40
74.73791348169479
210
-0
220
0
230
1
100
AcDbArc
50
356.17773691862612
51
357.15726308137488
0
SPLINE
5
540
100
AcDbEntity
8
0
100
AcDbSpline
70
0
71
3
72
8
73
4
74
0
42
0.000000001
43
0.0000000001
44
0.0000000001
40
0
40
0
40
0
40
0
40
1
40
1
40
1
40
1
10
21.214934009133891
20
53.217079247054755
30
0
10
21.550202632213132
20
53.213156403125865
30
0
10
21.927987568103031
20
53.218631020901476
30
0
10
22.348605815499091
20
53.238630005821015
30
0
0
SPLINE
5
541
100
AcDbEntity
8
0
100
AcDbSpline
70
0
71
3
72
8
73
4
74
0
42
0.000000001
43
0.0000000001
44
0.0000000001
40
0
40
0
40
0
40
0
40
1
40
1
40
1
40
1
10
-123.57289623466615
20
96.155221314649566
30
0
10
-124.70937928672952
20
96.213023029215606
30
0
10
-126.1593492575397
20
96.19589929526505
30
0
10
-127.91334982428654
20
96.004046241537651
30
0
0
ARC
5
542
100
AcDbEntity
8
0
100
AcDbCircle
10
-49.302596980853465
20
-3.9881308147208703
30
0
40
0.40000000000001446
210
0
220
0
230
1
100
AcDbArc
50
91.802789285653475
51
168.39447093057555
0
ARC
5
543
100
AcDbEntity
8
0
100
AcDbCircle
10
-51.666323676506664
20
71.112593805558816
30
0
40
80.207190455425064
210
-0
220
0
230
1
100
AcDbArc
50
336.29531369808865
51
337.66468630191099
0
SPLINE
5
544
100
AcDbEntity
8
0
100
AcDbSpline
70
0
71
3
72
8
73
4
74
0
42
0.000000001
43
0.0000000001
44
0.0000000001
40
0
40
0
40
0
40
0
40
1
40
1
40
1
40
1
10
-24.11457889761024
20
142.09561803853614
30
0
10
-24.370995295037368
20
141.76159663118199
30
0
10
-24.591044160418349
20
141.45446485804604
30
0
10
-24.779116828740349
20
141.17688764400245
30
0
0
SPLINE
5
545
100
AcDbEntity
8
0
100
AcDbSpline
70
0
71
3
72
8
73
4
74
0
42
0.000000001
43
0.0000000001
44
0.0000000001
40
0
40
0
40
0
40
0
40
1
40
1
40
1
40
1
10
24.258044705225615
20
65.352502186848781
30
0
10
23.863972396360516
20
65.500916083860062
30
0
10
23.506188800394384
20
65.622334071335871
30
0
10
23.185969354171704
20
65.721731981710164
30
0
0
ARC
5
546
100
AcDbEntity
8
0
100
AcDbCircle
10
-51.666323676506735
20
71.112593805559413
30
0
40
74.737913481695003
210
0
220
0
230
1
100
AcDbArc
50
108.67773691862558
51
109.65726308137495
0
ARC
5
547
100
AcDbEntity
8
0
100
AcDbCircle
10
-101.13690445606791
20
127.66670665083009
30
0
40
0.39999999999997371
210
-0
220
0
230
1
100
AcDbArc
50
-48.822210714367088
51
27.769470930569987
0
SPLINE
5
548
100
AcDbEntity
8
0
100
AcDbSpline
70
0
71
3
72
8
73
4
74
0
42
0.000000001
43
0.0000000001
44
0.0000000001
40
0
40
0
40
0
40
0
40
1
40
1
40
1
40
1
10
16.024444621284367
20
103.51455440070069
30
0
10
16.286099397452464
20
103.72421416420889
30
0
10
16.574658041268037
20
103.96811032716445
30
0
10
16.88711312165735
20
104.25040714290856
30
0
0
ARC
5
549
100
AcDbEntity
8
0
100
AcDbCircle
10
-51.666323676507091
20
71.112593805558532
30
0
40
80.207190455425092
210
-0
220
0
230
1
100
AcDbArc
50
274.42031369808899
51
275.78968630191099
0
ARC
5
550
100
AcDbEntity
8
0
100
AcDbCircle
10
-51.666323676504533
20
71.11259380555714
30
0
40
74.737913481693198
210
-0
220
0
230
1
100
AcDbArc
50
328.05273691862538
51
329.03226308137482
0
ARC
5
551
100
AcDbEntity
8
0
100
AcDbCircle
10
-51.66632367650675
20
71.112593805558561
30
0
40
80.207190455425049
210
0
220
-0
230
1
100
AcDbArc
50
88.79531369808889
51
90.164686301911104
0
ARC
5
552
100
AcDbEntity
8
0
100
AcDbCircle
10
-51.666323676506934
20
71.11259380555866
30
0
40
80.207190455425078
210
0
220
-0
230
1
100
AcDbArc
50
55.045313698088719
51
56.414686301910997
0
SPLINE
5
553
100
AcDbEntity
8
0
100
AcDbSpline
70
0
71
3
72
8
73
4
74
0
42
0.000000001
43
0.0000000001
44
0.0000000001
40
0
40
0
40
0
40
0
40
1
40
1
40
1
40
1
10
-75.169759559218051
20
147.79885008698164
30
0
10
-75.393416868618189
20
146.04862067621156
30
0
10
-75.436855356563598
20
144.5992003657837
30
0
10
-75.399690817063842
20
143.46185540367338
30
0
0
ARC
5
554
100
AcDbEntity
8
0
100
AcDbCircle
10
-7.9772296800531599
20
9.9818396129933422
30
0
40
0.39999999999998564
210
0
220
0
230
1
100
AcDbArc
50
125.55278928564003
51
202.14447093057461
0
SPLINE
5
555
100
AcDbEntity
8
0
100
AcDbSpline
70
0
71
3
72
8
73
4
74
0
42
0.000000001
43
0.0000000001
44
0.0000000001
40
0
40
0
40
0
40
0
40
1
40
1
40
1
40
1
10
22.523375937050044
20
40.631749460248237
30
0
10
21.312317001779419
20
41.914972682323757
30
0
10
20.219457035529167
20
42.868053598449706
30
0
10
19.316700556470828
20
43.560849026662034
30
0
0
ARC
5
556
100
AcDbEntity
8
0
100
AcDbCircle
10
-51.666323676506124
20
71.112593805558987
30
0
40
74.737913481695216
210
0
220
-0
230
1
100
AcDbArc
50
1.802736918624934
51
2.7822630813741678
0
ARC
5
557
100
AcDbEntity
8
0
100
AcDbCircle
10
-51.666323676507005
20
71.11259380555866
30
0
40
80.207190455425092
210
0
220
-0
230
1
100
AcDbArc
50
66.295313698088691
51
67.664686301910947
0
SPLINE
5
558
100
AcDbEntity
8
0
100
AcDbSpline
70
0
71
3
72
8
73
4
74
0
42
0.000000001
43
0.0000000001
44
0.0000000001
40
0
40
0
40
0
40
0
40
1
40
1
40
1
40
1
10
23.271485189693678
20
75.143966461018877
30
0
10
23.593455999907427
20
75.237535877476574
30
0
10
23.953384445638378
20
75.35243993823525
30
0
10
24.350085613633894
20
75.493676805771102
30
0
0
ARC
5
559
100
AcDbEntity
8
0
100
AcDbCircle
10
-51.666323676507126
20
71.112593805558362
30
0
40
80.207190455425049
210
0
220
0
230
1
100
AcDbArc
50
116.92031369808855
51
118.28968630191081
0
SPLINE
5
560
100
AcDbEntity
8
0
100
AcDbSpline
70
0
71
3
72
8
73
4
74
0
42
0.000000001
43
0.0000000001
44
0.0000000001
40
0
40
0
40
0
40
0
40
1
40
1
40
1
40
1
10
19.316700556470828
20
43.560849026662034
30
0
10
18.982679149116677
20
43.817265424089165
30
0
10
18.675547375980706
20
44.037314289470231
30
0
10
18.397970161937124
20
44.225386957792232
30
0
0
ARC
5
561
100
AcDbEntity
8
0
100
AcDbCircle
10
-106.44196250289797
20
122.54541828121347
30
0
40
0.39999999999997471
210
-0
220
0
230
1
100
AcDbArc
50
-43.197210714361709
51
33.39447093058191
0
SPLINE
5
562
100
AcDbEntity
8
0
100
AcDbSpline
70
0
71
3
72
8
73
4
74
0
42
0.000000001
43
0.0000000001
44
0.0000000001
40
0
40
0
40
0
40
0
40
1
40
1
40
1
40
1
10
19.178487057745418
20
33.506660859003141
30
0
10
18.099037572896513
20
34.902409544129611
30
0
10
17.104858291994145
20
35.958020123813348
30
0
10
16.274354658837634
20
36.735965161169894
30
0
0
ARC
5
563
100
AcDbEntity
8
0
100
AcDbCircle
10
-26.315791328810526
20
141.84488170911209
30
0
40
0.39999999999998481
210
0
220
0
230
1
100
AcDbArc
50
173.69052906942227
51
250.28221071438523
0
SPLINE
5
564
100
AcDbEntity
8
0
100
AcDbSpline
70
0
71
3
72
8
73
4
74
0
42
0.000000001
43
0.0000000001
44
0.0000000001
40
0
40
0
40
0
40
0
40
1
40
1
40
1
40
1
10
21.675441127472229
20
50.651071255690624
30
0
10
21.317894922482484
20
50.873513114920627
30
0
10
20.990673512264365
20
51.062398206762253
30
0
10
20.695998563252871
20
51.222357929039653
30
0
0
SPLINE
5
565
100
AcDbEntity
8
0
100
AcDbSpline
70
0
71
3
72
8
73
4
74
0
42
0.000000001
43
0.0000000001
44
0.0000000001
40
0
40
0
40
0
40
0
40
1
40
1
40
1
40
1
10
-68.193940440490451
20
145.43975071152266
30
0
10
-68.221570531929899
20
145.01956474378068
30
0
10
-68.233901205946978
20
144.64194140802994
30
0
10
-68.236064277074234
20
144.30665681332087
30
0
0
ARC
5
566
100
AcDbEntity
8
0
100
AcDbCircle
10
-51.666323676506671
20
71.112593805558646
30
0
40
80.207190455425092
210
0
220
0
230
1
100
AcDbArc
50
139.42031369808899
51
140.78968630191122
0
ARC
5
567
100
AcDbEntity
8
0
100
AcDbCircle
10
-51.666323676506636
20
71.112593805560479
30
0
40
74.737913481697774
210
-0
220
0
230
1
100
AcDbArc
50
277.42773691862493
51
278.40726308137437
0
SPLINE
5
568
100
AcDbEntity
8
0
100
AcDbSpline
70
0
71
3
72
8
73
4
74
0
42
0.000000001
43
0.0000000001
44
0.0000000001
40
0
40
0
40
0
40
0
40
1
40
1
40
1
40
1
10
23.327860410724544
20
57.938349132280479
30
0
10
22.950232773507739
20
58.124674216610082
30
0
10
22.606073047265337
20
58.280576468222655
30
0
10
22.297138244130714
20
58.410882744886983
30
0
0
ARC
5
569
100
AcDbEntity
8
0
100
AcDbCircle
10
-122.42532908756809
20
45.836731889094153
30
0
40
0.39999999999998531
210
-0
220
0
230
1
100
AcDbArc
50
-56.9344709305796
51
19.657210714464203
0
SPLINE
5
570
100
AcDbEntity
8
0
100
AcDbSpline
70
0
71
3
72
8
73
4
74
0
42
0.000000001
43
0.0000000001
44
0.0000000001
40
0
40
0
40
0
40
0
40
1
40
1
40
1
40
1
10
-89.058301565176109
20
137.44153439105403
30
0
10
-88.962768366121622
20
137.03142089783697
30
0
10
-88.864949817313303
20
136.66647849041607
30
0
10
-88.769691766960506
20
136.34500323138519
30
0
0
ARC
5
571
100
AcDbEntity
8
0
100
AcDbCircle
10
-51.666323676506977
20
71.112593805558944
30
0
40
80.207190455425092
210
0
220
-0
230
1
100
AcDbArc
50
26.920313698088609
51
28.28968630191082
0
SPLINE
5
572
100
AcDbEntity
8
0
100
AcDbSpline
70
0
71
3
72
8
73
4
74
0
42
0.000000001
43
0.0000000001
44
0.0000000001
40
0
40
0
40
0
40
0
40
1
40
1
40
1
40
1
10
-35.138706912523084
20
-3.2145631004055746
30
0
10
-35.111076821083635
20
-2.7943771326634459
30
0
10
-35.098746147066556
20
-2.4167537969128445
30
0
10
-35.096583075939314
20
-2.081469202203758
30
0
0
SPLINE
5
573
100
AcDbEntity
8
0
100
AcDbSpline
70
0
71
3
72
8
73
4
74
0
42
0.000000001
43
0.0000000001
44
0.0000000001
40
0
40
0
40
0
40
0
40
1
40
1
40
1
40
1
10
-123.13773063902927
20
44.853759931632986
30
0
10
-124.05291293787758
20
44.177464045420052
30
0
10
-125.16289170055791
20
43.244376008354728
30
0
10
-126.39704218502655
20
41.983345412350381
30
0
0
ARC
5
574
100
AcDbEntity
8
0
100
AcDbCircle
10
-51.666323676506387
20
71.112593805558348
30
0
40
80.207190455425078
210
0
220
-0
230
1
100
AcDbArc
50
60.670313698089181
51
62.039686301911416
0
SPLINE
5
575
100
AcDbEntity
8
0
100
AcDbSpline
70
0
71
3
72
8
73
4
74
0
42
0.000000001
43
0.0000000001
44
0.0000000001
40
0
40
0
40
0
40
0
40
1
40
1
40
1
40
1
10
-112.15150902076344
20
115.53634327614344
30
0
10
-112.45975563214023
20
115.66826925880299
30
0
10
-112.81087844762135
20
115.80778340745383
30
0
10
-113.20713231758415
20
115.95027038924457
30
0
0
ARC
5
576
100
AcDbEntity
8
0
100
AcDbCircle
10
-51.666323676506458
20
71.112593805558589
30
0
40
80.207190455425092
210
0
220
0
230
1
100
AcDbArc
50
94.420313698089103
51
95.789686301911402
0
ARC
5
577
100
AcDbEntity
8
0
100
AcDbCircle
10
-120.14578698488376
20
40.188992020200025
30
0
40
0.39999999999998753
210
0
220
-0
230
1
100
AcDbArc
50
24.302789285559751
51
100.89447093057349
0
ARC
5
578
100
AcDbEntity
8
0
100
AcDbCircle
10
-51.666323676507531
20
71.112593805560152
30
0
40
74.737913481697618
210
-0
220
0
230
1
100
AcDbArc
50
305.55273691862504
51
306.53226308137437
0
ARC
5
579
100
AcDbEntity
8
0
100
AcDbCircle
10
-25.110319320277451
20
141.40117520406679
30
0
40
0.40000000000001745
210
0
220
0
230
1
100
AcDbArc
50
249.30278928563607
51
325.89447093057731
0
SPLINE
5
580
100
AcDbEntity
8
0
100
AcDbSpline
70
0
71
3
72
8
73
4
74
0
42
0.000000001
43
0.0000000001
44
0.0000000001
40
0
40
0
40
0
40
0
40
1
40
1
40
1
40
1
10
24.350085613633894
20
75.493676805771102
30
0
10
25.422178803007867
20
75.875188219927779
30
0
10
26.755223412512294
20
76.445887972500856
30
0
10
28.302289651032812
20
77.294364039342398
30
0
0
SPLINE
5
581
100
AcDbEntity
8
0
100
AcDbSpline
70
0
71
3
72
8
73
4
74
0
42
0.000000001
43
0.0000000001
44
0.0000000001
40
0
40
0
40
0
40
0
40
1
40
1
40
1
40
1
10
12.522547551554508
20
109.99338563933873
30
0
10
12.76239213799666
20
110.22768248669337
30
0
10
13.0256552886409
20
110.49868791604484
30
0
10
13.308935885812092
20
110.81025134892286
30
0
0
ARC
5
582
100
AcDbEntity
8
0
100
AcDbCircle
10
-51.666323676507048
20
71.112593805558518
30
0
40
80.207190455425049
210
-0
220
0
230
1
100
AcDbArc
50
280.0453136980891
51
281.41468630191105
0
SPLINE
5
583
100
AcDbEntity
8
0
100
AcDbSpline
70
0
71
3
72
8
73
4
74
0
42
0.000000001
43
0.0000000001
44
0.0000000001
40
0
40
0
40
0
40
0
40
1
40
1
40
1
40
1
10
-6.9140926975387416
20
4.551109273151102
30
0
10
-7.2081307764190328
20
6.2908986829766409
30
0
10
-7.5873072421994356
20
7.6905169689082076
30
0
10
-7.9530253043589436
20
8.7680999424393509
30
0
0
ARC
5
584
100
AcDbEntity
8
0
100
AcDbCircle
10
19.092681734554557
20
96.388455722023068
30
0
40
0.39999999999999758
210
0
220
0
230
1
100
AcDbArc
50
123.06552906942129
51
199.65721071438125
0
ARC
5
585
100
AcDbEntity
8
0
100
AcDbCircle
10
-51.666323676506465
20
71.112593805558618
30
0
40
80.207190455425092
210
0
220
0
230
1
100
AcDbArc
50
100.045313698089
51
101.414686301911
0
ARC
5
586
100
AcDbEntity
8
0
100
AcDbCircle
10
-51.666323676506664
20
71.112593805558745
30
0
40
80.207190455425092
210
-0
220
0
230
1
100
AcDbArc
50
325.04531369808893
51
326.41468630191002
0
SPLINE
5
587
100
AcDbEntity
8
0
100
AcDbSpline
70
0
71
3
72
8
73
4
74
0
42
0.000000001
43
0.0000000001
44
0.0000000001
40
0
40
0
40
0
40
0
40
1
40
1
40
1
40
1
10
23.744158517661415
20
60.579429757468503
30
0
10
24.870080921660652
20
60.744455531232916
30
0
10
26.288849451287408
20
61.044125345956289
30
0
10
27.971718714940266
20
61.574480532435665
30
0
0
ARC
5
588
100
AcDbEntity
8
0
100
AcDbCircle
10
-51.666323676505925
20
71.112593805556827
30
0
40
74.737913481697774
210
0
220
0
230
1
100
AcDbArc
50
119.92773691862519
51
120.90726308137451
0
SPLINE
5
589
100
AcDbEntity
8
0
100
AcDbSpline
70
0
71
3
72
8
73
4
74
0
42
0.000000001
43
0.0000000001
44
0.0000000001
40
0
40
0
40
0
40
0
40
1
40
1
40
1
40
1
10
-13.076606837521936
20
136.75192746996973
30
0
10
-12.798198922100493
20
137.8552967637533
30
0
10
-12.532118519785742
20
139.28074664292129
30
0
10
-12.378096635498784
20
141.03847325463698
30
0
0
SPLINE
5
590
100
AcDbEntity
8
0
100
AcDbSpline
70
0
71
3
72
8
73
4
74
0
42
0.000000001
43
0.0000000001
44
0.0000000001
40
0
40
0
40
0
40
0
40
1
40
1
40
1
40
1
10
-38.492079003228781
20
146.10677789278986
30
0
10
-38.678404087558285
20
145.72915025557307
30
0
10
-38.834306339170965
20
145.38499052933065
30
0
10
-38.964612615835186
20
145.07605572619605
30
0
0
ARC
5
591
100
AcDbEntity
8
0
100
AcDbCircle
10
-126.71177411082041
20
74.839041375800434
30
0
40
0.39999999999998898
210
-0
220
0
230
1
100
AcDbArc
50
280.56552906942488
51
357.15721071424269
0
SPLINE
5
592
100
AcDbEntity
8
0
100
AcDbSpline
70
0
71
3
72
8
73
4
74
0
42
0.000000001
43
0.0000000001
44
0.0000000001
40
0
40
0
40
0
40
0
40
1
40
1
40
1
40
1
10
-17.28969503211821
20
139.05327214090295
30
0
10
-17.577616537663651
20
138.74599233993195
30
0
10
-17.826709985719507
20
138.46190805074869
30
0
10
-18.041084357479303
20
138.20410179198342
30
0
0
ARC
5
593
100
AcDbEntity
8
0
100
AcDbCircle
10
-51.666323676506451
20
71.112593805559712
30
0
40
74.737913481694662
210
0
220
-0
230
1
100
AcDbArc
50
74.927736918625286
51
75.907263081374211
0
ARC
5
594
100
AcDbEntity
8
0
100
AcDbCircle
10
-125.98515402054787
20
82.176837958523208
30
0
40
0.40000000000000491
210
-0
220
0
230
1
100
AcDbArc
50
274.94052906941295
51
351.53221071439765
0
ARC
5
595
100
AcDbEntity
8
0
100
AcDbCircle
10
-51.666323676508483
20
71.112593805559769
30
0
40
74.737913481693823
210
0
220
0
230
1
100
AcDbArc
50
125.55273691862482
51
126.53226308137297
0
SPLINE
5
596
100
AcDbEntity
8
0
100
AcDbSpline
70
0
71
3
72
8
73
4
74
0
42
0.000000001
43
0.0000000001
44
0.0000000001
40
0
40
0
40
0
40
0
40
1
40
1
40
1
40
1
10
-82.573151634585216
20
145.12584522935813
30
0
10
-82.624179491144474
20
143.36212140170596
30
0
10
-82.525340776933717
20
141.9154227298711
30
0
10
-82.376875894095519
20
140.78719715650476
30
0
0
ARC
5
597
100
AcDbEntity
8
0
100
AcDbCircle
10
-51.666323676506764
20
71.112593805558561
30
0
40
80.207190455425092
210
0
220
0
230
1
100
AcDbArc
50
178.79531369808916
51
180.16468630190997
0
ARC
5
598
100
AcDbEntity
8
0
100
AcDbCircle
10
-47.939876106264911
20
146.15804423987225
30
0
40
0.39999999999998032
210
0
220
0
230
1
100
AcDbArc
50
190.56552906943543
51
267.1572107143752
0
ARC
5
599
100
AcDbEntity
8
0
100
AcDbCircle
10
-119.01350273818065
20
104.43020948882165
30
0
40
0.40000000000000036
210
-0
220
0
230
1
100
AcDbArc
50
-26.322210714363091
51
50.269470930573341
0
SPLINE
5
600
100
AcDbEntity
8
0
100
AcDbSpline
70
0
71
3
72
8
73
4
74
0
42
0.000000001
43
0.0000000001
44
0.0000000001
40
0
40
0
40
0
40
0
40
1
40
1
40
1
40
1
10
-102.72722680123897
20
132.96708089291172
30
0
10
-102.26407541335048
20
131.26448981626714
30
0
10
-101.74953820395224
20
129.90877686779299
30
0
10
-101.27995957268973
20
128.87222938943253
30
0
0
SPLINE
5
601
100
AcDbEntity
8
0
100
AcDbSpline
70
0
71
3
72
8
73
4
74
0
42
0.000000001
43
0.0000000001
44
0.0000000001
40
0
40
0
40
0
40
0
40
1
40
1
40
1
40
1
10
-48.575399507860475
20
147.19238453479625
30
0
10
-48.849990331691053
20
148.29670996024927
30
0
10
-49.287280788412026
20
149.67927395333479
30
0
10
-49.980032202479443
20
151.30205584277047
30
0
0
ARC
5
602
100
AcDbEntity
8
0
100
AcDbCircle
10
-51.666323676506785
20
71.112593805558291
30
0
40
80.20719045542512
210
0
220
0
230
1
100
AcDbArc
50
173.17031369808871
51
174.53968630191099
0
SPLINE
5
603
100
AcDbEntity
8
0
100
AcDbSpline
70
0
71
3
72
8
73
4
74
0
42
0.000000001
43
0.0000000001
44
0.0000000001
40
0
40
0
40
0
40
0
40
1
40
1
40
1
40
1
10
-127.74611440574448
20
74.203517974204857
30
0
10
-128.85043983119749
20
73.928927150374278
30
0
10
-130.233003824283
20
73.491636693653305
30
0
10
-131.85578571371866
20
72.798885279585889
30
0
0
SPLINE
5
604
100
AcDbEntity
8
0
100
AcDbSpline
70
0
71
3
72
8
73
4
74
0
42
0.000000001
43
0.0000000001
44
0.0000000001
40
0
40
0
40
0
40
0
40
1
40
1
40
1
40
1
10
-103.27724617262103
20
127.09474318123917
30
0
10
-104.25228720317773
20
127.68145414463152
30
0
10
-105.53911862540845
20
128.34986347227104
30
0
10
-107.17644792637876
20
129.00749432811412
30
0
0
SPLINE
5
605
100
AcDbEntity
8
0
100
AcDbSpline
70
0
71
3
72
8
73
4
74
0
42
0.000000001
43
0.0000000001
44
0.0000000001
40
0
40
0
40
0
40
0
40
1
40
1
40
1
40
1
10
-130.3770067536706
20
86.53406488581237
30
0
10
-128.93887354464306
20
85.511764315791439
30
0
10
-127.68107571336847
20
84.790202984956267
30
0
10
-126.66050776373807
20
84.286838478836543
30
0
0
ARC
5
606
100
AcDbEntity
8
0
100
AcDbCircle
10
-51.666323676506934
20
71.112593805558163
30
0
40
74.737913481695699
210
0
220
0
230
1
100
AcDbArc
50
176.17773691862504
51
177.15726308137499
0
ARC
5
607
100
AcDbEntity
8
0
100
AcDbCircle
10
-125.78514913390634
20
83.44571000538042
30
0
40
0.39999999999993735
210
-0
220
0
230
1
100
AcDbArc
50
-9.4472107143893567
51
67.14447093058709
0
SPLINE
5
608
100
AcDbEntity
8
0
100
AcDbSpline
70
0
71
3
72
8
73
4
74
0
42
0.000000001
43
0.0000000001
44
0.0000000001
40
0
40
0
40
0
40
0
40
1
40
1
40
1
40
1
10
-125.95070534766762
20
81.778324108153129
30
0
10
-126.28474406663233
20
81.74936599083992
30
0
10
-126.66017325841804
20
81.706888335769634
30
0
10
-127.07680587067493
20
81.645757853648632
30
0
0
SPLINE
5
609
100
AcDbEntity
8
0
100
AcDbSpline
70
0
71
3
72
8
73
4
74
0
42
0.000000001
43
0.0000000001
44
0.0000000001
40
0
40
0
40
0
40
0
40
1
40
1
40
1
40
1
10
-126.63843012972079
20
74.445823038948689
30
0
10
-126.96802196910332
20
74.384262842893094
30
0
10
-127.33747982843735
20
74.305191233567257
30
0
10
-127.74611440574448
20
74.203517974204857
30
0
0
SPLINE
5
610
100
AcDbEntity
8
0
100
AcDbSpline
70
0
71
3
72
8
73
4
74
0
42
0.000000001
43
0.0000000001
44
0.0000000001
40
0
40
0
40
0
40
0
40
1
40
1
40
1
40
1
10
-127.59069205823917
20
76.872685424268354
30
0
10
-127.19661974937407
20
76.724271527257059
30
0
10
-126.83883615340791
20
76.60285353978125
30
0
10
-126.51861670718523
20
76.503455629406972
30
0
0
ARC
5
611
100
AcDbEntity
8
0
100
AcDbCircle
10
-126.63710351185199
20
76.121407363974654
30
0
40
0.39999999999995406
210
-0
220
0
230
1
100
AcDbArc
50
-3.8222107143632194
51
72.769470930573689
0
LWPOLYLINE
5
612
100
AcDbEntity
8
0
100
AcDbPolyline
90
4
70
1
43
0.0
10
-42.849544892125699
20
83.247848721179182
42
0.023272583934260894
10
-44.015546881117089
20
84.014749223430556
42
0.2961152523119161
10
-83.605329234613137
20
132.83900568863163
42
-0.28371780524672646
10
-10.815248642185949
20
127.33927491461384
42
-0.42481166796659986
0
LWPOLYLINE
5
613
100
AcDbEntity
8
0
100
AcDbPolyline
90
4
70
1
43
0.0
10
-51.666323676506636
20
56.112593805553246
42
0.42481166796659953
10
-51.666323676506636
20
1.6125938055532529
42
0.28371780524672513
10
10.454749185235643
20
39.948154030295299
42
-0.29611525231191604
10
-50.272235446738506
20
56.177517039509695
42
-0.023272583934260009
0
LWPOLYLINE
5
614
100
AcDbEntity
8
0
100
AcDbPolyline
90
4
70
1
43
0.0
10
-65.43962880156613
20
65.171544577336832
42
0.29611525231191599
10
-62.108999978373035
20
2.4016011504148427
42
-0.28371780524672574
10
-117.76475155902202
20
49.63591269649109
42
-0.4248116679665998
10
-65.932171420936143
20
66.477338889925733
42
0.0232725839342597
0
LWPOLYLINE
5
615
100
AcDbEntity
8
0
100
AcDbPolyline
90
4
70
1
43
0.0
10
-60.483102460899723
20
83.247848721175203
42
0.42481166796659975
10
-92.517398710839487
20
127.33927491460983
42
0.28371780524672657
10
-120.24132542632005
20
59.811304719191
42
-0.29611525231191588
10
-61.572782610989456
20
82.375900219722354
42
-0.023272583934260564
0
CIRCLE
5
616
100
AcDbEntity
8
0
100
AcDbCircle
10
-51.666323676509975
20
71.112593805553104
30
0
40
2.8499999999999996
210
-0
220
0
230
1
0
LWPOLYLINE
5
617
100
AcDbEntity
8
0
100
AcDbPolyline
90
4
70
1
43
0.0
10
14.432104206004093
20
49.635912696497527
42
0.28371780524672541
10
-2.8307129284794286
20
120.56290343923308
42
-0.29611525231191588
10
-37.031424642138603
20
67.823257967765826
42
-0.023272583934260897
10
-37.400475932081783
20
66.477338889932142
42
0.42481166796659964
0
ENDSEC
0
SECTION
2
OBJECTS
0
DICTIONARY
5
C
100
AcDbDictionary
3
ACAD_GROUP
350
D
3
ACAD_MLINESTYLE
350
17
0
DICTIONARY
5
D
100
AcDbDictionary
0
DICTIONARY
5
1A
330
C
100
AcDbDictionary
0
DICTIONARY
5
17
100
AcDbDictionary
0
ENDSEC
0
EOF
