0
SECTION
2
HEADER
9
$INSUNITS
70
4
9
$ACADVER
1
AC1014
9
$HANDSEED
5
FFFF
0
ENDSEC
0
SECTION
2
TABLES
0
TABLE
2
VPORT
5
8
100
AcDbSymbolTable
0
ENDTAB
0
TABLE
2
LTYPE
5
5
100
AcDbSymbolTable
0
LTYPE
5
14
100
AcDbSymbolTableRecord
100
AcDbLinetypeTableRecord
2
BYBLOCK
70
0
0
LTYPE
5
15
100
AcDbSymbolTableRecord
100
AcDbLinetypeTableRecord
2
BYLAYER
70
0
0
ENDTAB
0
TABLE
2
LAYER
5
2
100
AcDbSymbolTable
70
2
0
LAYER
5
50
100
AcDbSymbolTableRecord
100
AcDbLayerTableRecord
2
0
70
0
6
CONTINUOUS
0
ENDTAB
0
TABLE
2
STYLE
5
3
100
AcDbSymbolTable
70
1
0
STYLE
5
11
100
AcDbSymbolTableRecord
100
AcDbTextStyleTableRecord
2
STANDARD
70
0
0
ENDTAB
0
TABLE
2
VIEW
5
6
100
AcDbSymbolTable
70
0
0
ENDTAB
0
TABLE
2
UCS
5
7
100
AcDbSymbolTable
70
0
0
ENDTAB
0
TABLE
2
APPID
5
9
100
AcDbSymbolTable
70
2
0
APPID
5
12
100
AcDbSymbolTableRecord
100
AcDbRegAppTableRecord
2
ACAD
70
0
0
ENDTAB
0
TABLE
2
DIMSTYLE
5
A
100
AcDbSymbolTable
70
1
0
ENDTAB
0
TABLE
2
BLOCK_RECORD
5
1
100
AcDbSymbolTable
70
1
0
BLOCK_RECORD
5
1F
100
AcDbSymbolTableRecord
100
AcDbBlockTableRecord
2
*MODEL_SPACE
0
BLOCK_RECORD
5
1B
100
AcDbSymbolTableRecord
100
AcDbBlockTableRecord
2
*PAPER_SPACE
0
ENDTAB
0
ENDSEC
0
SECTION
2
BLOCKS
0
BLOCK
5
20
100
AcDbEntity
100
AcDbBlockBegin
2
*MODEL_SPACE
0
ENDBLK
5
21
100
AcDbEntity
100
AcDbBlockEnd
0
BLOCK
5
1C
100
AcDbEntity
100
AcDbBlockBegin
2
*PAPER_SPACE
0
ENDBLK
5
1D
100
AcDbEntity
100
AcDbBlockEnd
0
ENDSEC
0
SECTION
2
ENTITIES
0
SPLINE
5
100
100
AcDbEntity
8
0
100
AcDbSpline
70
0
71
3
72
8
73
4
74
0
42
0.000000001
43
0.0000000001
44
0.0000000001
40
0
40
0
40
0
40
0
40
1
40
1
40
1
40
1
10
3.3956614187858896
20
9.4081494370683867
30
0
10
3.3512699487157387
20
9.9948077000013189
30
0
10
3.1645837886945816
20
10.840270396423417
30
0
10
2.5986349145174392
20
11.87587858914705
30
0
0
ARC
5
101
100
AcDbEntity
8
0
100
AcDbCircle
10
-5.5113502139293313
20
4.4504273766736286
30
0
40
0.40000000000000302
210
-0
220
0
230
1
100
AcDbArc
50
-38.920950710997694
51
47.842048600087992
0
ARC
5
102
100
AcDbEntity
8
0
100
AcDbCircle
10
-1.9739927331204638e-15
20
3.2148513120765218e-16
30
0
40
12.156866194999036
210
-0
220
0
230
1
100
AcDbArc
50
347.65729166760872
51
353.84270833239157
0
ARC
5
103
100
AcDbEntity
8
0
100
AcDbCircle
10
1.6826975932441395e-14
20
2.8667976576121279e-14
30
0
40
6.6838749999999694
210
0
220
-0
230
1
100
AcDbArc
50
51.079049289008594
51
65.420950710991306
0
LINE
5
104
100
AcDbEntity
8
0
100
AcDbLine
10
-6.4781748391893146
20
-2.8380514034314892
30
0
11
-8.4021384405658726
21
-3.6809288704004279
31
0
0
ARC
5
105
100
AcDbEntity
8
0
100
AcDbCircle
10
-2.4716684711178956
20
6.6386851096061728
30
0
40
0.40000000000000063
210
0
220
0
230
1
100
AcDbArc
50
203.65795139991081
51
290.42095071099749
0
ARC
5
106
100
AcDbEntity
8
0
100
AcDbCircle
10
2.4716684711178956
20
-6.6386851096061728
30
0
40
0.40000000000000091
210
0
220
-0
230
1
100
AcDbArc
50
23.657951399911209
51
110.42095071099845
0
LINE
5
107
100
AcDbEntity
8
0
100
AcDbLine
10
-6.7999707670319411
20
6.1567495718839389
30
0
11
-5.2428795171390252
21
4.7469463220463117
31
0
0
SPLINE
5
108
100
AcDbEntity
8
0
100
AcDbSpline
70
0
71
3
72
8
73
4
74
0
42
0.000000001
43
0.0000000001
44
0.0000000001
40
0
40
0
40
0
40
0
40
1
40
1
40
1
40
1
10
4.2514710495304229
20
-9.0536614812044949
30
0
10
4.6976905950028405
20
-9.4371020076500223
30
0
10
5.4275300505878343
20
-9.9029273638257536
30
0
10
6.5600019130506055
20
-10.235026652817416
30
0
0
ARC
5
109
100
AcDbEntity
8
0
100
AcDbCircle
10
0
20
0
30
0
40
12.156866194999044
210
0
220
0
230
1
100
AcDbArc
50
122.6572916676087
51
128.84270833239128
0
ARC
5
110
100
AcDbEntity
8
0
100
AcDbCircle
10
7.0440404869875355
20
0.75018573253918264
30
0
40
0.40000000000000085
210
0
220
0
230
1
100
AcDbArc
50
186.07904928900794
51
272.8420486000889
0
LINE
5
111
100
AcDbEntity
8
0
100
AcDbLine
10
-6.5875667512252409
20
2.5739559657804367
30
0
11
-8.5440188331177715
21
3.3383993024668053
31
0
0
ARC
5
112
100
AcDbEntity
8
0
100
AcDbCircle
10
-1.9122453796769506e-14
20
-3.0320484178034097e-14
30
0
40
6.6838749999999632
210
0
220
0
230
1
100
AcDbArc
50
231.07904928900865
51
245.42095071099101
0
ARC
5
113
100
AcDbEntity
8
0
100
AcDbCircle
10
5.5113502139293313
20
-4.4504273766736286
30
0
40
0.40000000000000246
210
0
220
0
230
1
100
AcDbArc
50
141.07904928900251
51
227.84204860008882
0
SPLINE
5
114
100
AcDbEntity
8
0
100
AcDbSpline
70
0
71
3
72
8
73
4
74
0
42
0.000000001
43
0.0000000001
44
0.0000000001
40
0
40
0
40
0
40
0
40
1
40
1
40
1
40
1
10
-3.6809288704004279
20
8.4021384405658726
30
0
10
-3.7268932044089285
20
8.4858171742372672
30
0
10
-3.8780237446977117
20
8.7266421609896643
30
0
10
-4.2514710495304229
20
9.0536614812044949
30
0
0
SPLINE
5
115
100
AcDbEntity
8
0
100
AcDbSpline
70
0
71
3
72
8
73
4
74
0
42
0.000000001
43
0.0000000001
44
0.0000000001
40
0
40
0
40
0
40
0
40
1
40
1
40
1
40
1
10
-9.4686266077130021
20
-7.6245987334954144
30
0
10
-8.2893001008982576
20
-7.6689997170746445
30
0
10
-7.4493675260780856
20
-7.4588279703036209
30
0
10
-6.9075537138172827
20
-7.2365478208742449
30
0
0
ARC
5
116
100
AcDbEntity
8
0
100
AcDbCircle
10
0.75018573253917298
20
-7.0440404869875337
30
0
40
0.3999999999999948
210
0
220
0
230
1
100
AcDbArc
50
96.079049289001787
51
182.84204860008899
0
SPLINE
5
117
100
AcDbEntity
8
0
100
AcDbSpline
70
0
71
3
72
8
73
4
74
0
42
0.000000001
43
0.0000000001
44
0.0000000001
40
0
40
0
40
0
40
0
40
1
40
1
40
1
40
1
10
9.4686266077130021
20
7.6245987334954144
30
0
10
8.2893001008982576
20
7.6689997170746445
30
0
10
7.4493675260780741
20
7.4588279703036235
30
0
10
6.9075537138172827
20
7.2365478208742449
30
0
0
ARC
5
118
100
AcDbEntity
8
0
100
AcDbCircle
10
4.4504273766736286
20
5.5113502139293313
30
0
40
0.39999999999999702
210
0
220
0
230
1
100
AcDbArc
50
231.07904928900899
51
317.84204860008799
0
ARC
5
119
100
AcDbEntity
8
0
100
AcDbCircle
10
0
20
0
30
0
40
12.156866194999001
210
0
220
-0
230
1
100
AcDbArc
50
32.65729166760871
51
38.84270833239129
0
LINE
5
120
100
AcDbEntity
8
0
100
AcDbLine
10
9.1617848135850792
20
0.45482606889207633
30
0
11
7.0638735937605466
21
0.35067772526557212
31
0
0
LINE
5
121
100
AcDbEntity
8
0
100
AcDbLine
10
2.8380514034314919
20
-6.478174839189319
30
0
11
3.6809288704004279
21
-8.4021384405658726
31
0
0
LINE
5
122
100
AcDbEntity
8
0
100
AcDbLine
10
6.4781748391893217
20
2.8380514034314923
30
0
11
8.4021384405658726
21
3.6809288704004279
31
0
0
ARC
5
123
100
AcDbEntity
8
0
100
AcDbCircle
10
-2.9465257223922361
20
-6.4419927959371286
30
0
40
0.40000000000000113
210
-0
220
0
230
1
100
AcDbArc
50
-21.342048600088841
51
65.420950710997488
0
SPLINE
5
124
100
AcDbEntity
8
0
100
AcDbSpline
70
0
71
3
72
8
73
4
74
0
42
0.000000001
43
0.0000000001
44
0.0000000001
40
0
40
0
40
0
40
0
40
1
40
1
40
1
40
1
10
6.9075537138172827
20
7.2365478208742449
30
0
10
6.44662584501119
20
7.0451661999441475
30
0
10
6.2268902889560067
20
6.8647405924007785
30
0
10
6.1567495718839389
20
6.7999707670319411
30
0
0
SPLINE
5
125
100
AcDbEntity
8
0
100
AcDbSpline
70
0
71
3
72
8
73
4
74
0
42
0.000000001
43
0.0000000001
44
0.0000000001
40
0
40
0
40
0
40
0
40
1
40
1
40
1
40
1
10
-7.6245987334954144
20
9.4686266077130021
30
0
10
-7.6689997170746445
20
8.2893001008982576
30
0
10
-7.4588279703036235
20
7.4493675260780741
30
0
10
-7.2365478208742449
20
6.9075537138172827
30
0
0
ARC
5
126
100
AcDbEntity
8
0
100
AcDbCircle
10
2.9465257223922361
20
6.4419927959371286
30
0
40
0.40000000000000113
210
0
220
0
230
1
100
AcDbArc
50
158.65795139991116
51
245.42095071099192
0
ARC
5
127
100
AcDbEntity
8
0
100
AcDbCircle
10
-3.5464246277356534e-14
20
-1.2461429933157915e-14
30
0
40
6.6838749999999614
210
0
220
0
230
1
100
AcDbArc
50
186.07904928900899
51
200.42095071099095
0
SPLINE
5
128
100
AcDbEntity
8
0
100
AcDbSpline
70
0
71
3
72
8
73
4
74
0
42
0.000000001
43
0.0000000001
44
0.0000000001
40
0
40
0
40
0
40
0
40
1
40
1
40
1
40
1
10
-10.001390108971432
20
-0.23263396407039394
30
0
10
-9.5401376453466327
20
-0.4232319437869031
30
0
10
-9.2571809729985901
20
-0.45102827494769404
30
0
10
-9.1617848135850792
20
-0.45482606889207633
30
0
0
LINE
5
129
100
AcDbEntity
8
0
100
AcDbLine
10
6.7999707670319411
20
-6.1567495718839389
30
0
11
5.2428795171390243
21
-4.7469463220463215
31
0
0
LINE
5
130
100
AcDbEntity
8
0
100
AcDbLine
10
6.1567495718839389
20
6.7999707670319411
30
0
11
4.7469463220463117
21
5.2428795171390252
31
0
0
ARC
5
131
100
AcDbEntity
8
0
100
AcDbCircle
10
2.1347352987242898e-15
20
6.6551123535257972e-16
30
0
40
12.156866194999036
210
0
220
0
230
1
100
AcDbArc
50
167.65729166760872
51
173.84270833239137
0
SPLINE
5
132
100
AcDbEntity
8
0
100
AcDbSpline
70
0
71
3
72
8
73
4
74
0
42
0.000000001
43
0.0000000001
44
0.0000000001
40
0
40
0
40
0
40
0
40
1
40
1
40
1
40
1
10
8.4021384405658726
20
3.6809288704004279
30
0
10
8.4858171742372672
20
3.7268932044089285
30
0
10
8.7266421609896643
20
3.8780237446977117
30
0
10
9.0536614812044949
20
4.2514710495304229
30
0
0
SPLINE
5
133
100
AcDbEntity
8
0
100
AcDbSpline
70
0
71
3
72
8
73
4
74
0
42
0.000000001
43
0.0000000001
44
0.0000000001
40
0
40
0
40
0
40
0
40
1
40
1
40
1
40
1
10
3.3383993024668053
20
8.5440188331177715
30
0
10
3.3650674102168181
20
8.6356903254080457
30
0
10
3.4284909615460188
20
8.9128447365024215
30
0
10
3.3956614187858896
20
9.4081494370683867
30
0
0
ARC
5
134
100
AcDbEntity
8
0
100
AcDbCircle
10
-1.9739927331204638e-15
20
3.2148513120765218e-16
30
0
40
12.15686619499904
210
0
220
0
230
1
100
AcDbArc
50
212.65729166760872
51
218.84270833239128
0
SPLINE
5
135
100
AcDbEntity
8
0
100
AcDbSpline
70
0
71
3
72
8
73
4
74
0
42
0.000000001
43
0.0000000001
44
0.0000000001
40
0
40
0
40
0
40
0
40
1
40
1
40
1
40
1
10
12.086735551118203
20
-1.3039246145562684
30
0
10
11.284222017496667
20
-0.43861860777429568
30
0
10
10.541686130746275
20
0.0066895442649134162
30
0
10
10.001390108971432
20
0.23263396407039394
30
0
0
SPLINE
5
136
100
AcDbEntity
8
0
100
AcDbSpline
70
0
71
3
72
8
73
4
74
0
42
0.000000001
43
0.0000000001
44
0.0000000001
40
0
40
0
40
0
40
0
40
1
40
1
40
1
40
1
10
1.3039246145562691
20
12.086735551118203
30
0
10
0.43861860777429568
20
11.284222017496667
30
0
10
-0.0066895442649134162
20
10.541686130746275
30
0
10
-0.23263396407039394
20
10.001390108971432
30
0
0
SPLINE
5
137
100
AcDbEntity
8
0
100
AcDbSpline
70
0
71
3
72
8
73
4
74
0
42
0.000000001
43
0.0000000001
44
0.0000000001
40
0
40
0
40
0
40
0
40
1
40
1
40
1
40
1
10
-6.9075537138172827
20
-7.2365478208742449
30
0
10
-6.44662584501119
20
-7.0451661999441475
30
0
10
-6.2268902889560067
20
-6.8647405924007785
30
0
10
-6.1567495718839389
20
-6.7999707670319411
30
0
0
SPLINE
5
138
100
AcDbEntity
8
0
100
AcDbSpline
70
0
71
3
72
8
73
4
74
0
42
0.000000001
43
0.0000000001
44
0.0000000001
40
0
40
0
40
0
40
0
40
1
40
1
40
1
40
1
10
9.0536614812044949
20
4.2514710495304229
30
0
10
9.4371020076500223
20
4.6976905950028405
30
0
10
9.9029273638257536
20
5.4275300505878343
30
0
10
10.235026652817416
20
6.5600019130506055
30
0
0
SPLINE
5
139
100
AcDbEntity
8
0
100
AcDbSpline
70
0
71
3
72
8
73
4
74
0
42
0.000000001
43
0.0000000001
44
0.0000000001
40
0
40
0
40
0
40
0
40
1
40
1
40
1
40
1
10
7.6245987334954037
20
-9.4686266077130004
30
0
10
7.6689997170746445
20
-8.2893001008982576
30
0
10
7.4588279703036209
20
-7.4493675260780856
30
0
10
7.2365478208742449
20
-6.9075537138172827
30
0
0
LINE
5
140
100
AcDbEntity
8
0
100
AcDbLine
10
-0.45482606889207633
20
9.1617848135850792
30
0
11
-0.35067772526557184
21
7.0638735937605439
31
0
0
ARC
5
141
100
AcDbEntity
8
0
100
AcDbCircle
10
-0.75018573253918264
20
7.0440404869875355
30
0
40
0.39999999999999952
210
-0
220
0
230
1
100
AcDbArc
50
-83.920950710996934
51
2.842048600088332
0
SPLINE
5
142
100
AcDbEntity
8
0
100
AcDbSpline
70
0
71
3
72
8
73
4
74
0
42
0.000000001
43
0.0000000001
44
0.0000000001
40
0
40
0
40
0
40
0
40
1
40
1
40
1
40
1
10
3.6809288704004279
20
-8.4021384405658726
30
0
10
3.7268932044089285
20
-8.4858171742372672
30
0
10
3.8780237446977117
20
-8.7266421609896643
30
0
10
4.2514710495304229
20
-9.0536614812044949
30
0
0
SPLINE
5
143
100
AcDbEntity
8
0
100
AcDbSpline
70
0
71
3
72
8
73
4
74
0
42
0.000000001
43
0.0000000001
44
0.0000000001
40
0
40
0
40
0
40
0
40
1
40
1
40
1
40
1
10
-9.4081494370683867
20
3.3956614187858896
30
0
10
-9.9948077000013189
20
3.3512699487157387
30
0
10
-10.840270396423417
20
3.1645837886945816
30
0
10
-11.87587858914705
20
2.5986349145174392
30
0
0
LINE
5
144
100
AcDbEntity
8
0
100
AcDbLine
10
-9.1617848135850792
20
-0.45482606889207633
30
0
11
-7.063873593760551
21
-0.3506777252655649
31
0
0
SPLINE
5
145
100
AcDbEntity
8
0
100
AcDbSpline
70
0
71
3
72
8
73
4
74
0
42
0.000000001
43
0.0000000001
44
0.0000000001
40
0
40
0
40
0
40
0
40
1
40
1
40
1
40
1
10
10.001390108971432
20
0.23263396407039394
30
0
10
9.5401376453466327
20
0.4232319437869031
30
0
10
9.2571809729985901
20
0.45102827494769404
30
0
10
9.1617848135850792
20
0.45482606889207633
30
0
0
ARC
5
146
100
AcDbEntity
8
0
100
AcDbCircle
10
-2.2954778643281161e-15
20
-1.6525076019128115e-15
30
0
40
12.156866194999001
210
-0
220
0
230
1
100
AcDbArc
50
302.65729166760894
51
308.84270833239128
0
SPLINE
5
147
100
AcDbEntity
8
0
100
AcDbSpline
70
0
71
3
72
8
73
4
74
0
42
0.000000001
43
0.0000000001
44
0.0000000001
40
0
40
0
40
0
40
0
40
1
40
1
40
1
40
1
10
-7.2365478208742449
20
6.9075537138172827
30
0
10
-7.0451661999441475
20
6.44662584501119
30
0
10
-6.8647405924007785
20
6.2268902889560067
30
0
10
-6.7999707670319411
20
6.1567495718839389
30
0
0
LINE
5
148
100
AcDbEntity
8
0
100
AcDbLine
10
0.45482606889207633
20
-9.1617848135850792
30
0
11
0.3506777252655624
21
-7.0638735937605457
31
0
0
ARC
5
149
100
AcDbEntity
8
0
100
AcDbCircle
10
7.2049629691491012e-15
20
-3.6634526182457857e-14
30
0
40
6.6838749999999605
210
-0
220
0
230
1
100
AcDbArc
50
276.07904928900899
51
290.42095071099095
0
LINE
5
150
100
AcDbEntity
8
0
100
AcDbLine
10
-2.5739559657804367
20
-6.5875667512252409
30
0
11
-3.3383993024668053
21
-8.5440188331177715
31
0
0
SPLINE
5
151
100
AcDbEntity
8
0
100
AcDbSpline
70
0
71
3
72
8
73
4
74
0
42
0.000000001
43
0.0000000001
44
0.0000000001
40
0
40
0
40
0
40
0
40
1
40
1
40
1
40
1
10
-3.3383993024668053
20
-8.5440188331177715
30
0
10
-3.3650674102168181
20
-8.6356903254080457
30
0
10
-3.4284909615460188
20
-8.9128447365024215
30
0
10
-3.3956614187858896
20
-9.4081494370683867
30
0
0
ARC
5
152
100
AcDbEntity
8
0
100
AcDbCircle
10
-8.513444466916983e-15
20
3.4821276014941228e-14
30
0
40
6.6838749999999596
210
0
220
0
230
1
100
AcDbArc
50
96.079049289008992
51
110.42095071099104
0
LINE
5
153
100
AcDbEntity
8
0
100
AcDbLine
10
2.5739559657804367
20
6.5875667512252409
30
0
11
3.3383993024668053
21
8.5440188331177715
31
0
0
ARC
5
154
100
AcDbEntity
8
0
100
AcDbCircle
10
-3.2615962042362208e-14
20
1.7469946194856697e-14
30
0
40
6.6838749999999596
210
0
220
0
230
1
100
AcDbArc
50
141.07904928900899
51
155.42095071099101
0
SPLINE
5
155
100
AcDbEntity
8
0
100
AcDbSpline
70
0
71
3
72
8
73
4
74
0
42
0.000000001
43
0.0000000001
44
0.0000000001
40
0
40
0
40
0
40
0
40
1
40
1
40
1
40
1
10
-3.3956614187858896
20
-9.4081494370683867
30
0
10
-3.3512699487157387
20
-9.9948077000013189
30
0
10
-3.1645837886945816
20
-10.840270396423417
30
0
10
-2.5986349145174401
20
-11.87587858914705
30
0
0
ARC
5
156
100
AcDbEntity
8
0
100
AcDbCircle
10
3.7782265114621919e-14
20
8.031216770105504e-15
30
0
40
6.6838749999999569
210
0
220
-0
230
1
100
AcDbArc
50
6.0790492890086929
51
20.420950710991363
0
SPLINE
5
157
100
AcDbEntity
8
0
100
AcDbSpline
70
0
71
3
72
8
73
4
74
0
42
0.000000001
43
0.0000000001
44
0.0000000001
40
0
40
0
40
0
40
0
40
1
40
1
40
1
40
1
10
-8.4021384405658726
20
-3.6809288704004279
30
0
10
-8.4858171742372672
20
-3.7268932044089285
30
0
10
-8.7266421609896643
20
-3.8780237446977117
30
0
10
-9.0536614812044949
20
-4.2514710495304229
30
0
0
ARC
5
158
100
AcDbEntity
8
0
100
AcDbCircle
10
6.6551123535257972e-16
20
-2.1347352987242898e-15
30
0
40
12.156866194999001
210
0
220
-0
230
1
100
AcDbArc
50
77.657291667608717
51
83.842708332391297
0
SPLINE
5
159
100
AcDbEntity
8
0
100
AcDbSpline
70
0
71
3
72
8
73
4
74
0
42
0.000000001
43
0.0000000001
44
0.0000000001
40
0
40
0
40
0
40
0
40
1
40
1
40
1
40
1
10
0.23263396407039394
20
-10.001390108971432
30
0
10
0.42323194378689338
20
-9.5401376453466327
30
0
10
0.45102827494769404
20
-9.2571809729985901
30
0
10
0.45482606889207633
20
-9.1617848135850792
30
0
0
LINE
5
160
100
AcDbEntity
8
0
100
AcDbLine
10
-6.1567495718839389
20
-6.7999707670319411
30
0
11
-4.7469463220463179
21
-5.2428795171390297
31
0
0
ARC
5
161
100
AcDbEntity
8
0
100
AcDbCircle
10
-6.4419927959371286
20
2.9465257223922361
30
0
40
0.40000000000000113
210
0
220
0
230
1
100
AcDbArc
50
248.65795139991118
51
335.42095071099652
0
ARC
5
162
100
AcDbEntity
8
0
100
AcDbCircle
10
-4.4504273766736286
20
-5.5113502139293313
30
0
40
0.40000000000000097
210
0
220
-0
230
1
100
AcDbArc
50
51.079049289008381
51
137.84204860008907
0
SPLINE
5
163
100
AcDbEntity
8
0
100
AcDbSpline
70
0
71
3
72
8
73
4
74
0
42
0.000000001
43
0.0000000001
44
0.0000000001
40
0
40
0
40
0
40
0
40
1
40
1
40
1
40
1
10
-4.2514710495304229
20
9.0536614812044949
30
0
10
-4.6976905950028405
20
9.4371020076500223
30
0
10
-5.4275300505878343
20
9.9029273638257536
30
0
10
-6.5600019130506055
20
10.235026652817416
30
0
0
LINE
5
164
100
AcDbEntity
8
0
100
AcDbLine
10
6.5875667512252374
20
-2.573955965780435
30
0
11
8.5440188331177715
21
-3.3383993024668053
31
0
0
ARC
5
165
100
AcDbEntity
8
0
100
AcDbCircle
10
2.4054479874527773e-14
20
-1.4049270371301798e-14
30
0
40
6.6838749999999703
210
-0
220
0
230
1
100
AcDbArc
50
321.07904928900899
51
335.42095071099095
0
ARC
5
166
100
AcDbEntity
8
0
100
AcDbCircle
10
6.4419927959371286
20
-2.9465257223922361
30
0
40
0.40000000000000119
210
0
220
-0
230
1
100
AcDbArc
50
68.657951399911724
51
155.42095071099726
0
ARC
5
167
100
AcDbEntity
8
0
100
AcDbCircle
10
6.6386851096061728
20
2.4716684711178956
30
0
40
0.40000000000000063
210
0
220
0
230
1
100
AcDbArc
50
113.65795139991083
51
200.420950710992
0
SPLINE
5
168
100
AcDbEntity
8
0
100
AcDbSpline
70
0
71
3
72
8
73
4
74
0
42
0.000000001
43
0.0000000001
44
0.0000000001
40
0
40
0
40
0
40
0
40
1
40
1
40
1
40
1
10
7.2365478208742449
20
-6.9075537138172827
30
0
10
7.0451661999441475
20
-6.44662584501119
30
0
10
6.8647405924007678
20
-6.226890288956004
30
0
10
6.7999707670319411
20
-6.1567495718839389
30
0
0
SPLINE
5
169
100
AcDbEntity
8
0
100
AcDbSpline
70
0
71
3
72
8
73
4
74
0
42
0.000000001
43
0.0000000001
44
0.0000000001
40
0
40
0
40
0
40
0
40
1
40
1
40
1
40
1
10
-8.5440188331177715
20
3.3383993024668053
30
0
10
-8.6356903254080457
20
3.3650674102168181
30
0
10
-8.9128447365024215
20
3.4284909615460188
30
0
10
-9.4081494370683867
20
3.3956614187858896
30
0
0
ARC
5
170
100
AcDbEntity
8
0
100
AcDbCircle
10
-1.6525076019128115e-15
20
2.2954778643281161e-15
30
0
40
12.156866194998999
210
0
220
0
230
1
100
AcDbArc
50
257.65729166760894
51
263.842708332391
0
SPLINE
5
171
100
AcDbEntity
8
0
100
AcDbSpline
70
0
71
3
72
8
73
4
74
0
42
0.000000001
43
0.0000000001
44
0.0000000001
40
0
40
0
40
0
40
0
40
1
40
1
40
1
40
1
10
8.5440188331177715
20
-3.3383993024668053
30
0
10
8.6356903254080457
20
-3.3650674102168181
30
0
10
8.9128447365024215
20
-3.4284909615460188
30
0
10
9.4081494370683867
20
-3.3956614187858896
30
0
0
CIRCLE
5
172
100
AcDbEntity
8
0
100
AcDbCircle
10
0
20
0
30
0
40
2.8500000000000005
210
-0
220
0
230
1
0
ARC
5
173
100
AcDbEntity
8
0
100
AcDbCircle
10
-7.0440404869875337
20
-0.75018573253917298
30
0
40
0.39999999999999558
210
0
220
-0
230
1
100
AcDbArc
50
6.0790492890009444
51
92.842048600089825
0
SPLINE
5
174
100
AcDbEntity
8
0
100
AcDbSpline
70
0
71
3
72
8
73
4
74
0
42
0.000000001
43
0.0000000001
44
0.0000000001
40
0
40
0
40
0
40
0
40
1
40
1
40
1
40
1
10
-1.3039246145562702
20
-12.086735551118203
30
0
10
-0.43861860777429568
20
-11.284222017496667
30
0
10
0.0066895442649134162
20
-10.541686130746275
30
0
10
0.23263396407039394
20
-10.001390108971432
30
0
0
SPLINE
5
175
100
AcDbEntity
8
0
100
AcDbSpline
70
0
71
3
72
8
73
4
74
0
42
0.000000001
43
0.0000000001
44
0.0000000001
40
0
40
0
40
0
40
0
40
1
40
1
40
1
40
1
10
9.4081494370683867
20
-3.3956614187858896
30
0
10
9.9948077000013189
20
-3.3512699487157387
30
0
10
10.840270396423417
20
-3.1645837886945816
30
0
10
11.87587858914705
20
-2.5986349145174383
30
0
0
SPLINE
5
176
100
AcDbEntity
8
0
100
AcDbSpline
70
0
71
3
72
8
73
4
74
0
42
0.000000001
43
0.0000000001
44
0.0000000001
40
0
40
0
40
0
40
0
40
1
40
1
40
1
40
1
10
-9.0536614812044949
20
-4.2514710495304229
30
0
10
-9.4371020076500223
20
-4.6976905950028405
30
0
10
-9.9029273638257536
20
-5.4275300505878343
30
0
10
-10.235026652817416
20
-6.5600019130506055
30
0
0
SPLINE
5
177
100
AcDbEntity
8
0
100
AcDbSpline
70
0
71
3
72
8
73
4
74
0
42
0.000000001
43
0.0000000001
44
0.0000000001
40
0
40
0
40
0
40
0
40
1
40
1
40
1
40
1
10
-0.23263396407039394
20
10.001390108971432
30
0
10
-0.4232319437869031
20
9.5401376453466327
30
0
10
-0.45102827494769404
20
9.2571809729985901
30
0
10
-0.45482606889207633
20
9.1617848135850792
30
0
0
ARC
5
178
100
AcDbEntity
8
0
100
AcDbCircle
10
-6.6386851096061728
20
-2.4716684711178956
30
0
40
0.39999999999999991
210
-0
220
0
230
1
100
AcDbArc
50
-66.342048600088077
51
20.420950710998088
0
LINE
5
179
100
AcDbEntity
8
0
100
AcDbLine
10
-2.8380514034314923
20
6.4781748391893217
30
0
11
-3.6809288704004279
21
8.4021384405658726
31
0
0
SPLINE
5
180
100
AcDbEntity
8
0
100
AcDbSpline
70
0
71
3
72
8
73
4
74
0
42
0.000000001
43
0.0000000001
44
0.0000000001
40
0
40
0
40
0
40
0
40
1
40
1
40
1
40
1
10
-12.086735551118203
20
1.3039246145562702
30
0
10
-11.284222017496667
20
0.43861860777429568
30
0
10
-10.541686130746275
20
-0.0066895442649134162
30
0
10
-10.001390108971432
20
-0.23263396407039394
30
0
0
ENDSEC
0
SECTION
2
OBJECTS
0
DICTIONARY
5
C
100
AcDbDictionary
3
ACAD_GROUP
350
D
3
ACAD_MLINESTYLE
350
17
0
DICTIONARY
5
D
100
AcDbDictionary
0
DICTIONARY
5
1A
330
C
100
AcDbDictionary
0
DICTIONARY
5
17
100
AcDbDictionary
0
ENDSEC
0
EOF
