0
SECTION
2
HEADER
9
$INSUNITS
70
4
9
$ACADVER
1
AC1014
9
$HANDSEED
5
FFFF
0
ENDSEC
0
SECTION
2
TABLES
0
TABLE
2
VPORT
5
8
100
AcDbSymbolTable
0
ENDTAB
0
TABLE
2
LTYPE
5
5
100
AcDbSymbolTable
0
LTYPE
5
14
100
AcDbSymbolTableRecord
100
AcDbLinetypeTableRecord
2
BYBLOCK
70
0
0
LTYPE
5
15
100
AcDbSymbolTableRecord
100
AcDbLinetypeTableRecord
2
BYLAYER
70
0
0
ENDTAB
0
TABLE
2
LAYER
5
2
100
AcDbSymbolTable
70
2
0
LAYER
5
50
100
AcDbSymbolTableRecord
100
AcDbLayerTableRecord
2
0
70
0
6
CONTINUOUS
0
ENDTAB
0
TABLE
2
STYLE
5
3
100
AcDbSymbolTable
70
1
0
STYLE
5
11
100
AcDbSymbolTableRecord
100
AcDbTextStyleTableRecord
2
STANDARD
70
0
0
ENDTAB
0
TABLE
2
VIEW
5
6
100
AcDbSymbolTable
70
0
0
ENDTAB
0
TABLE
2
UCS
5
7
100
AcDbSymbolTable
70
0
0
ENDTAB
0
TABLE
2
APPID
5
9
100
AcDbSymbolTable
70
2
0
APPID
5
12
100
AcDbSymbolTableRecord
100
AcDbRegAppTableRecord
2
ACAD
70
0
0
ENDTAB
0
TABLE
2
DIMSTYLE
5
A
100
AcDbSymbolTable
70
1
0
ENDTAB
0
TABLE
2
BLOCK_RECORD
5
1
100
AcDbSymbolTable
70
1
0
BLOCK_RECORD
5
1F
100
AcDbSymbolTableRecord
100
AcDbBlockTableRecord
2
*MODEL_SPACE
0
BLOCK_RECORD
5
1B
100
AcDbSymbolTableRecord
100
AcDbBlockTableRecord
2
*PAPER_SPACE
0
ENDTAB
0
ENDSEC
0
SECTION
2
BLOCKS
0
BLOCK
5
20
100
AcDbEntity
100
AcDbBlockBegin
2
*MODEL_SPACE
0
ENDBLK
5
21
100
AcDbEntity
100
AcDbBlockEnd
0
BLOCK
5
1C
100
AcDbEntity
100
AcDbBlockBegin
2
*PAPER_SPACE
0
ENDBLK
5
1D
100
AcDbEntity
100
AcDbBlockEnd
0
ENDSEC
0
SECTION
2
ENTITIES
0
SPLINE
5
100
100
AcDbEntity
8
0
100
AcDbSpline
70
0
71
3
72
8
73
4
74
0
42
0.000000001
43
0.0000000001
44
0.0000000001
40
0
40
0
40
0
40
0
40
1
40
1
40
1
40
1
10
51.768565287896934
20
3.0557560412300178
30
0
10
51.915559691760819
20
3.6126880542007269
30
0
10
52.006999074414452
20
4.0700120012209098
30
0
10
52.06410958208329
20
4.4254229263037264
30
0
0
SPLINE
5
101
100
AcDbEntity
8
0
100
AcDbSpline
70
0
71
3
72
8
73
4
74
0
42
0.000000001
43
0.0000000001
44
0.0000000001
40
0
40
0
40
0
40
0
40
1
40
1
40
1
40
1
10
46.106326215848753
20
3.2831750548076344
30
0
10
46.325287081095041
20
2.0633928605095808
30
0
10
46.760564881999414
20
0.38264212726972169
30
0
10
47.614688571722752
20
-1.6942482146261888
30
0
0
ARC
5
102
100
AcDbEntity
8
0
100
AcDbCircle
10
51.666323676506039
20
71.112593805557026
30
0
40
72.919489795076288
210
0
220
0
230
1
100
AcDbArc
50
259.31482679737394
51
261.08517320262496
0
ARC
5
103
100
AcDbEntity
8
0
100
AcDbCircle
10
43.739584753925968
20
4.8296493391256226
30
0
40
0.40000000000001357
210
0
220
-0
230
1
100
AcDbArc
50
83.180438554719885
51
163.38583698270688
0
ARC
5
104
100
AcDbEntity
8
0
100
AcDbCircle
10
51.666323676505606
20
71.112593805557083
30
0
40
72.919489795076217
210
0
220
0
230
1
100
AcDbArc
50
94.314826797374081
51
96.085173202625896
0
SPLINE
5
105
100
AcDbEntity
8
0
100
AcDbSpline
70
0
71
3
72
8
73
4
74
0
42
0.000000001
43
0.0000000001
44
0.0000000001
40
0
40
0
40
0
40
0
40
1
40
1
40
1
40
1
10
37.300377014851207
20
4.5891904324468253
30
0
10
37.358251114382142
20
3.3512635159288817
30
0
10
37.570423060077935
20
1.6280766842980832
30
0
10
38.146151015245579
20
-0.54253108571603925
30
0
0
SPLINE
5
106
100
AcDbEntity
8
0
100
AcDbSpline
70
0
71
3
72
8
73
4
74
0
42
0.000000001
43
0.0000000001
44
0.0000000001
40
0
40
0
40
0
40
0
40
1
40
1
40
1
40
1
10
17.726448627130843
20
12.122522594718044
30
0
10
18.132215521576477
20
12.531342664199578
30
0
10
18.440066323370988
20
12.881677128751249
30
0
10
18.667230936376594
20
13.160916764820957
30
0
0
SPLINE
5
107
100
AcDbEntity
8
0
100
AcDbSpline
70
0
71
3
72
8
73
4
74
0
42
0.000000001
43
0.0000000001
44
0.0000000001
40
0
40
0
40
0
40
0
40
1
40
1
40
1
40
1
10
28.921270345893404
20
8.4228853799069547
30
0
10
28.855848572549924
20
8.0689100596840078
30
0
10
28.788579688544651
20
7.6074111426073365
30
0
10
28.74023314422746
20
7.0334396855718584
30
0
0
SPLINE
5
108
100
AcDbEntity
8
0
100
AcDbSpline
70
0
71
3
72
8
73
4
74
0
42
0.000000001
43
0.0000000001
44
0.0000000001
40
0
40
0
40
0
40
0
40
1
40
1
40
1
40
1
10
34.150675726609649
20
5.3482744771982951
30
0
10
34.436806029405766
20
5.8481845407704069
30
0
10
34.64349383792117
20
6.2662592984745196
30
0
10
34.790645468479866
20
6.5947786028971178
30
0
0
SPLINE
5
109
100
AcDbEntity
8
0
100
AcDbSpline
70
0
71
3
72
8
73
4
74
0
42
0.000000001
43
0.0000000001
44
0.0000000001
40
0
40
0
40
0
40
0
40
1
40
1
40
1
40
1
10
45.921579716627278
20
4.6721324108552862
30
0
10
45.950002690523121
20
4.3132861062772943
30
0
10
46.004470647190487
20
3.8501019151451765
30
0
10
46.106326215848753
20
3.2831750548076344
30
0
0
SPLINE
5
110
100
AcDbEntity
8
0
100
AcDbSpline
70
0
71
3
72
8
73
4
74
0
42
0.000000001
43
0.0000000001
44
0.0000000001
40
0
40
0
40
0
40
0
40
1
40
1
40
1
40
1
10
37.298506362382284
20
5.9903793228370894
30
0
10
37.279847332067426
20
5.6308930555860215
30
0
10
37.273391639049791
20
5.1645619744366735
30
0
10
37.300377014851207
20
4.5891904324468253
30
0
0
ARC
5
111
100
AcDbEntity
8
0
100
AcDbCircle
10
20.552755348593273
20
12.051542485832753
30
0
40
0.4000000000000189
210
-0
220
0
230
1
100
AcDbArc
50
-17.985836982709287
51
62.219561445280419
0
ARC
5
112
100
AcDbEntity
8
0
100
AcDbCircle
10
51.66632367650525
20
71.112593805557196
30
0
40
72.919489795076259
210
0
220
0
230
1
100
AcDbArc
50
251.81482679737439
51
253.58517320262624
0
SPLINE
5
113
100
AcDbEntity
8
0
100
AcDbSpline
70
0
71
3
72
8
73
4
74
0
42
0.000000001
43
0.0000000001
44
0.0000000001
40
0
40
0
40
0
40
0
40
1
40
1
40
1
40
1
10
25.716558337074286
20
8.1971481768763574
30
0
10
26.065492112515464
20
8.6554339416512214
30
0
10
26.324981384362999
20
9.0429538392232001
30
0
10
26.513754486200352
20
9.3494554734392477
30
0
0
ARC
5
114
100
AcDbEntity
8
0
100
AcDbCircle
10
26.854393439549817
20
9.1397769016658863
30
0
40
0.40000000000001473
210
0
220
-0
230
1
100
AcDbArc
50
68.180438554719913
51
148.38583698270787
0
ARC
5
115
100
AcDbEntity
8
0
100
AcDbCircle
10
51.666323676505598
20
71.112593805557083
30
0
40
72.919489795076302
210
-0
220
0
230
1
100
AcDbArc
50
274.314826797374
51
276.08517320262592
0
ARC
5
116
100
AcDbEntity
8
0
100
AcDbCircle
10
51.666323676504902
20
71.112593805553814
30
0
40
66.35523887371194
210
0
220
0
230
1
100
AcDbArc
50
255.68041811484088
51
257.21958188515907
0
ARC
5
117
100
AcDbEntity
8
0
100
AcDbCircle
10
36.899049385887579
20
6.0112149636889978
30
0
40
0.40000000000000158
210
-0
220
0
230
1
100
AcDbArc
50
-2.9858369827060969
51
77.219561445281599
0
SPLINE
5
118
100
AcDbEntity
8
0
100
AcDbSpline
70
0
71
3
72
8
73
4
74
0
42
0.000000001
43
0.0000000001
44
0.0000000001
40
0
40
0
40
0
40
0
40
1
40
1
40
1
40
1
10
82.399438854999801
20
130.29715788210351
30
0
10
82.510503986691674
20
130.63956563942889
30
0
10
82.637435072428772
20
131.08833601801001
30
0
10
82.760286314086997
20
131.65108657932649
30
0
0
SPLINE
5
119
100
AcDbEntity
8
0
100
AcDbSpline
70
0
71
3
72
8
73
4
74
0
42
0.000000001
43
0.0000000001
44
0.0000000001
40
0
40
0
40
0
40
0
40
1
40
1
40
1
40
1
10
110.85088775305202
20
40.379478627062895
30
0
10
111.19329551037744
20
40.268413495370908
30
0
10
111.64206588895858
20
40.141482409633923
30
0
10
112.20481645027502
20
40.01863116797567
30
0
0
ARC
5
120
100
AcDbEntity
8
0
100
AcDbCircle
10
9.0076743144647686
20
122.45946860522956
30
0
40
0.40000000000000802
210
0
220
0
230
1
100
AcDbArc
50
229.51416301729051
51
309.71956144527923
0
ARC
5
121
100
AcDbEntity
8
0
100
AcDbCircle
10
85.728118866950993
20
13.70130549488656
30
0
40
0.40000000000002195
210
0
220
0
230
1
100
AcDbArc
50
120.68043855472224
51
200.8858369827029
0
ARC
5
122
100
AcDbEntity
8
0
100
AcDbCircle
10
51.666323676503382
20
71.112593805557395
30
0
40
66.355238873712977
210
0
220
0
230
1
100
AcDbArc
50
173.18041811484102
51
174.71958188515922
0
SPLINE
5
123
100
AcDbEntity
8
0
100
AcDbSpline
70
0
71
3
72
8
73
4
74
0
42
0.000000001
43
0.0000000001
44
0.0000000001
40
0
40
0
40
0
40
0
40
1
40
1
40
1
40
1
10
110.5541532759533
20
105.22955652050939
30
0
10
109.99833880260798
20
105.07839140198431
30
0
10
109.55656495540268
20
104.92891825675862
30
0
10
109.22021481166399
20
104.80067194468141
30
0
0
ARC
5
124
100
AcDbEntity
8
0
100
AcDbCircle
10
51.666323676505456
20
71.112593805556941
30
0
40
72.919489795076259
210
0
220
0
230
1
100
AcDbArc
50
131.81482679737397
51
133.58517320262601
0
SPLINE
5
125
100
AcDbEntity
8
0
100
AcDbSpline
70
0
71
3
72
8
73
4
74
0
42
0.000000001
43
0.0000000001
44
0.0000000001
40
0
40
0
40
0
40
0
40
1
40
1
40
1
40
1
10
122.54565866159254
20
88.240695394643538
30
0
10
120.34870289488876
20
88.705868619103086
30
0
10
118.61698844755952
20
88.830587760207308
30
0
10
117.37771885240423
20
88.825757381381663
30
0
0
SPLINE
5
126
100
AcDbEntity
8
0
100
AcDbSpline
70
0
71
3
72
8
73
4
74
0
42
0.000000001
43
0.0000000001
44
0.0000000001
40
0
40
0
40
0
40
0
40
1
40
1
40
1
40
1
10
118.10678507120741
20
65.367849845678734
30
0
10
118.46563137578542
20
65.396272819574591
30
0
10
118.92881556691751
20
65.450740776241958
30
0
10
119.49574242725507
20
65.552596344900223
30
0
0
ARC
5
127
100
AcDbEntity
8
0
100
AcDbCircle
10
-13.014913963176788
20
87.623178728136907
30
0
40
0.40000000000004288
210
-0
220
0
230
1
100
AcDbArc
50
-14.319561445258413
51
65.885836982707531
0
SPLINE
5
128
100
AcDbEntity
8
0
100
AcDbSpline
70
0
71
3
72
8
73
4
74
0
42
0.000000001
43
0.0000000001
44
0.0000000001
40
0
40
0
40
0
40
0
40
1
40
1
40
1
40
1
10
72.272620074299581
20
141.05994930053271
30
0
10
70.771290361405363
20
139.38991640780631
30
0
10
69.797423193206441
20
137.95256727487083
30
0
10
69.181971626401676
20
136.87691313391588
30
0
0
ARC
5
129
100
AcDbEntity
8
0
100
AcDbCircle
10
103.01319847617808
20
113.77124316759793
30
0
40
0.39999999999996283
210
0
220
0
230
1
100
AcDbArc
50
139.5141630172929
51
219.71956144532314
0
SPLINE
5
130
100
AcDbEntity
8
0
100
AcDbSpline
70
0
71
3
72
8
73
4
74
0
42
0.000000001
43
0.0000000001
44
0.0000000001
40
0
40
0
40
0
40
0
40
1
40
1
40
1
40
1
10
-0.22783019390177239
20
27.081463750770673
30
0
10
-0.93551774243041397
20
26.064118776981715
30
0
10
-1.8162000986690896
20
24.567860651304155
30
0
10
-2.6808266902290234
20
22.495320753793202
30
0
0
SPLINE
5
131
100
AcDbEntity
8
0
100
AcDbSpline
70
0
71
3
72
8
73
4
74
0
42
0.000000001
43
0.0000000001
44
0.0000000001
40
0
40
0
40
0
40
0
40
1
40
1
40
1
40
1
10
-1.1529302293835608
20
20.839555218264127
30
0
10
0.98227588780246289
20
21.535181272073704
30
0
10
2.5443441618421097
20
22.293028551203889
30
0
10
3.6151679239714833
20
22.916846579554427
30
0
0
SPLINE
5
132
100
AcDbEntity
8
0
100
AcDbSpline
70
0
71
3
72
8
73
4
74
0
42
0.000000001
43
0.0000000001
44
0.0000000001
40
0
40
0
40
0
40
0
40
1
40
1
40
1
40
1
10
113.89697887294855
20
33.104732174104285
30
0
10
112.67242369378721
20
34.987141636149254
30
0
10
111.53610641542052
20
36.299838415352951
30
0
10
110.65639488734465
20
37.172718756182313
30
0
0
ARC
5
133
100
AcDbEntity
8
0
100
AcDbCircle
10
51.666323676508185
20
71.112593805555207
30
0
40
66.355238873712096
210
-0
220
0
230
1
100
AcDbArc
50
323.1804181148409
51
324.71958188515896
0
SPLINE
5
134
100
AcDbEntity
8
0
100
AcDbSpline
70
0
71
3
72
8
73
4
74
0
42
0.000000001
43
0.0000000001
44
0.0000000001
40
0
40
0
40
0
40
0
40
1
40
1
40
1
40
1
10
94.58467706365181
20
20.069945597989975
30
0
10
94.858517796605895
20
19.836301020202445
30
0
10
95.224553140610652
20
19.547294999231383
30
0
10
95.697453731292015
20
19.218439935149696
30
0
0
ARC
5
135
100
AcDbEntity
8
0
100
AcDbCircle
10
51.666323676508597
20
71.112593805557381
30
0
40
66.355238873712295
210
0
220
-0
230
1
100
AcDbArc
50
8.1804181148409096
51
9.71958188515916
0
ARC
5
136
100
AcDbEntity
8
0
100
AcDbCircle
10
51.666323676505748
20
71.112593805555932
30
0
40
66.3552388737141
210
-0
220
0
230
1
100
AcDbArc
50
278.18041811484102
51
279.71958188515896
0
SPLINE
5
137
100
AcDbEntity
8
0
100
AcDbSpline
70
0
71
3
72
8
73
4
74
0
42
0.000000001
43
0.0000000001
44
0.0000000001
40
0
40
0
40
0
40
0
40
1
40
1
40
1
40
1
10
5.8608941080442438
20
14.375351944298407
30
0
10
7.8870358208894187
20
15.343727144866852
30
0
10
9.3368214646718979
20
16.298981759264763
30
0
10
10.317059589193235
20
17.05723348611474
30
0
0
SPLINE
5
138
100
AcDbEntity
8
0
100
AcDbSpline
70
0
71
3
72
8
73
4
74
0
42
0.000000001
43
0.0000000001
44
0.0000000001
40
0
40
0
40
0
40
0
40
1
40
1
40
1
40
1
10
-20.842294652433395
20
63.382635202661639
30
0
10
-18.724851436580892
20
62.634681328918745
30
0
10
-17.024231160994798
20
62.284995084533747
30
0
10
-15.794933198066179
20
62.128026997409158
30
0
0
ARC
5
139
100
AcDbEntity
8
0
100
AcDbCircle
10
108.14198991072274
20
106.70418045869863
30
0
40
0.39999999999998864
210
0
220
0
230
1
100
AcDbArc
50
132.01416301729077
51
212.21956144528463
0
ARC
5
140
100
AcDbEntity
8
0
100
AcDbCircle
10
51.666323676505421
20
71.112593805557438
30
0
40
72.919489795076302
210
0
220
-0
230
1
100
AcDbArc
50
26.81482679737374
51
28.585173202625583
0
ARC
5
141
100
AcDbEntity
8
0
100
AcDbCircle
10
51.66632367650535
20
71.112593805556912
30
0
40
72.919489795076302
210
0
220
0
230
1
100
AcDbArc
50
116.81482679737383
51
118.58517320262568
0
SPLINE
5
142
100
AcDbEntity
8
0
100
AcDbSpline
70
0
71
3
72
8
73
4
74
0
42
0.000000001
43
0.0000000001
44
0.0000000001
40
0
40
0
40
0
40
0
40
1
40
1
40
1
40
1
10
22.566713347036757
20
132.63459229796717
30
0
10
21.767196578149679
20
133.58147423269
30
0
10
20.54985957824325
20
134.81940816465288
30
0
10
18.771721594020764
20
136.19098611674755
30
0
0
SPLINE
5
143
100
AcDbEntity
8
0
100
AcDbSpline
70
0
71
3
72
8
73
4
74
0
42
0.000000001
43
0.0000000001
44
0.0000000001
40
0
40
0
40
0
40
0
40
1
40
1
40
1
40
1
10
117.37771885240423
20
88.825757381381663
30
0
10
116.80171888634521
20
88.823598460609674
30
0
10
116.33631162123478
20
88.793557974584445
30
0
10
115.97822974269189
20
88.756735372645323
30
0
0
SPLINE
5
144
100
AcDbEntity
8
0
100
AcDbSpline
70
0
71
3
72
8
73
4
74
0
42
0.000000001
43
0.0000000001
44
0.0000000001
40
0
40
0
40
0
40
0
40
1
40
1
40
1
40
1
10
39.481323426927773
20
138.06981439262162
30
0
10
38.954120609478416
20
139.19136227448382
30
0
10
38.098664240142128
20
140.70218463049017
30
0
10
36.736105334320868
20
142.48724317232393
30
0
0
ARC
5
145
100
AcDbEntity
8
0
100
AcDbCircle
10
-8.9718196849760528
20
43.197051776802127
30
0
40
0.40000000000001046
210
-0
220
0
230
1
100
AcDbArc
50
-55.485836982707461
51
24.719561445279613
0
SPLINE
5
146
100
AcDbEntity
8
0
100
AcDbSpline
70
0
71
3
72
8
73
4
74
0
42
0.000000001
43
0.0000000001
44
0.0000000001
40
0
40
0
40
0
40
0
40
1
40
1
40
1
40
1
10
97.471753244966976
20
127.84983566681576
30
0
10
95.445611532121788
20
126.8814604662473
30
0
10
93.99582588833934
20
125.9262058518494
30
0
10
93.01558776381799
20
125.16795412499943
30
0
0
ARC
5
147
100
AcDbEntity
8
0
100
AcDbCircle
10
13.109922101517263
20
16.617953567502298
30
0
40
0.40000000000001928
210
-0
220
0
230
1
100
AcDbArc
50
-25.485836982707294
51
54.719561445327351
0
ARC
5
148
100
AcDbEntity
8
0
100
AcDbCircle
10
57.809826799932402
20
137.5845374093004
30
0
40
0.39999999999998903
210
0
220
0
230
1
100
AcDbArc
50
184.51416301729103
51
264.71956144528122
0
ARC
5
149
100
AcDbEntity
8
0
100
AcDbCircle
10
98.305528470641235
20
118.87289628845036
30
0
40
0.40000000000003766
210
0
220
0
230
1
100
AcDbArc
50
225.68043855471842
51
305.88583698270736
0
SPLINE
5
150
100
AcDbEntity
8
0
100
AcDbSpline
70
0
71
3
72
8
73
4
74
0
42
0.000000001
43
0.0000000001
44
0.0000000001
40
0
40
0
40
0
40
0
40
1
40
1
40
1
40
1
10
-13.997083041252809
20
59.465533587474113
30
0
10
-14.33634554755046
20
59.345202845038713
30
0
10
-14.769649775560412
20
59.172709948933139
30
0
10
-15.290896910558951
20
58.927593555979243
30
0
0
ARC
5
151
100
AcDbEntity
8
0
100
AcDbCircle
10
76.478253913461302
20
133.08541070944827
30
0
40
0.40000000000000729
210
0
220
0
230
1
100
AcDbArc
50
248.18043855472087
51
328.38583698271844
0
ARC
5
152
100
AcDbEntity
8
0
100
AcDbCircle
10
51.666323676509109
20
71.112593805556344
30
0
40
66.35523887371167
210
-0
220
0
230
1
100
AcDbArc
50
353.18041811484125
51
354.71958188515947
0
SPLINE
5
153
100
AcDbEntity
8
0
100
AcDbSpline
70
0
71
3
72
8
73
4
74
0
42
0.000000001
43
0.0000000001
44
0.0000000001
40
0
40
0
40
0
40
0
40
1
40
1
40
1
40
1
10
-11.170869610619611
20
44.973910601854918
30
0
10
-10.600079199826553
20
45.051234135048979
30
0
10
-10.142574628640036
20
45.141765458698295
30
0
10
-9.7923625042263325
20
45.22501210228252
30
0
0
ARC
5
154
100
AcDbEntity
8
0
100
AcDbCircle
10
51.66632367650854
20
71.112593805558433
30
0
40
66.355238873712082
210
0
220
-0
230
1
100
AcDbArc
50
15.680418114840393
51
17.219581885158487
0
ARC
5
155
100
AcDbEntity
8
0
100
AcDbCircle
10
51.666323676503431
20
71.112593805554511
30
0
40
66.355238873711897
210
0
220
0
230
1
100
AcDbArc
50
225.68041811484076
51
227.21958188515896
0
SPLINE
5
156
100
AcDbEntity
8
0
100
AcDbSpline
70
0
71
3
72
8
73
4
74
0
42
0.000000001
43
0.0000000001
44
0.0000000001
40
0
40
0
40
0
40
0
40
1
40
1
40
1
40
1
10
53.466769794646105
20
144.0098529155531
30
0
10
52.448832969771644
20
142.00815229104126
30
0
10
51.880162850698568
20
140.36772427161463
30
0
10
51.564082065114299
20
139.16943156988415
30
0
0
ARC
5
157
100
AcDbEntity
8
0
100
AcDbCircle
10
68.176908599085422
20
135.79383144523948
30
0
40
0.39999999999999375
210
0
220
0
230
1
100
AcDbArc
50
255.68043855472999
51
335.88583698270492
0
ARC
5
158
100
AcDbEntity
8
0
100
AcDbCircle
10
51.666323676502955
20
71.11259380555488
30
0
40
66.355238873711798
210
0
220
0
230
1
100
AcDbArc
50
218.18041811484085
51
219.71958188515899
0
ARC
5
159
100
AcDbEntity
8
0
100
AcDbCircle
10
51.666323676505719
20
71.112593805557253
30
0
40
72.919489795076217
210
0
220
0
230
1
100
AcDbArc
50
146.81482679737431
51
148.58517320262612
0
SPLINE
5
160
100
AcDbEntity
8
0
100
AcDbSpline
70
0
71
3
72
8
73
4
74
0
42
0.000000001
43
0.0000000001
44
0.0000000001
40
0
40
0
40
0
40
0
40
1
40
1
40
1
40
1
10
114.35603210215575
20
48.367540474944875
30
0
10
114.71000742237869
20
48.302118701601401
30
0
10
115.17150633945536
20
48.234849817596114
30
0
10
115.74547779649083
20
48.18650327327893
30
0
0
ARC
5
161
100
AcDbEntity
8
0
100
AcDbCircle
10
-7.394727643218717
20
102.22616213346942
30
0
40
0.40000000000000557
210
0
220
0
230
1
100
AcDbArc
50
252.01416301728969
51
332.21956144530839
0
SPLINE
5
162
100
AcDbEntity
8
0
100
AcDbSpline
70
0
71
3
72
8
73
4
74
0
42
0.000000001
43
0.0000000001
44
0.0000000001
40
0
40
0
40
0
40
0
40
1
40
1
40
1
40
1
10
118.18972704961588
20
56.746647143902671
30
0
10
119.42765396613382
20
56.804521243433612
30
0
10
121.15084079776463
20
57.016693189129406
30
0
10
123.32144856777873
20
57.592421144297042
30
0
0
SPLINE
5
163
100
AcDbEntity
8
0
100
AcDbSpline
70
0
71
3
72
8
73
4
74
0
42
0.000000001
43
0.0000000001
44
0.0000000001
40
0
40
0
40
0
40
0
40
1
40
1
40
1
40
1
10
-12.41283044347961
20
94.038684337835235
30
0
10
-13.647720809457553
20
94.142887245908469
30
0
10
-15.383859535032585
20
94.157451476237213
30
0
10
-17.611045032413823
20
93.869970120560154
30
0
0
ARC
5
164
100
AcDbEntity
8
0
100
AcDbCircle
10
51.666323676505471
20
71.112593805556969
30
0
40
72.919489795076274
210
-0
220
0
230
1
100
AcDbArc
50
304.314826797374
51
306.08517320262598
0
SPLINE
5
165
100
AcDbEntity
8
0
100
AcDbSpline
70
0
71
3
72
8
73
4
74
0
42
0.000000001
43
0.0000000001
44
0.0000000001
40
0
40
0
40
0
40
0
40
1
40
1
40
1
40
1
10
72.486750604655839
20
6.3186632074169573
30
0
10
73.155834503329672
20
5.2755240994493535
30
0
10
74.20117421408807
20
3.8892865006381272
30
0
10
75.785073133939107
20
2.2973490077378456
30
0
0
ARC
5
166
100
AcDbEntity
8
0
100
AcDbCircle
10
51.666323676505584
20
71.112593805557069
30
0
40
72.919489795076259
210
-0
220
0
230
1
100
AcDbArc
50
319.31482679737405
51
321.08517320262604
0
SPLINE
5
167
100
AcDbEntity
8
0
100
AcDbSpline
70
0
71
3
72
8
73
4
74
0
42
0.000000001
43
0.0000000001
44
0.0000000001
40
0
40
0
40
0
40
0
40
1
40
1
40
1
40
1
10
99.862070902508293
20
23.061438053022954
30
0
10
99.572201239245402
20
23.559189195822992
30
0
10
99.313481782650328
20
23.947223467501878
30
0
10
99.102551534666148
20
24.23892016998537
30
0
0
SPLINE
5
168
100
AcDbEntity
8
0
100
AcDbSpline
70
0
71
3
72
8
73
4
74
0
42
0.000000001
43
0.0000000001
44
0.0000000001
40
0
40
0
40
0
40
0
40
1
40
1
40
1
40
1
10
-3.0004317505262224
20
109.30791871039983
30
0
10
-3.3254132532929237
20
109.46272684524394
30
0
10
-3.7537765077783636
20
109.6471483066438
30
0
10
-4.295677355247518
20
109.84240222683768
30
0
0
SPLINE
5
169
100
AcDbEntity
8
0
100
AcDbSpline
70
0
71
3
72
8
73
4
74
0
42
0.000000001
43
0.0000000001
44
0.0000000001
40
0
40
0
40
0
40
0
40
1
40
1
40
1
40
1
10
77.80500688020777
20
8.2754005184318622
30
0
10
77.727683347013723
20
8.8461909292249175
30
0
10
77.637152023364393
20
9.3036955004114361
30
0
10
77.553905379780275
20
9.6539076248251483
30
0
0
SPLINE
5
170
100
AcDbEntity
8
0
100
AcDbSpline
70
0
71
3
72
8
73
4
74
0
42
0.000000001
43
0.0000000001
44
0.0000000001
40
0
40
0
40
0
40
0
40
1
40
1
40
1
40
1
10
-15.82162361450894
20
79.894426773240056
30
0
10
-15.288642851928525
20
79.675995711899944
30
0
10
-14.847166609108884
20
79.525645852425271
30
0
10
-14.502250690861157
20
79.422633498341995
30
0
0
SPLINE
5
171
100
AcDbEntity
8
0
100
AcDbSpline
70
0
71
3
72
8
73
4
74
0
42
0.000000001
43
0.0000000001
44
0.0000000001
40
0
40
0
40
0
40
0
40
1
40
1
40
1
40
1
10
110.65639488734465
20
37.172718756182313
30
0
10
110.2475748178631
20
37.57848565062794
30
0
10
109.89724035331143
20
37.886336452422462
30
0
10
109.61800071724173
20
38.113501065428068
30
0
0
ARC
5
172
100
AcDbEntity
8
0
100
AcDbCircle
10
-13.435055165362485
20
85.879868096175215
30
0
40
0.39999999999999697
210
0
220
0
230
1
100
AcDbArc
50
267.01416301729449
51
347.21956144532948
0
ARC
5
173
100
AcDbEntity
8
0
100
AcDbCircle
10
50.873587898412573
20
137.86312554181308
30
0
40
0.40000000000001823
210
-0
220
0
230
1
100
AcDbArc
50
270.68043855471927
51
350.88583698271054
0
ARC
5
174
100
AcDbEntity
8
0
100
AcDbCircle
10
51.666323676503865
20
71.11259380555849
30
0
40
66.355238873713049
210
0
220
0
230
1
100
AcDbArc
50
143.18041811484096
51
144.71958188515924
0
SPLINE
5
175
100
AcDbEntity
8
0
100
AcDbSpline
70
0
71
3
72
8
73
4
74
0
42
0.000000001
43
0.0000000001
44
0.0000000001
40
0
40
0
40
0
40
0
40
1
40
1
40
1
40
1
10
-20.372283900236958
20
82.412638512474118
30
0
10
-18.520575519727267
20
81.142135917767177
30
0
10
-16.968407934685111
20
80.364212027408513
30
0
10
-15.82162361450894
20
79.894426773240056
30
0
0
ARC
5
176
100
AcDbEntity
8
0
100
AcDbCircle
10
51.666323676505513
20
71.112593805557225
30
0
40
72.919489795076302
210
0
220
0
230
1
100
AcDbArc
50
214.31482679737422
51
216.08517320262601
0
ARC
5
177
100
AcDbEntity
8
0
100
AcDbCircle
10
42.167677126690904
20
137.18859270688637
30
0
40
0.4000000000000129
210
-0
220
0
230
1
100
AcDbArc
50
278.1804385547228
51
358.38583698271202
0
ARC
5
178
100
AcDbEntity
8
0
100
AcDbCircle
10
51.666323676504781
20
71.112593805560323
30
0
40
66.355238873711897
210
0
220
0
230
1
100
AcDbArc
50
98.180418114840592
51
99.719581885158604
0
ARC
5
179
100
AcDbEntity
8
0
100
AcDbCircle
10
51.666323676507773
20
71.112593805558973
30
0
40
66.355238873712381
210
0
220
-0
230
1
100
AcDbArc
50
38.180418114840805
51
39.719581885158782
0
ARC
5
180
100
AcDbEntity
8
0
100
AcDbCircle
10
51.666323676502287
20
71.112593805556301
30
0
40
66.355238873711841
210
0
220
0
230
1
100
AcDbArc
50
195.68041811484102
51
197.21958188515896
0
ARC
5
181
100
AcDbEntity
8
0
100
AcDbCircle
10
-12.096761367255933
20
51.350739064951163
30
0
40
0.39999999999999097
210
-0
220
0
230
1
100
AcDbArc
50
-62.985836982721395
51
17.219561445328647
0
SPLINE
5
182
100
AcDbEntity
8
0
100
AcDbSpline
70
0
71
3
72
8
73
4
74
0
42
0.000000001
43
0.0000000001
44
0.0000000001
40
0
40
0
40
0
40
0
40
1
40
1
40
1
40
1
10
74.411377007117835
20
133.80230223120711
30
0
10
74.476798780461394
20
134.15627755143018
30
0
10
74.544067664466581
20
134.61777646850683
30
0
10
74.592414208783765
20
135.1917479255423
30
0
0
ARC
5
183
100
AcDbEntity
8
0
100
AcDbCircle
10
-14.616620789925854
20
79.039332728136827
30
0
40
0.39999999999999641
210
-0
220
0
230
1
100
AcDbArc
50
-6.8195614452947568
51
73.385836982703466
0
ARC
5
184
100
AcDbEntity
8
0
100
AcDbCircle
10
91.672553185842276
20
124.55193808983012
30
0
40
0.40000000000000374
210
0
220
0
230
1
100
AcDbArc
50
233.18043855471709
51
313.38583698270708
0
SPLINE
5
185
100
AcDbEntity
8
0
100
AcDbSpline
70
0
71
3
72
8
73
4
74
0
42
0.000000001
43
0.0000000001
44
0.0000000001
40
0
40
0
40
0
40
0
40
1
40
1
40
1
40
1
10
48.689700120241469
20
137.7344873970012
30
0
10
48.614681467098649
20
138.08655377914394
30
0
10
48.500221822586269
20
138.53866587032968
30
0
10
48.325238838090641
20
139.08744777325273
30
0
0
ARC
5
186
100
AcDbEntity
8
0
100
AcDbCircle
10
61.164970226320314
20
5.0365949042277798
30
0
40
0.39999999999998126
210
0
220
0
230
1
100
AcDbArc
50
98.180438554707962
51
178.38583698270773
0
ARC
5
187
100
AcDbEntity
8
0
100
AcDbCircle
10
112.30446703798727
20
99.028135834312039
30
0
40
0.40000000000002156
210
0
220
0
230
1
100
AcDbArc
50
124.51416301729178
51
204.71956144528096
0
ARC
5
188
100
AcDbEntity
8
0
100
AcDbCircle
10
51.666323676505783
20
71.11259380555677
30
0
40
72.919489795076288
210
0
220
0
230
1
100
AcDbArc
50
206.81482679737397
51
208.58517320262598
0
SPLINE
5
189
100
AcDbEntity
8
0
100
AcDbSpline
70
0
71
3
72
8
73
4
74
0
42
0.000000001
43
0.0000000001
44
0.0000000001
40
0
40
0
40
0
40
0
40
1
40
1
40
1
40
1
10
102.70897188407272
20
114.03094719270329
30
0
10
102.94261646186023
20
114.30478792565735
30
0
10
103.23162248283128
20
114.67082326966214
30
0
10
103.56047754691301
20
115.1437238603435
30
0
0
SPLINE
5
190
100
AcDbEntity
8
0
100
AcDbSpline
70
0
71
3
72
8
73
4
74
0
42
0.000000001
43
0.0000000001
44
0.0000000001
40
0
40
0
40
0
40
0
40
1
40
1
40
1
40
1
10
81.226292320665607
20
137.77187857317602
30
0
10
79.519823657219007
20
136.31209589404807
30
0
10
78.366676348434538
20
135.01415865539224
30
0
10
77.61608901593695
20
134.0280394342378
30
0
0
SPLINE
5
191
100
AcDbEntity
8
0
100
AcDbSpline
70
0
71
3
72
8
73
4
74
0
42
0.000000001
43
0.0000000001
44
0.0000000001
40
0
40
0
40
0
40
0
40
1
40
1
40
1
40
1
10
31.548111226110365
20
134.69399455535324
30
0
10
31.384527286747357
20
135.01464831026166
30
0
10
31.15695254032503
20
135.42173071962003
30
0
10
30.845896748355493
20
135.9065244036972
30
0
0
SPLINE
5
192
100
AcDbEntity
8
0
100
AcDbSpline
70
0
71
3
72
8
73
4
74
0
42
0.000000001
43
0.0000000001
44
0.0000000001
40
0
40
0
40
0
40
0
40
1
40
1
40
1
40
1
10
7.6351936217192033
20
123.00674767596449
30
0
10
6.617848647930245
20
123.71443522449312
30
0
10
5.1215905222526814
20
124.59511758073178
30
0
10
3.0490506247417306
20
125.45974417229172
30
0
0
ARC
5
193
100
AcDbEntity
8
0
100
AcDbCircle
10
25.389608719410713
20
132.47867701240978
30
0
40
0.40000000000002356
210
-0
220
0
230
1
100
AcDbArc
50
-66.819561445281806
51
13.38583698270627
0
SPLINE
5
194
100
AcDbEntity
8
0
100
AcDbSpline
70
0
71
3
72
8
73
4
74
0
42
0.000000001
43
0.0000000001
44
0.0000000001
40
0
40
0
40
0
40
0
40
1
40
1
40
1
40
1
10
62.966368383422655
20
143.15120138229966
30
0
10
61.695865788715729
20
141.29949300178995
30
0
10
60.917941898357022
20
139.7473254167478
30
0
10
60.448156644188487
20
138.60054109657165
30
0
0
SPLINE
5
195
100
AcDbEntity
8
0
100
AcDbSpline
70
0
71
3
72
8
73
4
74
0
42
0.000000001
43
0.0000000001
44
0.0000000001
40
0
40
0
40
0
40
0
40
1
40
1
40
1
40
1
10
3.6151679239714833
20
22.916846579554427
30
0
10
4.1129190667715188
20
23.206716242817294
30
0
10
4.5009533384504081
20
23.465435699412357
30
0
10
4.7926500409339035
20
23.676365947396569
30
0
0
SPLINE
5
196
100
AcDbEntity
8
0
100
AcDbSpline
70
0
71
3
72
8
73
4
74
0
42
0.000000001
43
0.0000000001
44
0.0000000001
40
0
40
0
40
0
40
0
40
1
40
1
40
1
40
1
10
85.783286391457921
20
12.224764206109388
30
0
10
85.632121272932835
20
12.780578679454715
30
0
10
85.482648127707137
20
13.222352526660019
30
0
10
85.354401815629927
20
13.558702670398702
30
0
0
ARC
5
197
100
AcDbEntity
8
0
100
AcDbCircle
10
62.936360315329587
20
5.3155711430812902
30
0
40
0.40000000000001507
210
0
220
-0
230
1
100
AcDbArc
50
19.514163017291807
51
99.719561445310703
0
ARC
5
198
100
AcDbEntity
8
0
100
AcDbCircle
10
51.666323676508334
20
71.112593805557296
30
0
40
66.355238873712509
210
0
220
-0
230
1
100
AcDbArc
50
0.68041811484091086
51
2.219581885158854
0
ARC
5
199
100
AcDbEntity
8
0
100
AcDbCircle
10
106.1609639145604
20
32.556192230568733
30
0
40
0.40000000000007258
210
0
220
-0
230
1
100
AcDbArc
50
64.514163017288453
51
144.71956144529955
0
ARC
5
200
100
AcDbEntity
8
0
100
AcDbCircle
10
117.74232257783493
20
80.611240355371791
30
0
40
0.39999999999994018
210
0
220
0
230
1
100
AcDbArc
50
188.18043855473763
51
268.38583698270793
0
SPLINE
5
201
100
AcDbEntity
8
0
100
AcDbSpline
70
0
71
3
72
8
73
4
74
0
42
0.000000001
43
0.0000000001
44
0.0000000001
40
0
40
0
40
0
40
0
40
1
40
1
40
1
40
1
10
106.33307910353747
20
32.917268900714348
30
0
10
106.65806060630416
20
32.762460765870209
30
0
10
107.08642386078949
20
32.578039304470359
30
0
10
107.62832470825873
20
32.382785384276481
30
0
0
ARC
5
202
100
AcDbEntity
8
0
100
AcDbCircle
10
6.3267995752434523
20
22.11678305241356
30
0
40
0.40000000000001101
210
-0
220
0
230
1
100
AcDbArc
50
-32.985836982703319
51
47.219561445278551
0
SPLINE
5
203
100
AcDbEntity
8
0
100
AcDbSpline
70
0
71
3
72
8
73
4
74
0
42
0.000000001
43
0.0000000001
44
0.0000000001
40
0
40
0
40
0
40
0
40
1
40
1
40
1
40
1
10
99.717479429039741
20
119.30834103155973
30
0
10
99.219728286239715
20
119.01847136829689
30
0
10
98.831694014560838
20
118.75975191170181
30
0
10
98.539997312077332
20
118.5488216637176
30
0
0
ARC
5
204
100
AcDbEntity
8
0
100
AcDbCircle
10
-10.950587761990779
20
94.250967105992032
30
0
40
0.40000000000000757
210
0
220
0
230
1
100
AcDbArc
50
259.51416301729245
51
339.7195614452778
0
SPLINE
5
205
100
AcDbEntity
8
0
100
AcDbSpline
70
0
71
3
72
8
73
4
74
0
42
0.000000001
43
0.0000000001
44
0.0000000001
40
0
40
0
40
0
40
0
40
1
40
1
40
1
40
1
10
-21.230935433490398
20
72.913039923697568
30
0
10
-19.229234808978539
20
71.895103098823114
30
0
10
-17.588806789551921
20
71.326432979750038
30
0
10
-16.390514087821451
20
71.010352194165748
30
0
0
ARC
5
206
100
AcDbEntity
8
0
100
AcDbCircle
10
51.666323676507247
20
71.112593805559385
30
0
40
66.355238873712466
210
0
220
-0
230
1
100
AcDbArc
50
53.180418114840876
51
54.719581885159016
0
SPLINE
5
207
100
AcDbEntity
8
0
100
AcDbSpline
70
0
71
3
72
8
73
4
74
0
42
0.000000001
43
0.0000000001
44
0.0000000001
40
0
40
0
40
0
40
0
40
1
40
1
40
1
40
1
10
-15.290896910558951
20
58.927593555979243
30
0
10
-16.412444792421134
20
58.400390738529893
30
0
10
-17.923267148427449
20
57.544934369193605
30
0
10
-19.708325690261255
20
56.182375463372345
30
0
0
ARC
5
208
100
AcDbEntity
8
0
100
AcDbCircle
10
116.34756131618801
20
54.602008882977273
30
0
40
0.40000000000004249
210
0
220
0
230
1
100
AcDbArc
50
165.68043855469145
51
245.88583698270779
0
ARC
5
209
100
AcDbEntity
8
0
100
AcDbCircle
10
118.1382672802489
20
64.9690906821303
30
0
40
0.39999999999997748
210
0
220
0
230
1
100
AcDbArc
50
94.514163017287174
51
174.71956144528107
0
SPLINE
5
210
100
AcDbEntity
8
0
100
AcDbSpline
70
0
71
3
72
8
73
4
74
0
42
0.000000001
43
0.0000000001
44
0.0000000001
40
0
40
0
40
0
40
0
40
1
40
1
40
1
40
1
10
124.17494200544461
20
78.842552408452519
30
0
10
122.0574987895921
20
79.590506282195435
30
0
10
120.35687851400603
20
79.940192526580432
30
0
10
119.12758055107741
20
80.097160613705
30
0
0
ARC
5
211
100
AcDbEntity
8
0
100
AcDbCircle
10
51.666323676502614
20
71.11259380555876
30
0
40
66.355238873711798
210
0
220
0
230
1
100
AcDbArc
50
150.68041811484096
51
152.21958188515899
0
SPLINE
5
212
100
AcDbEntity
8
0
100
AcDbSpline
70
0
71
3
72
8
73
4
74
0
42
0.000000001
43
0.0000000001
44
0.0000000001
40
0
40
0
40
0
40
0
40
1
40
1
40
1
40
1
10
-11.915077073290563
20
50.994381355161835
30
0
10
-12.235730828198985
20
50.830797415798934
30
0
10
-12.642813237557347
20
50.603222669376507
30
0
10
-13.127606921634523
20
50.292166877406963
30
0
0
SPLINE
5
213
100
AcDbEntity
8
0
100
AcDbSpline
70
0
71
3
72
8
73
4
74
0
42
0.000000001
43
0.0000000001
44
0.0000000001
40
0
40
0
40
0
40
0
40
1
40
1
40
1
40
1
10
90.396132097786221
20
127.07459483731022
30
0
10
90.816397523197281
20
128.24043763727946
30
0
10
91.279811256530621
20
129.91364937014657
30
0
10
91.578563614204029
20
132.13935101196472
30
0
0
ARC
5
214
100
AcDbEntity
8
0
100
AcDbCircle
10
51.666323676506437
20
71.112593805553828
30
0
40
66.355238873711926
210
-0
220
0
230
1
100
AcDbArc
50
285.68041811484102
51
287.21958188515896
0
SPLINE
5
215
100
AcDbEntity
8
0
100
AcDbSpline
70
0
71
3
72
8
73
4
74
0
42
0.000000001
43
0.0000000001
44
0.0000000001
40
0
40
0
40
0
40
0
40
1
40
1
40
1
40
1
10
69.379487252330279
20
5.4011986296584622
30
0
10
69.377328331558189
20
5.9771985957174634
30
0
10
69.347287845532975
20
6.4426058608279257
30
0
10
69.310465243593868
20
6.8006877393708098
30
0
0
ARC
5
216
100
AcDbEntity
8
0
100
AcDbCircle
10
109.87034776526923
20
38.423857259746455
30
0
40
0.40000000000001723
210
0
220
0
230
1
100
AcDbArc
50
150.6804385547195
51
230.8858369827017
0
ARC
5
217
100
AcDbEntity
8
0
100
AcDbCircle
10
79.581865705260554
20
10.474450444075515
30
0
40
0.40000000000000918
210
0
220
-0
230
1
100
AcDbArc
50
34.51416301729175
51
114.71956144527962
0
ARC
5
218
100
AcDbEntity
8
0
100
AcDbCircle
10
105.10566796077865
20
31.106364296220406
30
0
40
0.39999999999999847
210
0
220
0
230
1
100
AcDbArc
50
143.18043855471834
51
223.38583698271145
0
ARC
5
219
100
AcDbEntity
8
0
100
AcDbCircle
10
117.94926814293706
20
63.185854882977431
30
0
40
0.39999999999998709
210
0
220
0
230
1
100
AcDbArc
50
173.18043855472041
51
253.38583698271822
0
SPLINE
5
220
100
AcDbEntity
8
0
100
AcDbSpline
70
0
71
3
72
8
73
4
74
0
42
0.000000001
43
0.0000000001
44
0.0000000001
40
0
40
0
40
0
40
0
40
1
40
1
40
1
40
1
10
119.64117764420124
20
74.453678643972069
30
0
10
120.8219443047475
20
74.829979793822062
30
0
10
122.43150082855851
20
75.480915726079601
30
0
10
124.37913757276348
20
76.598820857219764
30
0
0
ARC
5
221
100
AcDbEntity
8
0
100
AcDbCircle
10
3.906021193612351
20
117.75179859969271
30
0
40
0.40000000000002528
210
-0
220
0
230
1
100
AcDbArc
50
-44.319561445281536
51
35.885836982706664
0
ARC
5
222
100
AcDbEntity
8
0
100
AcDbCircle
10
51.666323676505598
20
71.112593805557097
30
0
40
72.919489795076288
210
0
220
0
230
1
100
AcDbArc
50
229.31482679737394
51
231.08517320262595
0
ARC
5
223
100
AcDbEntity
8
0
100
AcDbCircle
10
66.43359796712376
20
136.21397264742518
30
0
40
0.40000000000010222
210
0
220
0
230
1
100
AcDbArc
50
177.01416301729807
51
257.21956144525728
0
ARC
5
224
100
AcDbEntity
8
0
100
AcDbCircle
10
-15.084208059750379
20
70.319858027464036
30
0
40
0.40000000000001917
210
0
220
-0
230
1
100
AcDbArc
50
0.68043855467422287
51
80.88583698270871
0
ARC
5
225
100
AcDbEntity
8
0
100
AcDbCircle
10
90.222725251493969
20
125.60723404361185
30
0
40
0.40000000000006891
210
0
220
0
230
1
100
AcDbArc
50
154.51416301729077
51
234.71956144528235
0
ARC
5
226
100
AcDbEntity
8
0
100
AcDbCircle
10
23.750781647750653
20
131.75073716703875
30
0
40
0.40000000000007097
210
0
220
0
230
1
100
AcDbArc
50
214.51416301729358
51
294.7195614453417
0
SPLINE
5
227
100
AcDbEntity
8
0
100
AcDbSpline
70
0
71
3
72
8
73
4
74
0
42
0.000000001
43
0.0000000001
44
0.0000000001
40
0
40
0
40
0
40
0
40
1
40
1
40
1
40
1
10
-2.2645551440272293
20
29.601102270416618
30
0
10
-1.7332267478692898
20
29.823522497183781
30
0
10
-1.3147424976537314
20
30.02937993702939
30
0
10
-0.99800937880344831
20
30.200431587643198
30
0
0
SPLINE
5
228
100
AcDbEntity
8
0
100
AcDbSpline
70
0
71
3
72
8
73
4
74
0
42
0.000000001
43
0.0000000001
44
0.0000000001
40
0
40
0
40
0
40
0
40
1
40
1
40
1
40
1
10
14.785432346391396
20
128.31000174091142
30
0
10
13.869162660874874
20
129.14442508996129
30
0
10
12.500657345398224
20
130.21287396227973
30
0
10
10.558704730707353
20
131.34062429453525
30
0
0
SPLINE
5
229
100
AcDbEntity
8
0
100
AcDbSpline
70
0
71
3
72
8
73
4
74
0
42
0.000000001
43
0.0000000001
44
0.0000000001
40
0
40
0
40
0
40
0
40
1
40
1
40
1
40
1
10
-13.127606921634523
20
50.292166877406963
30
0
10
-14.170746029602114
20
49.623082978733031
30
0
10
-15.556983628413352
20
48.577743267974718
30
0
10
-17.148921121313627
20
46.993844348123581
30
0
0
SPLINE
5
230
100
AcDbEntity
8
0
100
AcDbSpline
70
0
71
3
72
8
73
4
74
0
42
0.000000001
43
0.0000000001
44
0.0000000001
40
0
40
0
40
0
40
0
40
1
40
1
40
1
40
1
10
112.07782306341578
20
99.357730295416147
30
0
10
112.37438159228662
20
99.56176846515001
30
0
10
112.74827689010468
20
99.84053119488226
30
0
10
113.18832216891572
20
100.21220413502593
30
0
0
SPLINE
5
231
100
AcDbEntity
8
0
100
AcDbSpline
70
0
71
3
72
8
73
4
74
0
42
0.000000001
43
0.0000000001
44
0.0000000001
40
0
40
0
40
0
40
0
40
1
40
1
40
1
40
1
10
60.448156644188487
20
138.60054109657165
30
0
10
60.229725582848474
20
138.06756033399122
30
0
10
60.079375723373687
20
137.62608409117155
30
0
10
59.976363369290517
20
137.28116817292394
30
0
0
SPLINE
5
232
100
AcDbEntity
8
0
100
AcDbSpline
70
0
71
3
72
8
73
4
74
0
42
0.000000001
43
0.0000000001
44
0.0000000001
40
0
40
0
40
0
40
0
40
1
40
1
40
1
40
1
10
20.572361038924207
20
10.574101031787698
30
0
10
20.307864063894456
20
9.3633765328879033
30
0
10
20.066812855560087
20
7.6439917283118657
30
0
10
20.061128726045894
20
5.3983362649162245
30
0
0
ARC
5
233
100
AcDbEntity
8
0
100
AcDbCircle
10
51.666323676504888
20
71.112593805553686
30
0
40
66.355238873711755
210
0
220
0
230
1
100
AcDbArc
50
263.18041811484125
51
264.71958188515941
0
SPLINE
5
234
100
AcDbEntity
8
0
100
AcDbSpline
70
0
71
3
72
8
73
4
74
0
42
0.000000001
43
0.0000000001
44
0.0000000001
40
0
40
0
40
0
40
0
40
1
40
1
40
1
40
1
10
40.366278969588564
20
-0.92601377118548989
30
0
10
41.636781564295603
20
0.92569460932421688
30
0
10
42.414705454654197
20
2.4778621943663581
30
0
10
42.884490708822739
20
3.6246465145425399
30
0
0
ARC
5
235
100
AcDbEntity
8
0
100
AcDbCircle
10
51.666323676505748
20
71.112593805556671
30
0
40
72.919489795076288
210
0
220
-0
230
1
100
AcDbArc
50
19.314826797374408
51
21.085173202625985
0
ARC
5
236
100
AcDbEntity
8
0
100
AcDbCircle
10
51.666323676505229
20
71.112593805556955
30
0
40
72.919489795076302
210
-0
220
0
230
1
100
AcDbArc
50
289.31482679737439
51
291.08517320262598
0
ARC
5
237
100
AcDbEntity
8
0
100
AcDbCircle
10
51.666323676507517
20
71.112593805554368
30
0
40
66.35523887371194
210
-0
220
0
230
1
100
AcDbArc
50
300.68041811484073
51
302.21958188515896
0
SPLINE
5
238
100
AcDbEntity
8
0
100
AcDbSpline
70
0
71
3
72
8
73
4
74
0
42
0.000000001
43
0.0000000001
44
0.0000000001
40
0
40
0
40
0
40
0
40
1
40
1
40
1
40
1
10
8.7479702893594045
20
122.15524201312419
30
0
10
8.4741295564053445
20
122.38888659091172
30
0
10
8.1080942124005535
20
122.67789261188278
30
0
10
7.6351936217192033
20
123.00674767596449
30
0
0
ARC
5
239
100
AcDbEntity
8
0
100
AcDbCircle
10
118.41685541276161
20
71.905329583650115
30
0
40
0.40000000000006802
210
0
220
0
230
1
100
AcDbArc
50
180.68043855467582
51
260.88583698270844
0
SPLINE
5
240
100
AcDbEntity
8
0
100
AcDbSpline
70
0
71
3
72
8
73
4
74
0
42
0.000000001
43
0.0000000001
44
0.0000000001
40
0
40
0
40
0
40
0
40
1
40
1
40
1
40
1
10
88.547215006619837
20
13.91518587020272
30
0
10
89.463484692136348
20
13.080762521152881
30
0
10
90.831990007613001
20
12.012313648834423
30
0
10
92.773942622303878
20
10.884563316578909
30
0
0
ARC
5
241
100
AcDbEntity
8
0
100
AcDbCircle
10
113.6391405803968
20
46.30066356860128
30
0
40
0.3999999999999776
210
0
220
0
230
1
100
AcDbArc
50
158.18043855471731
51
238.38583698270986
0
ARC
5
242
100
AcDbEntity
8
0
100
AcDbCircle
10
-15.038831304548253
20
68.527208720049941
30
0
40
0.4000000000000134
210
-0
220
0
230
1
100
AcDbArc
50
-77.985836982707639
51
2.2195614452818773
0
SPLINE
5
243
100
AcDbEntity
8
0
100
AcDbSpline
70
0
71
3
72
8
73
4
74
0
42
0.000000001
43
0.0000000001
44
0.0000000001
40
0
40
0
40
0
40
0
40
1
40
1
40
1
40
1
10
22.106355032345604
20
4.453309037938241
30
0
10
23.812823695792218
20
5.9130917170660702
30
0
10
24.965971004576577
20
7.2110289557219236
30
0
10
25.716558337074286
20
8.1971481768763574
30
0
0
SPLINE
5
244
100
AcDbEntity
8
0
100
AcDbSpline
70
0
71
3
72
8
73
4
74
0
42
0.000000001
43
0.0000000001
44
0.0000000001
40
0
40
0
40
0
40
0
40
1
40
1
40
1
40
1
10
20.933208498011417
20
11.928029729010664
30
0
10
20.822143366319441
20
11.585621971685267
30
0
10
20.695212280582446
20
11.136851593104126
30
0
10
20.572361038924207
20
10.574101031787698
30
0
0
ARC
5
245
100
AcDbEntity
8
0
100
AcDbCircle
10
51.666323676505534
20
71.112593805556912
30
0
40
72.919489795076302
210
0
220
0
230
1
100
AcDbArc
50
154.314826797374
51
156.08517320262601
0
ARC
5
246
100
AcDbEntity
8
0
100
AcDbCircle
10
54.251708762012754
20
4.4074388245032159
30
0
40
0.40000000000001368
210
0
220
-0
230
1
100
AcDbArc
50
12.014163017292358
51
92.219561445276682
0
ARC
5
247
100
AcDbEntity
8
0
100
AcDbCircle
10
116.76770251837371
20
56.34531951493895
30
0
40
0.40000000000001446
210
0
220
-0
230
1
100
AcDbArc
50
87.0141630172932
51
167.21956144529179
0
ARC
5
248
100
AcDbEntity
8
0
100
AcDbCircle
10
51.666323676505883
20
71.112593805557097
30
0
40
72.919489795076288
210
0
220
0
230
1
100
AcDbArc
50
266.814826797374
51
268.58517320262592
0
ARC
5
249
100
AcDbEntity
8
0
100
AcDbCircle
10
51.666323676505613
20
71.112593805556813
30
0
40
72.919489795076288
210
0
220
0
230
1
100
AcDbArc
50
176.81482679737402
51
178.58517320262618
0
SPLINE
5
250
100
AcDbEntity
8
0
100
AcDbSpline
70
0
71
3
72
8
73
4
74
0
42
0.000000001
43
0.0000000001
44
0.0000000001
40
0
40
0
40
0
40
0
40
1
40
1
40
1
40
1
10
108.40356553776431
20
25.307164237095712
30
0
10
107.43519033719576
20
27.333305949940883
30
0
10
106.47993572279795
20
28.783091593723373
30
0
10
105.72168399594787
20
29.763329718244695
30
0
0
SPLINE
5
251
100
AcDbEntity
8
0
100
AcDbSpline
70
0
71
3
72
8
73
4
74
0
42
0.000000001
43
0.0000000001
44
0.0000000001
40
0
40
0
40
0
40
0
40
1
40
1
40
1
40
1
10
63.31338389458864
20
5.4491870877986646
30
0
10
63.433714637024032
20
5.1099245815010175
30
0
10
63.60620753312962
20
4.6766203534910638
30
0
10
63.851323926083509
20
4.1553732184925263
30
0
0
SPLINE
5
252
100
AcDbEntity
8
0
100
AcDbSpline
70
0
71
3
72
8
73
4
74
0
42
0.000000001
43
0.0000000001
44
0.0000000001
40
0
40
0
40
0
40
0
40
1
40
1
40
1
40
1
10
-4.295677355247518
20
109.84240222683768
30
0
10
-5.4615201552167569
20
110.26266765224877
30
0
10
-7.1347318880840094
20
110.72608138558209
30
0
10
-9.3604335299020143
20
111.02483374325541
30
0
0
ARC
5
253
100
AcDbEntity
8
0
100
AcDbCircle
10
51.666323676505861
20
71.112593805553786
30
0
40
66.355238873711983
210
-0
220
0
230
1
100
AcDbArc
50
270.68041811484073
51
272.21958188515896
0
SPLINE
5
254
100
AcDbEntity
8
0
100
AcDbSpline
70
0
71
3
72
8
73
4
74
0
42
0.000000001
43
0.0000000001
44
0.0000000001
40
0
40
0
40
0
40
0
40
1
40
1
40
1
40
1
10
55.00740851492057
20
3.1377398378614485
30
0
10
55.383709664770592
20
1.9569731773151933
30
0
10
56.034645597028131
20
0.3474166535041695
30
0
10
57.152550728168279
20
-1.6002200907007902
30
0
0
ARC
5
255
100
AcDbEntity
8
0
100
AcDbCircle
10
-6.5377004122579745
20
103.8013303513676
30
0
40
0.4000000000000104
210
-0
220
0
230
1
100
AcDbArc
50
-29.319561445276765
51
50.885836982710387
0
SPLINE
5
256
100
AcDbEntity
8
0
100
AcDbSpline
70
0
71
3
72
8
73
4
74
0
42
0.000000001
43
0.0000000001
44
0.0000000001
40
0
40
0
40
0
40
0
40
1
40
1
40
1
40
1
10
68.794425265592068
20
0.23325882047015856
30
0
10
69.259598490051715
20
2.4302145871739542
30
0
10
69.384317631155838
20
4.1619290345031521
30
0
10
69.379487252330279
20
5.4011986296584622
30
0
0
ARC
5
257
100
AcDbEntity
8
0
100
AcDbCircle
10
40.396287037681695
20
136.90961646803288
30
0
40
0.40000000000002917
210
0
220
0
230
1
100
AcDbArc
50
199.5141630172979
51
279.71956144531487
0
SPLINE
5
258
100
AcDbEntity
8
0
100
AcDbSpline
70
0
71
3
72
8
73
4
74
0
42
0.000000001
43
0.0000000001
44
0.0000000001
40
0
40
0
40
0
40
0
40
1
40
1
40
1
40
1
10
-14.992961091113326
20
100.67256244971705
30
0
10
-13.533178411985398
20
98.966093786270477
30
0
10
-12.235241173329538
20
97.812946477486022
30
0
10
-11.249121952175116
20
97.062359144988406
30
0
0
SPLINE
5
259
100
AcDbEntity
8
0
100
AcDbSpline
70
0
71
3
72
8
73
4
74
0
42
0.000000001
43
0.0000000001
44
0.0000000001
40
0
40
0
40
0
40
0
40
1
40
1
40
1
40
1
10
119.49574242725507
20
65.552596344900223
30
0
10
120.7155246215531
20
65.771557210146511
30
0
10
122.39627535479298
20
66.206835011050899
30
0
10
124.47316569668888
20
67.060958700774222
30
0
0
SPLINE
5
260
100
AcDbEntity
8
0
100
AcDbSpline
70
0
71
3
72
8
73
4
74
0
42
0.000000001
43
0.0000000001
44
0.0000000001
40
0
40
0
40
0
40
0
40
1
40
1
40
1
40
1
10
119.70361024468133
20
97.345771813838297
30
0
10
117.46473244940586
20
97.520205146173737
30
0
10
115.73155394464933
20
97.417823204914086
30
0
10
114.50351696363086
20
97.25127700925924
30
0
0
SPLINE
5
261
100
AcDbEntity
8
0
100
AcDbSpline
70
0
71
3
72
8
73
4
74
0
42
0.000000001
43
0.0000000001
44
0.0000000001
40
0
40
0
40
0
40
0
40
1
40
1
40
1
40
1
10
114.58176930518633
20
45.16282846612576
30
0
10
114.12348354041146
20
45.511762241566927
30
0
10
113.73596364283948
20
45.77125151341447
30
0
10
113.42946200862343
20
45.960024615251818
30
0
0
SPLINE
5
262
100
AcDbEntity
8
0
100
AcDbSpline
70
0
71
3
72
8
73
4
74
0
42
0.000000001
43
0.0000000001
44
0.0000000001
40
0
40
0
40
0
40
0
40
1
40
1
40
1
40
1
10
124.56358278650164
20
69.312147687416598
30
0
10
122.56188216198979
20
70.330084512291052
30
0
10
120.92145414256315
20
70.898754631364127
30
0
10
119.72316144083268
20
71.214835416948418
30
0
0
ARC
5
263
100
AcDbEntity
8
0
100
AcDbCircle
10
100.66213442964911
20
25.773069704294926
30
0
40
0.40000000000003316
210
0
220
-0
230
1
100
AcDbArc
50
57.014163017290862
51
137.21956144527684
0
ARC
5
264
100
AcDbEntity
8
0
100
AcDbCircle
10
110.72737499622995
20
39.999025477644743
30
0
40
0.39999999999997177
210
0
220
-0
230
1
100
AcDbArc
50
72.014163017288752
51
152.21956144529796
0
ARC
5
265
100
AcDbEntity
8
0
100
AcDbCircle
10
51.666323676505677
20
71.112593805557196
30
0
40
72.919489795076302
210
-0
220
0
230
1
100
AcDbArc
50
326.81482679737394
51
328.58517320262592
0
ARC
5
266
100
AcDbEntity
8
0
100
AcDbCircle
10
51.666323676505456
20
71.112593805557154
30
0
40
72.919489795076274
210
0
220
-0
230
1
100
AcDbArc
50
64.314826797373982
51
66.085173202625896
0
ARC
5
267
100
AcDbEntity
8
0
100
AcDbCircle
10
51.666323676505606
20
71.112593805557083
30
0
40
72.919489795076302
210
0
220
-0
230
1
100
AcDbArc
50
4.314826797373942
51
6.08517320262595
0
ARC
5
268
100
AcDbEntity
8
0
100
AcDbCircle
10
52.459059454598673
20
4.3620620693010892
30
0
40
0.40000000000001623
210
0
220
0
230
1
100
AcDbArc
50
90.680438554721349
51
170.88583698270853
0
SPLINE
5
269
100
AcDbEntity
8
0
100
AcDbSpline
70
0
71
3
72
8
73
4
74
0
42
0.000000001
43
0.0000000001
44
0.0000000001
40
0
40
0
40
0
40
0
40
1
40
1
40
1
40
1
10
49.865877558365128
20
-1.7846653044389305
30
0
10
50.883814383239582
20
0.21703532007293191
30
0
10
51.452484502312657
20
1.8574633394995488
30
0
10
51.768565287896934
20
3.0557560412300178
30
0
0
SPLINE
5
270
100
AcDbEntity
8
0
100
AcDbSpline
70
0
71
3
72
8
73
4
74
0
42
0.000000001
43
0.0000000001
44
0.0000000001
40
0
40
0
40
0
40
0
40
1
40
1
40
1
40
1
10
31.060027278711647
20
1.1652383105814579
30
0
10
32.561356991605862
20
2.8352712033078351
30
0
10
33.535224159804869
20
4.2726203362433468
30
0
10
34.150675726609649
20
5.3482744771982951
30
0
0
ARC
5
271
100
AcDbEntity
8
0
100
AcDbCircle
10
51.666323676505606
20
71.112593805557097
30
0
40
72.919489795076217
210
0
220
0
230
1
100
AcDbArc
50
184.31482679737402
51
186.0851732026259
0
ARC
5
272
100
AcDbEntity
8
0
100
AcDbCircle
10
51.666323676505741
20
71.112593805557012
30
0
40
72.919489795076288
210
0
220
0
230
1
100
AcDbArc
50
244.31482679737394
51
246.08517320262573
0
ARC
5
273
100
AcDbEntity
8
0
100
AcDbCircle
10
84.35506022231624
20
129.31661789432067
30
0
40
0.40000000000001723
210
0
220
0
230
1
100
AcDbArc
50
240.68043855471953
51
320.88583698270742
0
SPLINE
5
274
100
AcDbEntity
8
0
100
AcDbSpline
70
0
71
3
72
8
73
4
74
0
42
0.000000001
43
0.0000000001
44
0.0000000001
40
0
40
0
40
0
40
0
40
1
40
1
40
1
40
1
10
102.09430761299129
20
25.40961736059694
30
0
10
103.19532082048977
20
24.840774342752919
30
0
10
104.79373036499688
20
24.162927221880448
30
0
10
106.96139581306471
20
23.576218371717445
30
0
0
SPLINE
5
275
100
AcDbEntity
8
0
100
AcDbSpline
70
0
71
3
72
8
73
4
74
0
42
0.000000001
43
0.0000000001
44
0.0000000001
40
0
40
0
40
0
40
0
40
1
40
1
40
1
40
1
10
85.606198725880375
20
130.10266501639614
30
0
10
85.200431831434742
20
129.69384494691457
30
0
10
84.892581029640226
20
129.34351048236292
30
0
10
84.665416416634613
20
129.0642708462932
30
0
0
SPLINE
5
276
100
AcDbEntity
8
0
100
AcDbSpline
70
0
71
3
72
8
73
4
74
0
42
0.000000001
43
0.0000000001
44
0.0000000001
40
0
40
0
40
0
40
0
40
1
40
1
40
1
40
1
10
-7.3237475343334264
20
105.05246885493185
30
0
10
-6.9149274648519965
20
104.64670196048621
30
0
10
-6.5645930003002206
20
104.33885115869171
30
0
10
-6.2853533642305148
20
104.1116865456861
30
0
0
SPLINE
5
277
100
AcDbEntity
8
0
100
AcDbSpline
70
0
71
3
72
8
73
4
74
0
42
0.000000001
43
0.0000000001
44
0.0000000001
40
0
40
0
40
0
40
0
40
1
40
1
40
1
40
1
10
48.325238838090641
20
139.08744777325273
30
0
10
47.948937688240633
20
140.26821443379899
30
0
10
47.298001755983094
20
141.87777095760998
30
0
10
46.180096624842918
20
143.82540770181495
30
0
0
SPLINE
5
278
100
AcDbEntity
8
0
100
AcDbSpline
70
0
71
3
72
8
73
4
74
0
42
0.000000001
43
0.0000000001
44
0.0000000001
40
0
40
0
40
0
40
0
40
1
40
1
40
1
40
1
10
-16.163095074243834
20
76.672591266213956
30
0
10
-17.38287726854189
20
76.453630400967654
30
0
10
-19.063628001781751
20
76.018352600063267
30
0
10
-21.140518343677659
20
75.164228910339929
30
0
0
ARC
5
279
100
AcDbEntity
8
0
100
AcDbCircle
10
51.666323676505392
20
71.112593805559925
30
0
40
66.355238873712437
210
0
220
0
230
1
100
AcDbArc
50
90.680418114840762
51
92.219581885158973
0
SPLINE
5
280
100
AcDbEntity
8
0
100
AcDbSpline
70
0
71
3
72
8
73
4
74
0
42
0.000000001
43
0.0000000001
44
0.0000000001
40
0
40
0
40
0
40
0
40
1
40
1
40
1
40
1
10
1.2383397400198903
20
116.81557025051723
30
0
10
0.13732653252147342
20
117.38441326836124
30
0
10
-1.4610830119856622
20
118.06226038923371
30
0
10
-3.6287484600536013
20
118.64896923939671
30
0
0
ARC
5
281
100
AcDbEntity
8
0
100
AcDbCircle
10
45.52282055307883
20
4.6406502018137861
30
0
40
0.40000000000002445
210
0
220
-0
230
1
100
AcDbArc
50
4.5141630172906142
51
84.719561445282977
0
ARC
5
282
100
AcDbEntity
8
0
100
AcDbCircle
10
51.666323676505606
20
71.112593805557069
30
0
40
72.919489795076288
210
0
220
-0
230
1
100
AcDbArc
50
49.314826797374096
51
51.085173202625896
0
SPLINE
5
283
100
AcDbEntity
8
0
100
AcDbSpline
70
0
71
3
72
8
73
4
74
0
42
0.000000001
43
0.0000000001
44
0.0000000001
40
0
40
0
40
0
40
0
40
1
40
1
40
1
40
1
10
77.899501684786813
20
3.0753072373813706
30
0
10
78.073935017122281
20
5.3141850326568409
30
0
10
77.971553075862602
20
7.0473635374134531
30
0
10
77.80500688020777
20
8.2754005184318622
30
0
0
SPLINE
5
284
100
AcDbEntity
8
0
100
AcDbSpline
70
0
71
3
72
8
73
4
74
0
42
0.000000001
43
0.0000000001
44
0.0000000001
40
0
40
0
40
0
40
0
40
1
40
1
40
1
40
1
10
0.6236754689385049
20
28.194240418410871
30
0
10
0.39003089115097311
20
27.920399685456818
30
0
10
0.10102487017991213
20
27.554364341452025
30
0
10
-0.22783019390177239
20
27.081463750770673
30
0
0
ARC
5
285
100
AcDbEntity
8
0
100
AcDbCircle
10
115.42940872026716
20
90.874448546163023
30
0
40
0.39999999999996838
210
0
220
0
230
1
100
AcDbArc
50
117.01416301728247
51
197.21956144531464
0
SPLINE
5
286
100
AcDbEntity
8
0
100
AcDbSpline
70
0
71
3
72
8
73
4
74
0
42
0.000000001
43
0.0000000001
44
0.0000000001
40
0
40
0
40
0
40
0
40
1
40
1
40
1
40
1
10
82.760286314086997
20
131.65108657932649
30
0
10
83.024783289116755
20
132.86181107822625
30
0
10
83.265834497451152
20
134.58119588280229
30
0
10
83.271518626965246
20
136.82685134619794
30
0
0
SPLINE
5
287
100
AcDbEntity
8
0
100
AcDbSpline
70
0
71
3
72
8
73
4
74
0
42
0.000000001
43
0.0000000001
44
0.0000000001
40
0
40
0
40
0
40
0
40
1
40
1
40
1
40
1
10
105.72168399594787
20
29.763329718244695
30
0
10
105.36932464649496
20
30.218986947630952
30
0
10
105.06216993478318
20
30.569931866801369
30
0
10
104.81497016445263
20
30.83160114146488
30
0
0
SPLINE
5
288
100
AcDbEntity
8
0
100
AcDbSpline
70
0
71
3
72
8
73
4
74
0
42
0.000000001
43
0.0000000001
44
0.0000000001
40
0
40
0
40
0
40
0
40
1
40
1
40
1
40
1
10
-14.857079696604645
20
85.478540467211502
30
0
10
-16.095006613122493
20
85.420666367680568
30
0
10
-17.818193444753391
20
85.208494421984767
30
0
10
-19.988801214767513
20
84.632766466817117
30
0
0
SPLINE
5
289
100
AcDbEntity
8
0
100
AcDbSpline
70
0
71
3
72
8
73
4
74
0
42
0.000000001
43
0.0000000001
44
0.0000000001
40
0
40
0
40
0
40
0
40
1
40
1
40
1
40
1
10
-8.7451757104045775
20
42.867457315698132
30
0
10
-9.0417342392754136
20
42.663419145964156
30
0
10
-9.4156295370934942
20
42.384656416231991
30
0
10
-9.8556748159044805
20
42.01298347608823
30
0
0
ARC
5
290
100
AcDbEntity
8
0
100
AcDbCircle
10
51.66632367650579
20
71.112593805556969
30
0
40
72.919489795076274
210
0
220
-0
230
1
100
AcDbArc
50
56.814826797374302
51
58.585173202625988
0
ARC
5
291
100
AcDbEntity
8
0
100
AcDbCircle
10
51.666323676508881
20
71.112593805556372
30
0
40
66.355238873711912
210
-0
220
0
230
1
100
AcDbArc
50
345.68041811484102
51
347.21958188515896
0
SPLINE
5
292
100
AcDbEntity
8
0
100
AcDbSpline
70
0
71
3
72
8
73
4
74
0
42
0.000000001
43
0.0000000001
44
0.0000000001
40
0
40
0
40
0
40
0
40
1
40
1
40
1
40
1
10
-9.8556748159044805
20
42.01298347608823
30
0
10
-10.802556750627332
20
41.213466707201249
30
0
10
-12.040490682590189
20
39.996129707294727
30
0
10
-13.412068634684875
20
38.217991723072231
30
0
0
ARC
5
293
100
AcDbEntity
8
0
100
AcDbCircle
10
51.666323676505897
20
71.11259380555714
30
0
40
72.919489795076288
210
0
220
0
230
1
100
AcDbArc
50
101.81482679737432
51
103.58517320262615
0
ARC
5
294
100
AcDbEntity
8
0
100
AcDbCircle
10
51.666323676505385
20
71.112593805557054
30
0
40
72.919489795076231
210
-0
220
0
230
1
100
AcDbArc
50
281.81482679737428
51
283.58517320262615
0
ARC
5
295
100
AcDbEntity
8
0
100
AcDbCircle
10
51.666323676505719
20
71.112593805556926
30
0
40
72.919489795076316
210
0
220
-0
230
1
100
AcDbArc
50
34.314826797374174
51
36.085173202626173
0
SPLINE
5
296
100
AcDbEntity
8
0
100
AcDbSpline
70
0
71
3
72
8
73
4
74
0
42
0.000000001
43
0.0000000001
44
0.0000000001
40
0
40
0
40
0
40
0
40
1
40
1
40
1
40
1
10
119.15427096752015
20
62.330760837874202
30
0
10
118.62129020493974
20
62.549191899214236
30
0
10
118.17981396212012
20
62.699541758689008
30
0
10
117.83489804387244
20
62.802554112772178
30
0
0
SPLINE
5
297
100
AcDbEntity
8
0
100
AcDbSpline
70
0
71
3
72
8
73
4
74
0
42
0.000000001
43
0.0000000001
44
0.0000000001
40
0
40
0
40
0
40
0
40
1
40
1
40
1
40
1
10
42.681756868357681
20
138.57385068012888
30
0
10
42.608714236974649
20
138.00249667792053
30
0
10
42.577749884331112
20
137.53714996622739
30
0
10
42.567518399696866
20
137.17732521377616
30
0
0
SPLINE
5
298
100
AcDbEntity
8
0
100
AcDbSpline
70
0
71
3
72
8
73
4
74
0
42
0.000000001
43
0.0000000001
44
0.0000000001
40
0
40
0
40
0
40
0
40
1
40
1
40
1
40
1
10
57.226321137162479
20
138.94201255630654
30
0
10
57.007360271916177
20
140.16179475060457
30
0
10
56.572082471011804
20
141.84254548384445
30
0
10
55.717958781288466
20
143.91943582574038
30
0
0
ARC
5
299
100
AcDbEntity
8
0
100
AcDbCircle
10
2.6705129233620886
20
116.45211790681924
30
0
40
0.3999999999999938
210
0
220
0
230
1
100
AcDbArc
50
237.01416301729546
51
317.21956144528338
0
ARC
5
300
100
AcDbEntity
8
0
100
AcDbCircle
10
-9.6997595303470856
20
44.835878848462293
30
0
40
0.4000000000000154
210
0
220
-0
230
1
100
AcDbArc
50
23.180438554719107
51
103.38583698270712
0
SPLINE
5
301
100
AcDbEntity
8
0
100
AcDbSpline
70
0
71
3
72
8
73
4
74
0
42
0.000000001
43
0.0000000001
44
0.0000000001
40
0
40
0
40
0
40
0
40
1
40
1
40
1
40
1
10
115.69742499108905
20
106.0019912841004
30
0
10
113.45493298705324
20
105.88270012163329
30
0
10
111.74994558961352
20
105.55496888141049
30
0
10
110.5541532759533
20
105.22955652050939
30
0
0
ARC
5
302
100
AcDbEntity
8
0
100
AcDbCircle
10
51.666323676505669
20
71.112593805557466
30
0
40
72.919489795076288
210
-0
220
0
230
1
100
AcDbArc
50
349.31482679737394
51
351.08517320262564
0
SPLINE
5
303
100
AcDbEntity
8
0
100
AcDbSpline
70
0
71
3
72
8
73
4
74
0
42
0.000000001
43
0.0000000001
44
0.0000000001
40
0
40
0
40
0
40
0
40
1
40
1
40
1
40
1
10
112.20481645027502
20
40.01863116797567
30
0
10
113.41554094917481
20
39.754134192945926
30
0
10
115.13492575375085
20
39.513082984611557
30
0
10
117.38058121714647
20
39.507398855097364
30
0
0
SPLINE
5
304
100
AcDbEntity
8
0
100
AcDbSpline
70
0
71
3
72
8
73
4
74
0
42
0.000000001
43
0.0000000001
44
0.0000000001
40
0
40
0
40
0
40
0
40
1
40
1
40
1
40
1
10
54.64294723276975
20
4.4907002141129677
30
0
10
54.717965885912562
20
4.1386338319702443
30
0
10
54.832425530424942
20
3.6865217407844986
30
0
10
55.00740851492057
20
3.1377398378614485
30
0
0
SPLINE
5
305
100
AcDbEntity
8
0
100
AcDbSpline
70
0
71
3
72
8
73
4
74
0
42
0.000000001
43
0.0000000001
44
0.0000000001
40
0
40
0
40
0
40
0
40
1
40
1
40
1
40
1
10
86.555721155048943
20
7.0814924909736554
30
0
10
86.436429992581935
20
9.323984495009455
30
0
10
86.108698752359032
20
11.028971892449185
30
0
10
85.783286391457921
20
12.224764206109388
30
0
0
ARC
5
306
100
AcDbEntity
8
0
100
AcDbCircle
10
51.666323676505471
20
71.112593805557239
30
0
40
72.919489795076302
210
0
220
-0
230
1
100
AcDbArc
50
41.814826797373897
51
43.585173202625697
0
SPLINE
5
307
100
AcDbEntity
8
0
100
AcDbSpline
70
0
71
3
72
8
73
4
74
0
42
0.000000001
43
0.0000000001
44
0.0000000001
40
0
40
0
40
0
40
0
40
1
40
1
40
1
40
1
10
96.670325708830376
20
120.32617724122984
30
0
10
96.866228036718525
20
120.62817196582351
30
0
10
97.10498437144544
20
121.02879868216419
30
0
10
97.369300121465727
20
121.54057774204279
30
0
0
ARC
5
308
100
AcDbEntity
8
0
100
AcDbCircle
10
51.666323676505598
20
71.112593805557353
30
0
40
72.919489795076316
210
-0
220
0
230
1
100
AcDbArc
50
356.814826797374
51
358.58517320262592
0
ARC
5
309
100
AcDbEntity
8
0
100
AcDbCircle
10
94.324973038546347
20
19.765719005884598
30
0
40
0.40000000000003055
210
0
220
-0
230
1
100
AcDbArc
50
49.514163017284375
51
129.71956144527871
0
SPLINE
5
310
100
AcDbEntity
8
0
100
AcDbSpline
70
0
71
3
72
8
73
4
74
0
42
0.000000001
43
0.0000000001
44
0.0000000001
40
0
40
0
40
0
40
0
40
1
40
1
40
1
40
1
10
17.549360961553312
20
130.00042340500477
30
0
10
17.700526080078383
20
129.44460893165945
30
0
10
17.849999225304167
20
129.00283508445415
30
0
10
17.978245537381284
20
128.66648494071546
30
0
0
ARC
5
311
100
AcDbEntity
8
0
100
AcDbCircle
10
51.666323676504426
20
71.112593805556529
30
0
40
66.35523887371393
210
0
220
0
230
1
100
AcDbArc
50
210.68041811484102
51
212.21958188515922
0
ARC
5
312
100
AcDbEntity
8
0
100
AcDbCircle
10
51.666323676505719
20
71.112593805557012
30
0
40
72.919489795076288
210
0
220
0
230
1
100
AcDbArc
50
236.81482679737397
51
238.58517320262595
0
SPLINE
5
313
100
AcDbEntity
8
0
100
AcDbSpline
70
0
71
3
72
8
73
4
74
0
42
0.000000001
43
0.0000000001
44
0.0000000001
40
0
40
0
40
0
40
0
40
1
40
1
40
1
40
1
10
118.62354426357018
20
83.297594055134937
30
0
10
119.74509214543235
20
83.824796872584272
30
0
10
121.2559145014387
20
84.680253241920582
30
0
10
123.0409730432725
20
86.042812147741841
30
0
0
ARC
5
314
100
AcDbEntity
8
0
100
AcDbCircle
10
109.07761198717611
20
105.17438899600245
30
0
40
0.39999999999998231
210
0
220
0
230
1
100
AcDbArc
50
210.68043855472308
51
290.88583698270668
0
ARC
5
315
100
AcDbEntity
8
0
100
AcDbCircle
10
35.155738753925796
20
6.4313561658746821
30
0
40
0.40000000000001784
210
0
220
-0
230
1
100
AcDbArc
50
75.680438554718634
51
155.88583698270816
0
SPLINE
5
316
100
AcDbEntity
8
0
100
AcDbSpline
70
0
71
3
72
8
73
4
74
0
42
0.000000001
43
0.0000000001
44
0.0000000001
40
0
40
0
40
0
40
0
40
1
40
1
40
1
40
1
10
71.784536126900946
20
7.5311930557610136
30
0
10
71.948120066263868
20
7.2105393008524965
30
0
10
72.175694812686203
20
6.8034568914941236
30
0
10
72.486750604655839
20
6.3186632074169573
30
0
0
ARC
5
317
100
AcDbEntity
8
0
100
AcDbCircle
10
51.666323676505506
20
71.112593805556713
30
0
40
72.919489795076259
210
-0
220
0
230
1
100
AcDbArc
50
341.81482679737439
51
343.58517320262621
0
SPLINE
5
318
100
AcDbEntity
8
0
100
AcDbSpline
70
0
71
3
72
8
73
4
74
0
42
0.000000001
43
0.0000000001
44
0.0000000001
40
0
40
0
40
0
40
0
40
1
40
1
40
1
40
1
10
-16.308530291190021
20
67.771508967142111
30
0
10
-17.489296951736275
20
67.395207817292103
30
0
10
-19.098853475547301
20
66.744271885034564
30
0
10
-21.046490219752258
20
65.626366753894402
30
0
0
SPLINE
5
319
100
AcDbEntity
8
0
100
AcDbSpline
70
0
71
3
72
8
73
4
74
0
42
0.000000001
43
0.0000000001
44
0.0000000001
40
0
40
0
40
0
40
0
40
1
40
1
40
1
40
1
10
-10.564331519937307
20
109.12045543700975
30
0
10
-9.3397763407759911
20
107.23804597496493
30
0
10
-8.2034590624093973
20
105.92534919576121
30
0
10
-7.3237475343334264
20
105.05246885493185
30
0
0
SPLINE
5
320
100
AcDbEntity
8
0
100
AcDbSpline
70
0
71
3
72
8
73
4
74
0
42
0.000000001
43
0.0000000001
44
0.0000000001
40
0
40
0
40
0
40
0
40
1
40
1
40
1
40
1
10
60.65089048465353
20
3.6513369309852917
30
0
10
60.723933116036562
20
4.2226909331936291
30
0
10
60.754897468680099
20
4.6880376448867667
30
0
10
60.76512895331436
20
5.0478623973380206
30
0
0
SPLINE
5
321
100
AcDbEntity
8
0
100
AcDbSpline
70
0
71
3
72
8
73
4
74
0
42
0.000000001
43
0.0000000001
44
0.0000000001
40
0
40
0
40
0
40
0
40
1
40
1
40
1
40
1
10
-4.5416168437766657
20
35.223815392607072
30
0
10
-4.8090059479592746
20
34.982814142156322
30
0
10
-5.1433166820279901
20
34.657633136707673
30
0
10
-5.5310842588487503
20
34.231702475442866
30
0
0
ARC
5
322
100
AcDbEntity
8
0
100
AcDbCircle
10
51.66632367650233
20
71.112593805556813
30
0
40
66.355238873711997
210
0
220
0
230
1
100
AcDbArc
50
180.68041811484036
51
182.21958188515885
0
ARC
5
323
100
AcDbEntity
8
0
100
AcDbCircle
10
51.666323676505648
20
71.112593805556813
30
0
40
72.919489795076316
210
0
220
-0
230
1
100
AcDbArc
50
11.814826797374225
51
13.585173202626027
0
ARC
5
324
100
AcDbEntity
8
0
100
AcDbCircle
10
51.666323676505321
20
71.112593805556159
30
0
40
66.355238873714299
210
0
220
0
230
1
100
AcDbArc
50
248.18041811484076
51
249.71958188515907
0
SPLINE
5
325
100
AcDbEntity
8
0
100
AcDbSpline
70
0
71
3
72
8
73
4
74
0
42
0.000000001
43
0.0000000001
44
0.0000000001
40
0
40
0
40
0
40
0
40
1
40
1
40
1
40
1
10
1.3932850892126547
20
123.93184771144625
30
0
10
2.0889111430222327
20
121.79664159426024
30
0
10
2.8467584221524191
20
120.23457332022059
30
0
10
3.4705764505029557
20
119.1637495580912
30
0
0
ARC
5
326
100
AcDbEntity
8
0
100
AcDbCircle
10
51.666323676505911
20
71.112593805557253
30
0
40
72.919489795076302
210
-0
220
0
230
1
100
AcDbArc
50
296.81482679737383
51
298.5851732026257
0
SPLINE
5
327
100
AcDbEntity
8
0
100
AcDbSpline
70
0
71
3
72
8
73
4
74
0
42
0.000000001
43
0.0000000001
44
0.0000000001
40
0
40
0
40
0
40
0
40
1
40
1
40
1
40
1
10
118.28821726794973
20
74.089217361821227
30
0
10
118.64028365009244
20
74.164236014964033
30
0
10
119.09239574127821
20
74.278695659476426
30
0
10
119.64117764420124
20
74.453678643972069
30
0
0
SPLINE
5
328
100
AcDbEntity
8
0
100
AcDbSpline
70
0
71
3
72
8
73
4
74
0
42
0.000000001
43
0.0000000001
44
0.0000000001
40
0
40
0
40
0
40
0
40
1
40
1
40
1
40
1
10
10.317059589193235
20
17.05723348611474
30
0
10
10.772716818579484
20
17.409592835567761
30
0
10
11.123661737749902
20
17.716747547279518
30
0
10
11.385331012413412
20
17.963947317610053
30
0
0
ARC
5
329
100
AcDbEntity
8
0
100
AcDbCircle
10
51.666323676506011
20
71.112593805557211
30
0
40
72.919489795076302
210
0
220
0
230
1
100
AcDbArc
50
109.31482679737442
51
111.08517320262622
0
SPLINE
5
330
100
AcDbEntity
8
0
100
AcDbSpline
70
0
71
3
72
8
73
4
74
0
42
0.000000001
43
0.0000000001
44
0.0000000001
40
0
40
0
40
0
40
0
40
1
40
1
40
1
40
1
10
87.55510208945563
20
14.904653285274808
30
0
10
87.796103339906352
20
14.637264181092196
30
0
10
88.121284345355022
20
14.30295344702348
30
0
10
88.547215006619837
20
13.91518587020272
30
0
0
SPLINE
5
331
100
AcDbEntity
8
0
100
AcDbSpline
70
0
71
3
72
8
73
4
74
0
42
0.000000001
43
0.0000000001
44
0.0000000001
40
0
40
0
40
0
40
0
40
1
40
1
40
1
40
1
10
-8.8721690972637681
20
102.20655644313848
30
0
10
-10.082893596163567
20
102.47105341816822
30
0
10
-11.802278400739606
20
102.71210462650261
30
0
10
-14.047933864135235
20
102.7177887560167
30
0
0
SPLINE
5
332
100
AcDbEntity
8
0
100
AcDbSpline
70
0
71
3
72
8
73
4
74
0
42
0.000000001
43
0.0000000001
44
0.0000000001
40
0
40
0
40
0
40
0
40
1
40
1
40
1
40
1
10
66.032270338160018
20
137.63599717866737
30
0
10
65.974396238629083
20
138.87392409518529
30
0
10
65.762224292933297
20
140.59711092681607
30
0
10
65.186496337765647
20
142.7677186968302
30
0
0
ARC
5
333
100
AcDbEntity
8
0
100
AcDbCircle
10
51.666323676505677
20
71.112593805557211
30
0
40
72.919489795076288
210
-0
220
0
230
1
100
AcDbArc
50
334.31482679737394
51
336.0851732026257
0
ARC
5
334
100
AcDbEntity
8
0
100
AcDbCircle
10
69.708356522052398
20
6.8417064000840089
30
0
40
0.40000000000001679
210
0
220
0
230
1
100
AcDbArc
50
105.6804385547194
51
185.88583698271046
0
ARC
5
335
100
AcDbEntity
8
0
100
AcDbCircle
10
51.66632367650385
20
71.112593805553686
30
0
40
66.355238873711471
210
0
220
0
230
1
100
AcDbArc
50
240.68041811484079
51
242.21958188515907
0
SPLINE
5
336
100
AcDbEntity
8
0
100
AcDbSpline
70
0
71
3
72
8
73
4
74
0
42
0.000000001
43
0.0000000001
44
0.0000000001
40
0
40
0
40
0
40
0
40
1
40
1
40
1
40
1
10
8.7176739917265866
20
130.04191997028056
30
0
10
9.1286485441324956
20
127.83418341740978
30
0
10
9.6761215109341414
20
126.18655993436887
30
0
10
10.154832141365148
20
125.04347262608994
30
0
0
ARC
5
337
100
AcDbEntity
8
0
100
AcDbCircle
10
-5.744964634164913
20
37.050798615111724
30
0
40
0.40000000000001479
210
0
220
-0
230
1
100
AcDbArc
50
30.680438554719426
51
110.88583698271958
0
SPLINE
5
338
100
AcDbEntity
8
0
100
AcDbSpline
70
0
71
3
72
8
73
4
74
0
42
0.000000001
43
0.0000000001
44
0.0000000001
40
0
40
0
40
0
40
0
40
1
40
1
40
1
40
1
10
2.4527402408328616
20
116.11659583788185
30
0
10
2.1507455162391986
20
116.31249816576998
30
0
10
1.7501187998984846
20
116.55125450049692
30
0
10
1.2383397400198903
20
116.81557025051723
30
0
0
SPLINE
5
339
100
AcDbEntity
8
0
100
AcDbSpline
70
0
71
3
72
8
73
4
74
0
42
0.000000001
43
0.0000000001
44
0.0000000001
40
0
40
0
40
0
40
0
40
1
40
1
40
1
40
1
10
-11.249121952175116
20
97.062359144988406
30
0
10
-10.790836187400249
20
96.713425369547238
30
0
10
-10.403316289828265
20
96.453936097699611
30
0
10
-10.096814655612222
20
96.26516299586234
30
0
0
SPLINE
5
340
100
AcDbEntity
8
0
100
AcDbSpline
70
0
71
3
72
8
73
4
74
0
42
0.000000001
43
0.0000000001
44
0.0000000001
40
0
40
0
40
0
40
0
40
1
40
1
40
1
40
1
10
42.884490708822739
20
3.6246465145425399
30
0
10
43.102921770162759
20
4.1576272771229466
30
0
10
43.253271629637531
20
4.5991035199425951
30
0
10
43.356283983720701
20
4.9440194381902174
30
0
0
SPLINE
5
341
100
AcDbEntity
8
0
100
AcDbSpline
70
0
71
3
72
8
73
4
74
0
42
0.000000001
43
0.0000000001
44
0.0000000001
40
0
40
0
40
0
40
0
40
1
40
1
40
1
40
1
10
105.59720249703847
20
112.62408534069755
30
0
10
105.06587410088052
20
112.40166511393039
30
0
10
104.64738985066496
20
112.19580767408479
30
0
10
104.33065673181467
20
112.0247560234709
30
0
0
SPLINE
5
342
100
AcDbEntity
8
0
100
AcDbSpline
70
0
71
3
72
8
73
4
74
0
42
0.000000001
43
0.0000000001
44
0.0000000001
40
0
40
0
40
0
40
0
40
1
40
1
40
1
40
1
10
115.74547779649083
20
48.18650327327893
30
0
10
116.98036816246881
20
48.082300365205697
30
0
10
118.7165068880438
20
48.067736134877052
30
0
10
120.94369238542505
20
48.355217490553997
30
0
0
SPLINE
5
343
100
AcDbEntity
8
0
100
AcDbSpline
70
0
71
3
72
8
73
4
74
0
42
0.000000001
43
0.0000000001
44
0.0000000001
40
0
40
0
40
0
40
0
40
1
40
1
40
1
40
1
10
93.177815211646049
20
17.181714985024243
30
0
10
92.955394984878907
20
17.713043381182182
30
0
10
92.749537545033292
20
18.131527631397738
30
0
10
92.578485894419487
20
18.448260750248021
30
0
0
ARC
5
344
100
AcDbEntity
8
0
100
AcDbCircle
10
115.93721108197869
20
89.154626651103769
30
0
40
0.40000000000000902
210
0
220
0
230
1
100
AcDbArc
50
195.68043855473223
51
275.88583698270628
0
SPLINE
5
345
100
AcDbEntity
8
0
100
AcDbSpline
70
0
71
3
72
8
73
4
74
0
42
0.000000001
43
0.0000000001
44
0.0000000001
40
0
40
0
40
0
40
0
40
1
40
1
40
1
40
1
10
59.396282279401042
20
-1.396024523381928
30
0
10
60.14423615314395
20
0.72141869247057677
30
0
10
60.493922397528948
20
2.4220389680566736
30
0
10
60.65089048465353
20
3.6513369309852917
30
0
0
ARC
5
346
100
AcDbEntity
8
0
100
AcDbCircle
10
71.428178417111639
20
7.3495087617955468
30
0
40
0.40000000000001951
210
0
220
-0
230
1
100
AcDbArc
50
27.014163017292308
51
107.2195614453357
0
SPLINE
5
347
100
AcDbEntity
8
0
100
AcDbSpline
70
0
71
3
72
8
73
4
74
0
42
0.000000001
43
0.0000000001
44
0.0000000001
40
0
40
0
40
0
40
0
40
1
40
1
40
1
40
1
10
-14.774137718196183
20
76.857337765435418
30
0
10
-15.132984022774174
20
76.828914791539574
30
0
10
-15.596168213906294
20
76.774446834872222
30
0
10
-16.163095074243834
20
76.672591266213956
30
0
0
ARC
5
348
100
AcDbEntity
8
0
100
AcDbCircle
10
114.28323511500199
20
47.974220505122133
30
0
40
0.40000000000001545
210
0
220
-0
230
1
100
AcDbArc
50
79.514163017292972
51
159.71956144527843
0
ARC
5
349
100
AcDbEntity
8
0
100
AcDbCircle
10
28.527950376070667
20
8.4956823670606951
30
0
40
0.40000000000001668
210
-0
220
0
230
1
100
AcDbArc
50
-10.485836982707919
51
69.719561445279965
0
SPLINE
5
350
100
AcDbEntity
8
0
100
AcDbSpline
70
0
71
3
72
8
73
4
74
0
42
0.000000001
43
0.0000000001
44
0.0000000001
40
0
40
0
40
0
40
0
40
1
40
1
40
1
40
1
10
107.62832470825873
20
32.382785384276481
30
0
10
108.79416750822799
20
31.962519958865418
30
0
10
110.4673792410951
20
31.499106225532071
30
0
10
112.69308088291325
20
31.200353867858659
30
0
0
SPLINE
5
351
100
AcDbEntity
8
0
100
AcDbSpline
70
0
71
3
72
8
73
4
74
0
42
0.000000001
43
0.0000000001
44
0.0000000001
40
0
40
0
40
0
40
0
40
1
40
1
40
1
40
1
10
-14.097995651853186
20
88.628241755453146
30
0
10
-13.598085588281066
20
88.342111452656923
30
0
10
-13.180010830576954
20
88.13542364414154
30
0
10
-12.851491526154353
20
87.988272013582844
30
0
0
SPLINE
5
352
100
AcDbEntity
8
0
100
AcDbSpline
70
0
71
3
72
8
73
4
74
0
42
0.000000001
43
0.0000000001
44
0.0000000001
40
0
40
0
40
0
40
0
40
1
40
1
40
1
40
1
10
3.4705764505029557
20
119.1637495580912
30
0
10
3.7604461137658252
20
118.66599841529117
30
0
10
4.0191655703608866
20
118.27796414361228
30
0
10
4.230095818345097
20
117.98626744112879
30
0
0
SPLINE
5
353
100
AcDbEntity
8
0
100
AcDbSpline
70
0
71
3
72
8
73
4
74
0
42
0.000000001
43
0.0000000001
44
0.0000000001
40
0
40
0
40
0
40
0
40
1
40
1
40
1
40
1
10
118.32560844412444
20
41.552625161397074
30
0
10
116.8658257649966
20
43.259093824843688
30
0
10
115.56788852634078
20
44.412241133628044
30
0
10
114.58176930518633
20
45.16282846612576
30
0
0
ARC
5
354
100
AcDbEntity
8
0
100
AcDbCircle
10
16.074737023364079
20
127.58826003977424
30
0
40
0.40000000000000319
210
0
220
0
230
1
100
AcDbArc
50
222.01416301728432
51
302.21956144530816
0
ARC
5
355
100
AcDbEntity
8
0
100
AcDbCircle
10
118.37147865755949
20
73.697978891064238
30
0
40
0.40000000000002117
210
0
220
0
230
1
100
AcDbArc
50
102.01416301729361
51
182.21956144527957
0
SPLINE
5
356
100
AcDbEntity
8
0
100
AcDbSpline
70
0
71
3
72
8
73
4
74
0
42
0.000000001
43
0.0000000001
44
0.0000000001
40
0
40
0
40
0
40
0
40
1
40
1
40
1
40
1
10
101.93936226379859
20
18.293339899667913
30
0
10
101.24373620998898
20
20.428546016853932
30
0
10
100.48588893085881
20
21.990614290893582
30
0
10
99.862070902508293
20
23.061438053022954
30
0
0
ARC
5
357
100
AcDbEntity
8
0
100
AcDbCircle
10
18.977587130694985
20
12.908569716793487
30
0
40
0.40000000000001806
210
0
220
-0
230
1
100
AcDbArc
50
60.68043855471975
51
140.88583698270818
0
ARC
5
358
100
AcDbEntity
8
0
100
AcDbCircle
10
51.666323676505179
20
71.11259380555714
30
0
40
72.919489795076302
210
0
220
-0
230
1
100
AcDbArc
50
79.314826797373797
51
81.085173202625285
0
ARC
5
359
100
AcDbEntity
8
0
100
AcDbCircle
10
117.46334633898141
20
82.382630444381007
30
0
40
0.40000000000002811
210
0
220
0
230
1
100
AcDbArc
50
109.51416301728922
51
189.71956144529219
0
SPLINE
5
360
100
AcDbEntity
8
0
100
AcDbSpline
70
0
71
3
72
8
73
4
74
0
42
0.000000001
43
0.0000000001
44
0.0000000001
40
0
40
0
40
0
40
0
40
1
40
1
40
1
40
1
10
43.936365073610162
20
143.62121213449609
30
0
10
43.188411199867275
20
141.5037689186436
30
0
10
42.83872495548227
20
139.80314864305748
30
0
10
42.681756868357681
20
138.57385068012888
30
0
0
SPLINE
5
361
100
AcDbEntity
8
0
100
AcDbSpline
70
0
71
3
72
8
73
4
74
0
42
0.000000001
43
0.0000000001
44
0.0000000001
40
0
40
0
40
0
40
0
40
1
40
1
40
1
40
1
10
107.87426419678788
20
107.0013722185071
30
0
10
108.14165330097052
20
107.24237346895775
30
0
10
108.47596403503921
20
107.56755447440651
30
0
10
108.86373161185998
20
107.99348513567131
30
0
0
ARC
5
362
100
AcDbEntity
8
0
100
AcDbCircle
10
97.005847777767755
20
120.1084045587006
30
0
40
0.40000000000002045
210
0
220
0
230
1
100
AcDbArc
50
147.01416301728889
51
227.21956144532024
0
SPLINE
5
363
100
AcDbEntity
8
0
100
AcDbSpline
70
0
71
3
72
8
73
4
74
0
42
0.000000001
43
0.0000000001
44
0.0000000001
40
0
40
0
40
0
40
0
40
1
40
1
40
1
40
1
10
33.953160100681046
20
136.82398898145573
30
0
10
33.955319021453029
20
136.24798901539671
30
0
10
33.985359507478243
20
135.78258175028625
30
0
10
34.022182109417358
20
135.42449987174336
30
0
0
SPLINE
5
364
100
AcDbEntity
8
0
100
AcDbSpline
70
0
71
3
72
8
73
4
74
0
42
0.000000001
43
0.0000000001
44
0.0000000001
40
0
40
0
40
0
40
0
40
1
40
1
40
1
40
1
10
80.765934005974572
20
9.5905953131470874
30
0
10
81.565450774861546
20
8.6437133784241471
30
0
10
82.782787774767968
20
7.4057794464612829
30
0
10
84.560925758990464
20
6.0342014943665978
30
0
0
ARC
5
365
100
AcDbEntity
8
0
100
AcDbCircle
10
51.666323676503303
20
71.1125938055593
30
0
40
66.355238873712054
210
0
220
0
230
1
100
AcDbArc
50
135.68041811484096
51
137.2195818851591
0
SPLINE
5
366
100
AcDbEntity
8
0
100
AcDbSpline
70
0
71
3
72
8
73
4
74
0
42
0.000000001
43
0.0000000001
44
0.0000000001
40
0
40
0
40
0
40
0
40
1
40
1
40
1
40
1
10
117.43064300486441
20
53.596945855661119
30
0
10
116.93073294129228
20
53.883076158457243
30
0
10
116.51265818358816
20
54.08976396697264
30
0
10
116.18413887916557
20
54.236915597531336
30
0
0
SPLINE
5
367
100
AcDbEntity
8
0
100
AcDbSpline
70
0
71
3
72
8
73
4
74
0
42
0.000000001
43
0.0000000001
44
0.0000000001
40
0
40
0
40
0
40
0
40
1
40
1
40
1
40
1
10
110.59564984122908
20
114.06124349033611
30
0
10
108.38791328835832
20
113.65026893793018
30
0
10
106.74028980531742
20
113.10279597112854
30
0
10
105.59720249703847
20
112.62408534069755
30
0
0
SPLINE
5
368
100
AcDbEntity
8
0
100
AcDbSpline
70
0
71
3
72
8
73
4
74
0
42
0.000000001
43
0.0000000001
44
0.0000000001
40
0
40
0
40
0
40
0
40
1
40
1
40
1
40
1
10
28.74023314422746
20
7.0334396855718584
30
0
10
28.636030236154227
20
5.7985493195939171
30
0
10
28.621466005825589
20
4.062410594018897
30
0
10
28.908947361502527
20
1.8352250966376493
30
0
0
ARC
5
369
100
AcDbEntity
8
0
100
AcDbCircle
10
51.666323676508469
20
71.11259380555876
30
0
40
66.355238873711954
210
0
220
-0
230
1
100
AcDbArc
50
30.680418114840926
51
32.219581885159172
0
SPLINE
5
370
100
AcDbEntity
8
0
100
AcDbSpline
70
0
71
3
72
8
73
4
74
0
42
0.000000001
43
0.0000000001
44
0.0000000001
40
0
40
0
40
0
40
0
40
1
40
1
40
1
40
1
10
100.87990711217839
20
26.10859177323233
30
0
10
101.18190183677203
20
25.912689445344185
30
0
10
101.58252855311275
20
25.673933110617249
30
0
10
102.09430761299129
20
25.40961736059694
30
0
0
ARC
5
371
100
AcDbEntity
8
0
100
AcDbCircle
10
17.604528486060254
20
128.52388211622761
30
0
40
0.40000000000002811
210
-0
220
0
230
1
100
AcDbArc
50
-59.319561445281515
51
20.885836982707445
0
ARC
5
372
100
AcDbEntity
8
0
100
AcDbCircle
10
33.624290830958927
20
135.38348121103016
30
0
40
0.40000000000003361
210
-0
220
0
230
1
100
AcDbArc
50
-74.31956144530929
51
5.8858369827129273
0
ARC
5
373
100
AcDbEntity
8
0
100
AcDbCircle
10
51.666323676506529
20
71.112593805559754
30
0
40
66.355238873712395
210
0
220
-0
230
1
100
AcDbArc
50
68.180418114840805
51
69.719581885159002
0
ARC
5
374
100
AcDbEntity
8
0
100
AcDbCircle
10
51.666323676502245
20
71.112593805558191
30
0
40
66.355238873711698
210
0
220
0
230
1
100
AcDbArc
50
158.18041811484102
51
159.71958188515902
0
SPLINE
5
375
100
AcDbEntity
8
0
100
AcDbSpline
70
0
71
3
72
8
73
4
74
0
42
0.000000001
43
0.0000000001
44
0.0000000001
40
0
40
0
40
0
40
0
40
1
40
1
40
1
40
1
10
-18.281031818470012
20
91.718890203351066
30
0
10
-16.610998925743633
20
90.217560490456833
30
0
10
-15.173649792808135
20
89.243693322257926
30
0
10
-14.097995651853186
20
88.628241755453146
30
0
0
ARC
5
376
100
AcDbEntity
8
0
100
AcDbCircle
10
51.666323676505556
20
71.112593805556671
30
0
40
72.919489795076288
210
0
220
0
230
1
100
AcDbArc
50
169.3148267973738
51
171.08517320262561
0
SPLINE
5
377
100
AcDbEntity
8
0
100
AcDbSpline
70
0
71
3
72
8
73
4
74
0
42
0.000000001
43
0.0000000001
44
0.0000000001
40
0
40
0
40
0
40
0
40
1
40
1
40
1
40
1
10
77.61608901593695
20
134.0280394342378
30
0
10
77.267155240495754
20
133.56975366946295
30
0
10
77.007665968648226
20
133.18223377189096
30
0
10
76.81889286681087
20
132.87573213767493
30
0
0
SPLINE
5
378
100
AcDbEntity
8
0
100
AcDbSpline
70
0
71
3
72
8
73
4
74
0
42
0.000000001
43
0.0000000001
44
0.0000000001
40
0
40
0
40
0
40
0
40
1
40
1
40
1
40
1
10
119.72316144083268
20
71.214835416948418
30
0
10
119.16622942786198
20
71.361829820812289
30
0
10
118.70890548084179
20
71.453269203465908
30
0
10
118.35349455575897
20
71.510379711134746
30
0
0
ARC
5
379
100
AcDbEntity
8
0
100
AcDbCircle
10
113.03240688335831
20
97.389308762651993
30
0
40
0.4000000000000119
210
0
220
0
230
1
100
AcDbArc
50
203.18043855472823
51
283.38583698271015
0
ARC
5
380
100
AcDbEntity
8
0
100
AcDbCircle
10
51.666323676505918
20
71.112593805556969
30
0
40
72.919489795076302
210
0
220
-0
230
1
100
AcDbArc
50
71.814826797374295
51
73.585173202626109
0
ARC
5
381
100
AcDbEntity
8
0
100
AcDbCircle
10
-14.805619927237682
20
77.256096928983879
30
0
40
0.40000000000000568
210
-0
220
0
230
1
100
AcDbArc
50
274.51416301728887
51
354.71956144527888
0
ARC
5
382
100
AcDbEntity
8
0
100
AcDbCircle
10
51.666323676507815
20
71.112593805559385
30
0
40
66.355238873712054
210
0
220
-0
230
1
100
AcDbArc
50
45.680418114840968
51
47.219581885158895
0
ARC
5
383
100
AcDbEntity
8
0
100
AcDbCircle
10
31.904468935899686
20
134.8756788493186
30
0
40
0.40000000000001656
210
0
220
0
230
1
100
AcDbArc
50
207.01416301729355
51
287.21956144528116
0
ARC
5
384
100
AcDbEntity
8
0
100
AcDbCircle
10
51.666323676505726
20
71.112593805557481
30
0
40
72.919489795076259
210
0
220
0
230
1
100
AcDbArc
50
161.81482679737442
51
163.58517320262627
0
SPLINE
5
385
100
AcDbEntity
8
0
100
AcDbSpline
70
0
71
3
72
8
73
4
74
0
42
0.000000001
43
0.0000000001
44
0.0000000001
40
0
40
0
40
0
40
0
40
1
40
1
40
1
40
1
10
69.181971626401676
20
136.87691313391588
30
0
10
68.895841323605453
20
136.37700307034376
30
0
10
68.689153515090055
20
135.95892831263964
30
0
10
68.542001884531373
20
135.63040900821701
30
0
0
SPLINE
5
386
100
AcDbEntity
8
0
100
AcDbSpline
70
0
71
3
72
8
73
4
74
0
42
0.000000001
43
0.0000000001
44
0.0000000001
40
0
40
0
40
0
40
0
40
1
40
1
40
1
40
1
10
63.851323926083509
20
4.1553732184925263
30
0
10
64.378526743532859
20
3.0338253366303434
30
0
10
65.23398311286914
20
1.523002980624022
30
0
10
66.596542018690414
20
-0.26205556120977747
30
0
0
ARC
5
387
100
AcDbEntity
8
0
100
AcDbCircle
10
74.804696976940576
20
133.72950524405348
30
0
40
0.40000000000001223
210
0
220
0
230
1
100
AcDbArc
50
169.51416301729697
51
249.71956144528292
0
SPLINE
5
388
100
AcDbEntity
8
0
100
AcDbSpline
70
0
71
3
72
8
73
4
74
0
42
0.000000001
43
0.0000000001
44
0.0000000001
40
0
40
0
40
0
40
0
40
1
40
1
40
1
40
1
10
93.01558776381799
20
125.16795412499943
30
0
10
92.559930534431629
20
124.81559477554639
30
0
10
92.208985615261341
20
124.50844006383466
30
0
10
91.947316340597808
20
124.26124029350413
30
0
0
ARC
5
389
100
AcDbEntity
8
0
100
AcDbCircle
10
-2.8283165615491601
20
109.66899538054534
30
0
40
0.39999999999997843
210
0
220
0
230
1
100
AcDbArc
50
244.51416301728341
51
324.71956144527877
0
SPLINE
5
390
100
AcDbEntity
8
0
100
AcDbSpline
70
0
71
3
72
8
73
4
74
0
42
0.000000001
43
0.0000000001
44
0.0000000001
40
0
40
0
40
0
40
0
40
1
40
1
40
1
40
1
10
117.32973039426405
20
82.759654023640081
30
0
10
117.6689929005617
20
82.879984766075481
30
0
10
118.10229712857165
20
83.052477662181047
30
0
10
118.62354426357018
20
83.297594055134937
30
0
0
ARC
5
391
100
AcDbEntity
8
0
100
AcDbCircle
10
0.31944887683313716
20
28.453944443516235
30
0
40
0.39999999999996733
210
-0
220
0
230
1
100
AcDbArc
50
-40.485836982705599
51
39.719561445300251
0
SPLINE
5
392
100
AcDbEntity
8
0
100
AcDbSpline
70
0
71
3
72
8
73
4
74
0
42
0.000000001
43
0.0000000001
44
0.0000000001
40
0
40
0
40
0
40
0
40
1
40
1
40
1
40
1
10
74.592414208783765
20
135.1917479255423
30
0
10
74.696617116856999
20
136.42663829152025
30
0
10
74.711181347185644
20
138.16277701709527
30
0
10
74.423699991508713
20
140.38996251447654
30
0
0
ARC
5
393
100
AcDbEntity
8
0
100
AcDbCircle
10
51.666323676505755
20
71.112593805557225
30
0
40
72.919489795076259
210
-0
220
0
230
1
100
AcDbArc
50
311.81482679737394
51
313.58517320262598
0
SPLINE
5
394
100
AcDbEntity
8
0
100
AcDbSpline
70
0
71
3
72
8
73
4
74
0
42
0.000000001
43
0.0000000001
44
0.0000000001
40
0
40
0
40
0
40
0
40
1
40
1
40
1
40
1
10
116.46025427464576
20
91.933020733707195
30
0
10
117.50339338261338
20
92.602104632381156
30
0
10
118.88963098142457
20
93.64744434313954
30
0
10
120.48156847432483
20
95.231343262990578
30
0
0
ARC
5
395
100
AcDbEntity
8
0
100
AcDbCircle
10
49.080938590998464
20
137.81774878661093
30
0
40
0.40000000000001751
210
0
220
0
230
1
100
AcDbArc
50
192.01416301728938
51
272.21956144528076
0
SPLINE
5
396
100
AcDbEntity
8
0
100
AcDbSpline
70
0
71
3
72
8
73
4
74
0
42
0.000000001
43
0.0000000001
44
0.0000000001
40
0
40
0
40
0
40
0
40
1
40
1
40
1
40
1
10
114.50351696363086
20
97.25127700925924
30
0
10
113.93272655283778
20
97.173953476065179
30
0
10
113.47522198165126
20
97.083422152415864
30
0
10
113.12500985723756
20
97.00017550883166
30
0
0
ARC
5
397
100
AcDbEntity
8
0
100
AcDbCircle
10
51.666323676507844
20
71.112593805554155
30
0
40
66.355238873711556
210
-0
220
0
230
1
100
AcDbArc
50
308.18041811484096
51
309.71958188515919
0
ARC
5
398
100
AcDbEntity
8
0
100
AcDbCircle
10
51.666323676502309
20
71.11259380555812
30
0
40
66.355238873711798
210
0
220
0
230
1
100
AcDbArc
50
165.68041811484096
51
167.21958188515904
0
ARC
5
399
100
AcDbEntity
8
0
100
AcDbCircle
10
99.426626159398879
20
24.47338901142146
30
0
40
0.40000000000003472
210
0
220
0
230
1
100
AcDbArc
50
135.68043855468173
51
215.88583698271026
0
ARC
5
400
100
AcDbEntity
8
0
100
AcDbCircle
10
51.666323676505769
20
71.112593805557196
30
0
40
72.919489795076288
210
0
220
0
230
1
100
AcDbArc
50
124.31482679737425
51
126.08517320262601
0
SPLINE
5
401
100
AcDbEntity
8
0
100
AcDbSpline
70
0
71
3
72
8
73
4
74
0
42
0.000000001
43
0.0000000001
44
0.0000000001
40
0
40
0
40
0
40
0
40
1
40
1
40
1
40
1
10
89.674185307958396
20
133.34324900199999
30
0
10
87.791775845913449
20
132.11869382283868
30
0
10
86.47907906670973
20
130.98237654447209
30
0
10
85.606198725880375
20
130.10266501639614
30
0
0
SPLINE
5
402
100
AcDbEntity
8
0
100
AcDbSpline
70
0
71
3
72
8
73
4
74
0
42
0.000000001
43
0.0000000001
44
0.0000000001
40
0
40
0
40
0
40
0
40
1
40
1
40
1
40
1
10
34.53822208741915
20
141.99192879064401
30
0
10
34.07304886295961
20
139.7949730239402
30
0
10
33.948329721855373
20
138.06325857661113
30
0
10
33.953160100681046
20
136.82398898145573
30
0
0
SPLINE
5
403
100
AcDbEntity
8
0
100
AcDbSpline
70
0
71
3
72
8
73
4
74
0
42
0.000000001
43
0.0000000001
44
0.0000000001
40
0
40
0
40
0
40
0
40
1
40
1
40
1
40
1
10
-7.2630024882178557
20
28.163944120778059
30
0
10
-5.0552659353470775
20
28.574918673183966
30
0
10
-3.4076424523061721
20
29.122391639985608
30
0
10
-2.2645551440272293
20
29.601102270416618
30
0
0
SPLINE
5
404
100
AcDbEntity
8
0
100
AcDbSpline
70
0
71
3
72
8
73
4
74
0
42
0.000000001
43
0.0000000001
44
0.0000000001
40
0
40
0
40
0
40
0
40
1
40
1
40
1
40
1
10
113.18832216891572
20
100.21220413502593
30
0
10
114.13520410363856
20
101.01172090391302
30
0
10
115.37313803560141
20
102.22905790381944
30
0
10
116.74471598769611
20
104.00719588804193
30
0
0
ARC
5
405
100
AcDbEntity
8
0
100
AcDbCircle
10
51.666323676508298
20
71.11259380555812
30
0
40
66.355238873712381
210
0
220
-0
230
1
100
AcDbArc
50
23.180418114841011
51
24.71958188515919
0
SPLINE
5
406
100
AcDbEntity
8
0
100
AcDbSpline
70
0
71
3
72
8
73
4
74
0
42
0.000000001
43
0.0000000001
44
0.0000000001
40
0
40
0
40
0
40
0
40
1
40
1
40
1
40
1
10
10.154832141365148
20
125.04347262608994
30
0
10
10.377252368132407
20
124.51214422993198
30
0
10
10.583109807977918
20
124.09365997971642
30
0
10
10.754161458591813
20
123.77692686086615
30
0
0
ARC
5
407
100
AcDbEntity
8
0
100
AcDbCircle
10
104.14049403058212
20
112.37666246993071
30
0
40
0.40000000000000768
210
0
220
0
230
1
100
AcDbArc
50
218.18043855471819
51
298.38583698270838
0
ARC
5
408
100
AcDbEntity
8
0
100
AcDbCircle
10
51.666323676505463
20
71.112593805557523
30
0
40
72.919489795076316
210
0
220
0
230
1
100
AcDbArc
50
199.31482679737445
51
201.08517320262595
0
ARC
5
409
100
AcDbEntity
8
0
100
AcDbCircle
10
87.257910329647146
20
14.63692757133993
30
0
40
0.40000000000000646
210
0
220
-0
230
1
100
AcDbArc
50
42.014163017292837
51
122.21956144527874
0
SPLINE
5
410
100
AcDbEntity
8
0
100
AcDbSpline
70
0
71
3
72
8
73
4
74
0
42
0.000000001
43
0.0000000001
44
0.0000000001
40
0
40
0
40
0
40
0
40
1
40
1
40
1
40
1
10
103.56047754691301
20
115.1437238603435
30
0
10
104.26816509544165
20
116.16106883413245
30
0
10
105.14884745168033
20
117.65732695981002
30
0
10
106.01347404324024
20
119.72986685732096
30
0
0
SPLINE
5
411
100
AcDbEntity
8
0
100
AcDbSpline
70
0
71
3
72
8
73
4
74
0
42
0.000000001
43
0.0000000001
44
0.0000000001
40
0
40
0
40
0
40
0
40
1
40
1
40
1
40
1
10
-7.5182404000407992
20
101.84570898405119
30
0
10
-7.8606481573661924
20
101.95677411574316
30
0
10
-8.3094185359473443
20
102.08370520148024
30
0
10
-8.8721690972637681
20
102.20655644313848
30
0
0
ARC
5
412
100
AcDbEntity
8
0
100
AcDbCircle
10
-10.306493227385577
20
95.924524042512772
30
0
40
0.39999999999999419
210
-0
220
0
230
1
100
AcDbArc
50
-21.819561445322783
51
58.385836982709748
0
SPLINE
5
413
100
AcDbEntity
8
0
100
AcDbSpline
70
0
71
3
72
8
73
4
74
0
42
0.000000001
43
0.0000000001
44
0.0000000001
40
0
40
0
40
0
40
0
40
1
40
1
40
1
40
1
10
94.614973361284626
20
12.183267640833614
30
0
10
94.203998808878737
20
14.391004193704394
30
0
10
93.656525842077087
20
16.038627676745296
30
0
10
93.177815211646049
20
17.181714985024243
30
0
0
SPLINE
5
414
100
AcDbEntity
8
0
100
AcDbSpline
70
0
71
3
72
8
73
4
74
0
42
0.000000001
43
0.0000000001
44
0.0000000001
40
0
40
0
40
0
40
0
40
1
40
1
40
1
40
1
10
-14.045071499393016
20
53.399430229732523
30
0
10
-13.469071533334009
20
53.401589150504506
30
0
10
-13.003664268223542
20
53.431629636529713
30
0
10
-12.645582389680662
20
53.468452238468828
30
0
0
SPLINE
5
415
100
AcDbEntity
8
0
100
AcDbSpline
70
0
71
3
72
8
73
4
74
0
42
0.000000001
43
0.0000000001
44
0.0000000001
40
0
40
0
40
0
40
0
40
1
40
1
40
1
40
1
10
-16.390514087821451
20
71.010352194165748
30
0
10
-15.833582074850746
20
70.863357790301876
30
0
10
-15.376258127830562
20
70.771918407648243
30
0
10
-15.020847202747746
20
70.714807899979405
30
0
0
SPLINE
5
416
100
AcDbEntity
8
0
100
AcDbSpline
70
0
71
3
72
8
73
4
74
0
42
0.000000001
43
0.0000000001
44
0.0000000001
40
0
40
0
40
0
40
0
40
1
40
1
40
1
40
1
10
25.433145668224398
20
139.1498803737328
30
0
10
25.258712335888951
20
136.91100257845733
30
0
10
25.361094277148617
20
135.1778240737008
30
0
10
25.527640472803448
20
133.94978709268233
30
0
0
ARC
5
417
100
AcDbEntity
8
0
100
AcDbCircle
10
51.666323676506764
20
71.1125938055539
30
0
40
66.355238873711912
210
-0
220
0
230
1
100
AcDbArc
50
293.18041811484102
51
294.7195818851593
0
SPLINE
5
418
100
AcDbEntity
8
0
100
AcDbSpline
70
0
71
3
72
8
73
4
74
0
42
0.000000001
43
0.0000000001
44
0.0000000001
40
0
40
0
40
0
40
0
40
1
40
1
40
1
40
1
10
-12.364777638077825
20
36.223196327013866
30
0
10
-10.122285634042028
20
36.342487489480874
30
0
10
-8.4172982366022975
20
36.670218729703791
30
0
10
-7.2215059229420913
20
36.995631090604874
30
0
0
ARC
5
419
100
AcDbEntity
8
0
100
AcDbCircle
10
51.666323676508171
20
71.112593805554894
30
0
40
66.355238873711897
210
-0
220
0
230
1
100
AcDbArc
50
315.68041811484102
51
317.21958188515896
0
SPLINE
5
420
100
AcDbEntity
8
0
100
AcDbSpline
70
0
71
3
72
8
73
4
74
0
42
0.000000001
43
0.0000000001
44
0.0000000001
40
0
40
0
40
0
40
0
40
1
40
1
40
1
40
1
10
51.564082065114299
20
139.16943156988415
30
0
10
51.417087661250413
20
138.61249955691343
30
0
10
51.325648278596788
20
138.15517560989326
30
0
10
51.268537770927949
20
137.79976468481044
30
0
0
ARC
5
421
100
AcDbEntity
8
0
100
AcDbCircle
10
51.666323676507304
20
71.112593805560081
30
0
40
66.355238873711869
210
0
220
-0
230
1
100
AcDbArc
50
60.680418114840904
51
62.219581885159222
0
SPLINE
5
422
100
AcDbEntity
8
0
100
AcDbSpline
70
0
71
3
72
8
73
4
74
0
42
0.000000001
43
0.0000000001
44
0.0000000001
40
0
40
0
40
0
40
0
40
1
40
1
40
1
40
1
10
115.24772442630177
20
91.230806255952331
30
0
10
115.56837818121022
20
91.394390195315239
30
0
10
115.97546059056856
20
91.621964941737673
30
0
10
116.46025427464576
20
91.933020733707195
30
0
0
SPLINE
5
423
100
AcDbEntity
8
0
100
AcDbSpline
70
0
71
3
72
8
73
4
74
0
42
0.000000001
43
0.0000000001
44
0.0000000001
40
0
40
0
40
0
40
0
40
1
40
1
40
1
40
1
10
-2.3890366429367327
20
112.46185789286946
30
0
10
-2.0366772934836974
20
112.00620066348309
30
0
10
-1.7295225817719539
20
111.6552557443128
30
0
10
-1.48232281144142
20
111.39358646964929
30
0
0
ARC
5
424
100
AcDbEntity
8
0
100
AcDbCircle
10
92.930392340879209
20
18.638423451480584
30
0
40
0.40000000000001473
210
0
220
0
230
1
100
AcDbArc
50
128.18043855471853
51
208.38583698271458
0
SPLINE
5
425
100
AcDbEntity
8
0
100
AcDbSpline
70
0
71
3
72
8
73
4
74
0
42
0.000000001
43
0.0000000001
44
0.0000000001
40
0
40
0
40
0
40
0
40
1
40
1
40
1
40
1
10
5.9633472315454741
20
20.684609869071359
30
0
10
5.3945042137014498
20
19.583596661572944
30
0
10
4.7166570928289788
20
17.985187117065809
30
0
10
4.1299482426659804
20
15.817521668997871
30
0
0
ARC
5
426
100
AcDbEntity
8
0
100
AcDbCircle
10
51.66632367650535
20
71.112593805557069
30
0
40
72.919489795076288
210
0
220
-0
230
1
100
AcDbArc
50
86.814826797373925
51
88.585173202625711
0
ARC
5
427
100
AcDbEntity
8
0
100
AcDbCircle
10
51.666323676505613
20
71.112593805557083
30
0
40
72.919489795076288
210
0
220
0
230
1
100
AcDbArc
50
139.314826797374
51
141.08517320262598
0
SPLINE
5
428
100
AcDbEntity
8
0
100
AcDbSpline
70
0
71
3
72
8
73
4
74
0
42
0.000000001
43
0.0000000001
44
0.0000000001
40
0
40
0
40
0
40
0
40
1
40
1
40
1
40
1
10
30.845896748355493
20
135.9065244036972
30
0
10
30.176812849681561
20
136.94966351166482
30
0
10
29.131473138923148
20
138.33590111047604
30
0
10
27.547574219072111
20
139.9278386033763
30
0
0
ARC
5
429
100
AcDbEntity
8
0
100
AcDbCircle
10
77.943038633600509
20
9.7465105987043934
30
0
40
0.39999999999998037
210
0
220
0
230
1
100
AcDbArc
50
113.18043855473579
51
193.38583698270565
0
ARC
5
430
100
AcDbEntity
8
0
100
AcDbCircle
10
51.66632367650665
20
71.112593805556799
30
0
40
66.355238873714214
210
-0
220
0
230
1
100
AcDbArc
50
338.18041811484073
51
339.71958188515902
0
SPLINE
5
431
100
AcDbEntity
8
0
100
AcDbSpline
70
0
71
3
72
8
73
4
74
0
42
0.000000001
43
0.0000000001
44
0.0000000001
40
0
40
0
40
0
40
0
40
1
40
1
40
1
40
1
10
-5.070918184753066
20
116.91802337401845
30
0
10
-4.1025429841846179
20
114.89188166117329
30
0
10
-3.1472883697867071
20
113.44209601739081
30
0
10
-2.3890366429367327
20
112.46185789286946
30
0
0
SPLINE
5
432
100
AcDbEntity
8
0
100
AcDbSpline
70
0
71
3
72
8
73
4
74
0
42
0.000000001
43
0.0000000001
44
0.0000000001
40
0
40
0
40
0
40
0
40
1
40
1
40
1
40
1
10
-11.023384749144412
20
93.857647136169305
30
0
10
-11.377360069367473
20
93.923068909512878
30
0
10
-11.838858986444137
20
93.990337793518052
30
0
10
-12.41283044347961
20
94.038684337835235
30
0
0
SPLINE
5
433
100
AcDbEntity
8
0
100
AcDbSpline
70
0
71
3
72
8
73
4
74
0
42
0.000000001
43
0.0000000001
44
0.0000000001
40
0
40
0
40
0
40
0
40
1
40
1
40
1
40
1
10
121.61367917148124
20
50.506297407763121
30
0
10
119.94364627875487
20
52.007627120657332
30
0
10
118.50629714581935
20
52.981494288856339
30
0
10
117.43064300486441
20
53.596945855661119
30
0
0
SPLINE
5
434
100
AcDbEntity
8
0
100
AcDbSpline
70
0
71
3
72
8
73
4
74
0
42
0.000000001
43
0.0000000001
44
0.0000000001
40
0
40
0
40
0
40
0
40
1
40
1
40
1
40
1
10
12.936515255225006
20
15.150592773803952
30
0
10
12.516249829813946
20
13.984749973834713
30
0
10
12.052836096480599
20
12.311538240967568
30
0
10
11.754083738807189
20
10.085836599149447
30
0
0
ARC
5
435
100
AcDbEntity
8
0
100
AcDbCircle
10
-1.7730206077674326
20
111.11882331489375
30
0
40
0.39999999999999314
210
-0
220
0
230
1
100
AcDbArc
50
-36.819561445278495
51
43.385836982709407
0
SPLINE
5
436
100
AcDbEntity
8
0
100
AcDbSpline
70
0
71
3
72
8
73
4
74
0
42
0.000000001
43
0.0000000001
44
0.0000000001
40
0
40
0
40
0
40
0
40
1
40
1
40
1
40
1
10
-15.794933198066179
20
62.128026997409158
30
0
10
-15.223579195857845
20
62.054984366026112
30
0
10
-14.758232484164706
20
62.024020013382582
30
0
10
-14.39840773171345
20
62.013788528748329
30
0
0
ARC
5
437
100
AcDbEntity
8
0
100
AcDbCircle
10
51.666323676505556
20
71.112593805557381
30
0
40
72.919489795076288
210
0
220
0
230
1
100
AcDbArc
50
191.81482679737394
51
193.58517320262609
0
SPLINE
5
438
100
AcDbEntity
8
0
100
AcDbSpline
70
0
71
3
72
8
73
4
74
0
42
0.000000001
43
0.0000000001
44
0.0000000001
40
0
40
0
40
0
40
0
40
1
40
1
40
1
40
1
10
116.78853815922562
20
56.744776491433761
30
0
10
117.14802442647667
20
56.726117461118889
30
0
10
117.61435550762602
20
56.719661768101261
30
0
10
118.18972704961588
20
56.746647143902671
30
0
0
ARC
5
439
100
AcDbEntity
8
0
100
AcDbCircle
10
51.666323676509009
20
71.112593805555321
30
0
40
66.355238873711485
210
-0
220
0
230
1
100
AcDbArc
50
330.68041811484079
51
332.21958188515896
0
SPLINE
5
440
100
AcDbEntity
8
0
100
AcDbSpline
70
0
71
3
72
8
73
4
74
0
42
0.000000001
43
0.0000000001
44
0.0000000001
40
0
40
0
40
0
40
0
40
1
40
1
40
1
40
1
10
95.697453731292015
20
19.218439935149696
30
0
10
96.714798705080966
20
18.510752386621057
30
0
10
98.211056830758565
20
17.630070030382381
30
0
10
100.28359672826949
20
16.765443438822448
30
0
0
SPLINE
5
441
100
AcDbEntity
8
0
100
AcDbSpline
70
0
71
3
72
8
73
4
74
0
42
0.000000001
43
0.0000000001
44
0.0000000001
40
0
40
0
40
0
40
0
40
1
40
1
40
1
40
1
10
6.6623216441808548
20
21.899010369884337
30
0
10
6.4664193162927113
20
21.597015645290668
30
0
10
6.2276629815657794
20
21.196388928949954
30
0
10
5.9633472315454741
20
20.684609869071359
30
0
0
ARC
5
442
100
AcDbEntity
8
0
100
AcDbCircle
10
-14.130698985970188
20
59.842557166733172
30
0
40
0.40000000000002417
210
-0
220
0
230
1
100
AcDbArc
50
-70.485836982708207
51
9.71956144527873
0
SPLINE
5
443
100
AcDbEntity
8
0
100
AcDbSpline
70
0
71
3
72
8
73
4
74
0
42
0.000000001
43
0.0000000001
44
0.0000000001
40
0
40
0
40
0
40
0
40
1
40
1
40
1
40
1
10
79.911460166364662
20
10.701094418646903
30
0
10
80.115498336098511
20
10.404535889776145
30
0
10
80.394261065830804
20
10.030640591957987
30
0
10
80.765934005974572
20
9.5905953131470874
30
0
0
SPLINE
5
444
100
AcDbEntity
8
0
100
AcDbSpline
70
0
71
3
72
8
73
4
74
0
42
0.000000001
43
0.0000000001
44
0.0000000001
40
0
40
0
40
0
40
0
40
1
40
1
40
1
40
1
10
97.369300121465727
20
121.54057774204279
30
0
10
97.938143139309773
20
122.64159094954123
30
0
10
98.61599026018223
20
124.24000049404836
30
0
10
99.202699110345264
20
126.4076659421163
30
0
0
SPLINE
5
445
100
AcDbEntity
8
0
100
AcDbSpline
70
0
71
3
72
8
73
4
74
0
42
0.000000001
43
0.0000000001
44
0.0000000001
40
0
40
0
40
0
40
0
40
1
40
1
40
1
40
1
10
123.70493125324816
20
59.812549098640034
30
0
10
121.85322287273848
20
61.083051693347073
30
0
10
120.30105528769636
20
61.860975583705681
30
0
10
119.15427096752015
20
62.330760837874202
30
0
0
SPLINE
5
446
100
AcDbEntity
8
0
100
AcDbSpline
70
0
71
3
72
8
73
4
74
0
42
0.000000001
43
0.0000000001
44
0.0000000001
40
0
40
0
40
0
40
0
40
1
40
1
40
1
40
1
10
89.861648581348348
20
125.77934923258891
30
0
10
90.016456716192465
20
126.10433073535562
30
0
10
90.20087817759233
20
126.53269398984105
30
0
10
90.396132097786221
20
127.07459483731022
30
0
0
ARC
5
447
100
AcDbEntity
8
0
100
AcDbCircle
10
51.666323676503474
20
71.112593805554482
30
0
40
66.355238873711912
210
0
220
0
230
1
100
AcDbArc
50
233.18041811484105
51
234.71958188515896
0
ARC
5
448
100
AcDbEntity
8
0
100
AcDbCircle
10
51.666323676504902
20
71.112593805559229
30
0
40
66.355238873712977
210
0
220
0
230
1
100
AcDbArc
50
105.68041811484099
51
107.21958188515902
0
SPLINE
5
449
100
AcDbEntity
8
0
100
AcDbSpline
70
0
71
3
72
8
73
4
74
0
42
0.000000001
43
0.0000000001
44
0.0000000001
40
0
40
0
40
0
40
0
40
1
40
1
40
1
40
1
10
-13.455890806214388
20
85.480411119680525
30
0
10
-13.815377073465447
20
85.499070149995276
30
0
10
-14.281708154614794
20
85.50552584301289
30
0
10
-14.857079696604645
20
85.478540467211502
30
0
0
ARC
5
450
100
AcDbEntity
8
0
100
AcDbCircle
10
-0.80784667757088258
20
29.848525141183472
30
0
40
0.40000000000001118
210
0
220
-0
230
1
100
AcDbArc
50
38.180438554719075
51
118.38583698270919
0
SPLINE
5
451
100
AcDbEntity
8
0
100
AcDbSpline
70
0
71
3
72
8
73
4
74
0
42
0.000000001
43
0.0000000001
44
0.0000000001
40
0
40
0
40
0
40
0
40
1
40
1
40
1
40
1
10
13.470998771662879
20
16.445838378525252
30
0
10
13.316190636818742
20
16.120856875758545
30
0
10
13.131769175418885
20
15.692493621273215
30
0
10
12.936515255225006
20
15.150592773803952
30
0
0
SPLINE
5
452
100
AcDbEntity
8
0
100
AcDbSpline
70
0
71
3
72
8
73
4
74
0
42
0.000000001
43
0.0000000001
44
0.0000000001
40
0
40
0
40
0
40
0
40
1
40
1
40
1
40
1
10
104.48557758239477
20
121.38563239285004
30
0
10
102.35037146520874
20
120.69000633904047
30
0
10
100.78830319116911
20
119.93215905991029
30
0
10
99.717479429039741
20
119.30834103155973
30
0
0
SPLINE
5
453
100
AcDbEntity
8
0
100
AcDbSpline
70
0
71
3
72
8
73
4
74
0
42
0.000000001
43
0.0000000001
44
0.0000000001
40
0
40
0
40
0
40
0
40
1
40
1
40
1
40
1
10
119.12758055107741
20
80.097160613705
30
0
10
118.55622654886908
20
80.170203245088061
30
0
10
118.09087983717592
20
80.201167597731597
30
0
10
117.73105508472469
20
80.211399082365844
30
0
0
ARC
5
454
100
AcDbEntity
8
0
100
AcDbCircle
10
51.666323676503737
20
71.112593805558973
30
0
40
66.355238873712594
210
0
220
0
230
1
100
AcDbArc
50
128.18041811484065
51
129.71958188515893
0
SPLINE
5
455
100
AcDbEntity
8
0
100
AcDbSpline
70
0
71
3
72
8
73
4
74
0
42
0.000000001
43
0.0000000001
44
0.0000000001
40
0
40
0
40
0
40
0
40
1
40
1
40
1
40
1
10
57.411067636383954
20
137.55305520025888
30
0
10
57.382644662488104
20
137.91190150483689
30
0
10
57.328176705820731
20
138.37508569596901
30
0
10
57.226321137162479
20
138.94201255630654
30
0
0
ARC
5
456
100
AcDbEntity
8
0
100
AcDbCircle
10
82.779892004417945
20
130.17364512528141
30
0
40
0.39999999999997726
210
0
220
0
230
1
100
AcDbArc
50
162.01416301728457
51
242.21956144526968
0
SPLINE
5
457
100
AcDbEntity
8
0
100
AcDbSpline
70
0
71
3
72
8
73
4
74
0
42
0.000000001
43
0.0000000001
44
0.0000000001
40
0
40
0
40
0
40
0
40
1
40
1
40
1
40
1
10
-7.2215059229420913
20
36.995631090604874
30
0
10
-6.6656914495967641
20
37.146796209129953
30
0
10
-6.2239176023914577
20
37.29626935435563
30
0
10
-5.8875674586528763
20
37.42451566643274
30
0
0
SPLINE
5
458
100
AcDbEntity
8
0
100
AcDbSpline
70
0
71
3
72
8
73
4
74
0
42
0.000000001
43
0.0000000001
44
0.0000000001
40
0
40
0
40
0
40
0
40
1
40
1
40
1
40
1
10
25.527640472803448
20
133.94978709268233
30
0
10
25.604964005997509
20
133.37899668188925
30
0
10
25.695495329646832
20
132.92149211070273
30
0
10
25.778741973230943
20
132.571279986289
30
0
0
SPLINE
5
459
100
AcDbEntity
8
0
100
AcDbSpline
70
0
71
3
72
8
73
4
74
0
42
0.000000001
43
0.0000000001
44
0.0000000001
40
0
40
0
40
0
40
0
40
1
40
1
40
1
40
1
10
15.777545263555602
20
127.32053432583936
30
0
10
15.536544013104947
20
127.58792343002197
30
0
10
15.2113630076562
20
127.9222341640907
30
0
10
14.785432346391396
20
128.31000174091142
30
0
0
ARC
5
460
100
AcDbEntity
8
0
100
AcDbCircle
10
10.402255012131999
20
123.58676415963359
30
0
40
0.40000000000002306
210
-0
220
0
230
1
100
AcDbArc
50
-51.819561445281579
51
28.385836982708735
0
ARC
5
461
100
AcDbEntity
8
0
100
AcDbCircle
10
-14.40967522482369
20
61.613947255742367
30
0
40
0.40000000000001601
210
0
220
-0
230
1
100
AcDbArc
50
8.1804385547206699
51
88.38583698270773
0
SPLINE
5
462
100
AcDbEntity
8
0
100
AcDbSpline
70
0
71
3
72
8
73
4
74
0
42
0.000000001
43
0.0000000001
44
0.0000000001
40
0
40
0
40
0
40
0
40
1
40
1
40
1
40
1
10
23.421187186646563
20
131.52409319246726
30
0
10
23.217149016912686
20
131.82065172133809
30
0
10
22.938386287180414
20
132.19454701915618
30
0
10
22.566713347036757
20
132.63459229796717
30
0
0
SPLINE
5
463
100
AcDbEntity
8
0
100
AcDbSpline
70
0
71
3
72
8
73
4
74
0
42
0.000000001
43
0.0000000001
44
0.0000000001
40
0
40
0
40
0
40
0
40
1
40
1
40
1
40
1
10
108.86373161185998
20
107.99348513567131
30
0
10
109.6981549609098
20
108.90975482118782
30
0
10
110.76660383322825
20
110.27826013666447
30
0
10
111.89435416548378
20
112.22021275135532
30
0
0
SPLINE
5
464
100
AcDbEntity
8
0
100
AcDbSpline
70
0
71
3
72
8
73
4
74
0
42
0.000000001
43
0.0000000001
44
0.0000000001
40
0
40
0
40
0
40
0
40
1
40
1
40
1
40
1
10
40.019263458422643
20
136.7760005233155
30
0
10
39.89893271598725
20
137.11526302961317
30
0
10
39.726439819881662
20
137.54856725762309
30
0
10
39.481323426927773
20
138.06981439262162
30
0
0
SPLINE
5
465
100
AcDbEntity
8
0
100
AcDbSpline
70
0
71
3
72
8
73
4
74
0
42
0.000000001
43
0.0000000001
44
0.0000000001
40
0
40
0
40
0
40
0
40
1
40
1
40
1
40
1
10
66.034140990628941
20
136.23480828827707
30
0
10
66.052800020943806
20
136.59429455552814
30
0
10
66.059255713961434
20
137.06062563667749
30
0
10
66.032270338160018
20
137.63599717866737
30
0
0
SPLINE
5
466
100
AcDbEntity
8
0
100
AcDbSpline
70
0
71
3
72
8
73
4
74
0
42
0.000000001
43
0.0000000001
44
0.0000000001
40
0
40
0
40
0
40
0
40
1
40
1
40
1
40
1
10
13.658462045052815
20
8.8819386091141528
30
0
10
15.54087150709778
20
10.106493788275479
30
0
10
16.853568286301478
20
11.24281106664216
30
0
10
17.726448627130843
20
12.122522594718044
30
0
0
ARC
5
467
100
AcDbEntity
8
0
100
AcDbCircle
10
5.0271188823699919
20
23.352291322663824
30
0
40
0.40000000000001817
210
0
220
-0
230
1
100
AcDbArc
50
45.680438554718663
51
125.88583698270889
0
SPLINE
5
468
100
AcDbEntity
8
0
100
AcDbSpline
70
0
71
3
72
8
73
4
74
0
42
0.000000001
43
0.0000000001
44
0.0000000001
40
0
40
0
40
0
40
0
40
1
40
1
40
1
40
1
10
16.77692619796229
20
135.14369512014051
30
0
10
16.8962173604294
20
132.90120311610474
30
0
10
17.223948600652207
20
131.19621571866497
30
0
10
17.549360961553312
20
130.00042340500477
30
0
0
ARC
5
469
100
AcDbEntity
8
0
100
AcDbCircle
10
59.593062599085265
20
137.39553827198853
30
0
40
0.39999999999992897
210
0
220
0
230
1
100
AcDbArc
50
263.18043855472519
51
343.38583698272208
0
ARC
5
470
100
AcDbEntity
8
0
100
AcDbCircle
10
51.666323676506359
20
71.112593805560522
30
0
40
66.355238873711784
210
0
220
-0
230
1
100
AcDbArc
50
83.180418114841203
51
84.719581885159457
0
ARC
5
471
100
AcDbEntity
8
0
100
AcDbCircle
10
11.660094167168937
20
17.673249521284042
30
0
40
0.40000000000000913
210
0
220
-0
230
1
100
AcDbArc
50
53.180438554718215
51
133.38583698270389
0
ARC
5
472
100
AcDbEntity
8
0
100
AcDbCircle
10
51.666323676504533
20
71.112593805560294
30
0
40
66.355238873711869
210
0
220
0
230
1
100
AcDbArc
50
113.18041811484122
51
114.71958188515899
0
ARC
5
473
100
AcDbEntity
8
0
100
AcDbCircle
10
51.666323676502358
20
71.112593805556244
30
0
40
66.355238873711883
210
0
220
0
230
1
100
AcDbArc
50
188.18041811484059
51
189.71958188515879
0
ARC
5
474
100
AcDbEntity
8
0
100
AcDbCircle
10
-12.604563728967474
20
53.070560960010404
30
0
40
0.40000000000001923
210
0
220
-0
230
1
100
AcDbArc
50
15.680438554719387
51
95.885836982710558
0
SPLINE
5
475
100
AcDbEntity
8
0
100
AcDbSpline
70
0
71
3
72
8
73
4
74
0
42
0.000000001
43
0.0000000001
44
0.0000000001
40
0
40
0
40
0
40
0
40
1
40
1
40
1
40
1
10
-5.5310842588487503
20
34.231702475442866
30
0
10
-6.365507607898591
20
33.315432789926341
30
0
10
-7.4339564802170477
20
31.946927474449694
30
0
10
-8.5617068124725613
20
30.004974859758825
30
0
0
ARC
5
476
100
AcDbEntity
8
0
100
AcDbCircle
10
51.666323676503879
20
71.112593805560039
30
0
40
66.355238873711812
210
0
220
0
230
1
100
AcDbArc
50
120.68041811484092
51
122.21958188515899
0
SPLINE
5
477
100
AcDbEntity
8
0
100
AcDbSpline
70
0
71
3
72
8
73
4
74
0
42
0.000000001
43
0.0000000001
44
0.0000000001
40
0
40
0
40
0
40
0
40
1
40
1
40
1
40
1
10
-16.3709628916701
20
44.879415797275868
30
0
10
-14.132085096394631
20
44.704982464940421
30
0
10
-12.398906591638115
20
44.80736440620008
30
0
10
-11.170869610619611
20
44.973910601854918
30
0
0
SPLINE
5
478
100
AcDbEntity
8
0
100
AcDbSpline
70
0
71
3
72
8
73
4
74
0
42
0.000000001
43
0.0000000001
44
0.0000000001
40
0
40
0
40
0
40
0
40
1
40
1
40
1
40
1
10
-19.213011308581322
20
53.984492216470713
30
0
10
-17.016055541877524
20
53.519318992011087
30
0
10
-15.284341094548424
20
53.39459985090685
30
0
10
-14.045071499393016
20
53.399430229732523
30
0
0
SPLINE
5
479
100
AcDbEntity
8
0
100
AcDbSpline
70
0
71
3
72
8
73
4
74
0
42
0.000000001
43
0.0000000001
44
0.0000000001
40
0
40
0
40
0
40
0
40
1
40
1
40
1
40
1
10
-14.955569914938502
20
68.135970249292953
30
0
10
-15.307636297081224
20
68.060951596150133
30
0
10
-15.759748388266974
20
67.946491951637739
30
0
10
-16.308530291190021
20
67.771508967142111
30
0
0
ARC
5
480
100
AcDbEntity
8
0
100
AcDbCircle
10
51.666323676505748
20
71.112593805556926
30
0
40
72.919489795076288
210
0
220
0
230
1
100
AcDbArc
50
221.81482679737397
51
223.58517320262575
0
ARC
5
481
100
AcDbEntity
8
0
100
AcDbCircle
10
-4.8093425577115401
20
35.52100715241555
30
0
40
0.39999999999999725
210
-0
220
0
230
1
100
AcDbArc
50
-47.985836982716229
51
32.219561445280362
0
ARC
5
482
100
AcDbEntity
8
0
100
AcDbCircle
10
51.666323676506167
20
71.112593805559797
30
0
40
66.355238873712523
210
0
220
-0
230
1
100
AcDbArc
50
75.680418114840776
51
77.219581885159116
0
ARC
5
483
100
AcDbEntity
8
0
100
AcDbCircle
10
51.666323676502543
20
71.112593805555775
30
0
40
66.355238873711883
210
0
220
0
230
1
100
AcDbArc
50
203.1804181148409
51
204.7195818851591
0
ARC
5
484
100
AcDbEntity
8
0
100
AcDbCircle
10
81.661041057957817
20
42.302838240019554
30
0
40
49.414392689732921
210
0
220
0
230
1
100
AcDbArc
50
150.09256680628445
51
219.86235382469184
0
ARC
5
485
100
AcDbEntity
8
0
100
AcDbCircle
10
56.586906781241666
20
113.58111307925211
30
0
40
31.690491750538378
210
0
220
0
230
1
100
AcDbArc
50
-84.541558693301113
51
12.541558693301983
0
ARC
5
486
100
AcDbEntity
8
0
100
AcDbCircle
10
93.576829470760785
20
79.556335361343187
30
0
40
31.690491750538104
210
0
220
0
230
1
100
AcDbArc
50
203.45844130669298
51
300.54155869330231
0
ARC
5
487
100
AcDbEntity
8
0
100
AcDbCircle
10
12.796905485453323
20
88.915840612794852
30
0
40
31.690491750538072
210
0
220
0
230
1
100
AcDbArc
50
-12.541558693307065
51
84.541558693302363
0
ARC
5
488
100
AcDbEntity
8
0
100
AcDbCircle
10
88.334906852327009
20
90.736561152074344
30
0
40
49.4143926897329
210
0
220
0
230
1
100
AcDbArc
50
222.0925668062844
51
291.86235382469187
0
ARC
5
489
100
AcDbEntity
8
0
100
AcDbCircle
10
51.666323676508306
20
71.11259380555812
30
0
40
60.999999999999595
210
0
220
-0
230
1
100
AcDbArc
50
53.999999999992866
51
118.52557549730859
0
ARC
5
490
100
AcDbEntity
8
0
100
AcDbCircle
10
22.723119006773373
20
39.647086168838392
30
0
40
31.690491750538037
210
0
220
-0
230
1
100
AcDbArc
50
59.458441306693011
51
156.54155869330236
0
ARC
5
491
100
AcDbEntity
8
0
100
AcDbCircle
10
51.666323676508306
20
71.11259380555812
30
0
40
60.999999999995765
210
0
220
0
230
1
100
AcDbArc
50
125.99999999999447
51
190.52557549731168
0
ARC
5
492
100
AcDbEntity
8
0
100
AcDbCircle
10
72.647857638326229
20
33.862593805558106
30
0
40
31.690491750538037
210
0
220
0
230
1
100
AcDbArc
50
131.45844130669289
51
228.54155869330231
0
CIRCLE
5
493
100
AcDbEntity
8
0
100
AcDbCircle
10
51.666323676511077
20
71.112593805557324
30
0
40
2.8500000000000005
210
0
220
-0
230
1
0
ARC
5
494
100
AcDbEntity
8
0
100
AcDbCircle
10
44.334037017021153
20
112.05062818536067
30
0
40
49.414392689732871
210
0
220
0
230
1
100
AcDbArc
50
-65.907433193715548
51
3.862353824691843
0
ARC
5
495
100
AcDbEntity
8
0
100
AcDbCircle
10
33.535495325376488
20
33.683218311961511
30
0
40
49.414392689732558
210
0
220
-0
230
1
100
AcDbArc
50
78.09256680628431
51
147.86235382469184
0
ARC
5
496
100
AcDbEntity
8
0
100
AcDbCircle
10
51.666323676508306
20
71.11259380555812
30
0
40
60.99999999999882
210
0
220
0
230
1
100
AcDbArc
50
269.99999999999875
51
334.52557549731091
0
ARC
5
497
100
AcDbEntity
8
0
100
AcDbCircle
10
51.666323676508306
20
71.11259380555812
30
0
40
61.000000000000909
210
0
220
0
230
1
100
AcDbArc
50
-18.000000000003766
51
46.525575497308054
0
ARC
5
498
100
AcDbEntity
8
0
100
AcDbCircle
10
51.666323676508306
20
71.11259380555812
30
0
40
60.999999999995666
210
0
220
0
230
1
100
AcDbArc
50
197.99999999999764
51
262.52557549731313
0
ARC
5
499
100
AcDbEntity
8
0
100
AcDbCircle
10
10.466138129872959
20
76.789723138370519
30
0
40
49.414392689734719
210
0
220
-0
230
1
100
AcDbArc
50
6.0925668062841618
51
75.862353824691894
0
ENDSEC
0
SECTION
2
OBJECTS
0
DICTIONARY
5
C
100
AcDbDictionary
3
ACAD_GROUP
350
D
3
ACAD_MLINESTYLE
350
17
0
DICTIONARY
5
D
100
AcDbDictionary
0
DICTIONARY
5
1A
330
C
100
AcDbDictionary
0
DICTIONARY
5
17
100
AcDbDictionary
0
ENDSEC
0
EOF
