0
SECTION
2
HEADER
9
$INSUNITS
70
4
9
$ACADVER
1
AC1014
9
$HANDSEED
5
FFFF
0
ENDSEC
0
SECTION
2
TABLES
0
TABLE
2
VPORT
5
8
100
AcDbSymbolTable
0
ENDTAB
0
TABLE
2
LTYPE
5
5
100
AcDbSymbolTable
0
LTYPE
5
14
100
AcDbSymbolTableRecord
100
AcDbLinetypeTableRecord
2
BYBLOCK
70
0
0
LTYPE
5
15
100
AcDbSymbolTableRecord
100
AcDbLinetypeTableRecord
2
BYLAYER
70
0
0
ENDTAB
0
TABLE
2
LAYER
5
2
100
AcDbSymbolTable
70
2
0
LAYER
5
50
100
AcDbSymbolTableRecord
100
AcDbLayerTableRecord
2
0
70
0
6
CONTINUOUS
0
ENDTAB
0
TABLE
2
STYLE
5
3
100
AcDbSymbolTable
70
1
0
STYLE
5
11
100
AcDbSymbolTableRecord
100
AcDbTextStyleTableRecord
2
STANDARD
70
0
0
ENDTAB
0
TABLE
2
VIEW
5
6
100
AcDbSymbolTable
70
0
0
ENDTAB
0
TABLE
2
UCS
5
7
100
AcDbSymbolTable
70
0
0
ENDTAB
0
TABLE
2
APPID
5
9
100
AcDbSymbolTable
70
2
0
APPID
5
12
100
AcDbSymbolTableRecord
100
AcDbRegAppTableRecord
2
ACAD
70
0
0
ENDTAB
0
TABLE
2
DIMSTYLE
5
A
100
AcDbSymbolTable
70
1
0
ENDTAB
0
TABLE
2
BLOCK_RECORD
5
1
100
AcDbSymbolTable
70
1
0
BLOCK_RECORD
5
1F
100
AcDbSymbolTableRecord
100
AcDbBlockTableRecord
2
*MODEL_SPACE
0
BLOCK_RECORD
5
1B
100
AcDbSymbolTableRecord
100
AcDbBlockTableRecord
2
*PAPER_SPACE
0
ENDTAB
0
ENDSEC
0
SECTION
2
BLOCKS
0
BLOCK
5
20
100
AcDbEntity
100
AcDbBlockBegin
2
*MODEL_SPACE
0
ENDBLK
5
21
100
AcDbEntity
100
AcDbBlockEnd
0
BLOCK
5
1C
100
AcDbEntity
100
AcDbBlockBegin
2
*PAPER_SPACE
0
ENDBLK
5
1D
100
AcDbEntity
100
AcDbBlockEnd
0
ENDSEC
0
SECTION
2
ENTITIES
0
ARC
5
100
100
AcDbEntity
8
0
100
AcDbCircle
10
0
20
0
30
0
40
68.361865428620106
210
0
220
-0
230
1
100
AcDbArc
50
0.71482679737409094
51
2.4851732026258229
0
ARC
5
101
100
AcDbEntity
8
0
100
AcDbCircle
10
-2.2337310978855101e-16
20
7.9968809203228355e-15
30
0
40
68.361865428620106
210
0
220
0
230
1
100
AcDbArc
50
180.71482679737406
51
182.48517320262582
0
SPLINE
5
102
100
AcDbEntity
8
0
100
AcDbSpline
70
0
71
3
72
8
73
4
74
0
42
0.000000001
43
0.0000000001
44
0.0000000001
40
0
40
0
40
0
40
0
40
1
40
1
40
1
40
1
10
39.225245001580006
20
55.988613123087703
30
0
10
37.391887867517021
20
54.95367049069656
30
0
10
36.096775430035294
20
53.967750772612192
30
0
10
35.22828167631662
20
53.196033466297649
30
0
0
ARC
5
103
100
AcDbEntity
8
0
100
AcDbCircle
10
1.6563332373133294e-14
20
-9.1573227641582633e-14
30
0
40
68.361865428620135
210
0
220
-0
230
1
100
AcDbArc
50
8.2148267973741653
51
9.9851732026259956
0
SPLINE
5
104
100
AcDbEntity
8
0
100
AcDbSpline
70
0
71
3
72
8
73
4
74
0
42
0.000000001
43
0.0000000001
44
0.0000000001
40
0
40
0
40
0
40
0
40
1
40
1
40
1
40
1
10
-60.62954464528643
20
31.581687114307027
30
0
10
-59.364154964896812
20
29.899101725649437
30
0
10
-58.217623831713667
20
28.743757501243095
30
0
10
-57.339147491295051
20
27.983423153447053
30
0
0
SPLINE
5
105
100
AcDbEntity
8
0
100
AcDbSpline
70
0
71
3
72
8
73
4
74
0
42
0.000000001
43
0.0000000001
44
0.0000000001
40
0
40
0
40
0
40
0
40
1
40
1
40
1
40
1
10
-38.142835125475088
20
51.146592604045374
30
0
10
-39.05305311409299
20
51.868625992684784
30
0
10
-40.401181688339733
20
52.780713304035423
30
0
10
-42.289452241613724
20
53.711701462391197
30
0
0
SPLINE
5
106
100
AcDbEntity
8
0
100
AcDbSpline
70
0
71
3
72
8
73
4
74
0
42
0.000000001
43
0.0000000001
44
0.0000000001
40
0
40
0
40
0
40
0
40
1
40
1
40
1
40
1
10
-39.225245001580113
20
-55.988613123087703
30
0
10
-37.391887867517127
20
-54.95367049069656
30
0
10
-36.096775430035393
20
-53.967750772612192
30
0
10
-35.22828167631662
20
-53.196033466297649
30
0
0
SPLINE
5
107
100
AcDbEntity
8
0
100
AcDbSpline
70
0
71
3
72
8
73
4
74
0
42
0.000000001
43
0.0000000001
44
0.0000000001
40
0
40
0
40
0
40
0
40
1
40
1
40
1
40
1
10
55.687665443466003
20
31.140547905744501
30
0
10
56.522329024517362
20
31.948734584414836
30
0
10
57.60257939189966
20
33.166278448100144
30
0
10
58.772071582701493
20
34.916876245715038
30
0
0
SPLINE
5
108
100
AcDbEntity
8
0
100
AcDbSpline
70
0
71
3
72
8
73
4
74
0
42
0.000000001
43
0.0000000001
44
0.0000000001
40
0
40
0
40
0
40
0
40
1
40
1
40
1
40
1
10
-55.687665443466003
20
-31.140547905744501
30
0
10
-56.522329024517362
20
-31.948734584414943
30
0
10
-57.60257939189966
20
-33.16627844810025
30
0
10
-58.772071582701493
20
-34.916876245715038
30
0
0
ARC
5
109
100
AcDbEntity
8
0
100
AcDbCircle
10
46.453791822482117
20
41.973725692102768
30
0
40
0.39999999999996622
210
0
220
0
230
1
100
AcDbArc
50
222.09965346589993
51
302.14913589977465
0
SPLINE
5
110
100
AcDbEntity
8
0
100
AcDbSpline
70
0
71
3
72
8
73
4
74
0
42
0.000000001
43
0.0000000001
44
0.0000000001
40
0
40
0
40
0
40
0
40
1
40
1
40
1
40
1
10
47.796053671929037
20
42.265672357167574
30
0
10
47.322769112973226
20
42.028521009200233
30
0
10
46.949952223630042
20
41.813192434495001
30
0
10
46.666641767112502
20
41.635059335535104
30
0
0
ARC
5
111
100
AcDbEntity
8
0
100
AcDbCircle
10
2.080529973135815e-12
20
1.621724092095658e-12
30
0
40
62.207894255932807
210
0
220
-0
230
1
100
AcDbArc
50
34.599663129919001
51
36.100336870080788
0
ARC
5
112
100
AcDbEntity
8
0
100
AcDbCircle
10
2.3467000657321421e-12
20
2.0133086701975825e-12
30
0
40
62.207894255932395
210
0
220
-0
230
1
100
AcDbArc
50
42.099663129919293
51
43.600336870080795
0
ARC
5
113
100
AcDbEntity
8
0
100
AcDbCircle
10
-2.8994262215178398e-14
20
3.5204158257192838e-14
30
0
40
68.361865428620106
210
0
220
-0
230
1
100
AcDbArc
50
38.214826797374002
51
39.985173202625596
0
SPLINE
5
114
100
AcDbEntity
8
0
100
AcDbSpline
70
0
71
3
72
8
73
4
74
0
42
0.000000001
43
0.0000000001
44
0.0000000001
40
0
40
0
40
0
40
0
40
1
40
1
40
1
40
1
10
38.96513828331674
20
48.918009140351806
30
0
10
39.127178814705246
20
49.210821506730966
30
0
10
39.321360441534154
20
49.595077051734791
30
0
10
39.531722558254515
20
50.080861793608861
30
0
0
ARC
5
115
100
AcDbEntity
8
0
100
AcDbCircle
10
51.53504378160779
20
35.551198089377593
30
0
40
0.40000000000003377
210
0
220
0
230
1
100
AcDbArc
50
214.59965346590857
51
294.64913589978249
0
SPLINE
5
116
100
AcDbEntity
8
0
100
AcDbSpline
70
0
71
3
72
8
73
4
74
0
42
0.000000001
43
0.0000000001
44
0.0000000001
40
0
40
0
40
0
40
0
40
1
40
1
40
1
40
1
10
39.531722558254515
20
50.080861793608861
30
0
10
39.993571505135172
20
51.146940848547644
30
0
10
40.525658844737229
20
52.685198622544732
30
0
10
40.936203969368805
20
54.750085383120641
30
0
0
SPLINE
5
117
100
AcDbEntity
8
0
100
AcDbSpline
70
0
71
3
72
8
73
4
74
0
42
0.000000001
43
0.0000000001
44
0.0000000001
40
0
40
0
40
0
40
0
40
1
40
1
40
1
40
1
10
50.298345806802772
20
37.166248516534836
30
0
10
50.530650358037008
20
37.407144367875304
30
0
10
50.817668059615066
20
37.728048819457008
30
0
10
51.146592604045374
20
38.142835125475088
30
0
0
ARC
5
118
100
AcDbEntity
8
0
100
AcDbCircle
10
40.577702605849467
20
47.678071210920699
30
0
40
0.39999999999992769
210
0
220
0
230
1
100
AcDbArc
50
229.59965346591048
51
309.64913589978414
0
SPLINE
5
119
100
AcDbEntity
8
0
100
AcDbSpline
70
0
71
3
72
8
73
4
74
0
42
0.000000001
43
0.0000000001
44
0.0000000001
40
0
40
0
40
0
40
0
40
1
40
1
40
1
40
1
10
45.73038738465506
20
44.492487861017025
30
0
10
46.327436389417457
20
45.489163077437198
30
0
10
47.05575457796072
20
46.94480950856817
30
0
10
47.732309238362404
20
48.93844398480725
30
0
0
SPLINE
5
120
100
AcDbEntity
8
0
100
AcDbSpline
70
0
71
3
72
8
73
4
74
0
42
0.000000001
43
0.0000000001
44
0.0000000001
40
0
40
0
40
0
40
0
40
1
40
1
40
1
40
1
10
52.379596574674387
20
43.928606938476051
30
0
10
50.340846706220276
20
43.403436863891905
30
0
10
48.834689354926127
20
42.786311309916123
30
0
10
47.796053671929037
20
42.265672357167574
30
0
0
ARC
5
121
100
AcDbEntity
8
0
100
AcDbCircle
10
3.9984404601614178e-15
20
1.1168655489427551e-16
30
0
40
68.361865428620106
210
0
220
0
230
1
100
AcDbArc
50
90.714826797374101
51
92.4851732026261
0
CIRCLE
5
122
100
AcDbEntity
8
0
100
AcDbCircle
10
0
20
0
30
0
40
3.7999999999999998
210
0
220
-0
230
1
0
ARC
5
123
100
AcDbEntity
8
0
100
AcDbCircle
10
3.6767770025712695e-14
20
-2.6983904227081437e-14
30
0
40
68.361865428620121
210
0
220
-0
230
1
100
AcDbArc
50
53.214826797374151
51
54.985173202625703
0
SPLINE
5
124
100
AcDbEntity
8
0
100
AcDbSpline
70
0
71
3
72
8
73
4
74
0
42
0.000000001
43
0.0000000001
44
0.0000000001
40
0
40
0
40
0
40
0
40
1
40
1
40
1
40
1
10
45.016867587790166
20
43.413537661389796
30
0
10
45.215741523187994
20
43.682694443835572
30
0
10
45.458417312409466
20
44.038316841034955
30
0
10
45.73038738465506
20
44.492487861017025
30
0
0
ARC
5
125
100
AcDbEntity
8
0
100
AcDbCircle
10
-1.2994931495524606e-14
20
-3.6298130340639546e-16
30
0
40
68.361865428620106
210
-0
220
0
230
1
100
AcDbArc
50
270.71482679737409
51
272.4851732026259
0
SPLINE
5
126
100
AcDbEntity
8
0
100
AcDbSpline
70
0
71
3
72
8
73
4
74
0
42
0.000000001
43
0.0000000001
44
0.0000000001
40
0
40
0
40
0
40
0
40
1
40
1
40
1
40
1
10
62.628006278514896
20
-12.189447731200385
30
0
10
62.151744080012605
20
-11.958334438924425
30
0
10
61.753955893694972
20
-11.793642645290973
30
0
10
61.440164926256024
20
-11.67731790814998
30
0
0
SPLINE
5
127
100
AcDbEntity
8
0
100
AcDbSpline
70
0
71
3
72
8
73
4
74
0
42
0.000000001
43
0.0000000001
44
0.0000000001
40
0
40
0
40
0
40
0
40
1
40
1
40
1
40
1
10
36.715882325547319
20
-57.665315658004779
30
0
10
36.46131541097207
20
-55.575459127196041
30
0
10
36.04606243560886
20
-54.001636112152909
30
0
10
35.665446782080735
20
-52.903929081382266
30
0
0
SPLINE
5
128
100
AcDbEntity
8
0
100
AcDbSpline
70
0
71
3
72
8
73
4
74
0
42
0.000000001
43
0.0000000001
44
0.0000000001
40
0
40
0
40
0
40
0
40
1
40
1
40
1
40
1
10
3.9105701302152491
20
63.683257200539181
30
0
10
3.7435987354618971
20
63.180903153155434
30
0
10
3.6322376802237653
20
62.765021507202647
30
0
10
3.5578660574674945
20
62.438731639989847
30
0
0
SPLINE
5
129
100
AcDbEntity
8
0
100
AcDbSpline
70
0
71
3
72
8
73
4
74
0
42
0.000000001
43
0.0000000001
44
0.0000000001
40
0
40
0
40
0
40
0
40
1
40
1
40
1
40
1
10
61.396818457538998
20
-17.357433269506085
30
0
10
62.558489016662392
20
-17.376155266724563
30
0
10
64.183274899221672
20
-17.27907410447586
30
0
10
66.248090331705981
20
-16.86817038931278
30
0
0
SPLINE
5
130
100
AcDbEntity
8
0
100
AcDbSpline
70
0
71
3
72
8
73
4
74
0
42
0.000000001
43
0.0000000001
44
0.0000000001
40
0
40
0
40
0
40
0
40
1
40
1
40
1
40
1
10
31.581687114307027
20
60.62954464528643
30
0
10
29.899101725649544
20
59.364154964896812
30
0
10
28.743757501243202
20
58.217623831713667
30
0
10
27.983423153447053
20
57.339147491295051
30
0
0
ARC
5
131
100
AcDbEntity
8
0
100
AcDbCircle
10
25.364725022400716
20
57.239664112400234
30
0
40
0.39999999999991548
210
0
220
0
230
1
100
AcDbArc
50
166.05086410022915
51
246.10034653408979
0
SPLINE
5
132
100
AcDbEntity
8
0
100
AcDbSpline
70
0
71
3
72
8
73
4
74
0
42
0.000000001
43
0.0000000001
44
0.0000000001
40
0
40
0
40
0
40
0
40
1
40
1
40
1
40
1
10
-28.454975524222572
20
57.106603596512883
30
0
10
-28.34839997009243
20
56.588066532407865
30
0
10
-28.236900649944495
20
56.172221934426048
30
0
10
-28.138163430965704
20
55.852460809044082
30
0
0
SPLINE
5
133
100
AcDbEntity
8
0
100
AcDbSpline
70
0
71
3
72
8
73
4
74
0
42
0.000000001
43
0.0000000001
44
0.0000000001
40
0
40
0
40
0
40
0
40
1
40
1
40
1
40
1
10
9.1950450940023014
20
63.137159835810081
30
0
10
9.0619784872426763
20
64.291335853269871
30
0
10
8.7536507533716144
20
65.889549832921318
30
0
10
8.0767498804144875
20
67.883066785833975
30
0
0
ARC
5
134
100
AcDbEntity
8
0
100
AcDbCircle
10
-3.1678851409553941
20
-62.527697278055214
30
0
40
0.3999999999999912
210
0
220
-0
230
1
100
AcDbArc
50
87.099653465908816
51
167.14913589978278
0
SPLINE
5
135
100
AcDbEntity
8
0
100
AcDbSpline
70
0
71
3
72
8
73
4
74
0
42
0.000000001
43
0.0000000001
44
0.0000000001
40
0
40
0
40
0
40
0
40
1
40
1
40
1
40
1
10
48.142720559964971
20
-41.870374532579632
30
0
10
47.845822043337861
20
-41.432093451065164
30
0
10
47.583673265478062
20
-41.090572080825034
30
0
10
47.370084684768443
20
-40.832936419652924
30
0
0
ARC
5
136
100
AcDbEntity
8
0
100
AcDbCircle
10
-1.7533825048667815e-12
20
1.4576109877560238e-12
30
0
40
62.207894255933205
210
0
220
0
230
1
100
AcDbArc
50
139.59966312991898
51
141.10033687008101
0
SPLINE
5
137
100
AcDbEntity
8
0
100
AcDbSpline
70
0
71
3
72
8
73
4
74
0
42
0.000000001
43
0.0000000001
44
0.0000000001
40
0
40
0
40
0
40
0
40
1
40
1
40
1
40
1
10
58.605960493045536
20
-25.222830949378981
30
0
10
59.755249088489919
20
-25.393021212012346
30
0
10
61.378806337030667
20
-25.508847706988075
30
0
10
63.479590684561956
20
-25.370971826109624
30
0
0
SPLINE
5
138
100
AcDbEntity
8
0
100
AcDbSpline
70
0
71
3
72
8
73
4
74
0
42
0.000000001
43
0.0000000001
44
0.0000000001
40
0
40
0
40
0
40
0
40
1
40
1
40
1
40
1
10
17.357433269506085
20
61.396818457538998
30
0
10
17.376155266724563
20
62.558489016662392
30
0
10
17.27907410447586
20
64.183274899221672
30
0
10
16.86817038931288
20
66.248090331705981
30
0
0
SPLINE
5
139
100
AcDbEntity
8
0
100
AcDbSpline
70
0
71
3
72
8
73
4
74
0
42
0.000000001
43
0.0000000001
44
0.0000000001
40
0
40
0
40
0
40
0
40
1
40
1
40
1
40
1
10
-32.656658998618205
20
-54.812338295873971
30
0
10
-32.975405524087151
20
-55.929580281128452
30
0
10
-33.302157852845056
20
-57.52412938099296
30
0
10
-33.439668900799475
20
-59.624937640937404
30
0
0
ARC
5
140
100
AcDbEntity
8
0
100
AcDbCircle
10
26.855058055326722
20
56.555762571177695
30
0
40
0.39999999999999181
210
0
220
0
230
1
100
AcDbArc
50
244.59965346590869
51
324.64913589979136
0
SPLINE
5
141
100
AcDbEntity
8
0
100
AcDbSpline
70
0
71
3
72
8
73
4
74
0
42
0.000000001
43
0.0000000001
44
0.0000000001
40
0
40
0
40
0
40
0
40
1
40
1
40
1
40
1
10
20.259760501951302
20
60.501172805301323
30
0
10
19.968459724660288
20
60.059151433941977
30
0
10
19.753255114881821
20
59.686262973414912
30
0
10
19.596967611859814
20
59.390339956202205
30
0
0
SPLINE
5
142
100
AcDbEntity
8
0
100
AcDbSpline
70
0
71
3
72
8
73
4
74
0
42
0.000000001
43
0.0000000001
44
0.0000000001
40
0
40
0
40
0
40
0
40
1
40
1
40
1
40
1
10
24.976520978758327
20
57.336088282086237
30
0
10
25.057254695871588
20
57.660862484630535
30
0
10
25.145367090983235
20
58.082282742676803
30
0
10
25.222830949378981
20
58.605960493045536
30
0
0
ARC
5
143
100
AcDbEntity
8
0
100
AcDbCircle
10
-50.58632828560598
20
-36.888640714226696
30
0
40
0.39999999999999614
210
-0
220
0
230
1
100
AcDbArc
50
-43.949135899769843
51
36.100346534066894
0
SPLINE
5
144
100
AcDbEntity
8
0
100
AcDbSpline
70
0
71
3
72
8
73
4
74
0
42
0.000000001
43
0.0000000001
44
0.0000000001
40
0
40
0
40
0
40
0
40
1
40
1
40
1
40
1
10
-1.1337254634369964
20
-62.529739214769606
30
0
10
-1.084027985688262
20
-62.8606869091604
30
0
10
-1.0041626732751041
20
-63.283747613950283
30
0
10
-0.87532714759199859
20
-63.797206904362611
30
0
0
ARC
5
145
100
AcDbEntity
8
0
100
AcDbCircle
10
-5.0207187895699512
20
62.4062561447044
30
0
40
0.4000000000000048
210
-0
220
0
230
1
100
AcDbArc
50
274.59965346592082
51
354.64913589977624
0
SPLINE
5
146
100
AcDbEntity
8
0
100
AcDbSpline
70
0
71
3
72
8
73
4
74
0
42
0.000000001
43
0.0000000001
44
0.0000000001
40
0
40
0
40
0
40
0
40
1
40
1
40
1
40
1
10
-4.4352184099127605
20
63.648869935527806
30
0
10
-4.5351909802860391
20
63.129019456291957
30
0
10
-4.5913158785986363
20
62.702160200970532
30
0
10
-4.6224618678850877
20
62.368954344076421
30
0
0
ARC
5
147
100
AcDbEntity
8
0
100
AcDbCircle
10
62.589214153836359
20
-1.5292791660147858
30
0
40
0.39999999999999036
210
0
220
0
230
1
100
AcDbArc
50
98.550864100216018
51
178.60034653406839
0
ARC
5
148
100
AcDbEntity
8
0
100
AcDbCircle
10
-8.2358932375439016e-14
20
1.1704967235232311e-14
30
0
40
68.361865428620121
210
0
220
-0
230
1
100
AcDbArc
50
83.214826797374016
51
84.985173202625802
0
SPLINE
5
149
100
AcDbEntity
8
0
100
AcDbSpline
70
0
71
3
72
8
73
4
74
0
42
0.000000001
43
0.0000000001
44
0.0000000001
40
0
40
0
40
0
40
0
40
1
40
1
40
1
40
1
10
-52.903929081382266
20
-35.665446782080735
30
0
10
-52.403739075007927
20
-35.492100328087702
30
0
10
-52.00600566690273
20
-35.327276288150536
30
0
10
-51.701867935499521
20
-35.187646577651641
30
0
0
ARC
5
150
100
AcDbEntity
8
0
100
AcDbCircle
10
2.0405458002652496e-14
20
2.1578166829042391e-14
30
0
40
68.361865428620106
210
0
220
0
230
1
100
AcDbArc
50
143.214826797374
51
144.98517320262599
0
ARC
5
151
100
AcDbEntity
8
0
100
AcDbCircle
10
2.7962004638625866e-12
20
1.4286315010857963e-12
30
0
40
62.207894255932288
210
0
220
-0
230
1
100
AcDbArc
50
27.099663129919215
51
28.600336870080493
0
ARC
5
152
100
AcDbEntity
8
0
100
AcDbCircle
10
54.968489043134213
20
29.970212469671061
30
0
40
0.39999999999999097
210
0
220
0
230
1
100
AcDbArc
50
128.55086410021747
51
208.60034653414797
0
ARC
5
153
100
AcDbEntity
8
0
100
AcDbCircle
10
-11.302285678415249
20
-61.57927217502565
30
0
40
0.39999999999999203
210
0
220
-0
230
1
100
AcDbArc
50
79.599653465909128
51
159.6491358997836
0
SPLINE
5
154
100
AcDbEntity
8
0
100
AcDbSpline
70
0
71
3
72
8
73
4
74
0
42
0.000000001
43
0.0000000001
44
0.0000000001
40
0
40
0
40
0
40
0
40
1
40
1
40
1
40
1
10
-50.080861793608861
20
39.531722558254515
30
0
10
-51.146940848547644
20
39.99357150513508
30
0
10
-52.685198622544732
20
40.525658844737229
30
0
10
-54.750085383120641
20
40.936203969368805
30
0
0
ARC
5
155
100
AcDbEntity
8
0
100
AcDbCircle
10
-13.123416829599492
20
61.217026666434691
30
0
40
0.39999999999989994
210
-0
220
0
230
1
100
AcDbArc
50
-77.900346534085187
51
2.1491358997933627
0
SPLINE
5
156
100
AcDbEntity
8
0
100
AcDbSpline
70
0
71
3
72
8
73
4
74
0
42
0.000000001
43
0.0000000001
44
0.0000000001
40
0
40
0
40
0
40
0
40
1
40
1
40
1
40
1
10
-48.918009140351906
20
38.965138283316733
30
0
10
-49.210821506730966
20
39.127178814705246
30
0
10
-49.595077051734791
20
39.321360441534154
30
0
10
-50.080861793608861
20
39.531722558254515
30
0
0
SPLINE
5
157
100
AcDbEntity
8
0
100
AcDbSpline
70
0
71
3
72
8
73
4
74
0
42
0.000000001
43
0.0000000001
44
0.0000000001
40
0
40
0
40
0
40
0
40
1
40
1
40
1
40
1
10
-50.298345806802772
20
-37.166248516534836
30
0
10
-50.530650358037008
20
-37.407144367875304
30
0
10
-50.817668059615066
20
-37.728048819457008
30
0
10
-51.146592604045374
20
-38.142835125475088
30
0
0
ARC
5
158
100
AcDbEntity
8
0
100
AcDbCircle
10
2.2667296344115727e-12
20
-1.7493912554029701e-12
30
0
40
62.207894255932558
210
-0
220
0
230
1
100
AcDbArc
50
319.59966312991907
51
321.10033687008098
0
ARC
5
159
100
AcDbEntity
8
0
100
AcDbCircle
10
-51.53504378160779
20
-35.551198089377692
30
0
40
0.39999999999999192
210
0
220
-0
230
1
100
AcDbArc
50
34.599653465908382
51
114.64913589978386
0
SPLINE
5
160
100
AcDbEntity
8
0
100
AcDbSpline
70
0
71
3
72
8
73
4
74
0
42
0.000000001
43
0.0000000001
44
0.0000000001
40
0
40
0
40
0
40
0
40
1
40
1
40
1
40
1
10
-64.2330878489188
20
23.397757804410301
30
0
10
-62.758902288794509
20
21.894733663658933
30
0
10
-61.471377206079836
20
20.898925912329478
30
0
10
-60.501172805301323
20
20.259760501951302
30
0
0
ARC
5
161
100
AcDbEntity
8
0
100
AcDbCircle
10
3.2182975152356325e-14
20
-6.1037783661282757e-15
30
0
40
68.361865428620106
210
0
220
0
230
1
100
AcDbArc
50
248.214826797374
51
249.9851732026259
0
SPLINE
5
162
100
AcDbEntity
8
0
100
AcDbSpline
70
0
71
3
72
8
73
4
74
0
42
0.000000001
43
0.0000000001
44
0.0000000001
40
0
40
0
40
0
40
0
40
1
40
1
40
1
40
1
10
-47.796053671929037
20
-42.265672357167574
30
0
10
-47.322769112973226
20
-42.028521009200233
30
0
10
-46.949952223630042
20
-41.813192434495001
30
0
10
-46.666641767112502
20
-41.635059335535104
30
0
0
ARC
5
163
100
AcDbEntity
8
0
100
AcDbCircle
10
35.551198089377692
20
-51.53504378160779
30
0
40
0.39999999999998953
210
0
220
0
230
1
100
AcDbArc
50
124.59965346590754
51
204.64913589978158
0
ARC
5
164
100
AcDbEntity
8
0
100
AcDbCircle
10
-61.85414376386462
20
9.685727768296962
30
0
40
0.39999999999999036
210
-0
220
0
230
1
100
AcDbArc
50
271.05086410021676
51
351.10034653409122
0
ARC
5
165
100
AcDbEntity
8
0
100
AcDbCircle
10
62.4062561447044
20
5.0207187895699601
30
0
40
0.39999999999996871
210
0
220
0
230
1
100
AcDbArc
50
184.59965346591929
51
264.6491358997763
0
SPLINE
5
166
100
AcDbEntity
8
0
100
AcDbSpline
70
0
71
3
72
8
73
4
74
0
42
0.000000001
43
0.0000000001
44
0.0000000001
40
0
40
0
40
0
40
0
40
1
40
1
40
1
40
1
10
64.2330878489188
20
-23.397757804410301
30
0
10
62.758902288794509
20
-21.894733663658933
30
0
10
61.471377206079836
20
-20.898925912329478
30
0
10
60.501172805301323
20
-20.259760501951302
30
0
0
ARC
5
167
100
AcDbEntity
8
0
100
AcDbCircle
10
-2.5264440278526989e-12
20
1.628092311304071e-12
30
0
40
62.207894255932466
210
0
220
0
230
1
100
AcDbArc
50
147.09966312991926
51
148.60033687008092
0
SPLINE
5
168
100
AcDbEntity
8
0
100
AcDbSpline
70
0
71
3
72
8
73
4
74
0
42
0.000000001
43
0.0000000001
44
0.0000000001
40
0
40
0
40
0
40
0
40
1
40
1
40
1
40
1
10
-60.332168291165345
20
-20.757631745935285
30
0
10
-59.8041564822623
20
-20.719650628947445
30
0
10
-59.377315910769141
20
-20.663383812869935
30
0
10
-59.047402592918424
20
-20.607228506603199
30
0
0
ARC
5
169
100
AcDbEntity
8
0
100
AcDbCircle
10
-19.243300974331923
20
-59.577208652081609
30
0
40
0.39999999999999325
210
0
220
-0
230
1
100
AcDbArc
50
72.099653465908048
51
152.14913589978264
0
ARC
5
170
100
AcDbEntity
8
0
100
AcDbCircle
10
-61.217026666434691
20
-13.123416829599492
30
0
40
0.39999999999998048
210
0
220
-0
230
1
100
AcDbArc
50
12.099653465914454
51
92.149135899782976
0
SPLINE
5
171
100
AcDbEntity
8
0
100
AcDbSpline
70
0
71
3
72
8
73
4
74
0
42
0.000000001
43
0.0000000001
44
0.0000000001
40
0
40
0
40
0
40
0
40
1
40
1
40
1
40
1
10
-67.326364742886426
20
-11.85349127424444
30
0
10
-65.298170527550937
20
-12.418055582574262
30
0
10
-63.685237222245604
20
-12.636687851153726
30
0
10
-62.525432859118879
20
-12.705119133372287
30
0
0
SPLINE
5
172
100
AcDbEntity
8
0
100
AcDbSpline
70
0
71
3
72
8
73
4
74
0
42
0.000000001
43
0.0000000001
44
0.0000000001
40
0
40
0
40
0
40
0
40
1
40
1
40
1
40
1
10
-62.529739214769606
20
1.1337254634369964
30
0
10
-62.8606869091604
20
1.084027985688262
30
0
10
-63.283747613950283
20
1.0041626732750941
30
0
10
-63.797206904362611
20
0.87532714759199859
30
0
0
SPLINE
5
173
100
AcDbEntity
8
0
100
AcDbSpline
70
0
71
3
72
8
73
4
74
0
42
0.000000001
43
0.0000000001
44
0.0000000001
40
0
40
0
40
0
40
0
40
1
40
1
40
1
40
1
10
-63.797206904362611
20
0.87532714759199859
30
0
10
-64.924140108501987
20
0.59274874338894534
30
0
10
-66.4684363009452
20
0.078450010906753465
30
0
10
-68.356545146514506
20
-0.85286605823588224
30
0
0
SPLINE
5
174
100
AcDbEntity
8
0
100
AcDbSpline
70
0
71
3
72
8
73
4
74
0
42
0.000000001
43
0.0000000001
44
0.0000000001
40
0
40
0
40
0
40
0
40
1
40
1
40
1
40
1
10
-65.203187278772873
20
-20.539937039096209
30
0
10
-63.118654116680794
20
-20.834938953494468
30
0
10
-61.490982441883006
20
-20.841170750061533
30
0
10
-60.332168291165345
20
-20.757631745935285
30
0
0
SPLINE
5
175
100
AcDbEntity
8
0
100
AcDbSpline
70
0
71
3
72
8
73
4
74
0
42
0.000000001
43
0.0000000001
44
0.0000000001
40
0
40
0
40
0
40
0
40
1
40
1
40
1
40
1
10
25.222830949378981
20
58.605960493045536
30
0
10
25.393021212012346
20
59.755249088489919
30
0
10
25.508847706988075
20
61.378806337030667
30
0
10
25.370971826109727
20
63.479590684561856
30
0
0
SPLINE
5
176
100
AcDbEntity
8
0
100
AcDbSpline
70
0
71
3
72
8
73
4
74
0
42
0.000000001
43
0.0000000001
44
0.0000000001
40
0
40
0
40
0
40
0
40
1
40
1
40
1
40
1
10
12.189447731200385
20
62.628006278514896
30
0
10
11.958334438924425
20
62.151744080012605
30
0
10
11.793642645290973
20
61.753955893694972
30
0
10
11.67731790814998
20
61.440164926256024
30
0
0
SPLINE
5
177
100
AcDbEntity
8
0
100
AcDbSpline
70
0
71
3
72
8
73
4
74
0
42
0.000000001
43
0.0000000001
44
0.0000000001
40
0
40
0
40
0
40
0
40
1
40
1
40
1
40
1
10
-17.357433269506085
20
-61.396818457538998
30
0
10
-17.376155266724563
20
-62.558489016662392
30
0
10
-17.27907410447586
20
-64.183274899221672
30
0
10
-16.86817038931278
20
-66.248090331705981
30
0
0
ARC
5
178
100
AcDbEntity
8
0
100
AcDbCircle
10
62.527697278055214
20
-3.1678851409553941
30
0
40
0.40000000000002622
210
0
220
0
230
1
100
AcDbArc
50
177.09965346594242
51
257.14913589978278
0
ARC
5
179
100
AcDbEntity
8
0
100
AcDbCircle
10
-58.410123712990071
20
-22.538985580446756
30
0
40
0.39999999999999253
210
-0
220
0
230
1
100
AcDbArc
50
-58.949135899782185
51
21.100346534109331
0
SPLINE
5
180
100
AcDbEntity
8
0
100
AcDbSpline
70
0
71
3
72
8
73
4
74
0
42
0.000000001
43
0.0000000001
44
0.0000000001
40
0
40
0
40
0
40
0
40
1
40
1
40
1
40
1
10
-45.016867587790166
20
-43.413537661389796
30
0
10
-45.215741523187994
20
-43.682694443835572
30
0
10
-45.458417312409466
20
-44.038316841034955
30
0
10
-45.73038738465506
20
-44.492487861017025
30
0
0
ARC
5
181
100
AcDbEntity
8
0
100
AcDbCircle
10
-43.175894088698342
20
45.338621425931137
30
0
40
0.39999999999999503
210
0
220
0
230
1
100
AcDbArc
50
233.55086410021792
51
313.60034653407274
0
SPLINE
5
182
100
AcDbEntity
8
0
100
AcDbSpline
70
0
71
3
72
8
73
4
74
0
42
0.000000001
43
0.0000000001
44
0.0000000001
40
0
40
0
40
0
40
0
40
1
40
1
40
1
40
1
10
55.988613123087703
20
-39.225245001580113
30
0
10
54.95367049069656
20
-37.391887867517127
30
0
10
53.967750772612192
20
-36.096775430035393
30
0
10
53.196033466297649
20
-35.22828167631662
30
0
0
ARC
5
183
100
AcDbEntity
8
0
100
AcDbCircle
10
-2.3393566747478435e-12
20
-2.2762061304531957e-12
30
0
40
62.207894255932203
210
0
220
0
230
1
100
AcDbArc
50
222.09966312991907
51
223.60033687007993
0
ARC
5
184
100
AcDbEntity
8
0
100
AcDbCircle
10
-9.3598559808055184e-13
20
2.9590194254492133e-12
30
0
40
62.207894255932374
210
0
220
0
230
1
100
AcDbArc
50
109.59966312991935
51
111.10033687008101
0
ARC
5
185
100
AcDbEntity
8
0
100
AcDbCircle
10
-59.577208652081609
20
19.243300974331923
30
0
40
0.39999999999994812
210
-0
220
0
230
1
100
AcDbArc
50
-17.900346534046836
51
62.149135899783758
0
SPLINE
5
186
100
AcDbEntity
8
0
100
AcDbSpline
70
0
71
3
72
8
73
4
74
0
42
0.000000001
43
0.0000000001
44
0.0000000001
40
0
40
0
40
0
40
0
40
1
40
1
40
1
40
1
10
-55.988613123087703
20
39.225245001580006
30
0
10
-54.95367049069656
20
37.391887867517021
30
0
10
-53.967750772612192
20
36.096775430035294
30
0
10
-53.196033466297649
20
35.22828167631662
30
0
0
SPLINE
5
187
100
AcDbEntity
8
0
100
AcDbSpline
70
0
71
3
72
8
73
4
74
0
42
0.000000001
43
0.0000000001
44
0.0000000001
40
0
40
0
40
0
40
0
40
1
40
1
40
1
40
1
10
-51.146592604045374
20
-38.142835125475088
30
0
10
-51.868625992684784
20
-39.05305311409299
30
0
10
-52.780713304035423
20
-40.401181688339733
30
0
10
-53.711701462391197
20
-42.289452241613724
30
0
0
ARC
5
188
100
AcDbEntity
8
0
100
AcDbCircle
10
2.4155092716245207e-12
20
-2.4915264314664577e-12
30
0
40
62.20789425593199
210
-0
220
0
230
1
100
AcDbArc
50
312.09966312991895
51
313.6003368700807
0
SPLINE
5
189
100
AcDbEntity
8
0
100
AcDbSpline
70
0
71
3
72
8
73
4
74
0
42
0.000000001
43
0.0000000001
44
0.0000000001
40
0
40
0
40
0
40
0
40
1
40
1
40
1
40
1
10
61.8499211305232
20
15.666431072884041
30
0
10
62.865318344161658
20
16.231052627245006
30
0
10
64.223883613043924
20
17.127520321260835
30
0
10
65.806614374120031
20
18.515781093343683
30
0
0
ARC
5
190
100
AcDbEntity
8
0
100
AcDbCircle
10
2.72536644074573e-12
20
-1.6225359051980808e-12
30
0
40
62.207894255932302
210
-0
220
0
230
1
100
AcDbArc
50
327.09966312991895
51
328.6003368700807
0
SPLINE
5
191
100
AcDbEntity
8
0
100
AcDbSpline
70
0
71
3
72
8
73
4
74
0
42
0.000000001
43
0.0000000001
44
0.0000000001
40
0
40
0
40
0
40
0
40
1
40
1
40
1
40
1
10
-63.683257200539181
20
3.9105701302152389
30
0
10
-63.180903153155434
20
3.743598735461886
30
0
10
-62.765021507202647
20
3.6322376802237555
30
0
10
-62.438731639989847
20
3.5578660574674847
30
0
0
ARC
5
192
100
AcDbEntity
8
0
100
AcDbCircle
10
-41.973725692102768
20
46.453791822482117
30
0
40
0.39999999999997032
210
-0
220
0
230
1
100
AcDbArc
50
-47.900346534048893
51
32.14913589977467
0
SPLINE
5
193
100
AcDbEntity
8
0
100
AcDbSpline
70
0
71
3
72
8
73
4
74
0
42
0.000000001
43
0.0000000001
44
0.0000000001
40
0
40
0
40
0
40
0
40
1
40
1
40
1
40
1
10
60.105660276811179
20
-17.278982099131653
30
0
10
60.438193855708917
20
-17.316633588113877
30
0
10
60.86750978044914
20
-17.348985787863398
30
0
10
61.396818457538998
20
-17.357433269506085
30
0
0
ARC
5
194
100
AcDbEntity
8
0
100
AcDbCircle
10
-29.970212469671061
20
54.968489043134213
30
0
40
0.39999999999999097
210
0
220
0
230
1
100
AcDbArc
50
218.55086410021744
51
298.60034653409247
0
SPLINE
5
195
100
AcDbEntity
8
0
100
AcDbSpline
70
0
71
3
72
8
73
4
74
0
42
0.000000001
43
0.0000000001
44
0.0000000001
40
0
40
0
40
0
40
0
40
1
40
1
40
1
40
1
10
-62.628006278514896
20
12.189447731200385
30
0
10
-62.151744080012605
20
11.958334438924425
30
0
10
-61.753955893694972
20
11.793642645290973
30
0
10
-61.440164926256024
20
11.67731790814998
30
0
0
SPLINE
5
196
100
AcDbEntity
8
0
100
AcDbSpline
70
0
71
3
72
8
73
4
74
0
42
0.000000001
43
0.0000000001
44
0.0000000001
40
0
40
0
40
0
40
0
40
1
40
1
40
1
40
1
10
11.853491274244499
20
-67.326364742886426
30
0
10
12.418055582574361
20
-65.298170527550937
30
0
10
12.636687851153726
20
-63.685237222245604
30
0
10
12.705119133372287
20
-62.525432859118879
30
0
0
ARC
5
197
100
AcDbEntity
8
0
100
AcDbCircle
10
-9.685727768296962
20
-61.85414376386462
30
0
40
0.39999999999999036
210
0
220
-0
230
1
100
AcDbArc
50
1.0508641002162797
51
81.100346534089027
0
ARC
5
198
100
AcDbEntity
8
0
100
AcDbCircle
10
61.217026666434691
20
13.123416829599492
30
0
40
0.39999999999999036
210
0
220
0
230
1
100
AcDbArc
50
192.09965346590806
51
272.14913589978499
0
ARC
5
199
100
AcDbEntity
8
0
100
AcDbCircle
10
-34.007317647366264
20
-52.566631712461131
30
0
40
0.39999999999996677
210
0
220
-0
230
1
100
AcDbArc
50
57.099653465908638
51
137.14913589978502
0
SPLINE
5
200
100
AcDbEntity
8
0
100
AcDbSpline
70
0
71
3
72
8
73
4
74
0
42
0.000000001
43
0.0000000001
44
0.0000000001
40
0
40
0
40
0
40
0
40
1
40
1
40
1
40
1
10
62.529739214769606
20
-1.1337254634369871
30
0
10
62.8606869091604
20
-1.0840279856882526
30
0
10
63.283747613950283
20
-1.0041626732750941
30
0
10
63.797206904362611
20
-0.8753271475919886
30
0
0
ARC
5
201
100
AcDbEntity
8
0
100
AcDbCircle
10
2.8475712509407266e-12
20
8.7885150669260958e-13
30
0
40
62.207894255932459
210
0
220
-0
230
1
100
AcDbArc
50
12.099663129918923
51
13.600336870080492
0
SPLINE
5
202
100
AcDbEntity
8
0
100
AcDbSpline
70
0
71
3
72
8
73
4
74
0
42
0.000000001
43
0.0000000001
44
0.0000000001
40
0
40
0
40
0
40
0
40
1
40
1
40
1
40
1
10
-9.2857950451499516
20
-61.846807759762513
30
0
10
-9.2797200785855871
20
-62.181410973283249
30
0
10
-9.2557585278656447
20
-62.611276850215958
30
0
10
-9.1950450940023014
20
-63.137159835810081
30
0
0
ARC
5
203
100
AcDbEntity
8
0
100
AcDbCircle
10
-8.9058029431753304e-13
20
-6.7212851403083347e-13
30
0
40
62.207894255934413
210
0
220
0
230
1
100
AcDbArc
50
207.09966312991898
51
208.60033687008101
0
SPLINE
5
204
100
AcDbEntity
8
0
100
AcDbSpline
70
0
71
3
72
8
73
4
74
0
42
0.000000001
43
0.0000000001
44
0.0000000001
40
0
40
0
40
0
40
0
40
1
40
1
40
1
40
1
10
-59.275906887611271
20
-23.60543727755557
30
0
10
-60.208919335790306
20
-24.297764348134692
30
0
10
-61.438849375916348
20
-25.363890988183989
30
0
10
-62.826835263535074
20
-26.946862816465082
30
0
0
SPLINE
5
205
100
AcDbEntity
8
0
100
AcDbSpline
70
0
71
3
72
8
73
4
74
0
42
0.000000001
43
0.0000000001
44
0.0000000001
40
0
40
0
40
0
40
0
40
1
40
1
40
1
40
1
10
-39.531722558254515
20
-50.080861793608861
30
0
10
-39.993571505135172
20
-51.146940848547644
30
0
10
-40.525658844737336
20
-52.685198622544746
30
0
10
-40.93620396936889
20
-54.750085383120641
30
0
0
ARC
5
206
100
AcDbEntity
8
0
100
AcDbCircle
10
-26.855058055326818
20
-56.555762571177695
30
0
40
0.40000000000002001
210
0
220
-0
230
1
100
AcDbArc
50
64.599653465903643
51
144.64913589978403
0
ARC
5
207
100
AcDbEntity
8
0
100
AcDbCircle
10
2.6480564512933949e-12
20
-1.4411811393240471e-13
30
0
40
62.207894255932807
210
-0
220
0
230
1
100
AcDbArc
50
357.09966312991912
51
358.60033687008104
0
ARC
5
208
100
AcDbEntity
8
0
100
AcDbCircle
10
-25.364725022400716
20
-57.239664112400234
30
0
40
0.39999999999998925
210
-0
220
0
230
1
100
AcDbArc
50
-13.949135899784121
51
66.100346534053998
0
SPLINE
5
209
100
AcDbEntity
8
0
100
AcDbSpline
70
0
71
3
72
8
73
4
74
0
42
0.000000001
43
0.0000000001
44
0.0000000001
40
0
40
0
40
0
40
0
40
1
40
1
40
1
40
1
10
60.501172805301323
20
-20.259760501951302
30
0
10
60.05915143394197
20
-19.968459724660189
30
0
10
59.686262973415019
20
-19.753255114881817
30
0
10
59.390339956202205
20
-19.596967611859814
30
0
0
ARC
5
210
100
AcDbEntity
8
0
100
AcDbCircle
10
-1.3603638668434994e-14
20
-1.4385444552694923e-14
30
0
40
68.361865428620177
210
-0
220
0
230
1
100
AcDbArc
50
315.71482679737409
51
317.48517320262596
0
SPLINE
5
211
100
AcDbEntity
8
0
100
AcDbSpline
70
0
71
3
72
8
73
4
74
0
42
0.000000001
43
0.0000000001
44
0.0000000001
40
0
40
0
40
0
40
0
40
1
40
1
40
1
40
1
10
57.339147491295051
20
-27.983423153447053
30
0
10
56.938930055293888
20
-27.636919128204255
30
0
10
56.597321545501416
20
-27.37488391282
30
0
10
56.324329803384614
20
-27.181307766424879
30
0
0
ARC
5
212
100
AcDbEntity
8
0
100
AcDbCircle
10
-3.1415953060320126e-12
20
1.2667754075279587e-12
30
0
40
62.207894255932104
210
0
220
0
230
1
100
AcDbArc
50
154.59966312991898
51
156.10033687008101
0
ARC
5
213
100
AcDbEntity
8
0
100
AcDbCircle
10
55.734516853416636
20
28.52037963068895
30
0
40
0.40000000000006641
210
0
220
0
230
1
100
AcDbArc
50
207.09965346589979
51
287.14913589976993
0
ARC
5
214
100
AcDbEntity
8
0
100
AcDbCircle
10
3.909029421299643e-16
20
-1.3994541610564959e-14
30
0
40
68.361865428620078
210
0
220
-0
230
1
100
AcDbArc
50
23.214826797374073
51
24.985173202625973
0
ARC
5
215
100
AcDbEntity
8
0
100
AcDbCircle
10
-8.0689048443667139e-14
20
3.4588188368466993e-13
30
0
40
68.361865428620106
210
0
220
0
230
1
100
AcDbArc
50
195.714826797374
51
197.48517320262596
0
ARC
5
216
100
AcDbEntity
8
0
100
AcDbCircle
10
-2.9329345052966108e-13
20
-6.5214659980753032e-14
30
0
40
68.361865428620135
210
-0
220
0
230
1
100
AcDbArc
50
285.71482679737397
51
287.48517320262602
0
SPLINE
5
217
100
AcDbEntity
8
0
100
AcDbSpline
70
0
71
3
72
8
73
4
74
0
42
0.000000001
43
0.0000000001
44
0.0000000001
40
0
40
0
40
0
40
0
40
1
40
1
40
1
40
1
10
-20.259760501951302
20
-60.501172805301323
30
0
10
-19.968459724660189
20
-60.05915143394197
30
0
10
-19.753255114881817
20
-59.686262973415019
30
0
10
-19.596967611859814
20
-59.390339956202205
30
0
0
ARC
5
218
100
AcDbEntity
8
0
100
AcDbCircle
10
-5.6054583674563874e-13
20
2.0531491336254976e-12
30
0
40
62.207894255933397
210
0
220
0
230
1
100
AcDbArc
50
102.09966312991902
51
103.60033687008098
0
ARC
5
219
100
AcDbEntity
8
0
100
AcDbCircle
10
3.3185377431269041e-13
20
-6.1758177389087428e-14
30
0
40
68.361865428620106
210
0
220
0
230
1
100
AcDbArc
50
255.71482679737383
51
257.48517320262602
0
ARC
5
220
100
AcDbEntity
8
0
100
AcDbCircle
10
47.678071210920699
20
-40.577702605849467
30
0
40
0.39999999999998975
210
0
220
0
230
1
100
AcDbArc
50
139.59965346590837
51
219.64913589978417
0
ARC
5
221
100
AcDbEntity
8
0
100
AcDbCircle
10
1.5811706576673365e-13
20
-7.3613813332270904e-14
30
0
40
68.361865428620149
210
0
220
0
230
1
100
AcDbArc
50
240.71482679737397
51
242.48517320262576
0
SPLINE
5
222
100
AcDbEntity
8
0
100
AcDbSpline
70
0
71
3
72
8
73
4
74
0
42
0.000000001
43
0.0000000001
44
0.0000000001
40
0
40
0
40
0
40
0
40
1
40
1
40
1
40
1
10
63.137159835810081
20
-9.1950450940023014
30
0
10
64.291335853269871
20
-9.0619784872426763
30
0
10
65.889549832921318
20
-8.7536507533716144
30
0
10
67.883066785833975
20
-8.0767498804144875
30
0
0
ARC
5
223
100
AcDbEntity
8
0
100
AcDbCircle
10
29.970212469671061
20
-54.968489043134213
30
0
40
0.39999999999998914
210
0
220
-0
230
1
100
AcDbArc
50
38.550864100216039
51
118.60034653409065
0
ARC
5
224
100
AcDbEntity
8
0
100
AcDbCircle
10
-39.315158183417857
20
-48.724395944693114
30
0
40
0.39999999999998836
210
-0
220
0
230
1
100
AcDbArc
50
-28.949135899782423
51
51.100346534091855
0
ARC
5
225
100
AcDbEntity
8
0
100
AcDbCircle
10
2.7207277336869989e-14
20
2.8770889105389846e-14
30
0
40
68.361865428620106
210
-0
220
0
230
1
100
AcDbArc
50
308.21482679737403
51
309.98517320262596
0
SPLINE
5
226
100
AcDbEntity
8
0
100
AcDbSpline
70
0
71
3
72
8
73
4
74
0
42
0.000000001
43
0.0000000001
44
0.0000000001
40
0
40
0
40
0
40
0
40
1
40
1
40
1
40
1
10
42.265672357167574
20
-47.796053671929037
30
0
10
42.028521009200233
20
-47.322769112973226
30
0
10
41.813192434495001
20
-46.949952223630042
30
0
10
41.635059335535104
20
-46.666641767112502
30
0
0
ARC
5
227
100
AcDbEntity
8
0
100
AcDbCircle
10
-1.6225359051980808e-12
20
-2.72536644074573e-12
30
0
40
62.207894255932302
210
0
220
0
230
1
100
AcDbArc
50
237.09966312991901
51
238.60033687008101
0
SPLINE
5
228
100
AcDbEntity
8
0
100
AcDbSpline
70
0
71
3
72
8
73
4
74
0
42
0.000000001
43
0.0000000001
44
0.0000000001
40
0
40
0
40
0
40
0
40
1
40
1
40
1
40
1
10
-60.501172805301323
20
20.259760501951302
30
0
10
-60.059151433941977
20
19.968459724660288
30
0
10
-59.686262973414912
20
19.753255114881821
30
0
10
-59.390339956202205
20
19.596967611859814
30
0
0
SPLINE
5
229
100
AcDbEntity
8
0
100
AcDbSpline
70
0
71
3
72
8
73
4
74
0
42
0.000000001
43
0.0000000001
44
0.0000000001
40
0
40
0
40
0
40
0
40
1
40
1
40
1
40
1
10
-57.106603596512883
20
-28.454975524222572
30
0
10
-56.588066532407865
20
-28.348399970092331
30
0
10
-56.172221934426048
20
-28.236900649944495
30
0
10
-55.852460809044196
20
-28.138163430965601
30
0
0
ARC
5
230
100
AcDbEntity
8
0
100
AcDbCircle
10
-3.01579295208943e-13
20
3.2398425777653576e-12
30
0
40
62.20789425593221
210
0
220
0
230
1
100
AcDbArc
50
94.59966312991908
51
96.100336870080838
0
SPLINE
5
231
100
AcDbEntity
8
0
100
AcDbSpline
70
0
71
3
72
8
73
4
74
0
42
0.000000001
43
0.0000000001
44
0.0000000001
40
0
40
0
40
0
40
0
40
1
40
1
40
1
40
1
10
15.666431072884041
20
-61.8499211305232
30
0
10
16.231052627245006
20
-62.865318344161658
30
0
10
17.127520321260931
20
-64.223883613043924
30
0
10
18.515781093343683
20
-65.806614374120031
30
0
0
ARC
5
232
100
AcDbEntity
8
0
100
AcDbCircle
10
3.1089552965825753e-13
20
7.9711791088342218e-14
30
0
40
68.361865428620121
210
0
220
0
230
1
100
AcDbArc
50
105.71482679737441
51
107.485173202626
0
ARC
5
233
100
AcDbEntity
8
0
100
AcDbCircle
10
-62.4062561447044
20
-5.0207187895699512
30
0
40
0.39999999999999153
210
0
220
-0
230
1
100
AcDbArc
50
4.5996534659089123
51
84.649135899783374
0
SPLINE
5
234
100
AcDbEntity
8
0
100
AcDbSpline
70
0
71
3
72
8
73
4
74
0
42
0.000000001
43
0.0000000001
44
0.0000000001
40
0
40
0
40
0
40
0
40
1
40
1
40
1
40
1
10
-58.605960493045536
20
25.222830949378981
30
0
10
-59.755249088489919
20
25.393021212012346
30
0
10
-61.378806337030667
20
25.508847706988075
30
0
10
-63.479590684561856
20
25.370971826109727
30
0
0
SPLINE
5
235
100
AcDbEntity
8
0
100
AcDbSpline
70
0
71
3
72
8
73
4
74
0
42
0.000000001
43
0.0000000001
44
0.0000000001
40
0
40
0
40
0
40
0
40
1
40
1
40
1
40
1
10
7.4593678890001947
20
-63.365666074854062
30
0
10
7.8866230958051817
20
-64.446074326105418
30
0
10
8.5980930329952585
20
-65.910029395327811
30
0
10
9.7678892221707372
20
-67.660424067723454
30
0
0
ARC
5
236
100
AcDbEntity
8
0
100
AcDbCircle
10
2.8994262215178398e-14
20
-3.5204158257192838e-14
30
0
40
68.361865428620106
210
0
220
0
230
1
100
AcDbArc
50
218.214826797374
51
219.98517320262593
0
ARC
5
237
100
AcDbEntity
8
0
100
AcDbCircle
10
-9.6934182276507878e-14
20
1.7536180971461477e-13
30
0
40
68.361865428620135
210
0
220
0
230
1
100
AcDbArc
50
210.71482679737426
51
212.48517320262604
0
SPLINE
5
238
100
AcDbEntity
8
0
100
AcDbSpline
70
0
71
3
72
8
73
4
74
0
42
0.000000001
43
0.0000000001
44
0.0000000001
40
0
40
0
40
0
40
0
40
1
40
1
40
1
40
1
10
-20.539937039096309
20
65.203187278772859
30
0
10
-20.834938953494468
20
63.118654116680794
30
0
10
-20.841170750061629
20
61.490982441883006
30
0
10
-20.757631745935285
20
60.332168291165345
30
0
0
SPLINE
5
239
100
AcDbEntity
8
0
100
AcDbSpline
70
0
71
3
72
8
73
4
74
0
42
0.000000001
43
0.0000000001
44
0.0000000001
40
0
40
0
40
0
40
0
40
1
40
1
40
1
40
1
10
63.797206904362611
20
-0.8753271475919886
30
0
10
64.924140108501987
20
-0.59274874338894534
30
0
10
66.4684363009452
20
-0.07845001090674375
30
0
10
68.356545146514506
20
0.85286605823588224
30
0
0
ARC
5
240
100
AcDbEntity
8
0
100
AcDbCircle
10
-2.9683062706298281e-12
20
-8.5421302011830777e-13
30
0
40
62.207894255932395
210
0
220
0
230
1
100
AcDbArc
50
199.59966312991895
51
201.10033687008095
0
SPLINE
5
241
100
AcDbEntity
8
0
100
AcDbSpline
70
0
71
3
72
8
73
4
74
0
42
0.000000001
43
0.0000000001
44
0.0000000001
40
0
40
0
40
0
40
0
40
1
40
1
40
1
40
1
10
-12.189447731200385
20
-62.628006278514896
30
0
10
-11.958334438924425
20
-62.151744080012605
30
0
10
-11.793642645290973
20
-61.753955893694972
30
0
10
-11.67731790814998
20
-61.440164926256024
30
0
0
SPLINE
5
242
100
AcDbEntity
8
0
100
AcDbSpline
70
0
71
3
72
8
73
4
74
0
42
0.000000001
43
0.0000000001
44
0.0000000001
40
0
40
0
40
0
40
0
40
1
40
1
40
1
40
1
10
-38.96513828331674
20
-48.918009140351806
30
0
10
-39.127178814705246
20
-49.210821506730866
30
0
10
-39.321360441534154
20
-49.595077051734791
30
0
10
-39.531722558254515
20
-50.080861793608861
30
0
0
ARC
5
243
100
AcDbEntity
8
0
100
AcDbCircle
10
-46.453791822482117
20
-41.973725692102768
30
0
40
0.39999999999999308
210
0
220
-0
230
1
100
AcDbArc
50
42.099653465909448
51
122.14913589978177
0
SPLINE
5
244
100
AcDbEntity
8
0
100
AcDbSpline
70
0
71
3
72
8
73
4
74
0
42
0.000000001
43
0.0000000001
44
0.0000000001
40
0
40
0
40
0
40
0
40
1
40
1
40
1
40
1
10
-11.853491274244449
20
67.326364742886426
30
0
10
-12.418055582574262
20
65.298170527550937
30
0
10
-12.636687851153726
20
63.685237222245604
30
0
10
-12.705119133372287
20
62.525432859118879
30
0
0
SPLINE
5
245
100
AcDbEntity
8
0
100
AcDbSpline
70
0
71
3
72
8
73
4
74
0
42
0.000000001
43
0.0000000001
44
0.0000000001
40
0
40
0
40
0
40
0
40
1
40
1
40
1
40
1
10
-30.283034555131113
20
54.719205383725054
30
0
10
-30.491547680560927
20
54.980965755516976
30
0
10
-30.772243422386762
20
55.307414417001283
30
0
10
-31.140547905744405
20
55.687665443466003
30
0
0
ARC
5
246
100
AcDbEntity
8
0
100
AcDbCircle
10
-36.888640714226696
20
50.58632828560598
30
0
40
0.39999999999999614
210
0
220
0
230
1
100
AcDbArc
50
226.05086410023014
51
306.10034653418597
0
ARC
5
247
100
AcDbEntity
8
0
100
AcDbCircle
10
62.253365736627408
20
6.6533358267942315
30
0
40
0.39999999999999136
210
0
220
0
230
1
100
AcDbArc
50
106.05086410021735
51
186.10034653409096
0
ARC
5
248
100
AcDbEntity
8
0
100
AcDbCircle
10
-9.360044675406985e-14
20
-1.9468938432138134e-13
30
0
40
68.361865428620149
210
0
220
0
230
1
100
AcDbArc
50
150.71482679737392
51
152.48517320262573
0
SPLINE
5
249
100
AcDbEntity
8
0
100
AcDbSpline
70
0
71
3
72
8
73
4
74
0
42
0.000000001
43
0.0000000001
44
0.0000000001
40
0
40
0
40
0
40
0
40
1
40
1
40
1
40
1
10
-43.928606938476051
20
52.379596574674387
30
0
10
-43.403436863891905
20
50.340846706220276
30
0
10
-42.786311309916123
20
48.834689354926127
30
0
10
-42.265672357167574
20
47.796053671929037
30
0
0
SPLINE
5
250
100
AcDbEntity
8
0
100
AcDbSpline
70
0
71
3
72
8
73
4
74
0
42
0.000000001
43
0.0000000001
44
0.0000000001
40
0
40
0
40
0
40
0
40
1
40
1
40
1
40
1
10
27.983423153447053
20
57.339147491295051
30
0
10
27.636919128204159
20
56.938930055293881
30
0
10
27.37488391282
20
56.597321545501416
30
0
10
27.181307766424879
20
56.324329803384614
30
0
0
SPLINE
5
251
100
AcDbEntity
8
0
100
AcDbSpline
70
0
71
3
72
8
73
4
74
0
42
0.000000001
43
0.0000000001
44
0.0000000001
40
0
40
0
40
0
40
0
40
1
40
1
40
1
40
1
10
-46.197648071583544
20
-50.389700907376771
30
0
10
-44.244888440981612
20
-49.60291347836452
30
0
10
-42.8321675233028
20
-48.794474535103987
30
0
10
-41.870374532579632
20
-48.142720559964971
30
0
0
ARC
5
252
100
AcDbEntity
8
0
100
AcDbCircle
10
-1.547438846291411e-14
20
5.2588433155008818e-14
30
0
40
68.361865428620078
210
0
220
0
230
1
100
AcDbArc
50
203.21482679737412
51
204.98517320262587
0
SPLINE
5
253
100
AcDbEntity
8
0
100
AcDbSpline
70
0
71
3
72
8
73
4
74
0
42
0.000000001
43
0.0000000001
44
0.0000000001
40
0
40
0
40
0
40
0
40
1
40
1
40
1
40
1
10
-50.389700907376771
20
46.197648071583544
30
0
10
-49.60291347836452
20
44.244888440981612
30
0
10
-48.794474535103987
20
42.8321675233028
30
0
10
-48.142720559964964
20
41.870374532579518
30
0
0
ARC
5
254
100
AcDbEntity
8
0
100
AcDbCircle
10
-2.0133086701975825e-12
20
2.3467000657321421e-12
30
0
40
62.207894255932395
210
0
220
0
230
1
100
AcDbArc
50
132.09966312991898
51
133.60033687008104
0
ARC
5
255
100
AcDbEntity
8
0
100
AcDbCircle
10
-7.1323720690878898e-13
20
-3.3322139317098107e-12
30
0
40
62.207894255932075
210
0
220
0
230
1
100
AcDbArc
50
259.59966312991935
51
261.10033687008104
0
ARC
5
256
100
AcDbEntity
8
0
100
AcDbCircle
10
-22.538985580446756
20
58.410123712990071
30
0
40
0.39999999999999253
210
0
220
0
230
1
100
AcDbArc
50
211.05086410021781
51
291.100346534089
0
ARC
5
257
100
AcDbEntity
8
0
100
AcDbCircle
10
-21.001569569176173
20
58.980356889336043
30
0
40
0.39999999999998659
210
-0
220
0
230
1
100
AcDbArc
50
-70.400346534091511
51
9.6491358997815837
0
SPLINE
5
258
100
AcDbEntity
8
0
100
AcDbSpline
70
0
71
3
72
8
73
4
74
0
42
0.000000001
43
0.0000000001
44
0.0000000001
40
0
40
0
40
0
40
0
40
1
40
1
40
1
40
1
10
-62.142769495293166
20
-7.0377424752834647
30
0
10
-62.46439906374691
20
-7.1302121265935172
30
0
10
-62.873415910440251
20
-7.2646146830617075
30
0
10
-63.365666074854062
20
-7.4593678890001458
30
0
0
ARC
5
259
100
AcDbEntity
8
0
100
AcDbCircle
10
1.0945059404463586e-12
20
-2.5353845137894124e-13
30
0
40
62.207894255934406
210
-0
220
0
230
1
100
AcDbArc
50
334.59966312991889
51
336.10033687008064
0
ARC
5
260
100
AcDbEntity
8
0
100
AcDbCircle
10
60.060731824884684
20
-17.67645088307254
30
0
40
0.39999999999994817
210
0
220
-0
230
1
100
AcDbArc
50
83.550864100209509
51
163.6003465340884
0
SPLINE
5
261
100
AcDbEntity
8
0
100
AcDbSpline
70
0
71
3
72
8
73
4
74
0
42
0.000000001
43
0.0000000001
44
0.0000000001
40
0
40
0
40
0
40
0
40
1
40
1
40
1
40
1
10
-14.813486371396095
20
-66.73758511067976
30
0
10
-13.515740638316174
20
-65.07982739447597
30
0
10
-12.696507906779004
20
-63.673338273364337
30
0
10
-12.189447731200385
20
-62.628006278514896
30
0
0
ARC
5
262
100
AcDbEntity
8
0
100
AcDbCircle
10
34.007317647366257
20
52.566631712461238
30
0
40
0.40000000000007818
210
0
220
0
230
1
100
AcDbArc
50
237.09965346590357
51
317.14913589976913
0
ARC
5
263
100
AcDbEntity
8
0
100
AcDbCircle
10
6.2154649210225508e-15
20
2.81845346921949e-14
30
0
40
68.361865428620177
210
-0
220
0
230
1
100
AcDbArc
50
338.21482679737409
51
339.98517320262602
0
SPLINE
5
264
100
AcDbEntity
8
0
100
AcDbSpline
70
0
71
3
72
8
73
4
74
0
42
0.000000001
43
0.0000000001
44
0.0000000001
40
0
40
0
40
0
40
0
40
1
40
1
40
1
40
1
10
68.10018378804277
20
-5.9757520794930521
30
0
10
66.287218609900961
20
-4.9054895433806571
30
0
10
64.785830869207132
20
-4.2768491308064558
30
0
10
63.683257200539181
20
-3.9105701302152389
30
0
0
SPLINE
5
265
100
AcDbEntity
8
0
100
AcDbSpline
70
0
71
3
72
8
73
4
74
0
42
0.000000001
43
0.0000000001
44
0.0000000001
40
0
40
0
40
0
40
0
40
1
40
1
40
1
40
1
10
-52.379596574674387
20
-43.928606938476051
30
0
10
-50.340846706220276
20
-43.403436863891905
30
0
10
-48.834689354926127
20
-42.786311309916123
30
0
10
-47.796053671929037
20
-42.265672357167574
30
0
0
ARC
5
266
100
AcDbEntity
8
0
100
AcDbCircle
10
-54.968489043134213
20
-29.970212469671061
30
0
40
0.39999999999998914
210
-0
220
0
230
1
100
AcDbArc
50
-51.449135899783975
51
28.600346534035818
0
SPLINE
5
267
100
AcDbEntity
8
0
100
AcDbSpline
70
0
71
3
72
8
73
4
74
0
42
0.000000001
43
0.0000000001
44
0.0000000001
40
0
40
0
40
0
40
0
40
1
40
1
40
1
40
1
10
14.813486371396197
20
66.73758511067976
30
0
10
13.515740638316174
20
65.07982739447597
30
0
10
12.696507906779004
20
63.673338273364337
30
0
10
12.189447731200385
20
62.628006278514896
30
0
0
SPLINE
5
268
100
AcDbEntity
8
0
100
AcDbSpline
70
0
71
3
72
8
73
4
74
0
42
0.000000001
43
0.0000000001
44
0.0000000001
40
0
40
0
40
0
40
0
40
1
40
1
40
1
40
1
10
-68.297569439854342
20
-2.9642289872816683
30
0
10
-66.360417136621507
20
-3.7886958377008062
30
0
10
-64.789819936851956
20
-4.2159877195607676
30
0
10
-63.648869935527806
20
-4.4352184099127498
30
0
0
SPLINE
5
269
100
AcDbEntity
8
0
100
AcDbSpline
70
0
71
3
72
8
73
4
74
0
42
0.000000001
43
0.0000000001
44
0.0000000001
40
0
40
0
40
0
40
0
40
1
40
1
40
1
40
1
10
-32.246704659638596
20
-53.58547992028798
30
0
10
-32.369139228599579
20
-53.896937769828668
30
0
10
-32.511504191563517
20
-54.303251743726165
30
0
10
-32.656658998618205
20
-54.812338295873971
30
0
0
SPLINE
5
270
100
AcDbEntity
8
0
100
AcDbSpline
70
0
71
3
72
8
73
4
74
0
42
0.000000001
43
0.0000000001
44
0.0000000001
40
0
40
0
40
0
40
0
40
1
40
1
40
1
40
1
10
-44.492487861017025
20
45.73038738465506
30
0
10
-45.489163077437198
20
46.327436389417457
30
0
10
-46.94480950856817
20
47.05575457796072
30
0
10
-48.93844398480725
20
47.732309238362404
30
0
0
SPLINE
5
271
100
AcDbEntity
8
0
100
AcDbSpline
70
0
71
3
72
8
73
4
74
0
42
0.000000001
43
0.0000000001
44
0.0000000001
40
0
40
0
40
0
40
0
40
1
40
1
40
1
40
1
10
60.692519760521463
20
15.088792689021007
30
0
10
60.99932803194946
20
15.222452332521033
30
0
10
61.387302628898354
20
15.409092468039665
30
0
10
61.8499211305232
20
15.666431072884041
30
0
0
SPLINE
5
272
100
AcDbEntity
8
0
100
AcDbSpline
70
0
71
3
72
8
73
4
74
0
42
0.000000001
43
0.0000000001
44
0.0000000001
40
0
40
0
40
0
40
0
40
1
40
1
40
1
40
1
10
-42.265672357167574
20
47.796053671929037
30
0
10
-42.028521009200233
20
47.322769112973226
30
0
10
-41.813192434495001
20
46.949952223630042
30
0
10
-41.635059335535104
20
46.666641767112502
30
0
0
SPLINE
5
273
100
AcDbEntity
8
0
100
AcDbSpline
70
0
71
3
72
8
73
4
74
0
42
0.000000001
43
0.0000000001
44
0.0000000001
40
0
40
0
40
0
40
0
40
1
40
1
40
1
40
1
10
-24.976520978758323
20
-57.336088282086344
30
0
10
-25.057254695871588
20
-57.660862484630535
30
0
10
-25.145367090983235
20
-58.082282742676803
30
0
10
-25.222830949378981
20
-58.605960493045536
30
0
0
SPLINE
5
274
100
AcDbEntity
8
0
100
AcDbSpline
70
0
71
3
72
8
73
4
74
0
42
0.000000001
43
0.0000000001
44
0.0000000001
40
0
40
0
40
0
40
0
40
1
40
1
40
1
40
1
10
35.22828167631662
20
53.196033466297649
30
0
10
34.832503183062997
20
52.844467796945949
30
0
10
34.528120857258131
20
52.539984254202309
30
0
10
34.300568209024135
20
52.294594751576618
30
0
0
ARC
5
275
100
AcDbEntity
8
0
100
AcDbCircle
10
19.243300974331923
20
59.577208652081609
30
0
40
0.39999999999999025
210
0
220
0
230
1
100
AcDbArc
50
252.09965346590869
51
332.1491358997921
0
ARC
5
276
100
AcDbEntity
8
0
100
AcDbCircle
10
1.5292791660147858
20
62.589214153836359
30
0
40
0.40000000000000069
210
0
220
0
230
1
100
AcDbArc
50
188.55086410022304
51
268.60034653409105
0
SPLINE
5
277
100
AcDbEntity
8
0
100
AcDbSpline
70
0
71
3
72
8
73
4
74
0
42
0.000000001
43
0.0000000001
44
0.0000000001
40
0
40
0
40
0
40
0
40
1
40
1
40
1
40
1
10
63.365666074854062
20
7.4593678890001662
30
0
10
64.446074326105418
20
7.8866230958051418
30
0
10
65.910029395327811
20
8.5980930329952177
30
0
10
67.660424067723454
20
9.7678892221706981
30
0
0
ARC
5
278
100
AcDbEntity
8
0
100
AcDbCircle
10
7.9991007475577908e-14
20
-3.2089163080866097e-13
30
0
40
68.361865428620121
210
0
220
-0
230
1
100
AcDbArc
50
15.714826797374396
51
17.485173202626235
0
SPLINE
5
279
100
AcDbEntity
8
0
100
AcDbSpline
70
0
71
3
72
8
73
4
74
0
42
0.000000001
43
0.0000000001
44
0.0000000001
40
0
40
0
40
0
40
0
40
1
40
1
40
1
40
1
10
-20.757631745935285
20
60.332168291165345
30
0
10
-20.719650628947445
20
59.8041564822623
30
0
10
-20.663383812870038
20
59.377315910769042
30
0
10
-20.607228506603199
20
59.047402592918424
30
0
0
SPLINE
5
280
100
AcDbEntity
8
0
100
AcDbSpline
70
0
71
3
72
8
73
4
74
0
42
0.000000001
43
0.0000000001
44
0.0000000001
40
0
40
0
40
0
40
0
40
1
40
1
40
1
40
1
10
-58.203804185501859
20
-22.88166947644568
30
0
10
-58.490541585316564
20
-23.0542321585779
30
0
10
-58.850835579600435
20
-23.289916408681801
30
0
10
-59.275906887611271
20
-23.60543727755557
30
0
0
SPLINE
5
281
100
AcDbEntity
8
0
100
AcDbSpline
70
0
71
3
72
8
73
4
74
0
42
0.000000001
43
0.0000000001
44
0.0000000001
40
0
40
0
40
0
40
0
40
1
40
1
40
1
40
1
10
-25.222830949378981
20
-58.605960493045536
30
0
10
-25.393021212012346
20
-59.755249088489919
30
0
10
-25.508847706988075
20
-61.378806337030667
30
0
10
-25.370971826109624
20
-63.479590684561956
30
0
0
SPLINE
5
282
100
AcDbEntity
8
0
100
AcDbSpline
70
0
71
3
72
8
73
4
74
0
42
0.000000001
43
0.0000000001
44
0.0000000001
40
0
40
0
40
0
40
0
40
1
40
1
40
1
40
1
10
-9.1950450940023014
20
-63.137159835810081
30
0
10
-9.0619784872426763
20
-64.291335853269871
30
0
10
-8.7536507533716144
20
-65.889549832921318
30
0
10
-8.0767498804144786
20
-67.883066785833975
30
0
0
ARC
5
283
100
AcDbEntity
8
0
100
AcDbCircle
10
1.1677045596508742e-14
20
8.3358542490479387e-14
30
0
40
68.361865428620135
210
-0
220
0
230
1
100
AcDbArc
50
353.21482679737403
51
354.98517320262596
0
ARC
5
284
100
AcDbEntity
8
0
100
AcDbCircle
10
-14.722110398953667
20
60.852344971770982
30
0
40
0.39999999999998986
210
0
220
0
230
1
100
AcDbArc
50
203.55086410021579
51
283.60034653406171
0
SPLINE
5
285
100
AcDbEntity
8
0
100
AcDbSpline
70
0
71
3
72
8
73
4
74
0
42
0.000000001
43
0.0000000001
44
0.0000000001
40
0
40
0
40
0
40
0
40
1
40
1
40
1
40
1
10
-7.4593678890001458
20
63.365666074854062
30
0
10
-7.8866230958051329
20
64.446074326105418
30
0
10
-8.598093032995207
20
65.910029395327811
30
0
10
-9.7678892221706786
20
67.660424067723454
30
0
0
ARC
5
286
100
AcDbEntity
8
0
100
AcDbCircle
10
-17.67645088307254
20
-60.060731824884684
30
0
40
0.39999999999999031
210
-0
220
0
230
1
100
AcDbArc
50
-6.4491358997836219
51
73.60034653408907
0
SPLINE
5
287
100
AcDbEntity
8
0
100
AcDbSpline
70
0
71
3
72
8
73
4
74
0
42
0.000000001
43
0.0000000001
44
0.0000000001
40
0
40
0
40
0
40
0
40
1
40
1
40
1
40
1
10
54.719205383725054
20
30.283034555131113
30
0
10
54.980965755516976
20
30.491547680560927
30
0
10
55.307414417001283
20
30.772243422386762
30
0
10
55.687665443466003
20
31.140547905744501
30
0
0
SPLINE
5
288
100
AcDbEntity
8
0
100
AcDbSpline
70
0
71
3
72
8
73
4
74
0
42
0.000000001
43
0.0000000001
44
0.0000000001
40
0
40
0
40
0
40
0
40
1
40
1
40
1
40
1
10
-35.665446782080735
20
52.903929081382266
30
0
10
-35.492100328087702
20
52.403739075007927
30
0
10
-35.327276288150536
20
52.00600566690273
30
0
10
-35.187646577651542
20
51.701867935499529
30
0
0
ARC
5
289
100
AcDbEntity
8
0
100
AcDbCircle
10
3.2896326602195381e-12
20
-9.7952996933066155e-13
30
0
40
62.207894255932068
210
-0
220
0
230
1
100
AcDbArc
50
349.59966312991958
51
351.10033687008126
0
ARC
5
290
100
AcDbEntity
8
0
100
AcDbCircle
10
1.0456815913710722e-13
20
1.6926313676539691e-14
30
0
40
68.361865428620121
210
0
220
0
230
1
100
AcDbArc
50
98.214826797374215
51
99.985173202625916
0
SPLINE
5
291
100
AcDbEntity
8
0
100
AcDbSpline
70
0
71
3
72
8
73
4
74
0
42
0.000000001
43
0.0000000001
44
0.0000000001
40
0
40
0
40
0
40
0
40
1
40
1
40
1
40
1
10
38.142835125475088
20
-51.146592604045374
30
0
10
39.05305311409299
20
-51.868625992684784
30
0
10
40.401181688339733
20
-52.780713304035423
30
0
10
42.289452241613724
20
-53.711701462391197
30
0
0
SPLINE
5
292
100
AcDbEntity
8
0
100
AcDbSpline
70
0
71
3
72
8
73
4
74
0
42
0.000000001
43
0.0000000001
44
0.0000000001
40
0
40
0
40
0
40
0
40
1
40
1
40
1
40
1
10
32.656658998618099
20
54.812338295873971
30
0
10
32.975405524087151
20
55.929580281128452
30
0
10
33.302157852845056
20
57.52412938099296
30
0
10
33.439668900799475
20
59.624937640937404
30
0
0
ARC
5
293
100
AcDbEntity
8
0
100
AcDbCircle
10
8.9356203180721526e-14
20
-1.1509515764167328e-14
30
0
40
68.361865428620121
210
0
220
0
230
1
100
AcDbArc
50
263.21482679737403
51
264.98517320262596
0
ARC
5
294
100
AcDbEntity
8
0
100
AcDbCircle
10
58.980356889336043
20
21.00156956917607
30
0
40
0.39999999999998659
210
0
220
0
230
1
100
AcDbArc
50
199.59965346590849
51
279.64913589978261
0
ARC
5
295
100
AcDbEntity
8
0
100
AcDbCircle
10
-48.724395944693114
20
39.315158183417857
30
0
40
0.40000000000001862
210
0
220
0
230
1
100
AcDbArc
50
241.05086410021318
51
321.10034653406768
0
ARC
5
296
100
AcDbEntity
8
0
100
AcDbCircle
10
2.9134557985197958e-12
20
2.4357957044455946e-14
30
0
40
62.207894255932594
210
0
220
-0
230
1
100
AcDbArc
50
4.5996631299193345
51
6.1003368700810343
0
SPLINE
5
297
100
AcDbEntity
8
0
100
AcDbSpline
70
0
71
3
72
8
73
4
74
0
42
0.000000001
43
0.0000000001
44
0.0000000001
40
0
40
0
40
0
40
0
40
1
40
1
40
1
40
1
10
-12.705119133372287
20
62.525432859118879
30
0
10
-12.736382320968753
20
61.996980733860426
30
0
10
-12.736310749784966
20
61.566447549376811
30
0
10
-12.723698189089596
20
61.232026947395013
30
0
0
ARC
5
298
100
AcDbEntity
8
0
100
AcDbCircle
10
59.577208652081609
20
-19.243300974331923
30
0
40
0.39999999999999325
210
0
220
0
230
1
100
AcDbArc
50
162.09965346590806
51
242.14913589978261
0
ARC
5
299
100
AcDbEntity
8
0
100
AcDbCircle
10
58.410123712990071
20
22.538985580446756
30
0
40
0.39999999999994545
210
0
220
0
230
1
100
AcDbArc
50
121.05086410020901
51
201.10034653409022
0
ARC
5
300
100
AcDbEntity
8
0
100
AcDbCircle
10
-35.551198089377593
20
51.53504378160779
30
0
40
0.39999999999998953
210
-0
220
0
230
1
100
AcDbArc
50
-55.400346534091064
51
24.649135899783438
0
SPLINE
5
301
100
AcDbEntity
8
0
100
AcDbSpline
70
0
71
3
72
8
73
4
74
0
42
0.000000001
43
0.0000000001
44
0.0000000001
40
0
40
0
40
0
40
0
40
1
40
1
40
1
40
1
10
67.326364742886426
20
11.853491274244458
30
0
10
65.298170527550937
20
12.418055582574262
30
0
10
63.685237222245604
20
12.636687851153726
30
0
10
62.525432859118879
20
12.705119133372287
30
0
0
SPLINE
5
302
100
AcDbEntity
8
0
100
AcDbSpline
70
0
71
3
72
8
73
4
74
0
42
0.000000001
43
0.0000000001
44
0.0000000001
40
0
40
0
40
0
40
0
40
1
40
1
40
1
40
1
10
-63.365666074854062
20
-7.4593678890001458
30
0
10
-64.446074326105418
20
-7.8866230958051329
30
0
10
-65.910029395327825
20
-8.5980930329951963
30
0
10
-67.660424067723454
20
-9.7678892221706786
30
0
0
ARC
5
303
100
AcDbEntity
8
0
100
AcDbCircle
10
-2.1388024331519032e-12
20
4.644622179935618e-13
30
0
40
62.207894255933319
210
0
220
0
230
1
100
AcDbArc
50
169.59966312991924
51
171.10033687008098
0
SPLINE
5
304
100
AcDbEntity
8
0
100
AcDbSpline
70
0
71
3
72
8
73
4
74
0
42
0.000000001
43
0.0000000001
44
0.0000000001
40
0
40
0
40
0
40
0
40
1
40
1
40
1
40
1
10
-3.9105701302152389
20
-63.683257200539181
30
0
10
-3.743598735461886
20
-63.180903153155434
30
0
10
-3.6322376802237555
20
-62.765021507202647
30
0
10
-3.5578660574674945
20
-62.438731639989847
30
0
0
SPLINE
5
305
100
AcDbEntity
8
0
100
AcDbSpline
70
0
71
3
72
8
73
4
74
0
42
0.000000001
43
0.0000000001
44
0.0000000001
40
0
40
0
40
0
40
0
40
1
40
1
40
1
40
1
10
66.73758511067976
20
-14.813486371396197
30
0
10
65.07982739447597
20
-13.515740638316174
30
0
10
63.673338273364337
20
-12.696507906779004
30
0
10
62.628006278514896
20
-12.189447731200385
30
0
0
ARC
5
306
100
AcDbEntity
8
0
100
AcDbCircle
10
-53.439209877119481
20
32.619001684165212
30
0
40
0.39999999999998936
210
0
220
0
230
1
100
AcDbArc
50
248.5508641002163
51
328.60034653409218
0
SPLINE
5
307
100
AcDbEntity
8
0
100
AcDbSpline
70
0
71
3
72
8
73
4
74
0
42
0.000000001
43
0.0000000001
44
0.0000000001
40
0
40
0
40
0
40
0
40
1
40
1
40
1
40
1
10
1.1337254634369871
20
62.529739214769606
30
0
10
1.0840279856882526
20
62.8606869091604
30
0
10
1.0041626732750941
20
63.283747613950283
30
0
10
0.8753271475919886
20
63.797206904362611
30
0
0
ARC
5
308
100
AcDbEntity
8
0
100
AcDbCircle
10
-5.8635441319494647e-16
20
2.0991812415847442e-14
30
0
40
68.361865428620192
210
0
220
0
230
1
100
AcDbArc
50
225.71482679737406
51
227.48517320262593
0
ARC
5
309
100
AcDbEntity
8
0
100
AcDbCircle
10
-1.529279166014796
20
-62.589214153836359
30
0
40
0.39999999999998986
210
0
220
-0
230
1
100
AcDbArc
50
8.5508641002159784
51
88.600346534091273
0
SPLINE
5
310
100
AcDbEntity
8
0
100
AcDbSpline
70
0
71
3
72
8
73
4
74
0
42
0.000000001
43
0.0000000001
44
0.0000000001
40
0
40
0
40
0
40
0
40
1
40
1
40
1
40
1
10
-22.88166947644568
20
58.203804185501859
30
0
10
-23.054232158577999
20
58.490541585316443
30
0
10
-23.289916408681897
20
58.850835579600428
30
0
10
-23.605437277555566
20
59.275906887611157
30
0
0
SPLINE
5
311
100
AcDbEntity
8
0
100
AcDbSpline
70
0
71
3
72
8
73
4
74
0
42
0.000000001
43
0.0000000001
44
0.0000000001
40
0
40
0
40
0
40
0
40
1
40
1
40
1
40
1
10
-23.605437277555566
20
59.275906887611157
30
0
10
-24.297764348134692
20
60.208919335790306
30
0
10
-25.363890988183989
20
61.438849375916348
30
0
10
-26.946862816465082
20
62.826835263535074
30
0
0
ARC
5
312
100
AcDbEntity
8
0
100
AcDbCircle
10
11.302285678415348
20
61.57927217502565
30
0
40
0.39999999999999486
210
0
220
0
230
1
100
AcDbArc
50
259.59965346589473
51
339.64913589977118
0
SPLINE
5
313
100
AcDbEntity
8
0
100
AcDbSpline
70
0
71
3
72
8
73
4
74
0
42
0.000000001
43
0.0000000001
44
0.0000000001
40
0
40
0
40
0
40
0
40
1
40
1
40
1
40
1
10
-35.22828167631662
20
-53.196033466297649
30
0
10
-34.832503183062997
20
-52.844467796945949
30
0
10
-34.528120857258131
20
-52.539984254202217
30
0
10
-34.300568209024135
20
-52.294594751576618
30
0
0
SPLINE
5
314
100
AcDbEntity
8
0
100
AcDbSpline
70
0
71
3
72
8
73
4
74
0
42
0.000000001
43
0.0000000001
44
0.0000000001
40
0
40
0
40
0
40
0
40
1
40
1
40
1
40
1
10
-31.581687114307027
20
-60.62954464528643
30
0
10
-29.899101725649544
20
-59.364154964896812
30
0
10
-28.743757501243202
20
-58.217623831713667
30
0
10
-27.983423153447053
20
-57.339147491295051
30
0
0
ARC
5
315
100
AcDbEntity
8
0
100
AcDbCircle
10
-62.253365736627408
20
-6.6533358267942209
30
0
40
0.39999999999999136
210
-0
220
0
230
1
100
AcDbArc
50
-73.949135899782732
51
6.1003465340719512
0
ARC
5
316
100
AcDbEntity
8
0
100
AcDbCircle
10
-3.5204158257192838e-14
20
-2.8994262215178398e-14
30
0
40
68.361865428620106
210
0
220
0
230
1
100
AcDbArc
50
128.21482679737403
51
129.98517320262584
0
ARC
5
317
100
AcDbEntity
8
0
100
AcDbCircle
10
-52.566631712461231
20
34.00731764736615
30
0
40
0.39999999999999147
210
-0
220
0
230
1
100
AcDbArc
50
-32.900346534091959
51
47.149135899783566
0
ARC
5
318
100
AcDbEntity
8
0
100
AcDbCircle
10
6.9972708052824793e-15
20
1.9545147106498215e-16
30
0
40
68.361865428620106
210
0
220
0
230
1
100
AcDbArc
50
135.71482679737403
51
137.48517320262593
0
ARC
5
319
100
AcDbEntity
8
0
100
AcDbCircle
10
-9.9863409358395651e-13
20
-2.9280250933234412e-12
30
0
40
62.207894255932345
210
0
220
0
230
1
100
AcDbArc
50
252.09966312991921
51
253.60033687008101
0
ARC
5
320
100
AcDbEntity
8
0
100
AcDbCircle
10
1.0119583613777899e-12
20
2.5942670014548579e-12
30
0
40
62.207894255932672
210
0
220
-0
230
1
100
AcDbArc
50
64.599663129919037
51
66.100336870080753
0
SPLINE
5
321
100
AcDbEntity
8
0
100
AcDbSpline
70
0
71
3
72
8
73
4
74
0
42
0.000000001
43
0.0000000001
44
0.0000000001
40
0
40
0
40
0
40
0
40
1
40
1
40
1
40
1
10
-23.397757804410301
20
-64.2330878489188
30
0
10
-21.894733663658933
20
-62.758902288794509
30
0
10
-20.898925912329478
20
-61.471377206079836
30
0
10
-20.259760501951302
20
-60.501172805301323
30
0
0
SPLINE
5
322
100
AcDbEntity
8
0
100
AcDbSpline
70
0
71
3
72
8
73
4
74
0
42
0.000000001
43
0.0000000001
44
0.0000000001
40
0
40
0
40
0
40
0
40
1
40
1
40
1
40
1
10
5.9757520794930521
20
68.10018378804277
30
0
10
4.9054895433806571
20
66.287218609900961
30
0
10
4.2768491308064558
20
64.785830869207132
30
0
10
3.9105701302152491
20
63.683257200539181
30
0
0
ARC
5
323
100
AcDbEntity
8
0
100
AcDbCircle
10
-1.6071879788350119e-12
20
1.8108306935459845e-12
30
0
40
62.207894255933084
210
0
220
0
230
1
100
AcDbArc
50
124.59966312991887
51
126.10033687008001
0
SPLINE
5
324
100
AcDbEntity
8
0
100
AcDbSpline
70
0
71
3
72
8
73
4
74
0
42
0.000000001
43
0.0000000001
44
0.0000000001
40
0
40
0
40
0
40
0
40
1
40
1
40
1
40
1
10
-43.413537661389796
20
45.016867587790166
30
0
10
-43.682694443835572
20
45.215741523187994
30
0
10
-44.038316841034955
20
45.458417312409466
30
0
10
-44.492487861017025
20
45.73038738465506
30
0
0
ARC
5
325
100
AcDbEntity
8
0
100
AcDbCircle
10
-1.8049939123975144e-13
20
8.6994078890917344e-14
30
0
40
68.361865428620106
210
0
220
-0
230
1
100
AcDbArc
50
60.714826797373902
51
62.485173202625745
0
SPLINE
5
326
100
AcDbEntity
8
0
100
AcDbSpline
70
0
71
3
72
8
73
4
74
0
42
0.000000001
43
0.0000000001
44
0.0000000001
40
0
40
0
40
0
40
0
40
1
40
1
40
1
40
1
10
-37.166248516534836
20
50.298345806802772
30
0
10
-37.407144367875304
20
50.530650358037008
30
0
10
-37.728048819457008
20
50.817668059615066
30
0
10
-38.142835125475088
20
51.146592604045374
30
0
0
ARC
5
327
100
AcDbEntity
8
0
100
AcDbCircle
10
-32.619001684165319
20
-53.439209877119396
30
0
40
0.39999999999998936
210
-0
220
0
230
1
100
AcDbArc
50
-21.449135899784267
51
58.600346534045322
0
ARC
5
328
100
AcDbEntity
8
0
100
AcDbCircle
10
-40.577702605849467
20
-47.678071210920699
30
0
40
0.39999999999998975
210
0
220
-0
230
1
100
AcDbArc
50
49.599653465908375
51
129.64913589979929
0
SPLINE
5
329
100
AcDbEntity
8
0
100
AcDbSpline
70
0
71
3
72
8
73
4
74
0
42
0.000000001
43
0.0000000001
44
0.0000000001
40
0
40
0
40
0
40
0
40
1
40
1
40
1
40
1
10
-41.870374532579632
20
-48.142720559964971
30
0
10
-41.432093451065164
20
-47.845822043337861
30
0
10
-41.090572080825034
20
-47.583673265478062
30
0
10
-40.832936419652924
20
-47.370084684768443
30
0
0
SPLINE
5
330
100
AcDbEntity
8
0
100
AcDbSpline
70
0
71
3
72
8
73
4
74
0
42
0.000000001
43
0.0000000001
44
0.0000000001
40
0
40
0
40
0
40
0
40
1
40
1
40
1
40
1
10
-63.648869935527806
20
-4.4352184099127498
30
0
10
-63.129019456291957
20
-4.5351909802860391
30
0
10
-62.702160200970532
20
-4.5913158785986266
30
0
10
-62.368954344076421
20
-4.622461867885078
30
0
0
ARC
5
331
100
AcDbEntity
8
0
100
AcDbCircle
10
2.9137234136869171e-12
20
-9.8802928526064252e-13
30
0
40
62.207894255932352
210
-0
220
0
230
1
100
AcDbArc
50
342.09966312991924
51
343.60033687008098
0
SPLINE
5
332
100
AcDbEntity
8
0
100
AcDbSpline
70
0
71
3
72
8
73
4
74
0
42
0.000000001
43
0.0000000001
44
0.0000000001
40
0
40
0
40
0
40
0
40
1
40
1
40
1
40
1
10
-54.812338295873971
20
32.656658998618099
30
0
10
-55.929580281128452
20
32.975405524087151
30
0
10
-57.52412938099296
20
33.302157852845056
30
0
10
-59.624937640937404
20
33.439668900799475
30
0
0
SPLINE
5
333
100
AcDbEntity
8
0
100
AcDbSpline
70
0
71
3
72
8
73
4
74
0
42
0.000000001
43
0.0000000001
44
0.0000000001
40
0
40
0
40
0
40
0
40
1
40
1
40
1
40
1
10
-57.665315658004779
20
-36.715882325547319
30
0
10
-55.575459127196041
20
-36.46131541097207
30
0
10
-54.001636112152909
20
-36.04606243560886
30
0
10
-52.903929081382266
20
-35.665446782080735
30
0
0
ARC
5
334
100
AcDbEntity
8
0
100
AcDbCircle
10
32.619001684165312
20
53.439209877119481
30
0
40
0.39999999999998648
210
0
220
0
230
1
100
AcDbArc
50
158.55086410021727
51
238.60034653411589
0
ARC
5
335
100
AcDbEntity
8
0
100
AcDbCircle
10
-60.060731824884684
20
17.67645088307264
30
0
40
0.40000000000004926
210
0
220
0
230
1
100
AcDbArc
50
263.55086410021113
51
343.60034653407382
0
SPLINE
5
336
100
AcDbEntity
8
0
100
AcDbSpline
70
0
71
3
72
8
73
4
74
0
42
0.000000001
43
0.0000000001
44
0.0000000001
40
0
40
0
40
0
40
0
40
1
40
1
40
1
40
1
10
61.964365202580694
20
28.874938786462767
30
0
10
59.859160034077227
20
28.895330742383937
30
0
10
58.244599903418639
20
28.689055439171746
30
0
10
57.106603596512883
20
28.454975524222572
30
0
0
SPLINE
5
337
100
AcDbEntity
8
0
100
AcDbSpline
70
0
71
3
72
8
73
4
74
0
42
0.000000001
43
0.0000000001
44
0.0000000001
40
0
40
0
40
0
40
0
40
1
40
1
40
1
40
1
10
-5.9757520794930414
20
-68.10018378804277
30
0
10
-4.9054895433806482
20
-66.287218609900961
30
0
10
-4.2768491308064558
20
-64.785830869207132
30
0
10
-3.9105701302152389
20
-63.683257200539181
30
0
0
SPLINE
5
338
100
AcDbEntity
8
0
100
AcDbSpline
70
0
71
3
72
8
73
4
74
0
42
0.000000001
43
0.0000000001
44
0.0000000001
40
0
40
0
40
0
40
0
40
1
40
1
40
1
40
1
10
62.525432859118879
20
12.705119133372287
30
0
10
61.996980733860426
20
12.736382320968753
30
0
10
61.566447549376811
20
12.736310749784966
30
0
10
61.232026947395013
20
12.723698189089596
30
0
0
ARC
5
339
100
AcDbEntity
8
0
100
AcDbCircle
10
61.85414376386462
20
-9.685727768296962
30
0
40
0.39999999999999036
210
0
220
0
230
1
100
AcDbArc
50
91.050864100217709
51
171.10034653409122
0
ARC
5
340
100
AcDbEntity
8
0
100
AcDbCircle
10
-28.52037963068895
20
55.734516853416636
30
0
40
0.40000000000001812
210
-0
220
0
230
1
100
AcDbArc
50
-62.900346534049582
51
17.149135899769913
0
ARC
5
341
100
AcDbEntity
8
0
100
AcDbCircle
10
17.67645088307254
20
60.060731824884684
30
0
40
0.39999999999999031
210
0
220
0
230
1
100
AcDbArc
50
173.55086410021636
51
253.60034653409025
0
ARC
5
342
100
AcDbEntity
8
0
100
AcDbCircle
10
-1.4291730727358774e-12
20
3.0662906463945477e-12
30
0
40
62.207894255932104
210
0
220
0
230
1
100
AcDbArc
50
117.09966312991901
51
118.60033687008101
0
SPLINE
5
343
100
AcDbEntity
8
0
100
AcDbSpline
70
0
71
3
72
8
73
4
74
0
42
0.000000001
43
0.0000000001
44
0.0000000001
40
0
40
0
40
0
40
0
40
1
40
1
40
1
40
1
10
-15.666431072884041
20
61.8499211305232
30
0
10
-16.231052627245006
20
62.865318344161658
30
0
10
-17.127520321260931
20
64.223883613043924
30
0
10
-18.515781093343683
20
65.806614374120031
30
0
0
SPLINE
5
344
100
AcDbEntity
8
0
100
AcDbSpline
70
0
71
3
72
8
73
4
74
0
42
0.000000001
43
0.0000000001
44
0.0000000001
40
0
40
0
40
0
40
0
40
1
40
1
40
1
40
1
10
-62.525432859118879
20
-12.705119133372287
30
0
10
-61.996980733860426
20
-12.736382320968753
30
0
10
-61.566447549376811
20
-12.736310749784966
30
0
10
-61.232026947395013
20
-12.723698189089596
30
0
0
ARC
5
345
100
AcDbEntity
8
0
100
AcDbCircle
10
1.764871444475941e-12
20
2.7153367718339119e-12
30
0
40
62.207894255932203
210
0
220
-0
230
1
100
AcDbArc
50
57.099663129919207
51
58.60033687008071
0
ARC
5
346
100
AcDbEntity
8
0
100
AcDbCircle
10
3.1678851409553941
20
62.527697278055214
30
0
40
0.39999999999999114
210
0
220
0
230
1
100
AcDbArc
50
267.09965346590894
51
347.14913589978283
0
ARC
5
347
100
AcDbEntity
8
0
100
AcDbCircle
10
9.7388407494212666e-13
20
3.1694281516661836e-12
30
0
40
62.20789425593221
210
0
220
-0
230
1
100
AcDbArc
50
79.599663129919605
51
81.10033687008108
0
ARC
5
348
100
AcDbEntity
8
0
100
AcDbCircle
10
-2.0124841671296486e-12
20
-2.2670757545905887e-12
30
0
40
62.207894255932388
210
0
220
0
230
1
100
AcDbArc
50
229.59966312991924
51
231.10033687008098
0
SPLINE
5
349
100
AcDbEntity
8
0
100
AcDbSpline
70
0
71
3
72
8
73
4
74
0
42
0.000000001
43
0.0000000001
44
0.0000000001
40
0
40
0
40
0
40
0
40
1
40
1
40
1
40
1
10
-27.983423153447053
20
-57.339147491295051
30
0
10
-27.636919128204255
20
-56.938930055293888
30
0
10
-27.37488391282
20
-56.597321545501416
30
0
10
-27.181307766424879
20
-56.324329803384614
30
0
0
SPLINE
5
350
100
AcDbEntity
8
0
100
AcDbSpline
70
0
71
3
72
8
73
4
74
0
42
0.000000001
43
0.0000000001
44
0.0000000001
40
0
40
0
40
0
40
0
40
1
40
1
40
1
40
1
10
-45.73038738465506
20
-44.492487861017025
30
0
10
-46.327436389417457
20
-45.489163077437198
30
0
10
-47.05575457796072
20
-46.94480950856817
30
0
10
-47.732309238362404
20
-48.93844398480725
30
0
0
SPLINE
5
351
100
AcDbEntity
8
0
100
AcDbSpline
70
0
71
3
72
8
73
4
74
0
42
0.000000001
43
0.0000000001
44
0.0000000001
40
0
40
0
40
0
40
0
40
1
40
1
40
1
40
1
10
58.203804185501859
20
22.88166947644568
30
0
10
58.490541585316443
20
23.054232158577999
30
0
10
58.850835579600428
20
23.289916408681897
30
0
10
59.275906887611157
20
23.605437277555566
30
0
0
ARC
5
352
100
AcDbEntity
8
0
100
AcDbCircle
10
-5.8178407022413672e-14
20
4.139170153949181e-14
30
0
40
68.361865428620106
210
0
220
0
230
1
100
AcDbArc
50
233.214826797374
51
234.98517320262599
0
ARC
5
353
100
AcDbEntity
8
0
100
AcDbCircle
10
7.8442694308901986e-13
20
2.4668642789898296e-12
30
0
40
62.207894255932857
210
0
220
-0
230
1
100
AcDbArc
50
72.099663129919179
51
73.600336870080895
0
SPLINE
5
354
100
AcDbEntity
8
0
100
AcDbSpline
70
0
71
3
72
8
73
4
74
0
42
0.000000001
43
0.0000000001
44
0.0000000001
40
0
40
0
40
0
40
0
40
1
40
1
40
1
40
1
10
-17.278982099131653
20
-60.105660276811179
30
0
10
-17.316633588113774
20
-60.438193855708917
30
0
10
-17.348985787863398
20
-60.86750978044914
30
0
10
-17.357433269506085
20
-61.396818457538998
30
0
0
SPLINE
5
355
100
AcDbEntity
8
0
100
AcDbSpline
70
0
71
3
72
8
73
4
74
0
42
0.000000001
43
0.0000000001
44
0.0000000001
40
0
40
0
40
0
40
0
40
1
40
1
40
1
40
1
10
-54.719205383725054
20
-30.283034555131113
30
0
10
-54.980965755516976
20
-30.491547680560927
30
0
10
-55.307414417001283
20
-30.772243422386762
30
0
10
-55.687665443466003
20
-31.140547905744501
30
0
0
SPLINE
5
356
100
AcDbEntity
8
0
100
AcDbSpline
70
0
71
3
72
8
73
4
74
0
42
0.000000001
43
0.0000000001
44
0.0000000001
40
0
40
0
40
0
40
0
40
1
40
1
40
1
40
1
10
23.397757804410301
20
64.2330878489188
30
0
10
21.894733663658933
20
62.758902288794509
30
0
10
20.898925912329478
20
61.471377206079836
30
0
10
20.259760501951302
20
60.501172805301323
30
0
0
SPLINE
5
357
100
AcDbEntity
8
0
100
AcDbSpline
70
0
71
3
72
8
73
4
74
0
42
0.000000001
43
0.0000000001
44
0.0000000001
40
0
40
0
40
0
40
0
40
1
40
1
40
1
40
1
10
-48.142720559964964
20
41.870374532579518
30
0
10
-47.845822043337861
20
41.432093451065164
30
0
10
-47.583673265478062
20
41.090572080825034
30
0
10
-47.370084684768436
20
40.832936419652825
30
0
0
SPLINE
5
358
100
AcDbEntity
8
0
100
AcDbSpline
70
0
71
3
72
8
73
4
74
0
42
0.000000001
43
0.0000000001
44
0.0000000001
40
0
40
0
40
0
40
0
40
1
40
1
40
1
40
1
10
-28.874938786462767
20
61.964365202580694
30
0
10
-28.895330742383937
20
59.859160034077227
30
0
10
-28.689055439171746
20
58.244599903418639
30
0
10
-28.454975524222572
20
57.106603596512883
30
0
0
SPLINE
5
359
100
AcDbEntity
8
0
100
AcDbSpline
70
0
71
3
72
8
73
4
74
0
42
0.000000001
43
0.0000000001
44
0.0000000001
40
0
40
0
40
0
40
0
40
1
40
1
40
1
40
1
10
-31.140547905744405
20
55.687665443466003
30
0
10
-31.948734584414836
20
56.522329024517362
30
0
10
-33.166278448100144
20
57.60257939189966
30
0
10
-34.916876245715038
20
58.772071582701493
30
0
0
ARC
5
360
100
AcDbEntity
8
0
100
AcDbCircle
10
1.4313528769807168e-13
20
2.7190566910999834e-12
30
0
40
62.207894255932771
210
0
220
-0
230
1
100
AcDbArc
50
87.099663129919193
51
88.600336870080866
0
SPLINE
5
361
100
AcDbEntity
8
0
100
AcDbSpline
70
0
71
3
72
8
73
4
74
0
42
0.000000001
43
0.0000000001
44
0.0000000001
40
0
40
0
40
0
40
0
40
1
40
1
40
1
40
1
10
60.62954464528643
20
-31.581687114307027
30
0
10
59.364154964896812
20
-29.899101725649544
30
0
10
58.217623831713667
20
-28.743757501243202
30
0
10
57.339147491295051
20
-27.983423153447053
30
0
0
ARC
5
362
100
AcDbEntity
8
0
100
AcDbCircle
10
-1.1425750847996623e-14
20
-9.2355033525842589e-14
30
0
40
68.361865428620135
210
0
220
0
230
1
100
AcDbArc
50
173.21482679737406
51
174.9851732026259
0
SPLINE
5
363
100
AcDbEntity
8
0
100
AcDbSpline
70
0
71
3
72
8
73
4
74
0
42
0.000000001
43
0.0000000001
44
0.0000000001
40
0
40
0
40
0
40
0
40
1
40
1
40
1
40
1
10
61.846807759762406
20
-9.2857950451499551
30
0
10
62.181410973283249
20
-9.2797200785855871
30
0
10
62.611276850215958
20
-9.2557585278656447
30
0
10
63.137159835810081
20
-9.1950450940023014
30
0
0
SPLINE
5
364
100
AcDbEntity
8
0
100
AcDbSpline
70
0
71
3
72
8
73
4
74
0
42
0.000000001
43
0.0000000001
44
0.0000000001
40
0
40
0
40
0
40
0
40
1
40
1
40
1
40
1
10
32.246704659638596
20
53.585479920288073
30
0
10
32.369139228599479
20
53.896937769828668
30
0
10
32.511504191563411
20
54.303251743726264
30
0
10
32.656658998618099
20
54.812338295873971
30
0
0
ARC
5
365
100
AcDbEntity
8
0
100
AcDbCircle
10
-1.7010078592710398e-14
20
1.0756698948222832e-13
30
0
40
68.361865428620135
210
0
220
0
230
1
100
AcDbArc
50
188.21482679737417
51
189.98517320262596
0
ARC
5
366
100
AcDbEntity
8
0
100
AcDbCircle
10
-3.2485650350740775e-13
20
6.1953628860152405e-14
30
0
40
68.361865428620135
210
0
220
-0
230
1
100
AcDbArc
50
75.714826797373775
51
77.485173202625603
0
SPLINE
5
367
100
AcDbEntity
8
0
100
AcDbSpline
70
0
71
3
72
8
73
4
74
0
42
0.000000001
43
0.0000000001
44
0.0000000001
40
0
40
0
40
0
40
0
40
1
40
1
40
1
40
1
10
0.8753271475919886
20
63.797206904362611
30
0
10
0.59274874338894534
20
64.924140108501987
30
0
10
0.07845001090674375
20
66.4684363009452
30
0
10
-0.85286605823588224
20
68.356545146514506
30
0
0
SPLINE
5
368
100
AcDbEntity
8
0
100
AcDbSpline
70
0
71
3
72
8
73
4
74
0
42
0.000000001
43
0.0000000001
44
0.0000000001
40
0
40
0
40
0
40
0
40
1
40
1
40
1
40
1
10
59.275906887611157
20
23.605437277555566
30
0
10
60.208919335790306
20
24.297764348134692
30
0
10
61.438849375916348
20
25.363890988183989
30
0
10
62.826835263535074
20
26.946862816465082
30
0
0
SPLINE
5
369
100
AcDbEntity
8
0
100
AcDbSpline
70
0
71
3
72
8
73
4
74
0
42
0.000000001
43
0.0000000001
44
0.0000000001
40
0
40
0
40
0
40
0
40
1
40
1
40
1
40
1
10
-0.87532714759199859
20
-63.797206904362611
30
0
10
-0.59274874338895533
20
-64.924140108501987
30
0
10
-0.078450010906753465
20
-66.4684363009452
30
0
10
0.85286605823587225
20
-68.356545146514506
30
0
0
SPLINE
5
370
100
AcDbEntity
8
0
100
AcDbSpline
70
0
71
3
72
8
73
4
74
0
42
0.000000001
43
0.0000000001
44
0.0000000001
40
0
40
0
40
0
40
0
40
1
40
1
40
1
40
1
10
63.648869935527806
20
4.4352184099127605
30
0
10
63.129019456291957
20
4.5351909802860488
30
0
10
62.702160200970532
20
4.5913158785986363
30
0
10
62.368954344076421
20
4.6224618678850877
30
0
0
SPLINE
5
371
100
AcDbEntity
8
0
100
AcDbSpline
70
0
71
3
72
8
73
4
74
0
42
0.000000001
43
0.0000000001
44
0.0000000001
40
0
40
0
40
0
40
0
40
1
40
1
40
1
40
1
10
-53.585479920288066
20
32.246704659638496
30
0
10
-53.896937769828668
20
32.369139228599479
30
0
10
-54.303251743726264
20
32.511504191563411
30
0
10
-54.812338295873971
20
32.656658998618099
30
0
0
ARC
5
372
100
AcDbEntity
8
0
100
AcDbCircle
10
9.685727768296962
20
61.85414376386462
30
0
40
0.39999999999999036
210
0
220
0
230
1
100
AcDbArc
50
181.05086410021627
51
261.10034653412072
0
ARC
5
373
100
AcDbEntity
8
0
100
AcDbCircle
10
-61.57927217502565
20
11.302285678415348
30
0
40
0.39999999999999153
210
-0
220
0
230
1
100
AcDbArc
50
-10.400346534090607
51
69.649135899771139
0
ARC
5
374
100
AcDbEntity
8
0
100
AcDbCircle
10
56.555762571177695
20
-26.855058055326818
30
0
40
0.39999999999999181
210
0
220
0
230
1
100
AcDbArc
50
154.59965346590872
51
234.64913589978343
0
SPLINE
5
375
100
AcDbEntity
8
0
100
AcDbSpline
70
0
71
3
72
8
73
4
74
0
42
0.000000001
43
0.0000000001
44
0.0000000001
40
0
40
0
40
0
40
0
40
1
40
1
40
1
40
1
10
17.278982099131653
20
60.105660276811179
30
0
10
17.316633588113877
20
60.438193855708917
30
0
10
17.348985787863398
20
60.86750978044914
30
0
10
17.357433269506085
20
61.396818457538998
30
0
0
SPLINE
5
376
100
AcDbEntity
8
0
100
AcDbSpline
70
0
71
3
72
8
73
4
74
0
42
0.000000001
43
0.0000000001
44
0.0000000001
40
0
40
0
40
0
40
0
40
1
40
1
40
1
40
1
10
9.2857950451499551
20
61.846807759762406
30
0
10
9.2797200785855871
20
62.181410973283249
30
0
10
9.2557585278656447
20
62.611276850215958
30
0
10
9.1950450940023014
20
63.137159835810081
30
0
0
ARC
5
377
100
AcDbEntity
8
0
100
AcDbCircle
10
-45.338621425931137
20
-43.175894088698342
30
0
40
0.39999999999998809
210
-0
220
0
230
1
100
AcDbArc
50
-36.449135899782618
51
43.600346534211724
0
SPLINE
5
378
100
AcDbEntity
8
0
100
AcDbSpline
70
0
71
3
72
8
73
4
74
0
42
0.000000001
43
0.0000000001
44
0.0000000001
40
0
40
0
40
0
40
0
40
1
40
1
40
1
40
1
10
-53.196033466297649
20
35.22828167631662
30
0
10
-52.844467796945949
20
34.832503183062997
30
0
10
-52.539984254202309
20
34.528120857258131
30
0
10
-52.294594751576618
20
34.300568209024135
30
0
0
SPLINE
5
379
100
AcDbEntity
8
0
100
AcDbSpline
70
0
71
3
72
8
73
4
74
0
42
0.000000001
43
0.0000000001
44
0.0000000001
40
0
40
0
40
0
40
0
40
1
40
1
40
1
40
1
10
-61.846807759762513
20
9.2857950451499516
30
0
10
-62.181410973283249
20
9.2797200785855871
30
0
10
-62.611276850215958
20
9.2557585278656447
30
0
10
-63.137159835810081
20
9.1950450940023014
30
0
0
SPLINE
5
380
100
AcDbEntity
8
0
100
AcDbSpline
70
0
71
3
72
8
73
4
74
0
42
0.000000001
43
0.0000000001
44
0.0000000001
40
0
40
0
40
0
40
0
40
1
40
1
40
1
40
1
10
-61.396818457538998
20
17.357433269506185
30
0
10
-62.558489016662392
20
17.376155266724563
30
0
10
-64.183274899221672
20
17.27907410447586
30
0
10
-66.248090331705981
20
16.86817038931288
30
0
0
SPLINE
5
381
100
AcDbEntity
8
0
100
AcDbSpline
70
0
71
3
72
8
73
4
74
0
42
0.000000001
43
0.0000000001
44
0.0000000001
40
0
40
0
40
0
40
0
40
1
40
1
40
1
40
1
10
20.539937039096309
20
-65.203187278772859
30
0
10
20.834938953494468
20
-63.118654116680794
30
0
10
20.841170750061629
20
-61.490982441883006
30
0
10
20.757631745935381
20
-60.332168291165345
30
0
0
SPLINE
5
382
100
AcDbEntity
8
0
100
AcDbSpline
70
0
71
3
72
8
73
4
74
0
42
0.000000001
43
0.0000000001
44
0.0000000001
40
0
40
0
40
0
40
0
40
1
40
1
40
1
40
1
10
-60.692519760521463
20
-15.088792689021007
30
0
10
-60.99932803194946
20
-15.222452332521033
30
0
10
-61.387302628898453
20
-15.409092468039669
30
0
10
-61.8499211305232
20
-15.666431072884041
30
0
0
ARC
5
383
100
AcDbEntity
8
0
100
AcDbCircle
10
-62.589214153836359
20
1.5292791660147858
30
0
40
0.39999999999999036
210
-0
220
0
230
1
100
AcDbArc
50
278.55086410021602
51
358.60034653409105
0
ARC
5
384
100
AcDbEntity
8
0
100
AcDbCircle
10
-55.734516853416636
20
-28.52037963068895
30
0
40
0.39999999999999614
210
0
220
-0
230
1
100
AcDbArc
50
27.099653465905366
51
107.14913589978467
0
SPLINE
5
385
100
AcDbEntity
8
0
100
AcDbSpline
70
0
71
3
72
8
73
4
74
0
42
0.000000001
43
0.0000000001
44
0.0000000001
40
0
40
0
40
0
40
0
40
1
40
1
40
1
40
1
10
-36.715882325547319
20
57.665315658004779
30
0
10
-36.461315410971963
20
55.575459127196041
30
0
10
-36.04606243560886
20
54.001636112152909
30
0
10
-35.665446782080735
20
52.903929081382266
30
0
0
ARC
5
386
100
AcDbEntity
8
0
100
AcDbCircle
10
1.7992982070726385e-14
20
5.0258949702424e-16
30
0
40
68.361865428620106
210
0
220
0
230
1
100
AcDbArc
50
113.214826797374
51
114.98517320262602
0
ARC
5
387
100
AcDbEntity
8
0
100
AcDbCircle
10
-1.0995711265443899e-14
20
-3.0713802595925773e-16
30
0
40
68.361865428620121
210
0
220
-0
230
1
100
AcDbArc
50
68.21482679737403
51
69.985173202625916
0
ARC
5
388
100
AcDbEntity
8
0
100
AcDbCircle
10
57.239664112400234
20
-25.364725022400716
30
0
40
0.39999999999994401
210
0
220
-0
230
1
100
AcDbArc
50
76.050864100214383
51
156.10034653408985
0
SPLINE
5
389
100
AcDbEntity
8
0
100
AcDbSpline
70
0
71
3
72
8
73
4
74
0
42
0.000000001
43
0.0000000001
44
0.0000000001
40
0
40
0
40
0
40
0
40
1
40
1
40
1
40
1
10
-7.0377424752834647
20
62.142769495293166
30
0
10
-7.1302121265935172
20
62.46439906374691
30
0
10
-7.2646146830617173
20
62.873415910440251
30
0
10
-7.4593678890001458
20
63.365666074854062
30
0
0
ARC
5
390
100
AcDbEntity
8
0
100
AcDbCircle
10
-47.678071210920699
20
40.577702605849467
30
0
40
0.39999999999991848
210
-0
220
0
230
1
100
AcDbArc
50
-40.400346534062685
51
39.649135899787659
0
SPLINE
5
391
100
AcDbEntity
8
0
100
AcDbSpline
70
0
71
3
72
8
73
4
74
0
42
0.000000001
43
0.0000000001
44
0.0000000001
40
0
40
0
40
0
40
0
40
1
40
1
40
1
40
1
10
68.297569439854342
20
2.9642289872816785
30
0
10
66.360417136621507
20
3.7886958377008169
30
0
10
64.789819936851956
20
4.2159877195607773
30
0
10
63.648869935527806
20
4.4352184099127605
30
0
0
ARC
5
392
100
AcDbEntity
8
0
100
AcDbCircle
10
-2.5050605327240552e-13
20
-9.5236585263956336e-13
30
0
40
62.207894255934505
210
0
220
0
230
1
100
AcDbArc
50
244.59966312991901
51
246.10033687008098
0
SPLINE
5
393
100
AcDbEntity
8
0
100
AcDbSpline
70
0
71
3
72
8
73
4
74
0
42
0.000000001
43
0.0000000001
44
0.0000000001
40
0
40
0
40
0
40
0
40
1
40
1
40
1
40
1
10
-61.964365202580815
20
-28.874938786462675
30
0
10
-59.859160034077227
20
-28.895330742383937
30
0
10
-58.244599903418724
20
-28.689055439171753
30
0
10
-57.106603596512883
20
-28.454975524222572
30
0
0
ARC
5
394
100
AcDbEntity
8
0
100
AcDbCircle
10
-2.5977864410766368e-12
20
-1.9062776834864273e-12
30
0
40
62.20789425593231
210
0
220
0
230
1
100
AcDbArc
50
214.59966312991912
51
216.10033687008095
0
ARC
5
395
100
AcDbEntity
8
0
100
AcDbCircle
10
39.315158183417857
20
48.724395944693114
30
0
40
0.39999999999996894
210
0
220
0
230
1
100
AcDbArc
50
151.05086410022517
51
231.10034653411026
0
ARC
5
396
100
AcDbEntity
8
0
100
AcDbCircle
10
50.58632828560598
20
36.888640714226696
30
0
40
0.39999999999999614
210
0
220
0
230
1
100
AcDbArc
50
136.05086410023014
51
216.10034653408542
0
SPLINE
5
397
100
AcDbEntity
8
0
100
AcDbSpline
70
0
71
3
72
8
73
4
74
0
42
0.000000001
43
0.0000000001
44
0.0000000001
40
0
40
0
40
0
40
0
40
1
40
1
40
1
40
1
10
57.665315658004779
20
36.715882325547319
30
0
10
55.575459127196041
20
36.46131541097207
30
0
10
54.001636112152909
20
36.04606243560886
30
0
10
52.903929081382266
20
35.665446782080735
30
0
0
ARC
5
398
100
AcDbEntity
8
0
100
AcDbCircle
10
1.6038278665475087e-12
20
2.1416164863218778e-12
30
0
40
62.207894255932807
210
0
220
-0
230
1
100
AcDbArc
50
49.599663129919016
51
51.100336870080632
0
SPLINE
5
399
100
AcDbEntity
8
0
100
AcDbSpline
70
0
71
3
72
8
73
4
74
0
42
0.000000001
43
0.0000000001
44
0.0000000001
40
0
40
0
40
0
40
0
40
1
40
1
40
1
40
1
10
46.197648071583544
20
50.389700907376771
30
0
10
44.244888440981612
20
49.60291347836452
30
0
10
42.8321675233028
20
48.794474535103987
30
0
10
41.870374532579518
20
48.142720559964964
30
0
0
SPLINE
5
400
100
AcDbEntity
8
0
100
AcDbSpline
70
0
71
3
72
8
73
4
74
0
42
0.000000001
43
0.0000000001
44
0.0000000001
40
0
40
0
40
0
40
0
40
1
40
1
40
1
40
1
10
52.903929081382266
20
35.665446782080735
30
0
10
52.403739075007927
20
35.492100328087702
30
0
10
52.00600566690273
20
35.327276288150536
30
0
10
51.701867935499529
20
35.187646577651542
30
0
0
SPLINE
5
401
100
AcDbEntity
8
0
100
AcDbSpline
70
0
71
3
72
8
73
4
74
0
42
0.000000001
43
0.0000000001
44
0.0000000001
40
0
40
0
40
0
40
0
40
1
40
1
40
1
40
1
10
51.146592604045374
20
38.142835125475088
30
0
10
51.868625992684784
20
39.05305311409299
30
0
10
52.780713304035423
20
40.401181688339733
30
0
10
53.711701462391197
20
42.289452241613724
30
0
0
ARC
5
402
100
AcDbEntity
8
0
100
AcDbCircle
10
1.9545147106498215e-16
20
-6.9972708052824793e-15
30
0
40
68.361865428620177
210
0
220
-0
230
1
100
AcDbArc
50
45.714826797374066
51
47.48517320262593
0
ARC
5
403
100
AcDbEntity
8
0
100
AcDbCircle
10
1.961581706593972e-13
20
1.0451780749498529e-13
30
0
40
68.361865428620135
210
0
220
0
230
1
100
AcDbArc
50
120.71482679737429
51
122.485173202626
0
SPLINE
5
404
100
AcDbEntity
8
0
100
AcDbSpline
70
0
71
3
72
8
73
4
74
0
42
0.000000001
43
0.0000000001
44
0.0000000001
40
0
40
0
40
0
40
0
40
1
40
1
40
1
40
1
10
43.413537661389796
20
-45.016867587790166
30
0
10
43.682694443835572
20
-45.215741523187994
30
0
10
44.038316841034955
20
-45.458417312409466
30
0
10
44.492487861017025
20
-45.73038738465506
30
0
0
ARC
5
405
100
AcDbEntity
8
0
100
AcDbCircle
10
52.566631712461131
20
-34.007317647366264
30
0
40
0.399999999999961
210
0
220
0
230
1
100
AcDbArc
50
147.09965346591628
51
227.14913589977962
0
ARC
5
406
100
AcDbEntity
8
0
100
AcDbCircle
10
48.724395944693114
20
-39.315158183417857
30
0
40
0.39999999999996894
210
0
220
-0
230
1
100
AcDbArc
50
61.050864100225162
51
141.10034653405356
0
ARC
5
407
100
AcDbEntity
8
0
100
AcDbCircle
10
22.538985580446756
20
-58.410123712990071
30
0
40
0.39999999999998814
210
0
220
-0
230
1
100
AcDbArc
50
31.050864100216938
51
111.1003465340879
0
SPLINE
5
408
100
AcDbEntity
8
0
100
AcDbSpline
70
0
71
3
72
8
73
4
74
0
42
0.000000001
43
0.0000000001
44
0.0000000001
40
0
40
0
40
0
40
0
40
1
40
1
40
1
40
1
10
-2.9642289872816683
20
68.297569439854342
30
0
10
-3.7886958377008169
20
66.360417136621507
30
0
10
-4.2159877195607676
20
64.789819936851956
30
0
10
-4.4352184099127605
20
63.648869935527806
30
0
0
SPLINE
5
409
100
AcDbEntity
8
0
100
AcDbSpline
70
0
71
3
72
8
73
4
74
0
42
0.000000001
43
0.0000000001
44
0.0000000001
40
0
40
0
40
0
40
0
40
1
40
1
40
1
40
1
10
53.196033466297649
20
-35.22828167631662
30
0
10
52.844467796945949
20
-34.832503183062997
30
0
10
52.539984254202217
20
-34.528120857258131
30
0
10
52.294594751576618
20
-34.300568209024135
30
0
0
ARC
5
410
100
AcDbEntity
8
0
100
AcDbCircle
10
-3.2049958319325633e-12
20
-2.9560398727841632e-13
30
0
40
62.20789425593226
210
0
220
0
230
1
100
AcDbArc
50
184.59966312991907
51
186.10033687008092
0
SPLINE
5
411
100
AcDbEntity
8
0
100
AcDbSpline
70
0
71
3
72
8
73
4
74
0
42
0.000000001
43
0.0000000001
44
0.0000000001
40
0
40
0
40
0
40
0
40
1
40
1
40
1
40
1
10
7.0377424752835154
20
-62.142769495293166
30
0
10
7.130212126593567
20
-62.464399063746903
30
0
10
7.2646146830617564
20
-62.873415910440251
30
0
10
7.4593678890001947
20
-63.365666074854062
30
0
0
SPLINE
5
412
100
AcDbEntity
8
0
100
AcDbSpline
70
0
71
3
72
8
73
4
74
0
42
0.000000001
43
0.0000000001
44
0.0000000001
40
0
40
0
40
0
40
0
40
1
40
1
40
1
40
1
10
-63.137159835810081
20
9.1950450940023014
30
0
10
-64.291335853269871
20
9.0619784872426763
30
0
10
-65.889549832921318
20
8.7536507533716144
30
0
10
-67.883066785833975
20
8.0767498804144786
30
0
0
ARC
5
413
100
AcDbEntity
8
0
100
AcDbCircle
10
-6.6533358267942209
20
62.253365736627408
30
0
40
0.39999999999999364
210
0
220
0
230
1
100
AcDbArc
50
196.05086410021829
51
276.10034653409093
0
ARC
5
414
100
AcDbEntity
8
0
100
AcDbCircle
10
1.7879215719678362e-12
20
-2.6941287000609432e-12
30
0
40
62.207894255932302
210
-0
220
0
230
1
100
AcDbArc
50
304.59966312991929
51
306.10033687008087
0
SPLINE
5
415
100
AcDbEntity
8
0
100
AcDbSpline
70
0
71
3
72
8
73
4
74
0
42
0.000000001
43
0.0000000001
44
0.0000000001
40
0
40
0
40
0
40
0
40
1
40
1
40
1
40
1
10
-61.8499211305232
20
-15.666431072884041
30
0
10
-62.865318344161764
20
-16.23105262724501
30
0
10
-64.223883613044023
20
-17.127520321260835
30
0
10
-65.806614374120031
20
-18.515781093343584
30
0
0
SPLINE
5
416
100
AcDbEntity
8
0
100
AcDbSpline
70
0
71
3
72
8
73
4
74
0
42
0.000000001
43
0.0000000001
44
0.0000000001
40
0
40
0
40
0
40
0
40
1
40
1
40
1
40
1
10
15.088792689021007
20
-60.692519760521463
30
0
10
15.222452332521033
20
-60.99932803194946
30
0
10
15.409092468039665
20
-61.387302628898354
30
0
10
15.666431072884041
20
-61.8499211305232
30
0
0
SPLINE
5
417
100
AcDbEntity
8
0
100
AcDbSpline
70
0
71
3
72
8
73
4
74
0
42
0.000000001
43
0.0000000001
44
0.0000000001
40
0
40
0
40
0
40
0
40
1
40
1
40
1
40
1
10
-15.088792689021007
20
60.692519760521463
30
0
10
-15.222452332521033
20
60.99932803194946
30
0
10
-15.409092468039665
20
61.387302628898354
30
0
10
-15.666431072884041
20
61.8499211305232
30
0
0
SPLINE
5
418
100
AcDbEntity
8
0
100
AcDbSpline
70
0
71
3
72
8
73
4
74
0
42
0.000000001
43
0.0000000001
44
0.0000000001
40
0
40
0
40
0
40
0
40
1
40
1
40
1
40
1
10
-68.10018378804277
20
5.9757520794930414
30
0
10
-66.287218609900961
20
4.9054895433806482
30
0
10
-64.785830869207132
20
4.2768491308064469
30
0
10
-63.683257200539181
20
3.9105701302152389
30
0
0
SPLINE
5
419
100
AcDbEntity
8
0
100
AcDbSpline
70
0
71
3
72
8
73
4
74
0
42
0.000000001
43
0.0000000001
44
0.0000000001
40
0
40
0
40
0
40
0
40
1
40
1
40
1
40
1
10
30.283034555131113
20
-54.719205383725054
30
0
10
30.491547680560927
20
-54.980965755516976
30
0
10
30.772243422386762
20
-55.307414417001283
30
0
10
31.140547905744501
20
-55.687665443466003
30
0
0
ARC
5
420
100
AcDbEntity
8
0
100
AcDbCircle
10
1.3883829792843013e-13
20
-3.2513910756825813e-12
30
0
40
62.207894255932253
210
0
220
0
230
1
100
AcDbArc
50
267.09966312991889
51
268.60033687008058
0
ARC
5
421
100
AcDbEntity
8
0
100
AcDbCircle
10
-4.8545441662782416e-14
20
-3.0347378814943047e-13
30
0
40
68.361865428620106
210
0
220
0
230
1
100
AcDbArc
50
165.71482679737403
51
167.48517320262602
0
ARC
5
422
100
AcDbEntity
8
0
100
AcDbCircle
10
-4.139170153949181e-14
20
-5.8178407022413672e-14
30
0
40
68.361865428620106
210
-0
220
0
230
1
100
AcDbArc
50
323.21482679737397
51
324.98517320262596
0
ARC
5
423
100
AcDbEntity
8
0
100
AcDbCircle
10
-56.555762571177695
20
26.855058055326722
30
0
40
0.39999999999995367
210
-0
220
0
230
1
100
AcDbArc
50
-25.400346534082956
51
54.649135899791382
0
SPLINE
5
424
100
AcDbEntity
8
0
100
AcDbSpline
70
0
71
3
72
8
73
4
74
0
42
0.000000001
43
0.0000000001
44
0.0000000001
40
0
40
0
40
0
40
0
40
1
40
1
40
1
40
1
10
-60.105660276811179
20
17.278982099131653
30
0
10
-60.438193855708917
20
17.316633588113877
30
0
10
-60.867509780449033
20
17.348985787863402
30
0
10
-61.396818457538998
20
17.357433269506185
30
0
0
SPLINE
5
425
100
AcDbEntity
8
0
100
AcDbSpline
70
0
71
3
72
8
73
4
74
0
42
0.000000001
43
0.0000000001
44
0.0000000001
40
0
40
0
40
0
40
0
40
1
40
1
40
1
40
1
10
-57.336088282086237
20
24.976520978758327
30
0
10
-57.660862484630535
20
25.057254695871588
30
0
10
-58.082282742676803
20
25.145367090983235
30
0
10
-58.605960493045536
20
25.222830949378981
30
0
0
SPLINE
5
426
100
AcDbEntity
8
0
100
AcDbSpline
70
0
71
3
72
8
73
4
74
0
42
0.000000001
43
0.0000000001
44
0.0000000001
40
0
40
0
40
0
40
0
40
1
40
1
40
1
40
1
10
57.336088282086344
20
-24.976520978758323
30
0
10
57.660862484630535
20
-25.057254695871588
30
0
10
58.082282742676803
20
-25.145367090983235
30
0
10
58.605960493045536
20
-25.222830949378981
30
0
0
ARC
5
427
100
AcDbEntity
8
0
100
AcDbCircle
10
60.852344971770982
20
14.722110398953667
30
0
40
0.39999999999998986
210
0
220
0
230
1
100
AcDbArc
50
113.5508641002158
51
193.60034653411824
0
ARC
5
428
100
AcDbEntity
8
0
100
AcDbCircle
10
-58.980356889336043
20
-21.00156956917607
30
0
40
0.39999999999995206
210
0
220
-0
230
1
100
AcDbArc
50
19.599653465963346
51
99.649135899782593
0
ARC
5
429
100
AcDbEntity
8
0
100
AcDbCircle
10
2.6305331162415777e-13
20
-1.18011522964648e-12
30
0
40
62.207894255934306
210
-0
220
0
230
1
100
AcDbArc
50
274.59966312991895
51
276.10033687008104
0
ARC
5
430
100
AcDbEntity
8
0
100
AcDbCircle
10
43.175894088698342
20
-45.338621425931137
30
0
40
0.39999999999998959
210
0
220
-0
230
1
100
AcDbArc
50
53.55086410021962
51
133.60034653409076
0
SPLINE
5
431
100
AcDbEntity
8
0
100
AcDbSpline
70
0
71
3
72
8
73
4
74
0
42
0.000000001
43
0.0000000001
44
0.0000000001
40
0
40
0
40
0
40
0
40
1
40
1
40
1
40
1
10
48.918009140351806
20
-38.96513828331674
30
0
10
49.210821506730866
20
-39.127178814705246
30
0
10
49.595077051734791
20
-39.321360441534154
30
0
10
50.080861793608861
20
-39.531722558254515
30
0
0
ARC
5
432
100
AcDbEntity
8
0
100
AcDbCircle
10
21.001569569176173
20
-58.980356889336043
30
0
40
0.39999999999999292
210
0
220
0
230
1
100
AcDbArc
50
109.59965346590771
51
189.64913589978724
0
ARC
5
433
100
AcDbEntity
8
0
100
AcDbCircle
10
-3.0073907642327679e-12
20
1.046436711515536e-12
30
0
40
62.207894255932302
210
0
220
0
230
1
100
AcDbArc
50
162.09966312991901
51
163.60033687008104
0
SPLINE
5
434
100
AcDbEntity
8
0
100
AcDbSpline
70
0
71
3
72
8
73
4
74
0
42
0.000000001
43
0.0000000001
44
0.0000000001
40
0
40
0
40
0
40
0
40
1
40
1
40
1
40
1
10
54.812338295873971
20
-32.656658998618205
30
0
10
55.929580281128452
20
-32.975405524087151
30
0
10
57.52412938099296
20
-33.302157852845056
30
0
10
59.624937640937404
20
-33.439668900799475
30
0
0
SPLINE
5
435
100
AcDbEntity
8
0
100
AcDbSpline
70
0
71
3
72
8
73
4
74
0
42
0.000000001
43
0.0000000001
44
0.0000000001
40
0
40
0
40
0
40
0
40
1
40
1
40
1
40
1
10
2.9642289872816585
20
-68.297569439854342
30
0
10
3.7886958377008062
20
-66.360417136621507
30
0
10
4.2159877195607578
20
-64.789819936851956
30
0
10
4.4352184099127498
20
-63.648869935527806
30
0
0
ARC
5
436
100
AcDbEntity
8
0
100
AcDbCircle
10
-3.1330799786581536e-12
20
-8.2880386541776255e-13
30
0
40
62.20789425593221
210
0
220
0
230
1
100
AcDbArc
50
192.09966312991895
51
193.60033687008095
0
SPLINE
5
437
100
AcDbEntity
8
0
100
AcDbSpline
70
0
71
3
72
8
73
4
74
0
42
0.000000001
43
0.0000000001
44
0.0000000001
40
0
40
0
40
0
40
0
40
1
40
1
40
1
40
1
10
20.757631745935381
20
-60.332168291165345
30
0
10
20.719650628947445
20
-59.804156482262194
30
0
10
20.663383812870038
20
-59.377315910769042
30
0
10
20.607228506603199
20
-59.047402592918424
30
0
0
SPLINE
5
438
100
AcDbEntity
8
0
100
AcDbSpline
70
0
71
3
72
8
73
4
74
0
42
0.000000001
43
0.0000000001
44
0.0000000001
40
0
40
0
40
0
40
0
40
1
40
1
40
1
40
1
10
-57.339147491295051
20
27.983423153447053
30
0
10
-56.938930055293881
20
27.636919128204159
30
0
10
-56.597321545501416
20
27.37488391282
30
0
10
-56.324329803384614
20
27.181307766424879
30
0
0
ARC
5
439
100
AcDbEntity
8
0
100
AcDbCircle
10
61.57927217502565
20
-11.302285678415249
30
0
40
0.39999999999999292
210
0
220
0
230
1
100
AcDbArc
50
169.5996534659084
51
249.64913589977607
0
ARC
5
440
100
AcDbEntity
8
0
100
AcDbCircle
10
6.1841942305258142e-14
20
3.2885494396756929e-13
30
0
40
68.361865428620106
210
-0
220
0
230
1
100
AcDbArc
50
345.71482679737386
51
347.48517320262562
0
SPLINE
5
441
100
AcDbEntity
8
0
100
AcDbSpline
70
0
71
3
72
8
73
4
74
0
42
0.000000001
43
0.0000000001
44
0.0000000001
40
0
40
0
40
0
40
0
40
1
40
1
40
1
40
1
10
60.332168291165345
20
20.757631745935285
30
0
10
59.8041564822623
20
20.719650628947445
30
0
10
59.377315910769042
20
20.663383812870038
30
0
10
59.047402592918424
20
20.607228506603199
30
0
0
SPLINE
5
442
100
AcDbEntity
8
0
100
AcDbSpline
70
0
71
3
72
8
73
4
74
0
42
0.000000001
43
0.0000000001
44
0.0000000001
40
0
40
0
40
0
40
0
40
1
40
1
40
1
40
1
10
28.874938786462767
20
-61.964365202580694
30
0
10
28.895330742383937
20
-59.859160034077227
30
0
10
28.689055439171746
20
-58.244599903418639
30
0
10
28.454975524222572
20
-57.106603596512883
30
0
0
ARC
5
443
100
AcDbEntity
8
0
100
AcDbCircle
10
2.5403782387183699e-12
20
9.1728916065009411e-13
30
0
40
62.207894255932736
210
0
220
-0
230
1
100
AcDbArc
50
19.599663129919136
51
21.100336870080866
0
ARC
5
444
100
AcDbEntity
8
0
100
AcDbCircle
10
1.9545147106498215e-16
20
-6.9972708052824793e-15
30
0
40
68.361865428620106
210
0
220
0
230
1
100
AcDbArc
50
158.214826797374
51
159.98517320262599
0
ARC
5
445
100
AcDbEntity
8
0
100
AcDbCircle
10
28.52037963068895
20
-55.73451685341653
30
0
40
0.3999999999999877
210
0
220
0
230
1
100
AcDbArc
50
117.09965346590904
51
197.14913589978238
0
SPLINE
5
446
100
AcDbEntity
8
0
100
AcDbSpline
70
0
71
3
72
8
73
4
74
0
42
0.000000001
43
0.0000000001
44
0.0000000001
40
0
40
0
40
0
40
0
40
1
40
1
40
1
40
1
10
-66.73758511067976
20
14.813486371396197
30
0
10
-65.07982739447597
20
13.515740638316272
30
0
10
-63.673338273364337
20
12.696507906779004
30
0
10
-62.628006278514896
20
12.189447731200385
30
0
0
SPLINE
5
447
100
AcDbEntity
8
0
100
AcDbSpline
70
0
71
3
72
8
73
4
74
0
42
0.000000001
43
0.0000000001
44
0.0000000001
40
0
40
0
40
0
40
0
40
1
40
1
40
1
40
1
10
63.683257200539181
20
-3.9105701302152389
30
0
10
63.180903153155434
20
-3.7435987354618971
30
0
10
62.765021507202647
20
-3.6322376802237555
30
0
10
62.438731639989847
20
-3.5578660574674945
30
0
0
SPLINE
5
448
100
AcDbEntity
8
0
100
AcDbSpline
70
0
71
3
72
8
73
4
74
0
42
0.000000001
43
0.0000000001
44
0.0000000001
40
0
40
0
40
0
40
0
40
1
40
1
40
1
40
1
10
53.58547992028798
20
-32.246704659638596
30
0
10
53.896937769828668
20
-32.369139228599579
30
0
10
54.303251743726165
20
-32.511504191563517
30
0
10
54.812338295873971
20
-32.656658998618205
30
0
0
SPLINE
5
449
100
AcDbEntity
8
0
100
AcDbSpline
70
0
71
3
72
8
73
4
74
0
42
0.000000001
43
0.0000000001
44
0.0000000001
40
0
40
0
40
0
40
0
40
1
40
1
40
1
40
1
10
57.106603596512883
20
28.454975524222572
30
0
10
56.588066532407865
20
28.34839997009243
30
0
10
56.172221934426048
20
28.236900649944495
30
0
10
55.852460809044082
20
28.138163430965704
30
0
0
ARC
5
450
100
AcDbEntity
8
0
100
AcDbCircle
10
53.439209877119396
20
-32.619001684165319
30
0
40
0.39999999999998648
210
0
220
-0
230
1
100
AcDbArc
50
68.55086410021859
51
148.60034653409073
0
ARC
5
451
100
AcDbEntity
8
0
100
AcDbCircle
10
-5.2588433155008818e-14
20
-1.547438846291411e-14
30
0
40
68.361865428620121
210
-0
220
0
230
1
100
AcDbArc
50
278.21482679737403
51
279.98517320262596
0
SPLINE
5
452
100
AcDbEntity
8
0
100
AcDbSpline
70
0
71
3
72
8
73
4
74
0
42
0.000000001
43
0.0000000001
44
0.0000000001
40
0
40
0
40
0
40
0
40
1
40
1
40
1
40
1
10
62.142769495293166
20
7.0377424752834745
30
0
10
62.464399063746903
20
7.1302121265935376
30
0
10
62.873415910440251
20
7.264614683061728
30
0
10
63.365666074854062
20
7.4593678890001662
30
0
0
ARC
5
453
100
AcDbEntity
8
0
100
AcDbCircle
10
-60.852344971770982
20
-14.722110398953568
30
0
40
0.4000000000000733
210
-0
220
0
230
1
100
AcDbArc
50
-66.449135899778014
51
13.60034653405136
0
ARC
5
454
100
AcDbEntity
8
0
100
AcDbCircle
10
-57.239664112400234
20
25.364725022400716
30
0
40
0.3999999999999887
210
0
220
0
230
1
100
AcDbArc
50
256.0508641002188
51
336.10034653404824
0
ARC
5
455
100
AcDbEntity
8
0
100
AcDbCircle
10
1.4465909153951078e-12
20
-2.9377541972561871e-12
30
0
40
62.207894255932146
210
-0
220
0
230
1
100
AcDbArc
50
297.09966312991924
51
298.60033687008098
0
SPLINE
5
456
100
AcDbEntity
8
0
100
AcDbSpline
70
0
71
3
72
8
73
4
74
0
42
0.000000001
43
0.0000000001
44
0.0000000001
40
0
40
0
40
0
40
0
40
1
40
1
40
1
40
1
10
43.928606938476051
20
-52.379596574674387
30
0
10
43.403436863891905
20
-50.340846706220276
30
0
10
42.786311309916123
20
-48.834689354926127
30
0
10
42.265672357167574
20
-47.796053671929037
30
0
0
ARC
5
457
100
AcDbEntity
8
0
100
AcDbCircle
10
7.3613813332270904e-14
20
1.5811706576673365e-13
30
0
40
68.361865428620149
210
-0
220
0
230
1
100
AcDbArc
50
330.71482679737397
51
332.48517320262579
0
SPLINE
5
458
100
AcDbEntity
8
0
100
AcDbSpline
70
0
71
3
72
8
73
4
74
0
42
0.000000001
43
0.0000000001
44
0.0000000001
40
0
40
0
40
0
40
0
40
1
40
1
40
1
40
1
10
44.492487861017025
20
-45.73038738465506
30
0
10
45.489163077437198
20
-46.327436389417457
30
0
10
46.944809508568063
20
-47.055754577960727
30
0
10
48.93844398480725
20
-47.732309238362404
30
0
0
SPLINE
5
459
100
AcDbEntity
8
0
100
AcDbSpline
70
0
71
3
72
8
73
4
74
0
42
0.000000001
43
0.0000000001
44
0.0000000001
40
0
40
0
40
0
40
0
40
1
40
1
40
1
40
1
10
65.203187278772859
20
20.539937039096309
30
0
10
63.118654116680794
20
20.834938953494468
30
0
10
61.490982441883006
20
20.841170750061629
30
0
10
60.332168291165345
20
20.757631745935285
30
0
0
SPLINE
5
460
100
AcDbEntity
8
0
100
AcDbSpline
70
0
71
3
72
8
73
4
74
0
42
0.000000001
43
0.0000000001
44
0.0000000001
40
0
40
0
40
0
40
0
40
1
40
1
40
1
40
1
10
50.080861793608861
20
-39.531722558254515
30
0
10
51.146940848547644
20
-39.993571505135172
30
0
10
52.685198622544746
20
-40.525658844737336
30
0
10
54.750085383120641
20
-40.93620396936889
30
0
0
ARC
5
461
100
AcDbEntity
8
0
100
AcDbCircle
10
-3.2302875767118408e-12
20
-1.4225038397539663e-13
30
0
40
62.207894255932274
210
0
220
0
230
1
100
AcDbArc
50
177.09966312991901
51
178.60033687008081
0
SPLINE
5
462
100
AcDbEntity
8
0
100
AcDbSpline
70
0
71
3
72
8
73
4
74
0
42
0.000000001
43
0.0000000001
44
0.0000000001
40
0
40
0
40
0
40
0
40
1
40
1
40
1
40
1
10
50.389700907376771
20
-46.197648071583544
30
0
10
49.60291347836452
20
-44.244888440981612
30
0
10
48.794474535103987
20
-42.8321675233028
30
0
10
48.142720559964971
20
-41.870374532579632
30
0
0
ARC
5
463
100
AcDbEntity
8
0
100
AcDbCircle
10
41.973725692102768
20
-46.453791822482117
30
0
40
0.39999999999999197
210
0
220
0
230
1
100
AcDbArc
50
132.09965346592315
51
212.14913589977468
0
ARC
5
464
100
AcDbEntity
8
0
100
AcDbCircle
10
14.722110398953667
20
-60.852344971770982
30
0
40
0.39999999999998059
210
0
220
-0
230
1
100
AcDbArc
50
23.550864100227663
51
103.60034653404793
0
SPLINE
5
465
100
AcDbEntity
8
0
100
AcDbSpline
70
0
71
3
72
8
73
4
74
0
42
0.000000001
43
0.0000000001
44
0.0000000001
40
0
40
0
40
0
40
0
40
1
40
1
40
1
40
1
10
22.88166947644568
20
-58.203804185501859
30
0
10
23.054232158577999
20
-58.490541585316443
30
0
10
23.289916408681897
20
-58.850835579600428
30
0
10
23.605437277555566
20
-59.275906887611157
30
0
0
ARC
5
466
100
AcDbEntity
8
0
100
AcDbCircle
10
13.123416829599591
20
-61.217026666434691
30
0
40
0.39999999999999158
210
0
220
0
230
1
100
AcDbArc
50
102.0996534659084
51
182.14913589977741
0
SPLINE
5
467
100
AcDbEntity
8
0
100
AcDbSpline
70
0
71
3
72
8
73
4
74
0
42
0.000000001
43
0.0000000001
44
0.0000000001
40
0
40
0
40
0
40
0
40
1
40
1
40
1
40
1
10
4.4352184099127498
20
-63.648869935527806
30
0
10
4.5351909802860293
20
-63.129019456291957
30
0
10
4.5913158785986266
20
-62.702160200970532
30
0
10
4.622461867885078
20
-62.368954344076421
30
0
0
SPLINE
5
468
100
AcDbEntity
8
0
100
AcDbSpline
70
0
71
3
72
8
73
4
74
0
42
0.000000001
43
0.0000000001
44
0.0000000001
40
0
40
0
40
0
40
0
40
1
40
1
40
1
40
1
10
28.454975524222572
20
-57.106603596512883
30
0
10
28.34839997009243
20
-56.588066532407865
30
0
10
28.236900649944495
20
-56.172221934426048
30
0
10
28.138163430965704
20
-55.852460809044082
30
0
0
SPLINE
5
469
100
AcDbEntity
8
0
100
AcDbSpline
70
0
71
3
72
8
73
4
74
0
42
0.000000001
43
0.0000000001
44
0.0000000001
40
0
40
0
40
0
40
0
40
1
40
1
40
1
40
1
10
35.665446782080735
20
-52.903929081382266
30
0
10
35.492100328087702
20
-52.403739075007927
30
0
10
35.327276288150536
20
-52.00600566690273
30
0
10
35.187646577651641
20
-51.701867935499521
30
0
0
SPLINE
5
470
100
AcDbEntity
8
0
100
AcDbSpline
70
0
71
3
72
8
73
4
74
0
42
0.000000001
43
0.0000000001
44
0.0000000001
40
0
40
0
40
0
40
0
40
1
40
1
40
1
40
1
10
23.605437277555566
20
-59.275906887611157
30
0
10
24.297764348134692
20
-60.208919335790306
30
0
10
25.363890988183989
20
-61.438849375916348
30
0
10
26.946862816465082
20
-62.826835263535074
30
0
0
SPLINE
5
471
100
AcDbEntity
8
0
100
AcDbSpline
70
0
71
3
72
8
73
4
74
0
42
0.000000001
43
0.0000000001
44
0.0000000001
40
0
40
0
40
0
40
0
40
1
40
1
40
1
40
1
10
31.140547905744501
20
-55.687665443466003
30
0
10
31.948734584414943
20
-56.522329024517362
30
0
10
33.16627844810025
20
-57.60257939189966
30
0
10
34.916876245715038
20
-58.772071582701493
30
0
0
ARC
5
472
100
AcDbEntity
8
0
100
AcDbCircle
10
-62.527697278055214
20
3.1678851409553852
30
0
40
0.39999999999999103
210
-0
220
0
230
1
100
AcDbArc
50
-2.900346534090922
51
77.149135899781797
0
SPLINE
5
473
100
AcDbEntity
8
0
100
AcDbSpline
70
0
71
3
72
8
73
4
74
0
42
0.000000001
43
0.0000000001
44
0.0000000001
40
0
40
0
40
0
40
0
40
1
40
1
40
1
40
1
10
12.705119133372287
20
-62.525432859118879
30
0
10
12.736382320968854
20
-61.996980733860426
30
0
10
12.736310749784966
20
-61.566447549376811
30
0
10
12.723698189089593
20
-61.232026947394907
30
0
0
ARC
5
474
100
AcDbEntity
8
0
100
AcDbCircle
10
9.4519989334669532e-13
20
-2.9307511258408485e-12
30
0
40
62.207894255932381
210
-0
220
0
230
1
100
AcDbArc
50
289.59966312991935
51
291.10033687008098
0
ARC
5
475
100
AcDbEntity
8
0
100
AcDbCircle
10
-1.7536180971461477e-13
20
-9.6934182276507878e-14
30
0
40
68.361865428620135
210
-0
220
0
230
1
100
AcDbArc
50
300.71482679737431
51
302.48517320262602
0
ARC
5
476
100
AcDbEntity
8
0
100
AcDbCircle
10
8.7760609346438217e-13
20
-3.0536863861101035e-12
30
0
40
62.207894255932281
210
-0
220
0
230
1
100
AcDbArc
50
282.09966312991907
51
283.60033687008098
0
ARC
5
477
100
AcDbEntity
8
0
100
AcDbCircle
10
36.88864071422659
20
-50.586328285605987
30
0
40
0.3999999999999907
210
0
220
-0
230
1
100
AcDbArc
50
46.050864100217183
51
126.10034653409095
0
ARC
5
478
100
AcDbEntity
8
0
100
AcDbCircle
10
5.0207187895699406
20
-62.4062561447044
30
0
40
0.39999999999995933
210
0
220
0
230
1
100
AcDbArc
50
94.599653465918024
51
174.64913589978337
0
SPLINE
5
479
100
AcDbEntity
8
0
100
AcDbSpline
70
0
71
3
72
8
73
4
74
0
42
0.000000001
43
0.0000000001
44
0.0000000001
40
0
40
0
40
0
40
0
40
1
40
1
40
1
40
1
10
37.166248516534836
20
-50.298345806802772
30
0
10
37.407144367875304
20
-50.530650358037008
30
0
10
37.728048819457008
20
-50.817668059615066
30
0
10
38.142835125475088
20
-51.146592604045374
30
0
0
ARC
5
480
100
AcDbEntity
8
0
100
AcDbCircle
10
6.6533358267942706
20
-62.253365736627408
30
0
40
0.39999999999998914
210
0
220
-0
230
1
100
AcDbArc
50
16.050864100216277
51
96.10034653404557
0
ARC
5
481
100
AcDbEntity
8
0
100
AcDbCircle
10
-1.9545147106498215e-16
20
6.9972708052824793e-15
30
0
40
68.361865428620106
210
-0
220
0
230
1
100
AcDbArc
50
293.21482679737409
51
294.98517320262602
0
ARC
5
482
100
AcDbEntity
8
0
100
AcDbCircle
10
1.0432235602392032e-13
20
-1.8916089985411472e-13
30
0
40
68.361865428620121
210
0
220
-0
230
1
100
AcDbArc
50
30.714826797374275
51
32.485173202626001
0
ARC
5
483
100
AcDbEntity
8
0
100
AcDbCircle
10
45.338621425931137
20
43.175894088698342
30
0
40
0.39999999999999958
210
0
220
0
230
1
100
AcDbArc
50
143.55086410022307
51
223.60034653410875
0
SPLINE
5
484
100
AcDbEntity
8
0
100
AcDbSpline
70
0
71
3
72
8
73
4
74
0
42
0.000000001
43
0.0000000001
44
0.0000000001
40
0
40
0
40
0
40
0
40
1
40
1
40
1
40
1
10
41.870374532579518
20
48.142720559964964
30
0
10
41.432093451065164
20
47.845822043337861
30
0
10
41.090572080825034
20
47.583673265478062
30
0
10
40.832936419652825
20
47.370084684768436
30
0
0
ARC
5
485
100
AcDbEntity
8
0
100
AcDbCircle
10
-14.45679194422417
20
-35.250000000000014
30
0
40
26.116303975076253
210
0
220
0
230
1
100
AcDbArc
50
-56.388804928877853
51
56.38880492887786
0
ARC
5
486
100
AcDbEntity
8
0
100
AcDbCircle
10
-19.467721223257218
20
-29.258410060054857
30
0
40
40.903334497259259
210
0
220
0
230
1
100
AcDbArc
50
-40.448005949378022
51
37.829679252704913
0
ARC
5
487
100
AcDbEntity
8
0
100
AcDbCircle
10
29.057347804496079
20
-24.642075234994579
30
0
40
26.116303975076253
210
0
220
-0
230
1
100
AcDbArc
50
15.611195071122102
51
128.38880492887787
0
ARC
5
488
100
AcDbEntity
8
0
100
AcDbCircle
10
21.810544844310531
20
-27.556249063744112
30
0
40
40.903334497259252
210
0
220
-0
230
1
100
AcDbArc
50
31.551994050621989
51
109.82967925270493
0
ARC
5
489
100
AcDbEntity
8
0
100
AcDbCircle
10
32.415220510329874
20
20.020359951441307
30
0
40
26.116303975076249
210
0
220
-0
230
1
100
AcDbArc
50
87.611195071122097
51
200.38880492887785
0
ARC
5
490
100
AcDbEntity
8
0
100
AcDbCircle
10
32.947379250194899
20
12.22771153620352
30
0
40
40.903334497259259
210
0
220
0
230
1
100
AcDbArc
50
103.55199405062199
51
181.82967925270475
0
ARC
5
491
100
AcDbEntity
8
0
100
AcDbCircle
10
-9.0236397762894924
20
37.015338151992509
30
0
40
26.116303975076253
210
0
220
0
230
1
100
AcDbArc
50
159.61119507112213
51
272.38880492887785
0
ARC
5
492
100
AcDbEntity
8
0
100
AcDbCircle
10
-1.4479446274570407
20
35.113390397747082
30
0
40
40.903334497259259
210
0
220
0
230
1
100
AcDbArc
50
175.55199405062206
51
253.82967925270489
0
ARC
5
493
100
AcDbEntity
8
0
100
AcDbCircle
10
-37.992136594312285
20
2.85637713156079
30
0
40
26.116303975076253
210
0
220
0
230
1
100
AcDbArc
50
231.6111950711221
51
344.38880492887785
0
ARC
5
494
100
AcDbEntity
8
0
100
AcDbCircle
10
-33.842258243791164
20
9.4735571898483677
30
0
40
40.903334497259259
210
0
220
0
230
1
100
AcDbArc
50
247.55199405062197
51
325.82967925270492
0
ARC
5
495
100
AcDbEntity
8
0
100
AcDbCircle
10
3.6767770025712695e-14
20
-2.6983904227081437e-14
30
0
40
56.999999999999993
210
0
220
0
230
1
100
AcDbArc
50
281.80332414092555
51
341.99999999999994
0
ARC
5
496
100
AcDbEntity
8
0
100
AcDbCircle
10
3.6767770025712695e-14
20
-2.6983904227081437e-14
30
0
40
56.999999999999993
210
0
220
0
230
1
100
AcDbArc
50
-6.1966758590743627
51
53.999999999999986
0
ARC
5
497
100
AcDbEntity
8
0
100
AcDbCircle
10
3.6767770025712695e-14
20
-2.6983904227081437e-14
30
0
40
57.000000000000036
210
0
220
-0
230
1
100
AcDbArc
50
65.803324140925625
51
125.99999999999996
0
ARC
5
498
100
AcDbEntity
8
0
100
AcDbCircle
10
3.6767770025712695e-14
20
-2.6983904227081437e-14
30
0
40
57.000000000000085
210
0
220
0
230
1
100
AcDbArc
50
137.80332414092558
51
197.99999999999986
0
ARC
5
499
100
AcDbEntity
8
0
100
AcDbCircle
10
3.6767770025712695e-14
20
-2.6983904227081437e-14
30
0
40
57.000000000000057
210
0
220
0
230
1
100
AcDbArc
50
209.8033241409255
51
269.99999999999989
0
ENDSEC
0
SECTION
2
OBJECTS
0
DICTIONARY
5
C
100
AcDbDictionary
3
ACAD_GROUP
350
D
3
ACAD_MLINESTYLE
350
17
0
DICTIONARY
5
D
100
AcDbDictionary
0
DICTIONARY
5
1A
330
C
100
AcDbDictionary
0
DICTIONARY
5
17
100
AcDbDictionary
0
ENDSEC
0
EOF
