0
SECTION
2
HEADER
9
$INSUNITS
70
4
9
$ACADVER
1
AC1014
9
$HANDSEED
5
FFFF
0
ENDSEC
0
SECTION
2
TABLES
0
TABLE
2
VPORT
5
8
100
AcDbSymbolTable
0
ENDTAB
0
TABLE
2
LTYPE
5
5
100
AcDbSymbolTable
0
LTYPE
5
14
100
AcDbSymbolTableRecord
100
AcDbLinetypeTableRecord
2
BYBLOCK
70
0
0
LTYPE
5
15
100
AcDbSymbolTableRecord
100
AcDbLinetypeTableRecord
2
BYLAYER
70
0
0
ENDTAB
0
TABLE
2
LAYER
5
2
100
AcDbSymbolTable
70
2
0
LAYER
5
50
100
AcDbSymbolTableRecord
100
AcDbLayerTableRecord
2
0
70
0
6
CONTINUOUS
0
ENDTAB
0
TABLE
2
STYLE
5
3
100
AcDbSymbolTable
70
1
0
STYLE
5
11
100
AcDbSymbolTableRecord
100
AcDbTextStyleTableRecord
2
STANDARD
70
0
0
ENDTAB
0
TABLE
2
VIEW
5
6
100
AcDbSymbolTable
70
0
0
ENDTAB
0
TABLE
2
UCS
5
7
100
AcDbSymbolTable
70
0
0
ENDTAB
0
TABLE
2
APPID
5
9
100
AcDbSymbolTable
70
2
0
APPID
5
12
100
AcDbSymbolTableRecord
100
AcDbRegAppTableRecord
2
ACAD
70
0
0
ENDTAB
0
TABLE
2
DIMSTYLE
5
A
100
AcDbSymbolTable
70
1
0
ENDTAB
0
TABLE
2
BLOCK_RECORD
5
1
100
AcDbSymbolTable
70
1
0
BLOCK_RECORD
5
1F
100
AcDbSymbolTableRecord
100
AcDbBlockTableRecord
2
*MODEL_SPACE
0
BLOCK_RECORD
5
1B
100
AcDbSymbolTableRecord
100
AcDbBlockTableRecord
2
*PAPER_SPACE
0
ENDTAB
0
ENDSEC
0
SECTION
2
BLOCKS
0
BLOCK
5
20
100
AcDbEntity
100
AcDbBlockBegin
2
*MODEL_SPACE
0
ENDBLK
5
21
100
AcDbEntity
100
AcDbBlockEnd
0
BLOCK
5
1C
100
AcDbEntity
100
AcDbBlockBegin
2
*PAPER_SPACE
0
ENDBLK
5
1D
100
AcDbEntity
100
AcDbBlockEnd
0
ENDSEC
0
SECTION
2
ENTITIES
0
ARC
5
100
100
AcDbEntity
8
0
100
AcDbCircle
10
-51.666323676508377
20
71.112593805557864
30
0
40
12.872123082834801
210
0
220
-0
230
1
100
AcDbArc
50
32.807291667608766
51
38.992708332391288
0
ARC
5
101
100
AcDbEntity
8
0
100
AcDbCircle
10
-51.666323676508398
20
71.112593805557822
30
0
40
7.0771249999999597
210
0
220
0
230
1
100
AcDbArc
50
231.05863602047586
51
245.74136397952381
0
ARC
5
102
100
AcDbEntity
8
0
100
AcDbCircle
10
-48.594299950571205
20
77.929489616181939
30
0
40
0.40000000000000174
210
0
220
0
230
1
100
AcDbArc
50
158.80795139991145
51
245.74136397952478
0
ARC
5
103
100
AcDbEntity
8
0
100
AcDbCircle
10
-50.877141592765099
20
63.677233027201268
30
0
40
0.39999999999999486
210
0
220
0
230
1
100
AcDbArc
50
96.058636020476726
51
182.99204860008814
0
ARC
5
104
100
AcDbEntity
8
0
100
AcDbCircle
10
-58.483219487132459
20
74.184617531495022
30
0
40
0.39999999999999492
210
0
220
0
230
1
100
AcDbArc
50
248.8079513999115
51
335.74136397952753
0
LINE
5
105
100
AcDbEntity
8
0
100
AcDbLine
10
-41.966793508712911
20
71.619574871981357
30
0
11
-44.210083951023236
21
71.502321174011911
31
0
0
ARC
5
106
100
AcDbEntity
8
0
100
AcDbCircle
10
-51.666323676508355
20
71.112593805557893
30
0
40
7.0771249999999783
210
0
220
-0
230
1
100
AcDbArc
50
51.058636020476058
51
65.741363979523882
0
SPLINE
5
107
100
AcDbEntity
8
0
100
AcDbSpline
70
0
71
3
72
8
73
4
74
0
42
0.000000001
43
0.0000000001
44
0.0000000001
40
0
40
0
40
0
40
0
40
1
40
1
40
1
40
1
10
-51.392279316875566
20
60.523446760583788
30
0
10
-51.191746678434612
20
61.01236397185086
30
0
10
-51.163099395594394
20
61.312044603742962
30
0
10
-51.159342610084892
20
61.413063637762392
30
0
0
SPLINE
5
108
100
AcDbEntity
8
0
100
AcDbSpline
70
0
71
3
72
8
73
4
74
0
42
0.000000001
43
0.0000000001
44
0.0000000001
40
0
40
0
40
0
40
0
40
1
40
1
40
1
40
1
10
-38.864886768018046
20
69.765461392767222
30
0
10
-39.717012426736353
20
70.679450499038524
30
0
10
-40.504467590238718
20
71.148898695312909
30
0
10
-41.0771766315343
20
71.386638165190675
30
0
0
SPLINE
5
109
100
AcDbEntity
8
0
100
AcDbSpline
70
0
71
3
72
8
73
4
74
0
42
0.000000001
43
0.0000000001
44
0.0000000001
40
0
40
0
40
0
40
0
40
1
40
1
40
1
40
1
10
-59.347759984033324
20
78.406472862998243
30
0
10
-59.143841296998396
20
77.918958198981656
30
0
10
-58.952191777956109
20
77.686795304021587
30
0
10
-58.883416982481293
20
77.612707611528307
30
0
0
ARC
5
110
100
AcDbEntity
8
0
100
AcDbCircle
10
-44.849427865884294
20
68.040570079620707
30
0
40
0.39999999999999308
210
0
220
-0
230
1
100
AcDbArc
50
68.807951399912255
51
155.74136397952387
0
ARC
5
111
100
AcDbEntity
8
0
100
AcDbCircle
10
-59.101684454864973
20
70.323411721814594
30
0
40
0.39999999999999486
210
0
220
-0
230
1
100
AcDbArc
50
6.0586360204756238
51
92.99204860008814
0
LINE
5
112
100
AcDbEntity
8
0
100
AcDbLine
10
-51.159342610084892
20
61.413063637762392
30
0
11
-51.276596308054323
21
63.656354080072717
31
0
0
ARC
5
113
100
AcDbEntity
8
0
100
AcDbCircle
10
-44.673801613597789
20
73.760618251316203
30
0
40
0.39999999999999286
210
0
220
0
230
1
100
AcDbArc
50
113.8079513999124
51
200.74136397952608
0
SPLINE
5
114
100
AcDbEntity
8
0
100
AcDbSpline
70
0
71
3
72
8
73
4
74
0
42
0.000000001
43
0.0000000001
44
0.0000000001
40
0
40
0
40
0
40
0
40
1
40
1
40
1
40
1
10
-64.467760584998715
20
72.459726218348521
30
0
10
-63.6156349262804
20
71.545737112077234
30
0
10
-62.828179762778021
20
71.07628891580282
30
0
10
-62.255470721482453
20
70.838549445925054
30
0
0
SPLINE
5
115
100
AcDbEntity
8
0
100
AcDbSpline
70
0
71
3
72
8
73
4
74
0
42
0.000000001
43
0.0000000001
44
0.0000000001
40
0
40
0
40
0
40
0
40
1
40
1
40
1
40
1
10
-56.19301422824644
20
80.687115145336392
30
0
10
-56.666548668479194
20
81.091877315173505
30
0
10
-57.440617318494766
20
81.583084978565267
30
0
10
-58.640635354333519
20
81.931583096623868
30
0
0
SPLINE
5
116
100
AcDbEntity
8
0
100
AcDbSpline
70
0
71
3
72
8
73
4
74
0
42
0.000000001
43
0.0000000001
44
0.0000000001
40
0
40
0
40
0
40
0
40
1
40
1
40
1
40
1
10
-48.155203868188551
20
80.168528487815166
30
0
10
-48.127220937667502
20
80.265667122101604
30
0
10
-48.060834329976139
20
80.559302893533854
30
0
10
-48.096968296002736
20
81.083656356997679
30
0
0
ARC
5
117
100
AcDbEntity
8
0
100
AcDbCircle
10
-51.666323676508348
20
71.11259380555785
30
0
40
7.0771249999999739
210
-0
220
0
230
1
100
AcDbArc
50
321.05863602047594
51
335.74136397952401
0
SPLINE
5
118
100
AcDbEntity
8
0
100
AcDbSpline
70
0
71
3
72
8
73
4
74
0
42
0.000000001
43
0.0000000001
44
0.0000000001
40
0
40
0
40
0
40
0
40
1
40
1
40
1
40
1
10
-51.940368036141187
20
81.701740850531934
30
0
10
-52.140900674582142
20
81.212823639264855
30
0
10
-52.16954795742236
20
80.913143007372753
30
0
10
-52.173304742931862
20
80.812123973353351
30
0
0
LINE
5
119
100
AcDbEntity
8
0
100
AcDbLine
10
-58.166437482478813
20
63.895500499584948
30
0
11
-56.6631024835036
21
65.564657268466945
31
0
0
ARC
5
120
100
AcDbEntity
8
0
100
AcDbCircle
10
-51.666323676508377
20
71.112593805557864
30
0
40
12.87212308283485
210
0
220
-0
230
1
100
AcDbArc
50
77.807291667608681
51
83.992708332391302
0
LINE
5
121
100
AcDbEntity
8
0
100
AcDbLine
10
-48.967249541695708
20
78.074087688368522
30
0
11
-48.155203868188551
21
80.168528487815166
31
0
0
ARC
5
122
100
AcDbEntity
8
0
100
AcDbCircle
10
-54.314348122266701
20
78.105115868468445
30
0
40
0.39999999999999286
210
0
220
0
230
1
100
AcDbArc
50
203.80795139991207
51
290.74136397952327
0
SPLINE
5
123
100
AcDbEntity
8
0
100
AcDbSpline
70
0
71
3
72
8
73
4
74
0
42
0.000000001
43
0.0000000001
44
0.0000000001
40
0
40
0
40
0
40
0
40
1
40
1
40
1
40
1
10
-41.0771766315343
20
71.386638165190675
30
0
10
-41.566093842801372
20
71.587170803631622
30
0
10
-41.865774474693474
20
71.615818086471862
30
0
10
-41.966793508712911
20
71.619574871981357
30
0
0
LINE
5
124
100
AcDbEntity
8
0
100
AcDbLine
10
-54.680309584581209
20
77.943646960933194
30
0
11
-55.587099874293607
21
79.998843255385808
31
0
0
SPLINE
5
125
100
AcDbEntity
8
0
100
AcDbSpline
70
0
71
3
72
8
73
4
74
0
42
0.000000001
43
0.0000000001
44
0.0000000001
40
0
40
0
40
0
40
0
40
1
40
1
40
1
40
1
10
-55.587099874293607
20
79.998843255385808
30
0
10
-55.636000341383827
20
80.087317562333851
30
0
10
-55.796689766083986
20
80.341891827991091
30
0
10
-56.19301422824644
20
80.687115145336392
30
0
0
SPLINE
5
126
100
AcDbEntity
8
0
100
AcDbSpline
70
0
71
3
72
8
73
4
74
0
42
0.000000001
43
0.0000000001
44
0.0000000001
40
0
40
0
40
0
40
0
40
1
40
1
40
1
40
1
10
-59.765740059193163
20
81.117143116723582
30
0
10
-59.80948412246547
20
79.868311390045761
30
0
10
-59.584619239474044
20
78.979546501051487
30
0
10
-59.347759984033324
20
78.406472862998243
30
0
0
ARC
5
127
100
AcDbEntity
8
0
100
AcDbCircle
10
-51.666323676508377
20
71.112593805557864
30
0
40
12.872123082834801
210
-0
220
0
230
1
100
AcDbArc
50
347.80729166760904
51
353.99270833239143
0
ARC
5
128
100
AcDbEntity
8
0
100
AcDbCircle
10
-51.666323676508377
20
71.112593805557864
30
0
40
12.872123082834801
210
0
220
0
230
1
100
AcDbArc
50
167.80729166760906
51
173.99270833239132
0
ARC
5
129
100
AcDbEntity
8
0
100
AcDbCircle
10
-51.666323676508412
20
71.112593805557879
30
0
40
7.0771249999999615
210
0
220
0
230
1
100
AcDbArc
50
141.05863602047592
51
155.74136397952378
0
CIRCLE
5
130
100
AcDbEntity
8
0
100
AcDbCircle
10
-51.666323676508377
20
71.112593805557864
30
0
40
2.8499999999999996
210
-0
220
0
230
1
0
SPLINE
5
131
100
AcDbEntity
8
0
100
AcDbSpline
70
0
71
3
72
8
73
4
74
0
42
0.000000001
43
0.0000000001
44
0.0000000001
40
0
40
0
40
0
40
0
40
1
40
1
40
1
40
1
10
-53.013456089299034
20
58.311156897067526
30
0
10
-52.099466983027732
20
59.163282555785841
30
0
10
-51.630018786753325
20
59.950737719288213
30
0
10
-51.392279316875566
20
60.523446760583788
30
0
0
SPLINE
5
132
100
AcDbEntity
8
0
100
AcDbSpline
70
0
71
3
72
8
73
4
74
0
42
0.000000001
43
0.0000000001
44
0.0000000001
40
0
40
0
40
0
40
0
40
1
40
1
40
1
40
1
10
-48.096968296002736
20
81.083656356997679
30
0
10
-48.145597634757102
20
81.704705845871146
30
0
10
-48.345610556531895
20
82.599391307156239
30
0
10
-48.947726064709649
20
83.694357580353994
30
0
0
SPLINE
5
133
100
AcDbEntity
8
0
100
AcDbSpline
70
0
71
3
72
8
73
4
74
0
42
0.000000001
43
0.0000000001
44
0.0000000001
40
0
40
0
40
0
40
0
40
1
40
1
40
1
40
1
10
-42.091802336729842
20
75.639284357295935
30
0
10
-41.687040166892743
20
76.112818797528675
30
0
10
-41.195832503500974
20
76.88688744754424
30
0
10
-40.847334385442373
20
78.086905483383021
30
0
0
SPLINE
5
134
100
AcDbEntity
8
0
100
AcDbSpline
70
0
71
3
72
8
73
4
74
0
42
0.000000001
43
0.0000000001
44
0.0000000001
40
0
40
0
40
0
40
0
40
1
40
1
40
1
40
1
10
-61.240845016286912
20
66.585903253819794
30
0
10
-61.645607186124003
20
66.112368813587054
30
0
10
-62.13681484951578
20
65.338300163571475
30
0
10
-62.485312967574387
20
64.138282127732722
30
0
0
ARC
5
135
100
AcDbEntity
8
0
100
AcDbCircle
10
-51.666323676508348
20
71.112593805557864
30
0
40
7.0771249999999721
210
0
220
-0
230
1
100
AcDbArc
50
6.0586360204761061
51
20.741363979524014
0
LINE
5
136
100
AcDbEntity
8
0
100
AcDbLine
10
-48.652337768435544
20
64.281540650182521
30
0
11
-47.745547478723154
21
62.226344355729921
31
0
0
SPLINE
5
137
100
AcDbEntity
8
0
100
AcDbSpline
70
0
71
3
72
8
73
4
74
0
42
0.000000001
43
0.0000000001
44
0.0000000001
40
0
40
0
40
0
40
0
40
1
40
1
40
1
40
1
10
-44.372444619068013
20
78.794030113082812
30
0
10
-44.859959283084585
20
78.590111426047883
30
0
10
-45.092122178044676
20
78.398461907005583
30
0
10
-45.166209870537926
20
78.329687111530788
30
0
0
ARC
5
138
100
AcDbEntity
8
0
100
AcDbCircle
10
-51.666323676508377
20
71.112593805557836
30
0
40
7.0771249999999792
210
-0
220
0
230
1
100
AcDbArc
50
276.058636020476
51
290.74136397952401
0
ARC
5
139
100
AcDbEntity
8
0
100
AcDbCircle
10
-45.850693646558142
20
66.413035781619229
30
0
40
0.39999999999999836
210
0
220
0
230
1
100
AcDbArc
50
141.05863602047623
51
227.99204860008928
0
ARC
5
140
100
AcDbEntity
8
0
100
AcDbCircle
10
-44.23096289815178
20
71.901775889301135
30
0
40
0.40000000000000102
210
0
220
0
230
1
100
AcDbArc
50
186.05863602047341
51
272.99204860008706
0
ARC
5
141
100
AcDbEntity
8
0
100
AcDbCircle
10
-46.966765652569748
20
76.928223835508106
30
0
40
0.39999999999999059
210
0
220
0
230
1
100
AcDbArc
50
231.05863602047626
51
317.99204860008848
0
SPLINE
5
142
100
AcDbEntity
8
0
100
AcDbSpline
70
0
71
3
72
8
73
4
74
0
42
0.000000001
43
0.0000000001
44
0.0000000001
40
0
40
0
40
0
40
0
40
1
40
1
40
1
40
1
10
-62.255470721482453
20
70.838549445925054
30
0
10
-61.766553510215381
20
70.638016807484107
30
0
10
-61.466872878323279
20
70.609369524643881
30
0
10
-61.365853844303842
20
70.605612739134372
30
0
0
SPLINE
5
143
100
AcDbEntity
8
0
100
AcDbSpline
70
0
71
3
72
8
73
4
74
0
42
0.000000001
43
0.0000000001
44
0.0000000001
40
0
40
0
40
0
40
0
40
1
40
1
40
1
40
1
10
-55.235679057014018
20
61.14153125411805
30
0
10
-55.187049718259651
20
60.52048176524459
30
0
10
-54.987036796484865
20
59.62579630395949
30
0
10
-54.384921288307105
20
58.530830030761734
30
0
0
ARC
5
144
100
AcDbEntity
8
0
100
AcDbCircle
10
-52.455505760251654
20
78.547954583914475
30
0
40
0.39999999999999486
210
-0
220
0
230
1
100
AcDbArc
50
-83.941363979524539
51
2.9920486000860529
0
LINE
5
145
100
AcDbEntity
8
0
100
AcDbLine
10
-61.365853844303842
20
70.605612739134372
30
0
11
-59.122563401993524
21
70.722866437103818
31
0
0
ARC
5
146
100
AcDbEntity
8
0
100
AcDbCircle
10
-57.481953706458611
20
75.8121518294965
30
0
40
0.39999999999999836
210
-0
220
0
230
1
100
AcDbArc
50
-38.941363979523764
51
47.992048600087784
0
LINE
5
147
100
AcDbEntity
8
0
100
AcDbLine
10
-58.883416982481293
20
77.612707611528307
30
0
11
-57.214260213599289
21
76.109372612553088
31
0
0
SPLINE
5
148
100
AcDbEntity
8
0
100
AcDbSpline
70
0
71
3
72
8
73
4
74
0
42
0.000000001
43
0.0000000001
44
0.0000000001
40
0
40
0
40
0
40
0
40
1
40
1
40
1
40
1
10
-60.722258358765671
20
74.623713613877683
30
0
10
-60.819396993052123
20
74.651696544398746
30
0
10
-61.11303276448438
20
74.718083152090102
30
0
10
-61.637386227948184
20
74.681949186063505
30
0
0
ARC
5
149
100
AcDbEntity
8
0
100
AcDbCircle
10
-51.666323676508377
20
71.112593805557864
30
0
40
12.872123082834801
210
0
220
0
230
1
100
AcDbArc
50
257.80729166760898
51
263.99270833239132
0
ARC
5
150
100
AcDbEntity
8
0
100
AcDbCircle
10
-49.018299230750053
20
64.120071742647283
30
0
40
0.39999999999999286
210
0
220
-0
230
1
100
AcDbArc
50
23.807951399910216
51
110.74136397952519
0
SPLINE
5
151
100
AcDbEntity
8
0
100
AcDbSpline
70
0
71
3
72
8
73
4
74
0
42
0.000000001
43
0.0000000001
44
0.0000000001
40
0
40
0
40
0
40
0
40
1
40
1
40
1
40
1
10
-61.637386227948184
20
74.681949186063505
30
0
10
-62.258435716821651
20
74.633319847309139
30
0
10
-63.153121178106758
20
74.433306925534367
30
0
10
-64.248087451304499
20
73.831191417356592
30
0
0
SPLINE
5
152
100
AcDbEntity
8
0
100
AcDbSpline
70
0
71
3
72
8
73
4
74
0
42
0.000000001
43
0.0000000001
44
0.0000000001
40
0
40
0
40
0
40
0
40
1
40
1
40
1
40
1
10
-60.552573126336313
20
67.191817607772634
30
0
10
-60.641047433284363
20
67.1429171406824
30
0
10
-60.895621698941596
20
66.982227715982262
30
0
10
-61.240845016286912
20
66.585903253819794
30
0
0
SPLINE
5
153
100
AcDbEntity
8
0
100
AcDbSpline
70
0
71
3
72
8
73
4
74
0
42
0.000000001
43
0.0000000001
44
0.0000000001
40
0
40
0
40
0
40
0
40
1
40
1
40
1
40
1
10
-47.745547478723154
20
62.226344355729921
30
0
10
-47.696647011632919
20
62.137870048781878
30
0
10
-47.535957586932767
20
61.883295783124638
30
0
10
-47.139633124770306
20
61.538072465779337
30
0
0
SPLINE
5
154
100
AcDbEntity
8
0
100
AcDbSpline
70
0
71
3
72
8
73
4
74
0
42
0.000000001
43
0.0000000001
44
0.0000000001
40
0
40
0
40
0
40
0
40
1
40
1
40
1
40
1
10
-55.177443484828203
20
62.056659123300562
30
0
10
-55.205426415349251
20
61.959520489014118
30
0
10
-55.271813023040615
20
61.665884717581861
30
0
10
-55.235679057014018
20
61.14153125411805
30
0
0
ARC
5
155
100
AcDbEntity
8
0
100
AcDbCircle
10
-51.666323676508405
20
71.11259380555785
30
0
40
7.0771249999999757
210
0
220
0
230
1
100
AcDbArc
50
186.05863602047586
51
200.74136397952392
0
LINE
5
156
100
AcDbEntity
8
0
100
AcDbLine
10
-44.449230370535474
20
64.612479999587421
30
0
11
-46.11838713941745
21
66.115814998562641
31
0
0
LINE
5
157
100
AcDbEntity
8
0
100
AcDbLine
10
-44.704829793697726
20
68.413519670745188
30
0
11
-42.610388994251082
21
67.601473997238045
31
0
0
SPLINE
5
158
100
AcDbEntity
8
0
100
AcDbSpline
70
0
71
3
72
8
73
4
74
0
42
0.000000001
43
0.0000000001
44
0.0000000001
40
0
40
0
40
0
40
0
40
1
40
1
40
1
40
1
10
-42.780074226680433
20
75.033370003343094
30
0
10
-42.69159991973239
20
75.082270470433329
30
0
10
-42.437025654075157
20
75.242959895133467
30
0
10
-42.091802336729842
20
75.639284357295935
30
0
0
LINE
5
159
100
AcDbEntity
8
0
100
AcDbLine
10
-44.835270521133033
20
74.12657971363069
30
0
11
-42.780074226680433
21
75.033370003343094
31
0
0
ARC
5
160
100
AcDbEntity
8
0
100
AcDbCircle
10
-58.658845739418965
20
68.46456935979954
30
0
40
0.39999999999999547
210
-0
220
0
230
1
100
AcDbArc
50
-66.192048600090175
51
20.741363979523872
0
LINE
5
161
100
AcDbEntity
8
0
100
AcDbLine
10
-54.365397811321053
20
64.151099922747207
30
0
11
-55.177443484828203
21
62.056659123300562
31
0
0
SPLINE
5
162
100
AcDbEntity
8
0
100
AcDbSpline
70
0
71
3
72
8
73
4
74
0
42
0.000000001
43
0.0000000001
44
0.0000000001
40
0
40
0
40
0
40
0
40
1
40
1
40
1
40
1
10
-43.984887368983429
20
63.8187147481175
30
0
10
-44.18880605601835
20
64.306229412134073
30
0
10
-44.380455575060644
20
64.538392307094142
30
0
10
-44.449230370535474
20
64.612479999587421
30
0
0
ARC
5
163
100
AcDbEntity
8
0
100
AcDbCircle
10
-51.666323676508398
20
71.112593805557893
30
0
40
7.0771249999999757
210
0
220
0
230
1
100
AcDbArc
50
96.058636020475888
51
110.74136397952392
0
ARC
5
164
100
AcDbEntity
8
0
100
AcDbCircle
10
-54.738347402445548
20
64.295697994933775
30
0
40
0.39999999999999492
210
-0
220
0
230
1
100
AcDbArc
50
-21.19204860008702
51
65.74136397952563
0
LINE
5
165
100
AcDbEntity
8
0
100
AcDbLine
10
-58.497376831883727
20
68.098607897485024
30
0
11
-60.552573126336313
21
67.191817607772634
31
0
0
ARC
5
166
100
AcDbEntity
8
0
100
AcDbCircle
10
-56.365881700447005
20
65.296963775607622
30
0
40
0.40000000000000152
210
0
220
-0
230
1
100
AcDbArc
50
51.058636020479085
51
137.99204860008848
0
SPLINE
5
167
100
AcDbEntity
8
0
100
AcDbSpline
70
0
71
3
72
8
73
4
74
0
42
0.000000001
43
0.0000000001
44
0.0000000001
40
0
40
0
40
0
40
0
40
1
40
1
40
1
40
1
10
-50.31919126371772
20
83.914030714048209
30
0
10
-51.233180369989029
20
83.061905055329888
30
0
10
-51.702628566263428
20
82.274449891827516
30
0
10
-51.940368036141187
20
81.701740850531934
30
0
0
ARC
5
168
100
AcDbEntity
8
0
100
AcDbCircle
10
-51.666323676508377
20
71.112593805557864
30
0
40
12.872123082834804
210
0
220
0
230
1
100
AcDbArc
50
122.80729166760895
51
128.99270833239132
0
LINE
5
169
100
AcDbEntity
8
0
100
AcDbLine
10
-58.627817559319027
20
73.811667940370555
30
0
11
-60.722258358765671
21
74.623713613877683
31
0
0
SPLINE
5
170
100
AcDbEntity
8
0
100
AcDbSpline
70
0
71
3
72
8
73
4
74
0
42
0.000000001
43
0.0000000001
44
0.0000000001
40
0
40
0
40
0
40
0
40
1
40
1
40
1
40
1
10
-47.139633124770306
20
61.538072465779337
30
0
10
-46.666098684537573
20
61.133310295942223
30
0
10
-45.892030034521987
20
60.642102632550461
30
0
10
-44.692011998683235
20
60.293604514491854
30
0
0
ARC
5
171
100
AcDbEntity
8
0
100
AcDbCircle
10
-51.666323676508377
20
71.112593805557864
30
0
40
12.872123082834825
210
-0
220
0
230
1
100
AcDbArc
50
302.80729166760864
51
308.99270833239098
0
SPLINE
5
172
100
AcDbEntity
8
0
100
AcDbSpline
70
0
71
3
72
8
73
4
74
0
42
0.000000001
43
0.0000000001
44
0.0000000001
40
0
40
0
40
0
40
0
40
1
40
1
40
1
40
1
10
-58.960202733948741
20
63.431157498032917
30
0
10
-58.472688069932168
20
63.635076185067838
30
0
10
-58.240525174972085
20
63.826725704110132
30
0
10
-58.166437482478813
20
63.895500499584948
30
0
0
LINE
5
173
100
AcDbEntity
8
0
100
AcDbLine
10
-45.166209870537926
20
78.329687111530788
30
0
11
-46.669544869513153
21
76.660530342648784
31
0
0
ARC
5
174
100
AcDbEntity
8
0
100
AcDbCircle
10
-51.666323676508377
20
71.112593805557864
30
0
40
12.872123082834804
210
0
220
0
230
1
100
AcDbArc
50
212.80729166760892
51
218.99270833239103
0
SPLINE
5
175
100
AcDbEntity
8
0
100
AcDbSpline
70
0
71
3
72
8
73
4
74
0
42
0.000000001
43
0.0000000001
44
0.0000000001
40
0
40
0
40
0
40
0
40
1
40
1
40
1
40
1
10
-41.695261125068569
20
67.543238425052223
30
0
10
-41.074211636195116
20
67.59186776380659
30
0
10
-40.179526174909995
20
67.791880685581376
30
0
10
-39.084559901712254
20
68.393996193759136
30
0
0
SPLINE
5
176
100
AcDbEntity
8
0
100
AcDbSpline
70
0
71
3
72
8
73
4
74
0
42
0.000000001
43
0.0000000001
44
0.0000000001
40
0
40
0
40
0
40
0
40
1
40
1
40
1
40
1
10
-42.610388994251082
20
67.601473997238045
30
0
10
-42.51325035996463
20
67.573491066716983
30
0
10
-42.219614588532373
20
67.507104459025626
30
0
10
-41.695261125068569
20
67.543238425052223
30
0
0
SPLINE
5
177
100
AcDbEntity
8
0
100
AcDbSpline
70
0
71
3
72
8
73
4
74
0
42
0.000000001
43
0.0000000001
44
0.0000000001
40
0
40
0
40
0
40
0
40
1
40
1
40
1
40
1
10
-61.670872987674088
20
63.013177422873085
30
0
10
-60.422041260996259
20
62.969433359600771
30
0
10
-59.533276372002007
20
63.194298242592204
30
0
10
-58.960202733948741
20
63.431157498032917
30
0
0
SPLINE
5
178
100
AcDbEntity
8
0
100
AcDbSpline
70
0
71
3
72
8
73
4
74
0
42
0.000000001
43
0.0000000001
44
0.0000000001
40
0
40
0
40
0
40
0
40
1
40
1
40
1
40
1
10
-41.661774365342666
20
79.212010188242644
30
0
10
-42.910606092020494
20
79.255754251514944
30
0
10
-43.799370981014761
20
79.030889368523532
30
0
10
-44.372444619068013
20
78.794030113082812
30
0
0
SPLINE
5
179
100
AcDbEntity
8
0
100
AcDbSpline
70
0
71
3
72
8
73
4
74
0
42
0.000000001
43
0.0000000001
44
0.0000000001
40
0
40
0
40
0
40
0
40
1
40
1
40
1
40
1
10
-43.56690729382359
20
61.108044494392153
30
0
10
-43.523163230551283
20
62.356876221069982
30
0
10
-43.748028113542716
20
63.245641110064241
30
0
10
-43.984887368983429
20
63.8187147481175
30
0
0
LINE
5
180
100
AcDbEntity
8
0
100
AcDbLine
10
-52.173304742931862
20
80.812123973353351
30
0
11
-52.056051044962423
21
78.568833531043012
31
0
0
ENDSEC
0
SECTION
2
OBJECTS
0
DICTIONARY
5
C
100
AcDbDictionary
3
ACAD_GROUP
350
D
3
ACAD_MLINESTYLE
350
17
0
DICTIONARY
5
D
100
AcDbDictionary
0
DICTIONARY
5
1A
330
C
100
AcDbDictionary
0
DICTIONARY
5
17
100
AcDbDictionary
0
ENDSEC
0
EOF
