0
SECTION
2
HEADER
9
$INSUNITS
70
4
9
$ACADVER
1
AC1014
9
$HANDSEED
5
FFFF
0
ENDSEC
0
SECTION
2
TABLES
0
TABLE
2
VPORT
5
8
100
AcDbSymbolTable
0
ENDTAB
0
TABLE
2
LTYPE
5
5
100
AcDbSymbolTable
0
LTYPE
5
14
100
AcDbSymbolTableRecord
100
AcDbLinetypeTableRecord
2
BYBLOCK
70
0
0
LTYPE
5
15
100
AcDbSymbolTableRecord
100
AcDbLinetypeTableRecord
2
BYLAYER
70
0
0
ENDTAB
0
TABLE
2
LAYER
5
2
100
AcDbSymbolTable
70
2
0
LAYER
5
50
100
AcDbSymbolTableRecord
100
AcDbLayerTableRecord
2
0
70
0
6
CONTINUOUS
0
ENDTAB
0
TABLE
2
STYLE
5
3
100
AcDbSymbolTable
70
1
0
STYLE
5
11
100
AcDbSymbolTableRecord
100
AcDbTextStyleTableRecord
2
STANDARD
70
0
0
ENDTAB
0
TABLE
2
VIEW
5
6
100
AcDbSymbolTable
70
0
0
ENDTAB
0
TABLE
2
UCS
5
7
100
AcDbSymbolTable
70
0
0
ENDTAB
0
TABLE
2
APPID
5
9
100
AcDbSymbolTable
70
2
0
APPID
5
12
100
AcDbSymbolTableRecord
100
AcDbRegAppTableRecord
2
ACAD
70
0
0
ENDTAB
0
TABLE
2
DIMSTYLE
5
A
100
AcDbSymbolTable
70
1
0
ENDTAB
0
TABLE
2
BLOCK_RECORD
5
1
100
AcDbSymbolTable
70
1
0
BLOCK_RECORD
5
1F
100
AcDbSymbolTableRecord
100
AcDbBlockTableRecord
2
*MODEL_SPACE
0
BLOCK_RECORD
5
1B
100
AcDbSymbolTableRecord
100
AcDbBlockTableRecord
2
*PAPER_SPACE
0
ENDTAB
0
ENDSEC
0
SECTION
2
BLOCKS
0
BLOCK
5
20
100
AcDbEntity
100
AcDbBlockBegin
2
*MODEL_SPACE
0
ENDBLK
5
21
100
AcDbEntity
100
AcDbBlockEnd
0
BLOCK
5
1C
100
AcDbEntity
100
AcDbBlockBegin
2
*PAPER_SPACE
0
ENDBLK
5
1D
100
AcDbEntity
100
AcDbBlockEnd
0
ENDSEC
0
SECTION
2
ENTITIES
0
SPLINE
5
100
100
AcDbEntity
8
0
100
AcDbSpline
70
0
71
3
72
8
73
4
74
0
42
0.000000001
43
0.0000000001
44
0.0000000001
40
0
40
0
40
0
40
0
40
1
40
1
40
1
40
1
10
5.064294264852558
20
-16.809494896783868
30
0
10
5.5157308103540101
20
-17.401085204702206
30
0
10
6.2815154363300332
20
-18.188198173600497
30
0
10
7.5390301495677505
20
-18.978300767076913
30
0
0
ARC
5
101
100
AcDbEntity
8
0
100
AcDbCircle
10
2.4622858337351787e-14
20
-3.4665759003643722e-14
30
0
40
13.854325000000001
210
-0
220
0
230
1
100
AcDbArc
50
304.152784415665
51
314.24721558433504
0
LINE
5
102
100
AcDbEntity
8
0
100
AcDbLine
10
8.871642523626269
20
-13.901712362255964
30
0
11
7.6652125205430286
21
-12.011257145716861
31
0
0
ARC
5
103
100
AcDbEntity
8
0
100
AcDbCircle
10
11.796073829340566
20
8.0024011033172009
30
0
40
0.39999999999999891
210
0
220
0
230
1
100
AcDbArc
50
214.15278441566383
51
302.54475872980078
0
ARC
5
104
100
AcDbEntity
8
0
100
AcDbCircle
10
-10.210884061464146
20
-9.9460357876373759
30
0
40
0.39999999999994568
210
-0
220
0
230
1
100
AcDbArc
50
-44.144758729800394
51
44.247215584335088
0
SPLINE
5
105
100
AcDbEntity
8
0
100
AcDbSpline
70
0
71
3
72
8
73
4
74
0
42
0.000000001
43
0.0000000001
44
0.0000000001
40
0
40
0
40
0
40
0
40
1
40
1
40
1
40
1
10
-5.0642942648525473
20
16.809494896783868
30
0
10
-5.5157308103540004
20
17.401085204702206
30
0
10
-6.2815154363300216
20
18.188198173600497
30
0
10
-7.5390301495677505
20
18.978300767076913
30
0
0
SPLINE
5
106
100
AcDbEntity
8
0
100
AcDbSpline
70
0
71
3
72
8
73
4
74
0
42
0.000000001
43
0.0000000001
44
0.0000000001
40
0
40
0
40
0
40
0
40
1
40
1
40
1
40
1
10
-15.448645315416867
20
8.3433516617083789
30
0
10
-15.035171794229106
20
7.872332566728919
30
0
10
-14.736774345547232
20
7.6670061833813019
30
0
10
-14.633923979882614
20
7.6034148000046873
30
0
0
LINE
5
107
100
AcDbEntity
8
0
100
AcDbLine
10
-13.706619752075484
20
-3.8928596401152813
30
0
11
-15.863908576806738
21
-4.5055579384390612
31
0
0
ARC
5
108
100
AcDbEntity
8
0
100
AcDbCircle
10
-2.0211259436589267e-16
20
-1.9897614176575765e-15
30
0
40
20.420893114693193
210
-0
220
0
230
1
100
AcDbArc
50
321.6651899923516
51
326.73481000764832
0
ARC
5
109
100
AcDbEntity
8
0
100
AcDbCircle
10
1.3991058975605738e-15
20
3.8784665381322061e-15
30
0
40
20.42089311469315
210
0
220
-0
230
1
100
AcDbArc
50
81.665189992351586
51
86.73481000764842
0
ARC
5
110
100
AcDbEntity
8
0
100
AcDbCircle
10
12.828319561415558
20
-6.2144990494670749
30
0
40
0.39999999999999841
210
0
220
0
230
1
100
AcDbArc
50
154.15278441566511
51
242.54475872980998
0
ARC
5
111
100
AcDbEntity
8
0
100
AcDbCircle
10
-5.3786287328757268e-15
20
-3.4742413494004211e-15
30
0
40
20.4208931146932
210
-0
220
0
230
1
100
AcDbArc
50
291.665189992352
51
296.73481000764843
0
ARC
5
112
100
AcDbEntity
8
0
100
AcDbCircle
10
-8.0024011033172009
20
11.796073829340566
30
0
40
0.39999999999999891
210
-0
220
0
230
1
100
AcDbArc
50
-55.847215584336176
51
32.544758729809324
0
ARC
5
113
100
AcDbEntity
8
0
100
AcDbCircle
10
-6.2144990494670749
20
-12.828319561415558
30
0
40
0.40000000000001501
210
0
220
-0
230
1
100
AcDbArc
50
64.152784415662339
51
152.54475872981874
0
SPLINE
5
114
100
AcDbEntity
8
0
100
AcDbSpline
70
0
71
3
72
8
73
4
74
0
42
0.000000001
43
0.0000000001
44
0.0000000001
40
0
40
0
40
0
40
0
40
1
40
1
40
1
40
1
10
-8.3433516617083878
20
-15.448645315416867
30
0
10
-7.8723325667289288
20
-15.035171794229104
30
0
10
-7.6670061833813126
20
-14.736774345547232
30
0
10
-7.6034148000046979
20
-14.63392397988261
30
0
0
SPLINE
5
115
100
AcDbEntity
8
0
100
AcDbSpline
70
0
71
3
72
8
73
4
74
0
42
0.000000001
43
0.0000000001
44
0.0000000001
40
0
40
0
40
0
40
0
40
1
40
1
40
1
40
1
10
-11.833881921314262
20
11.485768861608944
30
0
10
-11.926686878419321
20
11.563288547456057
30
0
10
-12.21570502543949
20
11.781619653282648
30
0
10
-12.790554933994072
20
12.025302472973449
30
0
0
SPLINE
5
116
100
AcDbEntity
8
0
100
AcDbSpline
70
0
71
3
72
8
73
4
74
0
42
0.000000001
43
0.0000000001
44
0.0000000001
40
0
40
0
40
0
40
0
40
1
40
1
40
1
40
1
10
8.3433516617083878
20
15.448645315416867
30
0
10
7.8723325667289288
20
15.035171794229104
30
0
10
7.6670061833813019
20
14.736774345547232
30
0
10
7.6034148000046873
20
14.633923979882614
30
0
0
ARC
5
117
100
AcDbEntity
8
0
100
AcDbCircle
10
-4.9744035441439414e-15
20
5.0528148591473178e-16
30
0
40
13.854325000000001
210
0
220
0
230
1
100
AcDbArc
50
154.152784415665
51
164.24721558433504
0
LINE
5
118
100
AcDbEntity
8
0
100
AcDbLine
10
-9.9238510852533235
20
-10.224625217744684
30
0
11
-11.485768861608944
21
-11.833881921314262
31
0
0
SPLINE
5
119
100
AcDbEntity
8
0
100
AcDbSpline
70
0
71
3
72
8
73
4
74
0
42
0.000000001
43
0.0000000001
44
0.0000000001
40
0
40
0
40
0
40
0
40
1
40
1
40
1
40
1
10
-17.074741200948953
20
11.201164605626502
30
0
10
-16.55363470008351
20
9.8104621295435326
30
0
10
-15.936580697748886
20
8.9020474239206333
30
0
10
-15.448645315416867
20
8.3433516617083789
30
0
0
ARC
5
120
100
AcDbEntity
8
0
100
AcDbCircle
10
3.8698670985068921
20
13.718961689775142
30
0
40
0.4000000000000114
210
0
220
0
230
1
100
AcDbArc
50
165.85524127017936
51
254.24721558433498
0
ARC
5
121
100
AcDbEntity
8
0
100
AcDbCircle
10
-3.8698670985068921
20
-13.718961689775142
30
0
40
0.39999999999999897
210
-0
220
0
230
1
100
AcDbArc
50
-14.144758729809791
51
74.247215584335549
0
ARC
5
122
100
AcDbEntity
8
0
100
AcDbCircle
10
1.0322457320750622
20
-14.216900152784255
30
0
40
0.40000000000000924
210
0
220
0
230
1
100
AcDbArc
50
94.152784415663419
51
182.54475872981007
0
SPLINE
5
123
100
AcDbEntity
8
0
100
AcDbSpline
70
0
71
3
72
8
73
4
74
0
42
0.000000001
43
0.0000000001
44
0.0000000001
40
0
40
0
40
0
40
0
40
1
40
1
40
1
40
1
10
1.1631224999691687
20
20.387741945879831
30
0
10
0.2192920770081197
20
19.241099240011703
30
0
10
-0.25889113406536102
20
18.252507445671643
30
0
10
-0.49876816596187534
20
17.550595128060632
30
0
0
SPLINE
5
124
100
AcDbEntity
8
0
100
AcDbSpline
70
0
71
3
72
8
73
4
74
0
42
0.000000001
43
0.0000000001
44
0.0000000001
40
0
40
0
40
0
40
0
40
1
40
1
40
1
40
1
10
18.237863700918137
20
9.186577340253363
30
0
10
16.772926777091641
20
9.430637110468151
30
0
10
15.677689563683598
20
9.350460021751033
30
0
10
14.949877149455046
20
9.2072434663523257
30
0
0
SPLINE
5
125
100
AcDbEntity
8
0
100
AcDbSpline
70
0
71
3
72
8
73
4
74
0
42
0.000000001
43
0.0000000001
44
0.0000000001
40
0
40
0
40
0
40
0
40
1
40
1
40
1
40
1
10
9.186577340253363
20
-18.237863700918137
30
0
10
9.430637110468151
20
-16.772926777091641
30
0
10
9.350460021751033
20
-15.677689563683598
30
0
10
9.2072434663523257
20
-14.949877149455046
30
0
0
ARC
5
126
100
AcDbEntity
8
0
100
AcDbCircle
10
-3.4665759003643722e-14
20
-2.4622858337351787e-14
30
0
40
13.854324999999992
210
0
220
0
230
1
100
AcDbArc
50
214.15278441566488
51
224.24721558433512
0
ARC
5
127
100
AcDbEntity
8
0
100
AcDbCircle
10
-12.828319561415558
20
6.2144990494670749
30
0
40
0.39999999999996827
210
-0
220
0
230
1
100
AcDbArc
50
-25.847215584338048
51
62.544758729818078
0
LINE
5
128
100
AcDbEntity
8
0
100
AcDbLine
10
-10.224625217744684
20
9.9238510852533128
30
0
11
-11.833881921314262
21
11.485768861608944
31
0
0
SPLINE
5
129
100
AcDbEntity
8
0
100
AcDbSpline
70
0
71
3
72
8
73
4
74
0
42
0.000000001
43
0.0000000001
44
0.0000000001
40
0
40
0
40
0
40
0
40
1
40
1
40
1
40
1
10
-4.0189399627897862
20
-17.089596737826021
30
0
10
-3.9237796001480394
20
-17.827647245866704
30
0
10
-3.6541471446743663
20
-18.892199385568787
30
0
10
-2.9601587541159939
20
-20.205205659734151
30
0
0
SPLINE
5
130
100
AcDbEntity
8
0
100
AcDbSpline
70
0
71
3
72
8
73
4
74
0
42
0.000000001
43
0.0000000001
44
0.0000000001
40
0
40
0
40
0
40
0
40
1
40
1
40
1
40
1
10
0.49876816596187534
20
-17.550595128060632
30
0
10
0.69994590728773698
20
-16.957007007430072
30
0
10
0.72856504699304492
20
-16.595924044773348
30
0
10
0.73221161762665821
20
-16.475057323630956
30
0
0
ARC
5
131
100
AcDbEntity
8
0
100
AcDbCircle
10
-3.6763539437663138e-15
20
3.3888673152181495e-15
30
0
40
20.420893114693158
210
0
220
0
230
1
100
AcDbArc
50
171.6651899923516
51
176.734810007649
0
ARC
5
132
100
AcDbEntity
8
0
100
AcDbCircle
10
-3.4742413494004211e-15
20
5.3786287328757268e-15
30
0
40
20.4208931146932
210
0
220
0
230
1
100
AcDbArc
50
201.66518999235191
51
206.73481000764798
0
SPLINE
5
133
100
AcDbEntity
8
0
100
AcDbSpline
70
0
71
3
72
8
73
4
74
0
42
0.000000001
43
0.0000000001
44
0.0000000001
40
0
40
0
40
0
40
0
40
1
40
1
40
1
40
1
10
4.0300266554924962
20
15.991326800048002
30
0
10
4.0507581941769235
20
16.110458093421634
30
0
10
4.0953294047490187
20
16.469920703809095
30
0
10
4.0189399627897862
20
17.089596737826021
30
0
0
ARC
5
134
100
AcDbEntity
8
0
100
AcDbCircle
10
13.718961689775142
20
-3.8698670985068921
30
0
40
0.39999999999999897
210
0
220
-0
230
1
100
AcDbArc
50
75.855241270190461
51
164.24721558433603
0
ARC
5
135
100
AcDbEntity
8
0
100
AcDbCircle
10
3.5080776283110437
20
-13.815902886144206
30
0
40
0.39999999999997171
210
0
220
-0
230
1
100
AcDbArc
50
15.855241270181855
51
104.24721558433671
0
ARC
5
136
100
AcDbEntity
8
0
100
AcDbCircle
10
-7.8736716364480344e-15
20
-8.2465322991784715e-15
30
0
40
20.420893114693193
210
0
220
0
230
1
100
AcDbArc
50
141.66518999235157
51
146.73481000764838
0
SPLINE
5
137
100
AcDbEntity
8
0
100
AcDbSpline
70
0
71
3
72
8
73
4
74
0
42
0.000000001
43
0.0000000001
44
0.0000000001
40
0
40
0
40
0
40
0
40
1
40
1
40
1
40
1
10
17.089596737826021
20
-4.0189399627897862
30
0
10
17.827647245866704
20
-3.9237796001480394
30
0
10
18.892199385568787
20
-3.6541471446743663
30
0
10
20.205205659734151
20
-2.9601587541159899
30
0
0
LINE
5
138
100
AcDbEntity
8
0
100
AcDbLine
10
-8.871642523626269
20
13.901712362255964
30
0
11
-7.665212520543017
21
12.011257145716939
31
0
0
SPLINE
5
139
100
AcDbEntity
8
0
100
AcDbSpline
70
0
71
3
72
8
73
4
74
0
42
0.000000001
43
0.0000000001
44
0.0000000001
40
0
40
0
40
0
40
0
40
1
40
1
40
1
40
1
10
-1.1631224999691716
20
-20.387741945879831
30
0
10
-0.21929207700812969
20
-19.2410992400117
30
0
10
0.25889113406536102
20
-18.252507445671643
30
0
10
0.49876816596187534
20
-17.550595128060632
30
0
0
SPLINE
5
140
100
AcDbEntity
8
0
100
AcDbSpline
70
0
71
3
72
8
73
4
74
0
42
0.000000001
43
0.0000000001
44
0.0000000001
40
0
40
0
40
0
40
0
40
1
40
1
40
1
40
1
10
-16.809494896783868
20
-5.064294264852558
30
0
10
-17.401085204702206
20
-5.5157308103540101
30
0
10
-18.188198173600497
20
-6.2815154363300332
30
0
10
-18.978300767076913
20
-7.5390301495677505
30
0
0
SPLINE
5
141
100
AcDbEntity
8
0
100
AcDbSpline
70
0
71
3
72
8
73
4
74
0
42
0.000000001
43
0.0000000001
44
0.0000000001
40
0
40
0
40
0
40
0
40
1
40
1
40
1
40
1
10
20.387741945879831
20
-1.1631224999691676
30
0
10
19.241099240011703
20
-0.2192920770081197
30
0
10
18.252507445671647
20
0.25889113406537129
30
0
10
17.550595128060632
20
0.49876816596187534
30
0
0
SPLINE
5
142
100
AcDbEntity
8
0
100
AcDbSpline
70
0
71
3
72
8
73
4
74
0
42
0.000000001
43
0.0000000001
44
0.0000000001
40
0
40
0
40
0
40
0
40
1
40
1
40
1
40
1
10
4.0189399627897862
20
17.089596737826021
30
0
10
3.9237796001480394
20
17.827647245866704
30
0
10
3.6541471446743663
20
18.892199385568787
30
0
10
2.9601587541159913
20
20.205205659734151
30
0
0
LINE
5
143
100
AcDbEntity
8
0
100
AcDbLine
10
-16.475057323630956
20
-0.73221161762665821
30
0
11
-14.234660079849768
21
-0.63264019533834892
31
0
0
ARC
5
144
100
AcDbEntity
8
0
100
AcDbCircle
10
-9.2570952710079344e-15
20
-2.0751354518398469e-15
30
0
40
13.854324999999982
210
0
220
-0
230
1
100
AcDbArc
50
4.1527844156649856
51
14.24721558433505
0
ARC
5
145
100
AcDbEntity
8
0
100
AcDbCircle
10
8.0024011033172133
20
-11.796073829340566
30
0
40
0.39999999999999158
210
0
220
0
230
1
100
AcDbArc
50
124.15278441566201
51
212.54475872979981
0
ARC
5
146
100
AcDbEntity
8
0
100
AcDbCircle
10
3.7774102409492599e-15
20
-2.3939866063893614e-15
30
0
40
13.854324999999974
210
0
220
0
230
1
100
AcDbArc
50
94.152784415665039
51
104.24721558433508
0
ARC
5
147
100
AcDbEntity
8
0
100
AcDbCircle
10
-5.50912996483138e-14
20
2.1678300280688554e-14
30
0
40
13.854325000000035
210
-0
220
0
230
1
100
AcDbArc
50
334.152784415665
51
344.24721558433498
0
CIRCLE
5
148
100
AcDbEntity
8
0
100
AcDbCircle
10
0
20
0
30
0
40
3.3500000000000001
210
-0
220
0
230
1
0
ARC
5
149
100
AcDbEntity
8
0
100
AcDbCircle
10
-13.718961689775142
20
3.8698670985068921
30
0
40
0.39999999999999897
210
0
220
0
230
1
100
AcDbArc
50
255.85524127019019
51
344.24721558433538
0
SPLINE
5
150
100
AcDbEntity
8
0
100
AcDbSpline
70
0
71
3
72
8
73
4
74
0
42
0.000000001
43
0.0000000001
44
0.0000000001
40
0
40
0
40
0
40
0
40
1
40
1
40
1
40
1
10
-17.089596737826021
20
4.0189399627897862
30
0
10
-17.827647245866704
20
3.9237796001480394
30
0
10
-18.892199385568787
20
3.6541471446743663
30
0
10
-20.205205659734151
20
2.9601587541159926
30
0
0
LINE
5
151
100
AcDbEntity
8
0
100
AcDbLine
10
9.9238510852533128
20
10.224625217744684
30
0
11
11.485768861608944
21
11.833881921314262
31
0
0
LINE
5
152
100
AcDbEntity
8
0
100
AcDbLine
10
10.224625217744684
20
-9.9238510852533235
30
0
11
11.833881921314262
21
-11.485768861608944
31
0
0
SPLINE
5
153
100
AcDbEntity
8
0
100
AcDbSpline
70
0
71
3
72
8
73
4
74
0
42
0.000000001
43
0.0000000001
44
0.0000000001
40
0
40
0
40
0
40
0
40
1
40
1
40
1
40
1
10
-20.387741945879831
20
1.1631224999691705
30
0
10
-19.2410992400117
20
0.21929207700812969
30
0
10
-18.252507445671643
20
-0.25889113406536102
30
0
10
-17.550595128060632
20
-0.49876816596187534
30
0
0
SPLINE
5
154
100
AcDbEntity
8
0
100
AcDbSpline
70
0
71
3
72
8
73
4
74
0
42
0.000000001
43
0.0000000001
44
0.0000000001
40
0
40
0
40
0
40
0
40
1
40
1
40
1
40
1
10
12.025302472973449
20
12.790554933994072
30
0
10
12.311916435512739
20
13.477305604554244
30
0
10
12.610683949238748
20
14.534051028926143
30
0
10
12.666175510166436
20
16.018142012960933
30
0
0
ARC
5
155
100
AcDbEntity
8
0
100
AcDbCircle
10
3.979522835315153e-15
20
-4.0422518873178534e-16
30
0
40
20.42089311469315
210
-0
220
0
230
1
100
AcDbArc
50
351.6651899923516
51
356.73481000764843
0
SPLINE
5
156
100
AcDbEntity
8
0
100
AcDbSpline
70
0
71
3
72
8
73
4
74
0
42
0.000000001
43
0.0000000001
44
0.0000000001
40
0
40
0
40
0
40
0
40
1
40
1
40
1
40
1
10
15.863908576806738
20
4.5055579384390612
30
0
10
15.977445072596211
20
4.5471695459656321
30
0
10
16.311034430188521
20
4.6883010505264933
30
0
10
16.809494896783868
20
5.064294264852558
30
0
0
SPLINE
5
157
100
AcDbEntity
8
0
100
AcDbSpline
70
0
71
3
72
8
73
4
74
0
42
0.000000001
43
0.0000000001
44
0.0000000001
40
0
40
0
40
0
40
0
40
1
40
1
40
1
40
1
10
15.991326800048002
20
-4.0300266554924962
30
0
10
16.110458093421634
20
-4.0507581941769235
30
0
10
16.469920703809095
20
-4.0953294047490187
30
0
10
17.089596737826021
20
-4.0189399627897862
30
0
0
ARC
5
158
100
AcDbEntity
8
0
100
AcDbCircle
10
-2.1221822408418732e-15
20
-2.0892494885404554e-14
30
0
40
13.854324999999989
210
0
220
-0
230
1
100
AcDbArc
50
64.152784415664982
51
74.247215584335038
0
SPLINE
5
159
100
AcDbEntity
8
0
100
AcDbSpline
70
0
71
3
72
8
73
4
74
0
42
0.000000001
43
0.0000000001
44
0.0000000001
40
0
40
0
40
0
40
0
40
1
40
1
40
1
40
1
10
-9.186577340253363
20
18.237863700918137
30
0
10
-9.430637110468151
20
16.772926777091641
30
0
10
-9.3504600217509353
20
15.67768956368359
30
0
10
-9.2072434663523257
20
14.949877149455046
30
0
0
ARC
5
160
100
AcDbEntity
8
0
100
AcDbCircle
10
-4.3837480240469383e-15
20
-3.5752976465833677e-15
30
0
40
20.420893114693158
210
0
220
0
230
1
100
AcDbArc
50
261.6651899923516
51
266.73481000764843
0
SPLINE
5
161
100
AcDbEntity
8
0
100
AcDbSpline
70
0
71
3
72
8
73
4
74
0
42
0.000000001
43
0.0000000001
44
0.0000000001
40
0
40
0
40
0
40
0
40
1
40
1
40
1
40
1
10
-4.0300266554924962
20
-15.991326800048002
30
0
10
-4.0507581941769235
20
-16.110458093421634
30
0
10
-4.0953294047490187
20
-16.469920703809095
30
0
10
-4.0189399627897862
20
-17.089596737826021
30
0
0
SPLINE
5
162
100
AcDbEntity
8
0
100
AcDbSpline
70
0
71
3
72
8
73
4
74
0
42
0.000000001
43
0.0000000001
44
0.0000000001
40
0
40
0
40
0
40
0
40
1
40
1
40
1
40
1
10
17.074741200948953
20
-11.201164605626513
30
0
10
16.55363470008351
20
-9.8104621295435432
30
0
10
15.936580697748884
20
-8.9020474239206528
30
0
10
15.448645315416867
20
-8.3433516617083878
30
0
0
SPLINE
5
163
100
AcDbEntity
8
0
100
AcDbSpline
70
0
71
3
72
8
73
4
74
0
42
0.000000001
43
0.0000000001
44
0.0000000001
40
0
40
0
40
0
40
0
40
1
40
1
40
1
40
1
10
-0.49876816596187534
20
17.550595128060632
30
0
10
-0.69994590728773698
20
16.957007007430072
30
0
10
-0.72856504699304492
20
16.595924044773348
30
0
10
-0.73221161762666798
20
16.47505732363096
30
0
0
LINE
5
164
100
AcDbEntity
8
0
100
AcDbLine
10
3.8928596401152706
20
-13.706619752075547
30
0
11
4.5055579384390612
21
-15.863908576806738
31
0
0
SPLINE
5
165
100
AcDbEntity
8
0
100
AcDbSpline
70
0
71
3
72
8
73
4
74
0
42
0.000000001
43
0.0000000001
44
0.0000000001
40
0
40
0
40
0
40
0
40
1
40
1
40
1
40
1
10
15.448645315416867
20
-8.3433516617083878
30
0
10
15.035171794229104
20
-7.8723325667289288
30
0
10
14.736774345547232
20
-7.6670061833813126
30
0
10
14.63392397988261
20
-7.6034148000046979
30
0
0
ARC
5
166
100
AcDbEntity
8
0
100
AcDbCircle
10
-3.5080776283110349
20
13.815902886144205
30
0
40
0.39999999999999875
210
0
220
0
230
1
100
AcDbArc
50
195.85524127018971
51
284.24721558433492
0
SPLINE
5
167
100
AcDbEntity
8
0
100
AcDbSpline
70
0
71
3
72
8
73
4
74
0
42
0.000000001
43
0.0000000001
44
0.0000000001
40
0
40
0
40
0
40
0
40
1
40
1
40
1
40
1
10
-12.790554933994072
20
12.025302472973449
30
0
10
-13.477305604554244
20
12.311916435512739
30
0
10
-14.534051028926143
20
12.610683949238748
30
0
10
-16.018142012960933
20
12.666175510166436
30
0
0
LINE
5
168
100
AcDbEntity
8
0
100
AcDbLine
10
13.816710725368564
20
-3.4819945343307768
30
0
11
15.991326800048002
21
-4.0300266554924962
31
0
0
LINE
5
169
100
AcDbEntity
8
0
100
AcDbLine
10
-13.816710725368566
20
3.4819945343307768
30
0
11
-15.991326800048002
21
4.0300266554924962
31
0
0
SPLINE
5
170
100
AcDbEntity
8
0
100
AcDbSpline
70
0
71
3
72
8
73
4
74
0
42
0.000000001
43
0.0000000001
44
0.0000000001
40
0
40
0
40
0
40
0
40
1
40
1
40
1
40
1
10
17.550595128060632
20
0.49876816596187534
30
0
10
16.957007007430072
20
0.69994590728773698
30
0
10
16.595924044773348
20
0.72856504699304492
30
0
10
16.47505732363096
20
0.73221161762666798
30
0
0
ARC
5
171
100
AcDbEntity
8
0
100
AcDbCircle
10
9.9460357876373759
20
-10.210884061464146
30
0
40
0.39999999999994568
210
0
220
-0
230
1
100
AcDbArc
50
45.855241270199627
51
134.24721558433939
0
ARC
5
172
100
AcDbEntity
8
0
100
AcDbCircle
10
-13.815902886144206
20
-3.5080776283110437
30
0
40
0.39999999999999875
210
-0
220
0
230
1
100
AcDbArc
50
-74.144758729809979
51
14.24721558433761
0
LINE
5
173
100
AcDbEntity
8
0
100
AcDbLine
10
14.63392397988261
20
-7.6034148000046979
30
0
11
12.643897341055233
21
-6.5694475593066946
31
0
0
LINE
5
174
100
AcDbEntity
8
0
100
AcDbLine
10
-14.633923979882614
20
7.6034148000046873
30
0
11
-12.643897341055295
21
6.5694475593066972
31
0
0
ARC
5
175
100
AcDbEntity
8
0
100
AcDbCircle
10
6.0546582871549999e-15
20
-9.6613204597397206e-15
30
0
40
20.420893114693182
210
0
220
-0
230
1
100
AcDbArc
50
21.665189992351621
51
26.734810007648431
0
LINE
5
176
100
AcDbEntity
8
0
100
AcDbLine
10
-3.8928596401152724
20
13.706619752075484
30
0
11
-4.5055579384390612
21
15.863908576806738
31
0
0
SPLINE
5
177
100
AcDbEntity
8
0
100
AcDbSpline
70
0
71
3
72
8
73
4
74
0
42
0.000000001
43
0.0000000001
44
0.0000000001
40
0
40
0
40
0
40
0
40
1
40
1
40
1
40
1
10
-18.237863700918137
20
-9.186577340253363
30
0
10
-16.772926777091641
20
-9.430637110468151
30
0
10
-15.677689563683598
20
-9.350460021751033
30
0
10
-14.949877149455046
20
-9.2072434663523257
30
0
0
ARC
5
178
100
AcDbEntity
8
0
100
AcDbCircle
10
-5.7985361846081874e-15
20
-1.7503627570186407e-14
30
0
40
13.85432500000004
210
0
220
-0
230
1
100
AcDbArc
50
34.152784415664932
51
44.247215584335009
0
ARC
5
179
100
AcDbEntity
8
0
100
AcDbCircle
10
10.210884061464146
20
9.9460357876373759
30
0
40
0.3999999999999535
210
0
220
0
230
1
100
AcDbArc
50
135.85524127020071
51
224.2472155843397
0
LINE
5
180
100
AcDbEntity
8
0
100
AcDbLine
10
7.6034148000046873
20
14.633923979882614
30
0
11
6.5694475593066972
21
12.643897341055295
31
0
0
ARC
5
181
100
AcDbEntity
8
0
100
AcDbCircle
10
-4.5701783554121553e-15
20
4.4848043212298845e-15
30
0
40
20.4208931146932
210
0
220
-0
230
1
100
AcDbArc
50
51.6651899923516
51
56.734810007648385
0
ARC
5
182
100
AcDbEntity
8
0
100
AcDbCircle
10
3.3825944100178801e-14
20
-3.4359141042201758e-15
30
0
40
13.854325000000001
210
0
220
0
230
1
100
AcDbArc
50
184.15278441566497
51
194.24721558433495
0
ARC
5
183
100
AcDbEntity
8
0
100
AcDbCircle
10
1.9066518816932625e-14
20
3.9274264604236122e-14
30
0
40
13.854325000000001
210
0
220
0
230
1
100
AcDbArc
50
244.15278441566494
51
254.24721558433498
0
ARC
5
184
100
AcDbEntity
8
0
100
AcDbCircle
10
14.216900152784255
20
1.0322457320750622
30
0
40
0.39999999999999858
210
0
220
0
230
1
100
AcDbArc
50
184.1527844156638
51
272.54475872981016
0
SPLINE
5
185
100
AcDbEntity
8
0
100
AcDbSpline
70
0
71
3
72
8
73
4
74
0
42
0.000000001
43
0.0000000001
44
0.0000000001
40
0
40
0
40
0
40
0
40
1
40
1
40
1
40
1
10
-15.991326800048002
20
4.0300266554924962
30
0
10
-16.110458093421634
20
4.0507581941769235
30
0
10
-16.469920703809095
20
4.0953294047490187
30
0
10
-17.089596737826021
20
4.0189399627897862
30
0
0
ARC
5
186
100
AcDbEntity
8
0
100
AcDbCircle
10
2.1436103616499533e-14
20
-3.6352351529752464e-14
30
0
40
13.85432500000007
210
0
220
0
230
1
100
AcDbArc
50
124.15278441566488
51
134.24721558433501
0
LINE
5
187
100
AcDbEntity
8
0
100
AcDbLine
10
0.73221161762665821
20
-16.475057323630956
30
0
11
0.6326401953383578
21
-14.234660079849693
31
0
0
SPLINE
5
188
100
AcDbEntity
8
0
100
AcDbSpline
70
0
71
3
72
8
73
4
74
0
42
0.000000001
43
0.0000000001
44
0.0000000001
40
0
40
0
40
0
40
0
40
1
40
1
40
1
40
1
10
-4.5055579384390612
20
15.863908576806738
30
0
10
-4.5471695459656321
20
15.977445072596211
30
0
10
-4.6883010505264933
20
16.311034430188521
30
0
10
-5.0642942648525473
20
16.809494896783868
30
0
0
SPLINE
5
189
100
AcDbEntity
8
0
100
AcDbSpline
70
0
71
3
72
8
73
4
74
0
42
0.000000001
43
0.0000000001
44
0.0000000001
40
0
40
0
40
0
40
0
40
1
40
1
40
1
40
1
10
12.790554933994072
20
-12.025302472973449
30
0
10
13.477305604554244
20
-12.311916435512739
30
0
10
14.534051028926143
20
-12.610683949238748
30
0
10
16.018142012960933
20
-12.666175510166436
30
0
0
ARC
5
190
100
AcDbEntity
8
0
100
AcDbCircle
10
-14.216900152784255
20
-1.0322457320750622
30
0
40
0.40000000000000119
210
0
220
-0
230
1
100
AcDbArc
50
4.1527844156641081
51
92.544758729820785
0
SPLINE
5
191
100
AcDbEntity
8
0
100
AcDbSpline
70
0
71
3
72
8
73
4
74
0
42
0.000000001
43
0.0000000001
44
0.0000000001
40
0
40
0
40
0
40
0
40
1
40
1
40
1
40
1
10
16.809494896783868
20
5.064294264852558
30
0
10
17.401085204702206
20
5.5157308103540004
30
0
10
18.188198173600497
20
6.2815154363300216
30
0
10
18.978300767076913
20
7.5390301495677505
30
0
0
LINE
5
192
100
AcDbEntity
8
0
100
AcDbLine
10
-7.6034148000046979
20
-14.63392397988261
30
0
11
-6.569447559306707
21
-12.643897341055295
31
0
0
ARC
5
193
100
AcDbEntity
8
0
100
AcDbCircle
10
1.2645962586226081e-14
20
5.7514893956061607e-15
30
0
40
20.420893114693182
210
0
220
0
230
1
100
AcDbArc
50
111.66518999235164
51
116.73481000764845
0
SPLINE
5
194
100
AcDbEntity
8
0
100
AcDbSpline
70
0
71
3
72
8
73
4
74
0
42
0.000000001
43
0.0000000001
44
0.0000000001
40
0
40
0
40
0
40
0
40
1
40
1
40
1
40
1
10
-9.2072434663523257
20
14.949877149455046
30
0
10
-9.0846744407012032
20
14.335225886941366
30
0
10
-8.9289178613920921
20
14.008209298554233
30
0
10
-8.871642523626269
20
13.901712362255964
30
0
0
SPLINE
5
195
100
AcDbEntity
8
0
100
AcDbSpline
70
0
71
3
72
8
73
4
74
0
42
0.000000001
43
0.0000000001
44
0.0000000001
40
0
40
0
40
0
40
0
40
1
40
1
40
1
40
1
10
11.201164605626502
20
17.074741200948953
30
0
10
9.8104621295435432
20
16.55363470008351
30
0
10
8.902047423920644
20
15.936580697748886
30
0
10
8.3433516617083878
20
15.448645315416867
30
0
0
SPLINE
5
196
100
AcDbEntity
8
0
100
AcDbSpline
70
0
71
3
72
8
73
4
74
0
42
0.000000001
43
0.0000000001
44
0.0000000001
40
0
40
0
40
0
40
0
40
1
40
1
40
1
40
1
10
-14.949877149455046
20
-9.2072434663523257
30
0
10
-14.335225886941366
20
-9.0846744407012032
30
0
10
-14.008209298554233
20
-8.9289178613920921
30
0
10
-13.901712362255964
20
-8.871642523626269
30
0
0
SPLINE
5
197
100
AcDbEntity
8
0
100
AcDbSpline
70
0
71
3
72
8
73
4
74
0
42
0.000000001
43
0.0000000001
44
0.0000000001
40
0
40
0
40
0
40
0
40
1
40
1
40
1
40
1
10
11.833881921314262
20
-11.485768861608944
30
0
10
11.926686878419321
20
-11.563288547456057
30
0
10
12.21570502543949
20
-11.781619653282648
30
0
10
12.790554933994072
20
-12.025302472973449
30
0
0
ARC
5
198
100
AcDbEntity
8
0
100
AcDbCircle
10
-9.9460357876373777
20
10.210884061464133
30
0
40
0.39999999999994479
210
0
220
0
230
1
100
AcDbArc
50
225.85524127019963
51
314.24721558433936
0
ARC
5
199
100
AcDbEntity
8
0
100
AcDbCircle
10
-1.0322457320750622
20
14.216900152784255
30
0
40
0.39999999999999858
210
-0
220
0
230
1
100
AcDbArc
50
-85.847215584336041
51
2.5447587298096366
0
LINE
5
200
100
AcDbEntity
8
0
100
AcDbLine
10
13.706619752075547
20
3.8928596401152706
30
0
11
15.863908576806738
21
4.5055579384390612
31
0
0
SPLINE
5
201
100
AcDbEntity
8
0
100
AcDbSpline
70
0
71
3
72
8
73
4
74
0
42
0.000000001
43
0.0000000001
44
0.0000000001
40
0
40
0
40
0
40
0
40
1
40
1
40
1
40
1
10
14.949877149455046
20
9.2072434663523257
30
0
10
14.335225886941366
20
9.0846744407012032
30
0
10
14.008209298554233
20
8.9289178613920921
30
0
10
13.901712362255964
20
8.871642523626269
30
0
0
SPLINE
5
202
100
AcDbEntity
8
0
100
AcDbSpline
70
0
71
3
72
8
73
4
74
0
42
0.000000001
43
0.0000000001
44
0.0000000001
40
0
40
0
40
0
40
0
40
1
40
1
40
1
40
1
10
-11.201164605626513
20
-17.074741200948953
30
0
10
-9.8104621295435432
20
-16.55363470008351
30
0
10
-8.9020474239206528
20
-15.936580697748884
30
0
10
-8.3433516617083878
20
-15.448645315416867
30
0
0
SPLINE
5
203
100
AcDbEntity
8
0
100
AcDbSpline
70
0
71
3
72
8
73
4
74
0
42
0.000000001
43
0.0000000001
44
0.0000000001
40
0
40
0
40
0
40
0
40
1
40
1
40
1
40
1
10
-17.550595128060632
20
-0.49876816596187534
30
0
10
-16.957007007430072
20
-0.69994590728773698
30
0
10
-16.595924044773348
20
-0.72856504699304492
30
0
10
-16.475057323630956
20
-0.73221161762665821
30
0
0
ARC
5
204
100
AcDbEntity
8
0
100
AcDbCircle
10
2.9463148813061188e-15
20
3.8901403941505683e-14
30
0
40
13.854325000000001
210
-0
220
0
230
1
100
AcDbArc
50
274.15278441566505
51
284.24721558433504
0
ARC
5
205
100
AcDbEntity
8
0
100
AcDbCircle
10
-11.796073829340566
20
-8.0024011033172133
30
0
40
0.3999999999999993
210
0
220
-0
230
1
100
AcDbArc
50
34.152784415664605
51
122.5447587298099
0
LINE
5
206
100
AcDbEntity
8
0
100
AcDbLine
10
-0.73221161762666798
20
16.47505732363096
30
0
11
-0.6326401953383578
21
14.234660079849689
31
0
0
SPLINE
5
207
100
AcDbEntity
8
0
100
AcDbSpline
70
0
71
3
72
8
73
4
74
0
42
0.000000001
43
0.0000000001
44
0.0000000001
40
0
40
0
40
0
40
0
40
1
40
1
40
1
40
1
10
4.5055579384390612
20
-15.863908576806738
30
0
10
4.5471695459656321
20
-15.977445072596211
30
0
10
4.688301050526503
20
-16.311034430188521
30
0
10
5.064294264852558
20
-16.809494896783868
30
0
0
LINE
5
208
100
AcDbEntity
8
0
100
AcDbLine
10
16.47505732363096
20
0.73221161762666798
30
0
11
14.234660079849693
21
0.6326401953383578
31
0
0
ARC
5
209
100
AcDbEntity
8
0
100
AcDbCircle
10
6.2144990494670749
20
12.828319561415558
30
0
40
0.39999999999999869
210
0
220
0
230
1
100
AcDbArc
50
244.15278441566406
51
332.54475872981811
0
SPLINE
5
210
100
AcDbEntity
8
0
100
AcDbSpline
70
0
71
3
72
8
73
4
74
0
42
0.000000001
43
0.0000000001
44
0.0000000001
40
0
40
0
40
0
40
0
40
1
40
1
40
1
40
1
10
11.485768861608944
20
11.833881921314262
30
0
10
11.563288547456057
20
11.926686878419321
30
0
10
11.781619653282648
20
12.21570502543949
30
0
10
12.025302472973449
20
12.790554933994072
30
0
0
LINE
5
211
100
AcDbEntity
8
0
100
AcDbLine
10
-3.4819945343307768
20
-13.816710725368566
30
0
11
-4.0300266554924962
21
-15.991326800048002
31
0
0
LINE
5
212
100
AcDbEntity
8
0
100
AcDbLine
10
-13.901712362255964
20
-8.871642523626269
30
0
11
-12.011257145716945
21
-7.6652125205430286
31
0
0
LINE
5
213
100
AcDbEntity
8
0
100
AcDbLine
10
3.4819945343307834
20
13.816710725368642
30
0
11
4.0300266554924962
21
15.991326800048002
31
0
0
SPLINE
5
214
100
AcDbEntity
8
0
100
AcDbSpline
70
0
71
3
72
8
73
4
74
0
42
0.000000001
43
0.0000000001
44
0.0000000001
40
0
40
0
40
0
40
0
40
1
40
1
40
1
40
1
10
-12.025302472973449
20
-12.790554933994072
30
0
10
-12.311916435512739
20
-13.477305604554244
30
0
10
-12.610683949238748
20
-14.534051028926143
30
0
10
-12.666175510166436
20
-16.018142012960933
30
0
0
SPLINE
5
215
100
AcDbEntity
8
0
100
AcDbSpline
70
0
71
3
72
8
73
4
74
0
42
0.000000001
43
0.0000000001
44
0.0000000001
40
0
40
0
40
0
40
0
40
1
40
1
40
1
40
1
10
9.2072434663523257
20
-14.949877149455046
30
0
10
9.0846744407012032
20
-14.335225886941366
30
0
10
8.9289178613920921
20
-14.008209298554233
30
0
10
8.871642523626269
20
-13.901712362255964
30
0
0
SPLINE
5
216
100
AcDbEntity
8
0
100
AcDbSpline
70
0
71
3
72
8
73
4
74
0
42
0.000000001
43
0.0000000001
44
0.0000000001
40
0
40
0
40
0
40
0
40
1
40
1
40
1
40
1
10
-15.863908576806738
20
-4.5055579384390612
30
0
10
-15.977445072596211
20
-4.5471695459656321
30
0
10
-16.311034430188521
20
-4.688301050526503
30
0
10
-16.809494896783868
20
-5.064294264852558
30
0
0
LINE
5
217
100
AcDbEntity
8
0
100
AcDbLine
10
13.901712362255964
20
8.871642523626269
30
0
11
12.011257145716861
21
7.6652125205430286
31
0
0
SPLINE
5
218
100
AcDbEntity
8
0
100
AcDbSpline
70
0
71
3
72
8
73
4
74
0
42
0.000000001
43
0.0000000001
44
0.0000000001
40
0
40
0
40
0
40
0
40
1
40
1
40
1
40
1
10
-11.485768861608944
20
-11.833881921314262
30
0
10
-11.563288547456057
20
-11.926686878419321
30
0
10
-11.781619653282648
20
-12.21570502543949
30
0
10
-12.025302472973449
20
-12.790554933994072
30
0
0
ARC
5
219
100
AcDbEntity
8
0
100
AcDbCircle
10
-1.9897614176575765e-15
20
2.0211259436589267e-16
30
0
40
20.4208931146932
210
0
220
0
230
1
100
AcDbArc
50
231.66518999235197
51
236.73481000764792
0
ARC
5
220
100
AcDbEntity
8
0
100
AcDbCircle
10
13.815902886144206
20
3.5080776283110437
30
0
40
0.39999999999997171
210
0
220
0
230
1
100
AcDbArc
50
105.85524127018185
51
194.24721558433609
0
ENDSEC
0
SECTION
2
OBJECTS
0
DICTIONARY
5
C
100
AcDbDictionary
3
ACAD_GROUP
350
D
3
ACAD_MLINESTYLE
350
17
0
DICTIONARY
5
D
100
AcDbDictionary
0
DICTIONARY
5
1A
330
C
100
AcDbDictionary
0
DICTIONARY
5
17
100
AcDbDictionary
0
ENDSEC
0
EOF
