999
dxfrw 0.6.3
  0
SECTION
  2
HEADER
  9
$ACADVER
  1
AC1009
  9
$DWGCODEPAGE
  3
ANSI_1252
  9
$INSBASE
 10
0
 20
0
 30
0
  9
$EXTMIN
 10
-95.19999999999999
 20
229.8000000015233
 30
0
  9
$EXTMAX
 10
95.19999999999999
 20
274.8
 30
0
  9
$LIMMIN
 10
0
 20
0
  9
$LIMMAX
 10
420
 20
297
  9
$ORTHOMODE
 70
    0
  9
$REGENMODE
 70
    1
  9
$FILLMODE
 70
    1
  9
$QTEXTMODE
 70
    0
  9
$MIRRTEXT
 70
    0
  9
$DRAGMODE
 70
    2
  9
$LTSCALE
 40
1
  9
$OSMODE
 70
    0
  9
$ATTMODE
 70
    0
  9
$TEXTSIZE
 40
2.5
  9
$TRACEWID
 40
15.68
  9
$TEXTSTYLE
  7
STANDARD
  9
$CLAYER
  8
0
  9
$CELTYPE
  6
BYLAYER
  9
$CECOLOR
 62
  256
  9
$DIMSCALE
 40
2.5
  9
$DIMASZ
 40
2.5
  9
$DIMEXO
 40
0.625
  9
$DIMDLI
 40
3.75
  9
$DIMRND
 40
0
  9
$DIMDLE
 40
0
  9
$DIMEXE
 40
1.25
  9
$DIMTP
 40
0
  9
$DIMTM
 40
0
  9
$DIMTXT
 40
2.5
  9
$DIMCEN
 40
2.5
  9
$DIMTSZ
 40
0
  9
$DIMTOL
 70
    0
  9
$DIMLIM
 70
    0
  9
$DIMTIH
 70
    0
  9
$DIMTOH
 70
    0
  9
$DIMSE1
 70
    0
  9
$DIMSE2
 70
    0
  9
$DIMTAD
 70
    1
  9
$DIMZIN
 70
    8
  9
$DIMBLK
  1

  9
$DIMASO
 70
    1
  9
$DIMSHO
 70
    1
  9
$DIMPOST
  1

  9
$DIMAPOST
  1

  9
$DIMALT
 70
    0
  9
$DIMALTD
 70
    3
  9
$DIMALTF
 40
0.03937
  9
$DIMLFAC
 40
1
  9
$DIMTOFL
 70
    1
  9
$DIMTVP
 40
0
  9
$DIMTIX
 70
    0
  9
$DIMSOXD
 70
    0
  9
$DIMSAH
 70
    0
  9
$DIMBLK1
  1

  9
$DIMBLK2
  1

  9
$DIMSTYLE
  2
STANDARD
  9
$DIMCLRD
 70
    0
  9
$DIMCLRE
 70
    0
  9
$DIMCLRT
 70
    0
  9
$DIMTFAC
 40
1
  9
$DIMGAP
 40
0.625
  9
$LUNITS
 70
    2
  9
$LUPREC
 70
    4
  9
$SKETCHINC
 40
1
  9
$FILLETRAD
 40
0
  9
$AUNITS
 70
    0
  9
$AUPREC
 70
    2
  9
$MENU
  1
.
  9
$ELEVATION
 40
0
  9
$PELEVATION
 40
0
  9
$THICKNESS
 40
0
  9
$LIMCHECK
 70
    0
  9
$BLIPMODE
 70
    0
  9
$CHAMFERA
 40
0
  9
$CHAMFERB
 40
0
  9
$SKPOLY
 70
    0
  9
$USRTIMER
 70
    1
  9
$ANGBASE
 50
0
  9
$ANGDIR
 70
    0
  9
$PDMODE
 70
   34
  9
$PDSIZE
 40
0
  9
$PLINEWID
 40
0
  9
$COORDS
 70
    2
  9
$SPLFRAME
 70
    0
  9
$SPLINETYPE
 70
    2
  9
$SPLINESEGS
 70
    8
  9
$ATTDIA
 70
    1
  9
$ATTREQ
 70
    1
  9
$HANDLING
 70
    1
  9
$HANDSEED
  5
20000
  9
$SURFTAB1
 70
    6
  9
$SURFTAB2
 70
    6
  9
$SURFTYPE
 70
    6
  9
$SURFU
 70
    6
  9
$SURFV
 70
    6
  9
$UCSNAME
  2

  9
$UCSORG
 10
0
 20
0
 30
0
  9
$UCSXDIR
 10
1
 20
0
 30
0
  9
$UCSYDIR
 10
0
 20
1
 30
0
  9
$PUCSNAME
  2

  9
$PUCSORG
 10
0
 20
0
 30
0
  9
$PUCSXDIR
 10
1
 20
0
 30
0
  9
$PUCSYDIR
 10
0
 20
1
 30
0
  9
$USERI1
 70
    0
  9
$USERI2
 70
    0
  9
$USERI3
 70
    0
  9
$USERI4
 70
    0
  9
$USERI5
 70
    0
  9
$USERR1
 40
0
  9
$USERR2
 40
0
  9
$USERR3
 40
0
  9
$USERR4
 40
0
  9
$USERR5
 40
0
  9
$WORLDVIEW
 70
    1
  9
$SHADEDGE
 70
    3
  9
$SHADEDIF
 70
   70
  9
$TILEMODE
 70
    1
  9
$MAXACTVP
 70
   64
  9
$PLIMCHECK
 70
    0
  9
$PEXTMIN
 10
0
 20
0
 30
0
  9
$PEXTMAX
 10
0
 20
0
 30
0
  9
$SNAPSTYLE
 70
    0
  9
$PLIMMIN
 10
0
 20
0
  9
$PLIMMAX
 10
210
 20
297
  9
$UNITMODE
 70
    0
  9
$VISRETAIN
 70
    1
  9
$PLINEGEN
 70
    0
  9
$PSLTSCALE
 70
    1
  0
ENDSEC
  0
SECTION
  2
TABLES
  0
TABLE
  2
VPORT
 70
    1
  0
VPORT
  2
*ACTIVE
 70
    0
 10
0
 20
0
 11
1
 21
1
 12
196.412494919625
 22
164.99384512425
 13
0
 23
0
 14
10
 24
10
 15
10
 25
10
 16
0
 26
0
 36
1
 17
0
 27
0
 37
0
 40
326.3129943660001
 41
1.804054054054054
 42
50
 43
0
 44
0
 50
0
 51
0
 71
    0
 72
  100
 73
    1
 74
    3
 75
    0
 76
    1
 77
    0
 78
    0
  0
ENDTAB
  0
TABLE
  2
LTYPE
 70
    4
  0
LTYPE
  2
BYBLOCK
 70
    0
  3

 72
   65
 73
    0
 40
0
  0
LTYPE
  2
BYLAYER
 70
    0
  3

 72
   65
 73
    0
 40
0
  0
LTYPE
  2
CONTINUOUS
 70
    0
  3
Solid line
 72
   65
 73
    0
 40
0
  0
LTYPE
  2
DOT
 70
    0
  3
Dot . . . . . . . . . . . . . . . . . . . . . .
 72
   65
 73
    2
 40
6.35
 49
0
 49
-6.35
  0
LTYPE
  2
DOTTINY
 70
    0
  3
Dot (.15x) .....................................
 72
   65
 73
    2
 40
0.9525
 49
0
 49
-0.9525
  0
LTYPE
  2
DOT2
 70
    0
  3
Dot (.5x) .....................................
 72
   65
 73
    2
 40
3.175
 49
0
 49
-3.175
  0
LTYPE
  2
DOTX2
 70
    0
  3
Dot (2x) .  .  .  .  .  .  .  .  .  .  .  .  .
 72
   65
 73
    2
 40
12.7
 49
0
 49
-12.7
  0
LTYPE
  2
DASHED
 70
    0
  3
Dashed _ _ _ _ _ _ _ _ _ _ _ _ _ _ _ _ _
 72
   65
 73
    2
 40
19.05
 49
12.7
 49
-6.35
  0
LTYPE
  2
DASHEDTINY
 70
    0
  3
Dashed (.15x) _ _ _ _ _ _ _ _ _ _ _ _ _ _ _ _ _
 72
   65
 73
    2
 40
2.8575
 49
1.905
 49
-0.9525
  0
LTYPE
  2
DASHED2
 70
    0
  3
Dashed (.5x) _ _ _ _ _ _ _ _ _ _ _ _ _ _ _ _ _
 72
   65
 73
    2
 40
9.524999999999999
 49
6.35
 49
-3.175
  0
LTYPE
  2
DASHEDX2
 70
    0
  3
Dashed (2x) ____  ____  ____  ____  ____  ___
 72
   65
 73
    2
 40
38.09999999999999
 49
25.4
 49
-12.7
  0
LTYPE
  2
DASHDOT
 70
    0
  3
Dash dot __ . __ . __ . __ . __ . __ . __ . __
 72
   65
 73
    4
 40
25.4
 49
12.7
 49
-6.35
 49
0
 49
-6.35
  0
LTYPE
  2
DASHDOTTINY
 70
    0
  3
Dash dot (.15x) _._._._._._._._._._._._._._._.
 72
   65
 73
    4
 40
3.81
 49
1.905
 49
-0.9525
 49
0
 49
-0.9525
  0
LTYPE
  2
DASHDOT2
 70
    0
  3
Dash dot (.5x) _._._._._._._._._._._._._._._.
 72
   65
 73
    4
 40
12.7
 49
6.35
 49
-3.175
 49
0
 49
-3.175
  0
LTYPE
  2
DASHDOTX2
 70
    0
  3
Dash dot (2x) ____  .  ____  .  ____  .  ___
 72
   65
 73
    4
 40
50.8
 49
25.4
 49
-12.7
 49
0
 49
-12.7
  0
LTYPE
  2
DIVIDE
 70
    0
  3
Divide ____ . . ____ . . ____ . . ____ . . ____
 72
   65
 73
    6
 40
31.75
 49
12.7
 49
-6.35
 49
0
 49
-6.35
 49
0
 49
-6.35
  0
LTYPE
  2
DIVIDETINY
 70
    0
  3
Divide (.15x) __..__..__..__..__..__..__..__.._
 72
   65
 73
    6
 40
4.7625
 49
1.905
 49
-0.9525
 49
0
 49
-0.9525
 49
0
 49
-0.9525
  0
LTYPE
  2
DIVIDE2
 70
    0
  3
Divide (.5x) __..__..__..__..__..__..__..__.._
 72
   65
 73
    6
 40
15.875
 49
6.35
 49
-3.175
 49
0
 49
-3.175
 49
0
 49
-3.175
  0
LTYPE
  2
DIVIDEX2
 70
    0
  3
Divide (2x) ________  .  .  ________  .  .  _
 72
   65
 73
    6
 40
63.5
 49
25.4
 49
-12.7
 49
0
 49
-12.7
 49
0
 49
-12.7
  0
LTYPE
  2
BORDER
 70
    0
  3
Border __ __ . __ __ . __ __ . __ __ . __ __ .
 72
   65
 73
    6
 40
44.45
 49
12.7
 49
-6.35
 49
12.7
 49
-6.35
 49
0
 49
-6.35
  0
LTYPE
  2
BORDERTINY
 70
    0
  3
Border (.15x) __.__.__.__.__.__.__.__.__.__.__.
 72
   65
 73
    6
 40
6.6675
 49
1.905
 49
-0.9525
 49
1.905
 49
-0.9525
 49
0
 49
-0.9525
  0
LTYPE
  2
BORDER2
 70
    0
  3
Border (.5x) __.__.__.__.__.__.__.__.__.__.__.
 72
   65
 73
    6
 40
22.225
 49
6.35
 49
-3.175
 49
6.35
 49
-3.175
 49
0
 49
-3.175
  0
LTYPE
  2
BORDERX2
 70
    0
  3
Border (2x) ____  ____  .  ____  ____  .  ___
 72
   65
 73
    6
 40
88.89999999999999
 49
25.4
 49
-12.7
 49
25.4
 49
-12.7
 49
0
 49
-12.7
  0
LTYPE
  2
CENTER
 70
    0
  3
Center ____ _ ____ _ ____ _ ____ _ ____ _ ____
 72
   65
 73
    4
 40
50.8
 49
31.75
 49
-6.35
 49
6.35
 49
-6.35
  0
LTYPE
  2
CENTERTINY
 70
    0
  3
Center (.15x) ___ _ ___ _ ___ _ ___ _ ___ _ ___
 72
   65
 73
    4
 40
7.62
 49
4.7625
 49
-0.9525
 49
0.9525
 49
-0.9525
  0
LTYPE
  2
CENTER2
 70
    0
  3
Center (.5x) ___ _ ___ _ ___ _ ___ _ ___ _ ___
 72
   65
 73
    4
 40
28.575
 49
19.05
 49
-3.175
 49
3.175
 49
-3.175
  0
LTYPE
  2
CENTERX2
 70
    0
  3
Center (2x) ________  __  ________  __  _____
 72
   65
 73
    4
 40
101.6
 49
63.5
 49
-12.7
 49
12.7
 49
-12.7
  0
ENDTAB
  0
TABLE
  2
LAYER
 70
    1
  0
LAYER
  2
0
 70
    0
 62
    7
  6
CONTINUOUS
  0
ENDTAB
  0
TABLE
  2
STYLE
 70
    3
  0
STYLE
  2
STANDARD
 70
    0
 40
0
 41
1
 50
0
 71
    0
 42
1
  3
TXT
  4

  0
ENDTAB
  0
TABLE
  2
VIEW
 70
    0
  0
ENDTAB
  0
TABLE
  2
UCS
 70
    0
  0
ENDTAB
  0
TABLE
  2
APPID
 70
    1
  0
APPID
  2
ACAD
 70
    0
  0
APPID
  2
LIBRECAD
 70
    0
  0
ENDTAB
  0
TABLE
  2
DIMSTYLE
 70
    1
  0
DIMSTYLE
  2
STANDARD
 70
    0
  3

  4

  5

  6

  7

 40
1
 41
2.5
 42
0.625
 43
0.38
 44
1.25
 45
0
 46
0
 47
0
 48
0
 49
1
140
2.5
141
0.09
142
2.5
143
25.4
144
1
145
0
146
1
147
0.625
 71
    0
 72
    0
 73
    0
 74
    1
 75
    0
 76
    0
 77
    0
 78
    1
170
    0
171
    2
172
    0
173
    0
174
    0
175
    0
176
    0
177
    0
178
    0
  0
ENDTAB
  0
ENDSEC
  0
SECTION
  2
BLOCKS
  0
BLOCK
  8
0
  2
$MODEL_SPACE
 70
    0
 10
0
 20
0
 30
0
  3
$MODEL_SPACE
  1

  0
ENDBLK
  8
0
  0
BLOCK
  8
0
  2
$PAPER_SPACE
 70
    0
 10
0
 20
0
 30
0
  3
$PAPER_SPACE
  1

  0
ENDBLK
  8
0
  0
ENDSEC
  0
SECTION
  2
ENTITIES
  0
LINE
  5
31
  8
0
  6
BYLAYER
 62
  256
 10
80.19999999999999
 20
270
 11
80.19999999999999
 21
274.8
  0
LINE
  5
32
  8
0
  6
BYLAYER
 62
  256
 10
80.19999999999999
 20
274.8
 11
95.19999999999999
 21
274.8
  0
LINE
  5
33
  8
0
  6
BYLAYER
 62
  256
 10
95.19999999999999
 20
230
 11
-95.19999999999999
 21
229.8000000015233
  0
LINE
  5
34
  8
0
  6
BYLAYER
 62
  256
 10
-95.19999999999999
 20
229.8000000015233
 11
-95.19999999999999
 21
270
  0
LINE
  5
35
  8
0
  6
BYLAYER
 62
  256
 10
95.19999999999999
 20
274.8
 11
95.19999999999999
 21
230
  0
LINE
  5
36
  8
0
  6
BYLAYER
 62
  256
 10
-95.19999999999999
 20
270
 11
-95.19999999999999
 21
274.8
  0
LINE
  5
37
  8
0
  6
BYLAYER
 62
  256
 10
-80.19999999999999
 20
274.8
 11
-80.19999999999999
 21
270
  0
LINE
  5
38
  8
0
  6
BYLAYER
 62
  256
 10
-95.19999999999999
 20
274.8
 11
-80.19999999999999
 21
274.8
  0
LINE
  5
39
  8
0
  6
BYLAYER
 62
  256
 10
-57.00000086426735
 20
270
 11
-39.19999999999999
 21
270
  0
LINE
  5
3A
  8
0
  6
BYLAYER
 62
  256
 10
-57.00000086426735
 20
266.0000039935112
 11
-57.00000086426735
 21
270
  0
LINE
  5
3B
  8
0
  6
BYLAYER
 62
  256
 10
-63.00000092387199
 20
266.0000039935112
 11
-57.00000086426735
 21
266.0000039935112
  0
LINE
  5
3C
  8
0
  6
BYLAYER
 62
  256
 10
-63.00000092387199
 20
266.0000039935112
 11
-63.00000092387199
 21
270
  0
LINE
  5
3D
  8
0
  6
BYLAYER
 62
  256
 10
-63.00000092387199
 20
270
 11
-80.19999999999999
 21
270
  0
LINE
  5
3E
  8
0
  6
BYLAYER
 62
  256
 10
-39.19999999999999
 20
274.8
 11
-24.19999999999999
 21
274.8
  0
LINE
  5
3F
  8
0
  6
BYLAYER
 62
  256
 10
-24.19999999999999
 20
274.8
 11
-24.19999999999999
 21
270
  0
LINE
  5
40
  8
0
  6
BYLAYER
 62
  256
 10
-6.000000029802335
 20
270
 11
-24.19999999999999
 21
270
  0
LINE
  5
41
  8
0
  6
BYLAYER
 62
  256
 10
-6.000000029802335
 20
266.0000039935112
 11
-6.000000029802335
 21
270
  0
LINE
  5
42
  8
0
  6
BYLAYER
 62
  256
 10
6.000000029802304
 20
266.0000039935112
 11
-6.000000029802335
 21
266.0000039935112
  0
LINE
  5
43
  8
0
  6
BYLAYER
 62
  256
 10
6.000000029802304
 20
266.0000039935112
 11
6.000000029802304
 21
270.0000038420832
  0
LINE
  5
44
  8
0
  6
BYLAYER
 62
  256
 10
6.000000029802304
 20
270.0000038420832
 11
24.19999999999999
 21
270
  0
LINE
  5
45
  8
0
  6
BYLAYER
 62
  256
 10
-39.19999999999999
 20
270
 11
-39.19999999999999
 21
274.8
  0
LINE
  5
46
  8
0
  6
BYLAYER
 62
  256
 10
24.19999999999999
 20
274.8
 11
39.19999999999999
 21
274.8
  0
LINE
  5
47
  8
0
  6
BYLAYER
 62
  256
 10
39.19999999999999
 20
274.8
 11
39.19999999999999
 21
270
  0
LINE
  5
48
  8
0
  6
BYLAYER
 62
  256
 10
57.00000086426734
 20
270
 11
39.19999999999999
 21
270
  0
LINE
  5
49
  8
0
  6
BYLAYER
 62
  256
 10
57.00000086426734
 20
266.0000039935112
 11
57.00000086426734
 21
270
  0
LINE
  5
4A
  8
0
  6
BYLAYER
 62
  256
 10
63.00000092387197
 20
266.0000039935112
 11
57.00000086426734
 21
266.0000039935112
  0
LINE
  5
4B
  8
0
  6
BYLAYER
 62
  256
 10
63.00000092387197
 20
266.0000039935112
 11
63.00000092387197
 21
270
  0
LINE
  5
4C
  8
0
  6
BYLAYER
 62
  256
 10
63.00000092387197
 20
270
 11
80.19999999999999
 21
270
  0
LINE
  5
4D
  8
0
  6
BYLAYER
 62
  256
 10
24.19999999999999
 20
270
 11
24.19999999999999
 21
274.8
  0
POLYLINE
  5
4E
  8
0
  6
BYLAYER
 62
  256
 66
    1
 10
0
 20
0
 30
0
 70
    1
  0
VERTEX
  5
4F
  8
0
  6
BYLAYER
 62
  256
 10
58.49894057452546
 20
236.5033793512181
 30
0
  0
VERTEX
  5
50
  8
0
  6
BYLAYER
 62
  256
 10
58.85077215253058
 20
236.4498564916265
 30
0
  0
VERTEX
  5
51
  8
0
  6
BYLAYER
 62
  256
 10
59.20529276054072
 20
236.4160203552091
 30
0
  0
VERTEX
  5
52
  8
0
  6
BYLAYER
 62
  256
 10
59.56164832735885
 20
236.4019524561823
 30
0
  0
VERTEX
  5
53
  8
0
  6
BYLAYER
 62
  256
 10
59.91898036121145
 20
236.407686685347
 30
0
  0
VERTEX
  5
54
  8
0
  6
BYLAYER
 62
  256
 10
60.27642801793039
 20
236.4332092284429
 30
0
  0
VERTEX
  5
55
  8
0
  6
BYLAYER
 62
  256
 10
60.63313017480188
 20
236.4784585994281
 30
0
  0
VERTEX
  5
56
  8
0
  6
BYLAYER
 62
  256
 10
60.98822750508663
 20
236.5433257886047
 30
0
  0
VERTEX
  5
57
  8
0
  6
BYLAYER
 62
  256
 10
61.34086454821312
 20
236.6276545252321
 30
0
  0
VERTEX
  5
58
  8
0
  6
BYLAYER
 62
  256
 10
61.6901917706571
 20
236.7312416539975
 30
0
  0
VERTEX
  5
59
  8
0
  6
BYLAYER
 62
  256
 10
62.03536761254226
 20
236.8538376244346
 30
0
  0
VERTEX
  5
5A
  8
0
  6
BYLAYER
 62
  256
 10
62.37556051503166
 20
236.9951470921123
 30
0
  0
VERTEX
  5
5B
  8
0
  6
BYLAYER
 62
  256
 10
62.70995092362582
 20
237.154829630146
 30
0
  0
VERTEX
  5
5C
  8
0
  6
BYLAYER
 62
  256
 10
63.0377332625413
 20
237.3325005493148
 30
0
  0
VERTEX
  5
5D
  8
0
  6
BYLAYER
 62
  256
 10
63.35811787541331
 20
237.5277318248124
 30
0
  0
VERTEX
  5
5E
  8
0
  6
BYLAYER
 62
  256
 10
63.67033292764707
 20
237.7400531273959
 30
0
  0
VERTEX
  5
5F
  8
0
  6
BYLAYER
 62
  256
 10
63.97362626583492
 20
237.9689529564501
 30
0
  0
VERTEX
  5
60
  8
0
  6
BYLAYER
 62
  256
 10
64.26726722975984
 20
238.2138798722377
 30
0
  0
VERTEX
  5
61
  8
0
  6
BYLAYER
 62
  256
 10
64.55054841261979
 20
238.4742438243654
 30
0
  0
VERTEX
  5
62
  8
0
  6
BYLAYER
 62
  256
 10
64.82278736523278
 20
238.7494175732674
 30
0
  0
VERTEX
  5
63
  8
0
  6
BYLAYER
 62
  256
 10
65.08332824011664
 20
239.0387382012802
 30
0
  0
VERTEX
  5
64
  8
0
  6
BYLAYER
 62
  256
 10
65.33154337148309
 20
239.3415087096694
 30
0
  0
VERTEX
  5
65
  8
0
  6
BYLAYER
 62
  256
 10
65.5668347873396
 20
239.6569996977607
 30
0
  0
VERTEX
  5
66
  8
0
  6
BYLAYER
 62
  256
 10
65.78863565005628
 20
239.9844511201302
 30
0
  0
VERTEX
  5
67
  8
0
  6
BYLAYER
 62
  256
 10
65.99641162192736
 20
240.3230741176199
 30
0
  0
VERTEX
  5
68
  8
0
  6
BYLAYER
 62
  256
 10
66.18966215243759
 20
240.672052917769
 30
0
  0
VERTEX
  5
69
  8
0
  6
BYLAYER
 62
  256
 10
66.36792168413224
 20
241.030546800081
 30
0
  0
VERTEX
  5
6A
  8
0
  6
BYLAYER
 62
  256
 10
66.53076077418574
 20
241.3976921213931
 30
0
  0
VERTEX
  5
6B
  8
0
  6
BYLAYER
 62
  256
 10
66.67778712896715
 20
241.7726043964681
 30
0
  0
VERTEX
  5
6C
  8
0
  6
BYLAYER
 62
  256
 10
66.80864654910981
 20
242.1543804287969
 30
0
  0
VERTEX
  5
6D
  8
0
  6
BYLAYER
 62
  256
 10
66.92302378280866
 20
242.542100486478
 30
0
  0
VERTEX
  5
6E
  8
0
  6
BYLAYER
 62
  256
 10
67.02064328528945
 20
242.9348305179322
 30
0
  0
VERTEX
  5
6F
  8
0
  6
BYLAYER
 62
  256
 10
67.10126988262027
 20
243.3316244021147
 30
0
  0
VERTEX
  5
70
  8
0
  6
BYLAYER
 62
  256
 10
67.16470933826606
 20
243.7315262278033
 30
0
  0
VERTEX
  5
71
  8
0
  6
BYLAYER
 62
  256
 10
67.21080882102157
 20
244.1335725964728
 30
0
  0
VERTEX
  5
72
  8
0
  6
BYLAYER
 62
  256
 10
67.23945727319497
 20
244.5367949432058
 30
0
  0
VERTEX
  5
73
  8
0
  6
BYLAYER
 62
  256
 10
67.25058567815567
 20
244.9402218700511
 30
0
  0
VERTEX
  5
74
  8
0
  6
BYLAYER
 62
  256
 10
67.24416722660141
 20
245.3428814862058
 30
0
  0
VERTEX
  5
75
  8
0
  6
BYLAYER
 62
  256
 10
67.22021738114415
 20
245.7438037493859
 30
0
  0
VERTEX
  5
76
  8
0
  6
BYLAYER
 62
  256
 10
67.17879383905937
 20
246.1420228027426
 30
0
  0
VERTEX
  5
77
  8
0
  6
BYLAYER
 62
  256
 10
67.11999639328822
 20
246.5365793016965
 30
0
  0
VERTEX
  5
78
  8
0
  6
BYLAYER
 62
  256
 10
67.04396669202761
 20
246.9265227250826
 30
0
  0
VERTEX
  5
79
  8
0
  6
BYLAYER
 62
  256
 10
66.95088789748729
 20
247.310913665039
 30
0
  0
VERTEX
  5
7A
  8
0
  6
BYLAYER
 62
  256
 10
66.84098424463606
 20
247.6888260901226
 30
0
  0
VERTEX
  5
7B
  8
0
  6
BYLAYER
 62
  256
 10
66.71452050100004
 20
248.0593495762002
 30
0
  0
VERTEX
  5
7C
  8
0
  6
BYLAYER
 62
  256
 10
66.57180132881459
 20
248.4215914997398
 30
0
  0
VERTEX
  5
7D
  8
0
  6
BYLAYER
 62
  256
 10
66.4131705510662
 20
248.7746791882189
 30
0
  0
VERTEX
  5
7E
  8
0
  6
BYLAYER
 62
  256
 10
66.2390103231929
 20
249.1177620224692
 30
0
  0
VERTEX
  5
7F
  8
0
  6
BYLAYER
 62
  256
 10
66.04974021243827
 20
249.4500134858924
 30
0
  0
VERTEX
  5
80
  8
0
  6
BYLAYER
 62
  256
 10
65.84581618707722
 20
249.7706331556115
 30
0
  0
VERTEX
  5
81
  8
0
  6
BYLAYER
 62
  256
 10
65.62772951794848
 20
250.078848630759
 30
0
  0
VERTEX
  5
82
  8
0
  6
BYLAYER
 62
  256
 10
65.39600559494011
 20
250.3739173932588
 30
0
  0
VERTEX
  5
83
  8
0
  6
BYLAYER
 62
  256
 10
65.15120266127926
 20
250.6551285966171
 30
0
  0
VERTEX
  5
84
  8
0
  6
BYLAYER
 62
  256
 10
64.89391046867533
 20
250.9218047784139
 30
0
  0
VERTEX
  5
85
  8
0
  6
BYLAYER
 62
  256
 10
64.62474885655644
 20
251.173303492369
 30
0
  0
VERTEX
  5
86
  8
0
  6
BYLAYER
 62
  256
 10
64.34436625882192
 20
251.409018856052
 30
0
  0
VERTEX
  5
87
  8
0
  6
BYLAYER
 62
  256
 10
64.05343814170838
 20
251.6283830105054
 30
0
  0
VERTEX
  5
88
  8
0
  6
BYLAYER
 62
  256
 10
63.75266537653222
 20
251.8308674882672
 30
0
  0
VERTEX
  5
89
  8
0
  6
BYLAYER
 62
  256
 10
63.44277255122932
 20
252.0159844864948
 30
0
  0
VERTEX
  5
8A
  8
0
  6
BYLAYER
 62
  256
 10
63.12450622475925
 20
252.1832880421252
 30
0
  0
VERTEX
  5
8B
  8
0
  6
BYLAYER
 62
  256
 10
62.79863312857932
 20
252.3323751062389
 30
0
  0
VERTEX
  5
8C
  8
0
  6
BYLAYER
 62
  256
 10
62.46593831952133
 20
252.4628865150399
 30
0
  0
VERTEX
  5
8D
  8
0
  6
BYLAYER
 62
  256
 10
62.12722328852092
 20
252.5745078551129
 30
0
  0
VERTEX
  5
8E
  8
0
  6
BYLAYER
 62
  256
 10
61.78330402975572
 20
252.6669702208729
 30
0
  0
VERTEX
  5
8F
  8
0
  6
BYLAYER
 62
  256
 10
61.43500907484385
 20
252.7400508623819
 30
0
  0
VERTEX
  5
90
  8
0
  6
BYLAYER
 62
  256
 10
61.08317749683874
 20
252.7935737219735
 30
0
  0
VERTEX
  5
91
  8
0
  6
BYLAYER
 62
  256
 10
60.72865688882859
 20
252.8274098583909
 30
0
  0
VERTEX
  5
92
  8
0
  6
BYLAYER
 62
  256
 10
60.37230132201046
 20
252.8414777574177
 30
0
  0
VERTEX
  5
93
  8
0
  6
BYLAYER
 62
  256
 10
60.01496928815785
 20
252.8357435282531
 30
0
  0
VERTEX
  5
94
  8
0
  6
BYLAYER
 62
  256
 10
59.65752163143893
 20
252.8102209851572
 30
0
  0
VERTEX
  5
95
  8
0
  6
BYLAYER
 62
  256
 10
59.30081947456743
 20
252.7649716141719
 30
0
  0
VERTEX
  5
96
  8
0
  6
BYLAYER
 62
  256
 10
58.94572214428268
 20
252.7001044249954
 30
0
  0
VERTEX
  5
97
  8
0
  6
BYLAYER
 62
  256
 10
58.59308510115619
 20
252.615775688368
 30
0
  0
VERTEX
  5
98
  8
0
  6
BYLAYER
 62
  256
 10
58.24375787871221
 20
252.5121885596025
 30
0
  0
VERTEX
  5
99
  8
0
  6
BYLAYER
 62
  256
 10
57.89858203682705
 20
252.3895925891655
 30
0
  0
VERTEX
  5
9A
  8
0
  6
BYLAYER
 62
  256
 10
57.55838913433765
 20
252.2482831214877
 30
0
  0
VERTEX
  5
9B
  8
0
  6
BYLAYER
 62
  256
 10
57.22399872574349
 20
252.0886005834541
 30
0
  0
VERTEX
  5
9C
  8
0
  6
BYLAYER
 62
  256
 10
56.89621638682802
 20
251.9109296642852
 30
0
  0
VERTEX
  5
9D
  8
0
  6
BYLAYER
 62
  256
 10
56.575831773956
 20
251.7156983887876
 30
0
  0
VERTEX
  5
9E
  8
0
  6
BYLAYER
 62
  256
 10
56.26361672172224
 20
251.5033770862042
 30
0
  0
VERTEX
  5
9F
  8
0
  6
BYLAYER
 62
  256
 10
55.96032338353439
 20
251.27447725715
 30
0
  0
VERTEX
  5
A0
  8
0
  6
BYLAYER
 62
  256
 10
55.66668241960948
 20
251.0295503413624
 30
0
  0
VERTEX
  5
A1
  8
0
  6
BYLAYER
 62
  256
 10
55.38340123674952
 20
250.7691863892346
 30
0
  0
VERTEX
  5
A2
  8
0
  6
BYLAYER
 62
  256
 10
55.11116228413653
 20
250.4940126403327
 30
0
  0
VERTEX
  5
A3
  8
0
  6
BYLAYER
 62
  256
 10
54.85062140925267
 20
250.2046920123199
 30
0
  0
VERTEX
  5
A4
  8
0
  6
BYLAYER
 62
  256
 10
54.60240627788621
 20
249.9019215039307
 30
0
  0
VERTEX
  5
A5
  8
0
  6
BYLAYER
 62
  256
 10
54.36711486202971
 20
249.5864305158393
 30
0
  0
VERTEX
  5
A6
  8
0
  6
BYLAYER
 62
  256
 10
54.14531399931304
 20
249.2589790934699
 30
0
  0
VERTEX
  5
A7
  8
0
  6
BYLAYER
 62
  256
 10
53.93753802744195
 20
248.9203560959802
 30
0
  0
VERTEX
  5
A8
  8
0
  6
BYLAYER
 62
  256
 10
53.74428749693171
 20
248.5713772958311
 30
0
  0
VERTEX
  5
A9
  8
0
  6
BYLAYER
 62
  256
 10
53.56602796523707
 20
248.2128834135191
 30
0
  0
VERTEX
  5
AA
  8
0
  6
BYLAYER
 62
  256
 10
53.40318887518357
 20
247.845738092207
 30
0
  0
VERTEX
  5
AB
  8
0
  6
BYLAYER
 62
  256
 10
53.25616252040216
 20
247.470825817132
 30
0
  0
VERTEX
  5
AC
  8
0
  6
BYLAYER
 62
  256
 10
53.1253031002595
 20
247.0890497848031
 30
0
  0
VERTEX
  5
AD
  8
0
  6
BYLAYER
 62
  256
 10
53.01092586656065
 20
246.701329727122
 30
0
  0
VERTEX
  5
AE
  8
0
  6
BYLAYER
 62
  256
 10
52.91330636407986
 20
246.3085996956678
 30
0
  0
VERTEX
  5
AF
  8
0
  6
BYLAYER
 62
  256
 10
52.83267976674905
 20
245.9118058114854
 30
0
  0
VERTEX
  5
B0
  8
0
  6
BYLAYER
 62
  256
 10
52.76924031110325
 20
245.5119039857967
 30
0
  0
VERTEX
  5
B1
  8
0
  6
BYLAYER
 62
  256
 10
52.72314082834774
 20
245.1098576171273
 30
0
  0
VERTEX
  5
B2
  8
0
  6
BYLAYER
 62
  256
 10
52.69449237617435
 20
244.7066352703942
 30
0
  0
VERTEX
  5
B3
  8
0
  6
BYLAYER
 62
  256
 10
52.68336397121364
 20
244.3032083435489
 30
0
  0
VERTEX
  5
B4
  8
0
  6
BYLAYER
 62
  256
 10
52.6897824227679
 20
243.9005487273942
 30
0
  0
VERTEX
  5
B5
  8
0
  6
BYLAYER
 62
  256
 10
52.71373226822516
 20
243.4996264642142
 30
0
  0
VERTEX
  5
B6
  8
0
  6
BYLAYER
 62
  256
 10
52.75515581030994
 20
243.1014074108575
 30
0
  0
VERTEX
  5
B7
  8
0
  6
BYLAYER
 62
  256
 10
52.81395325608109
 20
242.7068509119036
 30
0
  0
VERTEX
  5
B8
  8
0
  6
BYLAYER
 62
  256
 10
52.8899829573417
 20
242.3169074885174
 30
0
  0
VERTEX
  5
B9
  8
0
  6
BYLAYER
 62
  256
 10
52.98306175188202
 20
241.9325165485611
 30
0
  0
VERTEX
  5
BA
  8
0
  6
BYLAYER
 62
  256
 10
53.09296540473326
 20
241.5546041234775
 30
0
  0
VERTEX
  5
BB
  8
0
  6
BYLAYER
 62
  256
 10
53.21942914836927
 20
241.1840806373999
 30
0
  0
VERTEX
  5
BC
  8
0
  6
BYLAYER
 62
  256
 10
53.36214832055472
 20
240.8218387138603
 30
0
  0
VERTEX
  5
BD
  8
0
  6
BYLAYER
 62
  256
 10
53.52077909830311
 20
240.4687510253812
 30
0
  0
VERTEX
  5
BE
  8
0
  6
BYLAYER
 62
  256
 10
53.69493932617641
 20
240.1256681911308
 30
0
  0
VERTEX
  5
BF
  8
0
  6
BYLAYER
 62
  256
 10
53.88420943693104
 20
239.7934167277076
 30
0
  0
VERTEX
  5
C0
  8
0
  6
BYLAYER
 62
  256
 10
54.08813346229209
 20
239.4727970579886
 30
0
  0
VERTEX
  5
C1
  8
0
  6
BYLAYER
 62
  256
 10
54.30622013142083
 20
239.1645815828411
 30
0
  0
VERTEX
  5
C2
  8
0
  6
BYLAYER
 62
  256
 10
54.5379440544292
 20
238.8695128203412
 30
0
  0
VERTEX
  5
C3
  8
0
  6
BYLAYER
 62
  256
 10
54.78274698809005
 20
238.5883016169829
 30
0
  0
VERTEX
  5
C4
  8
0
  6
BYLAYER
 62
  256
 10
55.04003918069398
 20
238.3216254351862
 30
0
  0
VERTEX
  5
C5
  8
0
  6
BYLAYER
 62
  256
 10
55.30920079281288
 20
238.070126721231
 30
0
  0
VERTEX
  5
C6
  8
0
  6
BYLAYER
 62
  256
 10
55.58958339054738
 20
237.834411357548
 30
0
  0
VERTEX
  5
C7
  8
0
  6
BYLAYER
 62
  256
 10
55.88051150766092
 20
237.6150472030947
 30
0
  0
VERTEX
  5
C8
  8
0
  6
BYLAYER
 62
  256
 10
56.1812842728371
 20
237.4125627253329
 30
0
  0
VERTEX
  5
C9
  8
0
  6
BYLAYER
 62
  256
 10
56.49117709813999
 20
237.2274457271053
 30
0
  0
VERTEX
  5
CA
  8
0
  6
BYLAYER
 62
  256
 10
56.80944342461006
 20
237.0601421714748
 30
0
  0
VERTEX
  5
CB
  8
0
  6
BYLAYER
 62
  256
 10
57.13531652078999
 20
236.9110551073611
 30
0
  0
VERTEX
  5
CC
  8
0
  6
BYLAYER
 62
  256
 10
57.46801132984798
 20
236.7805436985602
 30
0
  0
VERTEX
  5
CD
  8
0
  6
BYLAYER
 62
  256
 10
57.80672636084839
 20
236.6689223584872
 30
0
  0
VERTEX
  5
CE
  8
0
  6
BYLAYER
 62
  256
 10
58.15064561961359
 20
236.5764599927272
 30
0
  0
SEQEND
  5
CF
  8
0
  6
BYLAYER
 62
  256
  0
POLYLINE
  5
D0
  8
0
  6
BYLAYER
 62
  256
 66
    1
 10
0
 20
0
 30
0
 70
    1
  0
VERTEX
  5
D1
  8
0
  6
BYLAYER
 62
  256
 10
9.752777742980143
 20
241.6053040142475
 30
0
  0
VERTEX
  5
D2
  8
0
  6
BYLAYER
 62
  256
 10
10.10865661410599
 20
241.604683638047
 30
0
  0
VERTEX
  5
D3
  8
0
  6
BYLAYER
 62
  256
 10
10.46426775764875
 20
241.6239309812336
 30
0
  0
VERTEX
  5
D4
  8
0
  6
BYLAYER
 62
  256
 10
10.81875447521578
 20
241.6629996752719
 30
0
  0
VERTEX
  5
D5
  8
0
  6
BYLAYER
 62
  256
 10
11.1712627772551
 20
241.7217956002557
 30
0
  0
VERTEX
  5
D6
  8
0
  6
BYLAYER
 62
  256
 10
11.520943440391
 20
241.800177111652
 30
0
  0
VERTEX
  5
D7
  8
0
  6
BYLAYER
 62
  256
 10
11.86695405327758
 20
241.8979553815344
 30
0
  0
VERTEX
  5
D8
  8
0
  6
BYLAYER
 62
  256
 10
12.20846104604146
 20
242.0148948534863
 30
0
  0
VERTEX
  5
D9
  8
0
  6
BYLAYER
 62
  256
 10
12.54464169842458
 20
242.1507138100772
 30
0
  0
VERTEX
  5
DA
  8
0
  6
BYLAYER
 62
  256
 10
12.87468612178941
 20
242.3050850515442
 30
0
  0
VERTEX
  5
DB
  8
0
  6
BYLAYER
 62
  256
 10
13.19779921021157
 20
242.4776366840454
 30
0
  0
VERTEX
  5
DC
  8
0
  6
BYLAYER
 62
  256
 10
13.51320255595971
 20
242.6679530155843
 30
0
  0
VERTEX
  5
DD
  8
0
  6
BYLAYER
 62
  256
 10
13.82013632474783
 20
242.8755755574485
 30
0
  0
VERTEX
  5
DE
  8
0
  6
BYLAYER
 62
  256
 10
14.11786108624271
 20
243.100004128749
 30
0
  0
VERTEX
  5
DF
  8
0
  6
BYLAYER
 62
  256
 10
14.4056595954163
 20
243.3406980614001
 30
0
  0
VERTEX
  5
E0
  8
0
  6
BYLAYER
 62
  256
 10
14.68283852045183
 20
243.5970775026356
 30
0
  0
VERTEX
  5
E1
  8
0
  6
BYLAYER
 62
  256
 10
14.94873011304087
 20
243.8685248119253
 30
0
  0
VERTEX
  5
E2
  8
0
  6
BYLAYER
 62
  256
 10
15.20269381704753
 20
244.1543860489254
 30
0
  0
VERTEX
  5
E3
  8
0
  6
BYLAYER
 62
  256
 10
15.44411781166426
 20
244.4539725488772
 30
0
  0
VERTEX
  5
E4
  8
0
  6
BYLAYER
 62
  256
 10
15.67242048534179
 20
244.7665625816618
 30
0
  0
VERTEX
  5
E5
  8
0
  6
BYLAYER
 62
  256
 10
15.88705183694228
 20
245.0914030905106
 30
0
  0
VERTEX
  5
E6
  8
0
  6
BYLAYER
 62
  256
 10
16.08749480074023
 20
245.4277115061849
 30
0
  0
VERTEX
  5
E7
  8
0
  6
BYLAYER
 62
  256
 10
16.27326649207912
 20
245.7746776322545
 30
0
  0
VERTEX
  5
E8
  8
0
  6
BYLAYER
 62
  256
 10
16.44391937068285
 20
246.1314655969308
 30
0
  0
VERTEX
  5
E9
  8
0
  6
BYLAYER
 62
  256
 10
16.59904231881942
 20
246.4972158667562
 30
0
  0
VERTEX
  5
EA
  8
0
  6
BYLAYER
 62
  256
 10
16.73826163171961
 20
246.8710473172945
 30
0
  0
VERTEX
  5
EB
  8
0
  6
BYLAYER
 62
  256
 10
16.86124191786447
 20
247.2520593558377
 30
0
  0
VERTEX
  5
EC
  8
0
  6
BYLAYER
 62
  256
 10
16.96768690697289
 20
247.6393340910123
 30
0
  0
VERTEX
  5
ED
  8
0
  6
BYLAYER
 62
  256
 10
17.05734016374261
 20
248.0319385440599
 30
0
  0
VERTEX
  5
EE
  8
0
  6
BYLAYER
 62
  256
 10
17.12998570562538
 20
248.428926896465
 30
0
  0
VERTEX
  5
EF
  8
0
  6
BYLAYER
 62
  256
 10
17.18544852314781
 20
248.8293427685147
 30
0
  0
VERTEX
  5
F0
  8
0
  6
BYLAYER
 62
  256
 10
17.22359500152451
 20
249.232221523301
 30
0
  0
VERTEX
  5
F1
  8
0
  6
BYLAYER
 62
  256
 10
17.24433324254784
 20
249.6365925906154
 30
0
  0
VERTEX
  5
F2
  8
0
  6
BYLAYER
 62
  256
 10
17.24761328597873
 20
250.0414818051381
 30
0
  0
VERTEX
  5
F3
  8
0
  6
BYLAYER
 62
  256
 10
17.23342722990524
 20
250.4459137532872
 30
0
  0
VERTEX
  5
F4
  8
0
  6
BYLAYER
 62
  256
 10
17.20180924977901
 20
250.8489141230756
 30
0
  0
VERTEX
  5
F5
  8
0
  6
BYLAYER
 62
  256
 10
17.15283551608357
 20
251.2495120513138
 30
0
  0
VERTEX
  5
F6
  8
0
  6
BYLAYER
 62
  256
 10
17.08662401083298
 20
251.6467424625044
 30
0
  0
VERTEX
  5
F7
  8
0
  6
BYLAYER
 62
  256
 10
17.00333424334285
 20
252.0396483937937
 30
0
  0
VERTEX
  5
F8
  8
0
  6
BYLAYER
 62
  256
 10
16.90316686595837
 20
252.4272833003785
 30
0
  0
VERTEX
  5
F9
  8
0
  6
BYLAYER
 62
  256
 10
16.78636319066528
 20
252.8087133358163
 30
0
  0
VERTEX
  5
FA
  8
0
  6
BYLAYER
 62
  256
 10
16.65320460774818
 20
253.1830196017421
 30
0
  0
VERTEX
  5
FB
  8
0
  6
BYLAYER
 62
  256
 10
16.5040119078966
 20
253.5493003615762
 30
0
  0
VERTEX
  5
FC
  8
0
  6
BYLAYER
 62
  256
 10
16.33914450939224
 20
253.9066732128856
 30
0
  0
VERTEX
  5
FD
  8
0
  6
BYLAYER
 62
  256
 10
16.15899959223878
 20
254.2542772131694
 30
0
  0
VERTEX
  5
FE
  8
0
  6
BYLAYER
 62
  256
 10
15.96401114132045
 20
254.5912749539444
 30
0
  0
VERTEX
  5
FF
  8
0
  6
BYLAYER
 62
  256
 10
15.7546489008945
 20
254.9168545781355
 30
0
  0
VERTEX
  5
100
  8
0
  6
BYLAYER
 62
  256
 10
15.53141724293608
 20
255.2302317359106
 30
0
  0
VERTEX
  5
101
  8
0
  6
BYLAYER
 62
  256
 10
15.294853952062
 20
255.5306514742482
 30
0
  0
VERTEX
  5
102
  8
0
  6
BYLAYER
 62
  256
 10
15.04552892996047
 20
255.8173900556848
 30
0
  0
VERTEX
  5
103
  8
0
  6
BYLAYER
 62
  256
 10
14.78404282244802
 20
256.0897567018624
 30
0
  0
VERTEX
  5
104
  8
0
  6
BYLAYER
 62
  256
 10
14.51102557246113
 20
256.3470952576739
 30
0
  0
VERTEX
  5
105
  8
0
  6
BYLAYER
 62
  256
 10
14.22713490246851
 20
256.5887857719982
 30
0
  0
VERTEX
  5
106
  8
0
  6
BYLAYER
 62
  256
 10
13.93305472996005
 20
256.8142459912166
 30
0
  0
VERTEX
  5
107
  8
0
  6
BYLAYER
 62
  256
 10
13.6294935198297
 20
257.0229327619132
 30
0
  0
VERTEX
  5
108
  8
0
  6
BYLAYER
 62
  256
 10
13.3171825776215
 20
257.2143433393784
 30
0
  0
VERTEX
  5
109
  8
0
  6
BYLAYER
 62
  256
 10
12.99687428775043
 20
257.3880165987655
 30
0
  0
VERTEX
  5
10A
  8
0
  6
BYLAYER
 62
  256
 10
12.66934030094248
 20
257.5435341459808
 30
0
  0
VERTEX
  5
10B
  8
0
  6
BYLAYER
 62
  256
 10
12.33536967526046
 20
257.6805213256313
 30
0
  0
VERTEX
  5
10C
  8
0
  6
BYLAYER
 62
  256
 10
11.99576697519401
 20
257.7986481236024
 30
0
  0
VERTEX
  5
10D
  8
0
  6
BYLAYER
 62
  256
 10
11.65135033339328
 20
257.8976299620913
 30
0
  0
VERTEX
  5
10E
  8
0
  6
BYLAYER
 62
  256
 10
11.30294947971569
 20
257.9772283851792
 30
0
  0
VERTEX
  5
10F
  8
0
  6
BYLAYER
 62
  256
 10
10.95140374233407
 20
258.0372516332928
 30
0
  0
VERTEX
  5
110
  8
0
  6
BYLAYER
 62
  256
 10
10.59756002572154
 20
258.0775551051702
 30
0
  0
VERTEX
  5
111
  8
0
  6
BYLAYER
 62
  256
 10
10.24227077038447
 20
258.0980417062173
 30
0
  0
VERTEX
  5
112
  8
0
  6
BYLAYER
 62
  256
 10
9.886391899258632
 20
258.0986620824178
 30
0
  0
VERTEX
  5
113
  8
0
  6
BYLAYER
 62
  256
 10
9.530780755715867
 20
258.0794147392312
 30
0
  0
VERTEX
  5
114
  8
0
  6
BYLAYER
 62
  256
 10
9.176294038148834
 20
258.040346045193
 30
0
  0
VERTEX
  5
115
  8
0
  6
BYLAYER
 62
  256
 10
8.823785736109517
 20
257.9815501202091
 30
0
  0
VERTEX
  5
116
  8
0
  6
BYLAYER
 62
  256
 10
8.474105072973618
 20
257.9031686088128
 30
0
  0
VERTEX
  5
117
  8
0
  6
BYLAYER
 62
  256
 10
8.128094460087032
 20
257.8053903389304
 30
0
  0
VERTEX
  5
118
  8
0
  6
BYLAYER
 62
  256
 10
7.786587467323152
 20
257.6884508669785
 30
0
  0
VERTEX
  5
119
  8
0
  6
BYLAYER
 62
  256
 10
7.450406814940033
 20
257.5526319103877
 30
0
  0
VERTEX
  5
11A
  8
0
  6
BYLAYER
 62
  256
 10
7.12036239157521
 20
257.3982606689206
 30
0
  0
VERTEX
  5
11B
  8
0
  6
BYLAYER
 62
  256
 10
6.797249303153042
 20
257.2257090364195
 30
0
  0
VERTEX
  5
11C
  8
0
  6
BYLAYER
 62
  256
 10
6.481845957404909
 20
257.0353927048806
 30
0
  0
VERTEX
  5
11D
  8
0
  6
BYLAYER
 62
  256
 10
6.174912188616785
 20
256.8277701630163
 30
0
  0
VERTEX
  5
11E
  8
0
  6
BYLAYER
 62
  256
 10
5.877187427121902
 20
256.6033415917158
 30
0
  0
VERTEX
  5
11F
  8
0
  6
BYLAYER
 62
  256
 10
5.589388917948314
 20
256.3626476590647
 30
0
  0
VERTEX
  5
120
  8
0
  6
BYLAYER
 62
  256
 10
5.312209992912789
 20
256.1062682178293
 30
0
  0
VERTEX
  5
121
  8
0
  6
BYLAYER
 62
  256
 10
5.046318400323748
 20
255.8348209085395
 30
0
  0
VERTEX
  5
122
  8
0
  6
BYLAYER
 62
  256
 10
4.792354696317088
 20
255.5489596715394
 30
0
  0
VERTEX
  5
123
  8
0
  6
BYLAYER
 62
  256
 10
4.550930701700356
 20
255.2493731715876
 30
0
  0
VERTEX
  5
124
  8
0
  6
BYLAYER
 62
  256
 10
4.322628028022821
 20
254.936783138803
 30
0
  0
VERTEX
  5
125
  8
0
  6
BYLAYER
 62
  256
 10
4.107996676422337
 20
254.6119426299543
 30
0
  0
VERTEX
  5
126
  8
0
  6
BYLAYER
 62
  256
 10
3.907553712624388
 20
254.2756342142799
 30
0
  0
VERTEX
  5
127
  8
0
  6
BYLAYER
 62
  256
 10
3.721782021285495
 20
253.9286680882103
 30
0
  0
VERTEX
  5
128
  8
0
  6
BYLAYER
 62
  256
 10
3.551129142681772
 20
253.571880123534
 30
0
  0
VERTEX
  5
129
  8
0
  6
BYLAYER
 62
  256
 10
3.396006194545201
 20
253.2061298537087
 30
0
  0
VERTEX
  5
12A
  8
0
  6
BYLAYER
 62
  256
 10
3.256786881645007
 20
252.8322984031703
 30
0
  0
VERTEX
  5
12B
  8
0
  6
BYLAYER
 62
  256
 10
3.133806595500142
 20
252.4512863646271
 30
0
  0
VERTEX
  5
12C
  8
0
  6
BYLAYER
 62
  256
 10
3.027361606391729
 20
252.0640116294526
 30
0
  0
VERTEX
  5
12D
  8
0
  6
BYLAYER
 62
  256
 10
2.93770834962201
 20
251.671407176405
 30
0
  0
VERTEX
  5
12E
  8
0
  6
BYLAYER
 62
  256
 10
2.865062807739239
 20
251.2744188239998
 30
0
  0
VERTEX
  5
12F
  8
0
  6
BYLAYER
 62
  256
 10
2.80959999021681
 20
250.87400295195
 30
0
  0
VERTEX
  5
130
  8
0
  6
BYLAYER
 62
  256
 10
2.771453511840106
 20
250.4711241971639
 30
0
  0
VERTEX
  5
131
  8
0
  6
BYLAYER
 62
  256
 10
2.750715270816773
 20
250.0667531298495
 30
0
  0
VERTEX
  5
132
  8
0
  6
BYLAYER
 62
  256
 10
2.747435227385889
 20
249.6618639153268
 30
0
  0
VERTEX
  5
133
  8
0
  6
BYLAYER
 62
  256
 10
2.761621283459379
 20
249.2574319671776
 30
0
  0
VERTEX
  5
134
  8
0
  6
BYLAYER
 62
  256
 10
2.79323926358561
 20
248.8544315973892
 30
0
  0
VERTEX
  5
135
  8
0
  6
BYLAYER
 62
  256
 10
2.842212997281049
 20
248.453833669151
 30
0
  0
VERTEX
  5
136
  8
0
  6
BYLAYER
 62
  256
 10
2.908424502531632
 20
248.0566032579604
 30
0
  0
VERTEX
  5
137
  8
0
  6
BYLAYER
 62
  256
 10
2.991714270021767
 20
247.6636973266712
 30
0
  0
VERTEX
  5
138
  8
0
  6
BYLAYER
 62
  256
 10
3.091881647406248
 20
247.2760624200863
 30
0
  0
VERTEX
  5
139
  8
0
  6
BYLAYER
 62
  256
 10
3.208685322699332
 20
246.8946323846486
 30
0
  0
VERTEX
  5
13A
  8
0
  6
BYLAYER
 62
  256
 10
3.341843905616441
 20
246.5203261187227
 30
0
  0
VERTEX
  5
13B
  8
0
  6
BYLAYER
 62
  256
 10
3.491036605468015
 20
246.1540453588886
 30
0
  0
VERTEX
  5
13C
  8
0
  6
BYLAYER
 62
  256
 10
3.655904003972373
 20
245.7966725075792
 30
0
  0
VERTEX
  5
13D
  8
0
  6
BYLAYER
 62
  256
 10
3.836048921125842
 20
245.4490685072954
 30
0
  0
VERTEX
  5
13E
  8
0
  6
BYLAYER
 62
  256
 10
4.031037372044166
 20
245.1120707665204
 30
0
  0
VERTEX
  5
13F
  8
0
  6
BYLAYER
 62
  256
 10
4.240399612470116
 20
244.7864911423293
 30
0
  0
VERTEX
  5
140
  8
0
  6
BYLAYER
 62
  256
 10
4.463631270428532
 20
244.4731139845542
 30
0
  0
VERTEX
  5
141
  8
0
  6
BYLAYER
 62
  256
 10
4.700194561302613
 20
244.1726942462167
 30
0
  0
VERTEX
  5
142
  8
0
  6
BYLAYER
 62
  256
 10
4.949519583404144
 20
243.8859556647801
 30
0
  0
VERTEX
  5
143
  8
0
  6
BYLAYER
 62
  256
 10
5.211005690916592
 20
243.6135890186024
 30
0
  0
VERTEX
  5
144
  8
0
  6
BYLAYER
 62
  256
 10
5.484022940903484
 20
243.3562504627909
 30
0
  0
VERTEX
  5
145
  8
0
  6
BYLAYER
 62
  256
 10
5.767913610896107
 20
243.1145599484666
 30
0
  0
VERTEX
  5
146
  8
0
  6
BYLAYER
 62
  256
 10
6.061993783404567
 20
242.8890997292482
 30
0
  0
VERTEX
  5
147
  8
0
  6
BYLAYER
 62
  256
 10
6.365554993534911
 20
242.6804129585516
 30
0
  0
VERTEX
  5
148
  8
0
  6
BYLAYER
 62
  256
 10
6.677865935743111
 20
242.4890023810865
 30
0
  0
VERTEX
  5
149
  8
0
  6
BYLAYER
 62
  256
 10
6.998174225614182
 20
242.3153291216993
 30
0
  0
VERTEX
  5
14A
  8
0
  6
BYLAYER
 62
  256
 10
7.325708212422137
 20
242.159811574484
 30
0
  0
VERTEX
  5
14B
  8
0
  6
BYLAYER
 62
  256
 10
7.659678838104155
 20
242.0228243948336
 30
0
  0
VERTEX
  5
14C
  8
0
  6
BYLAYER
 62
  256
 10
7.999281538170602
 20
241.9046975968624
 30
0
  0
VERTEX
  5
14D
  8
0
  6
BYLAYER
 62
  256
 10
8.343698179971335
 20
241.8057157583735
 30
0
  0
VERTEX
  5
14E
  8
0
  6
BYLAYER
 62
  256
 10
8.692099033648921
 20
241.7261173352857
 30
0
  0
VERTEX
  5
14F
  8
0
  6
BYLAYER
 62
  256
 10
9.043644771030545
 20
241.666094087172
 30
0
  0
VERTEX
  5
150
  8
0
  6
BYLAYER
 62
  256
 10
9.397488487643072
 20
241.6257906152946
 30
0
  0
SEQEND
  5
151
  8
0
  6
BYLAYER
 62
  256
  0
POLYLINE
  5
152
  8
0
  6
BYLAYER
 62
  256
 66
    1
 10
0
 20
0
 30
0
 70
    1
  0
VERTEX
  5
153
  8
0
  6
BYLAYER
 62
  256
 10
-9.752777742980145
 20
241.6053040142475
 30
0
  0
VERTEX
  5
154
  8
0
  6
BYLAYER
 62
  256
 10
-9.397488487643074
 20
241.6257906152946
 30
0
  0
VERTEX
  5
155
  8
0
  6
BYLAYER
 62
  256
 10
-9.043644771030545
 20
241.666094087172
 30
0
  0
VERTEX
  5
156
  8
0
  6
BYLAYER
 62
  256
 10
-8.692099033648926
 20
241.7261173352857
 30
0
  0
VERTEX
  5
157
  8
0
  6
BYLAYER
 62
  256
 10
-8.343698179971339
 20
241.8057157583735
 30
0
  0
VERTEX
  5
158
  8
0
  6
BYLAYER
 62
  256
 10
-7.999281538170606
 20
241.9046975968624
 30
0
  0
VERTEX
  5
159
  8
0
  6
BYLAYER
 62
  256
 10
-7.659678838104157
 20
242.0228243948336
 30
0
  0
VERTEX
  5
15A
  8
0
  6
BYLAYER
 62
  256
 10
-7.325708212422138
 20
242.159811574484
 30
0
  0
VERTEX
  5
15B
  8
0
  6
BYLAYER
 62
  256
 10
-6.998174225614187
 20
242.3153291216993
 30
0
  0
VERTEX
  5
15C
  8
0
  6
BYLAYER
 62
  256
 10
-6.677865935743116
 20
242.4890023810865
 30
0
  0
VERTEX
  5
15D
  8
0
  6
BYLAYER
 62
  256
 10
-6.365554993534913
 20
242.6804129585516
 30
0
  0
VERTEX
  5
15E
  8
0
  6
BYLAYER
 62
  256
 10
-6.061993783404569
 20
242.8890997292482
 30
0
  0
VERTEX
  5
15F
  8
0
  6
BYLAYER
 62
  256
 10
-5.767913610896108
 20
243.1145599484666
 30
0
  0
VERTEX
  5
160
  8
0
  6
BYLAYER
 62
  256
 10
-5.484022940903484
 20
243.3562504627909
 30
0
  0
VERTEX
  5
161
  8
0
  6
BYLAYER
 62
  256
 10
-5.211005690916595
 20
243.6135890186024
 30
0
  0
VERTEX
  5
162
  8
0
  6
BYLAYER
 62
  256
 10
-4.949519583404147
 20
243.8859556647801
 30
0
  0
VERTEX
  5
163
  8
0
  6
BYLAYER
 62
  256
 10
-4.700194561302615
 20
244.1726942462167
 30
0
  0
VERTEX
  5
164
  8
0
  6
BYLAYER
 62
  256
 10
-4.463631270428533
 20
244.4731139845542
 30
0
  0
VERTEX
  5
165
  8
0
  6
BYLAYER
 62
  256
 10
-4.240399612470116
 20
244.7864911423293
 30
0
  0
VERTEX
  5
166
  8
0
  6
BYLAYER
 62
  256
 10
-4.031037372044169
 20
245.1120707665204
 30
0
  0
VERTEX
  5
167
  8
0
  6
BYLAYER
 62
  256
 10
-3.836048921125844
 20
245.4490685072954
 30
0
  0
VERTEX
  5
168
  8
0
  6
BYLAYER
 62
  256
 10
-3.655904003972374
 20
245.7966725075792
 30
0
  0
VERTEX
  5
169
  8
0
  6
BYLAYER
 62
  256
 10
-3.491036605468016
 20
246.1540453588886
 30
0
  0
VERTEX
  5
16A
  8
0
  6
BYLAYER
 62
  256
 10
-3.341843905616441
 20
246.5203261187227
 30
0
  0
VERTEX
  5
16B
  8
0
  6
BYLAYER
 62
  256
 10
-3.208685322699332
 20
246.8946323846486
 30
0
  0
VERTEX
  5
16C
  8
0
  6
BYLAYER
 62
  256
 10
-3.091881647406248
 20
247.2760624200863
 30
0
  0
VERTEX
  5
16D
  8
0
  6
BYLAYER
 62
  256
 10
-2.991714270021767
 20
247.6636973266712
 30
0
  0
VERTEX
  5
16E
  8
0
  6
BYLAYER
 62
  256
 10
-2.908424502531632
 20
248.0566032579604
 30
0
  0
VERTEX
  5
16F
  8
0
  6
BYLAYER
 62
  256
 10
-2.842212997281049
 20
248.453833669151
 30
0
  0
VERTEX
  5
170
  8
0
  6
BYLAYER
 62
  256
 10
-2.79323926358561
 20
248.8544315973892
 30
0
  0
VERTEX
  5
171
  8
0
  6
BYLAYER
 62
  256
 10
-2.76162128345938
 20
249.2574319671776
 30
0
  0
VERTEX
  5
172
  8
0
  6
BYLAYER
 62
  256
 10
-2.747435227385889
 20
249.6618639153268
 30
0
  0
VERTEX
  5
173
  8
0
  6
BYLAYER
 62
  256
 10
-2.750715270816773
 20
250.0667531298495
 30
0
  0
VERTEX
  5
174
  8
0
  6
BYLAYER
 62
  256
 10
-2.771453511840106
 20
250.4711241971639
 30
0
  0
VERTEX
  5
175
  8
0
  6
BYLAYER
 62
  256
 10
-2.80959999021681
 20
250.8740029519501
 30
0
  0
VERTEX
  5
176
  8
0
  6
BYLAYER
 62
  256
 10
-2.865062807739238
 20
251.2744188239998
 30
0
  0
VERTEX
  5
177
  8
0
  6
BYLAYER
 62
  256
 10
-2.937708349622009
 20
251.6714071764049
 30
0
  0
VERTEX
  5
178
  8
0
  6
BYLAYER
 62
  256
 10
-3.027361606391729
 20
252.0640116294526
 30
0
  0
VERTEX
  5
179
  8
0
  6
BYLAYER
 62
  256
 10
-3.133806595500142
 20
252.4512863646271
 30
0
  0
VERTEX
  5
17A
  8
0
  6
BYLAYER
 62
  256
 10
-3.256786881645006
 20
252.8322984031703
 30
0
  0
VERTEX
  5
17B
  8
0
  6
BYLAYER
 62
  256
 10
-3.396006194545198
 20
253.2061298537087
 30
0
  0
VERTEX
  5
17C
  8
0
  6
BYLAYER
 62
  256
 10
-3.551129142681769
 20
253.571880123534
 30
0
  0
VERTEX
  5
17D
  8
0
  6
BYLAYER
 62
  256
 10
-3.721782021285494
 20
253.9286680882103
 30
0
  0
VERTEX
  5
17E
  8
0
  6
BYLAYER
 62
  256
 10
-3.907553712624387
 20
254.2756342142799
 30
0
  0
VERTEX
  5
17F
  8
0
  6
BYLAYER
 62
  256
 10
-4.107996676422335
 20
254.6119426299543
 30
0
  0
VERTEX
  5
180
  8
0
  6
BYLAYER
 62
  256
 10
-4.322628028022822
 20
254.936783138803
 30
0
  0
VERTEX
  5
181
  8
0
  6
BYLAYER
 62
  256
 10
-4.550930701700351
 20
255.2493731715876
 30
0
  0
VERTEX
  5
182
  8
0
  6
BYLAYER
 62
  256
 10
-4.792354696317087
 20
255.5489596715394
 30
0
  0
VERTEX
  5
183
  8
0
  6
BYLAYER
 62
  256
 10
-5.046318400323746
 20
255.8348209085395
 30
0
  0
VERTEX
  5
184
  8
0
  6
BYLAYER
 62
  256
 10
-5.312209992912788
 20
256.1062682178293
 30
0
  0
VERTEX
  5
185
  8
0
  6
BYLAYER
 62
  256
 10
-5.589388917948312
 20
256.3626476590647
 30
0
  0
VERTEX
  5
186
  8
0
  6
BYLAYER
 62
  256
 10
-5.8771874271219
 20
256.6033415917158
 30
0
  0
VERTEX
  5
187
  8
0
  6
BYLAYER
 62
  256
 10
-6.174912188616783
 20
256.8277701630163
 30
0
  0
VERTEX
  5
188
  8
0
  6
BYLAYER
 62
  256
 10
-6.481845957404907
 20
257.0353927048806
 30
0
  0
VERTEX
  5
189
  8
0
  6
BYLAYER
 62
  256
 10
-6.797249303153039
 20
257.2257090364195
 30
0
  0
VERTEX
  5
18A
  8
0
  6
BYLAYER
 62
  256
 10
-7.120362391575207
 20
257.3982606689206
 30
0
  0
VERTEX
  5
18B
  8
0
  6
BYLAYER
 62
  256
 10
-7.45040681494003
 20
257.5526319103877
 30
0
  0
VERTEX
  5
18C
  8
0
  6
BYLAYER
 62
  256
 10
-7.78658746732315
 20
257.6884508669785
 30
0
  0
VERTEX
  5
18D
  8
0
  6
BYLAYER
 62
  256
 10
-8.128094460087029
 20
257.8053903389304
 30
0
  0
VERTEX
  5
18E
  8
0
  6
BYLAYER
 62
  256
 10
-8.474105072973614
 20
257.9031686088128
 30
0
  0
VERTEX
  5
18F
  8
0
  6
BYLAYER
 62
  256
 10
-8.823785736109516
 20
257.9815501202091
 30
0
  0
VERTEX
  5
190
  8
0
  6
BYLAYER
 62
  256
 10
-9.176294038148832
 20
258.040346045193
 30
0
  0
VERTEX
  5
191
  8
0
  6
BYLAYER
 62
  256
 10
-9.530780755715863
 20
258.0794147392312
 30
0
  0
VERTEX
  5
192
  8
0
  6
BYLAYER
 62
  256
 10
-9.88639189925863
 20
258.0986620824178
 30
0
  0
VERTEX
  5
193
  8
0
  6
BYLAYER
 62
  256
 10
-10.24227077038447
 20
258.0980417062173
 30
0
  0
VERTEX
  5
194
  8
0
  6
BYLAYER
 62
  256
 10
-10.59756002572154
 20
258.0775551051702
 30
0
  0
VERTEX
  5
195
  8
0
  6
BYLAYER
 62
  256
 10
-10.95140374233407
 20
258.0372516332928
 30
0
  0
VERTEX
  5
196
  8
0
  6
BYLAYER
 62
  256
 10
-11.30294947971569
 20
257.9772283851792
 30
0
  0
VERTEX
  5
197
  8
0
  6
BYLAYER
 62
  256
 10
-11.65135033339328
 20
257.8976299620913
 30
0
  0
VERTEX
  5
198
  8
0
  6
BYLAYER
 62
  256
 10
-11.99576697519401
 20
257.7986481236024
 30
0
  0
VERTEX
  5
199
  8
0
  6
BYLAYER
 62
  256
 10
-12.33536967526046
 20
257.6805213256313
 30
0
  0
VERTEX
  5
19A
  8
0
  6
BYLAYER
 62
  256
 10
-12.66934030094248
 20
257.5435341459808
 30
0
  0
VERTEX
  5
19B
  8
0
  6
BYLAYER
 62
  256
 10
-12.99687428775043
 20
257.3880165987655
 30
0
  0
VERTEX
  5
19C
  8
0
  6
BYLAYER
 62
  256
 10
-13.3171825776215
 20
257.2143433393784
 30
0
  0
VERTEX
  5
19D
  8
0
  6
BYLAYER
 62
  256
 10
-13.6294935198297
 20
257.0229327619132
 30
0
  0
VERTEX
  5
19E
  8
0
  6
BYLAYER
 62
  256
 10
-13.93305472996004
 20
256.8142459912166
 30
0
  0
VERTEX
  5
19F
  8
0
  6
BYLAYER
 62
  256
 10
-14.22713490246851
 20
256.5887857719982
 30
0
  0
VERTEX
  5
1A0
  8
0
  6
BYLAYER
 62
  256
 10
-14.51102557246113
 20
256.3470952576739
 30
0
  0
VERTEX
  5
1A1
  8
0
  6
BYLAYER
 62
  256
 10
-14.78404282244802
 20
256.0897567018624
 30
0
  0
VERTEX
  5
1A2
  8
0
  6
BYLAYER
 62
  256
 10
-15.04552892996047
 20
255.8173900556848
 30
0
  0
VERTEX
  5
1A3
  8
0
  6
BYLAYER
 62
  256
 10
-15.294853952062
 20
255.5306514742482
 30
0
  0
VERTEX
  5
1A4
  8
0
  6
BYLAYER
 62
  256
 10
-15.53141724293608
 20
255.2302317359106
 30
0
  0
VERTEX
  5
1A5
  8
0
  6
BYLAYER
 62
  256
 10
-15.7546489008945
 20
254.9168545781355
 30
0
  0
VERTEX
  5
1A6
  8
0
  6
BYLAYER
 62
  256
 10
-15.96401114132045
 20
254.5912749539444
 30
0
  0
VERTEX
  5
1A7
  8
0
  6
BYLAYER
 62
  256
 10
-16.15899959223877
 20
254.2542772131694
 30
0
  0
VERTEX
  5
1A8
  8
0
  6
BYLAYER
 62
  256
 10
-16.33914450939224
 20
253.9066732128856
 30
0
  0
VERTEX
  5
1A9
  8
0
  6
BYLAYER
 62
  256
 10
-16.5040119078966
 20
253.5493003615762
 30
0
  0
VERTEX
  5
1AA
  8
0
  6
BYLAYER
 62
  256
 10
-16.65320460774817
 20
253.1830196017421
 30
0
  0
VERTEX
  5
1AB
  8
0
  6
BYLAYER
 62
  256
 10
-16.78636319066528
 20
252.8087133358163
 30
0
  0
VERTEX
  5
1AC
  8
0
  6
BYLAYER
 62
  256
 10
-16.90316686595837
 20
252.4272833003785
 30
0
  0
VERTEX
  5
1AD
  8
0
  6
BYLAYER
 62
  256
 10
-17.00333424334285
 20
252.0396483937937
 30
0
  0
VERTEX
  5
1AE
  8
0
  6
BYLAYER
 62
  256
 10
-17.08662401083298
 20
251.6467424625044
 30
0
  0
VERTEX
  5
1AF
  8
0
  6
BYLAYER
 62
  256
 10
-17.15283551608357
 20
251.2495120513138
 30
0
  0
VERTEX
  5
1B0
  8
0
  6
BYLAYER
 62
  256
 10
-17.201809249779
 20
250.8489141230756
 30
0
  0
VERTEX
  5
1B1
  8
0
  6
BYLAYER
 62
  256
 10
-17.23342722990524
 20
250.4459137532872
 30
0
  0
VERTEX
  5
1B2
  8
0
  6
BYLAYER
 62
  256
 10
-17.24761328597873
 20
250.0414818051381
 30
0
  0
VERTEX
  5
1B3
  8
0
  6
BYLAYER
 62
  256
 10
-17.24433324254784
 20
249.6365925906154
 30
0
  0
VERTEX
  5
1B4
  8
0
  6
BYLAYER
 62
  256
 10
-17.22359500152451
 20
249.232221523301
 30
0
  0
VERTEX
  5
1B5
  8
0
  6
BYLAYER
 62
  256
 10
-17.18544852314781
 20
248.8293427685148
 30
0
  0
VERTEX
  5
1B6
  8
0
  6
BYLAYER
 62
  256
 10
-17.12998570562538
 20
248.428926896465
 30
0
  0
VERTEX
  5
1B7
  8
0
  6
BYLAYER
 62
  256
 10
-17.05734016374261
 20
248.0319385440599
 30
0
  0
VERTEX
  5
1B8
  8
0
  6
BYLAYER
 62
  256
 10
-16.96768690697289
 20
247.6393340910123
 30
0
  0
VERTEX
  5
1B9
  8
0
  6
BYLAYER
 62
  256
 10
-16.86124191786448
 20
247.2520593558377
 30
0
  0
VERTEX
  5
1BA
  8
0
  6
BYLAYER
 62
  256
 10
-16.73826163171961
 20
246.8710473172945
 30
0
  0
VERTEX
  5
1BB
  8
0
  6
BYLAYER
 62
  256
 10
-16.59904231881941
 20
246.4972158667562
 30
0
  0
VERTEX
  5
1BC
  8
0
  6
BYLAYER
 62
  256
 10
-16.44391937068285
 20
246.1314655969308
 30
0
  0
VERTEX
  5
1BD
  8
0
  6
BYLAYER
 62
  256
 10
-16.27326649207912
 20
245.7746776322545
 30
0
  0
VERTEX
  5
1BE
  8
0
  6
BYLAYER
 62
  256
 10
-16.08749480074023
 20
245.4277115061849
 30
0
  0
VERTEX
  5
1BF
  8
0
  6
BYLAYER
 62
  256
 10
-15.88705183694228
 20
245.0914030905106
 30
0
  0
VERTEX
  5
1C0
  8
0
  6
BYLAYER
 62
  256
 10
-15.6724204853418
 20
244.7665625816618
 30
0
  0
VERTEX
  5
1C1
  8
0
  6
BYLAYER
 62
  256
 10
-15.44411781166426
 20
244.4539725488772
 30
0
  0
VERTEX
  5
1C2
  8
0
  6
BYLAYER
 62
  256
 10
-15.20269381704753
 20
244.1543860489254
 30
0
  0
VERTEX
  5
1C3
  8
0
  6
BYLAYER
 62
  256
 10
-14.94873011304087
 20
243.8685248119253
 30
0
  0
VERTEX
  5
1C4
  8
0
  6
BYLAYER
 62
  256
 10
-14.68283852045183
 20
243.5970775026356
 30
0
  0
VERTEX
  5
1C5
  8
0
  6
BYLAYER
 62
  256
 10
-14.40565959541631
 20
243.3406980614001
 30
0
  0
VERTEX
  5
1C6
  8
0
  6
BYLAYER
 62
  256
 10
-14.11786108624271
 20
243.100004128749
 30
0
  0
VERTEX
  5
1C7
  8
0
  6
BYLAYER
 62
  256
 10
-13.82013632474783
 20
242.8755755574485
 30
0
  0
VERTEX
  5
1C8
  8
0
  6
BYLAYER
 62
  256
 10
-13.51320255595971
 20
242.6679530155843
 30
0
  0
VERTEX
  5
1C9
  8
0
  6
BYLAYER
 62
  256
 10
-13.19779921021158
 20
242.4776366840454
 30
0
  0
VERTEX
  5
1CA
  8
0
  6
BYLAYER
 62
  256
 10
-12.87468612178941
 20
242.3050850515442
 30
0
  0
VERTEX
  5
1CB
  8
0
  6
BYLAYER
 62
  256
 10
-12.54464169842459
 20
242.1507138100772
 30
0
  0
VERTEX
  5
1CC
  8
0
  6
BYLAYER
 62
  256
 10
-12.20846104604146
 20
242.0148948534863
 30
0
  0
VERTEX
  5
1CD
  8
0
  6
BYLAYER
 62
  256
 10
-11.86695405327759
 20
241.8979553815344
 30
0
  0
VERTEX
  5
1CE
  8
0
  6
BYLAYER
 62
  256
 10
-11.520943440391
 20
241.800177111652
 30
0
  0
VERTEX
  5
1CF
  8
0
  6
BYLAYER
 62
  256
 10
-11.1712627772551
 20
241.7217956002557
 30
0
  0
VERTEX
  5
1D0
  8
0
  6
BYLAYER
 62
  256
 10
-10.81875447521579
 20
241.6629996752719
 30
0
  0
VERTEX
  5
1D1
  8
0
  6
BYLAYER
 62
  256
 10
-10.46426775764875
 20
241.6239309812336
 30
0
  0
VERTEX
  5
1D2
  8
0
  6
BYLAYER
 62
  256
 10
-10.10865661410599
 20
241.604683638047
 30
0
  0
SEQEND
  5
1D3
  8
0
  6
BYLAYER
 62
  256
  0
POLYLINE
  5
1D4
  8
0
  6
BYLAYER
 62
  256
 66
    1
 10
0
 20
0
 30
0
 70
    1
  0
VERTEX
  5
1D5
  8
0
  6
BYLAYER
 62
  256
 10
-58.49894057452546
 20
236.5033793512181
 30
0
  0
VERTEX
  5
1D6
  8
0
  6
BYLAYER
 62
  256
 10
-58.15064561961359
 20
236.5764599927272
 30
0
  0
VERTEX
  5
1D7
  8
0
  6
BYLAYER
 62
  256
 10
-57.80672636084839
 20
236.6689223584872
 30
0
  0
VERTEX
  5
1D8
  8
0
  6
BYLAYER
 62
  256
 10
-57.46801132984798
 20
236.7805436985602
 30
0
  0
VERTEX
  5
1D9
  8
0
  6
BYLAYER
 62
  256
 10
-57.13531652078999
 20
236.9110551073611
 30
0
  0
VERTEX
  5
1DA
  8
0
  6
BYLAYER
 62
  256
 10
-56.80944342461006
 20
237.0601421714748
 30
0
  0
VERTEX
  5
1DB
  8
0
  6
BYLAYER
 62
  256
 10
-56.49117709813999
 20
237.2274457271053
 30
0
  0
VERTEX
  5
1DC
  8
0
  6
BYLAYER
 62
  256
 10
-56.18128427283709
 20
237.4125627253329
 30
0
  0
VERTEX
  5
1DD
  8
0
  6
BYLAYER
 62
  256
 10
-55.88051150766093
 20
237.6150472030947
 30
0
  0
VERTEX
  5
1DE
  8
0
  6
BYLAYER
 62
  256
 10
-55.58958339054738
 20
237.834411357548
 30
0
  0
VERTEX
  5
1DF
  8
0
  6
BYLAYER
 62
  256
 10
-55.30920079281288
 20
238.070126721231
 30
0
  0
VERTEX
  5
1E0
  8
0
  6
BYLAYER
 62
  256
 10
-55.04003918069398
 20
238.3216254351862
 30
0
  0
VERTEX
  5
1E1
  8
0
  6
BYLAYER
 62
  256
 10
-54.78274698809005
 20
238.5883016169829
 30
0
  0
VERTEX
  5
1E2
  8
0
  6
BYLAYER
 62
  256
 10
-54.5379440544292
 20
238.8695128203412
 30
0
  0
VERTEX
  5
1E3
  8
0
  6
BYLAYER
 62
  256
 10
-54.30622013142084
 20
239.1645815828411
 30
0
  0
VERTEX
  5
1E4
  8
0
  6
BYLAYER
 62
  256
 10
-54.08813346229209
 20
239.4727970579886
 30
0
  0
VERTEX
  5
1E5
  8
0
  6
BYLAYER
 62
  256
 10
-53.88420943693104
 20
239.7934167277076
 30
0
  0
VERTEX
  5
1E6
  8
0
  6
BYLAYER
 62
  256
 10
-53.69493932617641
 20
240.1256681911308
 30
0
  0
VERTEX
  5
1E7
  8
0
  6
BYLAYER
 62
  256
 10
-53.52077909830311
 20
240.4687510253812
 30
0
  0
VERTEX
  5
1E8
  8
0
  6
BYLAYER
 62
  256
 10
-53.36214832055472
 20
240.8218387138603
 30
0
  0
VERTEX
  5
1E9
  8
0
  6
BYLAYER
 62
  256
 10
-53.21942914836927
 20
241.1840806373999
 30
0
  0
VERTEX
  5
1EA
  8
0
  6
BYLAYER
 62
  256
 10
-53.09296540473326
 20
241.5546041234775
 30
0
  0
VERTEX
  5
1EB
  8
0
  6
BYLAYER
 62
  256
 10
-52.98306175188202
 20
241.9325165485611
 30
0
  0
VERTEX
  5
1EC
  8
0
  6
BYLAYER
 62
  256
 10
-52.8899829573417
 20
242.3169074885174
 30
0
  0
VERTEX
  5
1ED
  8
0
  6
BYLAYER
 62
  256
 10
-52.81395325608109
 20
242.7068509119036
 30
0
  0
VERTEX
  5
1EE
  8
0
  6
BYLAYER
 62
  256
 10
-52.75515581030994
 20
243.1014074108575
 30
0
  0
VERTEX
  5
1EF
  8
0
  6
BYLAYER
 62
  256
 10
-52.71373226822516
 20
243.4996264642142
 30
0
  0
VERTEX
  5
1F0
  8
0
  6
BYLAYER
 62
  256
 10
-52.6897824227679
 20
243.9005487273942
 30
0
  0
VERTEX
  5
1F1
  8
0
  6
BYLAYER
 62
  256
 10
-52.68336397121363
 20
244.3032083435489
 30
0
  0
VERTEX
  5
1F2
  8
0
  6
BYLAYER
 62
  256
 10
-52.69449237617435
 20
244.7066352703942
 30
0
  0
VERTEX
  5
1F3
  8
0
  6
BYLAYER
 62
  256
 10
-52.72314082834774
 20
245.1098576171273
 30
0
  0
VERTEX
  5
1F4
  8
0
  6
BYLAYER
 62
  256
 10
-52.76924031110325
 20
245.5119039857967
 30
0
  0
VERTEX
  5
1F5
  8
0
  6
BYLAYER
 62
  256
 10
-52.83267976674905
 20
245.9118058114854
 30
0
  0
VERTEX
  5
1F6
  8
0
  6
BYLAYER
 62
  256
 10
-52.91330636407986
 20
246.3085996956678
 30
0
  0
VERTEX
  5
1F7
  8
0
  6
BYLAYER
 62
  256
 10
-53.01092586656065
 20
246.701329727122
 30
0
  0
VERTEX
  5
1F8
  8
0
  6
BYLAYER
 62
  256
 10
-53.1253031002595
 20
247.0890497848031
 30
0
  0
VERTEX
  5
1F9
  8
0
  6
BYLAYER
 62
  256
 10
-53.25616252040216
 20
247.470825817132
 30
0
  0
VERTEX
  5
1FA
  8
0
  6
BYLAYER
 62
  256
 10
-53.40318887518357
 20
247.845738092207
 30
0
  0
VERTEX
  5
1FB
  8
0
  6
BYLAYER
 62
  256
 10
-53.56602796523707
 20
248.2128834135191
 30
0
  0
VERTEX
  5
1FC
  8
0
  6
BYLAYER
 62
  256
 10
-53.74428749693171
 20
248.5713772958311
 30
0
  0
VERTEX
  5
1FD
  8
0
  6
BYLAYER
 62
  256
 10
-53.93753802744195
 20
248.9203560959802
 30
0
  0
VERTEX
  5
1FE
  8
0
  6
BYLAYER
 62
  256
 10
-54.14531399931303
 20
249.2589790934699
 30
0
  0
VERTEX
  5
1FF
  8
0
  6
BYLAYER
 62
  256
 10
-54.3671148620297
 20
249.5864305158393
 30
0
  0
VERTEX
  5
200
  8
0
  6
BYLAYER
 62
  256
 10
-54.60240627788621
 20
249.9019215039307
 30
0
  0
VERTEX
  5
201
  8
0
  6
BYLAYER
 62
  256
 10
-54.85062140925267
 20
250.2046920123199
 30
0
  0
VERTEX
  5
202
  8
0
  6
BYLAYER
 62
  256
 10
-55.11116228413653
 20
250.4940126403327
 30
0
  0
VERTEX
  5
203
  8
0
  6
BYLAYER
 62
  256
 10
-55.38340123674952
 20
250.7691863892346
 30
0
  0
VERTEX
  5
204
  8
0
  6
BYLAYER
 62
  256
 10
-55.66668241960948
 20
251.0295503413624
 30
0
  0
VERTEX
  5
205
  8
0
  6
BYLAYER
 62
  256
 10
-55.96032338353439
 20
251.27447725715
 30
0
  0
VERTEX
  5
206
  8
0
  6
BYLAYER
 62
  256
 10
-56.26361672172224
 20
251.5033770862042
 30
0
  0
VERTEX
  5
207
  8
0
  6
BYLAYER
 62
  256
 10
-56.575831773956
 20
251.7156983887876
 30
0
  0
VERTEX
  5
208
  8
0
  6
BYLAYER
 62
  256
 10
-56.89621638682801
 20
251.9109296642852
 30
0
  0
VERTEX
  5
209
  8
0
  6
BYLAYER
 62
  256
 10
-57.22399872574349
 20
252.0886005834541
 30
0
  0
VERTEX
  5
20A
  8
0
  6
BYLAYER
 62
  256
 10
-57.55838913433765
 20
252.2482831214877
 30
0
  0
VERTEX
  5
20B
  8
0
  6
BYLAYER
 62
  256
 10
-57.89858203682705
 20
252.3895925891655
 30
0
  0
VERTEX
  5
20C
  8
0
  6
BYLAYER
 62
  256
 10
-58.24375787871221
 20
252.5121885596025
 30
0
  0
VERTEX
  5
20D
  8
0
  6
BYLAYER
 62
  256
 10
-58.59308510115619
 20
252.615775688368
 30
0
  0
VERTEX
  5
20E
  8
0
  6
BYLAYER
 62
  256
 10
-58.94572214428268
 20
252.7001044249954
 30
0
  0
VERTEX
  5
20F
  8
0
  6
BYLAYER
 62
  256
 10
-59.30081947456743
 20
252.7649716141719
 30
0
  0
VERTEX
  5
210
  8
0
  6
BYLAYER
 62
  256
 10
-59.65752163143893
 20
252.8102209851572
 30
0
  0
VERTEX
  5
211
  8
0
  6
BYLAYER
 62
  256
 10
-60.01496928815785
 20
252.8357435282531
 30
0
  0
VERTEX
  5
212
  8
0
  6
BYLAYER
 62
  256
 10
-60.37230132201046
 20
252.8414777574177
 30
0
  0
VERTEX
  5
213
  8
0
  6
BYLAYER
 62
  256
 10
-60.72865688882859
 20
252.8274098583909
 30
0
  0
VERTEX
  5
214
  8
0
  6
BYLAYER
 62
  256
 10
-61.08317749683874
 20
252.7935737219735
 30
0
  0
VERTEX
  5
215
  8
0
  6
BYLAYER
 62
  256
 10
-61.43500907484385
 20
252.7400508623819
 30
0
  0
VERTEX
  5
216
  8
0
  6
BYLAYER
 62
  256
 10
-61.78330402975571
 20
252.6669702208729
 30
0
  0
VERTEX
  5
217
  8
0
  6
BYLAYER
 62
  256
 10
-62.12722328852092
 20
252.5745078551129
 30
0
  0
VERTEX
  5
218
  8
0
  6
BYLAYER
 62
  256
 10
-62.46593831952132
 20
252.4628865150399
 30
0
  0
VERTEX
  5
219
  8
0
  6
BYLAYER
 62
  256
 10
-62.79863312857932
 20
252.3323751062389
 30
0
  0
VERTEX
  5
21A
  8
0
  6
BYLAYER
 62
  256
 10
-63.12450622475925
 20
252.1832880421252
 30
0
  0
VERTEX
  5
21B
  8
0
  6
BYLAYER
 62
  256
 10
-63.44277255122932
 20
252.0159844864948
 30
0
  0
VERTEX
  5
21C
  8
0
  6
BYLAYER
 62
  256
 10
-63.75266537653222
 20
251.8308674882672
 30
0
  0
VERTEX
  5
21D
  8
0
  6
BYLAYER
 62
  256
 10
-64.05343814170838
 20
251.6283830105054
 30
0
  0
VERTEX
  5
21E
  8
0
  6
BYLAYER
 62
  256
 10
-64.34436625882192
 20
251.409018856052
 30
0
  0
VERTEX
  5
21F
  8
0
  6
BYLAYER
 62
  256
 10
-64.62474885655642
 20
251.173303492369
 30
0
  0
VERTEX
  5
220
  8
0
  6
BYLAYER
 62
  256
 10
-64.89391046867533
 20
250.9218047784139
 30
0
  0
VERTEX
  5
221
  8
0
  6
BYLAYER
 62
  256
 10
-65.15120266127926
 20
250.6551285966171
 30
0
  0
VERTEX
  5
222
  8
0
  6
BYLAYER
 62
  256
 10
-65.39600559494011
 20
250.3739173932588
 30
0
  0
VERTEX
  5
223
  8
0
  6
BYLAYER
 62
  256
 10
-65.62772951794848
 20
250.078848630759
 30
0
  0
VERTEX
  5
224
  8
0
  6
BYLAYER
 62
  256
 10
-65.84581618707722
 20
249.7706331556115
 30
0
  0
VERTEX
  5
225
  8
0
  6
BYLAYER
 62
  256
 10
-66.04974021243827
 20
249.4500134858924
 30
0
  0
VERTEX
  5
226
  8
0
  6
BYLAYER
 62
  256
 10
-66.2390103231929
 20
249.1177620224692
 30
0
  0
VERTEX
  5
227
  8
0
  6
BYLAYER
 62
  256
 10
-66.4131705510662
 20
248.7746791882189
 30
0
  0
VERTEX
  5
228
  8
0
  6
BYLAYER
 62
  256
 10
-66.57180132881459
 20
248.4215914997397
 30
0
  0
VERTEX
  5
229
  8
0
  6
BYLAYER
 62
  256
 10
-66.71452050100004
 20
248.0593495762002
 30
0
  0
VERTEX
  5
22A
  8
0
  6
BYLAYER
 62
  256
 10
-66.84098424463606
 20
247.6888260901226
 30
0
  0
VERTEX
  5
22B
  8
0
  6
BYLAYER
 62
  256
 10
-66.95088789748729
 20
247.310913665039
 30
0
  0
VERTEX
  5
22C
  8
0
  6
BYLAYER
 62
  256
 10
-67.04396669202761
 20
246.9265227250826
 30
0
  0
VERTEX
  5
22D
  8
0
  6
BYLAYER
 62
  256
 10
-67.11999639328822
 20
246.5365793016965
 30
0
  0
VERTEX
  5
22E
  8
0
  6
BYLAYER
 62
  256
 10
-67.17879383905937
 20
246.1420228027426
 30
0
  0
VERTEX
  5
22F
  8
0
  6
BYLAYER
 62
  256
 10
-67.22021738114415
 20
245.7438037493859
 30
0
  0
VERTEX
  5
230
  8
0
  6
BYLAYER
 62
  256
 10
-67.24416722660141
 20
245.3428814862058
 30
0
  0
VERTEX
  5
231
  8
0
  6
BYLAYER
 62
  256
 10
-67.25058567815567
 20
244.9402218700511
 30
0
  0
VERTEX
  5
232
  8
0
  6
BYLAYER
 62
  256
 10
-67.23945727319497
 20
244.5367949432058
 30
0
  0
VERTEX
  5
233
  8
0
  6
BYLAYER
 62
  256
 10
-67.21080882102157
 20
244.1335725964728
 30
0
  0
VERTEX
  5
234
  8
0
  6
BYLAYER
 62
  256
 10
-67.16470933826606
 20
243.7315262278033
 30
0
  0
VERTEX
  5
235
  8
0
  6
BYLAYER
 62
  256
 10
-67.10126988262027
 20
243.3316244021147
 30
0
  0
VERTEX
  5
236
  8
0
  6
BYLAYER
 62
  256
 10
-67.02064328528945
 20
242.9348305179323
 30
0
  0
VERTEX
  5
237
  8
0
  6
BYLAYER
 62
  256
 10
-66.92302378280866
 20
242.542100486478
 30
0
  0
VERTEX
  5
238
  8
0
  6
BYLAYER
 62
  256
 10
-66.80864654910981
 20
242.1543804287969
 30
0
  0
VERTEX
  5
239
  8
0
  6
BYLAYER
 62
  256
 10
-66.67778712896715
 20
241.7726043964681
 30
0
  0
VERTEX
  5
23A
  8
0
  6
BYLAYER
 62
  256
 10
-66.53076077418574
 20
241.3976921213931
 30
0
  0
VERTEX
  5
23B
  8
0
  6
BYLAYER
 62
  256
 10
-66.36792168413224
 20
241.030546800081
 30
0
  0
VERTEX
  5
23C
  8
0
  6
BYLAYER
 62
  256
 10
-66.18966215243759
 20
240.672052917769
 30
0
  0
VERTEX
  5
23D
  8
0
  6
BYLAYER
 62
  256
 10
-65.99641162192736
 20
240.3230741176199
 30
0
  0
VERTEX
  5
23E
  8
0
  6
BYLAYER
 62
  256
 10
-65.78863565005628
 20
239.9844511201302
 30
0
  0
VERTEX
  5
23F
  8
0
  6
BYLAYER
 62
  256
 10
-65.5668347873396
 20
239.6569996977607
 30
0
  0
VERTEX
  5
240
  8
0
  6
BYLAYER
 62
  256
 10
-65.33154337148309
 20
239.3415087096694
 30
0
  0
VERTEX
  5
241
  8
0
  6
BYLAYER
 62
  256
 10
-65.08332824011664
 20
239.0387382012802
 30
0
  0
VERTEX
  5
242
  8
0
  6
BYLAYER
 62
  256
 10
-64.82278736523278
 20
238.7494175732674
 30
0
  0
VERTEX
  5
243
  8
0
  6
BYLAYER
 62
  256
 10
-64.55054841261979
 20
238.4742438243654
 30
0
  0
VERTEX
  5
244
  8
0
  6
BYLAYER
 62
  256
 10
-64.26726722975984
 20
238.2138798722377
 30
0
  0
VERTEX
  5
245
  8
0
  6
BYLAYER
 62
  256
 10
-63.97362626583492
 20
237.9689529564501
 30
0
  0
VERTEX
  5
246
  8
0
  6
BYLAYER
 62
  256
 10
-63.67033292764707
 20
237.7400531273959
 30
0
  0
VERTEX
  5
247
  8
0
  6
BYLAYER
 62
  256
 10
-63.35811787541331
 20
237.5277318248124
 30
0
  0
VERTEX
  5
248
  8
0
  6
BYLAYER
 62
  256
 10
-63.03773326254129
 20
237.3325005493148
 30
0
  0
VERTEX
  5
249
  8
0
  6
BYLAYER
 62
  256
 10
-62.70995092362582
 20
237.154829630146
 30
0
  0
VERTEX
  5
24A
  8
0
  6
BYLAYER
 62
  256
 10
-62.37556051503166
 20
236.9951470921123
 30
0
  0
VERTEX
  5
24B
  8
0
  6
BYLAYER
 62
  256
 10
-62.03536761254226
 20
236.8538376244346
 30
0
  0
VERTEX
  5
24C
  8
0
  6
BYLAYER
 62
  256
 10
-61.69019177065711
 20
236.7312416539975
 30
0
  0
VERTEX
  5
24D
  8
0
  6
BYLAYER
 62
  256
 10
-61.34086454821313
 20
236.6276545252321
 30
0
  0
VERTEX
  5
24E
  8
0
  6
BYLAYER
 62
  256
 10
-60.98822750508663
 20
236.5433257886047
 30
0
  0
VERTEX
  5
24F
  8
0
  6
BYLAYER
 62
  256
 10
-60.63313017480188
 20
236.4784585994281
 30
0
  0
VERTEX
  5
250
  8
0
  6
BYLAYER
 62
  256
 10
-60.27642801793039
 20
236.4332092284429
 30
0
  0
VERTEX
  5
251
  8
0
  6
BYLAYER
 62
  256
 10
-59.91898036121146
 20
236.407686685347
 30
0
  0
VERTEX
  5
252
  8
0
  6
BYLAYER
 62
  256
 10
-59.56164832735886
 20
236.4019524561823
 30
0
  0
VERTEX
  5
253
  8
0
  6
BYLAYER
 62
  256
 10
-59.20529276054072
 20
236.4160203552091
 30
0
  0
VERTEX
  5
254
  8
0
  6
BYLAYER
 62
  256
 10
-58.85077215253058
 20
236.4498564916265
 30
0
  0
SEQEND
  5
255
  8
0
  6
BYLAYER
 62
  256
  0
POLYLINE
  5
256
  8
0
  6
BYLAYER
 62
  256
 66
    1
 10
0
 20
0
 30
0
 70
    1
  0
VERTEX
  5
257
  8
0
  6
BYLAYER
 62
  256
 10
0.8500000000000001
 20
247.9000037252903
 30
0
  0
VERTEX
  5
258
  8
0
  6
BYLAYER
 62
  256
 10
-0.8500000000000001
 20
247.9000037252903
 30
0
  0
VERTEX
  5
259
  8
0
  6
BYLAYER
 62
  256
 10
-0.8500000000000001
 20
252.1000037252903
 30
0
  0
VERTEX
  5
25A
  8
0
  6
BYLAYER
 62
  256
 10
0.8500000000000001
 20
252.1000037252903
 30
0
  0
SEQEND
  5
25B
  8
0
  6
BYLAYER
 62
  256
  0
POLYLINE
  5
25C
  8
0
  6
BYLAYER
 62
  256
 66
    1
 10
0
 20
0
 30
0
 70
    1
  0
VERTEX
  5
25D
  8
0
  6
BYLAYER
 62
  256
 10
-50.3420358217972
 20
244.095778324817
 30
0
  0
VERTEX
  5
25E
  8
0
  6
BYLAYER
 62
  256
 10
-50.96283534854156
 20
248.2496449509371
 30
0
  0
VERTEX
  5
25F
  8
0
  6
BYLAYER
 62
  256
 10
-49.2815083808263
 20
248.5009209498574
 30
0
  0
VERTEX
  5
260
  8
0
  6
BYLAYER
 62
  256
 10
-48.66070885408193
 20
244.3470543237373
 30
0
  0
SEQEND
  5
261
  8
0
  6
BYLAYER
 62
  256
  0
POLYLINE
  5
262
  8
0
  6
BYLAYER
 62
  256
 66
    1
 10
0
 20
0
 30
0
 70
    1
  0
VERTEX
  5
263
  8
0
  6
BYLAYER
 62
  256
 10
-25.66659629984941
 20
246.9160984881981
 30
0
  0
VERTEX
  5
264
  8
0
  6
BYLAYER
 62
  256
 10
-25.97785195867009
 20
251.104549265616
 30
0
  0
VERTEX
  5
265
  8
0
  6
BYLAYER
 62
  256
 10
-24.28252664400096
 20
251.2305336989481
 30
0
  0
VERTEX
  5
266
  8
0
  6
BYLAYER
 62
  256
 10
-23.97127098518029
 20
247.0420829215303
 30
0
  0
SEQEND
  5
267
  8
0
  6
BYLAYER
 62
  256
  0
POLYLINE
  5
268
  8
0
  6
BYLAYER
 62
  256
 66
    1
 10
0
 20
0
 30
0
 70
    1
  0
VERTEX
  5
269
  8
0
  6
BYLAYER
 62
  256
 10
50.3420358217972
 20
244.095778324817
 30
0
  0
VERTEX
  5
26A
  8
0
  6
BYLAYER
 62
  256
 10
50.96283534854156
 20
248.2496449509371
 30
0
  0
VERTEX
  5
26B
  8
0
  6
BYLAYER
 62
  256
 10
49.2815083808263
 20
248.5009209498574
 30
0
  0
VERTEX
  5
26C
  8
0
  6
BYLAYER
 62
  256
 10
48.66070885408193
 20
244.3470543237373
 30
0
  0
SEQEND
  5
26D
  8
0
  6
BYLAYER
 62
  256
  0
POLYLINE
  5
26E
  8
0
  6
BYLAYER
 62
  256
 66
    1
 10
0
 20
0
 30
0
 70
    1
  0
VERTEX
  5
26F
  8
0
  6
BYLAYER
 62
  256
 10
25.66659629984941
 20
246.9160984881981
 30
0
  0
VERTEX
  5
270
  8
0
  6
BYLAYER
 62
  256
 10
25.97785195867009
 20
251.104549265616
 30
0
  0
VERTEX
  5
271
  8
0
  6
BYLAYER
 62
  256
 10
24.28252664400096
 20
251.2305336989481
 30
0
  0
VERTEX
  5
272
  8
0
  6
BYLAYER
 62
  256
 10
23.97127098518029
 20
247.0420829215303
 30
0
  0
SEQEND
  5
273
  8
0
  6
BYLAYER
 62
  256
  0
CIRCLE
  5
274
  8
0
  6
BYLAYER
 62
  256
 10
-75
 20
240
 40
1.350000000000001
  0
CIRCLE
  5
275
  8
0
  6
BYLAYER
 62
  256
 10
-75
 20
260
 40
1.350000000000005
  0
CIRCLE
  5
276
  8
0
  6
BYLAYER
 62
  256
 10
75
 20
240
 40
1.350000000000004
  0
CIRCLE
  5
277
  8
0
  6
BYLAYER
 62
  256
 10
75
 20
260
 40
1.349999999999996
  0
ENDSEC
  0
EOF
