0
SECTION
2
HEADER
9
$INSUNITS
70
4
9
$ACADVER
1
AC1014
9
$HANDSEED
5
FFFF
0
ENDSEC
0
SECTION
2
TABLES
0
TABLE
2
VPORT
5
8
100
AcDbSymbolTable
0
ENDTAB
0
TABLE
2
LTYPE
5
5
100
AcDbSymbolTable
0
LTYPE
5
14
100
AcDbSymbolTableRecord
100
AcDbLinetypeTableRecord
2
BYBLOCK
70
0
0
LTYPE
5
15
100
AcDbSymbolTableRecord
100
AcDbLinetypeTableRecord
2
BYLAYER
70
0
0
ENDTAB
0
TABLE
2
LAYER
5
2
100
AcDbSymbolTable
70
2
0
LAYER
5
50
100
AcDbSymbolTableRecord
100
AcDbLayerTableRecord
2
0
70
0
6
CONTINUOUS
0
ENDTAB
0
TABLE
2
STYLE
5
3
100
AcDbSymbolTable
70
1
0
STYLE
5
11
100
AcDbSymbolTableRecord
100
AcDbTextStyleTableRecord
2
STANDARD
70
0
0
ENDTAB
0
TABLE
2
VIEW
5
6
100
AcDbSymbolTable
70
0
0
ENDTAB
0
TABLE
2
UCS
5
7
100
AcDbSymbolTable
70
0
0
ENDTAB
0
TABLE
2
APPID
5
9
100
AcDbSymbolTable
70
2
0
APPID
5
12
100
AcDbSymbolTableRecord
100
AcDbRegAppTableRecord
2
ACAD
70
0
0
ENDTAB
0
TABLE
2
DIMSTYLE
5
A
100
AcDbSymbolTable
70
1
0
ENDTAB
0
TABLE
2
BLOCK_RECORD
5
1
100
AcDbSymbolTable
70
1
0
BLOCK_RECORD
5
1F
100
AcDbSymbolTableRecord
100
AcDbBlockTableRecord
2
*MODEL_SPACE
0
BLOCK_RECORD
5
1B
100
AcDbSymbolTableRecord
100
AcDbBlockTableRecord
2
*PAPER_SPACE
0
ENDTAB
0
ENDSEC
0
SECTION
2
BLOCKS
0
BLOCK
5
20
100
AcDbEntity
100
AcDbBlockBegin
2
*MODEL_SPACE
0
ENDBLK
5
21
100
AcDbEntity
100
AcDbBlockEnd
0
BLOCK
5
1C
100
AcDbEntity
100
AcDbBlockBegin
2
*PAPER_SPACE
0
ENDBLK
5
1D
100
AcDbEntity
100
AcDbBlockEnd
0
ENDSEC
0
SECTION
2
ENTITIES
0
CIRCLE
5
100
100
AcDbEntity
8
0
100
AcDbCircle
10
23.487828343053714
20
-87.657768735732944
30
0
40
1.5000000000000002
210
0
220
-0
230
1
0
CIRCLE
5
101
100
AcDbEntity
8
0
100
AcDbCircle
10
0
20
-87.000000000000014
30
0
40
7.4500000000000011
210
0
220
-0
230
1
0
CIRCLE
5
102
100
AcDbEntity
8
0
100
AcDbCircle
10
-23.487828343053714
20
-87.657768735732944
30
0
40
1.5000000000000002
210
0
220
-0
230
1
0
CIRCLE
5
103
100
AcDbEntity
8
0
100
AcDbCircle
10
51.78149086682658
20
74.526771724050633
30
0
40
1.5000000000000002
210
0
220
-0
230
1
0
CIRCLE
5
104
100
AcDbEntity
8
0
100
AcDbCircle
10
-51.78149086682658
20
74.526771724050633
30
0
40
1.5000000000000002
210
0
220
-0
230
1
0
SPLINE
5
105
100
AcDbEntity
8
0
100
AcDbSpline
70
4
71
3
72
14
73
10
74
0
42
0.000000001
43
0.0000000001
44
0.0000000001
40
0.66828383725675733
40
0.66828383725675733
40
0.66828383725675733
40
0.66828383725675733
40
0.75475788502626762
40
0.75475788502626762
40
0.75475788502626762
40
0.9750194724700838
40
0.9750194724700838
40
0.9750194724700838
40
1
40
1
40
1
40
1
41
1
41
1
41
1
41
1
41
1
41
1
41
1
41
1
41
1
41
1
10
-54.596682267676265
20
53.585933663825529
30
0
10
-51.576878205241563
20
48.012540186022648
30
0
10
-48.528868564789995
20
42.681820989322716
30
0
10
-45.480223148939331
20
37.572381635757431
30
0
10
-37.713957304715862
20
24.553411215948998
30
0
10
-29.947016719630536
20
12.993271006612165
30
0
10
-22.247709253405255
20
2.8969841554968818
30
0
10
-21.373974761863629
20
1.7521355844479849
30
0
10
-20.500622811253599
20
0.62605971431909269
30
0
10
-19.627276514542405
20
-0.48143552339305151
30
0
0
SPLINE
5
106
100
AcDbEntity
8
0
100
AcDbSpline
70
4
71
5
72
13
73
7
74
0
42
0.000000001
43
0.0000000001
44
0.0000000001
40
0.65234283150385608
40
0.65234283150385608
40
0.65234283150385608
40
0.65234283150385608
40
0.65234283150385608
40
0.65234283150385608
40
0.80000000000000004
40
1
40
1
40
1
40
1
40
1
40
1
41
1
41
1
41
1
41
1
41
1
41
1
41
1
10
-34.235356514234482
20
68.411916839135273
30
0
10
-31.325996815349356
20
62.958003278907526
30
0
10
-24.402001009205829
20
50.540517889849838
30
0
10
-17.397049926692805
20
39.14689322521788
30
0
10
-10.497969558991221
20
28.868760326277616
30
0
10
-3.7929346725172963
20
19.808660415545493
30
0
10
2.3645030601722201e-15
20
15
30
0
0
SPLINE
5
107
100
AcDbEntity
8
0
100
AcDbSpline
70
4
71
5
72
13
73
7
74
0
42
0.000000001
43
0.0000000001
44
0.0000000001
40
0.65234283150385608
40
0.65234283150385608
40
0.65234283150385608
40
0.65234283150385608
40
0.65234283150385608
40
0.65234283150385608
40
0.80000000000000004
40
1
40
1
40
1
40
1
40
1
40
1
41
1
41
1
41
1
41
1
41
1
41
1
41
1
10
34.23535651423451
20
68.411916839135287
30
0
10
31.32599681534936
20
62.958003278907526
30
0
10
24.40200100920584
20
50.540517889849838
30
0
10
17.397049926692816
20
39.14689322521788
30
0
10
10.497969558991231
20
28.868760326277616
30
0
10
3.7929346725173079
20
19.808660415545493
30
0
10
4.8519463351935014e-15
20
15
30
0
0
SPLINE
5
108
100
AcDbEntity
8
0
100
AcDbSpline
70
4
71
3
72
14
73
10
74
0
42
0.000000001
43
0.0000000001
44
0.0000000001
40
0.6682840284383561
40
0.6682840284383561
40
0.6682840284383561
40
0.6682840284383561
40
0.75475788502626762
40
0.75475788502626762
40
0.75475788502626762
40
0.9750194724700838
40
0.9750194724700838
40
0.9750194724700838
40
1
40
1
40
1
40
1
41
1
41
1
41
1
41
1
41
1
41
1
41
1
41
1
41
1
41
1
10
54.634420812817623
20
53.547456183365618
30
0
10
51.613376805624618
20
47.99414488102186
30
0
10
48.560246953839325
20
42.664609923465264
30
0
10
45.507120378828326
20
37.556158232216831
30
0
10
37.730359487243426
20
24.544183015699623
30
0
10
29.955086505723131
20
12.988255309688777
30
0
10
22.249710487421218
20
2.8954709096609159
30
0
10
21.375820673314429
20
1.7508179471824292
30
0
10
20.50228494611034
20
0.62484317017341273
30
0
10
19.628786134314446
20
-0.48257368368439157
30
0
0
ARC
5
109
100
AcDbEntity
8
0
100
AcDbCircle
10
0
20
0
30
0
40
76.500000008245109
210
0
220
-0
230
1
100
AcDbArc
50
63.415255210647693
51
116.58474478935231
0
CIRCLE
5
110
100
AcDbEntity
8
0
100
AcDbCircle
10
0
20
0
30
0
40
7.4500000000000011
210
0
220
0
230
1
0
CIRCLE
5
111
100
AcDbEntity
8
0
100
AcDbCircle
10
4.3140830754274083e-31
20
87.899999999999991
30
0
40
2.2999999999999998
210
0
220
0
230
1
0
CIRCLE
5
112
100
AcDbEntity
8
0
100
AcDbCircle
10
-47.36611945660583
20
-77.40809536232338
30
0
40
1.5000000000000036
210
0
220
0
230
1
0
CIRCLE
5
113
100
AcDbEntity
8
0
100
AcDbCircle
10
-81.169267583242373
20
40.584633791621187
30
0
40
1.5000000000000036
210
0
220
0
230
1
0
CIRCLE
5
114
100
AcDbEntity
8
0
100
AcDbCircle
10
47.36611945660583
20
-77.40809536232338
30
0
40
1.5000000000000036
210
0
220
0
230
1
0
CIRCLE
5
115
100
AcDbEntity
8
0
100
AcDbCircle
10
81.169267583242373
20
40.584633791621187
30
0
40
1.5000000000000036
210
0
220
0
230
1
0
CIRCLE
5
116
100
AcDbEntity
8
0
100
AcDbCircle
10
-55
20
-60
30
0
40
1.3500000000000001
210
0
220
0
230
1
0
SPLINE
5
117
100
AcDbEntity
8
0
100
AcDbSpline
70
4
71
5
72
31
73
25
74
0
42
0.000000001
43
0.0000000001
44
0.0000000001
40
0
40
0
40
0
40
0
40
0
40
0
40
0.050000000000000003
40
0.10000000000000001
40
0.15000000000000002
40
0.20000000000000001
40
0.25
40
0.29999999999999999
40
0.34999999999999998
40
0.39999999999999997
40
0.44999999999999996
40
0.49999999999999994
40
0.54999999999999993
40
0.59999999999999998
40
0.65000000000000002
40
0.70000000000000007
40
0.75000000000000011
40
0.80000000000000016
40
0.8500000000000002
40
0.90000000000000024
40
0.95000000000000029
40
1
40
1
40
1
40
1
40
1
40
1
41
1
41
1
41
1
41
1
41
1
41
1
41
1
41
1
41
1
41
1
41
1
41
1
41
1
41
1
41
1
41
1
41
1
41
1
41
1
41
1
41
1
41
1
41
1
41
1
41
1
10
-20.500622811253599
20
0.62605971431909269
30
0
10
-20.002197072874822
20
0.21560078931158944
30
0
10
-19.093682940002623
20
-0.62805189499852199
30
0
10
-17.995912797486632
20
-1.9617354811457242
30
0
10
-17.064479808339954
20
-3.8769454915041468
30
0
10
-16.782200959840765
20
-6.5016680746909374
30
0
10
-17.345890222773583
20
-9.3586344812673268
30
0
10
-18.662215653954327
20
-12.446430418575652
30
0
10
-20.567130926354888
20
-15.758159849742041
30
0
10
-22.862636056312414
20
-19.277442230917835
30
0
10
-25.34376533265824
20
-22.974534019469179
30
0
10
-27.830146976690529
20
-26.801508004829266
30
0
10
-30.19221900855246
20
-30.688385544124344
30
0
10
-32.388878190980201
20
-34.535713691337484
30
0
10
-34.463116521417817
20
-38.220048638516431
30
0
10
-36.510426317089866
20
-41.607983845246849
30
0
10
-38.656298794229379
20
-44.567621565921371
30
0
10
-41.030848189308564
20
-46.981215715320985
30
0
10
-43.744354382458049
20
-48.758248751630248
30
0
10
-46.86327149791822
20
-49.848385465598646
30
0
10
-50.422246311359451
20
-50.229529569603727
30
0
10
-53.631590400204303
20
-49.964127831767144
30
0
10
-56.242507846223489
20
-49.446355231895645
30
0
10
-58.073375171407804
20
-48.960097522797106
30
0
10
-59.01137289291978
20
-48.681699544636686
30
0
0
SPLINE
5
118
100
AcDbEntity
8
0
100
AcDbSpline
70
4
71
5
72
26
73
20
74
0
42
0.000000001
43
0.0000000001
44
0.0000000001
40
0
40
0
40
0
40
0
40
0
40
0
40
0.066666666666666666
40
0.13333333333333333
40
0.20000000000000001
40
0.26666666666666666
40
0.33333333333333331
40
0.39999999999999997
40
0.46666666666666662
40
0.53333333333333333
40
0.59999999999999998
40
0.66666666666666663
40
0.73333333333333328
40
0.79999999999999993
40
0.86666666666666659
40
0.93333333333333324
40
1
40
1
40
1
40
1
40
1
40
1
41
1
41
1
41
1
41
1
41
1
41
1
41
1
41
1
41
1
41
1
41
1
41
1
41
1
41
1
41
1
41
1
41
1
41
1
41
1
41
1
10
-17.912338085251285
20
-74.373369868395514
30
0
10
-18.684568325649192
20
-73.617274999064534
30
0
10
-20.129925015285373
20
-72.092608768146931
30
0
10
-22.000642765838553
20
-69.768179296124245
30
0
10
-23.896026638677867
20
-66.593541045630332
30
0
10
-25.252790769296741
20
-62.498843858817203
30
0
10
-25.601203704038845
20
-58.281465600028241
30
0
10
-24.985097216127844
20
-53.9534179258862
30
0
10
-23.520881835227794
20
-49.540262594698788
30
0
10
-21.410378743465529
20
-45.084097348602477
30
0
10
-18.887737655853488
20
-40.636892958963315
30
0
10
-16.173339939511788
20
-36.256784802781624
30
0
10
-13.44127668764177
20
-32.001525805023903
30
0
10
-10.746872813712791
20
-27.927436429332467
30
0
10
-8.0572227442102822
20
-24.074034478425347
30
0
10
-5.3731558759607747
20
-20.456840657867474
30
0
10
-3.2245617319124404
20
-17.75542468598189
30
0
10
-1.6126091724632443
20
-15.836379380153968
30
0
10
-0.53759372844833964
20
-14.604254256391044
30
0
10
0
20
-14.000000208616257
30
0
0
SPLINE
5
119
100
AcDbEntity
8
0
100
AcDbSpline
70
4
71
5
72
26
73
20
74
0
42
0.000000001
43
0.0000000001
44
0.0000000001
40
0
40
0
40
0
40
0
40
0
40
0
40
0.066666666666666666
40
0.13333333333333333
40
0.20000000000000001
40
0.26666666666666666
40
0.33333333333333331
40
0.39999999999999997
40
0.46666666666666662
40
0.53333333333333333
40
0.59999999999999998
40
0.66666666666666663
40
0.73333333333333328
40
0.79999999999999993
40
0.86666666666666659
40
0.93333333333333324
40
1
40
1
40
1
40
1
40
1
40
1
41
1
41
1
41
1
41
1
41
1
41
1
41
1
41
1
41
1
41
1
41
1
41
1
41
1
41
1
41
1
41
1
41
1
41
1
41
1
41
1
10
17.912338085251285
20
-74.373369868395514
30
0
10
18.684568325649192
20
-73.617274999064534
30
0
10
20.129925015285373
20
-72.092608768146931
30
0
10
22.000642765838553
20
-69.768179296124245
30
0
10
23.896026638677867
20
-66.593541045630332
30
0
10
25.252790769296741
20
-62.498843858817203
30
0
10
25.601203704038845
20
-58.281465600028241
30
0
10
24.985097216127844
20
-53.9534179258862
30
0
10
23.520881835227794
20
-49.540262594698788
30
0
10
21.410378743465529
20
-45.084097348602477
30
0
10
18.887737655853488
20
-40.636892958963315
30
0
10
16.173339939511788
20
-36.256784802781624
30
0
10
13.44127668764177
20
-32.001525805023903
30
0
10
10.746872813712791
20
-27.927436429332467
30
0
10
8.0572227442102822
20
-24.074034478425347
30
0
10
5.3731558759607747
20
-20.456840657867474
30
0
10
3.2245617319124404
20
-17.75542468598189
30
0
10
1.6126091724632443
20
-15.836379380153968
30
0
10
0.53759372844833964
20
-14.604254256391044
30
0
10
0
20
-14.000000208616257
30
0
0
SPLINE
5
120
100
AcDbEntity
8
0
100
AcDbSpline
70
4
71
5
72
31
73
25
74
0
42
0.000000001
43
0.0000000001
44
0.0000000001
40
0
40
0
40
0
40
0
40
0
40
0
40
0.050000000000000003
40
0.10000000000000001
40
0.15000000000000002
40
0.20000000000000001
40
0.25
40
0.29999999999999999
40
0.34999999999999998
40
0.39999999999999997
40
0.44999999999999996
40
0.49999999999999994
40
0.54999999999999993
40
0.59999999999999998
40
0.65000000000000002
40
0.70000000000000007
40
0.75000000000000011
40
0.80000000000000016
40
0.8500000000000002
40
0.90000000000000024
40
0.95000000000000029
40
1
40
1
40
1
40
1
40
1
40
1
41
1
41
1
41
1
41
1
41
1
41
1
41
1
41
1
41
1
41
1
41
1
41
1
41
1
41
1
41
1
41
1
41
1
41
1
41
1
41
1
41
1
41
1
41
1
41
1
41
1
10
20.500622811253599
20
0.62605971431909269
30
0
10
20.002197072874822
20
0.21560078931158944
30
0
10
19.093682940002623
20
-0.62805189499852199
30
0
10
17.995912797486632
20
-1.9617354811457242
30
0
10
17.064479808339954
20
-3.8769454915041468
30
0
10
16.782200959840765
20
-6.5016680746909374
30
0
10
17.345890222773583
20
-9.3586344812673268
30
0
10
18.662215653954327
20
-12.446430418575652
30
0
10
20.567130926354888
20
-15.758159849742041
30
0
10
22.862636056312414
20
-19.277442230917835
30
0
10
25.34376533265824
20
-22.974534019469179
30
0
10
27.830146976690529
20
-26.801508004829266
30
0
10
30.19221900855246
20
-30.688385544124344
30
0
10
32.388878190980201
20
-34.535713691337484
30
0
10
34.463116521417817
20
-38.220048638516431
30
0
10
36.510426317089866
20
-41.607983845246849
30
0
10
38.656298794229379
20
-44.567621565921371
30
0
10
41.030848189308564
20
-46.981215715320985
30
0
10
43.744354382458049
20
-48.758248751630248
30
0
10
46.86327149791822
20
-49.848385465598646
30
0
10
50.422246311359451
20
-50.229529569603727
30
0
10
53.631590400204303
20
-49.964127831767144
30
0
10
56.242507846223489
20
-49.446355231895645
30
0
10
58.073375171407804
20
-48.960097522797106
30
0
10
59.01137289291978
20
-48.681699544636686
30
0
0
ARC
5
121
100
AcDbEntity
8
0
100
AcDbCircle
10
0
20
0
30
0
40
76.500000008245138
210
0
220
0
230
1
100
AcDbArc
50
135.53529805761363
51
219.52108116532054
0
ARC
5
122
100
AcDbEntity
8
0
100
AcDbCircle
10
0
20
0
30
0
40
76.500000008245138
210
0
220
0
230
1
100
AcDbArc
50
256.45858198737153
51
270.12492932228054
0
ARC
5
123
100
AcDbEntity
8
0
100
AcDbCircle
10
0
20
0
30
0
40
76.500000008245109
210
0
220
0
230
1
100
AcDbArc
50
270.12492932228054
51
283.54141801262847
0
ARC
5
124
100
AcDbEntity
8
0
100
AcDbCircle
10
0
20
0
30
0
40
76.500000008245152
210
0
220
0
230
1
100
AcDbArc
50
-39.52108116532056
51
44.424336202532267
0
CIRCLE
5
125
100
AcDbEntity
8
0
100
AcDbCircle
10
0
20
0
30
0
40
104.99999999999999
210
0
220
0
230
1
0
ENDSEC
0
SECTION
2
OBJECTS
0
DICTIONARY
5
C
100
AcDbDictionary
3
ACAD_GROUP
350
D
3
ACAD_MLINESTYLE
350
17
0
DICTIONARY
5
D
100
AcDbDictionary
0
DICTIONARY
5
1A
330
C
100
AcDbDictionary
0
DICTIONARY
5
17
100
AcDbDictionary
0
ENDSEC
0
EOF
