0
SECTION
2
HEADER
9
$INSUNITS
70
4
9
$ACADVER
1
AC1014
9
$HANDSEED
5
FFFF
0
ENDSEC
0
SECTION
2
TABLES
0
TABLE
2
VPORT
5
8
100
AcDbSymbolTable
0
ENDTAB
0
TABLE
2
LTYPE
5
5
100
AcDbSymbolTable
0
LTYPE
5
14
100
AcDbSymbolTableRecord
100
AcDbLinetypeTableRecord
2
BYBLOCK
70
0
0
LTYPE
5
15
100
AcDbSymbolTableRecord
100
AcDbLinetypeTableRecord
2
BYLAYER
70
0
0
ENDTAB
0
TABLE
2
LAYER
5
2
100
AcDbSymbolTable
70
2
0
LAYER
5
50
100
AcDbSymbolTableRecord
100
AcDbLayerTableRecord
2
0
70
0
6
CONTINUOUS
0
ENDTAB
0
TABLE
2
STYLE
5
3
100
AcDbSymbolTable
70
1
0
STYLE
5
11
100
AcDbSymbolTableRecord
100
AcDbTextStyleTableRecord
2
STANDARD
70
0
0
ENDTAB
0
TABLE
2
VIEW
5
6
100
AcDbSymbolTable
70
0
0
ENDTAB
0
TABLE
2
UCS
5
7
100
AcDbSymbolTable
70
0
0
ENDTAB
0
TABLE
2
APPID
5
9
100
AcDbSymbolTable
70
2
0
APPID
5
12
100
AcDbSymbolTableRecord
100
AcDbRegAppTableRecord
2
ACAD
70
0
0
ENDTAB
0
TABLE
2
DIMSTYLE
5
A
100
AcDbSymbolTable
70
1
0
ENDTAB
0
TABLE
2
BLOCK_RECORD
5
1
100
AcDbSymbolTable
70
1
0
BLOCK_RECORD
5
1F
100
AcDbSymbolTableRecord
100
AcDbBlockTableRecord
2
*MODEL_SPACE
0
BLOCK_RECORD
5
1B
100
AcDbSymbolTableRecord
100
AcDbBlockTableRecord
2
*PAPER_SPACE
0
ENDTAB
0
ENDSEC
0
SECTION
2
BLOCKS
0
BLOCK
5
20
100
AcDbEntity
100
AcDbBlockBegin
2
*MODEL_SPACE
0
ENDBLK
5
21
100
AcDbEntity
100
AcDbBlockEnd
0
BLOCK
5
1C
100
AcDbEntity
100
AcDbBlockBegin
2
*PAPER_SPACE
0
ENDBLK
5
1D
100
AcDbEntity
100
AcDbBlockEnd
0
ENDSEC
0
SECTION
2
ENTITIES
0
LINE
5
100
100
AcDbEntity
8
0
100
AcDbLine
10
95.199999999999989
20
-47.5
30
0
11
95.199999999999989
21
-32.499999999999993
31
0
0
LINE
5
101
100
AcDbEntity
8
0
100
AcDbLine
10
95.199999999999989
20
-32.499999999999993
30
0
11
100
21
-32.499999999999993
31
0
0
LWPOLYLINE
5
102
100
AcDbEntity
8
0
100
AcDbPolyline
90
4
70
1
43
0.0
10
75.000000000000014
20
-90.199999999999989
10
75.000000000000014
20
-85.399999999999991
10
79.800000000000011
20
-85.399999999999991
10
79.800000000000011
20
-90.199999999999989
0
LWPOLYLINE
5
103
100
AcDbEntity
8
0
100
AcDbPolyline
90
4
70
1
43
0.0
10
95.199999999999989
20
-85.399999999999991
10
95.199999999999989
20
-90.199999999999989
10
90.399999999999991
20
-90.199999999999989
10
90.399999999999991
20
-85.399999999999991
0
LWPOLYLINE
5
104
100
AcDbEntity
8
0
100
AcDbPolyline
90
4
70
1
43
0.0
10
95.199999999999989
20
-7.9750000000000014
10
95.199999999999989
20
-12.775
10
80.199999999999989
20
-12.775
10
80.199999999999989
20
-7.9750000000000014
0
LWPOLYLINE
5
105
100
AcDbEntity
8
0
100
AcDbPolyline
90
4
70
1
43
0.0
10
80.199999999999989
20
-23.925000000000001
10
80.199999999999989
20
-28.725000000000005
10
95.199999999999989
20
-28.725000000000005
10
95.199999999999989
20
-23.925000000000001
0
LINE
5
106
100
AcDbEntity
8
0
100
AcDbLine
10
75
20
0
30
0
11
46.999999999999993
21
-4.8381396778228082e-14
31
0
0
LINE
5
107
100
AcDbEntity
8
0
100
AcDbLine
10
46.999999999999993
20
-4.8381396778228082e-14
30
0
11
46.999999999999993
21
-4.8000000000000016
31
0
0
LINE
5
108
100
AcDbEntity
8
0
100
AcDbLine
10
46.999999999999993
20
-4.8000000000000016
30
0
11
16.999999999999996
21
-4.7999999999999972
31
0
0
LINE
5
109
100
AcDbEntity
8
0
100
AcDbLine
10
16.999999999999996
20
-4.7999999999999972
30
0
11
17.000000000000014
21
-3.574581708073426e-14
31
0
0
LINE
5
110
100
AcDbEntity
8
0
100
AcDbLine
10
17.000000000000014
20
-3.574581708073426e-14
30
0
11
0
21
0
31
0
0
LINE
5
111
100
AcDbEntity
8
0
100
AcDbLine
10
100
20
-4.7999999999999998
30
0
11
100
21
-32.499999999999993
31
0
0
LINE
5
112
100
AcDbEntity
8
0
100
AcDbLine
10
100
20
-90.199999999999989
30
0
11
100
21
-62.500000000000007
31
0
0
LINE
5
113
100
AcDbEntity
8
0
100
AcDbLine
10
95.199999999999989
20
-62.500000000000007
30
0
11
100
21
-62.500000000000007
31
0
0
LINE
5
114
100
AcDbEntity
8
0
100
AcDbLine
10
95.199999999999989
20
-47.5
30
0
11
95.199999999999989
21
-62.500000000000007
31
0
0
LWPOLYLINE
5
115
100
AcDbEntity
8
0
100
AcDbPolyline
90
4
70
1
43
0.0
10
24.199999999999989
20
-7.9750000000000014
10
24.199999999999989
20
-12.775
10
39.199999999999989
20
-12.775
10
39.199999999999989
20
-7.9750000000000014
0
LWPOLYLINE
5
116
100
AcDbEntity
8
0
100
AcDbPolyline
90
4
70
1
43
0.0
10
24.199999999999989
20
-23.925000000000001
10
24.199999999999989
20
-28.725000000000005
10
39.199999999999989
20
-28.725000000000005
10
39.199999999999989
20
-23.925000000000001
0
LINE
5
117
100
AcDbEntity
8
0
100
AcDbLine
10
-16.999999999999996
20
-4.7999999999999972
30
0
11
-17.000000000000014
21
-3.5804692544161298e-14
31
0
0
LWPOLYLINE
5
118
100
AcDbEntity
8
0
100
AcDbPolyline
90
4
70
1
43
0.0
10
-24.199999999999989
20
-7.9750000000000014
10
-39.199999999999989
20
-7.9750000000000014
10
-39.199999999999989
20
-12.775
10
-24.199999999999989
20
-12.775
0
LWPOLYLINE
5
119
100
AcDbEntity
8
0
100
AcDbPolyline
90
4
70
1
43
0.0
10
-75.000000000000014
20
-85.399999999999991
10
-79.800000000000011
20
-85.399999999999991
10
-79.800000000000011
20
-90.199999999999989
10
-75.000000000000014
20
-90.199999999999989
0
LWPOLYLINE
5
120
100
AcDbEntity
8
0
100
AcDbPolyline
90
4
70
1
43
0.0
10
-80.199999999999989
20
-23.925000000000001
10
-95.199999999999989
20
-23.925000000000001
10
-95.199999999999989
20
-28.725000000000005
10
-80.199999999999989
20
-28.725000000000005
0
LINE
5
121
100
AcDbEntity
8
0
100
AcDbLine
10
-75
20
0
30
0
11
-46.999999999999993
21
-4.829470157119431e-14
31
0
0
LINE
5
122
100
AcDbEntity
8
0
100
AcDbLine
10
-46.999999999999993
20
-4.829470157119431e-14
30
0
11
-46.999999999999993
21
-4.8000000000000016
31
0
0
LINE
5
123
100
AcDbEntity
8
0
100
AcDbLine
10
-95.199999999999989
20
-62.500000000000007
30
0
11
-100
21
-62.500000000000007
31
0
0
LWPOLYLINE
5
124
100
AcDbEntity
8
0
100
AcDbPolyline
90
4
70
1
43
0.0
10
-95.199999999999989
20
-7.9750000000000014
10
-95.199999999999989
20
-12.775
10
-80.199999999999989
20
-12.775
10
-80.199999999999989
20
-7.9750000000000014
0
LINE
5
125
100
AcDbEntity
8
0
100
AcDbLine
10
-46.999999999999993
20
-4.8000000000000016
30
0
11
-16.999999999999996
21
-4.7999999999999972
31
0
0
LWPOLYLINE
5
126
100
AcDbEntity
8
0
100
AcDbPolyline
90
4
70
1
43
0.0
10
-24.199999999999989
20
-23.925000000000001
10
-24.199999999999989
20
-28.725000000000005
10
-39.199999999999989
20
-28.725000000000005
10
-39.199999999999989
20
-23.925000000000001
0
LINE
5
127
100
AcDbEntity
8
0
100
AcDbLine
10
-95.199999999999989
20
-32.499999999999993
30
0
11
-100
21
-32.499999999999993
31
0
0
LWPOLYLINE
5
128
100
AcDbEntity
8
0
100
AcDbPolyline
90
4
70
1
43
0.0
10
-95.199999999999989
20
-85.399999999999991
10
-90.399999999999991
20
-85.399999999999991
10
-90.399999999999991
20
-90.199999999999989
10
-95.199999999999989
20
-90.199999999999989
0
LINE
5
129
100
AcDbEntity
8
0
100
AcDbLine
10
-17.000000000000014
20
-3.5804692544161298e-14
30
0
11
0
21
0
31
0
0
LINE
5
130
100
AcDbEntity
8
0
100
AcDbLine
10
-95.199999999999989
20
-47.5
30
0
11
-95.199999999999989
21
-62.500000000000007
31
0
0
LINE
5
131
100
AcDbEntity
8
0
100
AcDbLine
10
-100
20
-90.199999999999989
30
0
11
-100
21
-62.500000000000007
31
0
0
LINE
5
132
100
AcDbEntity
8
0
100
AcDbLine
10
-100
20
-4.8000000000000007
30
0
11
-100
21
-32.499999999999993
31
0
0
LINE
5
133
100
AcDbEntity
8
0
100
AcDbLine
10
-95.199999999999989
20
-47.5
30
0
11
-95.199999999999989
21
-32.499999999999993
31
0
0
LINE
5
134
100
AcDbEntity
8
0
100
AcDbLine
10
100
20
-90.199999999999989
30
0
11
100
21
-95
31
0
0
LINE
5
135
100
AcDbEntity
8
0
100
AcDbLine
10
-100
20
-95
30
0
11
-100
21
-90.199999999999989
31
0
0
LINE
5
136
100
AcDbEntity
8
0
100
AcDbLine
10
100
20
-4.7999999999999998
30
0
11
100
21
0
31
0
0
LINE
5
137
100
AcDbEntity
8
0
100
AcDbLine
10
100
20
0
30
0
11
75
21
0
31
0
0
LINE
5
138
100
AcDbEntity
8
0
100
AcDbLine
10
-100
20
-4.8000000000000007
30
0
11
-100
21
0
31
0
0
LINE
5
139
100
AcDbEntity
8
0
100
AcDbLine
10
-100
20
0
30
0
11
-75
21
0
31
0
0
LINE
5
140
100
AcDbEntity
8
0
100
AcDbLine
10
100
20
-95
30
0
11
-100
21
-95
31
0
0
CIRCLE
5
141
100
AcDbEntity
8
0
100
AcDbCircle
10
-80.058983999999981
20
-44.729613512804825
30
0
40
1.3499999999999979
210
0
220
0
230
1
0
CIRCLE
5
142
100
AcDbEntity
8
0
100
AcDbCircle
10
-80.058983999999981
20
-80.289511912804841
30
0
40
1.3500000000000012
210
0
220
0
230
1
0
CIRCLE
5
143
100
AcDbEntity
8
0
100
AcDbCircle
10
22.811016000000031
20
-44.729613512804825
30
0
40
1.3499999999999979
210
0
220
0
230
1
0
CIRCLE
5
144
100
AcDbEntity
8
0
100
AcDbCircle
10
22.811016000000031
20
-80.289511912804841
30
0
40
1.3499999999999979
210
0
220
0
230
1
0
ENDSEC
0
SECTION
2
OBJECTS
0
DICTIONARY
5
C
100
AcDbDictionary
3
ACAD_GROUP
350
D
3
ACAD_MLINESTYLE
350
17
0
DICTIONARY
5
D
100
AcDbDictionary
0
DICTIONARY
5
1A
330
C
100
AcDbDictionary
0
DICTIONARY
5
17
100
AcDbDictionary
0
ENDSEC
0
EOF
