0
SECTION
2
HEADER
9
$INSUNITS
70
4
9
$ACADVER
1
AC1014
9
$HANDSEED
5
FFFF
0
ENDSEC
0
SECTION
2
TABLES
0
TABLE
2
VPORT
5
8
100
AcDbSymbolTable
0
ENDTAB
0
TABLE
2
LTYPE
5
5
100
AcDbSymbolTable
0
LTYPE
5
14
100
AcDbSymbolTableRecord
100
AcDbLinetypeTableRecord
2
BYBLOCK
70
0
0
LTYPE
5
15
100
AcDbSymbolTableRecord
100
AcDbLinetypeTableRecord
2
BYLAYER
70
0
0
ENDTAB
0
TABLE
2
LAYER
5
2
100
AcDbSymbolTable
70
2
0
LAYER
5
50
100
AcDbSymbolTableRecord
100
AcDbLayerTableRecord
2
0
70
0
6
CONTINUOUS
0
ENDTAB
0
TABLE
2
STYLE
5
3
100
AcDbSymbolTable
70
1
0
STYLE
5
11
100
AcDbSymbolTableRecord
100
AcDbTextStyleTableRecord
2
STANDARD
70
0
0
ENDTAB
0
TABLE
2
VIEW
5
6
100
AcDbSymbolTable
70
0
0
ENDTAB
0
TABLE
2
UCS
5
7
100
AcDbSymbolTable
70
0
0
ENDTAB
0
TABLE
2
APPID
5
9
100
AcDbSymbolTable
70
2
0
APPID
5
12
100
AcDbSymbolTableRecord
100
AcDbRegAppTableRecord
2
ACAD
70
0
0
ENDTAB
0
TABLE
2
DIMSTYLE
5
A
100
AcDbSymbolTable
70
1
0
ENDTAB
0
TABLE
2
BLOCK_RECORD
5
1
100
AcDbSymbolTable
70
1
0
BLOCK_RECORD
5
1F
100
AcDbSymbolTableRecord
100
AcDbBlockTableRecord
2
*MODEL_SPACE
0
BLOCK_RECORD
5
1B
100
AcDbSymbolTableRecord
100
AcDbBlockTableRecord
2
*PAPER_SPACE
0
ENDTAB
0
ENDSEC
0
SECTION
2
BLOCKS
0
BLOCK
5
20
100
AcDbEntity
100
AcDbBlockBegin
2
*MODEL_SPACE
0
ENDBLK
5
21
100
AcDbEntity
100
AcDbBlockEnd
0
BLOCK
5
1C
100
AcDbEntity
100
AcDbBlockBegin
2
*PAPER_SPACE
0
ENDBLK
5
1D
100
AcDbEntity
100
AcDbBlockEnd
0
ENDSEC
0
SECTION
2
ENTITIES
0
SPLINE
5
100
100
AcDbEntity
8
0
100
AcDbSpline
70
0
71
3
72
8
73
4
74
0
42
0.000000001
43
0.0000000001
44
0.0000000001
40
0
40
0
40
0
40
0
40
1
40
1
40
1
40
1
10
6.6804436694669054
20
-16.235081381536126
30
0
10
7.1874547866191749
20
-16.779795778372858
30
0
10
8.0263933948184789
20
-17.48842468750777
30
0
10
9.3550069954916033
20
-18.152044505124671
30
0
0
ARC
5
101
100
AcDbEntity
8
0
100
AcDbCircle
10
2.7888128569130974e-14
20
-3.2097543284675557e-14
30
0
40
13.854324999999999
210
-0
220
0
230
1
100
AcDbArc
50
309.75278441566496
51
319.847215584335
0
LINE
5
102
100
AcDbEntity
8
0
100
AcDbLine
10
10.185871126283374
20
-12.969644446501254
30
0
11
8.8007228291600743
21
-11.205938554620253
31
0
0
ARC
5
103
100
AcDbEntity
8
0
100
AcDbCircle
10
10.958878382470825
20
9.1153039337061834
30
0
40
0.39999999999999891
210
0
220
0
230
1
100
AcDbArc
50
219.752784415664
51
308.14475872980051
0
ARC
5
104
100
AcDbEntity
8
0
100
AcDbCircle
10
-9.19158858274095
20
-10.894975012878742
30
0
40
0.39999999999994568
210
-0
220
0
230
1
100
AcDbArc
50
-38.544758729800641
51
49.847215584335096
0
SPLINE
5
105
100
AcDbEntity
8
0
100
AcDbSpline
70
0
71
3
72
8
73
4
74
0
42
0.000000001
43
0.0000000001
44
0.0000000001
40
0
40
0
40
0
40
0
40
1
40
1
40
1
40
1
10
-6.6804436694668947
20
16.235081381536126
30
0
10
-7.1874547866191651
20
16.779795778372858
30
0
10
-8.0263933948184683
20
17.48842468750777
30
0
10
-9.3550069954916033
20
18.152044505124671
30
0
0
SPLINE
5
106
100
AcDbEntity
8
0
100
AcDbSpline
70
0
71
3
72
8
73
4
74
0
42
0.000000001
43
0.0000000001
44
0.0000000001
40
0
40
0
40
0
40
0
40
1
40
1
40
1
40
1
10
-16.189083559363645
20
6.7960085741871437
30
0
10
-15.731619972780592
20
6.3675854101200668
30
0
10
-15.414610311883601
20
6.1923574557964542
30
0
10
-15.306045378286434
20
6.1391060055801416
30
0
0
LINE
5
107
100
AcDbEntity
8
0
100
AcDbLine
10
-13.261327006359886
20
-5.2118122794296982
30
0
11
-15.348531077779102
21
-6.0321009129790495
31
0
0
ARC
5
108
100
AcDbEntity
8
0
100
AcDbCircle
10
-6.9813028304474587e-18
20
-1.9999878153155806e-15
30
0
40
20.420893114693193
210
-0
220
0
230
1
100
AcDbArc
50
327.26518999235162
51
332.3348100076484
0
ARC
5
109
100
AcDbEntity
8
0
100
AcDbCircle
10
1.0139565133186856e-15
20
3.9964849792159374e-15
30
0
40
20.42089311469315
210
0
220
-0
230
1
100
AcDbArc
50
87.26518999235158
51
92.334810007648414
0
ARC
5
110
100
AcDbEntity
8
0
100
AcDbCircle
10
13.373523961041144
20
-4.9330151093507268
30
0
40
0.39999999999999841
210
0
220
0
230
1
100
AcDbArc
50
159.75278441566513
51
248.14475872981018
0
ARC
5
111
100
AcDbEntity
8
0
100
AcDbCircle
10
-5.0139321439498481e-15
20
-3.9825223735550429e-15
30
0
40
20.420893114693193
210
-0
220
0
230
1
100
AcDbArc
50
297.26518999235196
51
302.3348100076484
0
ARC
5
112
100
AcDbEntity
8
0
100
AcDbCircle
10
-9.1153039337061834
20
10.958878382470825
30
0
40
0.39999999999999891
210
-0
220
0
230
1
100
AcDbArc
50
-50.247215584336018
51
38.144758729809062
0
ARC
5
113
100
AcDbEntity
8
0
100
AcDbCircle
10
-4.9330151093507268
20
-13.373523961041144
30
0
40
0.40000000000001501
210
0
220
-0
230
1
100
AcDbArc
50
69.752784415662447
51
158.14475872981888
0
SPLINE
5
114
100
AcDbEntity
8
0
100
AcDbSpline
70
0
71
3
72
8
73
4
74
0
42
0.000000001
43
0.0000000001
44
0.0000000001
40
0
40
0
40
0
40
0
40
1
40
1
40
1
40
1
10
-6.7960085741871525
20
-16.189083559363645
30
0
10
-6.3675854101200766
20
-15.731619972780591
30
0
10
-6.1923574557964658
20
-15.414610311883601
30
0
10
-6.1391060055801514
20
-15.306045378286433
30
0
0
SPLINE
5
115
100
AcDbEntity
8
0
100
AcDbSpline
70
0
71
3
72
8
73
4
74
0
42
0.000000001
43
0.0000000001
44
0.0000000001
40
0
40
0
40
0
40
0
40
1
40
1
40
1
40
1
10
-12.898218167720737
20
10.276167367642127
30
0
10
-12.998144799619208
20
10.34426090620882
30
0
10
-13.307088961039838
20
10.533346776126535
30
0
10
-13.902974617077321
20
10.719771074184612
30
0
0
SPLINE
5
116
100
AcDbEntity
8
0
100
AcDbSpline
70
0
71
3
72
8
73
4
74
0
42
0.000000001
43
0.0000000001
44
0.0000000001
40
0
40
0
40
0
40
0
40
1
40
1
40
1
40
1
10
6.7960085741871525
20
16.189083559363645
30
0
10
6.3675854101200766
20
15.731619972780591
30
0
10
6.1923574557964542
20
15.414610311883601
30
0
10
6.1391060055801416
20
15.306045378286434
30
0
0
ARC
5
117
100
AcDbEntity
8
0
100
AcDbCircle
10
-4.9999695382889528e-15
20
1.7453257076118631e-17
30
0
40
13.854325000000001
210
0
220
0
230
1
100
AcDbArc
50
159.75278441566499
51
169.84721558433506
0
LINE
5
118
100
AcDbEntity
8
0
100
AcDbLine
10
-8.8787399356854877
20
-11.144225336921709
30
0
11
-10.276167367642127
21
-12.898218167720737
31
0
0
SPLINE
5
119
100
AcDbEntity
8
0
100
AcDbSpline
70
0
71
3
72
8
73
4
74
0
42
0.000000001
43
0.0000000001
44
0.0000000001
40
0
40
0
40
0
40
0
40
1
40
1
40
1
40
1
10
-18.086292413679658
20
9.4815031682005557
30
0
10
-17.43196416539131
20
8.1482890422180017
30
0
10
-16.729209373840902
20
7.3044237554914648
30
0
10
-16.189083559363645
20
6.7960085741871437
30
0
0
ARC
5
120
100
AcDbEntity
8
0
100
AcDbCircle
10
2.512661707349308
20
14.031119426120091
30
0
40
0.4000000000000114
210
0
220
0
230
1
100
AcDbArc
50
171.45524127017904
51
259.84721558433483
0
ARC
5
121
100
AcDbEntity
8
0
100
AcDbCircle
10
-2.512661707349308
20
-14.031119426120091
30
0
40
0.39999999999999897
210
-0
220
0
230
1
100
AcDbArc
50
-8.5447587298099368
51
79.847215584335373
0
ARC
5
122
100
AcDbEntity
8
0
100
AcDbCircle
10
2.4146455785703886
20
-14.048319043056882
30
0
40
0.40000000000000924
210
0
220
0
230
1
100
AcDbArc
50
99.752784415663371
51
188.14475872980992
0
SPLINE
5
123
100
AcDbEntity
8
0
100
AcDbSpline
70
0
71
3
72
8
73
4
74
0
42
0.000000001
43
0.0000000001
44
0.0000000001
40
0
40
0
40
0
40
0
40
1
40
1
40
1
40
1
10
-0.83192359711551533
20
20.403940274620609
30
0
10
-1.6593567747565023
20
19.170668326197895
30
0
10
-2.0387881546583224
20
18.140132180720773
30
0
10
-2.209025710098901
20
17.41816191349146
30
0
0
SPLINE
5
124
100
AcDbEntity
8
0
100
AcDbSpline
70
0
71
3
72
8
73
4
74
0
42
0.000000001
43
0.0000000001
44
0.0000000001
40
0
40
0
40
0
40
0
40
1
40
1
40
1
40
1
10
17.25436881656416
20
10.922437106420087
30
0
10
15.772607390634821
20
11.022379283979875
30
0
10
14.690421219182653
20
10.835708425229338
30
0
10
13.980057849264792
20
10.622153339304399
30
0
0
SPLINE
5
125
100
AcDbEntity
8
0
100
AcDbSpline
70
0
71
3
72
8
73
4
74
0
42
0.000000001
43
0.0000000001
44
0.0000000001
40
0
40
0
40
0
40
0
40
1
40
1
40
1
40
1
10
10.922437106420087
20
-17.25436881656416
30
0
10
11.022379283979875
20
-15.772607390634821
30
0
10
10.835708425229338
20
-14.690421219182653
30
0
10
10.622153339304399
20
-13.980057849264792
30
0
0
ARC
5
126
100
AcDbEntity
8
0
100
AcDbCircle
10
-3.2097543284675557e-14
20
-2.7888128569130974e-14
30
0
40
13.854324999999989
210
0
220
0
230
1
100
AcDbArc
50
219.75278441566491
51
229.84721558433515
0
ARC
5
127
100
AcDbEntity
8
0
100
AcDbCircle
10
-13.373523961041144
20
4.9330151093507268
30
0
40
0.39999999999996827
210
-0
220
0
230
1
100
AcDbArc
50
-20.247215584337937
51
68.144758729818349
0
LINE
5
128
100
AcDbEntity
8
0
100
AcDbLine
10
-11.144225336921707
20
8.878739935685477
30
0
11
-12.898218167720737
21
10.276167367642127
31
0
0
SPLINE
5
129
100
AcDbEntity
8
0
100
AcDbSpline
70
0
71
3
72
8
73
4
74
0
42
0.000000001
43
0.0000000001
44
0.0000000001
40
0
40
0
40
0
40
0
40
1
40
1
40
1
40
1
10
-2.3321067644587923
20
-17.400214743651532
30
0
10
-2.1653794554221957
20
-18.125456807695414
30
0
10
-1.7931517630734775
20
-19.158616748961911
30
0
10
-0.97434854188548026
20
-20.397635169809472
30
0
0
SPLINE
5
130
100
AcDbEntity
8
0
100
AcDbSpline
70
0
71
3
72
8
73
4
74
0
42
0.000000001
43
0.0000000001
44
0.0000000001
40
0
40
0
40
0
40
0
40
1
40
1
40
1
40
1
10
2.209025710098901
20
-17.41816191349146
30
0
10
2.351319260459142
20
-16.807775244170635
30
0
10
2.344566289908105
20
-16.445622847426993
30
0
10
2.3364009317851906
20
-16.32497713186352
30
0
0
ARC
5
131
100
AcDbEntity
8
0
100
AcDbCircle
10
-3.9895036763854906e-15
20
3.0139443286342659e-15
30
0
40
20.420893114693158
210
0
220
0
230
1
100
AcDbArc
50
177.26518999235162
51
182.334810007649
0
ARC
5
132
100
AcDbEntity
8
0
100
AcDbCircle
10
-3.9825223735550429e-15
20
5.0139321439498481e-15
30
0
40
20.4208931146932
210
0
220
0
230
1
100
AcDbArc
50
207.26518999235191
51
212.33481000764795
0
SPLINE
5
133
100
AcDbEntity
8
0
100
AcDbSpline
70
0
71
3
72
8
73
4
74
0
42
0.000000001
43
0.0000000001
44
0.0000000001
40
0
40
0
40
0
40
0
40
1
40
1
40
1
40
1
10
2.4503129100583871
20
16.308268280621174
30
0
10
2.4593203283414558
20
16.428854051643185
30
0
10
2.4686014144765625
20
16.790950478743177
30
0
10
2.3321067644587923
20
17.400214743651532
30
0
0
ARC
5
134
100
AcDbEntity
8
0
100
AcDbCircle
10
14.031119426120091
20
-2.512661707349308
30
0
40
0.39999999999999897
210
0
220
-0
230
1
100
AcDbArc
50
81.455241270190299
51
169.84721558433591
0
ARC
5
135
100
AcDbEntity
8
0
100
AcDbCircle
10
4.8395308433791833
20
-13.407636720227984
30
0
40
0.39999999999997171
210
0
220
-0
230
1
100
AcDbArc
50
21.455241270181844
51
109.84721558433679
0
ARC
5
136
100
AcDbEntity
8
0
100
AcDbCircle
10
-7.031373216341547e-15
20
-8.9755106090135473e-15
30
0
40
20.420893114693193
210
0
220
0
230
1
100
AcDbArc
50
147.26518999235157
51
152.33481000764837
0
SPLINE
5
137
100
AcDbEntity
8
0
100
AcDbSpline
70
0
71
3
72
8
73
4
74
0
42
0.000000001
43
0.0000000001
44
0.0000000001
40
0
40
0
40
0
40
0
40
1
40
1
40
1
40
1
10
17.400214743651532
20
-2.3321067644587923
30
0
10
18.125456807695414
20
-2.1653794554221957
30
0
10
19.158616748961911
20
-1.7931517630734775
30
0
10
20.397635169809472
20
-0.97434854188547637
30
0
0
LINE
5
138
100
AcDbEntity
8
0
100
AcDbLine
10
-10.185871126283374
20
12.969644446501254
30
0
11
-8.800722829160069
21
11.205938554620333
31
0
0
SPLINE
5
139
100
AcDbEntity
8
0
100
AcDbSpline
70
0
71
3
72
8
73
4
74
0
42
0.000000001
43
0.0000000001
44
0.0000000001
40
0
40
0
40
0
40
0
40
1
40
1
40
1
40
1
10
0.83192359711551234
20
-20.403940274620609
30
0
10
1.6593567747564921
20
-19.170668326197891
30
0
10
2.0387881546583224
20
-18.140132180720773
30
0
10
2.209025710098901
20
-17.41816191349146
30
0
0
SPLINE
5
140
100
AcDbEntity
8
0
100
AcDbSpline
70
0
71
3
72
8
73
4
74
0
42
0.000000001
43
0.0000000001
44
0.0000000001
40
0
40
0
40
0
40
0
40
1
40
1
40
1
40
1
10
-16.235081381536126
20
-6.6804436694669054
30
0
10
-16.779795778372858
20
-7.1874547866191749
30
0
10
-17.48842468750777
20
-8.0263933948184789
30
0
10
-18.152044505124671
20
-9.3550069954916033
30
0
0
SPLINE
5
141
100
AcDbEntity
8
0
100
AcDbSpline
70
0
71
3
72
8
73
4
74
0
42
0.000000001
43
0.0000000001
44
0.0000000001
40
0
40
0
40
0
40
0
40
1
40
1
40
1
40
1
10
20.403940274620606
20
0.83192359711551633
30
0
10
19.170668326197895
20
1.6593567747565023
30
0
10
18.140132180720773
20
2.0387881546583326
30
0
10
17.41816191349146
20
2.209025710098901
30
0
0
SPLINE
5
142
100
AcDbEntity
8
0
100
AcDbSpline
70
0
71
3
72
8
73
4
74
0
42
0.000000001
43
0.0000000001
44
0.0000000001
40
0
40
0
40
0
40
0
40
1
40
1
40
1
40
1
10
2.3321067644587923
20
17.400214743651532
30
0
10
2.1653794554221957
20
18.125456807695414
30
0
10
1.7931517630734775
20
19.158616748961911
30
0
10
0.97434854188547748
20
20.397635169809472
30
0
0
LINE
5
143
100
AcDbEntity
8
0
100
AcDbLine
10
-16.32497713186352
20
-2.3364009317851906
30
0
11
-14.10498887612874
21
-2.018680264408129
31
0
0
ARC
5
144
100
AcDbEntity
8
0
100
AcDbCircle
10
-9.0104171231657855e-15
20
-2.9685658602363577e-15
30
0
40
13.854324999999982
210
0
220
-0
230
1
100
AcDbArc
50
9.7527844156649977
51
19.847215584335046
0
ARC
5
145
100
AcDbEntity
8
0
100
AcDbCircle
10
9.1153039337061941
20
-10.958878382470822
30
0
40
0.39999999999999158
210
0
220
0
230
1
100
AcDbArc
50
129.75278441566226
51
218.14475872979997
0
ARC
5
146
100
AcDbEntity
8
0
100
AcDbCircle
10
3.9929943278007144e-15
20
-2.0139504209764755e-15
30
0
40
13.854324999999974
210
0
220
0
230
1
100
AcDbArc
50
99.752784415665033
51
109.84721558433507
0
ARC
5
147
100
AcDbEntity
8
0
100
AcDbCircle
10
-5.6943802313850487e-14
20
1.61988696531924e-14
30
0
40
13.854325000000035
210
-0
220
0
230
1
100
AcDbArc
50
339.75278441566491
51
349.847215584335
0
CIRCLE
5
148
100
AcDbEntity
8
0
100
AcDbCircle
10
0
20
0
30
0
40
3.3500000000000001
210
-0
220
0
230
1
0
ARC
5
149
100
AcDbEntity
8
0
100
AcDbCircle
10
-14.031119426120091
20
2.512661707349308
30
0
40
0.39999999999999897
210
0
220
0
230
1
100
AcDbArc
50
261.45524127019007
51
349.8472155843354
0
SPLINE
5
150
100
AcDbEntity
8
0
100
AcDbSpline
70
0
71
3
72
8
73
4
74
0
42
0.000000001
43
0.0000000001
44
0.0000000001
40
0
40
0
40
0
40
0
40
1
40
1
40
1
40
1
10
-17.400214743651532
20
2.3321067644587923
30
0
10
-18.125456807695414
20
2.1653794554221957
30
0
10
-19.158616748961911
20
1.7931517630734775
30
0
10
-20.397635169809472
20
0.97434854188547859
30
0
0
LINE
5
151
100
AcDbEntity
8
0
100
AcDbLine
10
8.878739935685477
20
11.144225336921707
30
0
11
10.276167367642127
21
12.898218167720737
31
0
0
LINE
5
152
100
AcDbEntity
8
0
100
AcDbLine
10
11.144225336921709
20
-8.8787399356854877
30
0
11
12.898218167720737
21
-10.276167367642127
31
0
0
SPLINE
5
153
100
AcDbEntity
8
0
100
AcDbSpline
70
0
71
3
72
8
73
4
74
0
42
0.000000001
43
0.0000000001
44
0.0000000001
40
0
40
0
40
0
40
0
40
1
40
1
40
1
40
1
10
-20.403940274620609
20
-0.83192359711551345
30
0
10
-19.170668326197891
20
-1.6593567747564921
30
0
10
-18.140132180720773
20
-2.0387881546583224
30
0
10
-17.41816191349146
20
-2.209025710098901
30
0
0
SPLINE
5
154
100
AcDbEntity
8
0
100
AcDbSpline
70
0
71
3
72
8
73
4
74
0
42
0.000000001
43
0.0000000001
44
0.0000000001
40
0
40
0
40
0
40
0
40
1
40
1
40
1
40
1
10
10.719771074184612
20
13.902974617077321
30
0
10
10.938002021076279
20
14.614416322950746
30
0
10
11.132223354143427
20
15.695272924434303
30
0
10
11.042628174317899
20
17.177695963239209
30
0
0
ARC
5
155
100
AcDbEntity
8
0
100
AcDbCircle
10
3.9999756306311613e-15
20
-1.3962605660894917e-17
30
0
40
20.42089311469315
210
-0
220
0
230
1
100
AcDbArc
50
-2.7348100076483637
51
2.3348100076483718
0
SPLINE
5
156
100
AcDbEntity
8
0
100
AcDbSpline
70
0
71
3
72
8
73
4
74
0
42
0.000000001
43
0.0000000001
44
0.0000000001
40
0
40
0
40
0
40
0
40
1
40
1
40
1
40
1
10
15.348531077779102
20
6.0321009129790495
30
0
10
15.457465127960626
20
6.0845931454344111
30
0
10
15.775690375516406
20
6.2576037026166915
30
0
10
16.235081381536126
20
6.6804436694669054
30
0
0
SPLINE
5
157
100
AcDbEntity
8
0
100
AcDbSpline
70
0
71
3
72
8
73
4
74
0
42
0.000000001
43
0.0000000001
44
0.0000000001
40
0
40
0
40
0
40
0
40
1
40
1
40
1
40
1
10
16.308268280621174
20
-2.4503129100583871
30
0
10
16.428854051643185
20
-2.4593203283414558
30
0
10
16.790950478743177
20
-2.4686014144765625
30
0
10
17.400214743651532
20
-2.3321067644587923
30
0
0
ARC
5
158
100
AcDbEntity
8
0
100
AcDbCircle
10
-7.3303679719698301e-17
20
-2.0999872060813599e-14
30
0
40
13.854324999999989
210
0
220
-0
230
1
100
AcDbArc
50
69.752784415664976
51
79.847215584335032
0
SPLINE
5
159
100
AcDbEntity
8
0
100
AcDbSpline
70
0
71
3
72
8
73
4
74
0
42
0.000000001
43
0.0000000001
44
0.0000000001
40
0
40
0
40
0
40
0
40
1
40
1
40
1
40
1
10
-10.922437106420087
20
17.25436881656416
30
0
10
-11.022379283979875
20
15.772607390634821
30
0
10
-10.835708425229241
20
14.690421219182653
30
0
10
-10.622153339304399
20
13.980057849264792
30
0
0
ARC
5
160
100
AcDbEntity
8
0
100
AcDbCircle
10
-4.0139382362920566e-15
20
-3.9860130249702668e-15
30
0
40
20.420893114693158
210
0
220
0
230
1
100
AcDbArc
50
267.26518999235162
51
272.3348100076484
0
SPLINE
5
161
100
AcDbEntity
8
0
100
AcDbSpline
70
0
71
3
72
8
73
4
74
0
42
0.000000001
43
0.0000000001
44
0.0000000001
40
0
40
0
40
0
40
0
40
1
40
1
40
1
40
1
10
-2.4503129100583871
20
-16.308268280621174
30
0
10
-2.4593203283414558
20
-16.428854051643185
30
0
10
-2.4686014144765625
20
-16.790950478743177
30
0
10
-2.3321067644587923
20
-17.400214743651532
30
0
0
SPLINE
5
162
100
AcDbEntity
8
0
100
AcDbSpline
70
0
71
3
72
8
73
4
74
0
42
0.000000001
43
0.0000000001
44
0.0000000001
40
0
40
0
40
0
40
0
40
1
40
1
40
1
40
1
10
18.086292413679661
20
-9.4815031682005664
30
0
10
17.43196416539131
20
-8.1482890422180123
30
0
10
16.729209373840902
20
-7.3044237554914844
30
0
10
16.189083559363645
20
-6.7960085741871525
30
0
0
SPLINE
5
163
100
AcDbEntity
8
0
100
AcDbSpline
70
0
71
3
72
8
73
4
74
0
42
0.000000001
43
0.0000000001
44
0.0000000001
40
0
40
0
40
0
40
0
40
1
40
1
40
1
40
1
10
-2.209025710098901
20
17.41816191349146
30
0
10
-2.351319260459142
20
16.807775244170635
30
0
10
-2.344566289908105
20
16.445622847426993
30
0
10
-2.3364009317852004
20
16.32497713186352
30
0
0
LINE
5
164
100
AcDbEntity
8
0
100
AcDbLine
10
5.2118122794296937
20
-13.26132700635995
30
0
11
6.0321009129790495
21
-15.348531077779102
31
0
0
SPLINE
5
165
100
AcDbEntity
8
0
100
AcDbSpline
70
0
71
3
72
8
73
4
74
0
42
0.000000001
43
0.0000000001
44
0.0000000001
40
0
40
0
40
0
40
0
40
1
40
1
40
1
40
1
10
16.189083559363645
20
-6.7960085741871525
30
0
10
15.731619972780591
20
-6.3675854101200766
30
0
10
15.414610311883601
20
-6.1923574557964658
30
0
10
15.306045378286433
20
-6.1391060055801514
30
0
0
ARC
5
166
100
AcDbEntity
8
0
100
AcDbCircle
10
-4.8395308433791744
20
13.407636720227984
30
0
40
0.39999999999999875
210
0
220
0
230
1
100
AcDbArc
50
201.45524127019016
51
289.84721558433489
0
SPLINE
5
167
100
AcDbEntity
8
0
100
AcDbSpline
70
0
71
3
72
8
73
4
74
0
42
0.000000001
43
0.0000000001
44
0.0000000001
40
0
40
0
40
0
40
0
40
1
40
1
40
1
40
1
10
-13.902974617077321
20
10.719771074184612
30
0
10
-14.614416322950746
20
10.938002021076279
30
0
10
-15.695272924434303
20
11.132223354143427
30
0
10
-17.177695963239209
20
11.042628174317899
30
0
0
LINE
5
168
100
AcDbEntity
8
0
100
AcDbLine
10
14.090552215115142
20
-2.1171016694381599
30
0
11
16.308268280621174
21
-2.4503129100583871
31
0
0
LINE
5
169
100
AcDbEntity
8
0
100
AcDbLine
10
-14.090552215115144
20
2.1171016694381599
30
0
11
-16.308268280621174
21
2.4503129100583871
31
0
0
SPLINE
5
170
100
AcDbEntity
8
0
100
AcDbSpline
70
0
71
3
72
8
73
4
74
0
42
0.000000001
43
0.0000000001
44
0.0000000001
40
0
40
0
40
0
40
0
40
1
40
1
40
1
40
1
10
17.41816191349146
20
2.209025710098901
30
0
10
16.807775244170635
20
2.351319260459142
30
0
10
16.445622847426993
20
2.344566289908105
30
0
10
16.32497713186352
20
2.3364009317852004
30
0
0
ARC
5
171
100
AcDbEntity
8
0
100
AcDbCircle
10
10.894975012878742
20
-9.19158858274095
30
0
40
0.39999999999994568
210
0
220
-0
230
1
100
AcDbArc
50
51.455241270199387
51
139.84721558433955
0
ARC
5
172
100
AcDbEntity
8
0
100
AcDbCircle
10
-13.407636720227984
20
-4.8395308433791833
30
0
40
0.39999999999999875
210
-0
220
0
230
1
100
AcDbArc
50
-68.544758729809871
51
19.847215584337711
0
LINE
5
173
100
AcDbEntity
8
0
100
AcDbLine
10
15.306045378286433
20
-6.1391060055801514
30
0
11
13.224618819028402
21
-5.3042660469686185
31
0
0
LINE
5
174
100
AcDbEntity
8
0
100
AcDbLine
10
-15.306045378286434
20
6.1391060055801416
30
0
11
-13.224618819028464
21
5.3042660469686158
31
0
0
ARC
5
175
100
AcDbEntity
8
0
100
AcDbCircle
10
6.9685414908675182e-15
20
-9.0243797288266824e-15
30
0
40
20.420893114693182
210
0
220
-0
230
1
100
AcDbArc
50
27.26518999235163
51
32.334810007648429
0
LINE
5
176
100
AcDbEntity
8
0
100
AcDbLine
10
-5.2118122794296893
20
13.261327006359886
30
0
11
-6.0321009129790495
21
15.348531077779102
31
0
0
SPLINE
5
177
100
AcDbEntity
8
0
100
AcDbSpline
70
0
71
3
72
8
73
4
74
0
42
0.000000001
43
0.0000000001
44
0.0000000001
40
0
40
0
40
0
40
0
40
1
40
1
40
1
40
1
10
-17.25436881656416
20
-10.922437106420087
30
0
10
-15.772607390634821
20
-11.022379283979875
30
0
10
-14.690421219182653
20
-10.835708425229338
30
0
10
-13.980057849264792
20
-10.622153339304399
30
0
0
ARC
5
178
100
AcDbEntity
8
0
100
AcDbCircle
10
-4.0628073561051885e-15
20
-1.7985927732179339e-14
30
0
40
13.85432500000004
210
0
220
-0
230
1
100
AcDbArc
50
39.752784415664934
51
49.847215584335004
0
ARC
5
179
100
AcDbEntity
8
0
100
AcDbCircle
10
9.19158858274095
20
10.894975012878742
30
0
40
0.3999999999999535
210
0
220
0
230
1
100
AcDbArc
50
141.45524127020053
51
229.84721558433992
0
LINE
5
180
100
AcDbEntity
8
0
100
AcDbLine
10
6.1391060055801416
20
15.306045378286434
30
0
11
5.3042660469686158
21
13.224618819028464
31
0
0
ARC
5
181
100
AcDbEntity
8
0
100
AcDbCircle
10
-4.9860069326280567e-15
20
4.0174288877072804e-15
30
0
40
20.420893114693193
210
0
220
-0
230
1
100
AcDbArc
50
57.265189992351594
51
62.334810007648372
0
ARC
5
182
100
AcDbEntity
8
0
100
AcDbCircle
10
3.3999792860364879e-14
20
-1.1868214811760689e-16
30
0
40
13.854325000000001
210
0
220
0
230
1
100
AcDbArc
50
189.75278441566496
51
199.84721558433495
0
ARC
5
183
100
AcDbEntity
8
0
100
AcDbCircle
10
1.5143025322891027e-14
20
4.0947390442741053e-14
30
0
40
13.854325000000001
210
0
220
0
230
1
100
AcDbArc
50
249.75278441566502
51
259.84721558433495
0
ARC
5
184
100
AcDbEntity
8
0
100
AcDbCircle
10
14.048319043056882
20
2.4146455785703886
30
0
40
0.39999999999999858
210
0
220
0
230
1
100
AcDbArc
50
189.75278441566391
51
278.14475872980989
0
SPLINE
5
185
100
AcDbEntity
8
0
100
AcDbSpline
70
0
71
3
72
8
73
4
74
0
42
0.000000001
43
0.0000000001
44
0.0000000001
40
0
40
0
40
0
40
0
40
1
40
1
40
1
40
1
10
-16.308268280621174
20
2.4503129100583871
30
0
10
-16.428854051643185
20
2.4593203283414558
30
0
10
-16.790950478743177
20
2.4686014144765625
30
0
10
-17.400214743651532
20
2.3321067644587923
30
0
0
ARC
5
186
100
AcDbEntity
8
0
100
AcDbCircle
10
2.4881165543327155e-14
20
-3.4087059145745469e-14
30
0
40
13.85432500000007
210
0
220
0
230
1
100
AcDbArc
50
129.75278441566491
51
139.84721558433498
0
LINE
5
187
100
AcDbEntity
8
0
100
AcDbLine
10
2.3364009317851906
20
-16.32497713186352
30
0
11
2.0186802644081308
21
-14.104988876128662
31
0
0
SPLINE
5
188
100
AcDbEntity
8
0
100
AcDbSpline
70
0
71
3
72
8
73
4
74
0
42
0.000000001
43
0.0000000001
44
0.0000000001
40
0
40
0
40
0
40
0
40
1
40
1
40
1
40
1
10
-6.0321009129790495
20
15.348531077779102
30
0
10
-6.0845931454344111
20
15.457465127960626
30
0
10
-6.2576037026166915
20
15.775690375516406
30
0
10
-6.6804436694668947
20
16.235081381536126
30
0
0
SPLINE
5
189
100
AcDbEntity
8
0
100
AcDbSpline
70
0
71
3
72
8
73
4
74
0
42
0.000000001
43
0.0000000001
44
0.0000000001
40
0
40
0
40
0
40
0
40
1
40
1
40
1
40
1
10
13.902974617077321
20
-10.719771074184612
30
0
10
14.614416322950746
20
-10.938002021076279
30
0
10
15.695272924434303
20
-11.132223354143427
30
0
10
17.177695963239209
20
-11.042628174317899
30
0
0
ARC
5
190
100
AcDbEntity
8
0
100
AcDbCircle
10
-14.048319043056882
20
-2.4146455785703886
30
0
40
0.40000000000000119
210
0
220
-0
230
1
100
AcDbArc
50
9.7527844156641699
51
98.144758729820992
0
SPLINE
5
191
100
AcDbEntity
8
0
100
AcDbSpline
70
0
71
3
72
8
73
4
74
0
42
0.000000001
43
0.0000000001
44
0.0000000001
40
0
40
0
40
0
40
0
40
1
40
1
40
1
40
1
10
16.235081381536126
20
6.6804436694669054
30
0
10
16.779795778372858
20
7.1874547866191651
30
0
10
17.48842468750777
20
8.0263933948184683
30
0
10
18.152044505124671
20
9.3550069954916033
30
0
0
LINE
5
192
100
AcDbEntity
8
0
100
AcDbLine
10
-6.1391060055801514
20
-15.306045378286433
30
0
11
-5.3042660469686256
21
-13.224618819028464
31
0
0
ARC
5
193
100
AcDbEntity
8
0
100
AcDbCircle
10
1.2024361451800051e-14
20
6.9580695366218483e-15
30
0
40
20.420893114693182
210
0
220
0
230
1
100
AcDbArc
50
117.26518999235167
51
122.33481000764847
0
SPLINE
5
194
100
AcDbEntity
8
0
100
AcDbSpline
70
0
71
3
72
8
73
4
74
0
42
0.000000001
43
0.0000000001
44
0.0000000001
40
0
40
0
40
0
40
0
40
1
40
1
40
1
40
1
10
-10.622153339304399
20
13.980057849264792
30
0
10
-10.440189834050619
20
13.380300712321443
30
0
10
-10.253265391630588
20
13.070044021975537
30
0
10
-10.185871126283374
20
12.969644446501254
30
0
0
SPLINE
5
195
100
AcDbEntity
8
0
100
AcDbSpline
70
0
71
3
72
8
73
4
74
0
42
0.000000001
43
0.0000000001
44
0.0000000001
40
0
40
0
40
0
40
0
40
1
40
1
40
1
40
1
10
9.4815031682005557
20
18.086292413679658
30
0
10
8.1482890422180123
20
17.43196416539131
30
0
10
7.3044237554914746
20
16.729209373840902
30
0
10
6.7960085741871525
20
16.189083559363645
30
0
0
SPLINE
5
196
100
AcDbEntity
8
0
100
AcDbSpline
70
0
71
3
72
8
73
4
74
0
42
0.000000001
43
0.0000000001
44
0.0000000001
40
0
40
0
40
0
40
0
40
1
40
1
40
1
40
1
10
-13.980057849264792
20
-10.622153339304399
30
0
10
-13.380300712321443
20
-10.440189834050619
30
0
10
-13.070044021975537
20
-10.253265391630588
30
0
10
-12.969644446501254
20
-10.185871126283374
30
0
0
SPLINE
5
197
100
AcDbEntity
8
0
100
AcDbSpline
70
0
71
3
72
8
73
4
74
0
42
0.000000001
43
0.0000000001
44
0.0000000001
40
0
40
0
40
0
40
0
40
1
40
1
40
1
40
1
10
12.898218167720737
20
-10.276167367642127
30
0
10
12.998144799619208
20
-10.34426090620882
30
0
10
13.307088961039838
20
-10.533346776126535
30
0
10
13.902974617077321
20
-10.719771074184612
30
0
0
ARC
5
198
100
AcDbEntity
8
0
100
AcDbCircle
10
-10.894975012878742
20
9.1915885827409376
30
0
40
0.39999999999994479
210
0
220
0
230
1
100
AcDbArc
50
231.45524127019942
51
319.84721558433938
0
ARC
5
199
100
AcDbEntity
8
0
100
AcDbCircle
10
-2.4146455785703886
20
14.048319043056882
30
0
40
0.39999999999999858
210
-0
220
0
230
1
100
AcDbArc
50
-80.247215584336033
51
8.1447587298094266
0
LINE
5
200
100
AcDbEntity
8
0
100
AcDbLine
10
13.26132700635995
20
5.2118122794296937
30
0
11
15.348531077779102
21
6.0321009129790495
31
0
0
SPLINE
5
201
100
AcDbEntity
8
0
100
AcDbSpline
70
0
71
3
72
8
73
4
74
0
42
0.000000001
43
0.0000000001
44
0.0000000001
40
0
40
0
40
0
40
0
40
1
40
1
40
1
40
1
10
13.980057849264792
20
10.622153339304399
30
0
10
13.380300712321443
20
10.440189834050619
30
0
10
13.070044021975537
20
10.253265391630588
30
0
10
12.969644446501254
20
10.185871126283374
30
0
0
SPLINE
5
202
100
AcDbEntity
8
0
100
AcDbSpline
70
0
71
3
72
8
73
4
74
0
42
0.000000001
43
0.0000000001
44
0.0000000001
40
0
40
0
40
0
40
0
40
1
40
1
40
1
40
1
10
-9.4815031682005664
20
-18.086292413679661
30
0
10
-8.1482890422180123
20
-17.43196416539131
30
0
10
-7.3044237554914844
20
-16.729209373840902
30
0
10
-6.7960085741871525
20
-16.189083559363645
30
0
0
SPLINE
5
203
100
AcDbEntity
8
0
100
AcDbSpline
70
0
71
3
72
8
73
4
74
0
42
0.000000001
43
0.0000000001
44
0.0000000001
40
0
40
0
40
0
40
0
40
1
40
1
40
1
40
1
10
-17.41816191349146
20
-2.209025710098901
30
0
10
-16.807775244170635
20
-2.351319260459142
30
0
10
-16.445622847426993
20
-2.344566289908105
30
0
10
-16.32497713186352
20
-2.3364009317851906
30
0
0
ARC
5
204
100
AcDbEntity
8
0
100
AcDbCircle
10
-8.6385850246406489e-16
20
3.9003253050069039e-14
30
0
40
13.854325000000001
210
-0
220
0
230
1
100
AcDbArc
50
279.75278441566496
51
289.847215584335
0
ARC
5
205
100
AcDbEntity
8
0
100
AcDbCircle
10
-10.958878382470822
20
-9.1153039337061941
30
0
40
0.3999999999999993
210
0
220
-0
230
1
100
AcDbArc
50
39.752784415664678
51
128.14475872980998
0
LINE
5
206
100
AcDbEntity
8
0
100
AcDbLine
10
-2.3364009317852004
20
16.32497713186352
30
0
11
-2.0186802644081308
21
14.104988876128658
31
0
0
SPLINE
5
207
100
AcDbEntity
8
0
100
AcDbSpline
70
0
71
3
72
8
73
4
74
0
42
0.000000001
43
0.0000000001
44
0.0000000001
40
0
40
0
40
0
40
0
40
1
40
1
40
1
40
1
10
6.0321009129790495
20
-15.348531077779102
30
0
10
6.0845931454344111
20
-15.457465127960626
30
0
10
6.2576037026167022
20
-15.775690375516408
30
0
10
6.6804436694669054
20
-16.235081381536126
30
0
0
LINE
5
208
100
AcDbEntity
8
0
100
AcDbLine
10
16.32497713186352
20
2.3364009317852004
30
0
11
14.104988876128662
21
2.0186802644081308
31
0
0
ARC
5
209
100
AcDbEntity
8
0
100
AcDbCircle
10
4.9330151093507268
20
13.373523961041144
30
0
40
0.39999999999999869
210
0
220
0
230
1
100
AcDbArc
50
249.75278441566405
51
338.14475872981831
0
SPLINE
5
210
100
AcDbEntity
8
0
100
AcDbSpline
70
0
71
3
72
8
73
4
74
0
42
0.000000001
43
0.0000000001
44
0.0000000001
40
0
40
0
40
0
40
0
40
1
40
1
40
1
40
1
10
10.276167367642127
20
12.898218167720737
30
0
10
10.34426090620882
20
12.998144799619208
30
0
10
10.533346776126535
20
13.307088961039838
30
0
10
10.719771074184612
20
13.902974617077321
30
0
0
LINE
5
211
100
AcDbEntity
8
0
100
AcDbLine
10
-2.1171016694381599
20
-14.090552215115144
30
0
11
-2.4503129100583871
21
-16.308268280621174
31
0
0
LINE
5
212
100
AcDbEntity
8
0
100
AcDbLine
10
-12.969644446501254
20
-10.185871126283374
30
0
11
-11.205938554620335
21
-8.8007228291600832
31
0
0
LINE
5
213
100
AcDbEntity
8
0
100
AcDbLine
10
2.117101669438159
20
14.090552215115222
30
0
11
2.4503129100583871
21
16.308268280621174
31
0
0
SPLINE
5
214
100
AcDbEntity
8
0
100
AcDbSpline
70
0
71
3
72
8
73
4
74
0
42
0.000000001
43
0.0000000001
44
0.0000000001
40
0
40
0
40
0
40
0
40
1
40
1
40
1
40
1
10
-10.719771074184612
20
-13.902974617077321
30
0
10
-10.938002021076279
20
-14.614416322950746
30
0
10
-11.132223354143427
20
-15.695272924434303
30
0
10
-11.042628174317899
20
-17.177695963239209
30
0
0
SPLINE
5
215
100
AcDbEntity
8
0
100
AcDbSpline
70
0
71
3
72
8
73
4
74
0
42
0.000000001
43
0.0000000001
44
0.0000000001
40
0
40
0
40
0
40
0
40
1
40
1
40
1
40
1
10
10.622153339304399
20
-13.980057849264792
30
0
10
10.440189834050619
20
-13.380300712321443
30
0
10
10.253265391630588
20
-13.070044021975537
30
0
10
10.185871126283374
20
-12.969644446501254
30
0
0
SPLINE
5
216
100
AcDbEntity
8
0
100
AcDbSpline
70
0
71
3
72
8
73
4
74
0
42
0.000000001
43
0.0000000001
44
0.0000000001
40
0
40
0
40
0
40
0
40
1
40
1
40
1
40
1
10
-15.348531077779102
20
-6.0321009129790495
30
0
10
-15.457465127960626
20
-6.0845931454344111
30
0
10
-15.775690375516408
20
-6.2576037026167022
30
0
10
-16.235081381536126
20
-6.6804436694669054
30
0
0
LINE
5
217
100
AcDbEntity
8
0
100
AcDbLine
10
12.969644446501254
20
10.185871126283374
30
0
11
11.205938554620253
21
8.8007228291600743
31
0
0
SPLINE
5
218
100
AcDbEntity
8
0
100
AcDbSpline
70
0
71
3
72
8
73
4
74
0
42
0.000000001
43
0.0000000001
44
0.0000000001
40
0
40
0
40
0
40
0
40
1
40
1
40
1
40
1
10
-10.276167367642127
20
-12.898218167720737
30
0
10
-10.34426090620882
20
-12.998144799619208
30
0
10
-10.533346776126535
20
-13.307088961039838
30
0
10
-10.719771074184612
20
-13.902974617077321
30
0
0
ARC
5
219
100
AcDbEntity
8
0
100
AcDbCircle
10
-1.9999878153155806e-15
20
6.9813028304474587e-18
30
0
40
20.4208931146932
210
0
220
0
230
1
100
AcDbArc
50
237.26518999235194
51
242.33481000764795
0
ARC
5
220
100
AcDbEntity
8
0
100
AcDbCircle
10
13.407636720227984
20
4.8395308433791833
30
0
40
0.39999999999997171
210
0
220
0
230
1
100
AcDbArc
50
111.45524127018186
51
199.84721558433611
0
ENDSEC
0
SECTION
2
OBJECTS
0
DICTIONARY
5
C
100
AcDbDictionary
3
ACAD_GROUP
350
D
3
ACAD_MLINESTYLE
350
17
0
DICTIONARY
5
D
100
AcDbDictionary
0
DICTIONARY
5
1A
330
C
100
AcDbDictionary
0
DICTIONARY
5
17
100
AcDbDictionary
0
ENDSEC
0
EOF
