0
SECTION
2
HEADER
9
$INSUNITS
70
4
9
$ACADVER
1
AC1014
9
$HANDSEED
5
FFFF
0
ENDSEC
0
SECTION
2
TABLES
0
TABLE
2
VPORT
5
8
100
AcDbSymbolTable
0
ENDTAB
0
TABLE
2
LTYPE
5
5
100
AcDbSymbolTable
0
LTYPE
5
14
100
AcDbSymbolTableRecord
100
AcDbLinetypeTableRecord
2
BYBLOCK
70
0
0
LTYPE
5
15
100
AcDbSymbolTableRecord
100
AcDbLinetypeTableRecord
2
BYLAYER
70
0
0
ENDTAB
0
TABLE
2
LAYER
5
2
100
AcDbSymbolTable
70
2
0
LAYER
5
50
100
AcDbSymbolTableRecord
100
AcDbLayerTableRecord
2
0
70
0
6
CONTINUOUS
0
ENDTAB
0
TABLE
2
STYLE
5
3
100
AcDbSymbolTable
70
1
0
STYLE
5
11
100
AcDbSymbolTableRecord
100
AcDbTextStyleTableRecord
2
STANDARD
70
0
0
ENDTAB
0
TABLE
2
VIEW
5
6
100
AcDbSymbolTable
70
0
0
ENDTAB
0
TABLE
2
UCS
5
7
100
AcDbSymbolTable
70
0
0
ENDTAB
0
TABLE
2
APPID
5
9
100
AcDbSymbolTable
70
2
0
APPID
5
12
100
AcDbSymbolTableRecord
100
AcDbRegAppTableRecord
2
ACAD
70
0
0
ENDTAB
0
TABLE
2
DIMSTYLE
5
A
100
AcDbSymbolTable
70
1
0
ENDTAB
0
TABLE
2
BLOCK_RECORD
5
1
100
AcDbSymbolTable
70
1
0
BLOCK_RECORD
5
1F
100
AcDbSymbolTableRecord
100
AcDbBlockTableRecord
2
*MODEL_SPACE
0
BLOCK_RECORD
5
1B
100
AcDbSymbolTableRecord
100
AcDbBlockTableRecord
2
*PAPER_SPACE
0
ENDTAB
0
ENDSEC
0
SECTION
2
BLOCKS
0
BLOCK
5
20
100
AcDbEntity
100
AcDbBlockBegin
2
*MODEL_SPACE
0
ENDBLK
5
21
100
AcDbEntity
100
AcDbBlockEnd
0
BLOCK
5
1C
100
AcDbEntity
100
AcDbBlockBegin
2
*PAPER_SPACE
0
ENDBLK
5
1D
100
AcDbEntity
100
AcDbBlockEnd
0
ENDSEC
0
SECTION
2
ENTITIES
0
SPLINE
5
100
100
AcDbEntity
8
0
100
AcDbSpline
70
0
71
3
72
8
73
4
74
0
42
0.000000001
43
0.0000000001
44
0.0000000001
40
0
40
0
40
0
40
0
40
1
40
1
40
1
40
1
10
-44.53909263452708
20
59.43580518015915
30
0
10
-44.806087599359579
20
59.665350003214684
30
0
10
-45.120386996937292
20
59.920269345001188
30
0
10
-45.486855156140237
20
60.195418522194814
30
0
0
ARC
5
101
100
AcDbEntity
8
0
100
AcDbCircle
10
-2.6698450853599382e-14
20
-2.419342735579602e-13
30
0
40
79.748391366097209
210
0
220
0
230
1
100
AcDbArc
50
170.27419698475401
51
171.72580301524604
0
SPLINE
5
102
100
AcDbEntity
8
0
100
AcDbSpline
70
0
71
3
72
8
73
4
74
0
42
0.000000001
43
0.0000000001
44
0.0000000001
40
0
40
0
40
0
40
0
40
1
40
1
40
1
40
1
10
-21.962613934025018
20
72.181618104908495
30
0
10
-21.95541815310132
20
71.723410507681166
30
0
10
-21.933924624101785
20
71.319299124092737
30
0
10
-21.905154664043934
20
70.968372598398574
30
0
0
ARC
5
103
100
AcDbEntity
8
0
100
AcDbCircle
10
-74.022755063927647
20
7.0680717502229653
30
0
40
0.40000000000000674
210
-0
220
0
230
1
100
AcDbArc
50
277.30694495404339
51
354.5455935992141
0
ARC
5
104
100
AcDbEntity
8
0
100
AcDbCircle
10
3.7665870749833706e-13
20
1.3647423956806724e-13
30
0
40
79.748391366097195
210
0
220
0
230
1
100
AcDbArc
50
110.27419698475403
51
111.725803015246
0
ARC
5
105
100
AcDbEntity
8
0
100
AcDbCircle
10
-72.878435988242472
20
14.766836947300991
30
0
40
0.4000000000000058
210
-0
220
0
230
1
100
AcDbArc
50
271.30694495404271
51
348.5455935991211
0
SPLINE
5
106
100
AcDbEntity
8
0
100
AcDbSpline
70
0
71
3
72
8
73
4
74
0
42
0.000000001
43
0.0000000001
44
0.0000000001
40
0
40
0
40
0
40
0
40
1
40
1
40
1
40
1
10
-77.286308796091561
20
19.662970227190705
30
0
10
-75.814590830844878
20
18.477646757564891
30
0
10
-74.525643980882336
20
17.645489921472063
30
0
10
-73.492421932130014
20
17.070627452078512
30
0
0
SPLINE
5
107
100
AcDbEntity
8
0
100
AcDbSpline
70
0
71
3
72
8
73
4
74
0
42
0.000000001
43
0.0000000001
44
0.0000000001
40
0
40
0
40
0
40
0
40
1
40
1
40
1
40
1
10
-75.1705607642008
20
6.4752758592561008
30
0
10
-76.330855598917495
20
6.2478323337932125
30
0
10
-77.813867504070501
20
5.8547106337320285
30
0
10
-79.579839561012847
20
5.1821868862149696
30
0
0
ARC
5
108
100
AcDbEntity
8
0
100
AcDbCircle
10
-49.227673924026554
20
55.731158480245561
30
0
40
0.39999999999999974
210
-0
220
0
230
1
100
AcDbArc
50
-48.545593599091504
51
28.693055045955951
0
ARC
5
109
100
AcDbEntity
8
0
100
AcDbCircle
10
-22.303813588625058
20
70.935645517076964
30
0
40
0.40000000000008201
210
-0
220
0
230
1
100
AcDbArc
50
-72.545593599077293
51
4.6930550459539324
0
ARC
5
110
100
AcDbEntity
8
0
100
AcDbCircle
10
-44.278290032998044
20
59.739090529353106
30
0
40
0.40000000000000863
210
0
220
0
230
1
100
AcDbArc
50
229.30694495404444
51
306.54559359906295
0
SPLINE
5
111
100
AcDbEntity
8
0
100
AcDbSpline
70
0
71
3
72
8
73
4
74
0
42
0.000000001
43
0.0000000001
44
0.0000000001
40
0
40
0
40
0
40
0
40
1
40
1
40
1
40
1
10
-24.659162695150314
20
71.305456300566405
30
0
10
-25.338877120758035
20
72.272928760311885
30
0
10
-26.301206948093
20
73.46783054929125
30
0
10
-27.633873509000448
20
74.807586248780751
30
0
0
SPLINE
5
112
100
AcDbEntity
8
0
100
AcDbSpline
70
0
71
3
72
8
73
4
74
0
42
0.000000001
43
0.0000000001
44
0.0000000001
40
0
40
0
40
0
40
0
40
1
40
1
40
1
40
1
10
-74.081917932306808
20
14.297266820229471
30
0
10
-75.259630872712066
20
14.192353090207206
30
0
10
-76.775611090663205
20
13.956401907405272
30
0
10
-78.602206841739786
20
13.472156660630223
30
0
0
SPLINE
5
113
100
AcDbEntity
8
0
100
AcDbSpline
70
0
71
3
72
8
73
4
74
0
42
0.000000001
43
0.0000000001
44
0.0000000001
40
0
40
0
40
0
40
0
40
1
40
1
40
1
40
1
10
-73.492421932130014
20
17.070627452078512
30
0
10
-73.092004622262237
20
16.847755382544783
30
0
10
-72.731287133616462
20
16.664313632881179
30
0
10
-72.412990867474591
20
16.513765886310033
30
0
0
SPLINE
5
114
100
AcDbEntity
8
0
100
AcDbSpline
70
0
71
3
72
8
73
4
74
0
42
0.000000001
43
0.0000000001
44
0.0000000001
40
0
40
0
40
0
40
0
40
1
40
1
40
1
40
1
10
6.4752758592560902
20
-75.170560764200843
30
0
10
6.5635040396952338
20
-74.720870015356326
30
0
10
6.6264996769136673
20
-74.321120679114173
30
0
10
6.6713201368196788
20
-73.971881128932267
30
0
0
SPLINE
5
115
100
AcDbEntity
8
0
100
AcDbSpline
70
0
71
3
72
8
73
4
74
0
42
0.000000001
43
0.0000000001
44
0.0000000001
40
0
40
0
40
0
40
0
40
1
40
1
40
1
40
1
10
-29.387334053586933
20
-69.490481364578102
30
0
10
-29.529573229019206
20
-70.664271242587574
30
0
10
-29.613968156031632
20
-72.196180664903039
30
0
10
-29.520075440778744
20
-74.08354116435676
30
0
0
SPLINE
5
116
100
AcDbEntity
8
0
100
AcDbSpline
70
0
71
3
72
8
73
4
74
0
42
0.000000001
43
0.0000000001
44
0.0000000001
40
0
40
0
40
0
40
0
40
1
40
1
40
1
40
1
10
42.58337881478959
20
67.427455640831738
30
0
10
41.001283342896251
20
66.394053775781202
30
0
10
39.811548679866092
20
65.425343079304071
30
0
10
38.945538810348452
20
64.620332789529357
30
0
0
ARC
5
117
100
AcDbEntity
8
0
100
AcDbCircle
10
0.70813272003954375
20
-74.356065344875176
30
0
40
0.40000000000000807
210
0
220
-0
230
1
100
AcDbArc
50
13.30694495404668
51
90.545593599143572
0
ARC
5
118
100
AcDbEntity
8
0
100
AcDbCircle
10
29.596424980899162
20
-68.215669269388101
30
0
40
0.40000000000003022
210
0
220
0
230
1
100
AcDbArc
50
113.4544064008906
51
190.69305504595556
0
ARC
5
119
100
AcDbEntity
8
0
100
AcDbCircle
10
5.4303396610897825e-12
20
-1.4732210170898704e-12
30
0
40
73.959437232403261
210
-0
220
0
230
1
100
AcDbArc
50
341.45435777303294
51
342.54564222696604
0
SPLINE
5
120
100
AcDbEntity
8
0
100
AcDbSpline
70
0
71
3
72
8
73
4
74
0
42
0.000000001
43
0.0000000001
44
0.0000000001
40
0
40
0
40
0
40
0
40
1
40
1
40
1
40
1
10
74.874189209727106
20
-9.2950628423832331
30
0
10
74.452668952845599
20
-9.1152666954321404
30
0
10
74.074752628153604
20
-8.9705351036289045
30
0
10
73.742463497664104
20
-8.854083092929276
30
0
0
ARC
5
121
100
AcDbEntity
8
0
100
AcDbCircle
10
6.663709243479618e-13
20
4.5753952606505633e-12
30
0
40
73.959437232404284
210
0
220
-0
230
1
100
AcDbArc
50
71.454357773032584
51
72.545642226965796
0
SPLINE
5
122
100
AcDbEntity
8
0
100
AcDbSpline
70
0
71
3
72
8
73
4
74
0
42
0.000000001
43
0.0000000001
44
0.0000000001
40
0
40
0
40
0
40
0
40
1
40
1
40
1
40
1
10
-42.58337881478959
20
-67.427455640831738
30
0
10
-41.00128334289635
20
-66.394053775781089
30
0
10
-39.811548679866092
20
-65.425343079304071
30
0
10
-38.945538810348445
20
-64.620332789529243
30
0
0
SPLINE
5
123
100
AcDbEntity
8
0
100
AcDbSpline
70
0
71
3
72
8
73
4
74
0
42
0.000000001
43
0.0000000001
44
0.0000000001
40
0
40
0
40
0
40
0
40
1
40
1
40
1
40
1
10
-5.1821868862149483
20
79.579839561012875
30
0
10
-5.8547106337320098
20
77.8138675040706
30
0
10
-6.2478323337932009
20
76.330855598917509
30
0
10
-6.4752758592560902
20
75.170560764200843
30
0
0
ARC
5
124
100
AcDbEntity
8
0
100
AcDbCircle
10
-1.586490791131001e-14
20
-3.5217959863763452e-14
30
0
40
79.748391366097252
210
0
220
0
230
1
100
AcDbArc
50
134.27419698475413
51
135.72580301524582
0
ARC
5
125
100
AcDbEntity
8
0
100
AcDbCircle
10
3.1686970595980109e-13
20
-2.0186032162103881e-13
30
0
40
79.748391366097195
210
0
220
-0
230
1
100
AcDbArc
50
56.274196984754404
51
57.725803015245802
0
SPLINE
5
126
100
AcDbEntity
8
0
100
AcDbSpline
70
0
71
3
72
8
73
4
74
0
42
0.000000001
43
0.0000000001
44
0.0000000001
40
0
40
0
40
0
40
0
40
1
40
1
40
1
40
1
10
23.992520404912771
20
-70.29014635594848
30
0
10
24.175514454739666
20
-70.590962437243135
30
0
10
24.395656536066728
20
-70.93052899355213
30
0
10
24.659162695150314
20
-71.305456300566405
30
0
0
ARC
5
127
100
AcDbEntity
8
0
100
AcDbCircle
10
-3.3935866892069245e-13
20
1.7399912019425797e-13
30
0
40
79.748391366097195
210
0
220
-0
230
1
100
AcDbArc
50
62.2741969847539
51
63.725803015245525
0
ARC
5
128
100
AcDbEntity
8
0
100
AcDbCircle
10
14.766836947300991
20
72.878435988242472
30
0
40
0.40000000000006025
210
0
220
0
230
1
100
AcDbArc
50
181.30694495403233
51
258.5455935991933
0
SPLINE
5
129
100
AcDbEntity
8
0
100
AcDbSpline
70
0
71
3
72
8
73
4
74
0
42
0.000000001
43
0.0000000001
44
0.0000000001
40
0
40
0
40
0
40
0
40
1
40
1
40
1
40
1
10
-38.945538810348445
20
-64.620332789529243
30
0
10
-38.609839122727195
20
-64.308384554799702
30
0
10
-38.323907817189252
20
-64.022008454805373
30
0
10
-38.082369446315305
20
-63.765812528934084
30
0
0
SPLINE
5
130
100
AcDbEntity
8
0
100
AcDbSpline
70
0
71
3
72
8
73
4
74
0
42
0.000000001
43
0.0000000001
44
0.0000000001
40
0
40
0
40
0
40
0
40
1
40
1
40
1
40
1
10
55.110990652829983
20
-51.529807998104971
30
0
10
54.875655125136348
20
-51.136586469160932
30
0
10
54.654985491211562
20
-50.797362509514684
30
0
10
54.454606712088534
20
-50.507836203430656
30
0
0
SPLINE
5
131
100
AcDbEntity
8
0
100
AcDbSpline
70
0
71
3
72
8
73
4
74
0
42
0.000000001
43
0.0000000001
44
0.0000000001
40
0
40
0
40
0
40
0
40
1
40
1
40
1
40
1
10
3.1645600121679851
20
79.685578904903423
30
0
10
2.3111260748213347
20
77.999578901504691
30
0
10
1.7651409811128205
20
76.56578349792278
30
0
10
1.4176595790698931
20
75.435619201911109
30
0
0
SPLINE
5
132
100
AcDbEntity
8
0
100
AcDbSpline
70
0
71
3
72
8
73
4
74
0
42
0.000000001
43
0.0000000001
44
0.0000000001
40
0
40
0
40
0
40
0
40
1
40
1
40
1
40
1
10
70.968372598398531
20
-21.905154664043973
30
0
10
71.319299124092694
20
-21.93392462410187
30
0
10
71.723410507681052
20
-21.955418153101419
30
0
10
72.181618104908395
20
-21.962613934025057
30
0
0
ARC
5
133
100
AcDbEntity
8
0
100
AcDbCircle
10
2.7608852883231025e-13
20
1.3569239006318508e-14
30
0
40
79.748391366097195
210
0
220
0
230
1
100
AcDbArc
50
92.274196984754298
51
93.725803015245972
0
ARC
5
134
100
AcDbEntity
8
0
100
AcDbCircle
10
-54.783491927560277
20
50.280164257323833
30
0
40
0.40000000000000396
210
-0
220
0
230
1
100
AcDbArc
50
-42.545593599108571
51
34.693055045964627
0
ARC
5
135
100
AcDbEntity
8
0
100
AcDbCircle
10
-3.3398356365124366e-13
20
-1.2469153624370685e-13
30
0
40
79.748391366097209
210
-0
220
0
230
1
100
AcDbArc
50
290.27419698475398
51
291.72580301524613
0
ARC
5
136
100
AcDbEntity
8
0
100
AcDbCircle
10
-70.935645517076964
20
22.30381358862509
30
0
40
0.40000000000009672
210
0
220
0
230
1
100
AcDbArc
50
265.30694495405311
51
342.54559359911258
0
ARC
5
137
100
AcDbEntity
8
0
100
AcDbCircle
10
2.1249163390805442e-13
20
2.5222471234810715e-13
30
0
40
79.748391366097295
210
0
220
0
230
1
100
AcDbArc
50
140.27419698475441
51
141.72580301524607
0
ARC
5
138
100
AcDbEntity
8
0
100
AcDbCircle
10
-55.731158480245533
20
49.227673924026533
30
0
40
0.40000000000000252
210
0
220
0
230
1
100
AcDbArc
50
241.30694495404217
51
318.54559359908598
0
ARC
5
139
100
AcDbEntity
8
0
100
AcDbCircle
10
-2.5222471234810715e-13
20
2.1249163390805442e-13
30
0
40
79.748391366097295
210
0
220
0
230
1
100
AcDbArc
50
230.27419698475441
51
231.72580301524602
0
ARC
5
140
100
AcDbEntity
8
0
100
AcDbCircle
10
7.0680717502228863
20
-74.022755063927747
30
0
40
0.4000000000000109
210
0
220
0
230
1
100
AcDbArc
50
95.454406400856243
51
172.6930550459559
0
ARC
5
141
100
AcDbEntity
8
0
100
AcDbCircle
10
5.7258510611740825e-15
20
1.3719133705349312e-14
30
0
40
79.748391366097152
210
0
220
-0
230
1
100
AcDbArc
50
86.274196984754184
51
87.725803015245688
0
SPLINE
5
142
100
AcDbEntity
8
0
100
AcDbSpline
70
0
71
3
72
8
73
4
74
0
42
0.000000001
43
0.0000000001
44
0.0000000001
40
0
40
0
40
0
40
0
40
1
40
1
40
1
40
1
10
36.490080391562699
20
66.037992368599149
30
0
10
36.754234818056766
20
67.190484060416964
30
0
10
36.99829555860849
20
68.705179850602462
30
0
10
37.102200090113847
20
70.592015652999777
30
0
0
SPLINE
5
143
100
AcDbEntity
8
0
100
AcDbSpline
70
0
71
3
72
8
73
4
74
0
42
0.000000001
43
0.0000000001
44
0.0000000001
40
0
40
0
40
0
40
0
40
1
40
1
40
1
40
1
10
69.490481364578102
20
-29.387334053586933
30
0
10
70.664271242587574
20
-29.529573229019206
30
0
10
72.196180664903039
20
-29.613968156031632
30
0
10
74.08354116435676
20
-29.520075440778744
30
0
0
SPLINE
5
144
100
AcDbEntity
8
0
100
AcDbSpline
70
0
71
3
72
8
73
4
74
0
42
0.000000001
43
0.0000000001
44
0.0000000001
40
0
40
0
40
0
40
0
40
1
40
1
40
1
40
1
10
-51.529807998104992
20
55.11099065282994
30
0
10
-52.54426452465821
20
55.718355960102883
30
0
10
-53.909406909628849
20
56.41853825825207
30
0
10
-55.671786128650005
20
57.100421668548684
30
0
0
ARC
5
145
100
AcDbEntity
8
0
100
AcDbCircle
10
-60.571550468363078
20
43.132507223428107
30
0
40
0.40000000000000679
210
0
220
0
230
1
100
AcDbArc
50
247.30694495404398
51
324.54559359914339
0
SPLINE
5
146
100
AcDbEntity
8
0
100
AcDbSpline
70
0
71
3
72
8
73
4
74
0
42
0.000000001
43
0.0000000001
44
0.0000000001
40
0
40
0
40
0
40
0
40
1
40
1
40
1
40
1
10
-70.968372598398531
20
21.905154664043877
30
0
10
-71.319299124092694
20
21.93392462410187
30
0
10
-71.723410507681052
20
21.95541815310132
30
0
10
-72.181618104908509
20
21.962613934024965
30
0
0
SPLINE
5
147
100
AcDbEntity
8
0
100
AcDbSpline
70
0
71
3
72
8
73
4
74
0
42
0.000000001
43
0.0000000001
44
0.0000000001
40
0
40
0
40
0
40
0
40
1
40
1
40
1
40
1
10
29.520075440778839
20
-74.08354116435676
30
0
10
29.613968156031664
20
-72.196180664903068
30
0
10
29.529573229019256
20
-70.664271242587589
30
0
10
29.387334053586912
20
-69.490481364577974
30
0
0
SPLINE
5
148
100
AcDbEntity
8
0
100
AcDbSpline
70
0
71
3
72
8
73
4
74
0
42
0.000000001
43
0.0000000001
44
0.0000000001
40
0
40
0
40
0
40
0
40
1
40
1
40
1
40
1
10
-51.529807998104971
20
-55.110990652829983
30
0
10
-51.136586469160932
20
-54.875655125136348
30
0
10
-50.797362509514684
20
-54.654985491211562
30
0
10
-50.507836203430656
20
-54.454606712088534
30
0
0
ARC
5
149
100
AcDbEntity
8
0
100
AcDbCircle
10
-64.748307874137339
20
36.564771747632378
30
0
40
0.40000000000000596
210
0
220
0
230
1
100
AcDbArc
50
253.30694495404339
51
330.54559359914379
0
SPLINE
5
150
100
AcDbEntity
8
0
100
AcDbSpline
70
0
71
3
72
8
73
4
74
0
42
0.000000001
43
0.0000000001
44
0.0000000001
40
0
40
0
40
0
40
0
40
1
40
1
40
1
40
1
10
-29.203370863136996
20
-68.289888273088394
30
0
10
-29.268665028794171
20
-68.635885106843631
30
0
10
-29.332281955908304
20
-69.035536040433271
30
0
10
-29.387334053586933
20
-69.490481364578102
30
0
0
SPLINE
5
151
100
AcDbEntity
8
0
100
AcDbSpline
70
0
71
3
72
8
73
4
74
0
42
0.000000001
43
0.0000000001
44
0.0000000001
40
0
40
0
40
0
40
0
40
1
40
1
40
1
40
1
10
13.472156660630116
20
-78.602206841739815
30
0
10
13.956401907405178
20
-76.775611090663205
30
0
10
14.192353090207179
20
-75.259630872712137
30
0
10
14.297266820229437
20
-74.081917932306879
30
0
0
ARC
5
152
100
AcDbEntity
8
0
100
AcDbCircle
10
14.766836947300908
20
-72.878435988242515
30
0
40
0.4000000000000104
210
0
220
0
230
1
100
AcDbArc
50
101.45440640085621
51
178.69305504596542
0
SPLINE
5
153
100
AcDbEntity
8
0
100
AcDbSpline
70
0
71
3
72
8
73
4
74
0
42
0.000000001
43
0.0000000001
44
0.0000000001
40
0
40
0
40
0
40
0
40
1
40
1
40
1
40
1
10
-50.968333332739405
20
61.335429588150568
30
0
10
-50.474404142570165
20
59.511428641885971
30
0
10
-49.920753751954038
20
58.080575670104665
30
0
10
-49.422755237156466
20
57.008189480336917
30
0
0
SPLINE
5
154
100
AcDbEntity
8
0
100
AcDbSpline
70
0
71
3
72
8
73
4
74
0
42
0.000000001
43
0.0000000001
44
0.0000000001
40
0
40
0
40
0
40
0
40
1
40
1
40
1
40
1
10
43.19303377272827
20
61.861977308891653
30
0
10
43.576209319109466
20
62.980543874367683
30
0
10
43.977261892654084
20
64.461430708375559
30
0
10
44.277825271127142
20
66.327069245819544
30
0
0
SPLINE
5
155
100
AcDbEntity
8
0
100
AcDbSpline
70
0
71
3
72
8
73
4
74
0
42
0.000000001
43
0.0000000001
44
0.0000000001
40
0
40
0
40
0
40
0
40
1
40
1
40
1
40
1
10
21.962613934024965
20
72.181618104908509
30
0
10
21.981379456224062
20
73.363845881575017
30
0
10
21.905183921216114
20
74.896185015816968
30
0
10
21.614522667441566
20
76.763391895739389
30
0
0
SPLINE
5
156
100
AcDbEntity
8
0
100
AcDbSpline
70
0
71
3
72
8
73
4
74
0
42
0.000000001
43
0.0000000001
44
0.0000000001
40
0
40
0
40
0
40
0
40
1
40
1
40
1
40
1
10
-72.181618104908509
20
21.962613934024965
30
0
10
-73.363845881575017
20
21.981379456224062
30
0
10
-74.896185015816968
20
21.905183921216114
30
0
10
-76.763391895739389
20
21.614522667441566
30
0
0
ARC
5
157
100
AcDbEntity
8
0
100
AcDbCircle
10
2.7611570962692399e-13
20
-1.992180994512602e-12
30
0
40
73.959437232406842
210
-0
220
0
230
1
100
AcDbArc
50
281.45435777303334
51
282.54564222696689
0
ARC
5
158
100
AcDbEntity
8
0
100
AcDbCircle
10
-3.1438019145341217e-13
20
1.1561182993844485e-13
30
0
40
79.748391366097223
210
0
220
0
230
1
100
AcDbArc
50
248.27419698475441
51
249.72580301524607
0
SPLINE
5
159
100
AcDbEntity
8
0
100
AcDbSpline
70
0
71
3
72
8
73
4
74
0
42
0.000000001
43
0.0000000001
44
0.0000000001
40
0
40
0
40
0
40
0
40
1
40
1
40
1
40
1
10
-35.302014289885747
20
-71.50925613203448
30
0
10
-33.836605611416438
20
-70.316141342107571
30
0
10
-32.754646279808057
20
-69.228376208160824
30
0
10
-31.977526991472544
20
-68.337253168147768
30
0
0
ARC
5
160
100
AcDbEntity
8
0
100
AcDbCircle
10
-2.1285798560175501e-13
20
-2.592151190913891e-13
30
0
40
79.748391366097195
210
-0
220
0
230
1
100
AcDbArc
50
320.27419698475398
51
321.72580301524602
0
ARC
5
161
100
AcDbEntity
8
0
100
AcDbCircle
10
22.303813588625058
20
-70.935645517076964
30
0
40
0.39999999999999419
210
0
220
0
230
1
100
AcDbArc
50
107.45440640091412
51
184.69305504595602
0
SPLINE
5
162
100
AcDbEntity
8
0
100
AcDbSpline
70
0
71
3
72
8
73
4
74
0
42
0.000000001
43
0.0000000001
44
0.0000000001
40
0
40
0
40
0
40
0
40
1
40
1
40
1
40
1
10
-72.412990867474576
20
-16.513765886310047
30
0
10
-72.731287133616476
20
-16.664313632881111
30
0
10
-73.092004622262223
20
-16.847755382544754
30
0
10
-73.492421932129943
20
-17.070627452078469
30
0
0
ARC
5
163
100
AcDbEntity
8
0
100
AcDbCircle
10
-8.4765787400350696
20
73.874715013897131
30
0
40
0.40000000000000707
210
0
220
0
230
1
100
AcDbArc
50
199.3069449540406
51
276.54559359914424
0
ARC
5
164
100
AcDbEntity
8
0
100
AcDbCircle
10
1.2060171847556471e-12
20
3.5227096885883264e-12
30
0
40
73.959437232405222
210
0
220
-0
230
1
100
AcDbArc
50
77.454357773033593
51
78.545642226966805
0
ARC
5
165
100
AcDbEntity
8
0
100
AcDbCircle
10
-0.70813272003957373
20
74.356065344875176
30
0
40
0.40000000000000413
210
0
220
0
230
1
100
AcDbArc
50
193.30694495404265
51
270.54559359908779
0
ARC
5
166
100
AcDbEntity
8
0
100
AcDbCircle
10
3.894655185542838e-14
20
-2.0411022934748096e-15
30
0
40
79.748391366097223
210
0
220
0
230
1
100
AcDbArc
50
98.274196984754212
51
99.725803015245873
0
SPLINE
5
167
100
AcDbEntity
8
0
100
AcDbSpline
70
0
71
3
72
8
73
4
74
0
42
0.000000001
43
0.0000000001
44
0.0000000001
40
0
40
0
40
0
40
0
40
1
40
1
40
1
40
1
10
-49.422755237156466
20
57.008189480336917
30
0
10
-49.229811744251393
20
56.592522799009743
30
0
10
-49.04580952087575
20
56.232090885983993
30
0
10
-48.876792177521182
20
55.92320534944524
30
0
0
SPLINE
5
168
100
AcDbEntity
8
0
100
AcDbSpline
70
0
71
3
72
8
73
4
74
0
42
0.000000001
43
0.0000000001
44
0.0000000001
40
0
40
0
40
0
40
0
40
1
40
1
40
1
40
1
10
-74.083541164356745
20
-29.520075440778733
30
0
10
-72.196180664903153
20
-29.61396815603166
30
0
10
-70.664271242587589
20
-29.52957322901916
30
0
10
-69.490481364578073
20
-29.387334053586905
30
0
0
ARC
5
169
100
AcDbEntity
8
0
100
AcDbCircle
10
-6.4814007086664747e-14
20
4.5145791768984816e-12
30
0
40
73.959437232404397
210
0
220
-0
230
1
100
AcDbArc
50
83.454357773032797
51
84.545642226966351
0
SPLINE
5
170
100
AcDbEntity
8
0
100
AcDbSpline
70
0
71
3
72
8
73
4
74
0
42
0.000000001
43
0.0000000001
44
0.0000000001
40
0
40
0
40
0
40
0
40
1
40
1
40
1
40
1
10
-74.874189209727177
20
-9.2950628423832562
30
0
10
-75.961840650504598
20
-9.7587750420502779
30
0
10
-77.330710590032766
20
-10.451641602464722
30
0
10
-78.918266371032502
20
-11.47663532883085
30
0
0
SPLINE
5
171
100
AcDbEntity
8
0
100
AcDbSpline
70
0
71
3
72
8
73
4
74
0
42
0.000000001
43
0.0000000001
44
0.0000000001
40
0
40
0
40
0
40
0
40
1
40
1
40
1
40
1
10
-8.854083092929244
20
73.742463497664076
30
0
10
-8.9705351036288619
20
74.074752628153647
30
0
10
-9.1152666954321724
20
74.452668952845585
30
0
10
-9.2950628423832562
20
74.874189209727177
30
0
0
SPLINE
5
172
100
AcDbEntity
8
0
100
AcDbSpline
70
0
71
3
72
8
73
4
74
0
42
0.000000001
43
0.0000000001
44
0.0000000001
40
0
40
0
40
0
40
0
40
1
40
1
40
1
40
1
10
-1.0973931123463387
20
74.263998266170631
30
0
10
-1.1784735145761671
20
74.606639631758171
30
0
10
-1.2829092389121732
20
74.997614262158947
30
0
10
-1.4176595790698732
20
75.435619201911209
30
0
0
SPLINE
5
173
100
AcDbEntity
8
0
100
AcDbSpline
70
0
71
3
72
8
73
4
74
0
42
0.000000001
43
0.0000000001
44
0.0000000001
40
0
40
0
40
0
40
0
40
1
40
1
40
1
40
1
10
-75.170560764200843
20
-6.4752758592560902
30
0
10
-74.720870015356326
20
-6.5635040396952338
30
0
10
-74.321120679114173
20
-6.6264996769136673
30
0
10
-73.971881128932267
20
-6.6713201368196788
30
0
0
SPLINE
5
174
100
AcDbEntity
8
0
100
AcDbSpline
70
0
71
3
72
8
73
4
74
0
42
0.000000001
43
0.0000000001
44
0.0000000001
40
0
40
0
40
0
40
0
40
1
40
1
40
1
40
1
10
-66.037992368599191
20
-36.490080391562671
30
0
10
-65.591293793711884
20
-36.387775139431795
30
0
10
-65.200481969381613
20
-36.282731814568969
30
0
10
-64.863205641280388
20
-36.181628819855298
30
0
0
ARC
5
175
100
AcDbEntity
8
0
100
AcDbCircle
10
-1.356892002244231e-13
20
3.916381505196556e-13
30
0
40
79.748391366097181
210
0
220
0
230
1
100
AcDbArc
50
200.27419698475441
51
201.7258030152461
0
SPLINE
5
176
100
AcDbEntity
8
0
100
AcDbSpline
70
0
71
3
72
8
73
4
74
0
42
0.000000001
43
0.0000000001
44
0.0000000001
40
0
40
0
40
0
40
0
40
1
40
1
40
1
40
1
10
-45.486855156140237
20
60.195418522194814
30
0
10
-46.432267421485385
20
60.905496200537293
30
0
10
-47.716742434001134
20
61.744539062438335
30
0
10
-49.398190930253762
20
62.606905835525907
30
0
0
SPLINE
5
177
100
AcDbEntity
8
0
100
AcDbSpline
70
0
71
3
72
8
73
4
74
0
42
0.000000001
43
0.0000000001
44
0.0000000001
40
0
40
0
40
0
40
0
40
1
40
1
40
1
40
1
10
36.181628819855341
20
64.863205641280402
30
0
10
36.28273181456899
20
65.200481969381613
30
0
10
36.387775139431753
20
65.591293793711841
30
0
10
36.490080391562699
20
66.037992368599149
30
0
0
ARC
5
178
100
AcDbEntity
8
0
100
AcDbCircle
10
-73.874715013897131
20
-8.4765787400350696
30
0
40
0.40000000000000707
210
-0
220
0
230
1
100
AcDbArc
50
-70.693055045959397
51
6.5455935991437304
0
SPLINE
5
179
100
AcDbEntity
8
0
100
AcDbSpline
70
0
71
3
72
8
73
4
74
0
42
0.000000001
43
0.0000000001
44
0.0000000001
40
0
40
0
40
0
40
0
40
1
40
1
40
1
40
1
10
-67.427455640831738
20
42.58337881478959
30
0
10
-66.394053775781202
20
41.001283342896251
30
0
10
-65.425343079304071
20
39.811548679866092
30
0
10
-64.620332789529357
20
38.945538810348452
30
0
0
SPLINE
5
180
100
AcDbEntity
8
0
100
AcDbSpline
70
0
71
3
72
8
73
4
74
0
42
0.000000001
43
0.0000000001
44
0.0000000001
40
0
40
0
40
0
40
0
40
1
40
1
40
1
40
1
10
36.490080391562671
20
-66.037992368599191
30
0
10
36.387775139431795
20
-65.591293793711884
30
0
10
36.282731814568969
20
-65.200481969381613
30
0
10
36.181628819855298
20
-64.863205641280388
30
0
0
ARC
5
181
100
AcDbEntity
8
0
100
AcDbCircle
10
-67.639622218586098
20
-30.89024784049964
30
0
40
0.40000000000000546
210
-0
220
0
230
1
100
AcDbArc
50
-52.69305504595863
51
24.545593599144894
0
ARC
5
182
100
AcDbEntity
8
0
100
AcDbCircle
10
-14.766836947300908
20
72.878435988242515
30
0
40
0.40000000000001479
210
-0
220
0
230
1
100
AcDbArc
50
281.45440640086952
51
358.69305504594922
0
SPLINE
5
183
100
AcDbEntity
8
0
100
AcDbSpline
70
0
71
3
72
8
73
4
74
0
42
0.000000001
43
0.0000000001
44
0.0000000001
40
0
40
0
40
0
40
0
40
1
40
1
40
1
40
1
10
72.181618104908395
20
-21.962613934025057
30
0
10
73.363845881575003
20
-21.981379456224165
30
0
10
74.896185015816869
20
-21.905183921216107
30
0
10
76.763391895739389
20
-21.614522667441566
30
0
0
SPLINE
5
184
100
AcDbEntity
8
0
100
AcDbSpline
70
0
71
3
72
8
73
4
74
0
42
0.000000001
43
0.0000000001
44
0.0000000001
40
0
40
0
40
0
40
0
40
1
40
1
40
1
40
1
10
73.97188112893221
20
-6.6713201368197117
30
0
10
74.321120679114216
20
-6.6264996769136877
30
0
10
74.720870015356368
20
-6.5635040396953119
30
0
10
75.1705607642008
20
-6.4752758592560911
30
0
0
SPLINE
5
185
100
AcDbEntity
8
0
100
AcDbSpline
70
0
71
3
72
8
73
4
74
0
42
0.000000001
43
0.0000000001
44
0.0000000001
40
0
40
0
40
0
40
0
40
1
40
1
40
1
40
1
10
-17.070627452078469
20
73.492421932129943
30
0
10
-17.645489921472027
20
74.52564398088235
30
0
10
-18.477646757564912
20
75.814590830844949
30
0
10
-19.662970227190723
20
77.286308796091575
30
0
0
ARC
5
186
100
AcDbEntity
8
0
100
AcDbCircle
10
3.0738978471013017e-13
20
-1.1524547824474424e-13
30
0
40
79.748391366097195
210
0
220
-0
230
1
100
AcDbArc
50
68.274196984754397
51
69.725803015246285
0
ARC
5
187
100
AcDbEntity
8
0
100
AcDbCircle
10
6.8968178464179802e-13
20
-5.2022246237483144e-12
30
0
40
73.959437232403673
210
-0
220
0
230
1
100
AcDbArc
50
275.45435777303311
51
276.54564222696666
0
SPLINE
5
188
100
AcDbEntity
8
0
100
AcDbSpline
70
0
71
3
72
8
73
4
74
0
42
0.000000001
43
0.0000000001
44
0.0000000001
40
0
40
0
40
0
40
0
40
1
40
1
40
1
40
1
10
-75.435619201911209
20
-1.4176595790698532
30
0
10
-76.565783497922865
20
-1.7651409811127794
30
0
10
-77.999578901504762
20
-2.3111260748213036
30
0
10
-79.685578904903537
20
-3.164560012167942
30
0
0
ARC
5
189
100
AcDbEntity
8
0
100
AcDbCircle
10
-74.356065344875105
20
0.70813272003958927
30
0
40
0.39999999999997032
210
-0
220
0
230
1
100
AcDbArc
50
-0.54559359911672978
51
76.693055045963519
0
SPLINE
5
190
100
AcDbEntity
8
0
100
AcDbSpline
70
0
71
3
72
8
73
4
74
0
42
0.000000001
43
0.0000000001
44
0.0000000001
40
0
40
0
40
0
40
0
40
1
40
1
40
1
40
1
10
-74.081917932306879
20
-14.297266820229437
30
0
10
-73.625468280318117
20
-14.338006194542348
30
0
10
-73.221323975615405
20
-14.358871551259016
30
0
10
-72.869312582433921
20
-14.366941006503243
30
0
0
SPLINE
5
191
100
AcDbEntity
8
0
100
AcDbSpline
70
0
71
3
72
8
73
4
74
0
42
0.000000001
43
0.0000000001
44
0.0000000001
40
0
40
0
40
0
40
0
40
1
40
1
40
1
40
1
10
-70.592015652999763
20
-37.102200090113833
30
0
10
-68.705179850602548
20
-36.998295558608454
30
0
10
-67.190484060416964
20
-36.754234818056673
30
0
10
-66.037992368599191
20
-36.490080391562671
30
0
0
ARC
5
192
100
AcDbEntity
8
0
100
AcDbCircle
10
-72.878435988242515
20
-14.766836947300908
30
0
40
0.39999999999997171
210
0
220
-0
230
1
100
AcDbArc
50
11.454406400813758
51
88.693055045957308
0
ARC
5
193
100
AcDbEntity
8
0
100
AcDbCircle
10
70.497995427546556
20
-23.650762064215982
30
0
40
0.40000000000001068
210
0
220
0
230
1
100
AcDbArc
50
161.45440640085673
51
238.69305504595744
0
ARC
5
194
100
AcDbEntity
8
0
100
AcDbCircle
10
16.152153589516605
20
72.583977845948894
30
0
40
0.39999999999997321
210
0
220
0
230
1
100
AcDbArc
50
257.45440640085678
51
334.69305504595741
0
ARC
5
195
100
AcDbEntity
8
0
100
AcDbCircle
10
-8.7800662282882617e-13
20
3.3475390020534059e-12
30
0
40
73.959437232405406
210
0
220
0
230
1
100
AcDbArc
50
101.45435777303301
51
102.54564222696665
0
ARC
5
196
100
AcDbEntity
8
0
100
AcDbCircle
10
70.935645517076964
20
-22.30381358862509
30
0
40
0.39999999999999913
210
0
220
-0
230
1
100
AcDbArc
50
85.306944954052
51
162.54559359923283
0
ARC
5
197
100
AcDbEntity
8
0
100
AcDbCircle
10
7.0680717502229653
20
74.022755063927647
30
0
40
0.40000000000000674
210
0
220
0
230
1
100
AcDbArc
50
187.30694495404339
51
264.54559359914407
0
ARC
5
198
100
AcDbEntity
8
0
100
AcDbCircle
10
4.7519776384414644e-13
20
-2.9527459294277743e-13
30
0
40
79.748391366097195
210
0
220
0
230
1
100
AcDbArc
50
236.27419698475398
51
237.72580301524545
0
SPLINE
5
199
100
AcDbEntity
8
0
100
AcDbSpline
70
0
71
3
72
8
73
4
74
0
42
0.000000001
43
0.0000000001
44
0.0000000001
40
0
40
0
40
0
40
0
40
1
40
1
40
1
40
1
10
-71.305456300566405
20
-24.659162695150314
30
0
10
-72.272928760311885
20
-25.338877120758035
30
0
10
-73.46783054929125
20
-26.301206948093
30
0
10
-74.807586248780751
20
-27.633873509000356
30
0
0
ARC
5
200
100
AcDbEntity
8
0
100
AcDbCircle
10
-3.3625291585401577e-12
20
-4.8326417887080388e-12
30
0
40
73.959437232402991
210
0
220
0
230
1
100
AcDbArc
50
233.45435777303317
51
234.54564222696666
0
SPLINE
5
201
100
AcDbEntity
8
0
100
AcDbSpline
70
0
71
3
72
8
73
4
74
0
42
0.000000001
43
0.0000000001
44
0.0000000001
40
0
40
0
40
0
40
0
40
1
40
1
40
1
40
1
10
29.387334053586933
20
69.490481364578102
30
0
10
29.529573229019206
20
70.664271242587574
30
0
10
29.613968156031632
20
72.196180664903039
30
0
10
29.520075440778744
20
74.08354116435676
30
0
0
SPLINE
5
202
100
AcDbEntity
8
0
100
AcDbSpline
70
0
71
3
72
8
73
4
74
0
42
0.000000001
43
0.0000000001
44
0.0000000001
40
0
40
0
40
0
40
0
40
1
40
1
40
1
40
1
10
-16.513765886310047
20
72.412990867474576
30
0
10
-16.664313632881111
20
72.731287133616476
30
0
10
-16.847755382544754
20
73.092004622262223
30
0
10
-17.070627452078469
20
73.492421932129943
30
0
0
ARC
5
203
100
AcDbEntity
8
0
100
AcDbCircle
10
-4.6847673215466576e-12
20
-2.6434409664239801e-12
30
0
40
73.959437232403488
210
0
220
0
230
1
100
AcDbArc
50
209.45435777303331
51
210.54564222696678
0
ARC
5
204
100
AcDbEntity
8
0
100
AcDbCircle
10
4.4148732312917526e-12
20
7.3043491315222892e-14
30
0
40
73.959437232404511
210
-0
220
0
230
1
100
AcDbArc
50
353.454357773033
51
354.54564222696604
0
SPLINE
5
205
100
AcDbEntity
8
0
100
AcDbSpline
70
0
71
3
72
8
73
4
74
0
42
0.000000001
43
0.0000000001
44
0.0000000001
40
0
40
0
40
0
40
0
40
1
40
1
40
1
40
1
10
29.203370863136996
20
68.289888273088394
30
0
10
29.268665028794068
20
68.635885106843631
30
0
10
29.332281955908304
20
69.035536040433271
30
0
10
29.387334053586933
20
69.490481364578102
30
0
0
ARC
5
206
100
AcDbEntity
8
0
100
AcDbCircle
10
-3.588652993454436e-12
20
-5.2256029035115857e-14
30
0
40
73.959437232405335
210
0
220
0
230
1
100
AcDbArc
50
185.45435777303339
51
186.54564222696698
0
SPLINE
5
207
100
AcDbEntity
8
0
100
AcDbSpline
70
0
71
3
72
8
73
4
74
0
42
0.000000001
43
0.0000000001
44
0.0000000001
40
0
40
0
40
0
40
0
40
1
40
1
40
1
40
1
10
8.854083092929244
20
-73.742463497664076
30
0
10
8.9705351036288619
20
-74.074752628153647
30
0
10
9.1152666954320711
20
-74.452668952845571
30
0
10
9.2950628423831603
20
-74.874189209727177
30
0
0
ARC
5
208
100
AcDbEntity
8
0
100
AcDbCircle
10
-74.022755063927747
20
-7.0680717502228863
30
0
40
0.40000000000001068
210
0
220
-0
230
1
100
AcDbArc
50
5.4544064008558175
51
82.693055045955816
0
SPLINE
5
209
100
AcDbEntity
8
0
100
AcDbSpline
70
0
71
3
72
8
73
4
74
0
42
0.000000001
43
0.0000000001
44
0.0000000001
40
0
40
0
40
0
40
0
40
1
40
1
40
1
40
1
10
-13.472156660630215
20
78.602206841739829
30
0
10
-13.956401907405272
20
76.775611090663219
30
0
10
-14.192353090207179
20
75.259630872712137
30
0
10
-14.297266820229437
20
74.081917932306879
30
0
0
ARC
5
210
100
AcDbEntity
8
0
100
AcDbCircle
10
72.878435988242472
20
-14.766836947300991
30
0
40
0.4000000000000058
210
0
220
0
230
1
100
AcDbArc
50
91.306944954042706
51
168.54559359914407
0
ARC
5
211
100
AcDbEntity
8
0
100
AcDbCircle
10
23.650762064215982
20
70.497995427546556
30
0
40
0.4000000000000476
210
0
220
0
230
1
100
AcDbArc
50
251.4544064008617
51
328.69305504595974
0
ARC
5
212
100
AcDbEntity
8
0
100
AcDbCircle
10
-3.0676737916393271e-13
20
-8.3058865155333765e-14
30
0
40
79.748391366097223
210
0
220
0
230
1
100
AcDbArc
50
104.27419698475396
51
105.72580301524559
0
ARC
5
213
100
AcDbEntity
8
0
100
AcDbCircle
10
-68.215669269388187
20
-29.596424980899059
30
0
40
0.40000000000000291
210
0
220
-0
230
1
100
AcDbArc
50
23.454406400857
51
100.69305504594931
0
ARC
5
214
100
AcDbEntity
8
0
100
AcDbCircle
10
8.1384114555559578e-14
20
-3.3872352427607909e-13
30
0
40
79.748391366097195
210
0
220
0
230
1
100
AcDbArc
50
194.27419698475396
51
195.72580301524596
0
SPLINE
5
215
100
AcDbEntity
8
0
100
AcDbSpline
70
0
71
3
72
8
73
4
74
0
42
0.000000001
43
0.0000000001
44
0.0000000001
40
0
40
0
40
0
40
0
40
1
40
1
40
1
40
1
10
9.2950628423831603
20
-74.874189209727177
30
0
10
9.7587750420501784
20
-75.961840650504584
30
0
10
10.451641602464717
20
-77.330710590032865
30
0
10
11.476635328830746
20
-78.918266371032502
30
0
0
ARC
5
216
100
AcDbEntity
8
0
100
AcDbCircle
10
1.3727701812507218e-13
20
-5.3865666263673633e-12
30
0
40
73.959437232403488
210
0
220
0
230
1
100
AcDbArc
50
269.454357773033
51
270.54564222696666
0
SPLINE
5
217
100
AcDbEntity
8
0
100
AcDbSpline
70
0
71
3
72
8
73
4
74
0
42
0.000000001
43
0.0000000001
44
0.0000000001
40
0
40
0
40
0
40
0
40
1
40
1
40
1
40
1
10
14.297266820229437
20
-74.081917932306879
30
0
10
14.338006194542348
20
-73.625468280318117
30
0
10
14.358871551259011
20
-73.221323975615491
30
0
10
14.366941006503238
20
-72.869312582434034
30
0
0
SPLINE
5
218
100
AcDbEntity
8
0
100
AcDbSpline
70
0
71
3
72
8
73
4
74
0
42
0.000000001
43
0.0000000001
44
0.0000000001
40
0
40
0
40
0
40
0
40
1
40
1
40
1
40
1
10
-69.490481364578073
20
-29.387334053586905
30
0
10
-69.035536040433286
20
-29.332281955908325
30
0
10
-68.635885106843631
20
-29.268665028794096
30
0
10
-68.289888273088394
20
-29.203370863136939
30
0
0
ARC
5
219
100
AcDbEntity
8
0
100
AcDbCircle
10
-70.935645517076878
20
-22.303813588625058
30
0
40
0.40000000000000524
210
0
220
-0
230
1
100
AcDbArc
50
17.454406400855696
51
94.693055045958232
0
SPLINE
5
220
100
AcDbEntity
8
0
100
AcDbSpline
70
0
71
3
72
8
73
4
74
0
42
0.000000001
43
0.0000000001
44
0.0000000001
40
0
40
0
40
0
40
0
40
1
40
1
40
1
40
1
10
1.4176595790698532
20
-75.435619201911209
30
0
10
1.7651409811127705
20
-76.565783497922865
30
0
10
2.3111260748213036
20
-77.999578901504762
30
0
10
3.1645600121679331
20
-79.685578904903537
30
0
0
SPLINE
5
221
100
AcDbEntity
8
0
100
AcDbSpline
70
0
71
3
72
8
73
4
74
0
42
0.000000001
43
0.0000000001
44
0.0000000001
40
0
40
0
40
0
40
0
40
1
40
1
40
1
40
1
10
72.869312582434006
20
-14.366941006503261
30
0
10
73.221323975615419
20
-14.35887155125906
30
0
10
73.625468280318174
20
-14.338006194542405
30
0
10
74.081917932306808
20
-14.297266820229471
30
0
0
SPLINE
5
222
100
AcDbEntity
8
0
100
AcDbSpline
70
0
71
3
72
8
73
4
74
0
42
0.000000001
43
0.0000000001
44
0.0000000001
40
0
40
0
40
0
40
0
40
1
40
1
40
1
40
1
10
6.6713201368197215
20
73.97188112893221
30
0
10
6.6264996769136877
20
74.321120679114216
30
0
10
6.5635040396953119
20
74.720870015356368
30
0
10
6.4752758592560911
20
75.1705607642008
30
0
0
SPLINE
5
223
100
AcDbEntity
8
0
100
AcDbSpline
70
0
71
3
72
8
73
4
74
0
42
0.000000001
43
0.0000000001
44
0.0000000001
40
0
40
0
40
0
40
0
40
1
40
1
40
1
40
1
10
-1.4176595790698732
20
75.435619201911209
30
0
10
-1.7651409811127983
20
76.565783497922865
30
0
10
-2.3111260748213214
20
77.999578901504762
30
0
10
-3.1645600121679616
20
79.685578904903537
30
0
0
ARC
5
224
100
AcDbEntity
8
0
100
AcDbCircle
10
1.8596859902167804e-12
20
-1.162922189052833e-12
30
0
40
73.959437232406799
210
-0
220
0
230
1
100
AcDbArc
50
347.45435777303396
51
348.54564222696729
0
SPLINE
5
225
100
AcDbEntity
8
0
100
AcDbSpline
70
0
71
3
72
8
73
4
74
0
42
0.000000001
43
0.0000000001
44
0.0000000001
40
0
40
0
40
0
40
0
40
1
40
1
40
1
40
1
10
-57.008189480336924
20
49.42275523715648
30
0
10
-58.080575670104665
20
49.920753751954109
30
0
10
-59.511428641885942
20
50.474404142570108
30
0
10
-61.335429588150625
20
50.968333332739419
30
0
0
SPLINE
5
226
100
AcDbEntity
8
0
100
AcDbSpline
70
0
71
3
72
8
73
4
74
0
42
0.000000001
43
0.0000000001
44
0.0000000001
40
0
40
0
40
0
40
0
40
1
40
1
40
1
40
1
10
-55.923205349445233
20
48.876792177521232
30
0
10
-56.232090885984071
20
49.045809520875743
30
0
10
-56.592522799009728
20
49.229811744251435
30
0
10
-57.008189480336924
20
49.42275523715648
30
0
0
SPLINE
5
227
100
AcDbEntity
8
0
100
AcDbSpline
70
0
71
3
72
8
73
4
74
0
42
0.000000001
43
0.0000000001
44
0.0000000001
40
0
40
0
40
0
40
0
40
1
40
1
40
1
40
1
10
21.905154664043973
20
70.968372598398531
30
0
10
21.93392462410187
20
71.319299124092694
30
0
10
21.95541815310132
20
71.723410507681052
30
0
10
21.962613934024965
20
72.181618104908509
30
0
0
SPLINE
5
228
100
AcDbEntity
8
0
100
AcDbSpline
70
0
71
3
72
8
73
4
74
0
42
0.000000001
43
0.0000000001
44
0.0000000001
40
0
40
0
40
0
40
0
40
1
40
1
40
1
40
1
10
17.070627452078512
20
73.492421932130014
30
0
10
16.847755382544783
20
73.092004622262237
30
0
10
16.664313632881179
20
72.731287133616462
30
0
10
16.513765886310033
20
72.412990867474591
30
0
0
SPLINE
5
229
100
AcDbEntity
8
0
100
AcDbSpline
70
0
71
3
72
8
73
4
74
0
42
0.000000001
43
0.0000000001
44
0.0000000001
40
0
40
0
40
0
40
0
40
1
40
1
40
1
40
1
10
-1.4176595790698931
20
-75.435619201911109
30
0
10
-1.2829092389121988
20
-74.99761426215899
30
0
10
-1.1784735145761893
20
-74.606639631758227
30
0
10
-1.0973931123463621
20
-74.263998266170603
30
0
0
ARC
5
230
100
AcDbEntity
8
0
100
AcDbCircle
10
-0.70813272003959815
20
-74.356065344875105
30
0
40
0.3999999999999424
210
0
220
-0
230
1
100
AcDbArc
50
89.454406400878923
51
166.69305504596326
0
SPLINE
5
231
100
AcDbEntity
8
0
100
AcDbSpline
70
0
71
3
72
8
73
4
74
0
42
0.000000001
43
0.0000000001
44
0.0000000001
40
0
40
0
40
0
40
0
40
1
40
1
40
1
40
1
10
1.4176595790698931
20
75.435619201911109
30
0
10
1.2829092389121888
20
74.99761426215899
30
0
10
1.1784735145761815
20
74.606639631758227
30
0
10
1.0973931123463532
20
74.263998266170603
30
0
0
SPLINE
5
232
100
AcDbEntity
8
0
100
AcDbSpline
70
0
71
3
72
8
73
4
74
0
42
0.000000001
43
0.0000000001
44
0.0000000001
40
0
40
0
40
0
40
0
40
1
40
1
40
1
40
1
10
77.286308796091561
20
-19.662970227190705
30
0
10
75.814590830844978
20
-18.477646757564997
30
0
10
74.525643980882336
20
-17.645489921472063
30
0
10
73.492421932130014
20
-17.070627452078512
30
0
0
ARC
5
233
100
AcDbEntity
8
0
100
AcDbCircle
10
-2.8863343835500079e-14
20
4.5126950824737351e-12
30
0
40
73.95943723240444
210
0
220
0
230
1
100
AcDbArc
50
95.454357773033607
51
96.545642226967104
0
ARC
5
234
100
AcDbEntity
8
0
100
AcDbCircle
10
16.152153589516637
20
-72.583977845948894
30
0
40
0.4000000000000058
210
0
220
-0
230
1
100
AcDbArc
50
25.306944954042603
51
102.54559359914238
0
SPLINE
5
235
100
AcDbEntity
8
0
100
AcDbSpline
70
0
71
3
72
8
73
4
74
0
42
0.000000001
43
0.0000000001
44
0.0000000001
40
0
40
0
40
0
40
0
40
1
40
1
40
1
40
1
10
17.070627452078469
20
-73.492421932129943
30
0
10
17.645489921472027
20
-74.52564398088235
30
0
10
18.477646757564912
20
-75.814590830844949
30
0
10
19.662970227190723
20
-77.286308796091575
30
0
0
ARC
5
236
100
AcDbEntity
8
0
100
AcDbCircle
10
-16.152153589516637
20
72.583977845948894
30
0
40
0.39999999999998281
210
0
220
0
230
1
100
AcDbArc
50
205.30694495404663
51
282.54559359914333
0
SPLINE
5
237
100
AcDbEntity
8
0
100
AcDbSpline
70
0
71
3
72
8
73
4
74
0
42
0.000000001
43
0.0000000001
44
0.0000000001
40
0
40
0
40
0
40
0
40
1
40
1
40
1
40
1
10
-72.181618104908495
20
-21.962613934025018
30
0
10
-71.723410507681066
20
-21.955418153101427
30
0
10
-71.319299124092737
20
-21.933924624101884
30
0
10
-70.968372598398574
20
-21.905154664043934
30
0
0
SPLINE
5
238
100
AcDbEntity
8
0
100
AcDbSpline
70
0
71
3
72
8
73
4
74
0
42
0.000000001
43
0.0000000001
44
0.0000000001
40
0
40
0
40
0
40
0
40
1
40
1
40
1
40
1
10
74.081917932306808
20
-14.297266820229471
30
0
10
75.259630872712066
20
-14.192353090207206
30
0
10
76.775611090663205
20
-13.956401907405249
30
0
10
78.602206841739786
20
-13.472156660630203
30
0
0
SPLINE
5
239
100
AcDbEntity
8
0
100
AcDbSpline
70
0
71
3
72
8
73
4
74
0
42
0.000000001
43
0.0000000001
44
0.0000000001
40
0
40
0
40
0
40
0
40
1
40
1
40
1
40
1
10
78.918266371032459
20
-11.476635328830845
30
0
10
77.330710590032808
20
-10.451641602464727
30
0
10
75.961840650504641
20
-9.7587750420502637
30
0
10
74.874189209727106
20
-9.2950628423832331
30
0
0
ARC
5
240
100
AcDbEntity
8
0
100
AcDbCircle
10
1.9954663695064671e-12
20
3.4532979842707869e-12
30
0
40
73.959437232404923
210
0
220
-0
230
1
100
AcDbArc
50
59.454357773033244
51
60.545642226966486
0
SPLINE
5
241
100
AcDbEntity
8
0
100
AcDbSpline
70
0
71
3
72
8
73
4
74
0
42
0.000000001
43
0.0000000001
44
0.0000000001
40
0
40
0
40
0
40
0
40
1
40
1
40
1
40
1
10
71.305456300566348
20
-24.65916269515029
30
0
10
70.930528993552088
20
-24.395656536066731
30
0
10
70.590962437243107
20
-24.175514454739666
30
0
10
70.290146355948508
20
-23.992520404912746
30
0
0
ARC
5
242
100
AcDbEntity
8
0
100
AcDbCircle
10
73.874715013897159
20
-8.4765787400350732
30
0
40
0.4000000000000245
210
0
220
0
230
1
100
AcDbArc
50
173.45440640082199
51
250.69305504595735
0
ARC
5
243
100
AcDbEntity
8
0
100
AcDbCircle
10
4.4825164419192642e-14
20
3.3700217132718075e-14
30
0
40
79.748391366097223
210
0
220
0
230
1
100
AcDbArc
50
128.27419698475421
51
129.72580301524587
0
SPLINE
5
244
100
AcDbEntity
8
0
100
AcDbSpline
70
0
71
3
72
8
73
4
74
0
42
0.000000001
43
0.0000000001
44
0.0000000001
40
0
40
0
40
0
40
0
40
1
40
1
40
1
40
1
10
-63.765812528934049
20
-38.082369446315298
30
0
10
-64.022008454805416
20
-38.32390781718918
30
0
10
-64.308384554799702
20
-38.609839122727195
30
0
10
-64.620332789529286
20
-38.94553881034841
30
0
0
ARC
5
245
100
AcDbEntity
8
0
100
AcDbCircle
10
2.6240766626140911e-12
20
-5.0542602494058509e-12
30
0
40
73.959437232403161
210
-0
220
0
230
1
100
AcDbArc
50
299.45435777303345
51
300.54564222696689
0
SPLINE
5
246
100
AcDbEntity
8
0
100
AcDbSpline
70
0
71
3
72
8
73
4
74
0
42
0.000000001
43
0.0000000001
44
0.0000000001
40
0
40
0
40
0
40
0
40
1
40
1
40
1
40
1
10
-27.633873509000427
20
-74.80758624878078
30
0
10
-26.301206948093039
20
-73.467830549291236
30
0
10
-25.33887712075801
20
-72.272928760311942
30
0
10
-24.65916269515029
20
-71.305456300566348
30
0
0
SPLINE
5
247
100
AcDbEntity
8
0
100
AcDbSpline
70
0
71
3
72
8
73
4
74
0
42
0.000000001
43
0.0000000001
44
0.0000000001
40
0
40
0
40
0
40
0
40
1
40
1
40
1
40
1
10
-31.977526991472544
20
-68.337253168147768
30
0
10
-31.676273771460227
20
-67.991923646021178
30
0
10
-31.421843281180454
20
-67.677228384298743
30
0
10
-31.208407849201571
20
-67.397188291787856
30
0
0
ARC
5
248
100
AcDbEntity
8
0
100
AcDbCircle
10
-2.6908740052094386e-12
20
1.7352075057721794e-12
30
0
40
73.959437232405691
210
0
220
0
230
1
100
AcDbArc
50
143.454357773033
51
144.54564222696661
0
SPLINE
5
249
100
AcDbEntity
8
0
100
AcDbSpline
70
0
71
3
72
8
73
4
74
0
42
0.000000001
43
0.0000000001
44
0.0000000001
40
0
40
0
40
0
40
0
40
1
40
1
40
1
40
1
10
73.492421932130014
20
-17.070627452078512
30
0
10
73.092004622262237
20
-16.847755382544783
30
0
10
72.731287133616462
20
-16.664313632881179
30
0
10
72.412990867474576
20
-16.513765886310132
30
0
0
ARC
5
250
100
AcDbEntity
8
0
100
AcDbCircle
10
-43.132507223428107
20
-60.571550468363078
30
0
40
0.40000000000002889
210
-0
220
0
230
1
100
AcDbArc
50
-22.693055045954441
51
54.545593599143388
0
ARC
5
251
100
AcDbEntity
8
0
100
AcDbCircle
10
-1.4713516873965245e-14
20
-1.3248110099162816e-14
30
0
40
79.748391366097209
210
-0
220
0
230
1
100
AcDbArc
50
344.27419698475404
51
345.7258030152459
0
ARC
5
252
100
AcDbEntity
8
0
100
AcDbCircle
10
-3.7040066564856301e-12
20
4.1285107107418451e-12
30
0
40
73.959437232403303
210
0
220
0
230
1
100
AcDbArc
50
131.454357773033
51
132.54564222696675
0
SPLINE
5
253
100
AcDbEntity
8
0
100
AcDbSpline
70
0
71
3
72
8
73
4
74
0
42
0.000000001
43
0.0000000001
44
0.0000000001
40
0
40
0
40
0
40
0
40
1
40
1
40
1
40
1
10
-79.579839561012861
20
-5.1821868862149323
30
0
10
-77.8138675040706
20
-5.8547106337319876
30
0
10
-76.330855598917509
20
-6.2478323337932009
30
0
10
-75.170560764200843
20
-6.4752758592560902
30
0
0
ARC
5
254
100
AcDbEntity
8
0
100
AcDbCircle
10
74.022755063927647
20
-7.0680717502229538
30
0
40
0.40000000000000674
210
0
220
0
230
1
100
AcDbArc
50
97.306944954043445
51
174.5455935992033
0
ARC
5
255
100
AcDbEntity
8
0
100
AcDbCircle
10
72.583977845948894
20
-16.152153589516704
30
0
40
0.40000000000002867
210
0
220
0
230
1
100
AcDbArc
50
167.45440640082549
51
244.69305504595448
0
ARC
5
256
100
AcDbEntity
8
0
100
AcDbCircle
10
-64.040175154097824
20
-37.791293597242792
30
0
40
0.40000000000006636
210
-0
220
0
230
1
100
AcDbArc
50
-46.693055045955951
51
30.545593599143736
0
ARC
5
257
100
AcDbEntity
8
0
100
AcDbCircle
10
-7.0680717502229893
20
74.022755063927747
30
0
40
0.40000000000001068
210
-0
220
0
230
1
100
AcDbArc
50
275.4544064008561
51
352.69305504595769
0
SPLINE
5
258
100
AcDbEntity
8
0
100
AcDbSpline
70
0
71
3
72
8
73
4
74
0
42
0.000000001
43
0.0000000001
44
0.0000000001
40
0
40
0
40
0
40
0
40
1
40
1
40
1
40
1
10
-6.4752758592560902
20
75.170560764200843
30
0
10
-6.5635040396953332
20
74.720870015356326
30
0
10
-6.6264996769136673
20
74.321120679114173
30
0
10
-6.6713201368196788
20
73.971881128932267
30
0
0
SPLINE
5
259
100
AcDbEntity
8
0
100
AcDbSpline
70
0
71
3
72
8
73
4
74
0
42
0.000000001
43
0.0000000001
44
0.0000000001
40
0
40
0
40
0
40
0
40
1
40
1
40
1
40
1
10
-74.263998266170631
20
-1.0973931123463176
30
0
10
-74.606639631758171
20
-1.1784735145761571
30
0
10
-74.997614262158947
20
-1.2829092389121544
30
0
10
-75.435619201911209
20
-1.4176595790698532
30
0
0
ARC
5
260
100
AcDbEntity
8
0
100
AcDbCircle
10
1.3980813486564032e-14
20
-7.3270338740121355e-16
30
0
40
79.748391366097209
210
-0
220
0
230
1
100
AcDbArc
50
356.2741969847541
51
357.72580301524596
0
SPLINE
5
261
100
AcDbEntity
8
0
100
AcDbSpline
70
0
71
3
72
8
73
4
74
0
42
0.000000001
43
0.0000000001
44
0.0000000001
40
0
40
0
40
0
40
0
40
1
40
1
40
1
40
1
10
-76.763391895739375
20
-21.614522667441534
30
0
10
-74.896185015816869
20
-21.905183921216075
30
0
10
-73.363845881574974
20
-21.981379456224094
30
0
10
-72.181618104908495
20
-21.962613934025018
30
0
0
SPLINE
5
262
100
AcDbEntity
8
0
100
AcDbSpline
70
0
71
3
72
8
73
4
74
0
42
0.000000001
43
0.0000000001
44
0.0000000001
40
0
40
0
40
0
40
0
40
1
40
1
40
1
40
1
10
-9.2950628423832562
20
74.874189209727177
30
0
10
-9.7587750420502779
20
75.961840650504598
30
0
10
-10.451641602464722
20
77.330710590032766
30
0
10
-11.47663532883085
20
78.918266371032502
30
0
0
SPLINE
5
263
100
AcDbEntity
8
0
100
AcDbSpline
70
0
71
3
72
8
73
4
74
0
42
0.000000001
43
0.0000000001
44
0.0000000001
40
0
40
0
40
0
40
0
40
1
40
1
40
1
40
1
10
38.945538810348452
20
64.620332789529357
30
0
10
38.609839122727195
20
64.308384554799702
30
0
10
38.323907817189252
20
64.022008454805444
30
0
10
38.082369446315305
20
63.765812528934084
30
0
0
SPLINE
5
264
100
AcDbEntity
8
0
100
AcDbSpline
70
0
71
3
72
8
73
4
74
0
42
0.000000001
43
0.0000000001
44
0.0000000001
40
0
40
0
40
0
40
0
40
1
40
1
40
1
40
1
10
31.977526991472544
20
68.337253168147768
30
0
10
31.676273771460227
20
67.991923646021178
30
0
10
31.421843281180454
20
67.677228384298743
30
0
10
31.208407849201571
20
67.397188291787856
30
0
0
SPLINE
5
265
100
AcDbEntity
8
0
100
AcDbSpline
70
0
71
3
72
8
73
4
74
0
42
0.000000001
43
0.0000000001
44
0.0000000001
40
0
40
0
40
0
40
0
40
1
40
1
40
1
40
1
10
-14.297266820229437
20
74.081917932306879
30
0
10
-14.338006194542348
20
73.625468280318117
30
0
10
-14.358871551259016
20
73.221323975615405
30
0
10
-14.366941006503243
20
72.869312582433921
30
0
0
SPLINE
5
266
100
AcDbEntity
8
0
100
AcDbSpline
70
0
71
3
72
8
73
4
74
0
42
0.000000001
43
0.0000000001
44
0.0000000001
40
0
40
0
40
0
40
0
40
1
40
1
40
1
40
1
10
9.2950628423832331
20
74.874189209727106
30
0
10
9.1152666954321404
20
74.452668952845599
30
0
10
8.9705351036289134
20
74.07475262815359
30
0
10
8.854083092929276
20
73.742463497664104
30
0
0
ARC
5
267
100
AcDbEntity
8
0
100
AcDbCircle
10
-64.748307874137367
20
-36.564771747632363
30
0
40
0.4000000000000053
210
0
220
-0
230
1
100
AcDbArc
50
29.454406400858105
51
106.69305504595629
0
SPLINE
5
268
100
AcDbEntity
8
0
100
AcDbSpline
70
0
71
3
72
8
73
4
74
0
42
0.000000001
43
0.0000000001
44
0.0000000001
40
0
40
0
40
0
40
0
40
1
40
1
40
1
40
1
10
75.1705607642008
20
-6.4752758592560911
30
0
10
76.330855598917495
20
-6.2478323337932036
30
0
10
77.813867504070501
20
-5.8547106337320187
30
0
10
79.579839561012847
20
-5.1821868862149589
30
0
0
SPLINE
5
269
100
AcDbEntity
8
0
100
AcDbSpline
70
0
71
3
72
8
73
4
74
0
42
0.000000001
43
0.0000000001
44
0.0000000001
40
0
40
0
40
0
40
0
40
1
40
1
40
1
40
1
10
-78.602206841739829
20
-13.472156660630215
30
0
10
-76.775611090663219
20
-13.956401907405272
30
0
10
-75.259630872712137
20
-14.192353090207179
30
0
10
-74.081917932306879
20
-14.297266820229437
30
0
0
SPLINE
5
270
100
AcDbEntity
8
0
100
AcDbSpline
70
0
71
3
72
8
73
4
74
0
42
0.000000001
43
0.0000000001
44
0.0000000001
40
0
40
0
40
0
40
0
40
1
40
1
40
1
40
1
10
-73.742463497664076
20
-8.854083092929244
30
0
10
-74.074752628153647
20
-8.9705351036288619
30
0
10
-74.452668952845585
20
-9.1152666954321724
30
0
10
-74.874189209727177
20
-9.2950628423832562
30
0
0
SPLINE
5
271
100
AcDbEntity
8
0
100
AcDbSpline
70
0
71
3
72
8
73
4
74
0
42
0.000000001
43
0.0000000001
44
0.0000000001
40
0
40
0
40
0
40
0
40
1
40
1
40
1
40
1
10
-68.337253168147782
20
-31.977526991472523
30
0
10
-69.228376208160796
20
-32.75464627980805
30
0
10
-70.316141342107571
20
-33.836605611416431
30
0
10
-71.509256132034466
20
-35.302014289885705
30
0
0
ARC
5
272
100
AcDbEntity
8
0
100
AcDbCircle
10
2.3086540858237276e-12
20
3.7352934706672525e-12
30
0
40
73.959437232404511
210
0
220
-0
230
1
100
AcDbArc
50
65.454357773033706
51
66.545642226966905
0
ARC
5
273
100
AcDbEntity
8
0
100
AcDbCircle
10
2.800684975967298e-14
20
2.6690001192682458e-13
30
0
40
79.748391366097223
210
-0
220
0
230
1
100
AcDbArc
50
350.27419698475404
51
351.72580301524562
0
SPLINE
5
274
100
AcDbEntity
8
0
100
AcDbSpline
70
0
71
3
72
8
73
4
74
0
42
0.000000001
43
0.0000000001
44
0.0000000001
40
0
40
0
40
0
40
0
40
1
40
1
40
1
40
1
10
-67.397188291787899
20
-31.208407849201556
30
0
10
-67.677228384298743
20
-31.421843281180507
30
0
10
-67.991923646021192
20
-31.676273771460252
30
0
10
-68.337253168147782
20
-31.977526991472523
30
0
0
ARC
5
275
100
AcDbEntity
8
0
100
AcDbCircle
10
-74.356065344875176
20
-0.70813272003955374
30
0
40
0.40000000000000291
210
-0
220
0
230
1
100
AcDbArc
50
-76.693055045957294
51
0.54559359926437012
0
ARC
5
276
100
AcDbEntity
8
0
100
AcDbCircle
10
3.3623400976969027e-13
20
1.6763260623815353e-13
30
0
40
79.748391366097209
210
-0
220
0
230
1
100
AcDbArc
50
296.27419698475398
51
297.72580301524556
0
ARC
5
277
100
AcDbEntity
8
0
100
AcDbCircle
10
-72.583977845948894
20
-16.152153589516637
30
0
40
0.39999999999998281
210
-0
220
0
230
1
100
AcDbArc
50
-64.693055045953358
51
12.545593599201467
0
ARC
5
278
100
AcDbEntity
8
0
100
AcDbCircle
10
-1.2417847968973742e-14
20
2.9805837859691085e-13
30
0
40
79.748391366097209
210
0
220
0
230
1
100
AcDbArc
50
182.2741969847537
51
183.72580301524596
0
ARC
5
279
100
AcDbEntity
8
0
100
AcDbCircle
10
74.356065344875105
20
-0.70813272003958927
30
0
40
0.40000000000000657
210
0
220
0
230
1
100
AcDbArc
50
179.45440640085656
51
256.69305504595729
0
ARC
5
280
100
AcDbEntity
8
0
100
AcDbCircle
10
73.874715013897131
20
8.4765787400350696
30
0
40
0.39999999999998981
210
0
220
0
230
1
100
AcDbArc
50
109.30694495404363
51
186.54559359914063
0
SPLINE
5
281
100
AcDbEntity
8
0
100
AcDbSpline
70
0
71
3
72
8
73
4
74
0
42
0.000000001
43
0.0000000001
44
0.0000000001
40
0
40
0
40
0
40
0
40
1
40
1
40
1
40
1
10
73.742463497664076
20
8.854083092929244
30
0
10
74.074752628153647
20
8.9705351036289613
30
0
10
74.452668952845585
20
9.1152666954321724
30
0
10
74.874189209727177
20
9.2950628423832562
30
0
0
ARC
5
282
100
AcDbEntity
8
0
100
AcDbCircle
10
-5.3578680496406952e-12
20
-1.4378790852989045e-13
30
0
40
73.959437232403502
210
0
220
0
230
1
100
AcDbArc
50
179.45435777303294
51
180.54564222696573
0
SPLINE
5
283
100
AcDbEntity
8
0
100
AcDbSpline
70
0
71
3
72
8
73
4
74
0
42
0.000000001
43
0.0000000001
44
0.0000000001
40
0
40
0
40
0
40
0
40
1
40
1
40
1
40
1
10
-73.492421932129943
20
-17.070627452078469
30
0
10
-74.52564398088235
20
-17.645489921472027
30
0
10
-75.814590830844949
20
-18.477646757564912
30
0
10
-77.286308796091575
20
-19.662970227190723
30
0
0
ARC
5
284
100
AcDbEntity
8
0
100
AcDbCircle
10
-6.9214315532495496e-12
20
-2.5402415738825923e-12
30
0
40
73.959437232401456
210
0
220
0
230
1
100
AcDbArc
50
197.45435777303302
51
198.54564222696595
0
ARC
5
285
100
AcDbEntity
8
0
100
AcDbCircle
10
1.6763260623815353e-13
20
-3.3623400976969027e-13
30
0
40
79.748391366097209
210
0
220
0
230
1
100
AcDbArc
50
206.27419698475398
51
207.72580301524496
0
SPLINE
5
286
100
AcDbEntity
8
0
100
AcDbSpline
70
0
71
3
72
8
73
4
74
0
42
0.000000001
43
0.0000000001
44
0.0000000001
40
0
40
0
40
0
40
0
40
1
40
1
40
1
40
1
10
-79.685578904903423
20
3.1645600121679851
30
0
10
-77.999578901504691
20
2.3111260748213445
30
0
10
-76.56578349792278
20
1.7651409811128205
30
0
10
-75.435619201911109
20
1.4176595790698931
30
0
0
SPLINE
5
287
100
AcDbEntity
8
0
100
AcDbSpline
70
0
71
3
72
8
73
4
74
0
42
0.000000001
43
0.0000000001
44
0.0000000001
40
0
40
0
40
0
40
0
40
1
40
1
40
1
40
1
10
-70.29014635594848
20
-23.992520404912771
30
0
10
-70.590962437243135
20
-24.175514454739666
30
0
10
-70.93052899355213
20
-24.395656536066728
30
0
10
-71.305456300566405
20
-24.659162695150314
30
0
0
ARC
5
288
100
AcDbEntity
8
0
100
AcDbCircle
10
-70.497995427546527
20
-23.650762064215915
30
0
40
0.4000000000000512
210
-0
220
0
230
1
100
AcDbArc
50
-58.693055045963952
51
18.545593599247237
0
ARC
5
289
100
AcDbEntity
8
0
100
AcDbCircle
10
-2.006276238132869e-13
20
4.5216968669475218e-12
30
0
40
73.959437232404298
210
0
220
-0
230
1
100
AcDbArc
50
89.454357773033081
51
90.545642226966905
0
ARC
5
290
100
AcDbEntity
8
0
100
AcDbCircle
10
0.70813272003958927
20
74.356065344875105
30
0
40
0.40000000000001512
210
0
220
0
230
1
100
AcDbArc
50
269.45440640085451
51
346.69305504596321
0
ARC
5
291
100
AcDbEntity
8
0
100
AcDbCircle
10
1.1178508218391752e-16
20
-2.6536953009736329e-13
30
0
40
79.748391366097209
210
0
220
-0
230
1
100
AcDbArc
50
2.274196984754207
51
3.7258030152460595
0
SPLINE
5
292
100
AcDbEntity
8
0
100
AcDbSpline
70
0
71
3
72
8
73
4
74
0
42
0.000000001
43
0.0000000001
44
0.0000000001
40
0
40
0
40
0
40
0
40
1
40
1
40
1
40
1
10
75.435619201911109
20
-1.4176595790698843
30
0
10
74.99761426215899
20
-1.2829092389121888
30
0
10
74.606639631758227
20
-1.1784735145761815
30
0
10
74.263998266170603
20
-1.0973931123463532
30
0
0
SPLINE
5
293
100
AcDbEntity
8
0
100
AcDbSpline
70
0
71
3
72
8
73
4
74
0
42
0.000000001
43
0.0000000001
44
0.0000000001
40
0
40
0
40
0
40
0
40
1
40
1
40
1
40
1
10
75.170560764200843
20
6.4752758592560902
30
0
10
74.720870015356326
20
6.5635040396953332
30
0
10
74.321120679114173
20
6.6264996769136673
30
0
10
73.971881128932267
20
6.6713201368196788
30
0
0
ARC
5
294
100
AcDbEntity
8
0
100
AcDbCircle
10
-1.2263827898036809e-12
20
4.3621621075876285e-12
30
0
40
73.959437232404298
210
0
220
0
230
1
100
AcDbArc
50
107.45435777303302
51
108.54564222696688
0
ARC
5
295
100
AcDbEntity
8
0
100
AcDbCircle
10
4.2412475759608932e-12
20
-5.2669156002905999e-13
30
0
40
73.959437232404568
210
-0
220
0
230
1
100
AcDbArc
50
-0.54564222696640319
51
0.54564222696706155
0
SPLINE
5
296
100
AcDbEntity
8
0
100
AcDbSpline
70
0
71
3
72
8
73
4
74
0
42
0.000000001
43
0.0000000001
44
0.0000000001
40
0
40
0
40
0
40
0
40
1
40
1
40
1
40
1
10
75.435619201911109
20
1.4176595790698865
30
0
10
76.565783497922865
20
1.7651409811128094
30
0
10
77.999578901504762
20
2.3111260748213325
30
0
10
79.685578904903423
20
3.1645600121679784
30
0
0
SPLINE
5
297
100
AcDbEntity
8
0
100
AcDbSpline
70
0
71
3
72
8
73
4
74
0
42
0.000000001
43
0.0000000001
44
0.0000000001
40
0
40
0
40
0
40
0
40
1
40
1
40
1
40
1
10
-38.94553881034841
20
64.620332789529286
30
0
10
-39.811548679866092
20
65.425343079304156
30
0
10
-41.001283342896251
20
66.394053775781231
30
0
10
-42.583378814789583
20
67.427455640831809
30
0
0
SPLINE
5
298
100
AcDbEntity
8
0
100
AcDbSpline
70
0
71
3
72
8
73
4
74
0
42
0.000000001
43
0.0000000001
44
0.0000000001
40
0
40
0
40
0
40
0
40
1
40
1
40
1
40
1
10
-31.208407849201556
20
67.397188291787899
30
0
10
-31.421843281180507
20
67.677228384298743
30
0
10
-31.676273771460252
20
67.991923646021192
30
0
10
-31.977526991472523
20
68.337253168147782
30
0
0
SPLINE
5
299
100
AcDbEntity
8
0
100
AcDbSpline
70
0
71
3
72
8
73
4
74
0
42
0.000000001
43
0.0000000001
44
0.0000000001
40
0
40
0
40
0
40
0
40
1
40
1
40
1
40
1
10
74.263998266170631
20
1.0973931123463476
30
0
10
74.606639631758171
20
1.1784735145761871
30
0
10
74.997614262158947
20
1.2829092389121832
30
0
10
75.435619201911109
20
1.4176595790698865
30
0
0
SPLINE
5
300
100
AcDbEntity
8
0
100
AcDbSpline
70
0
71
3
72
8
73
4
74
0
42
0.000000001
43
0.0000000001
44
0.0000000001
40
0
40
0
40
0
40
0
40
1
40
1
40
1
40
1
10
74.80758624878078
20
-27.633873509000427
30
0
10
73.467830549291236
20
-26.301206948093039
30
0
10
72.272928760311942
20
-25.33887712075801
30
0
10
71.305456300566348
20
-24.65916269515029
30
0
0
SPLINE
5
301
100
AcDbEntity
8
0
100
AcDbSpline
70
0
71
3
72
8
73
4
74
0
42
0.000000001
43
0.0000000001
44
0.0000000001
40
0
40
0
40
0
40
0
40
1
40
1
40
1
40
1
10
-21.614522667441534
20
76.763391895739375
30
0
10
-21.905183921216071
20
74.896185015816997
30
0
10
-21.981379456224094
20
73.363845881574974
30
0
10
-21.962613934025018
20
72.181618104908495
30
0
0
SPLINE
5
302
100
AcDbEntity
8
0
100
AcDbSpline
70
0
71
3
72
8
73
4
74
0
42
0.000000001
43
0.0000000001
44
0.0000000001
40
0
40
0
40
0
40
0
40
1
40
1
40
1
40
1
10
79.685578904903423
20
-3.1645600121679762
30
0
10
77.999578901504691
20
-2.3111260748213347
30
0
10
76.56578349792278
20
-1.7651409811128105
30
0
10
75.435619201911109
20
-1.4176595790698843
30
0
0
ARC
5
303
100
AcDbEntity
8
0
100
AcDbCircle
10
-1.3457453924134591e-14
20
1.0718998734946953e-14
30
0
40
79.748391366097209
210
0
220
0
230
1
100
AcDbArc
50
176.27419698475404
51
177.72580301524599
0
ARC
5
304
100
AcDbEntity
8
0
100
AcDbCircle
10
-1.6453990048592877e-12
20
-9.7722572357059113e-13
30
0
40
73.959437232407083
210
0
220
0
230
1
100
AcDbArc
50
191.45435777303297
51
192.54564222696595
0
ARC
5
305
100
AcDbEntity
8
0
100
AcDbCircle
10
-43.132507223428078
20
60.571550468363036
30
0
40
0.39999999999997904
210
-0
220
0
230
1
100
AcDbArc
50
-54.54559359912497
51
22.693055045958431
0
SPLINE
5
306
100
AcDbEntity
8
0
100
AcDbSpline
70
0
71
3
72
8
73
4
74
0
42
0.000000001
43
0.0000000001
44
0.0000000001
40
0
40
0
40
0
40
0
40
1
40
1
40
1
40
1
10
-42.763473279730668
20
-60.725868154968133
30
0
10
-42.899277397933787
20
-61.050728707385034
30
0
10
-43.044596243896116
20
-61.428419606325797
30
0
10
-43.193033772728377
20
-61.861977308891653
30
0
0
SPLINE
5
307
100
AcDbEntity
8
0
100
AcDbSpline
70
0
71
3
72
8
73
4
74
0
42
0.000000001
43
0.0000000001
44
0.0000000001
40
0
40
0
40
0
40
0
40
1
40
1
40
1
40
1
10
79.579839561012875
20
5.1821868862149589
30
0
10
77.8138675040706
20
5.8547106337320187
30
0
10
76.330855598917509
20
6.2478323337932009
30
0
10
75.170560764200843
20
6.4752758592560902
30
0
0
ARC
5
308
100
AcDbEntity
8
0
100
AcDbCircle
10
-2.5135049931555148e-13
20
-1.7208116251880377e-13
30
0
40
79.748391366097252
210
0
220
0
230
1
100
AcDbArc
50
122.27419698475394
51
123.72580301524597
0
ARC
5
309
100
AcDbEntity
8
0
100
AcDbCircle
10
2.2504461184465846e-15
20
4.2941069994446666e-14
30
0
40
79.748391366097223
210
0
220
0
230
1
100
AcDbArc
50
188.27419698475418
51
189.72580301524579
0
ARC
5
310
100
AcDbEntity
8
0
100
AcDbCircle
10
-2.0881710872260818e-12
20
-1.9698352843079114e-13
30
0
40
73.959437232406898
210
0
220
0
230
1
100
AcDbArc
50
203.45435777303373
51
204.54564222696723
0
ARC
5
311
100
AcDbEntity
8
0
100
AcDbCircle
10
-30.89024784049964
20
67.639622218586098
30
0
40
0.40000000000001029
210
0
220
0
230
1
100
AcDbArc
50
217.3069449540439
51
294.54559359921734
0
ARC
5
312
100
AcDbEntity
8
0
100
AcDbCircle
10
74.356065344875176
20
0.70813272003958483
30
0
40
0.40000000000000291
210
0
220
0
230
1
100
AcDbArc
50
103.30694495404276
51
180.54559359914344
0
ARC
5
313
100
AcDbEntity
8
0
100
AcDbCircle
10
4.3401286700093492e-12
20
8.0595975567200512e-13
30
0
40
73.95943723240444
210
0
220
-0
230
1
100
AcDbArc
50
5.454357773032994
51
6.5456422269664793
0
SPLINE
5
314
100
AcDbEntity
8
0
100
AcDbSpline
70
0
71
3
72
8
73
4
74
0
42
0.000000001
43
0.0000000001
44
0.0000000001
40
0
40
0
40
0
40
0
40
1
40
1
40
1
40
1
10
-75.435619201911109
20
1.4176595790698931
30
0
10
-74.99761426215899
20
1.2829092389121988
30
0
10
-74.606639631758227
20
1.1784735145761893
30
0
10
-74.263998266170603
20
1.0973931123463621
30
0
0
SPLINE
5
315
100
AcDbEntity
8
0
100
AcDbSpline
70
0
71
3
72
8
73
4
74
0
42
0.000000001
43
0.0000000001
44
0.0000000001
40
0
40
0
40
0
40
0
40
1
40
1
40
1
40
1
10
-43.193033772728306
20
61.861977308891682
30
0
10
-43.044596243896088
20
61.428419606325861
30
0
10
-42.899277397933709
20
61.050728707385069
30
0
10
-42.76347327973069
20
60.725868154968197
30
0
0
SPLINE
5
316
100
AcDbEntity
8
0
100
AcDbSpline
70
0
71
3
72
8
73
4
74
0
42
0.000000001
43
0.0000000001
44
0.0000000001
40
0
40
0
40
0
40
0
40
1
40
1
40
1
40
1
10
-36.490080391562671
20
66.037992368599191
30
0
10
-36.387775139431795
20
65.591293793711884
30
0
10
-36.282731814568969
20
65.200481969381613
30
0
10
-36.181628819855298
20
64.863205641280388
30
0
0
ARC
5
317
100
AcDbEntity
8
0
100
AcDbCircle
10
-29.596424980899062
20
68.215669269388087
30
0
40
0.40000000000000924
210
-0
220
0
230
1
100
AcDbArc
50
-66.545593599172619
51
10.693055045963222
0
ARC
5
318
100
AcDbEntity
8
0
100
AcDbCircle
10
-3.6760486298082352e-12
20
-9.5741690422685282e-14
30
0
40
73.959437232405193
210
0
220
0
230
1
100
AcDbArc
50
173.45435777303302
51
174.54564222696601
0
SPLINE
5
319
100
AcDbEntity
8
0
100
AcDbSpline
70
0
71
3
72
8
73
4
74
0
42
0.000000001
43
0.0000000001
44
0.0000000001
40
0
40
0
40
0
40
0
40
1
40
1
40
1
40
1
10
-78.918266371032473
20
11.476635328830874
30
0
10
-77.330710590032808
20
10.451641602464747
30
0
10
-75.961840650504627
20
9.7587750420502832
30
0
10
-74.874189209727092
20
9.2950628423832509
30
0
0
ARC
5
320
100
AcDbEntity
8
0
100
AcDbCircle
10
-37.791293597242792
20
64.040175154097824
30
0
40
0.40000000000000269
210
0
220
0
230
1
100
AcDbArc
50
223.3069449540402
51
300.54559359929056
0
ARC
5
321
100
AcDbEntity
8
0
100
AcDbCircle
10
-23.650762064215915
20
70.497995427546527
30
0
40
0.40000000000000857
210
0
220
0
230
1
100
AcDbArc
50
211.30694495404197
51
288.5455935991431
0
SPLINE
5
322
100
AcDbEntity
8
0
100
AcDbSpline
70
0
71
3
72
8
73
4
74
0
42
0.000000001
43
0.0000000001
44
0.0000000001
40
0
40
0
40
0
40
0
40
1
40
1
40
1
40
1
10
-23.992520404912771
20
70.29014635594848
30
0
10
-24.175514454739666
20
70.590962437243135
30
0
10
-24.395656536066728
20
70.93052899355213
30
0
10
-24.659162695150314
20
71.305456300566405
30
0
0
SPLINE
5
323
100
AcDbEntity
8
0
100
AcDbSpline
70
0
71
3
72
8
73
4
74
0
42
0.000000001
43
0.0000000001
44
0.0000000001
40
0
40
0
40
0
40
0
40
1
40
1
40
1
40
1
10
-29.520075440778733
20
74.083541164356745
30
0
10
-29.613968156031664
20
72.196180664903068
30
0
10
-29.52957322901916
20
70.664271242587589
30
0
10
-29.387334053586905
20
69.490481364578073
30
0
0
SPLINE
5
324
100
AcDbEntity
8
0
100
AcDbSpline
70
0
71
3
72
8
73
4
74
0
42
0.000000001
43
0.0000000001
44
0.0000000001
40
0
40
0
40
0
40
0
40
1
40
1
40
1
40
1
10
6.4752758592560911
20
75.1705607642008
30
0
10
6.2478323337932036
20
76.330855598917495
30
0
10
5.8547106337320285
20
77.813867504070501
30
0
10
5.1821868862149589
20
79.579839561012847
30
0
0
SPLINE
5
325
100
AcDbEntity
8
0
100
AcDbSpline
70
0
71
3
72
8
73
4
74
0
42
0.000000001
43
0.0000000001
44
0.0000000001
40
0
40
0
40
0
40
0
40
1
40
1
40
1
40
1
10
-74.874189209727092
20
9.2950628423832509
30
0
10
-74.452668952845599
20
9.1152666954321599
30
0
10
-74.07475262815359
20
8.9705351036289329
30
0
10
-73.742463497664104
20
8.8540830929292955
30
0
0
SPLINE
5
326
100
AcDbEntity
8
0
100
AcDbSpline
70
0
71
3
72
8
73
4
74
0
42
0.000000001
43
0.0000000001
44
0.0000000001
40
0
40
0
40
0
40
0
40
1
40
1
40
1
40
1
10
74.874189209727177
20
9.2950628423832562
30
0
10
75.961840650504598
20
9.7587750420502779
30
0
10
77.330710590032766
20
10.451641602464722
30
0
10
78.918266371032502
20
11.47663532883085
30
0
0
ARC
5
327
100
AcDbEntity
8
0
100
AcDbCircle
10
-73.874715013897159
20
8.4765787400351034
30
0
40
0.40000000000005564
210
-0
220
0
230
1
100
AcDbArc
50
-6.5455935991674998
51
70.693055045957379
0
ARC
5
328
100
AcDbEntity
8
0
100
AcDbCircle
10
-3.1526278953984426e-13
20
-1.6873166131925539e-13
30
0
40
79.748391366097181
210
0
220
0
230
1
100
AcDbArc
50
116.27419698475393
51
117.72580301524501
0
ARC
5
329
100
AcDbEntity
8
0
100
AcDbCircle
10
-1.9498275179646683e-12
20
3.5318864152443714e-12
30
0
40
73.959437232404795
210
0
220
0
230
1
100
AcDbArc
50
119.45435777303304
51
120.54564222696601
0
SPLINE
5
330
100
AcDbEntity
8
0
100
AcDbSpline
70
0
71
3
72
8
73
4
74
0
42
0.000000001
43
0.0000000001
44
0.0000000001
40
0
40
0
40
0
40
0
40
1
40
1
40
1
40
1
10
-73.97188112893221
20
6.6713201368197215
30
0
10
-74.321120679114202
20
6.6264996769136983
30
0
10
-74.720870015356368
20
6.5635040396953217
30
0
10
-75.1705607642008
20
6.4752758592561008
30
0
0
ARC
5
331
100
AcDbEntity
8
0
100
AcDbCircle
10
74.022755063927661
20
7.0680717502229928
30
0
40
0.40000000000000191
210
0
220
0
230
1
100
AcDbArc
50
185.45440640085567
51
262.69305504596986
0
ARC
5
332
100
AcDbEntity
8
0
100
AcDbCircle
10
-2.2020522303127759e-12
20
3.7443780491524254e-12
30
0
40
73.959437232404511
210
0
220
0
230
1
100
AcDbArc
50
113.454357773033
51
114.545642226966
0
ARC
5
333
100
AcDbEntity
8
0
100
AcDbCircle
10
-2.4997526422698619e-12
20
3.0700343202421759e-12
30
0
40
73.959437232404909
210
0
220
0
230
1
100
AcDbArc
50
125.45435777303301
51
126.54564222696702
0
SPLINE
5
334
100
AcDbEntity
8
0
100
AcDbSpline
70
0
71
3
72
8
73
4
74
0
42
0.000000001
43
0.0000000001
44
0.0000000001
40
0
40
0
40
0
40
0
40
1
40
1
40
1
40
1
10
-72.869312582434006
20
14.366941006503261
30
0
10
-73.221323975615419
20
14.35887155125906
30
0
10
-73.625468280318174
20
14.338006194542405
30
0
10
-74.081917932306808
20
14.297266820229471
30
0
0
ARC
5
335
100
AcDbEntity
8
0
100
AcDbCircle
10
-36.564771747632363
20
64.748307874137367
30
0
40
0.40000000000003816
210
-0
220
0
230
1
100
AcDbArc
50
-60.545593599082927
51
16.69305504595512
0
SPLINE
5
336
100
AcDbEntity
8
0
100
AcDbSpline
70
0
71
3
72
8
73
4
74
0
42
0.000000001
43
0.0000000001
44
0.0000000001
40
0
40
0
40
0
40
0
40
1
40
1
40
1
40
1
10
-37.102200090113833
20
70.592015652999763
30
0
10
-36.998295558608454
20
68.705179850602548
30
0
10
-36.754234818056673
20
67.190484060416964
30
0
10
-36.490080391562671
20
66.037992368599191
30
0
0
SPLINE
5
337
100
AcDbEntity
8
0
100
AcDbSpline
70
0
71
3
72
8
73
4
74
0
42
0.000000001
43
0.0000000001
44
0.0000000001
40
0
40
0
40
0
40
0
40
1
40
1
40
1
40
1
10
-49.398190930253733
20
-62.606905835525914
30
0
10
-47.716742434001148
20
-61.744539062438307
30
0
10
-46.432267421485378
20
-60.905496200537257
30
0
10
-45.486855156140294
20
-60.195418522194764
30
0
0
ARC
5
338
100
AcDbEntity
8
0
100
AcDbCircle
10
1.1540248611347307e-13
20
3.1038567331439396e-13
30
0
40
79.748391366097195
210
0
220
0
230
1
100
AcDbArc
50
158.27419698475401
51
159.72580301524599
0
SPLINE
5
339
100
AcDbEntity
8
0
100
AcDbSpline
70
0
71
3
72
8
73
4
74
0
42
0.000000001
43
0.0000000001
44
0.0000000001
40
0
40
0
40
0
40
0
40
1
40
1
40
1
40
1
10
-62.606905835525914
20
49.398190930253733
30
0
10
-61.744539062438307
20
47.716742434001148
30
0
10
-60.905496200537257
20
46.432267421485378
30
0
10
-60.195418522194764
20
45.486855156140294
30
0
0
ARC
5
340
100
AcDbEntity
8
0
100
AcDbCircle
10
-22.30381358862509
20
-70.935645517076964
30
0
40
0.39999999999999913
210
-0
220
0
230
1
100
AcDbArc
50
-4.6930550459480305
51
72.545593599240007
0
SPLINE
5
341
100
AcDbEntity
8
0
100
AcDbSpline
70
0
71
3
72
8
73
4
74
0
42
0.000000001
43
0.0000000001
44
0.0000000001
40
0
40
0
40
0
40
0
40
1
40
1
40
1
40
1
10
-55.671786128650012
20
-57.100421668548663
30
0
10
-53.9094069096288
20
-56.418538258251999
30
0
10
-52.544264524658232
20
-55.718355960102919
30
0
10
-51.529807998104971
20
-55.110990652829983
30
0
0
SPLINE
5
342
100
AcDbEntity
8
0
100
AcDbSpline
70
0
71
3
72
8
73
4
74
0
42
0.000000001
43
0.0000000001
44
0.0000000001
40
0
40
0
40
0
40
0
40
1
40
1
40
1
40
1
10
-69.490481364578102
20
29.387334053586933
30
0
10
-70.664271242587574
20
29.529573229019206
30
0
10
-72.196180664903039
20
29.613968156031632
30
0
10
-74.08354116435676
20
29.520075440778744
30
0
0
SPLINE
5
343
100
AcDbEntity
8
0
100
AcDbSpline
70
0
71
3
72
8
73
4
74
0
42
0.000000001
43
0.0000000001
44
0.0000000001
40
0
40
0
40
0
40
0
40
1
40
1
40
1
40
1
10
-64.620332789529357
20
38.945538810348452
30
0
10
-64.308384554799702
20
38.609839122727195
30
0
10
-64.022008454805444
20
38.323907817189252
30
0
10
-63.765812528934084
20
38.082369446315305
30
0
0
SPLINE
5
344
100
AcDbEntity
8
0
100
AcDbSpline
70
0
71
3
72
8
73
4
74
0
42
0.000000001
43
0.0000000001
44
0.0000000001
40
0
40
0
40
0
40
0
40
1
40
1
40
1
40
1
10
24.65916269515029
20
71.305456300566348
30
0
10
24.395656536066731
20
70.930528993552088
30
0
10
24.175514454739666
20
70.590962437243107
30
0
10
23.992520404912746
20
70.290146355948508
30
0
0
ARC
5
345
100
AcDbEntity
8
0
100
AcDbCircle
10
-3.050487853401929e-13
20
-1.2051496275273135e-14
30
0
40
79.748391366097209
210
-0
220
0
230
1
100
AcDbArc
50
272.27419698475398
51
273.72580301524607
0
ARC
5
346
100
AcDbEntity
8
0
100
AcDbCircle
10
-2.8105003132334176e-12
20
2.4524512205780694e-12
30
0
40
73.959437232405094
210
0
220
0
230
1
100
AcDbArc
50
137.454357773033
51
138.545642226967
0
ARC
5
347
100
AcDbEntity
8
0
100
AcDbCircle
10
3.5333948240725657e-13
20
-1.7473182358165919e-13
30
0
40
79.748391366097223
210
0
220
0
230
1
100
AcDbArc
50
242.27419698475393
51
243.72580301524553
0
ARC
5
348
100
AcDbEntity
8
0
100
AcDbCircle
10
55.731158480245533
20
-49.227673924026533
30
0
40
0.40000000000000252
210
0
220
-0
230
1
100
AcDbArc
50
61.306944954042159
51
138.54559359921504
0
ARC
5
349
100
AcDbEntity
8
0
100
AcDbCircle
10
-23.650762064215982
20
-70.497995427546556
30
0
40
0.40000000000004732
210
0
220
-0
230
1
100
AcDbArc
50
71.45440640085674
51
148.6930550459571
0
SPLINE
5
350
100
AcDbEntity
8
0
100
AcDbSpline
70
0
71
3
72
8
73
4
74
0
42
0.000000001
43
0.0000000001
44
0.0000000001
40
0
40
0
40
0
40
0
40
1
40
1
40
1
40
1
10
27.633873509000427
20
74.80758624878078
30
0
10
26.301206948093039
20
73.467830549291236
30
0
10
25.33887712075801
20
72.272928760311942
30
0
10
24.65916269515029
20
71.305456300566348
30
0
0
ARC
5
351
100
AcDbEntity
8
0
100
AcDbCircle
10
-3.0923079904141757e-12
20
-4.4342380734936459e-12
30
0
40
73.959437232403602
210
0
220
0
230
1
100
AcDbArc
50
245.45435777303399
51
246.54564222696692
0
ARC
5
352
100
AcDbEntity
8
0
100
AcDbCircle
10
64.040175154097824
20
37.791293597242792
30
0
40
0.40000000000006636
210
0
220
0
230
1
100
AcDbArc
50
133.30694495404404
51
210.5455935991437
0
ARC
5
353
100
AcDbEntity
8
0
100
AcDbCircle
10
36.564771747632285
20
64.748307874137453
30
0
40
0.40000000000000596
210
0
220
0
230
1
100
AcDbArc
50
163.30694495404344
51
240.54559359920307
0
ARC
5
354
100
AcDbEntity
8
0
100
AcDbCircle
10
-50.280164257323833
20
-54.783491927560277
30
0
40
0.40000000000000624
210
0
220
-0
230
1
100
AcDbArc
50
47.454406400857543
51
124.69305504595827
0
SPLINE
5
355
100
AcDbEntity
8
0
100
AcDbSpline
70
0
71
3
72
8
73
4
74
0
42
0.000000001
43
0.0000000001
44
0.0000000001
40
0
40
0
40
0
40
0
40
1
40
1
40
1
40
1
10
16.513765886310047
20
-72.412990867474576
30
0
10
16.664313632881111
20
-72.731287133616476
30
0
10
16.847755382544754
20
-73.092004622262223
30
0
10
17.070627452078469
20
-73.492421932129943
30
0
0
SPLINE
5
356
100
AcDbEntity
8
0
100
AcDbSpline
70
0
71
3
72
8
73
4
74
0
42
0.000000001
43
0.0000000001
44
0.0000000001
40
0
40
0
40
0
40
0
40
1
40
1
40
1
40
1
10
-60.725868154968133
20
42.763473279730668
30
0
10
-61.050728707385034
20
42.899277397933695
30
0
10
-61.428419606325903
20
43.044596243896116
30
0
10
-61.861977308891653
20
43.19303377272827
30
0
0
SPLINE
5
357
100
AcDbEntity
8
0
100
AcDbSpline
70
0
71
3
72
8
73
4
74
0
42
0.000000001
43
0.0000000001
44
0.0000000001
40
0
40
0
40
0
40
0
40
1
40
1
40
1
40
1
10
-49.42275523715648
20
-57.008189480336924
30
0
10
-49.920753751954109
20
-58.080575670104665
30
0
10
-50.474404142570108
20
-59.511428641885942
30
0
10
-50.968333332739419
20
-61.335429588150625
30
0
0
ARC
5
358
100
AcDbEntity
8
0
100
AcDbCircle
10
4.4661291435511335e-12
20
-3.0379024791989643e-12
30
0
40
73.959437232403602
210
-0
220
0
230
1
100
AcDbArc
50
335.45435777303402
51
336.54564222696797
0
ARC
5
359
100
AcDbEntity
8
0
100
AcDbCircle
10
43.132507223428064
20
-60.571550468363142
30
0
40
0.40000000000002822
210
0
220
0
230
1
100
AcDbArc
50
125.45440640084468
51
202.69305504595826
0
SPLINE
5
360
100
AcDbEntity
8
0
100
AcDbSpline
70
0
71
3
72
8
73
4
74
0
42
0.000000001
43
0.0000000001
44
0.0000000001
40
0
40
0
40
0
40
0
40
1
40
1
40
1
40
1
10
-55.110990652829983
20
51.529807998104971
30
0
10
-54.875655125136348
20
51.136586469160932
30
0
10
-54.654985491211562
20
50.797362509514684
30
0
10
-54.454606712088534
20
50.507836203430656
30
0
0
SPLINE
5
361
100
AcDbEntity
8
0
100
AcDbSpline
70
0
71
3
72
8
73
4
74
0
42
0.000000001
43
0.0000000001
44
0.0000000001
40
0
40
0
40
0
40
0
40
1
40
1
40
1
40
1
10
-71.305456300566348
20
24.65916269515029
30
0
10
-70.930528993552088
20
24.395656536066731
30
0
10
-70.590962437243107
20
24.175514454739666
30
0
10
-70.290146355948508
20
23.992520404912746
30
0
0
ARC
5
362
100
AcDbEntity
8
0
100
AcDbCircle
10
-1.0180743041642954e-12
20
-1.3695950902366678e-12
30
0
40
73.959437232407112
210
0
220
0
230
1
100
AcDbArc
50
239.45435777303339
51
240.54564222696689
0
SPLINE
5
363
100
AcDbEntity
8
0
100
AcDbSpline
70
0
71
3
72
8
73
4
74
0
42
0.000000001
43
0.0000000001
44
0.0000000001
40
0
40
0
40
0
40
0
40
1
40
1
40
1
40
1
10
1.0973931123463176
20
-74.263998266170631
30
0
10
1.178473514576146
20
-74.606639631758171
30
0
10
1.2829092389121544
20
-74.997614262158947
30
0
10
1.4176595790698532
20
-75.435619201911209
30
0
0
ARC
5
364
100
AcDbEntity
8
0
100
AcDbCircle
10
5.6344235039047208e-13
20
-1.9361417091180236e-12
30
0
40
73.959437232406898
210
-0
220
0
230
1
100
AcDbArc
50
287.454357773033
51
288.54564222696604
0
SPLINE
5
365
100
AcDbEntity
8
0
100
AcDbSpline
70
0
71
3
72
8
73
4
74
0
42
0.000000001
43
0.0000000001
44
0.0000000001
40
0
40
0
40
0
40
0
40
1
40
1
40
1
40
1
10
5.1821868862149234
20
-79.579839561012861
30
0
10
5.8547106337319876
20
-77.8138675040706
30
0
10
6.2478323337932009
20
-76.330855598917509
30
0
10
6.4752758592560902
20
-75.170560764200843
30
0
0
ARC
5
366
100
AcDbEntity
8
0
100
AcDbCircle
10
23.650762064216018
20
-70.497995427546542
30
0
40
0.4000000000000048
210
0
220
-0
230
1
100
AcDbArc
50
31.306944954042528
51
108.54559359928876
0
ARC
5
367
100
AcDbEntity
8
0
100
AcDbCircle
10
-1.3980813486564032e-14
20
7.3270338740121355e-16
30
0
40
79.748391366097252
210
0
220
-0
230
1
100
AcDbArc
50
74.27419698475417
51
75.72580301524583
0
ARC
5
368
100
AcDbEntity
8
0
100
AcDbCircle
10
-30.890247840499569
20
-67.639622218586041
30
0
40
0.39999999999992519
210
0
220
-0
230
1
100
AcDbArc
50
65.454406400870923
51
142.69305504595761
0
ARC
5
369
100
AcDbEntity
8
0
100
AcDbCircle
10
37.791293597242841
20
64.040175154097838
30
0
40
0.40000000000000502
210
0
220
0
230
1
100
AcDbArc
50
239.45440640085539
51
316.69305504595394
0
ARC
5
370
100
AcDbEntity
8
0
100
AcDbCircle
10
-1.3083989060735958e-15
20
-2.4965738368864351e-14
30
0
40
79.748391366097195
210
0
220
0
230
1
100
AcDbArc
50
164.27419698475407
51
165.72580301524599
0
SPLINE
5
371
100
AcDbEntity
8
0
100
AcDbSpline
70
0
71
3
72
8
73
4
74
0
42
0.000000001
43
0.0000000001
44
0.0000000001
40
0
40
0
40
0
40
0
40
1
40
1
40
1
40
1
10
-48.876792177521232
20
-55.923205349445233
30
0
10
-49.045809520875743
20
-56.232090885984071
30
0
10
-49.229811744251435
20
-56.592522799009728
30
0
10
-49.42275523715648
20
-57.008189480336924
30
0
0
SPLINE
5
372
100
AcDbEntity
8
0
100
AcDbSpline
70
0
71
3
72
8
73
4
74
0
42
0.000000001
43
0.0000000001
44
0.0000000001
40
0
40
0
40
0
40
0
40
1
40
1
40
1
40
1
10
-36.181628819855241
20
-64.863205641280416
30
0
10
-36.28273181456899
20
-65.200481969381613
30
0
10
-36.387775139431753
20
-65.591293793711841
30
0
10
-36.490080391562707
20
-66.037992368599248
30
0
0
ARC
5
373
100
AcDbEntity
8
0
100
AcDbCircle
10
60.571550468363078
20
-43.132507223428107
30
0
40
0.40000000000000563
210
0
220
-0
230
1
100
AcDbArc
50
67.306944954043061
51
144.54559359914339
0
SPLINE
5
374
100
AcDbEntity
8
0
100
AcDbSpline
70
0
71
3
72
8
73
4
74
0
42
0.000000001
43
0.0000000001
44
0.0000000001
40
0
40
0
40
0
40
0
40
1
40
1
40
1
40
1
10
64.863205641280402
20
-36.181628819855341
30
0
10
65.200481969381613
20
-36.28273181456899
30
0
10
65.591293793711841
20
-36.387775139431753
30
0
10
66.037992368599248
20
-36.490080391562707
30
0
0
SPLINE
5
375
100
AcDbEntity
8
0
100
AcDbSpline
70
0
71
3
72
8
73
4
74
0
42
0.000000001
43
0.0000000001
44
0.0000000001
40
0
40
0
40
0
40
0
40
1
40
1
40
1
40
1
10
-61.861977308891653
20
43.19303377272827
30
0
10
-62.980543874367683
20
43.576209319109466
30
0
10
-64.461430708375559
20
43.977261892654084
30
0
10
-66.327069245819544
20
44.277825271127142
30
0
0
SPLINE
5
376
100
AcDbEntity
8
0
100
AcDbSpline
70
0
71
3
72
8
73
4
74
0
42
0.000000001
43
0.0000000001
44
0.0000000001
40
0
40
0
40
0
40
0
40
1
40
1
40
1
40
1
10
31.208407849201556
20
-67.397188291787899
30
0
10
31.421843281180507
20
-67.677228384298743
30
0
10
31.676273771460252
20
-67.991923646021192
30
0
10
31.977526991472523
20
-68.337253168147782
30
0
0
ARC
5
377
100
AcDbEntity
8
0
100
AcDbCircle
10
-70.497995427546556
20
23.650762064215982
30
0
40
0.39999999999996494
210
-0
220
0
230
1
100
AcDbArc
50
-18.545593599081311
51
58.693055045957088
0
ARC
5
378
100
AcDbEntity
8
0
100
AcDbCircle
10
-2.9825403916534142e-12
20
2.2842245537941094e-12
30
0
40
73.959437232405222
210
0
220
0
230
1
100
AcDbArc
50
155.45435777303388
51
156.54564222696743
0
SPLINE
5
379
100
AcDbEntity
8
0
100
AcDbSpline
70
0
71
3
72
8
73
4
74
0
42
0.000000001
43
0.0000000001
44
0.0000000001
40
0
40
0
40
0
40
0
40
1
40
1
40
1
40
1
10
-61.335429588150568
20
-50.968333332739405
30
0
10
-59.511428641885971
20
-50.474404142570165
30
0
10
-58.080575670104665
20
-49.920753751954038
30
0
10
-57.008189480336917
20
-49.422755237156466
30
0
0
ARC
5
380
100
AcDbEntity
8
0
100
AcDbCircle
10
-36.564771747632285
20
-64.748307874137453
30
0
40
0.40000000000000635
210
-0
220
0
230
1
100
AcDbArc
50
-16.693055045948199
51
60.545593599145668
0
ARC
5
381
100
AcDbEntity
8
0
100
AcDbCircle
10
-4.1552317729887181e-12
20
-4.0801236393944046e-12
30
0
40
73.959437232403118
210
0
220
0
230
1
100
AcDbArc
50
221.45435777303294
51
222.54564222696652
0
ARC
5
382
100
AcDbEntity
8
0
100
AcDbCircle
10
-8.5616213841539988e-14
20
-9.5322572059138083e-15
30
0
40
79.748391366097209
210
-0
220
0
230
1
100
AcDbArc
50
278.27419698475398
51
279.72580301524602
0
ARC
5
383
100
AcDbEntity
8
0
100
AcDbCircle
10
-59.739090529353085
20
44.278290032998001
30
0
40
0.3999999999999812
210
-0
220
0
230
1
100
AcDbArc
50
-36.545593599115662
51
40.693055045954111
0
ARC
5
384
100
AcDbEntity
8
0
100
AcDbCircle
10
59.739090529353078
20
-44.2782900329981
30
0
40
0.4000000000000053
210
0
220
0
230
1
100
AcDbArc
50
143.45440640085519
51
220.69305504595775
0
ARC
5
385
100
AcDbEntity
8
0
100
AcDbCircle
10
-37.791293597242841
20
-64.040175154097739
30
0
40
0.40000000000000502
210
0
220
-0
230
1
100
AcDbArc
50
59.454406400854502
51
136.69305504596434
0
SPLINE
5
386
100
AcDbEntity
8
0
100
AcDbSpline
70
0
71
3
72
8
73
4
74
0
42
0.000000001
43
0.0000000001
44
0.0000000001
40
0
40
0
40
0
40
0
40
1
40
1
40
1
40
1
10
-36.490080391562707
20
-66.037992368599248
30
0
10
-36.754234818056673
20
-67.190484060416964
30
0
10
-36.99829555860849
20
-68.705179850602462
30
0
10
-37.102200090113847
20
-70.592015652999777
30
0
0
SPLINE
5
387
100
AcDbEntity
8
0
100
AcDbSpline
70
0
71
3
72
8
73
4
74
0
42
0.000000001
43
0.0000000001
44
0.0000000001
40
0
40
0
40
0
40
0
40
1
40
1
40
1
40
1
10
-57.100421668548663
20
55.671786128650012
30
0
10
-56.418538258251999
20
53.9094069096288
30
0
10
-55.718355960102919
20
52.544264524658232
30
0
10
-55.110990652829983
20
51.529807998104971
30
0
0
ARC
5
388
100
AcDbEntity
8
0
100
AcDbCircle
10
8.4765787400350696
20
-73.874715013897131
30
0
40
0.40000000000000624
210
0
220
-0
230
1
100
AcDbArc
50
19.30694495404277
51
96.545593599143245
0
ARC
5
389
100
AcDbEntity
8
0
100
AcDbCircle
10
-7.0680717502229751
20
-74.022755063927647
30
0
40
0.40000000000000613
210
0
220
-0
230
1
100
AcDbArc
50
7.3069449540433915
51
84.545593599124871
0
ARC
5
390
100
AcDbEntity
8
0
100
AcDbCircle
10
-29.596424980899101
20
-68.215669269388087
30
0
40
0.40000000000002567
210
-0
220
0
230
1
100
AcDbArc
50
-10.693055045963687
51
66.545593599255156
0
ARC
5
391
100
AcDbEntity
8
0
100
AcDbCircle
10
22.30381358862509
20
70.935645517076964
30
0
40
0.40000000000000702
210
0
220
0
230
1
100
AcDbArc
50
175.306944954046
51
252.5455935992066
0
ARC
5
392
100
AcDbEntity
8
0
100
AcDbCircle
10
2.3238045679530017e-12
20
-4.8032011544344848e-12
30
0
40
73.959437232403488
210
-0
220
0
230
1
100
AcDbArc
50
293.454357773033
51
294.54564222696666
0
ARC
5
393
100
AcDbEntity
8
0
100
AcDbCircle
10
4.7104808510695256e-12
20
-3.534371252671019e-12
30
0
40
73.959437232403047
210
-0
220
0
230
1
100
AcDbArc
50
323.45435777303328
51
324.54564222696678
0
SPLINE
5
394
100
AcDbEntity
8
0
100
AcDbSpline
70
0
71
3
72
8
73
4
74
0
42
0.000000001
43
0.0000000001
44
0.0000000001
40
0
40
0
40
0
40
0
40
1
40
1
40
1
40
1
10
-55.11099065282994
20
-51.529807998104992
30
0
10
-55.71835596010299
20
-52.54426452465821
30
0
10
-56.41853825825207
20
-53.909406909628849
30
0
10
-57.100421668548684
20
-55.671786128650005
30
0
0
SPLINE
5
395
100
AcDbEntity
8
0
100
AcDbSpline
70
0
71
3
72
8
73
4
74
0
42
0.000000001
43
0.0000000001
44
0.0000000001
40
0
40
0
40
0
40
0
40
1
40
1
40
1
40
1
10
67.427455640831738
20
-42.58337881478959
30
0
10
66.394053775781089
20
-41.00128334289635
30
0
10
65.425343079304071
20
-39.811548679866092
30
0
10
64.620332789529243
20
-38.945538810348445
30
0
0
SPLINE
5
396
100
AcDbEntity
8
0
100
AcDbSpline
70
0
71
3
72
8
73
4
74
0
42
0.000000001
43
0.0000000001
44
0.0000000001
40
0
40
0
40
0
40
0
40
1
40
1
40
1
40
1
10
11.476635328830845
20
78.918266371032459
30
0
10
10.451641602464727
20
77.330710590032808
30
0
10
9.7587750420502637
20
75.961840650504641
30
0
10
9.2950628423832331
20
74.874189209727106
30
0
0
ARC
5
397
100
AcDbEntity
8
0
100
AcDbCircle
10
-3.7899800427049238e-13
20
-1.9007697158674919e-12
30
0
40
73.959437232406955
210
0
220
0
230
1
100
AcDbArc
50
257.45435777303317
51
258.54564222696604
0
SPLINE
5
398
100
AcDbEntity
8
0
100
AcDbSpline
70
0
71
3
72
8
73
4
74
0
42
0.000000001
43
0.0000000001
44
0.0000000001
40
0
40
0
40
0
40
0
40
1
40
1
40
1
40
1
10
-59.43580518015915
20
-44.53909263452708
30
0
10
-59.665350003214684
20
-44.806087599359579
30
0
10
-59.920269345001188
20
-45.120386996937292
30
0
10
-60.195418522194814
20
-45.486855156140237
30
0
0
ARC
5
399
100
AcDbEntity
8
0
100
AcDbCircle
10
2.9527459294277743e-13
20
4.7519776384414644e-13
30
0
40
79.748391366097209
210
-0
220
0
230
1
100
AcDbArc
50
326.27419698475398
51
327.72580301524596
0
ARC
5
400
100
AcDbEntity
8
0
100
AcDbCircle
10
1.3720694295546844e-13
20
-3.626778940117729e-13
30
0
40
79.748391366097195
210
0
220
-0
230
1
100
AcDbArc
50
20.274196984754404
51
21.725803015246008
0
SPLINE
5
401
100
AcDbEntity
8
0
100
AcDbSpline
70
0
71
3
72
8
73
4
74
0
42
0.000000001
43
0.0000000001
44
0.0000000001
40
0
40
0
40
0
40
0
40
1
40
1
40
1
40
1
10
35.302014289885747
20
71.50925613203448
30
0
10
33.836605611416438
20
70.316141342107571
30
0
10
32.754646279808057
20
69.228376208160824
30
0
10
31.977526991472544
20
68.337253168147768
30
0
0
ARC
5
402
100
AcDbEntity
8
0
100
AcDbCircle
10
-67.639622218586041
20
30.890247840499676
30
0
40
0.40000000000000724
210
-0
220
0
230
1
100
AcDbArc
50
-24.545593599145413
51
52.693055045953294
0
ARC
5
403
100
AcDbEntity
8
0
100
AcDbCircle
10
55.731158480245561
20
49.227673924026554
30
0
40
0.40000000000000319
210
0
220
0
230
1
100
AcDbArc
50
221.45440640085789
51
298.69305504595599
0
SPLINE
5
404
100
AcDbEntity
8
0
100
AcDbSpline
70
0
71
3
72
8
73
4
74
0
42
0.000000001
43
0.0000000001
44
0.0000000001
40
0
40
0
40
0
40
0
40
1
40
1
40
1
40
1
10
29.387334053586912
20
-69.490481364577974
30
0
10
29.332281955908325
20
-69.035536040433286
30
0
10
29.268665028794096
20
-68.635885106843631
30
0
10
29.203370863137042
20
-68.289888273088394
30
0
0
ARC
5
405
100
AcDbEntity
8
0
100
AcDbCircle
10
2.9977697242065065e-13
20
8.3425216849034389e-14
30
0
40
79.748391366097238
210
-0
220
0
230
1
100
AcDbArc
50
284.27419698475393
51
285.72580301524602
0
ARC
5
406
100
AcDbEntity
8
0
100
AcDbCircle
10
36.564771747632363
20
-64.748307874137367
30
0
40
0.4000000000000053
210
0
220
0
230
1
100
AcDbArc
50
119.45440640085812
51
196.69305504595627
0
ARC
5
407
100
AcDbEntity
8
0
100
AcDbCircle
10
44.278290032998044
20
-59.739090529353106
30
0
40
0.40000000000000324
210
0
220
-0
230
1
100
AcDbArc
50
49.306944954045207
51
126.54559359922176
0
SPLINE
5
408
100
AcDbEntity
8
0
100
AcDbSpline
70
0
71
3
72
8
73
4
74
0
42
0.000000001
43
0.0000000001
44
0.0000000001
40
0
40
0
40
0
40
0
40
1
40
1
40
1
40
1
10
-60.195418522194764
20
45.486855156140294
30
0
10
-59.920269345001202
20
45.120386996937263
30
0
10
-59.665350003214712
20
44.806087599359508
30
0
10
-59.435805180159093
20
44.539092634527073
30
0
0
SPLINE
5
409
100
AcDbEntity
8
0
100
AcDbSpline
70
0
71
3
72
8
73
4
74
0
42
0.000000001
43
0.0000000001
44
0.0000000001
40
0
40
0
40
0
40
0
40
1
40
1
40
1
40
1
10
72.181618104908495
20
21.962613934025018
30
0
10
71.723410507681066
20
21.955418153101327
30
0
10
71.319299124092737
20
21.933924624101785
30
0
10
70.968372598398574
20
21.905154664043934
30
0
0
SPLINE
5
410
100
AcDbEntity
8
0
100
AcDbSpline
70
0
71
3
72
8
73
4
74
0
42
0.000000001
43
0.0000000001
44
0.0000000001
40
0
40
0
40
0
40
0
40
1
40
1
40
1
40
1
10
14.297266820229471
20
74.081917932306808
30
0
10
14.192353090207206
20
75.259630872712066
30
0
10
13.956401907405249
20
76.775611090663205
30
0
10
13.472156660630203
20
78.602206841739786
30
0
0
ARC
5
411
100
AcDbEntity
8
0
100
AcDbCircle
10
-49.227673924026533
20
-55.731158480245533
30
0
40
0.40000000000001046
210
-0
220
0
230
1
100
AcDbArc
50
-28.693055045956818
51
48.54559359914284
0
ARC
5
412
100
AcDbEntity
8
0
100
AcDbCircle
10
-68.215669269388087
20
29.596424980899101
30
0
40
0.40000000000002567
210
0
220
0
230
1
100
AcDbArc
50
259.30694495403634
51
336.54559359914333
0
ARC
5
413
100
AcDbEntity
8
0
100
AcDbCircle
10
-4.2985630996086183e-12
20
3.2354034182282642e-12
30
0
40
73.959437232403559
210
0
220
0
230
1
100
AcDbArc
50
149.45435777303376
51
150.5456422269672
0
ARC
5
414
100
AcDbEntity
8
0
100
AcDbCircle
10
29.596424980899101
20
68.215669269388158
30
0
40
0.4000000000000139
210
0
220
0
230
1
100
AcDbArc
50
169.30694495404632
51
246.54559359920373
0
SPLINE
5
415
100
AcDbEntity
8
0
100
AcDbSpline
70
0
71
3
72
8
73
4
74
0
42
0.000000001
43
0.0000000001
44
0.0000000001
40
0
40
0
40
0
40
0
40
1
40
1
40
1
40
1
10
24.659162695150314
20
-71.305456300566405
30
0
10
25.338877120758035
20
-72.272928760311885
30
0
10
26.301206948093107
20
-73.467830549291179
30
0
10
27.633873509000448
20
-74.807586248780751
30
0
0
ARC
5
416
100
AcDbEntity
8
0
100
AcDbCircle
10
64.040175154097739
20
-37.791293597242841
30
0
40
0.40000000000000502
210
0
220
0
230
1
100
AcDbArc
50
149.45440640085451
51
226.69305504595906
0
SPLINE
5
417
100
AcDbEntity
8
0
100
AcDbSpline
70
0
71
3
72
8
73
4
74
0
42
0.000000001
43
0.0000000001
44
0.0000000001
40
0
40
0
40
0
40
0
40
1
40
1
40
1
40
1
10
31.977526991472523
20
-68.337253168147782
30
0
10
32.75464627980805
20
-69.228376208160796
30
0
10
33.836605611416431
20
-70.316141342107571
30
0
10
35.302014289885705
20
-71.509256132034466
30
0
0
ARC
5
418
100
AcDbEntity
8
0
100
AcDbCircle
10
2.0112761823363761e-13
20
3.0288889247323698e-13
30
0
40
79.748391366097209
210
0
220
0
230
1
100
AcDbArc
50
146.27419698475401
51
147.7258030152461
0
SPLINE
5
419
100
AcDbEntity
8
0
100
AcDbSpline
70
0
71
3
72
8
73
4
74
0
42
0.000000001
43
0.0000000001
44
0.0000000001
40
0
40
0
40
0
40
0
40
1
40
1
40
1
40
1
10
-50.507836203430585
20
54.454606712088484
30
0
10
-50.79736250951462
20
54.65498549121159
30
0
10
-51.136586469160903
20
54.875655125136404
30
0
10
-51.529807998104992
20
55.11099065282994
30
0
0
ARC
5
420
100
AcDbEntity
8
0
100
AcDbCircle
10
-50.280164257323804
20
54.783491927560341
30
0
40
0.40000000000002067
210
0
220
0
230
1
100
AcDbArc
50
235.30694495404967
51
312.54559359914396
0
ARC
5
421
100
AcDbEntity
8
0
100
AcDbCircle
10
8.4765787400350838
20
73.874715013897173
30
0
40
0.40000000000002472
210
0
220
0
230
1
100
AcDbArc
50
263.45440640086332
51
340.69305504595536
0
ARC
5
422
100
AcDbEntity
8
0
100
AcDbCircle
10
-44.278290032998001
20
-59.739090529353085
30
0
40
0.4000000000000053
210
0
220
-0
230
1
100
AcDbArc
50
53.454406400854602
51
130.69305504595766
0
SPLINE
5
423
100
AcDbEntity
8
0
100
AcDbSpline
70
0
71
3
72
8
73
4
74
0
42
0.000000001
43
0.0000000001
44
0.0000000001
40
0
40
0
40
0
40
0
40
1
40
1
40
1
40
1
10
71.50925613203448
20
-35.302014289885747
30
0
10
70.316141342107571
20
-33.836605611416438
30
0
10
69.228376208160824
20
-32.754646279808057
30
0
10
68.337253168147768
20
-31.977526991472544
30
0
0
SPLINE
5
424
100
AcDbEntity
8
0
100
AcDbSpline
70
0
71
3
72
8
73
4
74
0
42
0.000000001
43
0.0000000001
44
0.0000000001
40
0
40
0
40
0
40
0
40
1
40
1
40
1
40
1
10
-45.486855156140294
20
-60.195418522194764
30
0
10
-45.120386996937263
20
-59.920269345001202
30
0
10
-44.806087599359508
20
-59.665350003214712
30
0
10
-44.539092634527073
20
-59.435805180159093
30
0
0
SPLINE
5
425
100
AcDbEntity
8
0
100
AcDbSpline
70
0
71
3
72
8
73
4
74
0
42
0.000000001
43
0.0000000001
44
0.0000000001
40
0
40
0
40
0
40
0
40
1
40
1
40
1
40
1
10
19.662970227190705
20
77.286308796091561
30
0
10
18.477646757564891
20
75.814590830844878
30
0
10
17.645489921472063
20
74.525643980882336
30
0
10
17.070627452078512
20
73.492421932130014
30
0
0
SPLINE
5
426
100
AcDbEntity
8
0
100
AcDbSpline
70
0
71
3
72
8
73
4
74
0
42
0.000000001
43
0.0000000001
44
0.0000000001
40
0
40
0
40
0
40
0
40
1
40
1
40
1
40
1
10
-21.962613934025057
20
-72.181618104908395
30
0
10
-21.981379456224165
20
-73.363845881575003
30
0
10
-21.905183921216107
20
-74.896185015816869
30
0
10
-21.614522667441566
20
-76.763391895739389
30
0
0
ARC
5
427
100
AcDbEntity
8
0
100
AcDbCircle
10
1.6321597105276052e-12
20
-1.1670199995417577e-12
30
0
40
73.959437232406813
210
-0
220
0
230
1
100
AcDbArc
50
329.45435777303339
51
330.54564222696604
0
ARC
5
428
100
AcDbEntity
8
0
100
AcDbCircle
10
50.280164257323833
20
54.783491927560277
30
0
40
0.40000000000000624
210
0
220
0
230
1
100
AcDbArc
50
227.45440640085755
51
304.69305504595826
0
SPLINE
5
429
100
AcDbEntity
8
0
100
AcDbSpline
70
0
71
3
72
8
73
4
74
0
42
0.000000001
43
0.0000000001
44
0.0000000001
40
0
40
0
40
0
40
0
40
1
40
1
40
1
40
1
10
66.327069245819587
20
44.277825271127199
30
0
10
64.461430708375502
20
43.977261892654091
30
0
10
62.980543874367633
20
43.576209319109545
30
0
10
61.861977308891682
20
43.193033772728306
30
0
0
ARC
5
430
100
AcDbEntity
8
0
100
AcDbCircle
10
64.748307874137353
20
-36.564771747632278
30
0
40
0.3999999999999303
210
0
220
-0
230
1
100
AcDbArc
50
73.306944954035714
51
150.54559359930644
0
ARC
5
431
100
AcDbEntity
8
0
100
AcDbCircle
10
-55.731158480245561
20
-49.227673924026554
30
0
40
0.39999999999992658
210
0
220
-0
230
1
100
AcDbArc
50
41.45440640087741
51
118.69305504596332
0
SPLINE
5
432
100
AcDbEntity
8
0
100
AcDbSpline
70
0
71
3
72
8
73
4
74
0
42
0.000000001
43
0.0000000001
44
0.0000000001
40
0
40
0
40
0
40
0
40
1
40
1
40
1
40
1
10
-74.80758624878078
20
27.633873509000427
30
0
10
-73.467830549291236
20
26.301206948093039
30
0
10
-72.272928760311942
20
25.33887712075801
30
0
10
-71.305456300566348
20
24.65916269515029
30
0
0
ARC
5
433
100
AcDbEntity
8
0
100
AcDbCircle
10
70.497995427546527
20
23.650762064215915
30
0
40
0.4000000000000512
210
0
220
0
230
1
100
AcDbArc
50
121.30694495403604
51
198.54559359919509
0
ARC
5
434
100
AcDbEntity
8
0
100
AcDbCircle
10
-1.5712146408719821e-14
20
-1.3195774142919876e-14
30
0
40
79.748391366097152
210
0
220
0
230
1
100
AcDbArc
50
266.27419698475416
51
267.72580301524579
0
SPLINE
5
435
100
AcDbEntity
8
0
100
AcDbSpline
70
0
71
3
72
8
73
4
74
0
42
0.000000001
43
0.0000000001
44
0.0000000001
40
0
40
0
40
0
40
0
40
1
40
1
40
1
40
1
10
-57.008189480336917
20
-49.422755237156466
30
0
10
-56.592522799009743
20
-49.229811744251393
30
0
10
-56.232090885983993
20
-49.04580952087575
30
0
10
-55.92320534944524
20
-48.876792177521182
30
0
0
ARC
5
436
100
AcDbEntity
8
0
100
AcDbCircle
10
-7.2753615897238877e-13
20
-5.3412436882609743e-12
30
0
40
73.959437232403502
210
0
220
0
230
1
100
AcDbArc
50
263.454357773033
51
264.54564222696695
0
SPLINE
5
437
100
AcDbEntity
8
0
100
AcDbSpline
70
0
71
3
72
8
73
4
74
0
42
0.000000001
43
0.0000000001
44
0.0000000001
40
0
40
0
40
0
40
0
40
1
40
1
40
1
40
1
10
43.193033772728306
20
-61.861977308891682
30
0
10
43.044596243896088
20
-61.428419606325861
30
0
10
42.899277397933709
20
-61.050728707385069
30
0
10
42.76347327973069
20
-60.725868154968197
30
0
0
SPLINE
5
438
100
AcDbEntity
8
0
100
AcDbSpline
70
0
71
3
72
8
73
4
74
0
42
0.000000001
43
0.0000000001
44
0.0000000001
40
0
40
0
40
0
40
0
40
1
40
1
40
1
40
1
10
14.366941006503261
20
72.869312582434006
30
0
10
14.35887155125906
20
73.221323975615419
30
0
10
14.338006194542405
20
73.625468280318174
30
0
10
14.297266820229471
20
74.081917932306808
30
0
0
SPLINE
5
439
100
AcDbEntity
8
0
100
AcDbSpline
70
0
71
3
72
8
73
4
74
0
42
0.000000001
43
0.0000000001
44
0.0000000001
40
0
40
0
40
0
40
0
40
1
40
1
40
1
40
1
10
-17.070627452078512
20
-73.492421932130014
30
0
10
-16.847755382544783
20
-73.092004622262237
30
0
10
-16.664313632881179
20
-72.731287133616462
30
0
10
-16.513765886310132
20
-72.412990867474576
30
0
0
SPLINE
5
440
100
AcDbEntity
8
0
100
AcDbSpline
70
0
71
3
72
8
73
4
74
0
42
0.000000001
43
0.0000000001
44
0.0000000001
40
0
40
0
40
0
40
0
40
1
40
1
40
1
40
1
10
60.725868154968133
20
-42.763473279730668
30
0
10
61.050728707385034
20
-42.899277397933787
30
0
10
61.428419606325797
20
-43.044596243896116
30
0
10
61.861977308891653
20
-43.193033772728377
30
0
0
SPLINE
5
441
100
AcDbEntity
8
0
100
AcDbSpline
70
0
71
3
72
8
73
4
74
0
42
0.000000001
43
0.0000000001
44
0.0000000001
40
0
40
0
40
0
40
0
40
1
40
1
40
1
40
1
10
21.962613934025018
20
-72.181618104908495
30
0
10
21.95541815310132
20
-71.723410507681166
30
0
10
21.933924624101785
20
-71.319299124092737
30
0
10
21.905154664043934
20
-70.968372598398574
30
0
0
ARC
5
442
100
AcDbEntity
8
0
100
AcDbCircle
10
30.89024784049964
20
-67.639622218586098
30
0
40
0.40000000000000208
210
0
220
-0
230
1
100
AcDbArc
50
37.306944954042002
51
114.54559359914491
0
ARC
5
443
100
AcDbEntity
8
0
100
AcDbCircle
10
49.227673924026554
20
-55.731158480245561
30
0
40
0.40000000000000319
210
0
220
0
230
1
100
AcDbArc
50
131.45440640085795
51
208.69305504596332
0
SPLINE
5
444
100
AcDbEntity
8
0
100
AcDbSpline
70
0
71
3
72
8
73
4
74
0
42
0.000000001
43
0.0000000001
44
0.0000000001
40
0
40
0
40
0
40
0
40
1
40
1
40
1
40
1
10
21.614522667441534
20
-76.763391895739375
30
0
10
21.905183921216071
20
-74.896185015816997
30
0
10
21.981379456224094
20
-73.363845881574974
30
0
10
21.962613934025018
20
-72.181618104908495
30
0
0
SPLINE
5
445
100
AcDbEntity
8
0
100
AcDbSpline
70
0
71
3
72
8
73
4
74
0
42
0.000000001
43
0.0000000001
44
0.0000000001
40
0
40
0
40
0
40
0
40
1
40
1
40
1
40
1
10
-68.337253168147768
20
31.977526991472544
30
0
10
-67.991923646021178
20
31.676273771460227
30
0
10
-67.677228384298743
20
31.421843281180454
30
0
10
-67.397188291787856
20
31.208407849201571
30
0
0
SPLINE
5
446
100
AcDbEntity
8
0
100
AcDbSpline
70
0
71
3
72
8
73
4
74
0
42
0.000000001
43
0.0000000001
44
0.0000000001
40
0
40
0
40
0
40
0
40
1
40
1
40
1
40
1
10
78.602206841739829
20
13.472156660630215
30
0
10
76.775611090663219
20
13.956401907405272
30
0
10
75.259630872712137
20
14.192353090207179
30
0
10
74.081917932306879
20
14.297266820229437
30
0
0
SPLINE
5
447
100
AcDbEntity
8
0
100
AcDbSpline
70
0
71
3
72
8
73
4
74
0
42
0.000000001
43
0.0000000001
44
0.0000000001
40
0
40
0
40
0
40
0
40
1
40
1
40
1
40
1
10
50.968333332739405
20
-61.335429588150568
30
0
10
50.474404142570052
20
-59.511428641885971
30
0
10
49.920753751954024
20
-58.080575670104757
30
0
10
49.422755237156466
20
-57.008189480336917
30
0
0
ARC
5
448
100
AcDbEntity
8
0
100
AcDbCircle
10
3.5326191186317734e-12
20
1.9638083314512334e-12
30
0
40
73.959437232404809
210
0
220
-0
230
1
100
AcDbArc
50
29.454357773033319
51
30.545642226966777
0
SPLINE
5
449
100
AcDbEntity
8
0
100
AcDbSpline
70
0
71
3
72
8
73
4
74
0
42
0.000000001
43
0.0000000001
44
0.0000000001
40
0
40
0
40
0
40
0
40
1
40
1
40
1
40
1
10
61.861977308891653
20
-43.193033772728377
30
0
10
62.980543874367577
20
-43.576209319109552
30
0
10
64.461430708375545
20
-43.977261892654191
30
0
10
66.327069245819544
20
-44.277825271127249
30
0
0
ARC
5
450
100
AcDbEntity
8
0
100
AcDbCircle
10
68.215669269388187
20
29.596424980899059
30
0
40
0.40000000000004082
210
0
220
0
230
1
100
AcDbArc
50
203.45440640083871
51
280.69305504595769
0
ARC
5
451
100
AcDbEntity
8
0
100
AcDbCircle
10
-3.392686997977537e-12
20
1.2412606228162426e-12
30
0
40
73.959437232405293
210
0
220
0
230
1
100
AcDbArc
50
161.45435777303302
51
162.545642226967
0
SPLINE
5
452
100
AcDbEntity
8
0
100
AcDbSpline
70
0
71
3
72
8
73
4
74
0
42
0.000000001
43
0.0000000001
44
0.0000000001
40
0
40
0
40
0
40
0
40
1
40
1
40
1
40
1
10
44.53909263452708
20
-59.43580518015915
30
0
10
44.806087599359472
20
-59.665350003214776
30
0
10
45.120386996937185
20
-59.920269345001181
30
0
10
45.486855156140237
20
-60.195418522194814
30
0
0
ARC
5
453
100
AcDbEntity
8
0
100
AcDbCircle
10
70.935645517076964
20
22.303813588625058
30
0
40
0.4000000000000084
210
0
220
0
230
1
100
AcDbArc
50
197.45440640085766
51
274.693055045954
0
SPLINE
5
454
100
AcDbEntity
8
0
100
AcDbSpline
70
0
71
3
72
8
73
4
74
0
42
0.000000001
43
0.0000000001
44
0.0000000001
40
0
40
0
40
0
40
0
40
1
40
1
40
1
40
1
10
57.100421668548663
20
-55.671786128650012
30
0
10
56.418538258251999
20
-53.9094069096288
30
0
10
55.718355960102919
20
-52.544264524658232
30
0
10
55.110990652829983
20
-51.529807998104971
30
0
0
SPLINE
5
455
100
AcDbEntity
8
0
100
AcDbSpline
70
0
71
3
72
8
73
4
74
0
42
0.000000001
43
0.0000000001
44
0.0000000001
40
0
40
0
40
0
40
0
40
1
40
1
40
1
40
1
10
-60.195418522194814
20
-45.486855156140237
30
0
10
-60.905496200537293
20
-46.432267421485385
30
0
10
-61.744539062438335
20
-47.716742434001134
30
0
10
-62.606905835525907
20
-49.398190930253762
30
0
0
SPLINE
5
456
100
AcDbEntity
8
0
100
AcDbSpline
70
0
71
3
72
8
73
4
74
0
42
0.000000001
43
0.0000000001
44
0.0000000001
40
0
40
0
40
0
40
0
40
1
40
1
40
1
40
1
10
-6.6713201368197215
20
-73.97188112893221
30
0
10
-6.6264996769136983
20
-74.321120679114202
30
0
10
-6.5635040396953217
20
-74.720870015356368
30
0
10
-6.4752758592561008
20
-75.1705607642008
30
0
0
SPLINE
5
457
100
AcDbEntity
8
0
100
AcDbSpline
70
0
71
3
72
8
73
4
74
0
42
0.000000001
43
0.0000000001
44
0.0000000001
40
0
40
0
40
0
40
0
40
1
40
1
40
1
40
1
10
64.620332789529243
20
-38.945538810348445
30
0
10
64.308384554799702
20
-38.609839122727195
30
0
10
64.022008454805373
20
-38.323907817189252
30
0
10
63.765812528934084
20
-38.082369446315305
30
0
0
SPLINE
5
458
100
AcDbEntity
8
0
100
AcDbSpline
70
0
71
3
72
8
73
4
74
0
42
0.000000001
43
0.0000000001
44
0.0000000001
40
0
40
0
40
0
40
0
40
1
40
1
40
1
40
1
10
69.490481364577974
20
29.387334053586912
30
0
10
69.035536040433286
20
29.332281955908325
30
0
10
68.635885106843631
20
29.268665028794096
30
0
10
68.289888273088394
20
29.203370863136939
30
0
0
ARC
5
459
100
AcDbEntity
8
0
100
AcDbCircle
10
3.9701320194990394e-12
20
1.9048298474531723e-12
30
0
40
73.959437232404525
210
0
220
-0
230
1
100
AcDbArc
50
17.454357773032775
51
18.545642226966002
0
SPLINE
5
460
100
AcDbEntity
8
0
100
AcDbSpline
70
0
71
3
72
8
73
4
74
0
42
0.000000001
43
0.0000000001
44
0.0000000001
40
0
40
0
40
0
40
0
40
1
40
1
40
1
40
1
10
-66.327069245819587
20
-44.277825271127199
30
0
10
-64.461430708375502
20
-43.977261892654091
30
0
10
-62.980543874367633
20
-43.576209319109545
30
0
10
-61.861977308891682
20
-43.193033772728306
30
0
0
ARC
5
461
100
AcDbEntity
8
0
100
AcDbCircle
10
-1.5928560332029274e-13
20
-3.2611055882152967e-13
30
0
40
79.748391366097195
210
0
220
0
230
1
100
AcDbArc
50
152.27419698475401
51
153.72580301524602
0
SPLINE
5
462
100
AcDbEntity
8
0
100
AcDbSpline
70
0
71
3
72
8
73
4
74
0
42
0.000000001
43
0.0000000001
44
0.0000000001
40
0
40
0
40
0
40
0
40
1
40
1
40
1
40
1
10
-64.620332789529286
20
-38.94553881034841
30
0
10
-65.425343079304156
20
-39.811548679866092
30
0
10
-66.394053775781231
20
-41.001283342896251
30
0
10
-67.427455640831809
20
-42.583378814789583
30
0
0
SPLINE
5
463
100
AcDbEntity
8
0
100
AcDbSpline
70
0
71
3
72
8
73
4
74
0
42
0.000000001
43
0.0000000001
44
0.0000000001
40
0
40
0
40
0
40
0
40
1
40
1
40
1
40
1
10
-54.454606712088484
20
-50.507836203430585
30
0
10
-54.65498549121159
20
-50.79736250951462
30
0
10
-54.875655125136404
20
-51.136586469160903
30
0
10
-55.11099065282994
20
-51.529807998104992
30
0
0
ARC
5
464
100
AcDbEntity
8
0
100
AcDbCircle
10
1.7473182358165919e-13
20
3.5333948240725657e-13
30
0
40
79.748391366097223
210
-0
220
0
230
1
100
AcDbArc
50
332.27419698475387
51
333.72580301524494
0
ARC
5
465
100
AcDbEntity
8
0
100
AcDbCircle
10
-59.739090529353106
20
-44.278290032998044
30
0
40
0.40000000000000863
210
-0
220
0
230
1
100
AcDbArc
50
-40.69305504595556
51
36.545593599144198
0
SPLINE
5
466
100
AcDbEntity
8
0
100
AcDbSpline
70
0
71
3
72
8
73
4
74
0
42
0.000000001
43
0.0000000001
44
0.0000000001
40
0
40
0
40
0
40
0
40
1
40
1
40
1
40
1
10
49.422755237156466
20
-57.008189480336917
30
0
10
49.229811744251393
20
-56.592522799009743
30
0
10
49.04580952087575
20
-56.232090885984078
30
0
10
48.876792177521182
20
-55.92320534944524
30
0
0
ARC
5
467
100
AcDbEntity
8
0
100
AcDbCircle
10
44.278290032998001
20
59.739090529353085
30
0
40
0.40000000000000285
210
0
220
0
230
1
100
AcDbArc
50
233.45440640085823
51
310.69305504595417
0
SPLINE
5
468
100
AcDbEntity
8
0
100
AcDbSpline
70
0
71
3
72
8
73
4
74
0
42
0.000000001
43
0.0000000001
44
0.0000000001
40
0
40
0
40
0
40
0
40
1
40
1
40
1
40
1
10
-68.289888273088394
20
29.203370863136996
30
0
10
-68.635885106843631
20
29.268665028794171
30
0
10
-69.035536040433271
20
29.332281955908304
30
0
10
-69.490481364578102
20
29.387334053586933
30
0
0
SPLINE
5
469
100
AcDbEntity
8
0
100
AcDbSpline
70
0
71
3
72
8
73
4
74
0
42
0.000000001
43
0.0000000001
44
0.0000000001
40
0
40
0
40
0
40
0
40
1
40
1
40
1
40
1
10
-64.863205641280402
20
36.181628819855341
30
0
10
-65.200481969381613
20
36.28273181456899
30
0
10
-65.591293793711841
20
36.387775139431753
30
0
10
-66.037992368599149
20
36.490080391562699
30
0
0
SPLINE
5
470
100
AcDbEntity
8
0
100
AcDbSpline
70
0
71
3
72
8
73
4
74
0
42
0.000000001
43
0.0000000001
44
0.0000000001
40
0
40
0
40
0
40
0
40
1
40
1
40
1
40
1
10
60.195418522194764
20
-45.486855156140294
30
0
10
59.920269345001202
20
-45.120386996937263
30
0
10
59.665350003214712
20
-44.806087599359508
30
0
10
59.435805180159093
20
-44.539092634527073
30
0
0
ARC
5
471
100
AcDbEntity
8
0
100
AcDbCircle
10
30.890247840499676
20
67.639622218586041
30
0
40
0.4000000000000119
210
0
220
0
230
1
100
AcDbArc
50
245.4544064008472
51
322.69305504595701
0
SPLINE
5
472
100
AcDbEntity
8
0
100
AcDbSpline
70
0
71
3
72
8
73
4
74
0
42
0.000000001
43
0.0000000001
44
0.0000000001
40
0
40
0
40
0
40
0
40
1
40
1
40
1
40
1
10
-66.037992368599149
20
36.490080391562699
30
0
10
-67.190484060416964
20
36.754234818056766
30
0
10
-68.705179850602462
20
36.99829555860849
30
0
10
-70.592015652999777
20
37.102200090113847
30
0
0
SPLINE
5
473
100
AcDbEntity
8
0
100
AcDbSpline
70
0
71
3
72
8
73
4
74
0
42
0.000000001
43
0.0000000001
44
0.0000000001
40
0
40
0
40
0
40
0
40
1
40
1
40
1
40
1
10
-43.193033772728377
20
-61.861977308891653
30
0
10
-43.576209319109552
20
-62.980543874367577
30
0
10
-43.977261892654191
20
-64.461430708375545
30
0
10
-44.277825271127249
20
-66.327069245819544
30
0
0
ARC
5
474
100
AcDbEntity
8
0
100
AcDbCircle
10
-2.4393446201240609e-12
20
-2.4266602201939605e-12
30
0
40
73.959437232405392
210
0
220
0
230
1
100
AcDbArc
50
227.45435777303337
51
228.54564222696686
0
ARC
5
475
100
AcDbEntity
8
0
100
AcDbCircle
10
68.215669269388087
20
-29.596424980899101
30
0
40
0.40000000000000535
210
0
220
-0
230
1
100
AcDbArc
50
79.306944954041938
51
156.54559359904795
0
SPLINE
5
476
100
AcDbEntity
8
0
100
AcDbSpline
70
0
71
3
72
8
73
4
74
0
42
0.000000001
43
0.0000000001
44
0.0000000001
40
0
40
0
40
0
40
0
40
1
40
1
40
1
40
1
10
51.529807998104971
20
55.110990652829983
30
0
10
51.136586469160932
20
54.875655125136348
30
0
10
50.797362509514684
20
54.654985491211562
30
0
10
50.507836203430656
20
54.454606712088534
30
0
0
ARC
5
477
100
AcDbEntity
8
0
100
AcDbCircle
10
-1.41034557369558e-12
20
-5.2624001522838691e-12
30
0
40
73.959437232403388
210
0
220
0
230
1
100
AcDbArc
50
251.454357773033
51
252.54564222696598
0
SPLINE
5
478
100
AcDbEntity
8
0
100
AcDbSpline
70
0
71
3
72
8
73
4
74
0
42
0.000000001
43
0.0000000001
44
0.0000000001
40
0
40
0
40
0
40
0
40
1
40
1
40
1
40
1
10
-19.662970227190705
20
-77.286308796091561
30
0
10
-18.477646757564898
20
-75.814590830844978
30
0
10
-17.645489921472063
20
-74.525643980882336
30
0
10
-17.070627452078512
20
-73.492421932130014
30
0
0
ARC
5
479
100
AcDbEntity
8
0
100
AcDbCircle
10
-3.3700217132718075e-14
20
4.4825164419192642e-14
30
0
40
79.748391366097223
210
0
220
0
230
1
100
AcDbArc
50
218.27419698475421
51
219.72580301524587
0
ARC
5
480
100
AcDbEntity
8
0
100
AcDbCircle
10
4.0644812248634534e-12
20
2.3485000261299735e-12
30
0
40
73.959437232404198
210
0
220
-0
230
1
100
AcDbArc
50
23.4543577730329
51
24.54564222696639
0
ARC
5
481
100
AcDbEntity
8
0
100
AcDbCircle
10
-4.1475663219644241e-14
20
3.021207309157465e-14
30
0
40
79.748391366097252
210
0
220
-0
230
1
100
AcDbArc
50
44.27419698475412
51
45.725803015245802
0
SPLINE
5
482
100
AcDbEntity
8
0
100
AcDbSpline
70
0
71
3
72
8
73
4
74
0
42
0.000000001
43
0.0000000001
44
0.0000000001
40
0
40
0
40
0
40
0
40
1
40
1
40
1
40
1
10
-6.4752758592561008
20
-75.1705607642008
30
0
10
-6.2478323337932125
20
-76.330855598917495
30
0
10
-5.8547106337320383
20
-77.813867504070501
30
0
10
-5.1821868862149696
20
-79.579839561012847
30
0
0
ARC
5
483
100
AcDbEntity
8
0
100
AcDbCircle
10
67.639622218586041
20
-30.890247840499569
30
0
40
0.39999999999991831
210
0
220
0
230
1
100
AcDbArc
50
155.45440640086238
51
232.69305504595761
0
SPLINE
5
484
100
AcDbEntity
8
0
100
AcDbSpline
70
0
71
3
72
8
73
4
74
0
42
0.000000001
43
0.0000000001
44
0.0000000001
40
0
40
0
40
0
40
0
40
1
40
1
40
1
40
1
10
73.492421932129943
20
17.070627452078469
30
0
10
74.52564398088235
20
17.645489921472027
30
0
10
75.814590830844949
20
18.477646757564912
30
0
10
77.286308796091575
20
19.662970227190723
30
0
0
ARC
5
485
100
AcDbEntity
8
0
100
AcDbCircle
10
-1.3083989060735958e-15
20
-2.4965738368864351e-14
30
0
40
79.748391366097195
210
0
220
-0
230
1
100
AcDbArc
50
8.274196984754159
51
9.7258030152458126
0
SPLINE
5
486
100
AcDbEntity
8
0
100
AcDbSpline
70
0
71
3
72
8
73
4
74
0
42
0.000000001
43
0.0000000001
44
0.0000000001
40
0
40
0
40
0
40
0
40
1
40
1
40
1
40
1
10
61.861977308891682
20
43.193033772728306
30
0
10
61.428419606325861
20
43.044596243896088
30
0
10
61.050728707385069
20
42.899277397933709
30
0
10
60.725868154968197
20
42.76347327973069
30
0
0
SPLINE
5
487
100
AcDbEntity
8
0
100
AcDbSpline
70
0
71
3
72
8
73
4
74
0
42
0.000000001
43
0.0000000001
44
0.0000000001
40
0
40
0
40
0
40
0
40
1
40
1
40
1
40
1
10
66.037992368599248
20
-36.490080391562707
30
0
10
67.190484060416964
20
-36.754234818056673
30
0
10
68.705179850602462
20
-36.99829555860849
30
0
10
70.592015652999777
20
-37.102200090113847
30
0
0
ARC
5
488
100
AcDbEntity
8
0
100
AcDbCircle
10
54.783491927560341
20
50.280164257323804
30
0
40
0.40000000000002067
210
0
220
0
230
1
100
AcDbArc
50
145.30694495404967
51
222.54559359914319
0
ARC
5
489
100
AcDbEntity
8
0
100
AcDbCircle
10
-8.4765787400350732
20
-73.874715013897159
30
0
40
0.40000000000000785
210
0
220
-0
230
1
100
AcDbArc
50
83.454406400922679
51
160.69305504595724
0
SPLINE
5
490
100
AcDbEntity
8
0
100
AcDbSpline
70
0
71
3
72
8
73
4
74
0
42
0.000000001
43
0.0000000001
44
0.0000000001
40
0
40
0
40
0
40
0
40
1
40
1
40
1
40
1
10
55.923205349445233
20
-48.876792177521232
30
0
10
56.232090885983979
20
-49.045809520875736
30
0
10
56.592522799009728
20
-49.229811744251435
30
0
10
57.008189480336924
20
-49.42275523715648
30
0
0
SPLINE
5
491
100
AcDbEntity
8
0
100
AcDbSpline
70
0
71
3
72
8
73
4
74
0
42
0.000000001
43
0.0000000001
44
0.0000000001
40
0
40
0
40
0
40
0
40
1
40
1
40
1
40
1
10
-9.2950628423832296
20
-74.874189209727206
30
0
10
-9.1152666954321298
20
-74.452668952845599
30
0
10
-8.9705351036289045
20
-74.074752628153604
30
0
10
-8.8540830929292653
20
-73.742463497664104
30
0
0
SPLINE
5
492
100
AcDbEntity
8
0
100
AcDbSpline
70
0
71
3
72
8
73
4
74
0
42
0.000000001
43
0.0000000001
44
0.0000000001
40
0
40
0
40
0
40
0
40
1
40
1
40
1
40
1
10
50.507836203430685
20
-54.454606712088491
30
0
10
50.79736250951462
20
-54.65498549121159
30
0
10
51.136586469160903
20
-54.875655125136298
30
0
10
51.529807998104992
20
-55.11099065282994
30
0
0
ARC
5
493
100
AcDbEntity
8
0
100
AcDbCircle
10
-1.1576883780717368e-13
20
-3.1737608005767586e-13
30
0
40
79.748391366097195
210
-0
220
0
230
1
100
AcDbArc
50
338.27419698475393
51
339.72580301524607
0
SPLINE
5
494
100
AcDbEntity
8
0
100
AcDbSpline
70
0
71
3
72
8
73
4
74
0
42
0.000000001
43
0.0000000001
44
0.0000000001
40
0
40
0
40
0
40
0
40
1
40
1
40
1
40
1
10
64.620332789529286
20
38.945538810348509
30
0
10
65.425343079304156
20
39.811548679866092
30
0
10
66.394053775781231
20
41.001283342896251
30
0
10
67.427455640831809
20
42.583378814789583
30
0
0
ARC
5
495
100
AcDbEntity
8
0
100
AcDbCircle
10
-54.783491927560341
20
-50.280164257323804
30
0
40
0.40000000000000746
210
-0
220
0
230
1
100
AcDbArc
50
-34.693055045954608
51
42.545593599143956
0
SPLINE
5
496
100
AcDbEntity
8
0
100
AcDbSpline
70
0
71
3
72
8
73
4
74
0
42
0.000000001
43
0.0000000001
44
0.0000000001
40
0
40
0
40
0
40
0
40
1
40
1
40
1
40
1
10
-71.50925613203448
20
35.302014289885747
30
0
10
-70.3161413421075
20
33.836605611416523
30
0
10
-69.228376208160824
20
32.754646279808057
30
0
10
-68.337253168147768
20
31.977526991472544
30
0
0
SPLINE
5
497
100
AcDbEntity
8
0
100
AcDbSpline
70
0
71
3
72
8
73
4
74
0
42
0.000000001
43
0.0000000001
44
0.0000000001
40
0
40
0
40
0
40
0
40
1
40
1
40
1
40
1
10
45.486855156140294
20
60.195418522194764
30
0
10
45.120386996937263
20
59.920269345001202
30
0
10
44.806087599359508
20
59.665350003214712
30
0
10
44.539092634527073
20
59.435805180159093
30
0
0
SPLINE
5
498
100
AcDbEntity
8
0
100
AcDbSpline
70
0
71
3
72
8
73
4
74
0
42
0.000000001
43
0.0000000001
44
0.0000000001
40
0
40
0
40
0
40
0
40
1
40
1
40
1
40
1
10
-61.861977308891682
20
-43.193033772728306
30
0
10
-61.428419606325861
20
-43.044596243896088
30
0
10
-61.050728707385069
20
-42.899277397933709
30
0
10
-60.725868154968197
20
-42.76347327973069
30
0
0
ARC
5
499
100
AcDbEntity
8
0
100
AcDbCircle
10
-1.6836530962555473e-13
20
3.2225319628312621e-13
30
0
40
79.748391366097195
210
0
220
-0
230
1
100
AcDbArc
50
26.274196984753889
51
27.725803015245194
0
SPLINE
5
500
100
AcDbEntity
8
0
100
AcDbSpline
70
0
71
3
72
8
73
4
74
0
42
0.000000001
43
0.0000000001
44
0.0000000001
40
0
40
0
40
0
40
0
40
1
40
1
40
1
40
1
10
-21.905154664043973
20
-70.968372598398531
30
0
10
-21.93392462410187
20
-71.319299124092694
30
0
10
-21.955418153101419
20
-71.723410507681052
30
0
10
-21.962613934025057
20
-72.181618104908395
30
0
0
ARC
5
501
100
AcDbEntity
8
0
100
AcDbCircle
10
-2.6390412332256089e-13
20
2.7849841890944148e-14
30
0
40
79.748391366097209
210
0
220
-0
230
1
100
AcDbArc
50
80.274196984753971
51
81.725803015245575
0
SPLINE
5
502
100
AcDbEntity
8
0
100
AcDbSpline
70
0
71
3
72
8
73
4
74
0
42
0.000000001
43
0.0000000001
44
0.0000000001
40
0
40
0
40
0
40
0
40
1
40
1
40
1
40
1
10
55.11099065282994
20
51.529807998104992
30
0
10
55.718355960102883
20
52.54426452465821
30
0
10
56.41853825825207
20
53.909406909628849
30
0
10
57.100421668548684
20
55.671786128650005
30
0
0
ARC
5
503
100
AcDbEntity
8
0
100
AcDbCircle
10
2.0238516842444837e-14
20
-1.5079868567665853e-14
30
0
40
79.748391366097223
210
0
220
0
230
1
100
AcDbArc
50
224.2741969847541
51
225.72580301524596
0
SPLINE
5
504
100
AcDbEntity
8
0
100
AcDbSpline
70
0
71
3
72
8
73
4
74
0
42
0.000000001
43
0.0000000001
44
0.0000000001
40
0
40
0
40
0
40
0
40
1
40
1
40
1
40
1
10
76.763391895739375
20
21.614522667441534
30
0
10
74.896185015816869
20
21.905183921216075
30
0
10
73.363845881574974
20
21.981379456224094
30
0
10
72.181618104908495
20
21.962613934025018
30
0
0
SPLINE
5
505
100
AcDbEntity
8
0
100
AcDbSpline
70
0
71
3
72
8
73
4
74
0
42
0.000000001
43
0.0000000001
44
0.0000000001
40
0
40
0
40
0
40
0
40
1
40
1
40
1
40
1
10
70.592015652999763
20
37.102200090113833
30
0
10
68.705179850602548
20
36.998295558608454
30
0
10
67.190484060416964
20
36.754234818056673
30
0
10
66.037992368599191
20
36.490080391562671
30
0
0
ARC
5
506
100
AcDbEntity
8
0
100
AcDbCircle
10
1.5810034903223973e-13
20
-2.5061779592815026e-13
30
0
40
79.748391366097195
210
0
220
0
230
1
100
AcDbArc
50
212.27419698475396
51
213.72580301524599
0
ARC
5
507
100
AcDbEntity
8
0
100
AcDbCircle
10
-64.040175154097838
20
37.791293597242841
30
0
40
0.40000000000000707
210
-0
220
0
230
1
100
AcDbArc
50
-30.545593599145498
51
46.69305504595399
0
ARC
5
508
100
AcDbEntity
8
0
100
AcDbCircle
10
-14.766836947300996
20
-72.878435988242558
30
0
40
0.40000000000000713
210
0
220
-0
230
1
100
AcDbArc
50
1.3069449540426741
51
78.545593599268287
0
ARC
5
509
100
AcDbEntity
8
0
100
AcDbCircle
10
50.280164257323804
20
-54.783491927560341
30
0
40
0.40000000000000746
210
0
220
-0
230
1
100
AcDbArc
50
55.306944954045399
51
132.54559359914396
0
ARC
5
510
100
AcDbEntity
8
0
100
AcDbCircle
10
4.2625120108111061e-12
20
-3.2545428799896072e-12
30
0
40
73.959437232403502
210
-0
220
0
230
1
100
AcDbArc
50
317.454357773033
51
318.54564222696604
0
ARC
5
511
100
AcDbEntity
8
0
100
AcDbCircle
10
-3.0507223523885296e-12
20
-2.1312583439454251e-12
30
0
40
73.959437232405207
210
0
220
0
230
1
100
AcDbArc
50
215.454357773033
51
216.54564222696678
0
ARC
5
512
100
AcDbEntity
8
0
100
AcDbCircle
10
-60.571550468363142
20
-43.132507223428064
30
0
40
0.39999999999998515
210
0
220
-0
230
1
100
AcDbArc
50
35.454406400905583
51
112.69305504595798
0
ARC
5
513
100
AcDbEntity
8
0
100
AcDbCircle
10
-1.3980813486564032e-14
20
7.3270338740121355e-16
30
0
40
79.748391366097195
210
0
220
0
230
1
100
AcDbArc
50
254.27419698475401
51
255.72580301524584
0
SPLINE
5
514
100
AcDbEntity
8
0
100
AcDbSpline
70
0
71
3
72
8
73
4
74
0
42
0.000000001
43
0.0000000001
44
0.0000000001
40
0
40
0
40
0
40
0
40
1
40
1
40
1
40
1
10
-14.366941006503261
20
-72.869312582434006
30
0
10
-14.35887155125906
20
-73.221323975615419
30
0
10
-14.338006194542405
20
-73.625468280318174
30
0
10
-14.297266820229471
20
-74.081917932306808
30
0
0
ARC
5
515
100
AcDbEntity
8
0
100
AcDbCircle
10
3.8567461063311859e-14
20
4.8047382312982721e-14
30
0
40
79.748391366097195
210
-0
220
0
230
1
100
AcDbArc
50
314.27419698475398
51
315.72580301524596
0
SPLINE
5
516
100
AcDbEntity
8
0
100
AcDbSpline
70
0
71
3
72
8
73
4
74
0
42
0.000000001
43
0.0000000001
44
0.0000000001
40
0
40
0
40
0
40
0
40
1
40
1
40
1
40
1
10
61.335429588150568
20
50.968333332739405
30
0
10
59.511428641885971
20
50.474404142570165
30
0
10
58.080575670104665
20
49.920753751954038
30
0
10
57.008189480336917
20
49.422755237156466
30
0
0
ARC
5
517
100
AcDbEntity
8
0
100
AcDbCircle
10
54.783491927560377
20
-50.280164257323833
30
0
40
0.40000000000006486
210
0
220
0
230
1
100
AcDbArc
50
137.45440640084135
51
214.69305504595823
0
ARC
5
518
100
AcDbEntity
8
0
100
AcDbCircle
10
3.4459377129598398e-12
20
2.4880633590005528e-12
30
0
40
73.959437232404596
210
0
220
-0
230
1
100
AcDbArc
50
35.454357773033287
51
36.545642226966102
0
SPLINE
5
519
100
AcDbEntity
8
0
100
AcDbSpline
70
0
71
3
72
8
73
4
74
0
42
0.000000001
43
0.0000000001
44
0.0000000001
40
0
40
0
40
0
40
0
40
1
40
1
40
1
40
1
10
67.397188291787899
20
31.208407849201556
30
0
10
67.677228384298743
20
31.421843281180507
30
0
10
67.991923646021192
20
31.676273771460252
30
0
10
68.337253168147782
20
31.977526991472523
30
0
0
SPLINE
5
520
100
AcDbEntity
8
0
100
AcDbSpline
70
0
71
3
72
8
73
4
74
0
42
0.000000001
43
0.0000000001
44
0.0000000001
40
0
40
0
40
0
40
0
40
1
40
1
40
1
40
1
10
-24.65916269515029
20
-71.305456300566348
30
0
10
-24.395656536066731
20
-70.930528993552088
30
0
10
-24.175514454739666
20
-70.590962437243107
30
0
10
-23.992520404912746
20
-70.290146355948508
30
0
0
SPLINE
5
521
100
AcDbEntity
8
0
100
AcDbSpline
70
0
71
3
72
8
73
4
74
0
42
0.000000001
43
0.0000000001
44
0.0000000001
40
0
40
0
40
0
40
0
40
1
40
1
40
1
40
1
10
60.195418522194814
20
45.486855156140237
30
0
10
60.905496200537293
20
46.432267421485385
30
0
10
61.744539062438335
20
47.716742434001134
30
0
10
62.606905835525907
20
49.398190930253762
30
0
0
SPLINE
5
522
100
AcDbEntity
8
0
100
AcDbSpline
70
0
71
3
72
8
73
4
74
0
42
0.000000001
43
0.0000000001
44
0.0000000001
40
0
40
0
40
0
40
0
40
1
40
1
40
1
40
1
10
68.289888273088394
20
-29.203370863136996
30
0
10
68.635885106843631
20
-29.268665028794171
30
0
10
69.035536040433271
20
-29.332281955908304
30
0
10
69.490481364578102
20
-29.387334053586933
30
0
0
ARC
5
523
100
AcDbEntity
8
0
100
AcDbCircle
10
3.9004229618733943e-12
20
3.1541903427806597e-12
30
0
40
73.959437232403829
210
0
220
-0
230
1
100
AcDbArc
50
41.454357773033458
51
42.545642226966955
0
SPLINE
5
524
100
AcDbEntity
8
0
100
AcDbSpline
70
0
71
3
72
8
73
4
74
0
42
0.000000001
43
0.0000000001
44
0.0000000001
40
0
40
0
40
0
40
0
40
1
40
1
40
1
40
1
10
62.606905835525914
20
-49.398190930253733
30
0
10
61.744539062438307
20
-47.716742434001148
30
0
10
60.905496200537257
20
-46.432267421485378
30
0
10
60.195418522194764
20
-45.486855156140294
30
0
0
ARC
5
525
100
AcDbEntity
8
0
100
AcDbCircle
10
72.878435988242515
20
14.766836947301005
30
0
40
0.4000000000000104
210
0
220
0
230
1
100
AcDbArc
50
191.45440640085681
51
268.69305504595724
0
SPLINE
5
526
100
AcDbEntity
8
0
100
AcDbSpline
70
0
71
3
72
8
73
4
74
0
42
0.000000001
43
0.0000000001
44
0.0000000001
40
0
40
0
40
0
40
0
40
1
40
1
40
1
40
1
10
-11.47663532883084
20
-78.918266371032573
30
0
10
-10.451641602464727
20
-77.330710590032808
30
0
10
-9.758775042050253
20
-75.961840650504641
30
0
10
-9.2950628423832296
20
-74.874189209727206
30
0
0
ARC
5
527
100
AcDbEntity
8
0
100
AcDbCircle
10
-16.152153589516704
20
-72.583977845948894
30
0
40
0.40000000000001135
210
0
220
-0
230
1
100
AcDbArc
50
77.45440640085566
51
154.69305504595576
0
ARC
5
528
100
AcDbEntity
8
0
100
AcDbCircle
10
2.4596700899222631e-13
20
-1.981444687277898e-13
30
0
40
79.748391366097209
210
0
220
-0
230
1
100
AcDbArc
50
50.274196984754397
51
51.725803015246008
0
ARC
5
529
100
AcDbEntity
8
0
100
AcDbCircle
10
-1.7134845913140255e-13
20
2.6533131280211554e-13
30
0
40
79.748391366097209
210
0
220
-0
230
1
100
AcDbArc
50
32.2741969847539
51
33.725803015245496
0
SPLINE
5
530
100
AcDbEntity
8
0
100
AcDbSpline
70
0
71
3
72
8
73
4
74
0
42
0.000000001
43
0.0000000001
44
0.0000000001
40
0
40
0
40
0
40
0
40
1
40
1
40
1
40
1
10
74.081917932306879
20
14.297266820229437
30
0
10
73.625468280318117
20
14.338006194542348
30
0
10
73.221323975615419
20
14.358871551259123
30
0
10
72.869312582433921
20
14.366941006503243
30
0
0
ARC
5
531
100
AcDbEntity
8
0
100
AcDbCircle
10
3.573490330875382e-12
20
-4.3069245239660454e-12
30
0
40
73.959437232403303
210
-0
220
0
230
1
100
AcDbArc
50
305.454357773033
51
306.54564222696604
0
ARC
5
532
100
AcDbEntity
8
0
100
AcDbCircle
10
72.583977845948894
20
16.152153589516637
30
0
40
0.4000000000000058
210
0
220
0
230
1
100
AcDbArc
50
115.30694495404263
51
192.54559359914333
0
SPLINE
5
533
100
AcDbEntity
8
0
100
AcDbSpline
70
0
71
3
72
8
73
4
74
0
42
0.000000001
43
0.0000000001
44
0.0000000001
40
0
40
0
40
0
40
0
40
1
40
1
40
1
40
1
10
49.42275523715648
20
57.008189480336924
30
0
10
49.920753751954109
20
58.080575670104665
30
0
10
50.474404142570108
20
59.511428641885942
30
0
10
50.968333332739419
20
61.335429588150625
30
0
0
SPLINE
5
534
100
AcDbEntity
8
0
100
AcDbSpline
70
0
71
3
72
8
73
4
74
0
42
0.000000001
43
0.0000000001
44
0.0000000001
40
0
40
0
40
0
40
0
40
1
40
1
40
1
40
1
10
57.008189480336917
20
49.422755237156466
30
0
10
56.592522799009743
20
49.229811744251393
30
0
10
56.232090885983993
20
49.04580952087575
30
0
10
55.92320534944524
20
48.876792177521182
30
0
0
SPLINE
5
535
100
AcDbEntity
8
0
100
AcDbSpline
70
0
71
3
72
8
73
4
74
0
42
0.000000001
43
0.0000000001
44
0.0000000001
40
0
40
0
40
0
40
0
40
1
40
1
40
1
40
1
10
55.671786128650012
20
57.100421668548663
30
0
10
53.9094069096288
20
56.418538258251999
30
0
10
52.544264524658232
20
55.718355960102919
30
0
10
51.529807998104971
20
55.110990652829983
30
0
0
ARC
5
536
100
AcDbEntity
8
0
100
AcDbCircle
10
2.7215908574795074e-13
20
-4.2301678983694662e-14
30
0
40
79.748391366097223
210
0
220
0
230
1
100
AcDbArc
50
260.27419698475393
51
261.72580301524567
0
SPLINE
5
537
100
AcDbEntity
8
0
100
AcDbSpline
70
0
71
3
72
8
73
4
74
0
42
0.000000001
43
0.0000000001
44
0.0000000001
40
0
40
0
40
0
40
0
40
1
40
1
40
1
40
1
10
51.529807998104992
20
-55.11099065282994
30
0
10
52.54426452465821
20
-55.718355960102883
30
0
10
53.909406909628849
20
-56.41853825825207
30
0
10
55.671786128650005
20
-57.100421668548684
30
0
0
ARC
5
538
100
AcDbEntity
8
0
100
AcDbCircle
10
49.227673924026533
20
55.731158480245533
30
0
40
0.40000000000001701
210
0
220
0
230
1
100
AcDbArc
50
151.30694495402912
51
228.54559359912628
0
SPLINE
5
539
100
AcDbEntity
8
0
100
AcDbSpline
70
0
71
3
72
8
73
4
74
0
42
0.000000001
43
0.0000000001
44
0.0000000001
40
0
40
0
40
0
40
0
40
1
40
1
40
1
40
1
10
57.008189480336924
20
-49.42275523715648
30
0
10
58.080575670104665
20
-49.920753751954109
30
0
10
59.511428641885942
20
-50.474404142570108
30
0
10
61.335429588150625
20
-50.968333332739419
30
0
0
SPLINE
5
540
100
AcDbEntity
8
0
100
AcDbSpline
70
0
71
3
72
8
73
4
74
0
42
0.000000001
43
0.0000000001
44
0.0000000001
40
0
40
0
40
0
40
0
40
1
40
1
40
1
40
1
10
59.43580518015915
20
44.53909263452708
30
0
10
59.665350003214684
20
44.806087599359579
30
0
10
59.920269345001188
20
45.120386996937292
30
0
10
60.195418522194814
20
45.486855156140237
30
0
0
SPLINE
5
541
100
AcDbEntity
8
0
100
AcDbSpline
70
0
71
3
72
8
73
4
74
0
42
0.000000001
43
0.0000000001
44
0.0000000001
40
0
40
0
40
0
40
0
40
1
40
1
40
1
40
1
10
-14.297266820229471
20
-74.081917932306808
30
0
10
-14.192353090207206
20
-75.259630872712066
30
0
10
-13.956401907405249
20
-76.775611090663205
30
0
10
-13.472156660630192
20
-78.602206841739786
30
0
0
SPLINE
5
542
100
AcDbEntity
8
0
100
AcDbSpline
70
0
71
3
72
8
73
4
74
0
42
0.000000001
43
0.0000000001
44
0.0000000001
40
0
40
0
40
0
40
0
40
1
40
1
40
1
40
1
10
37.102200090113833
20
-70.592015652999763
30
0
10
36.998295558608454
20
-68.705179850602548
30
0
10
36.754234818056673
20
-67.190484060416964
30
0
10
36.490080391562671
20
-66.037992368599191
30
0
0
ARC
5
543
100
AcDbEntity
8
0
100
AcDbCircle
10
2.7294802017033712e-12
20
4.0266684527670409e-12
30
0
40
73.959437232404014
210
0
220
-0
230
1
100
AcDbArc
50
53.454357773033138
51
54.545642226966613
0
ARC
5
544
100
AcDbEntity
8
0
100
AcDbCircle
10
59.739090529353106
20
44.278290032998044
30
0
40
0.40000000000002267
210
0
220
0
230
1
100
AcDbArc
50
139.30694495404643
51
216.5455935992625
0
SPLINE
5
545
100
AcDbEntity
8
0
100
AcDbSpline
70
0
71
3
72
8
73
4
74
0
42
0.000000001
43
0.0000000001
44
0.0000000001
40
0
40
0
40
0
40
0
40
1
40
1
40
1
40
1
10
42.763473279730668
20
60.725868154968133
30
0
10
42.899277397933695
20
61.050728707385034
30
0
10
43.044596243896116
20
61.428419606325903
30
0
10
43.19303377272827
20
61.861977308891653
30
0
0
SPLINE
5
546
100
AcDbEntity
8
0
100
AcDbSpline
70
0
71
3
72
8
73
4
74
0
42
0.000000001
43
0.0000000001
44
0.0000000001
40
0
40
0
40
0
40
0
40
1
40
1
40
1
40
1
10
72.412990867474576
20
16.513765886310047
30
0
10
72.731287133616476
20
16.664313632881111
30
0
10
73.092004622262223
20
16.847755382544754
30
0
10
73.492421932129943
20
17.070627452078469
30
0
0
ARC
5
547
100
AcDbEntity
8
0
100
AcDbCircle
10
37.791293597242792
20
-64.040175154097824
30
0
40
0.40000000000006636
210
0
220
-0
230
1
100
AcDbArc
50
43.306944954044042
51
120.54559359914376
0
ARC
5
548
100
AcDbEntity
8
0
100
AcDbCircle
10
67.639622218586098
20
30.89024784049964
30
0
40
0.40000000000000924
210
0
220
0
230
1
100
AcDbArc
50
127.30694495404647
51
204.54559359914094
0
ARC
5
549
100
AcDbEntity
8
0
100
AcDbCircle
10
64.748307874137367
20
36.564771747632363
30
0
40
0.4000000000000053
210
0
220
0
230
1
100
AcDbArc
50
209.45440640085809
51
286.69305504595627
0
ARC
5
550
100
AcDbEntity
8
0
100
AcDbCircle
10
2.4262875965011373e-13
20
1.5851903668218329e-13
30
0
40
79.748391366097223
210
-0
220
0
230
1
100
AcDbArc
50
302.27419698475393
51
303.72580301524602
0
ARC
5
551
100
AcDbEntity
8
0
100
AcDbCircle
10
43.132507223428107
20
60.571550468363078
30
0
40
0.40000000000000679
210
0
220
0
230
1
100
AcDbArc
50
157.30694495404401
51
234.54559359914342
0
SPLINE
5
552
100
AcDbEntity
8
0
100
AcDbSpline
70
0
71
3
72
8
73
4
74
0
42
0.000000001
43
0.0000000001
44
0.0000000001
40
0
40
0
40
0
40
0
40
1
40
1
40
1
40
1
10
63.765812528934049
20
38.082369446315298
30
0
10
64.022008454805416
20
38.32390781718918
30
0
10
64.308384554799702
20
38.609839122727195
30
0
10
64.620332789529286
20
38.945538810348509
30
0
0
ARC
5
553
100
AcDbEntity
8
0
100
AcDbCircle
10
4.0204541619215232e-12
20
1.517937149156798e-13
30
0
40
73.959437232404937
210
0
220
-0
230
1
100
AcDbArc
50
11.454357773033808
51
12.545642226967296
0
SPLINE
5
554
100
AcDbEntity
8
0
100
AcDbSpline
70
0
71
3
72
8
73
4
74
0
42
0.000000001
43
0.0000000001
44
0.0000000001
40
0
40
0
40
0
40
0
40
1
40
1
40
1
40
1
10
74.083541164356745
20
29.520075440778733
30
0
10
72.196180664903068
20
29.613968156031664
30
0
10
70.664271242587589
20
29.52957322901916
30
0
10
69.490481364577974
20
29.387334053586912
30
0
0
SPLINE
5
555
100
AcDbEntity
8
0
100
AcDbSpline
70
0
71
3
72
8
73
4
74
0
42
0.000000001
43
0.0000000001
44
0.0000000001
40
0
40
0
40
0
40
0
40
1
40
1
40
1
40
1
10
54.454606712088484
20
50.507836203430585
30
0
10
54.65498549121159
20
50.79736250951462
30
0
10
54.875655125136298
20
51.136586469160903
30
0
10
55.11099065282994
20
51.529807998104992
30
0
0
SPLINE
5
556
100
AcDbEntity
8
0
100
AcDbSpline
70
0
71
3
72
8
73
4
74
0
42
0.000000001
43
0.0000000001
44
0.0000000001
40
0
40
0
40
0
40
0
40
1
40
1
40
1
40
1
10
48.876792177521232
20
55.923205349445233
30
0
10
49.045809520875743
20
56.232090885984071
30
0
10
49.229811744251435
20
56.592522799009728
30
0
10
49.42275523715648
20
57.008189480336924
30
0
0
ARC
5
557
100
AcDbEntity
8
0
100
AcDbCircle
10
3.3700217132718075e-14
20
-4.4825164419192642e-14
30
0
40
79.748391366097209
210
0
220
-0
230
1
100
AcDbArc
50
38.274196984754205
51
39.725803015246107
0
ARC
5
558
100
AcDbEntity
8
0
100
AcDbCircle
10
2.4728622435128172e-12
20
3.1999658317877017e-12
30
0
40
73.959437232404795
210
0
220
-0
230
1
100
AcDbArc
50
47.454357773032982
51
48.545642226966599
0
SPLINE
5
559
100
AcDbEntity
8
0
100
AcDbSpline
70
0
71
3
72
8
73
4
74
0
42
0.000000001
43
0.0000000001
44
0.0000000001
40
0
40
0
40
0
40
0
40
1
40
1
40
1
40
1
10
68.337253168147768
20
-31.977526991472544
30
0
10
67.991923646021178
20
-31.676273771460227
30
0
10
67.677228384298743
20
-31.421843281180454
30
0
10
67.397188291787856
20
-31.208407849201571
30
0
0
SPLINE
5
560
100
AcDbEntity
8
0
100
AcDbSpline
70
0
71
3
72
8
73
4
74
0
42
0.000000001
43
0.0000000001
44
0.0000000001
40
0
40
0
40
0
40
0
40
1
40
1
40
1
40
1
10
68.337253168147782
20
31.977526991472523
30
0
10
69.228376208160796
20
32.75464627980805
30
0
10
70.316141342107571
20
33.836605611416431
30
0
10
71.509256132034466
20
35.302014289885705
30
0
0
SPLINE
5
561
100
AcDbEntity
8
0
100
AcDbSpline
70
0
71
3
72
8
73
4
74
0
42
0.000000001
43
0.0000000001
44
0.0000000001
40
0
40
0
40
0
40
0
40
1
40
1
40
1
40
1
10
66.037992368599191
20
36.490080391562671
30
0
10
65.591293793711884
20
36.387775139431795
30
0
10
65.200481969381613
20
36.282731814568969
30
0
10
64.863205641280388
20
36.181628819855298
30
0
0
SPLINE
5
562
100
AcDbEntity
8
0
100
AcDbSpline
70
0
71
3
72
8
73
4
74
0
42
0.000000001
43
0.0000000001
44
0.0000000001
40
0
40
0
40
0
40
0
40
1
40
1
40
1
40
1
10
71.305456300566405
20
24.659162695150314
30
0
10
72.272928760311885
20
25.338877120758035
30
0
10
73.46783054929125
20
26.301206948093
30
0
10
74.807586248780751
20
27.633873509000448
30
0
0
ARC
5
563
100
AcDbEntity
8
0
100
AcDbCircle
10
1.0276635744061945e-12
20
-1.56192431885757e-12
30
0
40
73.959437232406998
210
-0
220
0
230
1
100
AcDbArc
50
311.45435777303345
51
312.54564222696695
0
SPLINE
5
564
100
AcDbEntity
8
0
100
AcDbSpline
70
0
71
3
72
8
73
4
74
0
42
0.000000001
43
0.0000000001
44
0.0000000001
40
0
40
0
40
0
40
0
40
1
40
1
40
1
40
1
10
45.486855156140237
20
-60.195418522194814
30
0
10
46.432267421485385
20
-60.905496200537293
30
0
10
47.716742434001134
20
-61.744539062438442
30
0
10
49.398190930253762
20
-62.606905835525907
30
0
0
ARC
5
565
100
AcDbEntity
8
0
100
AcDbCircle
10
60.571550468363036
20
43.132507223428078
30
0
40
0.40000000000000591
210
0
220
0
230
1
100
AcDbArc
50
215.45440640085602
51
292.69305504595974
0
ARC
5
566
100
AcDbEntity
8
0
100
AcDbCircle
10
2.4482686981231734e-13
20
2.0046147714187538e-13
30
0
40
79.748391366097223
210
-0
220
0
230
1
100
AcDbArc
50
308.27419698475393
51
309.72580301524562
0
SPLINE
5
567
100
AcDbEntity
8
0
100
AcDbSpline
70
0
71
3
72
8
73
4
74
0
42
0.000000001
43
0.0000000001
44
0.0000000001
40
0
40
0
40
0
40
0
40
1
40
1
40
1
40
1
10
38.94553881034841
20
-64.620332789529286
30
0
10
39.811548679866092
20
-65.425343079304156
30
0
10
41.001283342896251
20
-66.394053775781231
30
0
10
42.583378814789583
20
-67.427455640831809
30
0
0
ARC
5
568
100
AcDbEntity
8
0
100
AcDbCircle
10
-8.2849521330361997e-14
20
3.1076189730295102e-13
30
0
40
79.748391366097195
210
0
220
-0
230
1
100
AcDbArc
50
14.274196984753901
51
15.725803015245775
0
SPLINE
5
569
100
AcDbEntity
8
0
100
AcDbSpline
70
0
71
3
72
8
73
4
74
0
42
0.000000001
43
0.0000000001
44
0.0000000001
40
0
40
0
40
0
40
0
40
1
40
1
40
1
40
1
10
38.082369446315298
20
-63.765812528934049
30
0
10
38.32390781718918
20
-64.022008454805416
30
0
10
38.609839122727195
20
-64.308384554799702
30
0
10
38.94553881034841
20
-64.620332789529286
30
0
0
SPLINE
5
570
100
AcDbEntity
8
0
100
AcDbSpline
70
0
71
3
72
8
73
4
74
0
42
0.000000001
43
0.0000000001
44
0.0000000001
40
0
40
0
40
0
40
0
40
1
40
1
40
1
40
1
10
44.277825271127099
20
-66.327069245819587
30
0
10
43.977261892654091
20
-64.461430708375502
30
0
10
43.576209319109452
20
-62.980543874367626
30
0
10
43.193033772728306
20
-61.861977308891682
30
0
0
SPLINE
5
571
100
AcDbEntity
8
0
100
AcDbSpline
70
0
71
3
72
8
73
4
74
0
42
0.000000001
43
0.0000000001
44
0.0000000001
40
0
40
0
40
0
40
0
40
1
40
1
40
1
40
1
10
49.398190930253733
20
62.606905835525914
30
0
10
47.716742434001148
20
61.74453906243842
30
0
10
46.432267421485378
20
60.90549620053735
30
0
10
45.486855156140294
20
60.195418522194764
30
0
0
SPLINE
5
572
100
AcDbEntity
8
0
100
AcDbSpline
70
0
71
3
72
8
73
4
74
0
42
0.000000001
43
0.0000000001
44
0.0000000001
40
0
40
0
40
0
40
0
40
1
40
1
40
1
40
1
10
70.29014635594848
20
23.992520404912771
30
0
10
70.590962437243135
20
24.175514454739666
30
0
10
70.93052899355213
20
24.395656536066728
30
0
10
71.305456300566405
20
24.659162695150314
30
0
0
ARC
5
573
100
AcDbEntity
8
0
100
AcDbCircle
10
-5.3103654740776386e-12
20
1.3167275844775875e-12
30
0
40
73.959437232403388
210
0
220
0
230
1
100
AcDbArc
50
167.45435777303297
51
168.54564222696703
0
ARC
5
574
100
AcDbEntity
8
0
100
AcDbCircle
10
-72.583977845948894
20
16.152153589516605
30
0
40
0.40000000000000391
210
-0
220
0
230
1
100
AcDbArc
50
-12.545593599069216
51
64.69305504595782
0
SPLINE
5
575
100
AcDbEntity
8
0
100
AcDbSpline
70
0
71
3
72
8
73
4
74
0
42
0.000000001
43
0.0000000001
44
0.0000000001
40
0
40
0
40
0
40
0
40
1
40
1
40
1
40
1
10
-44.277825271127199
20
66.327069245819587
30
0
10
-43.977261892654091
20
64.461430708375502
30
0
10
-43.576209319109545
20
62.980543874367633
30
0
10
-43.193033772728306
20
61.861977308891682
30
0
0
SPLINE
5
576
100
AcDbEntity
8
0
100
AcDbSpline
70
0
71
3
72
8
73
4
74
0
42
0.000000001
43
0.0000000001
44
0.0000000001
40
0
40
0
40
0
40
0
40
1
40
1
40
1
40
1
10
-31.977526991472523
20
68.337253168147782
30
0
10
-32.75464627980805
20
69.228376208160796
30
0
10
-33.836605611416431
20
70.316141342107571
30
0
10
-35.302014289885705
20
71.509256132034466
30
0
0
CIRCLE
5
577
100
AcDbEntity
8
0
100
AcDbCircle
10
0
20
0
30
0
40
3.3499999999999996
210
-0
220
0
230
1
0
SPLINE
5
578
100
AcDbEntity
8
0
100
AcDbSpline
70
0
71
3
72
8
73
4
74
0
42
0.000000001
43
0.0000000001
44
0.0000000001
40
0
40
0
40
0
40
0
40
1
40
1
40
1
40
1
10
-38.082369446315298
20
63.765812528934049
30
0
10
-38.32390781718918
20
64.022008454805416
30
0
10
-38.609839122727195
20
64.308384554799702
30
0
10
-38.94553881034841
20
64.620332789529286
30
0
0
SPLINE
5
579
100
AcDbEntity
8
0
100
AcDbSpline
70
0
71
3
72
8
73
4
74
0
42
0.000000001
43
0.0000000001
44
0.0000000001
40
0
40
0
40
0
40
0
40
1
40
1
40
1
40
1
10
-3.1645600121679953
20
-79.685578904903437
30
0
10
-2.3111260748213445
20
-77.999578901504691
30
0
10
-1.7651409811128305
20
-76.56578349792278
30
0
10
-1.4176595790698931
20
-75.435619201911109
30
0
0
SPLINE
5
580
100
AcDbEntity
8
0
100
AcDbSpline
70
0
71
3
72
8
73
4
74
0
42
0.000000001
43
0.0000000001
44
0.0000000001
40
0
40
0
40
0
40
0
40
1
40
1
40
1
40
1
10
-29.387334053586905
20
69.490481364578073
30
0
10
-29.332281955908325
20
69.035536040433286
30
0
10
-29.268665028794096
20
68.635885106843631
30
0
10
-29.203370863136939
20
68.289888273088394
30
0
0
LWPOLYLINE
5
581
100
AcDbEntity
8
0
100
AcDbPolyline
90
4
70
1
43
0.0
10
63.491409306164037
20
-28.268196693774875
42
0.42481166796660508
10
13.703181864641795
20
-6.1010496461435695
42
-0.023272583934254899
10
13.076844772438147
20
-7.3482059577638692
42
-0.29611525231191604
10
3.2032157566142532
20
-69.426143554262509
42
0.28371780524672469
0
LWPOLYLINE
5
582
100
AcDbEntity
8
0
100
AcDbPolyline
90
4
70
1
43
0.0
10
46.504577141948019
20
51.648565370673111
42
0.42481166796660497
10
10.03695909538993
20
11.147172382154803
42
-0.02327258393425612
10
11.029526426696741
20
10.166097914284435
42
-0.29611525231191599
10
67.018034333967492
20
-18.407418993761322
42
0.28371780524672546
0
LWPOLYLINE
5
583
100
AcDbEntity
8
0
100
AcDbPolyline
90
4
70
1
43
0.0
10
-34.749999999992241
20
60.188765563016943
42
0.42481166796660519
10
-7.4999999999920108
20
12.990381056764617
42
-0.02327258393425612
10
-6.2602225609179563
20
13.631200001746343
42
-0.29611525231191599
10
38.216207320991508
20
58.049732970952874
42
0.28371780524672546
0
LWPOLYLINE
5
584
100
AcDbEntity
8
0
100
AcDbPolyline
90
4
70
1
43
0.0
10
-67.981258250995666
20
-14.449862511834173
42
0.42481166796660502
10
-14.672214011002755
20
-3.1186753622661745
42
-0.02327258393425612
10
-14.898556746476501
20
-1.7415530057622952
42
-0.29611525231191599
10
-43.399119288475745
20
54.284127007660899
42
0.28371780524672452
0
LWPOLYLINE
5
585
100
AcDbEntity
8
0
100
AcDbPolyline
90
4
70
1
43
0.0
10
-7.2647281971008715
20
-69.119271728098141
42
0.42481166796660524
10
-1.567926949013668
20
-14.917828430526693
42
-0.02327258393425612
10
-2.9475918917171828
20
-14.707538952521716
42
-0.29611525231191599
10
-65.038338123074254
20
-24.500297430607063
42
0.28371780524672402
0
ENDSEC
0
SECTION
2
OBJECTS
0
DICTIONARY
5
C
100
AcDbDictionary
3
ACAD_GROUP
350
D
3
ACAD_MLINESTYLE
350
17
0
DICTIONARY
5
D
100
AcDbDictionary
0
DICTIONARY
5
1A
330
C
100
AcDbDictionary
0
DICTIONARY
5
17
100
AcDbDictionary
0
ENDSEC
0
EOF
