%TF.GenerationSoftware,KiCad,Pcbnew,(5.1.6)-1*%
%TF.CreationDate,2022-12-12T10:29:10-05:00*%
%TF.ProjectId,pcb,7063622e-6b69-4636-9164-5f7063625858,rev?*%
%TF.SameCoordinates,Original*%
%TF.FileFunction,Copper,L2,Bot*%
%TF.FilePolarity,Positive*%
%FSLAX46Y46*%
G04 Gerber Fmt 4.6, Leading zero omitted, Abs format (unit mm)*
G04 Created by KiCad (PCBNEW (5.1.6)-1) date 2022-12-12 10:29:10*
%MOMM*%
%LPD*%
G01*
G04 APERTURE LIST*
%TA.AperFunction,ComponentPad*%
%ADD10C,2.200000*%
%TD*%
%TA.AperFunction,ComponentPad*%
%ADD11C,2.000000*%
%TD*%
%TA.AperFunction,ViaPad*%
%ADD12C,3.100000*%
%TD*%
%TA.AperFunction,ViaPad*%
%ADD13C,2.200000*%
%TD*%
%TA.AperFunction,Conductor*%
%ADD14C,2.200000*%
%TD*%
%TA.AperFunction,Conductor*%
%ADD15C,1.500000*%
%TD*%
%TA.AperFunction,Conductor*%
%ADD16C,0.300000*%
%TD*%
G04 APERTURE END LIST*
D10*
%TO.P,C1,1*%
%TO.N,+3V3*%
X40640000Y30480000D03*
%TO.P,C1,2*%
%TO.N,Net-(C1-Pad2)*%
X38100000Y30480000D03*
%TD*%
%TO.P,C2,2*%
%TO.N,GND*%
X6350000Y25400000D03*
%TO.P,C2,1*%
%TO.N,+5V*%
X6350000Y27940000D03*
%TD*%
%TO.P,J1,1*%
%TO.N,+5V*%
X44450000Y81280000D03*
%TO.P,J1,2*%
%TO.N,GND*%
X44450000Y78740000D03*
%TD*%
%TO.P,J2,2*%
%TO.N,OA2*%
X44450000Y15240000D03*
%TO.P,J2,1*%
%TO.N,OA1*%
X44450000Y12700000D03*
%TD*%
%TO.P,J3,1*%
%TO.N,OB1*%
X5080000Y12700000D03*
%TO.P,J3,2*%
%TO.N,OB2*%
X5080000Y15240000D03*
%TD*%
%TO.P,J4,1*%
%TO.N,GND*%
X44450000Y53340000D03*
%TO.P,J4,2*%
%TO.N,hall1*%
X44450000Y50800000D03*
%TO.P,J4,3*%
%TO.N,hall2*%
X44450000Y48260000D03*
%TO.P,J4,4*%
%TO.N,hall3*%
X44450000Y45720000D03*
%TO.P,J4,5*%
%TO.N,+3V3*%
X44450000Y43180000D03*
%TD*%
%TO.P,J6,1*%
%TO.N,GND*%
X5080000Y35560000D03*
%TO.P,J6,2*%
%TO.N,LED*%
X5080000Y38100000D03*
%TO.P,J6,3*%
%TO.N,+5V*%
X5080000Y40640000D03*
%TD*%
%TO.P,R1,1*%
%TO.N,EN*%
X33020000Y63500000D03*
%TO.P,R1,2*%
%TO.N,GND*%
X33020000Y71120000D03*
%TD*%
D11*
%TO.P,SW1,*%
%TO.N,*%
X7270000Y59100000D03*
D10*
%TO.P,SW1,2*%
%TO.N,SW*%
X5080000Y57840000D03*
%TO.P,SW1,1*%
%TO.N,GND*%
X5080000Y53340000D03*
D11*
%TO.P,SW1,*%
%TO.N,*%
X7270000Y52090000D03*
X7870000Y59100000D03*
X7870000Y52090000D03*
%TD*%
D10*
%TO.P,U1,1*%
%TO.N,EN*%
X27940000Y5080000D03*
%TO.P,U1,9*%
X20320000Y22860000D03*
%TO.P,U1,2*%
%TO.N,I1*%
X27940000Y7620000D03*
%TO.P,U1,10*%
%TO.N,I2*%
X20320000Y20320000D03*
%TO.P,U1,3*%
%TO.N,OA1*%
X27940000Y10160000D03*
%TO.P,U1,11*%
%TO.N,OB2*%
X20320000Y17780000D03*
%TO.P,U1,4*%
%TO.N,GND*%
X27940000Y12700000D03*
%TO.P,U1,12*%
X20320000Y15240000D03*
%TO.P,U1,5*%
X27940000Y15240000D03*
%TO.P,U1,13*%
X20320000Y12700000D03*
%TO.P,U1,6*%
%TO.N,OA2*%
X27940000Y17780000D03*
%TO.P,U1,14*%
%TO.N,OB1*%
X20320000Y10160000D03*
%TO.P,U1,7*%
%TO.N,I2*%
X27940000Y20320000D03*
%TO.P,U1,15*%
%TO.N,I1*%
X20320000Y7620000D03*
%TO.P,U1,8*%
%TO.N,+5V*%
X27940000Y22860000D03*
%TO.P,U1,16*%
X20320000Y5080000D03*
%TD*%
%TO.P,U2,1*%
%TO.N,+5V*%
X38100000Y81280000D03*
%TO.P,U2,2*%
%TO.N,Net-(U2-Pad2)*%
X38100000Y78740000D03*
%TO.P,U2,3*%
%TO.N,Net-(U2-Pad3)*%
X38100000Y76200000D03*
%TO.P,U2,4*%
%TO.N,Net-(U2-Pad4)*%
X38100000Y73660000D03*
%TO.P,U2,5*%
%TO.N,Net-(U2-Pad5)*%
X38100000Y71120000D03*
%TO.P,U2,6*%
%TO.N,GND*%
X38100000Y68580000D03*
%TO.P,U2,7*%
%TO.N,Net-(U2-Pad7)*%
X38100000Y66040000D03*
%TO.P,U2,8*%
%TO.N,Net-(U2-Pad8)*%
X38100000Y63500000D03*
%TO.P,U2,9*%
%TO.N,EN*%
X38100000Y60960000D03*
%TO.P,U2,10*%
%TO.N,I2*%
X38100000Y58420000D03*
%TO.P,U2,11*%
%TO.N,I1*%
X38100000Y55880000D03*
%TO.P,U2,12*%
%TO.N,Net-(U2-Pad12)*%
X38100000Y53340000D03*
%TO.P,U2,13*%
%TO.N,hall1*%
X38100000Y50800000D03*
%TO.P,U2,14*%
%TO.N,hall2*%
X38100000Y48260000D03*
%TO.P,U2,15*%
%TO.N,hall3*%
X38100000Y45720000D03*
%TO.P,U2,16*%
%TO.N,Net-(U2-Pad16)*%
X38100000Y43180000D03*
%TO.P,U2,17*%
%TO.N,Net-(U2-Pad17)*%
X38100000Y40640000D03*
%TO.P,U2,18*%
%TO.N,Net-(C1-Pad2)*%
X38100000Y38100000D03*
%TO.P,U2,19*%
%TO.N,+3V3*%
X38100000Y35560000D03*
%TO.P,U2,20*%
%TO.N,GND*%
X12700000Y35560000D03*
%TO.P,U2,21*%
%TO.N,Net-(U2-Pad21)*%
X12700000Y38100000D03*
%TO.P,U2,22*%
%TO.N,LED*%
X12700000Y40640000D03*
%TO.P,U2,23*%
%TO.N,Net-(U2-Pad23)*%
X12700000Y43180000D03*
%TO.P,U2,24*%
%TO.N,Net-(U2-Pad24)*%
X12700000Y45720000D03*
%TO.P,U2,25*%
%TO.N,Net-(U2-Pad25)*%
X12700000Y48260000D03*
%TO.P,U2,26*%
%TO.N,GND*%
X12700000Y50800000D03*
%TO.P,U2,27*%
%TO.N,Net-(U2-Pad27)*%
X12700000Y53340000D03*
%TO.P,U2,28*%
%TO.N,SW*%
X12700000Y55880000D03*
%TO.P,U2,29*%
%TO.N,Net-(U2-Pad29)*%
X12700000Y58420000D03*
%TO.P,U2,30*%
%TO.N,Net-(U2-Pad30)*%
X12700000Y60960000D03*
%TO.P,U2,31*%
%TO.N,Net-(U2-Pad31)*%
X12700000Y63500000D03*
%TO.P,U2,32*%
%TO.N,Net-(U2-Pad32)*%
X12700000Y66040000D03*
%TO.P,U2,33*%
%TO.N,Net-(U2-Pad33)*%
X12700000Y68580000D03*
%TO.P,U2,34*%
%TO.N,Net-(U2-Pad34)*%
X12700000Y71120000D03*
%TO.P,U2,35*%
%TO.N,Net-(U2-Pad35)*%
X12700000Y73660000D03*
%TO.P,U2,36*%
%TO.N,Net-(U2-Pad36)*%
X12700000Y76200000D03*
%TO.P,U2,37*%
%TO.N,Net-(U2-Pad37)*%
X12700000Y78740000D03*
%TO.P,U2,38*%
%TO.N,Net-(U2-Pad38)*%
X12700000Y81280000D03*
%TD*%
D12*
%TO.N,*%
X5080000Y69850000D03*
X44450000Y69850000D03*
X5080000Y5080000D03*
X44450000Y5080000D03*
D13*
%TO.N,+5V*%
X7620000Y40640000D03*
X12700000Y27940000D03*
X20320000Y27940000D03*
X27940000Y27940000D03*
X17780000Y5080000D03*
X17780000Y27940000D03*
%TO.N,OA2*%
X36830000Y17780000D03*
X44450000Y17780000D03*
%TO.N,EN*%
X20320000Y25400000D03*
X30480000Y25400000D03*
X30480000Y20320000D03*
X30480000Y5080000D03*
%TO.N,I1*%
X33020000Y20320000D03*
X33020000Y7620000D03*
%TO.N,I2*%
X25400000Y58420000D03*
X33020000Y58420000D03*
%TD*%
D14*
%TO.N,+5V*%
X5080000Y40640000D02*
X7620000Y40640000D01*
X7620000Y40640000D02*
X7620000Y40640000D01*
X44450000Y81280000D02*
X38100000Y81280000D01*
X6350000Y27940000D02*
X12700000Y27940000D01*
X12700000Y27940000D02*
X16510000Y27940000D01*
X27940000Y22860000D02*
X27940000Y27940000D01*
X27940000Y81280000D02*
X38100000Y81280000D01*
X16510000Y27940000D02*
X17780000Y27940000D01*
X20320000Y27940000D02*
X20320000Y27940000D01*
X27940000Y27940000D02*
X27940000Y81280000D01*
X20320000Y5080000D02*
X17780000Y5080000D01*
X17780000Y5080000D02*
X17780000Y5080000D01*
X17780000Y27940000D02*
X20320000Y27940000D01*
%TO.N,+3V3*%
X38100000Y35560000D02*
X40640000Y35560000D01*
X40640000Y35560000D02*
X40640000Y30480000D01*
X40640000Y35560000D02*
X44450000Y39370000D01*
X44450000Y39370000D02*
X44450000Y43180000D01*
%TO.N,OA2*%
X44450000Y15240000D02*
X44450000Y17780000D01*
X27940000Y17780000D02*
X36830000Y17780000D01*
X36830000Y17780000D02*
X36830000Y17780000D01*
X44450000Y17780000D02*
X44450000Y17780000D01*
%TO.N,OA1*%
X44450000Y10160000D02*
X44450000Y12700000D01*
X27940000Y10160000D02*
X44450000Y10160000D01*
%TO.N,hall1*%
X38100000Y50800000D02*
X44450000Y50800000D01*
%TO.N,hall2*%
X38100000Y48260000D02*
X44450000Y48260000D01*
%TO.N,hall3*%
X38100000Y45720000D02*
X44450000Y45720000D01*
%TO.N,LED*%
X11144366Y40640000D02*
X8604366Y38100000D01*
X12700000Y40640000D02*
X11144366Y40640000D01*
X8604366Y38100000D02*
X6350000Y38100000D01*
X6350000Y38100000D02*
X5080000Y38100000D01*
D15*
%TO.N,SW*%
X12700000Y55880000D02*
X7620000Y55880000D01*
X7620000Y55880000D02*
X6350000Y55880000D01*
X6350000Y55880000D02*
X5080000Y57150000D01*
X5080000Y57150000D02*
X5080000Y58420000D01*
D14*
%TO.N,Net-(C1-Pad2)*%
X36544366Y38100000D02*
X35560000Y37115634D01*
X38100000Y38100000D02*
X36544366Y38100000D01*
X35560000Y37115634D02*
X35560000Y30480000D01*
X35560000Y30480000D02*
X38100000Y30480000D01*
%TO.N,OB1*%
X7620000Y10160000D02*
X5080000Y12700000D01*
X20320000Y10160000D02*
X7620000Y10160000D01*
%TO.N,OB2*%
X7620000Y17780000D02*
X5080000Y15240000D01*
X20320000Y17780000D02*
X7620000Y17780000D01*
%TO.N,EN*%
X33020000Y63500000D02*
X33020000Y60960000D01*
X27940000Y5080000D02*
X30480000Y5080000D01*
X20320000Y22860000D02*
X20320000Y25400000D01*
X38100000Y60960000D02*
X30480000Y60960000D01*
X30480000Y60960000D02*
X30480000Y25400000D01*
X30480000Y22860000D02*
X30480000Y20320000D01*
X20320000Y25400000D02*
X20320000Y25400000D01*
X30480000Y25400000D02*
X30480000Y22860000D01*
X30480000Y20320000D02*
X30480000Y20320000D01*
X30480000Y5080000D02*
X30480000Y5080000D01*
%TO.N,I1*%
X27940000Y7620000D02*
X20320000Y7620000D01*
X27940000Y7620000D02*
X33020000Y7620000D01*
X38100000Y55880000D02*
X33020000Y55880000D01*
X33020000Y55880000D02*
X33020000Y20320000D01*
X33020000Y20320000D02*
X33020000Y20320000D01*
X33020000Y7620000D02*
X33020000Y7620000D01*
%TO.N,I2*%
X38100000Y58420000D02*
X33020000Y58420000D01*
X25400000Y20320000D02*
X25400000Y58420000D01*
X25400000Y20320000D02*
X20320000Y20320000D01*
X27940000Y20320000D02*
X25400000Y20320000D01*
X25400000Y58420000D02*
X25400000Y58420000D01*
X33020000Y58420000D02*
X33020000Y58420000D01*
%TD*%
D16*
%TO.N,GND*%
G36*
X49055001Y475000D02*
G01*
X475000Y475000D01*
X475000Y5276983D01*
X3080000Y5276983D01*
X3080000Y4883017D01*
X3156859Y4496622D01*
X3307623Y4132645D01*
X3526499Y3805074D01*
X3805074Y3526499D01*
X4132645Y3307623D01*
X4496622Y3156859D01*
X4883017Y3080000D01*
X5276983Y3080000D01*
X5663378Y3156859D01*
X6027355Y3307623D01*
X6354926Y3526499D01*
X6633501Y3805074D01*
X6852377Y4132645D01*
X7003141Y4496622D01*
X7080000Y4883017D01*
X7080000Y5276983D01*
X7003141Y5663378D01*
X6852377Y6027355D01*
X6633501Y6354926D01*
X6354926Y6633501D01*
X6027355Y6852377D01*
X5663378Y7003141D01*
X5276983Y7080000D01*
X4883017Y7080000D01*
X4496622Y7003141D01*
X4132645Y6852377D01*
X3805074Y6633501D01*
X3526499Y6354926D01*
X3307623Y6027355D01*
X3156859Y5663378D01*
X3080000Y5276983D01*
X475000Y5276983D01*
X475000Y15240000D01*
X3522502Y15240000D01*
X3530000Y15163872D01*
X3530000Y15087338D01*
X3544931Y15012272D01*
X3552429Y14936148D01*
X3574633Y14862950D01*
X3589565Y14787882D01*
X3618854Y14717173D01*
X3641059Y14643972D01*
X3677121Y14576503D01*
X3706408Y14505800D01*
X3748923Y14442171D01*
X3784987Y14374700D01*
X3833519Y14315563D01*
X3876036Y14251932D01*
X3930152Y14197816D01*
X3978682Y14138682D01*
X4037816Y14090152D01*
X4091932Y14036036D01*
X4155563Y13993519D01*
X4184222Y13970000D01*
X4155563Y13946481D01*
X4091932Y13903964D01*
X4037816Y13849848D01*
X3978682Y13801318D01*
X3930152Y13742184D01*
X3876036Y13688068D01*
X3833519Y13624437D01*
X3784987Y13565300D01*
X3748923Y13497829D01*
X3706408Y13434200D01*
X3677121Y13363497D01*
X3641059Y13296028D01*
X3618854Y13222827D01*
X3589565Y13152118D01*
X3574633Y13077050D01*
X3552429Y13003852D01*
X3544931Y12927728D01*
X3530000Y12852662D01*
X3530000Y12776128D01*
X3522502Y12700000D01*
X3530000Y12623872D01*
X3530000Y12547338D01*
X3544931Y12472272D01*
X3552429Y12396148D01*
X3574633Y12322950D01*
X3589565Y12247882D01*
X3618854Y12177173D01*
X3641059Y12103972D01*
X3677121Y12036503D01*
X3706408Y11965800D01*
X3748923Y11902171D01*
X3784987Y11834700D01*
X3833518Y11775565D01*
X3876036Y11711932D01*
X4091932Y11496036D01*
X4091938Y11496032D01*
X6470147Y9117822D01*
X6518682Y9058682D01*
X6754700Y8864987D01*
X7023971Y8721059D01*
X7316147Y8632428D01*
X7543862Y8610000D01*
X7543871Y8610000D01*
X7619999Y8602502D01*
X7696127Y8610000D01*
X19117968Y8610000D01*
X19116036Y8608068D01*
X19073519Y8544437D01*
X19024987Y8485300D01*
X18988922Y8417828D01*
X18946408Y8354200D01*
X18917123Y8283500D01*
X18881059Y8216029D01*
X18858852Y8142822D01*
X18829565Y8072118D01*
X18814635Y7997060D01*
X18792428Y7923853D01*
X18784929Y7847717D01*
X18770000Y7772662D01*
X18770000Y7696138D01*
X18762501Y7620000D01*
X18770000Y7543862D01*
X18770000Y7467338D01*
X18784929Y7392283D01*
X18792428Y7316147D01*
X18814635Y7242940D01*
X18829565Y7167882D01*
X18858852Y7097178D01*
X18881059Y7023971D01*
X18917123Y6956500D01*
X18946408Y6885800D01*
X18988922Y6822172D01*
X19024987Y6754700D01*
X19073519Y6695563D01*
X19116036Y6631932D01*
X19117968Y6630000D01*
X17627338Y6630000D01*
X17552283Y6615071D01*
X17476147Y6607572D01*
X17402940Y6585365D01*
X17327882Y6570435D01*
X17257178Y6541148D01*
X17183971Y6518941D01*
X17116500Y6482877D01*
X17045800Y6453592D01*
X16982172Y6411078D01*
X16914700Y6375013D01*
X16855563Y6326481D01*
X16791932Y6283964D01*
X16737816Y6229848D01*
X16678682Y6181318D01*
X16630152Y6122184D01*
X16576036Y6068068D01*
X16533519Y6004437D01*
X16484987Y5945300D01*
X16448922Y5877828D01*
X16406408Y5814200D01*
X16377123Y5743500D01*
X16341059Y5676029D01*
X16318852Y5602822D01*
X16289565Y5532118D01*
X16274635Y5457060D01*
X16252428Y5383853D01*
X16244929Y5307717D01*
X16230000Y5232662D01*
X16230000Y5156138D01*
X16222501Y5080000D01*
X16230000Y5003862D01*
X16230000Y4927338D01*
X16244929Y4852283D01*
X16252428Y4776147D01*
X16274635Y4702940D01*
X16289565Y4627882D01*
X16318852Y4557178D01*
X16341059Y4483971D01*
X16377123Y4416500D01*
X16406408Y4345800D01*
X16448922Y4282172D01*
X16484987Y4214700D01*
X16533519Y4155563D01*
X16576036Y4091932D01*
X16630152Y4037816D01*
X16678682Y3978682D01*
X16737816Y3930152D01*
X16791932Y3876036D01*
X16855563Y3833519D01*
X16914700Y3784987D01*
X16982172Y3748922D01*
X17045800Y3706408D01*
X17116500Y3677123D01*
X17183971Y3641059D01*
X17257178Y3618852D01*
X17327882Y3589565D01*
X17402940Y3574635D01*
X17476147Y3552428D01*
X17552283Y3544929D01*
X17627338Y3530000D01*
X20472662Y3530000D01*
X20547717Y3544929D01*
X20623853Y3552428D01*
X20697060Y3574635D01*
X20772118Y3589565D01*
X20842822Y3618852D01*
X20916029Y3641059D01*
X20983500Y3677123D01*
X21054200Y3706408D01*
X21117828Y3748922D01*
X21185300Y3784987D01*
X21244437Y3833519D01*
X21308068Y3876036D01*
X21362184Y3930152D01*
X21421318Y3978682D01*
X21469848Y4037816D01*
X21523964Y4091932D01*
X21566481Y4155563D01*
X21615013Y4214700D01*
X21651078Y4282172D01*
X21693592Y4345800D01*
X21722877Y4416500D01*
X21758941Y4483971D01*
X21781148Y4557178D01*
X21810435Y4627882D01*
X21825365Y4702940D01*
X21847572Y4776147D01*
X21855071Y4852283D01*
X21870000Y4927338D01*
X21870000Y5003862D01*
X21877499Y5080000D01*
X21870000Y5156138D01*
X21870000Y5232662D01*
X21855071Y5307717D01*
X21847572Y5383853D01*
X21825365Y5457060D01*
X21810435Y5532118D01*
X21781148Y5602822D01*
X21758941Y5676029D01*
X21722877Y5743500D01*
X21693592Y5814200D01*
X21651078Y5877828D01*
X21615013Y5945300D01*
X21566481Y6004437D01*
X21523964Y6068068D01*
X21522032Y6070000D01*
X26737968Y6070000D01*
X26736036Y6068068D01*
X26693519Y6004437D01*
X26644987Y5945300D01*
X26608922Y5877828D01*
X26566408Y5814200D01*
X26537123Y5743500D01*
X26501059Y5676029D01*
X26478852Y5602822D01*
X26449565Y5532118D01*
X26434635Y5457060D01*
X26412428Y5383853D01*
X26404929Y5307717D01*
X26390000Y5232662D01*
X26390000Y5156138D01*
X26382501Y5080000D01*
X26390000Y5003862D01*
X26390000Y4927338D01*
X26404929Y4852283D01*
X26412428Y4776147D01*
X26434635Y4702940D01*
X26449565Y4627882D01*
X26478852Y4557178D01*
X26501059Y4483971D01*
X26537123Y4416500D01*
X26566408Y4345800D01*
X26608922Y4282172D01*
X26644987Y4214700D01*
X26693519Y4155563D01*
X26736036Y4091932D01*
X26790152Y4037816D01*
X26838682Y3978682D01*
X26897816Y3930152D01*
X26951932Y3876036D01*
X27015563Y3833519D01*
X27074700Y3784987D01*
X27142172Y3748922D01*
X27205800Y3706408D01*
X27276500Y3677123D01*
X27343971Y3641059D01*
X27417178Y3618852D01*
X27487882Y3589565D01*
X27562940Y3574635D01*
X27636147Y3552428D01*
X27712283Y3544929D01*
X27787338Y3530000D01*
X30632662Y3530000D01*
X30707717Y3544929D01*
X30783853Y3552428D01*
X30857060Y3574635D01*
X30932118Y3589565D01*
X31002822Y3618852D01*
X31076029Y3641059D01*
X31143500Y3677123D01*
X31214200Y3706408D01*
X31277828Y3748922D01*
X31345300Y3784987D01*
X31404437Y3833519D01*
X31468068Y3876036D01*
X31522184Y3930152D01*
X31581318Y3978682D01*
X31629848Y4037816D01*
X31683964Y4091932D01*
X31726481Y4155563D01*
X31775013Y4214700D01*
X31811078Y4282172D01*
X31853592Y4345800D01*
X31882877Y4416500D01*
X31918941Y4483971D01*
X31941148Y4557178D01*
X31970435Y4627882D01*
X31985365Y4702940D01*
X32007572Y4776147D01*
X32015071Y4852283D01*
X32030000Y4927338D01*
X32030000Y5003862D01*
X32037499Y5080000D01*
X32030000Y5156138D01*
X32030000Y5232662D01*
X32021185Y5276983D01*
X42450000Y5276983D01*
X42450000Y4883017D01*
X42526859Y4496622D01*
X42677623Y4132645D01*
X42896499Y3805074D01*
X43175074Y3526499D01*
X43502645Y3307623D01*
X43866622Y3156859D01*
X44253017Y3080000D01*
X44646983Y3080000D01*
X45033378Y3156859D01*
X45397355Y3307623D01*
X45724926Y3526499D01*
X46003501Y3805074D01*
X46222377Y4132645D01*
X46373141Y4496622D01*
X46450000Y4883017D01*
X46450000Y5276983D01*
X46373141Y5663378D01*
X46222377Y6027355D01*
X46003501Y6354926D01*
X45724926Y6633501D01*
X45397355Y6852377D01*
X45033378Y7003141D01*
X44646983Y7080000D01*
X44253017Y7080000D01*
X43866622Y7003141D01*
X43502645Y6852377D01*
X43175074Y6633501D01*
X42896499Y6354926D01*
X42677623Y6027355D01*
X42526859Y5663378D01*
X42450000Y5276983D01*
X32021185Y5276983D01*
X32015071Y5307717D01*
X32007572Y5383853D01*
X31985365Y5457060D01*
X31970435Y5532118D01*
X31941148Y5602822D01*
X31918941Y5676029D01*
X31882877Y5743500D01*
X31853592Y5814200D01*
X31811078Y5877828D01*
X31775013Y5945300D01*
X31726481Y6004437D01*
X31683964Y6068068D01*
X31682032Y6070000D01*
X33172662Y6070000D01*
X33247717Y6084929D01*
X33323853Y6092428D01*
X33397060Y6114635D01*
X33472118Y6129565D01*
X33542822Y6158852D01*
X33616029Y6181059D01*
X33683500Y6217123D01*
X33754200Y6246408D01*
X33817828Y6288922D01*
X33885300Y6324987D01*
X33944437Y6373519D01*
X34008068Y6416036D01*
X34062184Y6470152D01*
X34121318Y6518682D01*
X34169848Y6577816D01*
X34223964Y6631932D01*
X34266481Y6695563D01*
X34315013Y6754700D01*
X34351078Y6822172D01*
X34393592Y6885800D01*
X34422877Y6956500D01*
X34458941Y7023971D01*
X34481148Y7097178D01*
X34510435Y7167882D01*
X34525365Y7242940D01*
X34547572Y7316147D01*
X34555071Y7392283D01*
X34570000Y7467338D01*
X34570000Y7543862D01*
X34577499Y7620000D01*
X34570000Y7696138D01*
X34570000Y7772662D01*
X34555071Y7847717D01*
X34547572Y7923853D01*
X34525365Y7997060D01*
X34510435Y8072118D01*
X34481148Y8142822D01*
X34458941Y8216029D01*
X34422877Y8283500D01*
X34393592Y8354200D01*
X34351078Y8417828D01*
X34315013Y8485300D01*
X34266481Y8544437D01*
X34223964Y8608068D01*
X34222032Y8610000D01*
X44373862Y8610000D01*
X44450000Y8602501D01*
X44526138Y8610000D01*
X44753853Y8632428D01*
X45046029Y8721059D01*
X45315300Y8864987D01*
X45551318Y9058682D01*
X45745013Y9294700D01*
X45888941Y9563971D01*
X45977572Y9856147D01*
X46007499Y10160000D01*
X46000000Y10236138D01*
X46000000Y12852662D01*
X45985071Y12927717D01*
X45977572Y13003853D01*
X45955365Y13077060D01*
X45940435Y13152118D01*
X45911148Y13222822D01*
X45888941Y13296029D01*
X45852877Y13363500D01*
X45823592Y13434200D01*
X45781078Y13497828D01*
X45745013Y13565300D01*
X45696481Y13624437D01*
X45653964Y13688068D01*
X45599848Y13742184D01*
X45551318Y13801318D01*
X45492184Y13849848D01*
X45438068Y13903964D01*
X45374437Y13946481D01*
X45345778Y13970000D01*
X45374433Y13993516D01*
X45438068Y14036036D01*
X45492185Y14090153D01*
X45551318Y14138682D01*
X45599848Y14197816D01*
X45653964Y14251932D01*
X45696481Y14315563D01*
X45745013Y14374700D01*
X45781078Y14442172D01*
X45823592Y14505800D01*
X45852877Y14576500D01*
X45888941Y14643971D01*
X45911148Y14717178D01*
X45940435Y14787882D01*
X45955365Y14862940D01*
X45977572Y14936147D01*
X45985071Y15012283D01*
X46000000Y15087338D01*
X46000000Y17703862D01*
X46007499Y17780000D01*
X46000000Y17856138D01*
X46000000Y17932662D01*
X45985071Y18007717D01*
X45977572Y18083853D01*
X45955365Y18157060D01*
X45940435Y18232118D01*
X45911148Y18302822D01*
X45888941Y18376029D01*
X45852877Y18443500D01*
X45823592Y18514200D01*
X45781078Y18577828D01*
X45745013Y18645300D01*
X45696481Y18704437D01*
X45653964Y18768068D01*
X45599848Y18822184D01*
X45551318Y18881318D01*
X45492184Y18929848D01*
X45438068Y18983964D01*
X45374437Y19026481D01*
X45315300Y19075013D01*
X45247828Y19111078D01*
X45184200Y19153592D01*
X45113500Y19182877D01*
X45046029Y19218941D01*
X44972822Y19241148D01*
X44902118Y19270435D01*
X44827060Y19285365D01*
X44753853Y19307572D01*
X44677717Y19315071D01*
X44602662Y19330000D01*
X44526138Y19330000D01*
X44450000Y19337499D01*
X44373862Y19330000D01*
X44297338Y19330000D01*
X44222283Y19315071D01*
X44146147Y19307572D01*
X44072940Y19285365D01*
X43997882Y19270435D01*
X43927178Y19241148D01*
X43853971Y19218941D01*
X43786500Y19182877D01*
X43715800Y19153592D01*
X43652172Y19111078D01*
X43584700Y19075013D01*
X43525563Y19026481D01*
X43461932Y18983964D01*
X43407816Y18929848D01*
X43348682Y18881318D01*
X43300152Y18822184D01*
X43246036Y18768068D01*
X43203519Y18704437D01*
X43154987Y18645300D01*
X43118922Y18577828D01*
X43076408Y18514200D01*
X43047123Y18443500D01*
X43011059Y18376029D01*
X42988852Y18302822D01*
X42959565Y18232118D01*
X42944635Y18157060D01*
X42922428Y18083853D01*
X42914929Y18007717D01*
X42900000Y17932662D01*
X42900000Y17856138D01*
X42892501Y17780000D01*
X42900000Y17703862D01*
X42900000Y17627338D01*
X42900001Y17627333D01*
X42900000Y15392662D01*
X42900000Y15087338D01*
X42914929Y15012282D01*
X42922428Y14936148D01*
X42944635Y14862943D01*
X42959565Y14787882D01*
X42988853Y14717175D01*
X43011059Y14643972D01*
X43047121Y14576505D01*
X43076408Y14505800D01*
X43118925Y14442168D01*
X43154987Y14374701D01*
X43203516Y14315567D01*
X43246036Y14251932D01*
X43300153Y14197815D01*
X43348682Y14138682D01*
X43407816Y14090152D01*
X43461932Y14036036D01*
X43525563Y13993519D01*
X43554222Y13970000D01*
X43525569Y13946484D01*
X43461932Y13903964D01*
X43407812Y13849844D01*
X43348683Y13801318D01*
X43300157Y13742189D01*
X43246036Y13688068D01*
X43203515Y13624430D01*
X43154988Y13565300D01*
X43118927Y13497835D01*
X43076408Y13434200D01*
X43047119Y13363492D01*
X43011060Y13296029D01*
X42988856Y13222831D01*
X42959565Y13152118D01*
X42944633Y13077050D01*
X42922429Y13003853D01*
X42914931Y12927727D01*
X42900000Y12852662D01*
X42900000Y12547338D01*
X42900001Y12547333D01*
X42900001Y11710000D01*
X27787338Y11710000D01*
X27712283Y11695071D01*
X27636147Y11687572D01*
X27562940Y11665365D01*
X27487882Y11650435D01*
X27417178Y11621148D01*
X27343971Y11598941D01*
X27276500Y11562877D01*
X27205800Y11533592D01*
X27142172Y11491078D01*
X27074700Y11455013D01*
X27015563Y11406481D01*
X26951932Y11363964D01*
X26897816Y11309848D01*
X26838682Y11261318D01*
X26790152Y11202184D01*
X26736036Y11148068D01*
X26693519Y11084437D01*
X26644987Y11025300D01*
X26608922Y10957828D01*
X26566408Y10894200D01*
X26537123Y10823500D01*
X26501059Y10756029D01*
X26478852Y10682822D01*
X26449565Y10612118D01*
X26434635Y10537060D01*
X26412428Y10463853D01*
X26404929Y10387717D01*
X26390000Y10312662D01*
X26390000Y10236138D01*
X26382501Y10160000D01*
X26390000Y10083863D01*
X26390000Y10007338D01*
X26404929Y9932283D01*
X26412428Y9856147D01*
X26434635Y9782940D01*
X26449565Y9707882D01*
X26478852Y9637178D01*
X26501059Y9563971D01*
X26537123Y9496500D01*
X26566408Y9425800D01*
X26608922Y9362172D01*
X26644987Y9294700D01*
X26693519Y9235563D01*
X26736036Y9171932D01*
X26737968Y9170000D01*
X21522032Y9170000D01*
X21523964Y9171932D01*
X21566481Y9235563D01*
X21615013Y9294700D01*
X21651078Y9362172D01*
X21693592Y9425800D01*
X21722877Y9496500D01*
X21758941Y9563971D01*
X21781148Y9637178D01*
X21810435Y9707882D01*
X21825365Y9782940D01*
X21847572Y9856147D01*
X21855071Y9932283D01*
X21870000Y10007338D01*
X21870000Y10083863D01*
X21877499Y10160000D01*
X21870000Y10236138D01*
X21870000Y10312662D01*
X21855071Y10387717D01*
X21847572Y10463853D01*
X21825365Y10537060D01*
X21810435Y10612118D01*
X21781148Y10682822D01*
X21758941Y10756029D01*
X21722877Y10823500D01*
X21693592Y10894200D01*
X21651078Y10957828D01*
X21615013Y11025300D01*
X21566481Y11084437D01*
X21523964Y11148068D01*
X21469848Y11202184D01*
X21421318Y11261318D01*
X21362184Y11309848D01*
X21308068Y11363964D01*
X21244437Y11406481D01*
X21185300Y11455013D01*
X21117828Y11491078D01*
X21054200Y11533592D01*
X20983500Y11562877D01*
X20916029Y11598941D01*
X20842822Y11621148D01*
X20772118Y11650435D01*
X20697060Y11665365D01*
X20623853Y11687572D01*
X20547717Y11695071D01*
X20472662Y11710000D01*
X8262031Y11710000D01*
X6283968Y13688062D01*
X6283964Y13688068D01*
X6068068Y13903964D01*
X6004435Y13946482D01*
X5975778Y13970000D01*
X6004435Y13993518D01*
X6068068Y14036036D01*
X6283964Y14251932D01*
X6283968Y14251938D01*
X8262031Y16230000D01*
X20472662Y16230000D01*
X20547717Y16244929D01*
X20623853Y16252428D01*
X20697060Y16274635D01*
X20772118Y16289565D01*
X20842822Y16318852D01*
X20916029Y16341059D01*
X20983500Y16377123D01*
X21054200Y16406408D01*
X21117828Y16448922D01*
X21185300Y16484987D01*
X21244437Y16533519D01*
X21308068Y16576036D01*
X21362184Y16630152D01*
X21421318Y16678682D01*
X21469848Y16737816D01*
X21523964Y16791932D01*
X21566481Y16855563D01*
X21615013Y16914700D01*
X21651078Y16982172D01*
X21693592Y17045800D01*
X21722877Y17116500D01*
X21758941Y17183971D01*
X21781148Y17257178D01*
X21810435Y17327882D01*
X21825365Y17402940D01*
X21847572Y17476147D01*
X21855071Y17552283D01*
X21870000Y17627338D01*
X21870000Y17703862D01*
X21877499Y17780000D01*
X21870000Y17856138D01*
X21870000Y17932662D01*
X21855071Y18007717D01*
X21847572Y18083853D01*
X21825365Y18157060D01*
X21810435Y18232118D01*
X21781148Y18302822D01*
X21758941Y18376029D01*
X21722877Y18443500D01*
X21693592Y18514200D01*
X21651078Y18577828D01*
X21615013Y18645300D01*
X21566481Y18704437D01*
X21523964Y18768068D01*
X21522032Y18770000D01*
X25323862Y18770000D01*
X25400000Y18762501D01*
X25476138Y18770000D01*
X26737968Y18770000D01*
X26736036Y18768068D01*
X26693519Y18704437D01*
X26644987Y18645300D01*
X26608922Y18577828D01*
X26566408Y18514200D01*
X26537123Y18443500D01*
X26501059Y18376029D01*
X26478852Y18302822D01*
X26449565Y18232118D01*
X26434635Y18157060D01*
X26412428Y18083853D01*
X26404929Y18007717D01*
X26390000Y17932662D01*
X26390000Y17856138D01*
X26382501Y17780000D01*
X26390000Y17703862D01*
X26390000Y17627338D01*
X26404929Y17552283D01*
X26412428Y17476147D01*
X26434635Y17402940D01*
X26449565Y17327882D01*
X26478852Y17257178D01*
X26501059Y17183971D01*
X26537123Y17116500D01*
X26566408Y17045800D01*
X26608922Y16982172D01*
X26644987Y16914700D01*
X26693519Y16855563D01*
X26736036Y16791932D01*
X26790152Y16737816D01*
X26838682Y16678682D01*
X26897816Y16630152D01*
X26951932Y16576036D01*
X27015563Y16533519D01*
X27074700Y16484987D01*
X27142172Y16448922D01*
X27205800Y16406408D01*
X27276500Y16377123D01*
X27343971Y16341059D01*
X27417178Y16318852D01*
X27487882Y16289565D01*
X27562940Y16274635D01*
X27636147Y16252428D01*
X27712283Y16244929D01*
X27787338Y16230000D01*
X36982662Y16230000D01*
X37057717Y16244929D01*
X37133853Y16252428D01*
X37207060Y16274635D01*
X37282118Y16289565D01*
X37352822Y16318852D01*
X37426029Y16341059D01*
X37493500Y16377123D01*
X37564200Y16406408D01*
X37627828Y16448922D01*
X37695300Y16484987D01*
X37754437Y16533519D01*
X37818068Y16576036D01*
X37872184Y16630152D01*
X37931318Y16678682D01*
X37979848Y16737816D01*
X38033964Y16791932D01*
X38076481Y16855563D01*
X38125013Y16914700D01*
X38161078Y16982172D01*
X38203592Y17045800D01*
X38232877Y17116500D01*
X38268941Y17183971D01*
X38291148Y17257178D01*
X38320435Y17327882D01*
X38335365Y17402940D01*
X38357572Y17476147D01*
X38365071Y17552283D01*
X38380000Y17627338D01*
X38380000Y17703862D01*
X38387499Y17780000D01*
X38380000Y17856138D01*
X38380000Y17932662D01*
X38365071Y18007717D01*
X38357572Y18083853D01*
X38335365Y18157060D01*
X38320435Y18232118D01*
X38291148Y18302822D01*
X38268941Y18376029D01*
X38232877Y18443500D01*
X38203592Y18514200D01*
X38161078Y18577828D01*
X38125013Y18645300D01*
X38076481Y18704437D01*
X38033964Y18768068D01*
X37979848Y18822184D01*
X37931318Y18881318D01*
X37872184Y18929848D01*
X37818068Y18983964D01*
X37754437Y19026481D01*
X37695300Y19075013D01*
X37627828Y19111078D01*
X37564200Y19153592D01*
X37493500Y19182877D01*
X37426029Y19218941D01*
X37352822Y19241148D01*
X37282118Y19270435D01*
X37207060Y19285365D01*
X37133853Y19307572D01*
X37057717Y19315071D01*
X36982662Y19330000D01*
X34222032Y19330000D01*
X34223964Y19331932D01*
X34266481Y19395563D01*
X34315013Y19454700D01*
X34351078Y19522172D01*
X34393592Y19585800D01*
X34422877Y19656500D01*
X34458941Y19723971D01*
X34481148Y19797178D01*
X34510435Y19867882D01*
X34525365Y19942940D01*
X34547572Y20016147D01*
X34555071Y20092283D01*
X34570000Y20167338D01*
X34570000Y20243863D01*
X34577499Y20320000D01*
X34570000Y20396138D01*
X34570000Y29287326D01*
X34694700Y29184987D01*
X34963971Y29041059D01*
X35256147Y28952428D01*
X35483862Y28930000D01*
X35560000Y28922501D01*
X35636138Y28930000D01*
X38252662Y28930000D01*
X38327717Y28944929D01*
X38403853Y28952428D01*
X38477060Y28974635D01*
X38552118Y28989565D01*
X38622822Y29018852D01*
X38696029Y29041059D01*
X38763500Y29077123D01*
X38834200Y29106408D01*
X38897828Y29148922D01*
X38965300Y29184987D01*
X39024437Y29233519D01*
X39088068Y29276036D01*
X39142184Y29330152D01*
X39201318Y29378682D01*
X39249848Y29437816D01*
X39303964Y29491932D01*
X39346481Y29555563D01*
X39370001Y29584222D01*
X39393515Y29555570D01*
X39436036Y29491932D01*
X39490157Y29437811D01*
X39538683Y29378682D01*
X39597812Y29330156D01*
X39651932Y29276036D01*
X39715569Y29233516D01*
X39774701Y29184987D01*
X39842168Y29148925D01*
X39905800Y29106408D01*
X39976505Y29077121D01*
X40043972Y29041059D01*
X40117175Y29018853D01*
X40187882Y28989565D01*
X40262943Y28974635D01*
X40336148Y28952428D01*
X40412282Y28944929D01*
X40487338Y28930000D01*
X40563862Y28930000D01*
X40640000Y28922501D01*
X40716138Y28930000D01*
X40792662Y28930000D01*
X40867717Y28944929D01*
X40943853Y28952428D01*
X41017060Y28974635D01*
X41092118Y28989565D01*
X41162822Y29018852D01*
X41236029Y29041059D01*
X41303500Y29077123D01*
X41374200Y29106408D01*
X41437828Y29148922D01*
X41505300Y29184987D01*
X41564437Y29233519D01*
X41628068Y29276036D01*
X41682184Y29330152D01*
X41741318Y29378682D01*
X41789848Y29437816D01*
X41843964Y29491932D01*
X41886481Y29555563D01*
X41935013Y29614700D01*
X41971078Y29682172D01*
X42013592Y29745800D01*
X42042877Y29816500D01*
X42078941Y29883971D01*
X42101148Y29957178D01*
X42130435Y30027882D01*
X42145365Y30102940D01*
X42167572Y30176147D01*
X42175071Y30252283D01*
X42190000Y30327338D01*
X42190000Y34917970D01*
X45492179Y38220148D01*
X45551318Y38268682D01*
X45745013Y38504700D01*
X45888941Y38773971D01*
X45977572Y39066147D01*
X45990885Y39201318D01*
X46007499Y39370000D01*
X46000000Y39446138D01*
X46000000Y43332662D01*
X45985071Y43407717D01*
X45977572Y43483853D01*
X45955365Y43557060D01*
X45940435Y43632118D01*
X45911148Y43702822D01*
X45888941Y43776029D01*
X45852877Y43843500D01*
X45823592Y43914200D01*
X45781078Y43977828D01*
X45745013Y44045300D01*
X45696481Y44104437D01*
X45653964Y44168068D01*
X45599848Y44222184D01*
X45551318Y44281318D01*
X45492184Y44329848D01*
X45438068Y44383964D01*
X45374437Y44426481D01*
X45345778Y44450000D01*
X45374437Y44473519D01*
X45438068Y44516036D01*
X45492184Y44570152D01*
X45551318Y44618682D01*
X45599848Y44677816D01*
X45653964Y44731932D01*
X45696481Y44795563D01*
X45745013Y44854700D01*
X45781078Y44922172D01*
X45823592Y44985800D01*
X45852877Y45056500D01*
X45888941Y45123971D01*
X45911148Y45197178D01*
X45940435Y45267882D01*
X45955365Y45342940D01*
X45977572Y45416147D01*
X45985071Y45492283D01*
X46000000Y45567338D01*
X46000000Y45643862D01*
X46007499Y45720000D01*
X46000000Y45796138D01*
X46000000Y45872662D01*
X45985071Y45947717D01*
X45977572Y46023853D01*
X45955365Y46097060D01*
X45940435Y46172118D01*
X45911148Y46242822D01*
X45888941Y46316029D01*
X45852877Y46383500D01*
X45823592Y46454200D01*
X45781078Y46517828D01*
X45745013Y46585300D01*
X45696481Y46644437D01*
X45653964Y46708068D01*
X45599848Y46762184D01*
X45551318Y46821318D01*
X45492184Y46869848D01*
X45438068Y46923964D01*
X45374437Y46966481D01*
X45345778Y46990000D01*
X45374437Y47013519D01*
X45438068Y47056036D01*
X45492184Y47110152D01*
X45551318Y47158682D01*
X45599848Y47217816D01*
X45653964Y47271932D01*
X45696481Y47335563D01*
X45745013Y47394700D01*
X45781078Y47462172D01*
X45823592Y47525800D01*
X45852877Y47596500D01*
X45888941Y47663971D01*
X45911148Y47737178D01*
X45940435Y47807882D01*
X45955365Y47882940D01*
X45977572Y47956147D01*
X45985071Y48032283D01*
X46000000Y48107338D01*
X46000000Y48183862D01*
X46007499Y48260000D01*
X46000000Y48336138D01*
X46000000Y48412662D01*
X45985071Y48487717D01*
X45977572Y48563853D01*
X45955365Y48637060D01*
X45940435Y48712118D01*
X45911148Y48782822D01*
X45888941Y48856029D01*
X45852877Y48923500D01*
X45823592Y48994200D01*
X45781078Y49057828D01*
X45745013Y49125300D01*
X45696481Y49184437D01*
X45653964Y49248068D01*
X45599848Y49302184D01*
X45551318Y49361318D01*
X45492184Y49409848D01*
X45438068Y49463964D01*
X45374437Y49506481D01*
X45345778Y49530000D01*
X45374437Y49553519D01*
X45438068Y49596036D01*
X45492184Y49650152D01*
X45551318Y49698682D01*
X45599848Y49757816D01*
X45653964Y49811932D01*
X45696481Y49875563D01*
X45745013Y49934700D01*
X45781078Y50002172D01*
X45823592Y50065800D01*
X45852877Y50136500D01*
X45888941Y50203971D01*
X45911148Y50277178D01*
X45940435Y50347882D01*
X45955365Y50422940D01*
X45977572Y50496147D01*
X45985071Y50572283D01*
X46000000Y50647338D01*
X46000000Y50723862D01*
X46007499Y50800000D01*
X46000000Y50876138D01*
X46000000Y50952662D01*
X45985071Y51027717D01*
X45977572Y51103853D01*
X45955365Y51177060D01*
X45940435Y51252118D01*
X45911148Y51322822D01*
X45888941Y51396029D01*
X45852877Y51463500D01*
X45823592Y51534200D01*
X45781078Y51597828D01*
X45745013Y51665300D01*
X45696481Y51724437D01*
X45653964Y51788068D01*
X45599848Y51842184D01*
X45551318Y51901318D01*
X45492184Y51949848D01*
X45438068Y52003964D01*
X45374437Y52046481D01*
X45315300Y52095013D01*
X45247828Y52131078D01*
X45184200Y52173592D01*
X45113500Y52202877D01*
X45046029Y52238941D01*
X44972822Y52261148D01*
X44902118Y52290435D01*
X44827060Y52305365D01*
X44753853Y52327572D01*
X44677717Y52335071D01*
X44602662Y52350000D01*
X39302032Y52350000D01*
X39303964Y52351932D01*
X39473592Y52605800D01*
X39590435Y52887882D01*
X39650000Y53187338D01*
X39650000Y53492662D01*
X39590435Y53792118D01*
X39473592Y54074200D01*
X39303964Y54328068D01*
X39088068Y54543964D01*
X38992843Y54607591D01*
X39024437Y54633519D01*
X39088068Y54676036D01*
X39142184Y54730152D01*
X39201318Y54778682D01*
X39249848Y54837816D01*
X39303964Y54891932D01*
X39346481Y54955563D01*
X39395013Y55014700D01*
X39431078Y55082172D01*
X39473592Y55145800D01*
X39502877Y55216500D01*
X39538941Y55283971D01*
X39561148Y55357178D01*
X39590435Y55427882D01*
X39605365Y55502940D01*
X39627572Y55576147D01*
X39635071Y55652283D01*
X39650000Y55727338D01*
X39650000Y55803862D01*
X39657499Y55880000D01*
X39650000Y55956138D01*
X39650000Y56032662D01*
X39635071Y56107717D01*
X39627572Y56183853D01*
X39605365Y56257060D01*
X39590435Y56332118D01*
X39561148Y56402822D01*
X39538941Y56476029D01*
X39502877Y56543500D01*
X39473592Y56614200D01*
X39431078Y56677828D01*
X39395013Y56745300D01*
X39346481Y56804437D01*
X39303964Y56868068D01*
X39249848Y56922184D01*
X39201318Y56981318D01*
X39142184Y57029848D01*
X39088068Y57083964D01*
X39024437Y57126481D01*
X38995778Y57150000D01*
X39024437Y57173519D01*
X39088068Y57216036D01*
X39142184Y57270152D01*
X39201318Y57318682D01*
X39249848Y57377816D01*
X39303964Y57431932D01*
X39346481Y57495563D01*
X39395013Y57554700D01*
X39431078Y57622172D01*
X39473592Y57685800D01*
X39502877Y57756500D01*
X39538941Y57823971D01*
X39561148Y57897178D01*
X39590435Y57967882D01*
X39605365Y58042940D01*
X39627572Y58116147D01*
X39635071Y58192283D01*
X39650000Y58267338D01*
X39650000Y58343862D01*
X39657499Y58420000D01*
X39650000Y58496138D01*
X39650000Y58572662D01*
X39635071Y58647717D01*
X39627572Y58723853D01*
X39605365Y58797060D01*
X39590435Y58872118D01*
X39561148Y58942822D01*
X39538941Y59016029D01*
X39502877Y59083500D01*
X39473592Y59154200D01*
X39431078Y59217828D01*
X39395013Y59285300D01*
X39346481Y59344437D01*
X39303964Y59408068D01*
X39249848Y59462184D01*
X39201318Y59521318D01*
X39142184Y59569848D01*
X39088068Y59623964D01*
X39024437Y59666481D01*
X38995778Y59690000D01*
X39024437Y59713519D01*
X39088068Y59756036D01*
X39142184Y59810152D01*
X39201318Y59858682D01*
X39249848Y59917816D01*
X39303964Y59971932D01*
X39346481Y60035563D01*
X39395013Y60094700D01*
X39431078Y60162172D01*
X39473592Y60225800D01*
X39502877Y60296500D01*
X39538941Y60363971D01*
X39561148Y60437178D01*
X39590435Y60507882D01*
X39605365Y60582940D01*
X39627572Y60656147D01*
X39635071Y60732283D01*
X39650000Y60807338D01*
X39650000Y60883862D01*
X39657499Y60960000D01*
X39650000Y61036138D01*
X39650000Y61112662D01*
X39635071Y61187717D01*
X39627572Y61263853D01*
X39605365Y61337060D01*
X39590435Y61412118D01*
X39561148Y61482822D01*
X39538941Y61556029D01*
X39502877Y61623500D01*
X39473592Y61694200D01*
X39431078Y61757828D01*
X39395013Y61825300D01*
X39346481Y61884437D01*
X39303964Y61948068D01*
X39249848Y62002184D01*
X39201318Y62061318D01*
X39142184Y62109848D01*
X39088068Y62163964D01*
X39024437Y62206481D01*
X38992843Y62232409D01*
X39088068Y62296036D01*
X39303964Y62511932D01*
X39473592Y62765800D01*
X39590435Y63047882D01*
X39650000Y63347338D01*
X39650000Y63652662D01*
X39590435Y63952118D01*
X39473592Y64234200D01*
X39303964Y64488068D01*
X39088068Y64703964D01*
X38989237Y64770000D01*
X39088068Y64836036D01*
X39303964Y65051932D01*
X39473592Y65305800D01*
X39590435Y65587882D01*
X39650000Y65887338D01*
X39650000Y66192662D01*
X39590435Y66492118D01*
X39473592Y66774200D01*
X39303964Y67028068D01*
X39088068Y67243964D01*
X38834200Y67413592D01*
X38552118Y67530435D01*
X38252662Y67590000D01*
X37947338Y67590000D01*
X37647882Y67530435D01*
X37365800Y67413592D01*
X37111932Y67243964D01*
X36896036Y67028068D01*
X36726408Y66774200D01*
X36609565Y66492118D01*
X36550000Y66192662D01*
X36550000Y65887338D01*
X36609565Y65587882D01*
X36726408Y65305800D01*
X36896036Y65051932D01*
X37111932Y64836036D01*
X37210763Y64770000D01*
X37111932Y64703964D01*
X36896036Y64488068D01*
X36726408Y64234200D01*
X36609565Y63952118D01*
X36550000Y63652662D01*
X36550000Y63347338D01*
X36609565Y63047882D01*
X36726408Y62765800D01*
X36896036Y62511932D01*
X36897968Y62510000D01*
X34570000Y62510000D01*
X34570000Y63652662D01*
X34555071Y63727717D01*
X34547572Y63803853D01*
X34525365Y63877060D01*
X34510435Y63952118D01*
X34481148Y64022822D01*
X34458941Y64096029D01*
X34422877Y64163500D01*
X34393592Y64234200D01*
X34351078Y64297828D01*
X34315013Y64365300D01*
X34266481Y64424437D01*
X34223964Y64488068D01*
X34169848Y64542184D01*
X34121318Y64601318D01*
X34062185Y64649847D01*
X34008068Y64703964D01*
X33944433Y64746484D01*
X33885299Y64795013D01*
X33817832Y64831075D01*
X33754200Y64873592D01*
X33683495Y64902879D01*
X33616028Y64938941D01*
X33542825Y64961147D01*
X33472118Y64990435D01*
X33397057Y65005365D01*
X33323852Y65027572D01*
X33247718Y65035071D01*
X33172662Y65050000D01*
X33096138Y65050000D01*
X33020000Y65057499D01*
X32943862Y65050000D01*
X32867338Y65050000D01*
X32792283Y65035071D01*
X32716147Y65027572D01*
X32642940Y65005365D01*
X32567882Y64990435D01*
X32497178Y64961148D01*
X32423971Y64938941D01*
X32356500Y64902877D01*
X32285800Y64873592D01*
X32222172Y64831078D01*
X32154700Y64795013D01*
X32095563Y64746481D01*
X32031932Y64703964D01*
X31977816Y64649848D01*
X31918682Y64601318D01*
X31870153Y64542185D01*
X31816036Y64488068D01*
X31773516Y64424433D01*
X31724987Y64365299D01*
X31688925Y64297832D01*
X31646408Y64234200D01*
X31617121Y64163495D01*
X31581059Y64096028D01*
X31558853Y64022825D01*
X31529565Y63952118D01*
X31514635Y63877057D01*
X31492428Y63803852D01*
X31484929Y63727718D01*
X31470000Y63652662D01*
X31470000Y62510000D01*
X30556138Y62510000D01*
X30480000Y62517499D01*
X30403862Y62510000D01*
X30176147Y62487572D01*
X29883971Y62398941D01*
X29614700Y62255013D01*
X29490000Y62152674D01*
X29490000Y79730000D01*
X36897968Y79730000D01*
X36896036Y79728068D01*
X36726408Y79474200D01*
X36609565Y79192118D01*
X36550000Y78892662D01*
X36550000Y78587338D01*
X36609565Y78287882D01*
X36726408Y78005800D01*
X36896036Y77751932D01*
X37111932Y77536036D01*
X37210763Y77470000D01*
X37111932Y77403964D01*
X36896036Y77188068D01*
X36726408Y76934200D01*
X36609565Y76652118D01*
X36550000Y76352662D01*
X36550000Y76047338D01*
X36609565Y75747882D01*
X36726408Y75465800D01*
X36896036Y75211932D01*
X37111932Y74996036D01*
X37210763Y74930000D01*
X37111932Y74863964D01*
X36896036Y74648068D01*
X36726408Y74394200D01*
X36609565Y74112118D01*
X36550000Y73812662D01*
X36550000Y73507338D01*
X36609565Y73207882D01*
X36726408Y72925800D01*
X36896036Y72671932D01*
X37111932Y72456036D01*
X37210763Y72390000D01*
X37111932Y72323964D01*
X36896036Y72108068D01*
X36726408Y71854200D01*
X36609565Y71572118D01*
X36550000Y71272662D01*
X36550000Y70967338D01*
X36609565Y70667882D01*
X36726408Y70385800D01*
X36896036Y70131932D01*
X37111932Y69916036D01*
X37365800Y69746408D01*
X37647882Y69629565D01*
X37947338Y69570000D01*
X38252662Y69570000D01*
X38552118Y69629565D01*
X38834200Y69746408D01*
X39088068Y69916036D01*
X39219015Y70046983D01*
X42450000Y70046983D01*
X42450000Y69653017D01*
X42526859Y69266622D01*
X42677623Y68902645D01*
X42896499Y68575074D01*
X43175074Y68296499D01*
X43502645Y68077623D01*
X43866622Y67926859D01*
X44253017Y67850000D01*
X44646983Y67850000D01*
X45033378Y67926859D01*
X45397355Y68077623D01*
X45724926Y68296499D01*
X46003501Y68575074D01*
X46222377Y68902645D01*
X46373141Y69266622D01*
X46450000Y69653017D01*
X46450000Y70046983D01*
X46373141Y70433378D01*
X46222377Y70797355D01*
X46003501Y71124926D01*
X45724926Y71403501D01*
X45397355Y71622377D01*
X45033378Y71773141D01*
X44646983Y71850000D01*
X44253017Y71850000D01*
X43866622Y71773141D01*
X43502645Y71622377D01*
X43175074Y71403501D01*
X42896499Y71124926D01*
X42677623Y70797355D01*
X42526859Y70433378D01*
X42450000Y70046983D01*
X39219015Y70046983D01*
X39303964Y70131932D01*
X39473592Y70385800D01*
X39590435Y70667882D01*
X39650000Y70967338D01*
X39650000Y71272662D01*
X39590435Y71572118D01*
X39473592Y71854200D01*
X39303964Y72108068D01*
X39088068Y72323964D01*
X38989237Y72390000D01*
X39088068Y72456036D01*
X39303964Y72671932D01*
X39473592Y72925800D01*
X39590435Y73207882D01*
X39650000Y73507338D01*
X39650000Y73812662D01*
X39590435Y74112118D01*
X39473592Y74394200D01*
X39303964Y74648068D01*
X39088068Y74863964D01*
X38989237Y74930000D01*
X39088068Y74996036D01*
X39303964Y75211932D01*
X39473592Y75465800D01*
X39590435Y75747882D01*
X39650000Y76047338D01*
X39650000Y76352662D01*
X39590435Y76652118D01*
X39473592Y76934200D01*
X39303964Y77188068D01*
X39088068Y77403964D01*
X38989237Y77470000D01*
X39088068Y77536036D01*
X39303964Y77751932D01*
X39473592Y78005800D01*
X39590435Y78287882D01*
X39650000Y78587338D01*
X39650000Y78892662D01*
X39590435Y79192118D01*
X39473592Y79474200D01*
X39303964Y79728068D01*
X39302032Y79730000D01*
X44602662Y79730000D01*
X44677717Y79744929D01*
X44753853Y79752428D01*
X44827060Y79774635D01*
X44902118Y79789565D01*
X44972822Y79818852D01*
X45046029Y79841059D01*
X45113500Y79877123D01*
X45184200Y79906408D01*
X45247828Y79948922D01*
X45315300Y79984987D01*
X45374437Y80033519D01*
X45438068Y80076036D01*
X45492184Y80130152D01*
X45551318Y80178682D01*
X45599848Y80237816D01*
X45653964Y80291932D01*
X45696481Y80355563D01*
X45745013Y80414700D01*
X45781078Y80482172D01*
X45823592Y80545800D01*
X45852877Y80616500D01*
X45888941Y80683971D01*
X45911148Y80757178D01*
X45940435Y80827882D01*
X45955365Y80902940D01*
X45977572Y80976147D01*
X45985071Y81052283D01*
X46000000Y81127338D01*
X46000000Y81203862D01*
X46007499Y81280000D01*
X46000000Y81356138D01*
X46000000Y81432662D01*
X45985071Y81507717D01*
X45977572Y81583853D01*
X45955365Y81657060D01*
X45940435Y81732118D01*
X45911148Y81802822D01*
X45888941Y81876029D01*
X45852877Y81943500D01*
X45823592Y82014200D01*
X45781078Y82077828D01*
X45745013Y82145300D01*
X45696481Y82204437D01*
X45653964Y82268068D01*
X45599848Y82322184D01*
X45551318Y82381318D01*
X45492184Y82429848D01*
X45438068Y82483964D01*
X45374437Y82526481D01*
X45315300Y82575013D01*
X45247828Y82611078D01*
X45184200Y82653592D01*
X45113500Y82682877D01*
X45046029Y82718941D01*
X44972822Y82741148D01*
X44902118Y82770435D01*
X44827060Y82785365D01*
X44753853Y82807572D01*
X44677717Y82815071D01*
X44602662Y82830000D01*
X28016138Y82830000D01*
X27940000Y82837499D01*
X27863862Y82830000D01*
X27636147Y82807572D01*
X27343971Y82718941D01*
X27074700Y82575013D01*
X26838682Y82381318D01*
X26644987Y82145300D01*
X26501059Y81876029D01*
X26412428Y81583853D01*
X26382501Y81280000D01*
X26390001Y81203851D01*
X26390001Y59622031D01*
X26388068Y59623964D01*
X26324437Y59666481D01*
X26265300Y59715013D01*
X26197828Y59751078D01*
X26134200Y59793592D01*
X26063500Y59822877D01*
X25996029Y59858941D01*
X25922822Y59881148D01*
X25852118Y59910435D01*
X25777060Y59925365D01*
X25703853Y59947572D01*
X25627717Y59955071D01*
X25552662Y59970000D01*
X25476138Y59970000D01*
X25400000Y59977499D01*
X25323862Y59970000D01*
X25247338Y59970000D01*
X25172283Y59955071D01*
X25096147Y59947572D01*
X25022940Y59925365D01*
X24947882Y59910435D01*
X24877178Y59881148D01*
X24803971Y59858941D01*
X24736500Y59822877D01*
X24665800Y59793592D01*
X24602172Y59751078D01*
X24534700Y59715013D01*
X24475563Y59666481D01*
X24411932Y59623964D01*
X24357816Y59569848D01*
X24298682Y59521318D01*
X24250152Y59462184D01*
X24196036Y59408068D01*
X24153519Y59344437D01*
X24104987Y59285300D01*
X24068922Y59217828D01*
X24026408Y59154200D01*
X23997123Y59083500D01*
X23961059Y59016029D01*
X23938852Y58942822D01*
X23909565Y58872118D01*
X23894635Y58797060D01*
X23872428Y58723853D01*
X23864929Y58647717D01*
X23850000Y58572662D01*
X23850000Y58496138D01*
X23842501Y58420000D01*
X23850000Y58343862D01*
X23850000Y58267338D01*
X23850001Y58267333D01*
X23850000Y21870000D01*
X21522032Y21870000D01*
X21523964Y21871932D01*
X21566481Y21935563D01*
X21615013Y21994700D01*
X21651078Y22062172D01*
X21693592Y22125800D01*
X21722877Y22196500D01*
X21758941Y22263971D01*
X21781148Y22337178D01*
X21810435Y22407882D01*
X21825365Y22482940D01*
X21847572Y22556147D01*
X21855071Y22632283D01*
X21870000Y22707338D01*
X21870000Y25323862D01*
X21877499Y25400000D01*
X21870000Y25476138D01*
X21870000Y25552662D01*
X21855071Y25627717D01*
X21847572Y25703853D01*
X21825365Y25777060D01*
X21810435Y25852118D01*
X21781148Y25922822D01*
X21758941Y25996029D01*
X21722877Y26063500D01*
X21693592Y26134200D01*
X21651078Y26197828D01*
X21615013Y26265300D01*
X21566481Y26324437D01*
X21523964Y26388068D01*
X21469848Y26442184D01*
X21421318Y26501318D01*
X21362184Y26549848D01*
X21308068Y26603964D01*
X21244437Y26646481D01*
X21215778Y26670000D01*
X21244437Y26693519D01*
X21308068Y26736036D01*
X21362184Y26790152D01*
X21421318Y26838682D01*
X21469848Y26897816D01*
X21523964Y26951932D01*
X21566481Y27015563D01*
X21615013Y27074700D01*
X21651078Y27142172D01*
X21693592Y27205800D01*
X21722877Y27276500D01*
X21758941Y27343971D01*
X21781148Y27417178D01*
X21810435Y27487882D01*
X21825365Y27562940D01*
X21847572Y27636147D01*
X21855071Y27712283D01*
X21870000Y27787338D01*
X21870000Y27863863D01*
X21877499Y27940000D01*
X21870000Y28016138D01*
X21870000Y28092662D01*
X21855071Y28167717D01*
X21847572Y28243853D01*
X21825365Y28317060D01*
X21810435Y28392118D01*
X21781148Y28462822D01*
X21758941Y28536029D01*
X21722877Y28603500D01*
X21693592Y28674200D01*
X21651078Y28737828D01*
X21615013Y28805300D01*
X21566481Y28864437D01*
X21523964Y28928068D01*
X21469848Y28982184D01*
X21421318Y29041318D01*
X21362184Y29089848D01*
X21308068Y29143964D01*
X21244437Y29186481D01*
X21185300Y29235013D01*
X21117828Y29271078D01*
X21054200Y29313592D01*
X20983500Y29342877D01*
X20916029Y29378941D01*
X20842822Y29401148D01*
X20772118Y29430435D01*
X20697060Y29445365D01*
X20623853Y29467572D01*
X20547717Y29475071D01*
X20472662Y29490000D01*
X6197338Y29490000D01*
X6122283Y29475071D01*
X6046147Y29467572D01*
X5972940Y29445365D01*
X5897882Y29430435D01*
X5827178Y29401148D01*
X5753971Y29378941D01*
X5686500Y29342877D01*
X5615800Y29313592D01*
X5552172Y29271078D01*
X5484700Y29235013D01*
X5425563Y29186481D01*
X5361932Y29143964D01*
X5307816Y29089848D01*
X5248682Y29041318D01*
X5200152Y28982184D01*
X5146036Y28928068D01*
X5103519Y28864437D01*
X5054987Y28805300D01*
X5018922Y28737828D01*
X4976408Y28674200D01*
X4947123Y28603500D01*
X4911059Y28536029D01*
X4888852Y28462822D01*
X4859565Y28392118D01*
X4844635Y28317060D01*
X4822428Y28243853D01*
X4814929Y28167717D01*
X4800000Y28092662D01*
X4800000Y28016138D01*
X4792501Y27940000D01*
X4800000Y27863863D01*
X4800000Y27787338D01*
X4814929Y27712283D01*
X4822428Y27636147D01*
X4844635Y27562940D01*
X4859565Y27487882D01*
X4888852Y27417178D01*
X4911059Y27343971D01*
X4947123Y27276500D01*
X4976408Y27205800D01*
X5018922Y27142172D01*
X5054987Y27074700D01*
X5103519Y27015563D01*
X5146036Y26951932D01*
X5200152Y26897816D01*
X5248682Y26838682D01*
X5307816Y26790152D01*
X5361932Y26736036D01*
X5425563Y26693519D01*
X5484700Y26644987D01*
X5552172Y26608922D01*
X5615800Y26566408D01*
X5686500Y26537123D01*
X5753971Y26501059D01*
X5827178Y26478852D01*
X5897882Y26449565D01*
X5972940Y26434635D01*
X6046147Y26412428D01*
X6122283Y26404929D01*
X6197338Y26390000D01*
X19117968Y26390000D01*
X19116036Y26388068D01*
X19073519Y26324437D01*
X19024987Y26265300D01*
X18988922Y26197828D01*
X18946408Y26134200D01*
X18917123Y26063500D01*
X18881059Y25996029D01*
X18858852Y25922822D01*
X18829565Y25852118D01*
X18814635Y25777060D01*
X18792428Y25703853D01*
X18784929Y25627717D01*
X18770000Y25552662D01*
X18770000Y25476138D01*
X18762501Y25400000D01*
X18770000Y25323862D01*
X18770000Y25247338D01*
X18770001Y25247333D01*
X18770000Y23012662D01*
X18770000Y22707338D01*
X18784929Y22632282D01*
X18792428Y22556148D01*
X18814635Y22482943D01*
X18829565Y22407882D01*
X18858853Y22337175D01*
X18881059Y22263972D01*
X18917121Y22196505D01*
X18946408Y22125800D01*
X18988925Y22062168D01*
X19024987Y21994701D01*
X19073516Y21935567D01*
X19116036Y21871932D01*
X19170153Y21817815D01*
X19218682Y21758682D01*
X19277816Y21710152D01*
X19331932Y21656036D01*
X19395563Y21613519D01*
X19424222Y21590000D01*
X19395563Y21566481D01*
X19331932Y21523964D01*
X19277816Y21469848D01*
X19218682Y21421318D01*
X19170152Y21362184D01*
X19116036Y21308068D01*
X19073519Y21244437D01*
X19024987Y21185300D01*
X18988922Y21117828D01*
X18946408Y21054200D01*
X18917123Y20983500D01*
X18881059Y20916029D01*
X18858852Y20842822D01*
X18829565Y20772118D01*
X18814635Y20697060D01*
X18792428Y20623853D01*
X18784929Y20547717D01*
X18770000Y20472662D01*
X18770000Y20396138D01*
X18762501Y20320000D01*
X18770000Y20243863D01*
X18770000Y20167338D01*
X18784929Y20092283D01*
X18792428Y20016147D01*
X18814635Y19942940D01*
X18829565Y19867882D01*
X18858852Y19797178D01*
X18881059Y19723971D01*
X18917123Y19656500D01*
X18946408Y19585800D01*
X18988922Y19522172D01*
X19024987Y19454700D01*
X19073519Y19395563D01*
X19116036Y19331932D01*
X19117968Y19330000D01*
X7696127Y19330000D01*
X7619999Y19337498D01*
X7543871Y19330000D01*
X7543862Y19330000D01*
X7316147Y19307572D01*
X7023971Y19218941D01*
X6754700Y19075013D01*
X6518682Y18881318D01*
X6470147Y18822178D01*
X4091938Y16443968D01*
X4091932Y16443964D01*
X3876036Y16228068D01*
X3833518Y16164435D01*
X3784987Y16105300D01*
X3748923Y16037829D01*
X3706408Y15974200D01*
X3677121Y15903497D01*
X3641059Y15836028D01*
X3618854Y15762827D01*
X3589565Y15692118D01*
X3574633Y15617050D01*
X3552429Y15543852D01*
X3544931Y15467728D01*
X3530000Y15392662D01*
X3530000Y15316128D01*
X3522502Y15240000D01*
X475000Y15240000D01*
X475000Y40640000D01*
X3522501Y40640000D01*
X3530000Y40563862D01*
X3530000Y40487338D01*
X3544929Y40412283D01*
X3552428Y40336147D01*
X3574635Y40262940D01*
X3589565Y40187882D01*
X3618852Y40117178D01*
X3641059Y40043971D01*
X3677123Y39976500D01*
X3706408Y39905800D01*
X3748922Y39842172D01*
X3784987Y39774700D01*
X3833519Y39715563D01*
X3876036Y39651932D01*
X3930152Y39597816D01*
X3978682Y39538682D01*
X4037816Y39490152D01*
X4091932Y39436036D01*
X4155563Y39393519D01*
X4184222Y39370000D01*
X4155563Y39346481D01*
X4091932Y39303964D01*
X4037816Y39249848D01*
X3978682Y39201318D01*
X3930152Y39142184D01*
X3876036Y39088068D01*
X3833519Y39024437D01*
X3784987Y38965300D01*
X3748922Y38897828D01*
X3706408Y38834200D01*
X3677123Y38763500D01*
X3641059Y38696029D01*
X3618852Y38622822D01*
X3589565Y38552118D01*
X3574635Y38477060D01*
X3552428Y38403853D01*
X3544929Y38327717D01*
X3530000Y38252662D01*
X3530000Y38176138D01*
X3522501Y38100000D01*
X3530000Y38023862D01*
X3530000Y37947338D01*
X3544929Y37872283D01*
X3552428Y37796147D01*
X3574635Y37722940D01*
X3589565Y37647882D01*
X3618852Y37577178D01*
X3641059Y37503971D01*
X3677123Y37436500D01*
X3706408Y37365800D01*
X3748922Y37302172D01*
X3784987Y37234700D01*
X3833519Y37175563D01*
X3876036Y37111932D01*
X3930152Y37057816D01*
X3978682Y36998682D01*
X4037816Y36950152D01*
X4091932Y36896036D01*
X4155563Y36853519D01*
X4214700Y36804987D01*
X4282172Y36768922D01*
X4345800Y36726408D01*
X4416500Y36697123D01*
X4483971Y36661059D01*
X4557178Y36638852D01*
X4627882Y36609565D01*
X4702940Y36594635D01*
X4776147Y36572428D01*
X4852283Y36564929D01*
X4927338Y36550000D01*
X8528238Y36550000D01*
X8604366Y36542502D01*
X8680494Y36550000D01*
X8680504Y36550000D01*
X8908219Y36572428D01*
X9200395Y36661059D01*
X9469666Y36804987D01*
X9705684Y36998682D01*
X9754223Y37057827D01*
X11199894Y38503497D01*
X11150000Y38252662D01*
X11150000Y37947338D01*
X11209565Y37647882D01*
X11326408Y37365800D01*
X11496036Y37111932D01*
X11711932Y36896036D01*
X11965800Y36726408D01*
X12247882Y36609565D01*
X12547338Y36550000D01*
X12852662Y36550000D01*
X13152118Y36609565D01*
X13434200Y36726408D01*
X13688068Y36896036D01*
X13903964Y37111932D01*
X14073592Y37365800D01*
X14190435Y37647882D01*
X14250000Y37947338D01*
X14250000Y38252662D01*
X14190435Y38552118D01*
X14073592Y38834200D01*
X13903964Y39088068D01*
X13688068Y39303964D01*
X13592843Y39367591D01*
X13624437Y39393519D01*
X13688068Y39436036D01*
X13742184Y39490152D01*
X13801318Y39538682D01*
X13849848Y39597816D01*
X13903964Y39651932D01*
X13946481Y39715563D01*
X13995013Y39774700D01*
X14031078Y39842172D01*
X14073592Y39905800D01*
X14102877Y39976500D01*
X14138941Y40043971D01*
X14161148Y40117178D01*
X14190435Y40187882D01*
X14205365Y40262940D01*
X14227572Y40336147D01*
X14235071Y40412283D01*
X14250000Y40487338D01*
X14250000Y40563862D01*
X14257499Y40640000D01*
X14250000Y40716138D01*
X14250000Y40792662D01*
X14235071Y40867717D01*
X14227572Y40943853D01*
X14205365Y41017060D01*
X14190435Y41092118D01*
X14161148Y41162822D01*
X14138941Y41236029D01*
X14102877Y41303500D01*
X14073592Y41374200D01*
X14031078Y41437828D01*
X13995013Y41505300D01*
X13946481Y41564437D01*
X13903964Y41628068D01*
X13849848Y41682184D01*
X13801318Y41741318D01*
X13742184Y41789848D01*
X13688068Y41843964D01*
X13624437Y41886481D01*
X13592843Y41912409D01*
X13688068Y41976036D01*
X13903964Y42191932D01*
X14073592Y42445800D01*
X14190435Y42727882D01*
X14250000Y43027338D01*
X14250000Y43332662D01*
X14190435Y43632118D01*
X14073592Y43914200D01*
X13903964Y44168068D01*
X13688068Y44383964D01*
X13589237Y44450000D01*
X13688068Y44516036D01*
X13903964Y44731932D01*
X14073592Y44985800D01*
X14190435Y45267882D01*
X14250000Y45567338D01*
X14250000Y45872662D01*
X14190435Y46172118D01*
X14073592Y46454200D01*
X13903964Y46708068D01*
X13688068Y46923964D01*
X13589237Y46990000D01*
X13688068Y47056036D01*
X13903964Y47271932D01*
X14073592Y47525800D01*
X14190435Y47807882D01*
X14250000Y48107338D01*
X14250000Y48412662D01*
X14190435Y48712118D01*
X14073592Y48994200D01*
X13903964Y49248068D01*
X13688068Y49463964D01*
X13434200Y49633592D01*
X13152118Y49750435D01*
X12852662Y49810000D01*
X12547338Y49810000D01*
X12247882Y49750435D01*
X11965800Y49633592D01*
X11711932Y49463964D01*
X11496036Y49248068D01*
X11326408Y48994200D01*
X11209565Y48712118D01*
X11150000Y48412662D01*
X11150000Y48107338D01*
X11209565Y47807882D01*
X11326408Y47525800D01*
X11496036Y47271932D01*
X11711932Y47056036D01*
X11810763Y46990000D01*
X11711932Y46923964D01*
X11496036Y46708068D01*
X11326408Y46454200D01*
X11209565Y46172118D01*
X11150000Y45872662D01*
X11150000Y45567338D01*
X11209565Y45267882D01*
X11326408Y44985800D01*
X11496036Y44731932D01*
X11711932Y44516036D01*
X11810763Y44450000D01*
X11711932Y44383964D01*
X11496036Y44168068D01*
X11326408Y43914200D01*
X11209565Y43632118D01*
X11150000Y43332662D01*
X11150000Y43027338D01*
X11209565Y42727882D01*
X11326408Y42445800D01*
X11496036Y42191932D01*
X11497968Y42190000D01*
X11220493Y42190000D01*
X11144365Y42197498D01*
X11068237Y42190000D01*
X11068228Y42190000D01*
X10840513Y42167572D01*
X10548337Y42078941D01*
X10279066Y41935013D01*
X10043048Y41741318D01*
X9994513Y41682178D01*
X9159215Y40846880D01*
X9155071Y40867717D01*
X9147572Y40943853D01*
X9125365Y41017060D01*
X9110435Y41092118D01*
X9081148Y41162822D01*
X9058941Y41236029D01*
X9022877Y41303500D01*
X8993592Y41374200D01*
X8951078Y41437828D01*
X8915013Y41505300D01*
X8866481Y41564437D01*
X8823964Y41628068D01*
X8769848Y41682184D01*
X8721318Y41741318D01*
X8662184Y41789848D01*
X8608068Y41843964D01*
X8544437Y41886481D01*
X8485300Y41935013D01*
X8417828Y41971078D01*
X8354200Y42013592D01*
X8283500Y42042877D01*
X8216029Y42078941D01*
X8142822Y42101148D01*
X8072118Y42130435D01*
X7997060Y42145365D01*
X7923853Y42167572D01*
X7847717Y42175071D01*
X7772662Y42190000D01*
X4927338Y42190000D01*
X4852283Y42175071D01*
X4776147Y42167572D01*
X4702940Y42145365D01*
X4627882Y42130435D01*
X4557178Y42101148D01*
X4483971Y42078941D01*
X4416500Y42042877D01*
X4345800Y42013592D01*
X4282172Y41971078D01*
X4214700Y41935013D01*
X4155563Y41886481D01*
X4091932Y41843964D01*
X4037816Y41789848D01*
X3978682Y41741318D01*
X3930152Y41682184D01*
X3876036Y41628068D01*
X3833519Y41564437D01*
X3784987Y41505300D01*
X3748922Y41437828D01*
X3706408Y41374200D01*
X3677123Y41303500D01*
X3641059Y41236029D01*
X3618852Y41162822D01*
X3589565Y41092118D01*
X3574635Y41017060D01*
X3552428Y40943853D01*
X3544929Y40867717D01*
X3530000Y40792662D01*
X3530000Y40716138D01*
X3522501Y40640000D01*
X475000Y40640000D01*
X475000Y52232813D01*
X5820000Y52232813D01*
X5820000Y51947187D01*
X5875723Y51667051D01*
X5985027Y51403167D01*
X6143711Y51165679D01*
X6345679Y50963711D01*
X6583167Y50805027D01*
X6847051Y50695723D01*
X7127187Y50640000D01*
X7412813Y50640000D01*
X7570000Y50671267D01*
X7727187Y50640000D01*
X8012813Y50640000D01*
X8292949Y50695723D01*
X8556833Y50805027D01*
X8794321Y50963711D01*
X8996289Y51165679D01*
X9154973Y51403167D01*
X9264277Y51667051D01*
X9320000Y51947187D01*
X9320000Y52232813D01*
X9264277Y52512949D01*
X9154973Y52776833D01*
X8996289Y53014321D01*
X8794321Y53216289D01*
X8556833Y53374973D01*
X8292949Y53484277D01*
X8012813Y53540000D01*
X7727187Y53540000D01*
X7570000Y53508733D01*
X7412813Y53540000D01*
X7127187Y53540000D01*
X6847051Y53484277D01*
X6583167Y53374973D01*
X6345679Y53216289D01*
X6143711Y53014321D01*
X5985027Y52776833D01*
X5875723Y52512949D01*
X5820000Y52232813D01*
X475000Y52232813D01*
X475000Y57992662D01*
X3530000Y57992662D01*
X3530000Y57687338D01*
X3589565Y57387882D01*
X3706408Y57105800D01*
X3876036Y56851932D01*
X3934007Y56793961D01*
X3948769Y56745300D01*
X3965981Y56688559D01*
X4077409Y56480090D01*
X4080743Y56476028D01*
X4227366Y56297366D01*
X4273160Y56259784D01*
X5459784Y55073160D01*
X5497366Y55027366D01*
X5680090Y54877409D01*
X5888558Y54765981D01*
X6114759Y54697363D01*
X6291050Y54680000D01*
X6291052Y54680000D01*
X6349999Y54674194D01*
X6408946Y54680000D01*
X11707968Y54680000D01*
X11711932Y54676036D01*
X11810763Y54610000D01*
X11711932Y54543964D01*
X11496036Y54328068D01*
X11326408Y54074200D01*
X11209565Y53792118D01*
X11150000Y53492662D01*
X11150000Y53187338D01*
X11209565Y52887882D01*
X11326408Y52605800D01*
X11496036Y52351932D01*
X11711932Y52136036D01*
X11965800Y51966408D01*
X12247882Y51849565D01*
X12547338Y51790000D01*
X12852662Y51790000D01*
X13152118Y51849565D01*
X13434200Y51966408D01*
X13688068Y52136036D01*
X13903964Y52351932D01*
X14073592Y52605800D01*
X14190435Y52887882D01*
X14250000Y53187338D01*
X14250000Y53492662D01*
X14190435Y53792118D01*
X14073592Y54074200D01*
X13903964Y54328068D01*
X13688068Y54543964D01*
X13589237Y54610000D01*
X13688068Y54676036D01*
X13903964Y54891932D01*
X14073592Y55145800D01*
X14190435Y55427882D01*
X14250000Y55727338D01*
X14250000Y56032662D01*
X14190435Y56332118D01*
X14073592Y56614200D01*
X13903964Y56868068D01*
X13688068Y57083964D01*
X13589237Y57150000D01*
X13688068Y57216036D01*
X13903964Y57431932D01*
X14073592Y57685800D01*
X14190435Y57967882D01*
X14250000Y58267338D01*
X14250000Y58572662D01*
X14190435Y58872118D01*
X14073592Y59154200D01*
X13903964Y59408068D01*
X13688068Y59623964D01*
X13589237Y59690000D01*
X13688068Y59756036D01*
X13903964Y59971932D01*
X14073592Y60225800D01*
X14190435Y60507882D01*
X14250000Y60807338D01*
X14250000Y61112662D01*
X14190435Y61412118D01*
X14073592Y61694200D01*
X13903964Y61948068D01*
X13688068Y62163964D01*
X13589237Y62230000D01*
X13688068Y62296036D01*
X13903964Y62511932D01*
X14073592Y62765800D01*
X14190435Y63047882D01*
X14250000Y63347338D01*
X14250000Y63652662D01*
X14190435Y63952118D01*
X14073592Y64234200D01*
X13903964Y64488068D01*
X13688068Y64703964D01*
X13589237Y64770000D01*
X13688068Y64836036D01*
X13903964Y65051932D01*
X14073592Y65305800D01*
X14190435Y65587882D01*
X14250000Y65887338D01*
X14250000Y66192662D01*
X14190435Y66492118D01*
X14073592Y66774200D01*
X13903964Y67028068D01*
X13688068Y67243964D01*
X13589237Y67310000D01*
X13688068Y67376036D01*
X13903964Y67591932D01*
X14073592Y67845800D01*
X14190435Y68127882D01*
X14250000Y68427338D01*
X14250000Y68732662D01*
X14190435Y69032118D01*
X14073592Y69314200D01*
X13903964Y69568068D01*
X13688068Y69783964D01*
X13589237Y69850000D01*
X13688068Y69916036D01*
X13903964Y70131932D01*
X14073592Y70385800D01*
X14190435Y70667882D01*
X14250000Y70967338D01*
X14250000Y71272662D01*
X14190435Y71572118D01*
X14073592Y71854200D01*
X13903964Y72108068D01*
X13688068Y72323964D01*
X13589237Y72390000D01*
X13688068Y72456036D01*
X13903964Y72671932D01*
X14073592Y72925800D01*
X14190435Y73207882D01*
X14250000Y73507338D01*
X14250000Y73812662D01*
X14190435Y74112118D01*
X14073592Y74394200D01*
X13903964Y74648068D01*
X13688068Y74863964D01*
X13589237Y74930000D01*
X13688068Y74996036D01*
X13903964Y75211932D01*
X14073592Y75465800D01*
X14190435Y75747882D01*
X14250000Y76047338D01*
X14250000Y76352662D01*
X14190435Y76652118D01*
X14073592Y76934200D01*
X13903964Y77188068D01*
X13688068Y77403964D01*
X13589237Y77470000D01*
X13688068Y77536036D01*
X13903964Y77751932D01*
X14073592Y78005800D01*
X14190435Y78287882D01*
X14250000Y78587338D01*
X14250000Y78892662D01*
X14190435Y79192118D01*
X14073592Y79474200D01*
X13903964Y79728068D01*
X13688068Y79943964D01*
X13589237Y80010000D01*
X13688068Y80076036D01*
X13903964Y80291932D01*
X14073592Y80545800D01*
X14190435Y80827882D01*
X14250000Y81127338D01*
X14250000Y81432662D01*
X14190435Y81732118D01*
X14073592Y82014200D01*
X13903964Y82268068D01*
X13688068Y82483964D01*
X13434200Y82653592D01*
X13152118Y82770435D01*
X12852662Y82830000D01*
X12547338Y82830000D01*
X12247882Y82770435D01*
X11965800Y82653592D01*
X11711932Y82483964D01*
X11496036Y82268068D01*
X11326408Y82014200D01*
X11209565Y81732118D01*
X11150000Y81432662D01*
X11150000Y81127338D01*
X11209565Y80827882D01*
X11326408Y80545800D01*
X11496036Y80291932D01*
X11711932Y80076036D01*
X11810763Y80010000D01*
X11711932Y79943964D01*
X11496036Y79728068D01*
X11326408Y79474200D01*
X11209565Y79192118D01*
X11150000Y78892662D01*
X11150000Y78587338D01*
X11209565Y78287882D01*
X11326408Y78005800D01*
X11496036Y77751932D01*
X11711932Y77536036D01*
X11810763Y77470000D01*
X11711932Y77403964D01*
X11496036Y77188068D01*
X11326408Y76934200D01*
X11209565Y76652118D01*
X11150000Y76352662D01*
X11150000Y76047338D01*
X11209565Y75747882D01*
X11326408Y75465800D01*
X11496036Y75211932D01*
X11711932Y74996036D01*
X11810763Y74930000D01*
X11711932Y74863964D01*
X11496036Y74648068D01*
X11326408Y74394200D01*
X11209565Y74112118D01*
X11150000Y73812662D01*
X11150000Y73507338D01*
X11209565Y73207882D01*
X11326408Y72925800D01*
X11496036Y72671932D01*
X11711932Y72456036D01*
X11810763Y72390000D01*
X11711932Y72323964D01*
X11496036Y72108068D01*
X11326408Y71854200D01*
X11209565Y71572118D01*
X11150000Y71272662D01*
X11150000Y70967338D01*
X11209565Y70667882D01*
X11326408Y70385800D01*
X11496036Y70131932D01*
X11711932Y69916036D01*
X11810763Y69850000D01*
X11711932Y69783964D01*
X11496036Y69568068D01*
X11326408Y69314200D01*
X11209565Y69032118D01*
X11150000Y68732662D01*
X11150000Y68427338D01*
X11209565Y68127882D01*
X11326408Y67845800D01*
X11496036Y67591932D01*
X11711932Y67376036D01*
X11810763Y67310000D01*
X11711932Y67243964D01*
X11496036Y67028068D01*
X11326408Y66774200D01*
X11209565Y66492118D01*
X11150000Y66192662D01*
X11150000Y65887338D01*
X11209565Y65587882D01*
X11326408Y65305800D01*
X11496036Y65051932D01*
X11711932Y64836036D01*
X11810763Y64770000D01*
X11711932Y64703964D01*
X11496036Y64488068D01*
X11326408Y64234200D01*
X11209565Y63952118D01*
X11150000Y63652662D01*
X11150000Y63347338D01*
X11209565Y63047882D01*
X11326408Y62765800D01*
X11496036Y62511932D01*
X11711932Y62296036D01*
X11810763Y62230000D01*
X11711932Y62163964D01*
X11496036Y61948068D01*
X11326408Y61694200D01*
X11209565Y61412118D01*
X11150000Y61112662D01*
X11150000Y60807338D01*
X11209565Y60507882D01*
X11326408Y60225800D01*
X11496036Y59971932D01*
X11711932Y59756036D01*
X11810763Y59690000D01*
X11711932Y59623964D01*
X11496036Y59408068D01*
X11326408Y59154200D01*
X11209565Y58872118D01*
X11150000Y58572662D01*
X11150000Y58267338D01*
X11209565Y57967882D01*
X11326408Y57685800D01*
X11496036Y57431932D01*
X11711932Y57216036D01*
X11810763Y57150000D01*
X11711932Y57083964D01*
X11707968Y57080000D01*
X6847056Y57080000D01*
X6561279Y57365777D01*
X6570435Y57387882D01*
X6630000Y57687338D01*
X6630000Y57795628D01*
X6847051Y57705723D01*
X7127187Y57650000D01*
X7412813Y57650000D01*
X7570000Y57681267D01*
X7727187Y57650000D01*
X8012813Y57650000D01*
X8292949Y57705723D01*
X8556833Y57815027D01*
X8794321Y57973711D01*
X8996289Y58175679D01*
X9154973Y58413167D01*
X9264277Y58677051D01*
X9320000Y58957187D01*
X9320000Y59242813D01*
X9264277Y59522949D01*
X9154973Y59786833D01*
X8996289Y60024321D01*
X8794321Y60226289D01*
X8556833Y60384973D01*
X8292949Y60494277D01*
X8012813Y60550000D01*
X7727187Y60550000D01*
X7570000Y60518733D01*
X7412813Y60550000D01*
X7127187Y60550000D01*
X6847051Y60494277D01*
X6583167Y60384973D01*
X6345679Y60226289D01*
X6143711Y60024321D01*
X5985027Y59786833D01*
X5875723Y59522949D01*
X5840906Y59347913D01*
X5749910Y59422591D01*
X5541442Y59534019D01*
X5315241Y59602637D01*
X5080000Y59625806D01*
X4844760Y59602637D01*
X4618559Y59534019D01*
X4410091Y59422591D01*
X4227367Y59272634D01*
X4077410Y59089910D01*
X4007975Y58960007D01*
X3876036Y58828068D01*
X3706408Y58574200D01*
X3589565Y58292118D01*
X3530000Y57992662D01*
X475000Y57992662D01*
X475000Y70046983D01*
X3080000Y70046983D01*
X3080000Y69653017D01*
X3156859Y69266622D01*
X3307623Y68902645D01*
X3526499Y68575074D01*
X3805074Y68296499D01*
X4132645Y68077623D01*
X4496622Y67926859D01*
X4883017Y67850000D01*
X5276983Y67850000D01*
X5663378Y67926859D01*
X6027355Y68077623D01*
X6354926Y68296499D01*
X6633501Y68575074D01*
X6852377Y68902645D01*
X7003141Y69266622D01*
X7080000Y69653017D01*
X7080000Y70046983D01*
X7003141Y70433378D01*
X6852377Y70797355D01*
X6633501Y71124926D01*
X6354926Y71403501D01*
X6027355Y71622377D01*
X5663378Y71773141D01*
X5276983Y71850000D01*
X4883017Y71850000D01*
X4496622Y71773141D01*
X4132645Y71622377D01*
X3805074Y71403501D01*
X3526499Y71124926D01*
X3307623Y70797355D01*
X3156859Y70433378D01*
X3080000Y70046983D01*
X475000Y70046983D01*
X475000Y85885000D01*
X49055000Y85885000D01*
X49055001Y475000D01*
G37*
X49055001Y475000D02*
X475000Y475000D01*
X475000Y5276983D01*
X3080000Y5276983D01*
X3080000Y4883017D01*
X3156859Y4496622D01*
X3307623Y4132645D01*
X3526499Y3805074D01*
X3805074Y3526499D01*
X4132645Y3307623D01*
X4496622Y3156859D01*
X4883017Y3080000D01*
X5276983Y3080000D01*
X5663378Y3156859D01*
X6027355Y3307623D01*
X6354926Y3526499D01*
X6633501Y3805074D01*
X6852377Y4132645D01*
X7003141Y4496622D01*
X7080000Y4883017D01*
X7080000Y5276983D01*
X7003141Y5663378D01*
X6852377Y6027355D01*
X6633501Y6354926D01*
X6354926Y6633501D01*
X6027355Y6852377D01*
X5663378Y7003141D01*
X5276983Y7080000D01*
X4883017Y7080000D01*
X4496622Y7003141D01*
X4132645Y6852377D01*
X3805074Y6633501D01*
X3526499Y6354926D01*
X3307623Y6027355D01*
X3156859Y5663378D01*
X3080000Y5276983D01*
X475000Y5276983D01*
X475000Y15240000D01*
X3522502Y15240000D01*
X3530000Y15163872D01*
X3530000Y15087338D01*
X3544931Y15012272D01*
X3552429Y14936148D01*
X3574633Y14862950D01*
X3589565Y14787882D01*
X3618854Y14717173D01*
X3641059Y14643972D01*
X3677121Y14576503D01*
X3706408Y14505800D01*
X3748923Y14442171D01*
X3784987Y14374700D01*
X3833519Y14315563D01*
X3876036Y14251932D01*
X3930152Y14197816D01*
X3978682Y14138682D01*
X4037816Y14090152D01*
X4091932Y14036036D01*
X4155563Y13993519D01*
X4184222Y13970000D01*
X4155563Y13946481D01*
X4091932Y13903964D01*
X4037816Y13849848D01*
X3978682Y13801318D01*
X3930152Y13742184D01*
X3876036Y13688068D01*
X3833519Y13624437D01*
X3784987Y13565300D01*
X3748923Y13497829D01*
X3706408Y13434200D01*
X3677121Y13363497D01*
X3641059Y13296028D01*
X3618854Y13222827D01*
X3589565Y13152118D01*
X3574633Y13077050D01*
X3552429Y13003852D01*
X3544931Y12927728D01*
X3530000Y12852662D01*
X3530000Y12776128D01*
X3522502Y12700000D01*
X3530000Y12623872D01*
X3530000Y12547338D01*
X3544931Y12472272D01*
X3552429Y12396148D01*
X3574633Y12322950D01*
X3589565Y12247882D01*
X3618854Y12177173D01*
X3641059Y12103972D01*
X3677121Y12036503D01*
X3706408Y11965800D01*
X3748923Y11902171D01*
X3784987Y11834700D01*
X3833518Y11775565D01*
X3876036Y11711932D01*
X4091932Y11496036D01*
X4091938Y11496032D01*
X6470147Y9117822D01*
X6518682Y9058682D01*
X6754700Y8864987D01*
X7023971Y8721059D01*
X7316147Y8632428D01*
X7543862Y8610000D01*
X7543871Y8610000D01*
X7619999Y8602502D01*
X7696127Y8610000D01*
X19117968Y8610000D01*
X19116036Y8608068D01*
X19073519Y8544437D01*
X19024987Y8485300D01*
X18988922Y8417828D01*
X18946408Y8354200D01*
X18917123Y8283500D01*
X18881059Y8216029D01*
X18858852Y8142822D01*
X18829565Y8072118D01*
X18814635Y7997060D01*
X18792428Y7923853D01*
X18784929Y7847717D01*
X18770000Y7772662D01*
X18770000Y7696138D01*
X18762501Y7620000D01*
X18770000Y7543862D01*
X18770000Y7467338D01*
X18784929Y7392283D01*
X18792428Y7316147D01*
X18814635Y7242940D01*
X18829565Y7167882D01*
X18858852Y7097178D01*
X18881059Y7023971D01*
X18917123Y6956500D01*
X18946408Y6885800D01*
X18988922Y6822172D01*
X19024987Y6754700D01*
X19073519Y6695563D01*
X19116036Y6631932D01*
X19117968Y6630000D01*
X17627338Y6630000D01*
X17552283Y6615071D01*
X17476147Y6607572D01*
X17402940Y6585365D01*
X17327882Y6570435D01*
X17257178Y6541148D01*
X17183971Y6518941D01*
X17116500Y6482877D01*
X17045800Y6453592D01*
X16982172Y6411078D01*
X16914700Y6375013D01*
X16855563Y6326481D01*
X16791932Y6283964D01*
X16737816Y6229848D01*
X16678682Y6181318D01*
X16630152Y6122184D01*
X16576036Y6068068D01*
X16533519Y6004437D01*
X16484987Y5945300D01*
X16448922Y5877828D01*
X16406408Y5814200D01*
X16377123Y5743500D01*
X16341059Y5676029D01*
X16318852Y5602822D01*
X16289565Y5532118D01*
X16274635Y5457060D01*
X16252428Y5383853D01*
X16244929Y5307717D01*
X16230000Y5232662D01*
X16230000Y5156138D01*
X16222501Y5080000D01*
X16230000Y5003862D01*
X16230000Y4927338D01*
X16244929Y4852283D01*
X16252428Y4776147D01*
X16274635Y4702940D01*
X16289565Y4627882D01*
X16318852Y4557178D01*
X16341059Y4483971D01*
X16377123Y4416500D01*
X16406408Y4345800D01*
X16448922Y4282172D01*
X16484987Y4214700D01*
X16533519Y4155563D01*
X16576036Y4091932D01*
X16630152Y4037816D01*
X16678682Y3978682D01*
X16737816Y3930152D01*
X16791932Y3876036D01*
X16855563Y3833519D01*
X16914700Y3784987D01*
X16982172Y3748922D01*
X17045800Y3706408D01*
X17116500Y3677123D01*
X17183971Y3641059D01*
X17257178Y3618852D01*
X17327882Y3589565D01*
X17402940Y3574635D01*
X17476147Y3552428D01*
X17552283Y3544929D01*
X17627338Y3530000D01*
X20472662Y3530000D01*
X20547717Y3544929D01*
X20623853Y3552428D01*
X20697060Y3574635D01*
X20772118Y3589565D01*
X20842822Y3618852D01*
X20916029Y3641059D01*
X20983500Y3677123D01*
X21054200Y3706408D01*
X21117828Y3748922D01*
X21185300Y3784987D01*
X21244437Y3833519D01*
X21308068Y3876036D01*
X21362184Y3930152D01*
X21421318Y3978682D01*
X21469848Y4037816D01*
X21523964Y4091932D01*
X21566481Y4155563D01*
X21615013Y4214700D01*
X21651078Y4282172D01*
X21693592Y4345800D01*
X21722877Y4416500D01*
X21758941Y4483971D01*
X21781148Y4557178D01*
X21810435Y4627882D01*
X21825365Y4702940D01*
X21847572Y4776147D01*
X21855071Y4852283D01*
X21870000Y4927338D01*
X21870000Y5003862D01*
X21877499Y5080000D01*
X21870000Y5156138D01*
X21870000Y5232662D01*
X21855071Y5307717D01*
X21847572Y5383853D01*
X21825365Y5457060D01*
X21810435Y5532118D01*
X21781148Y5602822D01*
X21758941Y5676029D01*
X21722877Y5743500D01*
X21693592Y5814200D01*
X21651078Y5877828D01*
X21615013Y5945300D01*
X21566481Y6004437D01*
X21523964Y6068068D01*
X21522032Y6070000D01*
X26737968Y6070000D01*
X26736036Y6068068D01*
X26693519Y6004437D01*
X26644987Y5945300D01*
X26608922Y5877828D01*
X26566408Y5814200D01*
X26537123Y5743500D01*
X26501059Y5676029D01*
X26478852Y5602822D01*
X26449565Y5532118D01*
X26434635Y5457060D01*
X26412428Y5383853D01*
X26404929Y5307717D01*
X26390000Y5232662D01*
X26390000Y5156138D01*
X26382501Y5080000D01*
X26390000Y5003862D01*
X26390000Y4927338D01*
X26404929Y4852283D01*
X26412428Y4776147D01*
X26434635Y4702940D01*
X26449565Y4627882D01*
X26478852Y4557178D01*
X26501059Y4483971D01*
X26537123Y4416500D01*
X26566408Y4345800D01*
X26608922Y4282172D01*
X26644987Y4214700D01*
X26693519Y4155563D01*
X26736036Y4091932D01*
X26790152Y4037816D01*
X26838682Y3978682D01*
X26897816Y3930152D01*
X26951932Y3876036D01*
X27015563Y3833519D01*
X27074700Y3784987D01*
X27142172Y3748922D01*
X27205800Y3706408D01*
X27276500Y3677123D01*
X27343971Y3641059D01*
X27417178Y3618852D01*
X27487882Y3589565D01*
X27562940Y3574635D01*
X27636147Y3552428D01*
X27712283Y3544929D01*
X27787338Y3530000D01*
X30632662Y3530000D01*
X30707717Y3544929D01*
X30783853Y3552428D01*
X30857060Y3574635D01*
X30932118Y3589565D01*
X31002822Y3618852D01*
X31076029Y3641059D01*
X31143500Y3677123D01*
X31214200Y3706408D01*
X31277828Y3748922D01*
X31345300Y3784987D01*
X31404437Y3833519D01*
X31468068Y3876036D01*
X31522184Y3930152D01*
X31581318Y3978682D01*
X31629848Y4037816D01*
X31683964Y4091932D01*
X31726481Y4155563D01*
X31775013Y4214700D01*
X31811078Y4282172D01*
X31853592Y4345800D01*
X31882877Y4416500D01*
X31918941Y4483971D01*
X31941148Y4557178D01*
X31970435Y4627882D01*
X31985365Y4702940D01*
X32007572Y4776147D01*
X32015071Y4852283D01*
X32030000Y4927338D01*
X32030000Y5003862D01*
X32037499Y5080000D01*
X32030000Y5156138D01*
X32030000Y5232662D01*
X32021185Y5276983D01*
X42450000Y5276983D01*
X42450000Y4883017D01*
X42526859Y4496622D01*
X42677623Y4132645D01*
X42896499Y3805074D01*
X43175074Y3526499D01*
X43502645Y3307623D01*
X43866622Y3156859D01*
X44253017Y3080000D01*
X44646983Y3080000D01*
X45033378Y3156859D01*
X45397355Y3307623D01*
X45724926Y3526499D01*
X46003501Y3805074D01*
X46222377Y4132645D01*
X46373141Y4496622D01*
X46450000Y4883017D01*
X46450000Y5276983D01*
X46373141Y5663378D01*
X46222377Y6027355D01*
X46003501Y6354926D01*
X45724926Y6633501D01*
X45397355Y6852377D01*
X45033378Y7003141D01*
X44646983Y7080000D01*
X44253017Y7080000D01*
X43866622Y7003141D01*
X43502645Y6852377D01*
X43175074Y6633501D01*
X42896499Y6354926D01*
X42677623Y6027355D01*
X42526859Y5663378D01*
X42450000Y5276983D01*
X32021185Y5276983D01*
X32015071Y5307717D01*
X32007572Y5383853D01*
X31985365Y5457060D01*
X31970435Y5532118D01*
X31941148Y5602822D01*
X31918941Y5676029D01*
X31882877Y5743500D01*
X31853592Y5814200D01*
X31811078Y5877828D01*
X31775013Y5945300D01*
X31726481Y6004437D01*
X31683964Y6068068D01*
X31682032Y6070000D01*
X33172662Y6070000D01*
X33247717Y6084929D01*
X33323853Y6092428D01*
X33397060Y6114635D01*
X33472118Y6129565D01*
X33542822Y6158852D01*
X33616029Y6181059D01*
X33683500Y6217123D01*
X33754200Y6246408D01*
X33817828Y6288922D01*
X33885300Y6324987D01*
X33944437Y6373519D01*
X34008068Y6416036D01*
X34062184Y6470152D01*
X34121318Y6518682D01*
X34169848Y6577816D01*
X34223964Y6631932D01*
X34266481Y6695563D01*
X34315013Y6754700D01*
X34351078Y6822172D01*
X34393592Y6885800D01*
X34422877Y6956500D01*
X34458941Y7023971D01*
X34481148Y7097178D01*
X34510435Y7167882D01*
X34525365Y7242940D01*
X34547572Y7316147D01*
X34555071Y7392283D01*
X34570000Y7467338D01*
X34570000Y7543862D01*
X34577499Y7620000D01*
X34570000Y7696138D01*
X34570000Y7772662D01*
X34555071Y7847717D01*
X34547572Y7923853D01*
X34525365Y7997060D01*
X34510435Y8072118D01*
X34481148Y8142822D01*
X34458941Y8216029D01*
X34422877Y8283500D01*
X34393592Y8354200D01*
X34351078Y8417828D01*
X34315013Y8485300D01*
X34266481Y8544437D01*
X34223964Y8608068D01*
X34222032Y8610000D01*
X44373862Y8610000D01*
X44450000Y8602501D01*
X44526138Y8610000D01*
X44753853Y8632428D01*
X45046029Y8721059D01*
X45315300Y8864987D01*
X45551318Y9058682D01*
X45745013Y9294700D01*
X45888941Y9563971D01*
X45977572Y9856147D01*
X46007499Y10160000D01*
X46000000Y10236138D01*
X46000000Y12852662D01*
X45985071Y12927717D01*
X45977572Y13003853D01*
X45955365Y13077060D01*
X45940435Y13152118D01*
X45911148Y13222822D01*
X45888941Y13296029D01*
X45852877Y13363500D01*
X45823592Y13434200D01*
X45781078Y13497828D01*
X45745013Y13565300D01*
X45696481Y13624437D01*
X45653964Y13688068D01*
X45599848Y13742184D01*
X45551318Y13801318D01*
X45492184Y13849848D01*
X45438068Y13903964D01*
X45374437Y13946481D01*
X45345778Y13970000D01*
X45374433Y13993516D01*
X45438068Y14036036D01*
X45492185Y14090153D01*
X45551318Y14138682D01*
X45599848Y14197816D01*
X45653964Y14251932D01*
X45696481Y14315563D01*
X45745013Y14374700D01*
X45781078Y14442172D01*
X45823592Y14505800D01*
X45852877Y14576500D01*
X45888941Y14643971D01*
X45911148Y14717178D01*
X45940435Y14787882D01*
X45955365Y14862940D01*
X45977572Y14936147D01*
X45985071Y15012283D01*
X46000000Y15087338D01*
X46000000Y17703862D01*
X46007499Y17780000D01*
X46000000Y17856138D01*
X46000000Y17932662D01*
X45985071Y18007717D01*
X45977572Y18083853D01*
X45955365Y18157060D01*
X45940435Y18232118D01*
X45911148Y18302822D01*
X45888941Y18376029D01*
X45852877Y18443500D01*
X45823592Y18514200D01*
X45781078Y18577828D01*
X45745013Y18645300D01*
X45696481Y18704437D01*
X45653964Y18768068D01*
X45599848Y18822184D01*
X45551318Y18881318D01*
X45492184Y18929848D01*
X45438068Y18983964D01*
X45374437Y19026481D01*
X45315300Y19075013D01*
X45247828Y19111078D01*
X45184200Y19153592D01*
X45113500Y19182877D01*
X45046029Y19218941D01*
X44972822Y19241148D01*
X44902118Y19270435D01*
X44827060Y19285365D01*
X44753853Y19307572D01*
X44677717Y19315071D01*
X44602662Y19330000D01*
X44526138Y19330000D01*
X44450000Y19337499D01*
X44373862Y19330000D01*
X44297338Y19330000D01*
X44222283Y19315071D01*
X44146147Y19307572D01*
X44072940Y19285365D01*
X43997882Y19270435D01*
X43927178Y19241148D01*
X43853971Y19218941D01*
X43786500Y19182877D01*
X43715800Y19153592D01*
X43652172Y19111078D01*
X43584700Y19075013D01*
X43525563Y19026481D01*
X43461932Y18983964D01*
X43407816Y18929848D01*
X43348682Y18881318D01*
X43300152Y18822184D01*
X43246036Y18768068D01*
X43203519Y18704437D01*
X43154987Y18645300D01*
X43118922Y18577828D01*
X43076408Y18514200D01*
X43047123Y18443500D01*
X43011059Y18376029D01*
X42988852Y18302822D01*
X42959565Y18232118D01*
X42944635Y18157060D01*
X42922428Y18083853D01*
X42914929Y18007717D01*
X42900000Y17932662D01*
X42900000Y17856138D01*
X42892501Y17780000D01*
X42900000Y17703862D01*
X42900000Y17627338D01*
X42900001Y17627333D01*
X42900000Y15392662D01*
X42900000Y15087338D01*
X42914929Y15012282D01*
X42922428Y14936148D01*
X42944635Y14862943D01*
X42959565Y14787882D01*
X42988853Y14717175D01*
X43011059Y14643972D01*
X43047121Y14576505D01*
X43076408Y14505800D01*
X43118925Y14442168D01*
X43154987Y14374701D01*
X43203516Y14315567D01*
X43246036Y14251932D01*
X43300153Y14197815D01*
X43348682Y14138682D01*
X43407816Y14090152D01*
X43461932Y14036036D01*
X43525563Y13993519D01*
X43554222Y13970000D01*
X43525569Y13946484D01*
X43461932Y13903964D01*
X43407812Y13849844D01*
X43348683Y13801318D01*
X43300157Y13742189D01*
X43246036Y13688068D01*
X43203515Y13624430D01*
X43154988Y13565300D01*
X43118927Y13497835D01*
X43076408Y13434200D01*
X43047119Y13363492D01*
X43011060Y13296029D01*
X42988856Y13222831D01*
X42959565Y13152118D01*
X42944633Y13077050D01*
X42922429Y13003853D01*
X42914931Y12927727D01*
X42900000Y12852662D01*
X42900000Y12547338D01*
X42900001Y12547333D01*
X42900001Y11710000D01*
X27787338Y11710000D01*
X27712283Y11695071D01*
X27636147Y11687572D01*
X27562940Y11665365D01*
X27487882Y11650435D01*
X27417178Y11621148D01*
X27343971Y11598941D01*
X27276500Y11562877D01*
X27205800Y11533592D01*
X27142172Y11491078D01*
X27074700Y11455013D01*
X27015563Y11406481D01*
X26951932Y11363964D01*
X26897816Y11309848D01*
X26838682Y11261318D01*
X26790152Y11202184D01*
X26736036Y11148068D01*
X26693519Y11084437D01*
X26644987Y11025300D01*
X26608922Y10957828D01*
X26566408Y10894200D01*
X26537123Y10823500D01*
X26501059Y10756029D01*
X26478852Y10682822D01*
X26449565Y10612118D01*
X26434635Y10537060D01*
X26412428Y10463853D01*
X26404929Y10387717D01*
X26390000Y10312662D01*
X26390000Y10236138D01*
X26382501Y10160000D01*
X26390000Y10083863D01*
X26390000Y10007338D01*
X26404929Y9932283D01*
X26412428Y9856147D01*
X26434635Y9782940D01*
X26449565Y9707882D01*
X26478852Y9637178D01*
X26501059Y9563971D01*
X26537123Y9496500D01*
X26566408Y9425800D01*
X26608922Y9362172D01*
X26644987Y9294700D01*
X26693519Y9235563D01*
X26736036Y9171932D01*
X26737968Y9170000D01*
X21522032Y9170000D01*
X21523964Y9171932D01*
X21566481Y9235563D01*
X21615013Y9294700D01*
X21651078Y9362172D01*
X21693592Y9425800D01*
X21722877Y9496500D01*
X21758941Y9563971D01*
X21781148Y9637178D01*
X21810435Y9707882D01*
X21825365Y9782940D01*
X21847572Y9856147D01*
X21855071Y9932283D01*
X21870000Y10007338D01*
X21870000Y10083863D01*
X21877499Y10160000D01*
X21870000Y10236138D01*
X21870000Y10312662D01*
X21855071Y10387717D01*
X21847572Y10463853D01*
X21825365Y10537060D01*
X21810435Y10612118D01*
X21781148Y10682822D01*
X21758941Y10756029D01*
X21722877Y10823500D01*
X21693592Y10894200D01*
X21651078Y10957828D01*
X21615013Y11025300D01*
X21566481Y11084437D01*
X21523964Y11148068D01*
X21469848Y11202184D01*
X21421318Y11261318D01*
X21362184Y11309848D01*
X21308068Y11363964D01*
X21244437Y11406481D01*
X21185300Y11455013D01*
X21117828Y11491078D01*
X21054200Y11533592D01*
X20983500Y11562877D01*
X20916029Y11598941D01*
X20842822Y11621148D01*
X20772118Y11650435D01*
X20697060Y11665365D01*
X20623853Y11687572D01*
X20547717Y11695071D01*
X20472662Y11710000D01*
X8262031Y11710000D01*
X6283968Y13688062D01*
X6283964Y13688068D01*
X6068068Y13903964D01*
X6004435Y13946482D01*
X5975778Y13970000D01*
X6004435Y13993518D01*
X6068068Y14036036D01*
X6283964Y14251932D01*
X6283968Y14251938D01*
X8262031Y16230000D01*
X20472662Y16230000D01*
X20547717Y16244929D01*
X20623853Y16252428D01*
X20697060Y16274635D01*
X20772118Y16289565D01*
X20842822Y16318852D01*
X20916029Y16341059D01*
X20983500Y16377123D01*
X21054200Y16406408D01*
X21117828Y16448922D01*
X21185300Y16484987D01*
X21244437Y16533519D01*
X21308068Y16576036D01*
X21362184Y16630152D01*
X21421318Y16678682D01*
X21469848Y16737816D01*
X21523964Y16791932D01*
X21566481Y16855563D01*
X21615013Y16914700D01*
X21651078Y16982172D01*
X21693592Y17045800D01*
X21722877Y17116500D01*
X21758941Y17183971D01*
X21781148Y17257178D01*
X21810435Y17327882D01*
X21825365Y17402940D01*
X21847572Y17476147D01*
X21855071Y17552283D01*
X21870000Y17627338D01*
X21870000Y17703862D01*
X21877499Y17780000D01*
X21870000Y17856138D01*
X21870000Y17932662D01*
X21855071Y18007717D01*
X21847572Y18083853D01*
X21825365Y18157060D01*
X21810435Y18232118D01*
X21781148Y18302822D01*
X21758941Y18376029D01*
X21722877Y18443500D01*
X21693592Y18514200D01*
X21651078Y18577828D01*
X21615013Y18645300D01*
X21566481Y18704437D01*
X21523964Y18768068D01*
X21522032Y18770000D01*
X25323862Y18770000D01*
X25400000Y18762501D01*
X25476138Y18770000D01*
X26737968Y18770000D01*
X26736036Y18768068D01*
X26693519Y18704437D01*
X26644987Y18645300D01*
X26608922Y18577828D01*
X26566408Y18514200D01*
X26537123Y18443500D01*
X26501059Y18376029D01*
X26478852Y18302822D01*
X26449565Y18232118D01*
X26434635Y18157060D01*
X26412428Y18083853D01*
X26404929Y18007717D01*
X26390000Y17932662D01*
X26390000Y17856138D01*
X26382501Y17780000D01*
X26390000Y17703862D01*
X26390000Y17627338D01*
X26404929Y17552283D01*
X26412428Y17476147D01*
X26434635Y17402940D01*
X26449565Y17327882D01*
X26478852Y17257178D01*
X26501059Y17183971D01*
X26537123Y17116500D01*
X26566408Y17045800D01*
X26608922Y16982172D01*
X26644987Y16914700D01*
X26693519Y16855563D01*
X26736036Y16791932D01*
X26790152Y16737816D01*
X26838682Y16678682D01*
X26897816Y16630152D01*
X26951932Y16576036D01*
X27015563Y16533519D01*
X27074700Y16484987D01*
X27142172Y16448922D01*
X27205800Y16406408D01*
X27276500Y16377123D01*
X27343971Y16341059D01*
X27417178Y16318852D01*
X27487882Y16289565D01*
X27562940Y16274635D01*
X27636147Y16252428D01*
X27712283Y16244929D01*
X27787338Y16230000D01*
X36982662Y16230000D01*
X37057717Y16244929D01*
X37133853Y16252428D01*
X37207060Y16274635D01*
X37282118Y16289565D01*
X37352822Y16318852D01*
X37426029Y16341059D01*
X37493500Y16377123D01*
X37564200Y16406408D01*
X37627828Y16448922D01*
X37695300Y16484987D01*
X37754437Y16533519D01*
X37818068Y16576036D01*
X37872184Y16630152D01*
X37931318Y16678682D01*
X37979848Y16737816D01*
X38033964Y16791932D01*
X38076481Y16855563D01*
X38125013Y16914700D01*
X38161078Y16982172D01*
X38203592Y17045800D01*
X38232877Y17116500D01*
X38268941Y17183971D01*
X38291148Y17257178D01*
X38320435Y17327882D01*
X38335365Y17402940D01*
X38357572Y17476147D01*
X38365071Y17552283D01*
X38380000Y17627338D01*
X38380000Y17703862D01*
X38387499Y17780000D01*
X38380000Y17856138D01*
X38380000Y17932662D01*
X38365071Y18007717D01*
X38357572Y18083853D01*
X38335365Y18157060D01*
X38320435Y18232118D01*
X38291148Y18302822D01*
X38268941Y18376029D01*
X38232877Y18443500D01*
X38203592Y18514200D01*
X38161078Y18577828D01*
X38125013Y18645300D01*
X38076481Y18704437D01*
X38033964Y18768068D01*
X37979848Y18822184D01*
X37931318Y18881318D01*
X37872184Y18929848D01*
X37818068Y18983964D01*
X37754437Y19026481D01*
X37695300Y19075013D01*
X37627828Y19111078D01*
X37564200Y19153592D01*
X37493500Y19182877D01*
X37426029Y19218941D01*
X37352822Y19241148D01*
X37282118Y19270435D01*
X37207060Y19285365D01*
X37133853Y19307572D01*
X37057717Y19315071D01*
X36982662Y19330000D01*
X34222032Y19330000D01*
X34223964Y19331932D01*
X34266481Y19395563D01*
X34315013Y19454700D01*
X34351078Y19522172D01*
X34393592Y19585800D01*
X34422877Y19656500D01*
X34458941Y19723971D01*
X34481148Y19797178D01*
X34510435Y19867882D01*
X34525365Y19942940D01*
X34547572Y20016147D01*
X34555071Y20092283D01*
X34570000Y20167338D01*
X34570000Y20243863D01*
X34577499Y20320000D01*
X34570000Y20396138D01*
X34570000Y29287326D01*
X34694700Y29184987D01*
X34963971Y29041059D01*
X35256147Y28952428D01*
X35483862Y28930000D01*
X35560000Y28922501D01*
X35636138Y28930000D01*
X38252662Y28930000D01*
X38327717Y28944929D01*
X38403853Y28952428D01*
X38477060Y28974635D01*
X38552118Y28989565D01*
X38622822Y29018852D01*
X38696029Y29041059D01*
X38763500Y29077123D01*
X38834200Y29106408D01*
X38897828Y29148922D01*
X38965300Y29184987D01*
X39024437Y29233519D01*
X39088068Y29276036D01*
X39142184Y29330152D01*
X39201318Y29378682D01*
X39249848Y29437816D01*
X39303964Y29491932D01*
X39346481Y29555563D01*
X39370001Y29584222D01*
X39393515Y29555570D01*
X39436036Y29491932D01*
X39490157Y29437811D01*
X39538683Y29378682D01*
X39597812Y29330156D01*
X39651932Y29276036D01*
X39715569Y29233516D01*
X39774701Y29184987D01*
X39842168Y29148925D01*
X39905800Y29106408D01*
X39976505Y29077121D01*
X40043972Y29041059D01*
X40117175Y29018853D01*
X40187882Y28989565D01*
X40262943Y28974635D01*
X40336148Y28952428D01*
X40412282Y28944929D01*
X40487338Y28930000D01*
X40563862Y28930000D01*
X40640000Y28922501D01*
X40716138Y28930000D01*
X40792662Y28930000D01*
X40867717Y28944929D01*
X40943853Y28952428D01*
X41017060Y28974635D01*
X41092118Y28989565D01*
X41162822Y29018852D01*
X41236029Y29041059D01*
X41303500Y29077123D01*
X41374200Y29106408D01*
X41437828Y29148922D01*
X41505300Y29184987D01*
X41564437Y29233519D01*
X41628068Y29276036D01*
X41682184Y29330152D01*
X41741318Y29378682D01*
X41789848Y29437816D01*
X41843964Y29491932D01*
X41886481Y29555563D01*
X41935013Y29614700D01*
X41971078Y29682172D01*
X42013592Y29745800D01*
X42042877Y29816500D01*
X42078941Y29883971D01*
X42101148Y29957178D01*
X42130435Y30027882D01*
X42145365Y30102940D01*
X42167572Y30176147D01*
X42175071Y30252283D01*
X42190000Y30327338D01*
X42190000Y34917970D01*
X45492179Y38220148D01*
X45551318Y38268682D01*
X45745013Y38504700D01*
X45888941Y38773971D01*
X45977572Y39066147D01*
X45990885Y39201318D01*
X46007499Y39370000D01*
X46000000Y39446138D01*
X46000000Y43332662D01*
X45985071Y43407717D01*
X45977572Y43483853D01*
X45955365Y43557060D01*
X45940435Y43632118D01*
X45911148Y43702822D01*
X45888941Y43776029D01*
X45852877Y43843500D01*
X45823592Y43914200D01*
X45781078Y43977828D01*
X45745013Y44045300D01*
X45696481Y44104437D01*
X45653964Y44168068D01*
X45599848Y44222184D01*
X45551318Y44281318D01*
X45492184Y44329848D01*
X45438068Y44383964D01*
X45374437Y44426481D01*
X45345778Y44450000D01*
X45374437Y44473519D01*
X45438068Y44516036D01*
X45492184Y44570152D01*
X45551318Y44618682D01*
X45599848Y44677816D01*
X45653964Y44731932D01*
X45696481Y44795563D01*
X45745013Y44854700D01*
X45781078Y44922172D01*
X45823592Y44985800D01*
X45852877Y45056500D01*
X45888941Y45123971D01*
X45911148Y45197178D01*
X45940435Y45267882D01*
X45955365Y45342940D01*
X45977572Y45416147D01*
X45985071Y45492283D01*
X46000000Y45567338D01*
X46000000Y45643862D01*
X46007499Y45720000D01*
X46000000Y45796138D01*
X46000000Y45872662D01*
X45985071Y45947717D01*
X45977572Y46023853D01*
X45955365Y46097060D01*
X45940435Y46172118D01*
X45911148Y46242822D01*
X45888941Y46316029D01*
X45852877Y46383500D01*
X45823592Y46454200D01*
X45781078Y46517828D01*
X45745013Y46585300D01*
X45696481Y46644437D01*
X45653964Y46708068D01*
X45599848Y46762184D01*
X45551318Y46821318D01*
X45492184Y46869848D01*
X45438068Y46923964D01*
X45374437Y46966481D01*
X45345778Y46990000D01*
X45374437Y47013519D01*
X45438068Y47056036D01*
X45492184Y47110152D01*
X45551318Y47158682D01*
X45599848Y47217816D01*
X45653964Y47271932D01*
X45696481Y47335563D01*
X45745013Y47394700D01*
X45781078Y47462172D01*
X45823592Y47525800D01*
X45852877Y47596500D01*
X45888941Y47663971D01*
X45911148Y47737178D01*
X45940435Y47807882D01*
X45955365Y47882940D01*
X45977572Y47956147D01*
X45985071Y48032283D01*
X46000000Y48107338D01*
X46000000Y48183862D01*
X46007499Y48260000D01*
X46000000Y48336138D01*
X46000000Y48412662D01*
X45985071Y48487717D01*
X45977572Y48563853D01*
X45955365Y48637060D01*
X45940435Y48712118D01*
X45911148Y48782822D01*
X45888941Y48856029D01*
X45852877Y48923500D01*
X45823592Y48994200D01*
X45781078Y49057828D01*
X45745013Y49125300D01*
X45696481Y49184437D01*
X45653964Y49248068D01*
X45599848Y49302184D01*
X45551318Y49361318D01*
X45492184Y49409848D01*
X45438068Y49463964D01*
X45374437Y49506481D01*
X45345778Y49530000D01*
X45374437Y49553519D01*
X45438068Y49596036D01*
X45492184Y49650152D01*
X45551318Y49698682D01*
X45599848Y49757816D01*
X45653964Y49811932D01*
X45696481Y49875563D01*
X45745013Y49934700D01*
X45781078Y50002172D01*
X45823592Y50065800D01*
X45852877Y50136500D01*
X45888941Y50203971D01*
X45911148Y50277178D01*
X45940435Y50347882D01*
X45955365Y50422940D01*
X45977572Y50496147D01*
X45985071Y50572283D01*
X46000000Y50647338D01*
X46000000Y50723862D01*
X46007499Y50800000D01*
X46000000Y50876138D01*
X46000000Y50952662D01*
X45985071Y51027717D01*
X45977572Y51103853D01*
X45955365Y51177060D01*
X45940435Y51252118D01*
X45911148Y51322822D01*
X45888941Y51396029D01*
X45852877Y51463500D01*
X45823592Y51534200D01*
X45781078Y51597828D01*
X45745013Y51665300D01*
X45696481Y51724437D01*
X45653964Y51788068D01*
X45599848Y51842184D01*
X45551318Y51901318D01*
X45492184Y51949848D01*
X45438068Y52003964D01*
X45374437Y52046481D01*
X45315300Y52095013D01*
X45247828Y52131078D01*
X45184200Y52173592D01*
X45113500Y52202877D01*
X45046029Y52238941D01*
X44972822Y52261148D01*
X44902118Y52290435D01*
X44827060Y52305365D01*
X44753853Y52327572D01*
X44677717Y52335071D01*
X44602662Y52350000D01*
X39302032Y52350000D01*
X39303964Y52351932D01*
X39473592Y52605800D01*
X39590435Y52887882D01*
X39650000Y53187338D01*
X39650000Y53492662D01*
X39590435Y53792118D01*
X39473592Y54074200D01*
X39303964Y54328068D01*
X39088068Y54543964D01*
X38992843Y54607591D01*
X39024437Y54633519D01*
X39088068Y54676036D01*
X39142184Y54730152D01*
X39201318Y54778682D01*
X39249848Y54837816D01*
X39303964Y54891932D01*
X39346481Y54955563D01*
X39395013Y55014700D01*
X39431078Y55082172D01*
X39473592Y55145800D01*
X39502877Y55216500D01*
X39538941Y55283971D01*
X39561148Y55357178D01*
X39590435Y55427882D01*
X39605365Y55502940D01*
X39627572Y55576147D01*
X39635071Y55652283D01*
X39650000Y55727338D01*
X39650000Y55803862D01*
X39657499Y55880000D01*
X39650000Y55956138D01*
X39650000Y56032662D01*
X39635071Y56107717D01*
X39627572Y56183853D01*
X39605365Y56257060D01*
X39590435Y56332118D01*
X39561148Y56402822D01*
X39538941Y56476029D01*
X39502877Y56543500D01*
X39473592Y56614200D01*
X39431078Y56677828D01*
X39395013Y56745300D01*
X39346481Y56804437D01*
X39303964Y56868068D01*
X39249848Y56922184D01*
X39201318Y56981318D01*
X39142184Y57029848D01*
X39088068Y57083964D01*
X39024437Y57126481D01*
X38995778Y57150000D01*
X39024437Y57173519D01*
X39088068Y57216036D01*
X39142184Y57270152D01*
X39201318Y57318682D01*
X39249848Y57377816D01*
X39303964Y57431932D01*
X39346481Y57495563D01*
X39395013Y57554700D01*
X39431078Y57622172D01*
X39473592Y57685800D01*
X39502877Y57756500D01*
X39538941Y57823971D01*
X39561148Y57897178D01*
X39590435Y57967882D01*
X39605365Y58042940D01*
X39627572Y58116147D01*
X39635071Y58192283D01*
X39650000Y58267338D01*
X39650000Y58343862D01*
X39657499Y58420000D01*
X39650000Y58496138D01*
X39650000Y58572662D01*
X39635071Y58647717D01*
X39627572Y58723853D01*
X39605365Y58797060D01*
X39590435Y58872118D01*
X39561148Y58942822D01*
X39538941Y59016029D01*
X39502877Y59083500D01*
X39473592Y59154200D01*
X39431078Y59217828D01*
X39395013Y59285300D01*
X39346481Y59344437D01*
X39303964Y59408068D01*
X39249848Y59462184D01*
X39201318Y59521318D01*
X39142184Y59569848D01*
X39088068Y59623964D01*
X39024437Y59666481D01*
X38995778Y59690000D01*
X39024437Y59713519D01*
X39088068Y59756036D01*
X39142184Y59810152D01*
X39201318Y59858682D01*
X39249848Y59917816D01*
X39303964Y59971932D01*
X39346481Y60035563D01*
X39395013Y60094700D01*
X39431078Y60162172D01*
X39473592Y60225800D01*
X39502877Y60296500D01*
X39538941Y60363971D01*
X39561148Y60437178D01*
X39590435Y60507882D01*
X39605365Y60582940D01*
X39627572Y60656147D01*
X39635071Y60732283D01*
X39650000Y60807338D01*
X39650000Y60883862D01*
X39657499Y60960000D01*
X39650000Y61036138D01*
X39650000Y61112662D01*
X39635071Y61187717D01*
X39627572Y61263853D01*
X39605365Y61337060D01*
X39590435Y61412118D01*
X39561148Y61482822D01*
X39538941Y61556029D01*
X39502877Y61623500D01*
X39473592Y61694200D01*
X39431078Y61757828D01*
X39395013Y61825300D01*
X39346481Y61884437D01*
X39303964Y61948068D01*
X39249848Y62002184D01*
X39201318Y62061318D01*
X39142184Y62109848D01*
X39088068Y62163964D01*
X39024437Y62206481D01*
X38992843Y62232409D01*
X39088068Y62296036D01*
X39303964Y62511932D01*
X39473592Y62765800D01*
X39590435Y63047882D01*
X39650000Y63347338D01*
X39650000Y63652662D01*
X39590435Y63952118D01*
X39473592Y64234200D01*
X39303964Y64488068D01*
X39088068Y64703964D01*
X38989237Y64770000D01*
X39088068Y64836036D01*
X39303964Y65051932D01*
X39473592Y65305800D01*
X39590435Y65587882D01*
X39650000Y65887338D01*
X39650000Y66192662D01*
X39590435Y66492118D01*
X39473592Y66774200D01*
X39303964Y67028068D01*
X39088068Y67243964D01*
X38834200Y67413592D01*
X38552118Y67530435D01*
X38252662Y67590000D01*
X37947338Y67590000D01*
X37647882Y67530435D01*
X37365800Y67413592D01*
X37111932Y67243964D01*
X36896036Y67028068D01*
X36726408Y66774200D01*
X36609565Y66492118D01*
X36550000Y66192662D01*
X36550000Y65887338D01*
X36609565Y65587882D01*
X36726408Y65305800D01*
X36896036Y65051932D01*
X37111932Y64836036D01*
X37210763Y64770000D01*
X37111932Y64703964D01*
X36896036Y64488068D01*
X36726408Y64234200D01*
X36609565Y63952118D01*
X36550000Y63652662D01*
X36550000Y63347338D01*
X36609565Y63047882D01*
X36726408Y62765800D01*
X36896036Y62511932D01*
X36897968Y62510000D01*
X34570000Y62510000D01*
X34570000Y63652662D01*
X34555071Y63727717D01*
X34547572Y63803853D01*
X34525365Y63877060D01*
X34510435Y63952118D01*
X34481148Y64022822D01*
X34458941Y64096029D01*
X34422877Y64163500D01*
X34393592Y64234200D01*
X34351078Y64297828D01*
X34315013Y64365300D01*
X34266481Y64424437D01*
X34223964Y64488068D01*
X34169848Y64542184D01*
X34121318Y64601318D01*
X34062185Y64649847D01*
X34008068Y64703964D01*
X33944433Y64746484D01*
X33885299Y64795013D01*
X33817832Y64831075D01*
X33754200Y64873592D01*
X33683495Y64902879D01*
X33616028Y64938941D01*
X33542825Y64961147D01*
X33472118Y64990435D01*
X33397057Y65005365D01*
X33323852Y65027572D01*
X33247718Y65035071D01*
X33172662Y65050000D01*
X33096138Y65050000D01*
X33020000Y65057499D01*
X32943862Y65050000D01*
X32867338Y65050000D01*
X32792283Y65035071D01*
X32716147Y65027572D01*
X32642940Y65005365D01*
X32567882Y64990435D01*
X32497178Y64961148D01*
X32423971Y64938941D01*
X32356500Y64902877D01*
X32285800Y64873592D01*
X32222172Y64831078D01*
X32154700Y64795013D01*
X32095563Y64746481D01*
X32031932Y64703964D01*
X31977816Y64649848D01*
X31918682Y64601318D01*
X31870153Y64542185D01*
X31816036Y64488068D01*
X31773516Y64424433D01*
X31724987Y64365299D01*
X31688925Y64297832D01*
X31646408Y64234200D01*
X31617121Y64163495D01*
X31581059Y64096028D01*
X31558853Y64022825D01*
X31529565Y63952118D01*
X31514635Y63877057D01*
X31492428Y63803852D01*
X31484929Y63727718D01*
X31470000Y63652662D01*
X31470000Y62510000D01*
X30556138Y62510000D01*
X30480000Y62517499D01*
X30403862Y62510000D01*
X30176147Y62487572D01*
X29883971Y62398941D01*
X29614700Y62255013D01*
X29490000Y62152674D01*
X29490000Y79730000D01*
X36897968Y79730000D01*
X36896036Y79728068D01*
X36726408Y79474200D01*
X36609565Y79192118D01*
X36550000Y78892662D01*
X36550000Y78587338D01*
X36609565Y78287882D01*
X36726408Y78005800D01*
X36896036Y77751932D01*
X37111932Y77536036D01*
X37210763Y77470000D01*
X37111932Y77403964D01*
X36896036Y77188068D01*
X36726408Y76934200D01*
X36609565Y76652118D01*
X36550000Y76352662D01*
X36550000Y76047338D01*
X36609565Y75747882D01*
X36726408Y75465800D01*
X36896036Y75211932D01*
X37111932Y74996036D01*
X37210763Y74930000D01*
X37111932Y74863964D01*
X36896036Y74648068D01*
X36726408Y74394200D01*
X36609565Y74112118D01*
X36550000Y73812662D01*
X36550000Y73507338D01*
X36609565Y73207882D01*
X36726408Y72925800D01*
X36896036Y72671932D01*
X37111932Y72456036D01*
X37210763Y72390000D01*
X37111932Y72323964D01*
X36896036Y72108068D01*
X36726408Y71854200D01*
X36609565Y71572118D01*
X36550000Y71272662D01*
X36550000Y70967338D01*
X36609565Y70667882D01*
X36726408Y70385800D01*
X36896036Y70131932D01*
X37111932Y69916036D01*
X37365800Y69746408D01*
X37647882Y69629565D01*
X37947338Y69570000D01*
X38252662Y69570000D01*
X38552118Y69629565D01*
X38834200Y69746408D01*
X39088068Y69916036D01*
X39219015Y70046983D01*
X42450000Y70046983D01*
X42450000Y69653017D01*
X42526859Y69266622D01*
X42677623Y68902645D01*
X42896499Y68575074D01*
X43175074Y68296499D01*
X43502645Y68077623D01*
X43866622Y67926859D01*
X44253017Y67850000D01*
X44646983Y67850000D01*
X45033378Y67926859D01*
X45397355Y68077623D01*
X45724926Y68296499D01*
X46003501Y68575074D01*
X46222377Y68902645D01*
X46373141Y69266622D01*
X46450000Y69653017D01*
X46450000Y70046983D01*
X46373141Y70433378D01*
X46222377Y70797355D01*
X46003501Y71124926D01*
X45724926Y71403501D01*
X45397355Y71622377D01*
X45033378Y71773141D01*
X44646983Y71850000D01*
X44253017Y71850000D01*
X43866622Y71773141D01*
X43502645Y71622377D01*
X43175074Y71403501D01*
X42896499Y71124926D01*
X42677623Y70797355D01*
X42526859Y70433378D01*
X42450000Y70046983D01*
X39219015Y70046983D01*
X39303964Y70131932D01*
X39473592Y70385800D01*
X39590435Y70667882D01*
X39650000Y70967338D01*
X39650000Y71272662D01*
X39590435Y71572118D01*
X39473592Y71854200D01*
X39303964Y72108068D01*
X39088068Y72323964D01*
X38989237Y72390000D01*
X39088068Y72456036D01*
X39303964Y72671932D01*
X39473592Y72925800D01*
X39590435Y73207882D01*
X39650000Y73507338D01*
X39650000Y73812662D01*
X39590435Y74112118D01*
X39473592Y74394200D01*
X39303964Y74648068D01*
X39088068Y74863964D01*
X38989237Y74930000D01*
X39088068Y74996036D01*
X39303964Y75211932D01*
X39473592Y75465800D01*
X39590435Y75747882D01*
X39650000Y76047338D01*
X39650000Y76352662D01*
X39590435Y76652118D01*
X39473592Y76934200D01*
X39303964Y77188068D01*
X39088068Y77403964D01*
X38989237Y77470000D01*
X39088068Y77536036D01*
X39303964Y77751932D01*
X39473592Y78005800D01*
X39590435Y78287882D01*
X39650000Y78587338D01*
X39650000Y78892662D01*
X39590435Y79192118D01*
X39473592Y79474200D01*
X39303964Y79728068D01*
X39302032Y79730000D01*
X44602662Y79730000D01*
X44677717Y79744929D01*
X44753853Y79752428D01*
X44827060Y79774635D01*
X44902118Y79789565D01*
X44972822Y79818852D01*
X45046029Y79841059D01*
X45113500Y79877123D01*
X45184200Y79906408D01*
X45247828Y79948922D01*
X45315300Y79984987D01*
X45374437Y80033519D01*
X45438068Y80076036D01*
X45492184Y80130152D01*
X45551318Y80178682D01*
X45599848Y80237816D01*
X45653964Y80291932D01*
X45696481Y80355563D01*
X45745013Y80414700D01*
X45781078Y80482172D01*
X45823592Y80545800D01*
X45852877Y80616500D01*
X45888941Y80683971D01*
X45911148Y80757178D01*
X45940435Y80827882D01*
X45955365Y80902940D01*
X45977572Y80976147D01*
X45985071Y81052283D01*
X46000000Y81127338D01*
X46000000Y81203862D01*
X46007499Y81280000D01*
X46000000Y81356138D01*
X46000000Y81432662D01*
X45985071Y81507717D01*
X45977572Y81583853D01*
X45955365Y81657060D01*
X45940435Y81732118D01*
X45911148Y81802822D01*
X45888941Y81876029D01*
X45852877Y81943500D01*
X45823592Y82014200D01*
X45781078Y82077828D01*
X45745013Y82145300D01*
X45696481Y82204437D01*
X45653964Y82268068D01*
X45599848Y82322184D01*
X45551318Y82381318D01*
X45492184Y82429848D01*
X45438068Y82483964D01*
X45374437Y82526481D01*
X45315300Y82575013D01*
X45247828Y82611078D01*
X45184200Y82653592D01*
X45113500Y82682877D01*
X45046029Y82718941D01*
X44972822Y82741148D01*
X44902118Y82770435D01*
X44827060Y82785365D01*
X44753853Y82807572D01*
X44677717Y82815071D01*
X44602662Y82830000D01*
X28016138Y82830000D01*
X27940000Y82837499D01*
X27863862Y82830000D01*
X27636147Y82807572D01*
X27343971Y82718941D01*
X27074700Y82575013D01*
X26838682Y82381318D01*
X26644987Y82145300D01*
X26501059Y81876029D01*
X26412428Y81583853D01*
X26382501Y81280000D01*
X26390001Y81203851D01*
X26390001Y59622031D01*
X26388068Y59623964D01*
X26324437Y59666481D01*
X26265300Y59715013D01*
X26197828Y59751078D01*
X26134200Y59793592D01*
X26063500Y59822877D01*
X25996029Y59858941D01*
X25922822Y59881148D01*
X25852118Y59910435D01*
X25777060Y59925365D01*
X25703853Y59947572D01*
X25627717Y59955071D01*
X25552662Y59970000D01*
X25476138Y59970000D01*
X25400000Y59977499D01*
X25323862Y59970000D01*
X25247338Y59970000D01*
X25172283Y59955071D01*
X25096147Y59947572D01*
X25022940Y59925365D01*
X24947882Y59910435D01*
X24877178Y59881148D01*
X24803971Y59858941D01*
X24736500Y59822877D01*
X24665800Y59793592D01*
X24602172Y59751078D01*
X24534700Y59715013D01*
X24475563Y59666481D01*
X24411932Y59623964D01*
X24357816Y59569848D01*
X24298682Y59521318D01*
X24250152Y59462184D01*
X24196036Y59408068D01*
X24153519Y59344437D01*
X24104987Y59285300D01*
X24068922Y59217828D01*
X24026408Y59154200D01*
X23997123Y59083500D01*
X23961059Y59016029D01*
X23938852Y58942822D01*
X23909565Y58872118D01*
X23894635Y58797060D01*
X23872428Y58723853D01*
X23864929Y58647717D01*
X23850000Y58572662D01*
X23850000Y58496138D01*
X23842501Y58420000D01*
X23850000Y58343862D01*
X23850000Y58267338D01*
X23850001Y58267333D01*
X23850000Y21870000D01*
X21522032Y21870000D01*
X21523964Y21871932D01*
X21566481Y21935563D01*
X21615013Y21994700D01*
X21651078Y22062172D01*
X21693592Y22125800D01*
X21722877Y22196500D01*
X21758941Y22263971D01*
X21781148Y22337178D01*
X21810435Y22407882D01*
X21825365Y22482940D01*
X21847572Y22556147D01*
X21855071Y22632283D01*
X21870000Y22707338D01*
X21870000Y25323862D01*
X21877499Y25400000D01*
X21870000Y25476138D01*
X21870000Y25552662D01*
X21855071Y25627717D01*
X21847572Y25703853D01*
X21825365Y25777060D01*
X21810435Y25852118D01*
X21781148Y25922822D01*
X21758941Y25996029D01*
X21722877Y26063500D01*
X21693592Y26134200D01*
X21651078Y26197828D01*
X21615013Y26265300D01*
X21566481Y26324437D01*
X21523964Y26388068D01*
X21469848Y26442184D01*
X21421318Y26501318D01*
X21362184Y26549848D01*
X21308068Y26603964D01*
X21244437Y26646481D01*
X21215778Y26670000D01*
X21244437Y26693519D01*
X21308068Y26736036D01*
X21362184Y26790152D01*
X21421318Y26838682D01*
X21469848Y26897816D01*
X21523964Y26951932D01*
X21566481Y27015563D01*
X21615013Y27074700D01*
X21651078Y27142172D01*
X21693592Y27205800D01*
X21722877Y27276500D01*
X21758941Y27343971D01*
X21781148Y27417178D01*
X21810435Y27487882D01*
X21825365Y27562940D01*
X21847572Y27636147D01*
X21855071Y27712283D01*
X21870000Y27787338D01*
X21870000Y27863863D01*
X21877499Y27940000D01*
X21870000Y28016138D01*
X21870000Y28092662D01*
X21855071Y28167717D01*
X21847572Y28243853D01*
X21825365Y28317060D01*
X21810435Y28392118D01*
X21781148Y28462822D01*
X21758941Y28536029D01*
X21722877Y28603500D01*
X21693592Y28674200D01*
X21651078Y28737828D01*
X21615013Y28805300D01*
X21566481Y28864437D01*
X21523964Y28928068D01*
X21469848Y28982184D01*
X21421318Y29041318D01*
X21362184Y29089848D01*
X21308068Y29143964D01*
X21244437Y29186481D01*
X21185300Y29235013D01*
X21117828Y29271078D01*
X21054200Y29313592D01*
X20983500Y29342877D01*
X20916029Y29378941D01*
X20842822Y29401148D01*
X20772118Y29430435D01*
X20697060Y29445365D01*
X20623853Y29467572D01*
X20547717Y29475071D01*
X20472662Y29490000D01*
X6197338Y29490000D01*
X6122283Y29475071D01*
X6046147Y29467572D01*
X5972940Y29445365D01*
X5897882Y29430435D01*
X5827178Y29401148D01*
X5753971Y29378941D01*
X5686500Y29342877D01*
X5615800Y29313592D01*
X5552172Y29271078D01*
X5484700Y29235013D01*
X5425563Y29186481D01*
X5361932Y29143964D01*
X5307816Y29089848D01*
X5248682Y29041318D01*
X5200152Y28982184D01*
X5146036Y28928068D01*
X5103519Y28864437D01*
X5054987Y28805300D01*
X5018922Y28737828D01*
X4976408Y28674200D01*
X4947123Y28603500D01*
X4911059Y28536029D01*
X4888852Y28462822D01*
X4859565Y28392118D01*
X4844635Y28317060D01*
X4822428Y28243853D01*
X4814929Y28167717D01*
X4800000Y28092662D01*
X4800000Y28016138D01*
X4792501Y27940000D01*
X4800000Y27863863D01*
X4800000Y27787338D01*
X4814929Y27712283D01*
X4822428Y27636147D01*
X4844635Y27562940D01*
X4859565Y27487882D01*
X4888852Y27417178D01*
X4911059Y27343971D01*
X4947123Y27276500D01*
X4976408Y27205800D01*
X5018922Y27142172D01*
X5054987Y27074700D01*
X5103519Y27015563D01*
X5146036Y26951932D01*
X5200152Y26897816D01*
X5248682Y26838682D01*
X5307816Y26790152D01*
X5361932Y26736036D01*
X5425563Y26693519D01*
X5484700Y26644987D01*
X5552172Y26608922D01*
X5615800Y26566408D01*
X5686500Y26537123D01*
X5753971Y26501059D01*
X5827178Y26478852D01*
X5897882Y26449565D01*
X5972940Y26434635D01*
X6046147Y26412428D01*
X6122283Y26404929D01*
X6197338Y26390000D01*
X19117968Y26390000D01*
X19116036Y26388068D01*
X19073519Y26324437D01*
X19024987Y26265300D01*
X18988922Y26197828D01*
X18946408Y26134200D01*
X18917123Y26063500D01*
X18881059Y25996029D01*
X18858852Y25922822D01*
X18829565Y25852118D01*
X18814635Y25777060D01*
X18792428Y25703853D01*
X18784929Y25627717D01*
X18770000Y25552662D01*
X18770000Y25476138D01*
X18762501Y25400000D01*
X18770000Y25323862D01*
X18770000Y25247338D01*
X18770001Y25247333D01*
X18770000Y23012662D01*
X18770000Y22707338D01*
X18784929Y22632282D01*
X18792428Y22556148D01*
X18814635Y22482943D01*
X18829565Y22407882D01*
X18858853Y22337175D01*
X18881059Y22263972D01*
X18917121Y22196505D01*
X18946408Y22125800D01*
X18988925Y22062168D01*
X19024987Y21994701D01*
X19073516Y21935567D01*
X19116036Y21871932D01*
X19170153Y21817815D01*
X19218682Y21758682D01*
X19277816Y21710152D01*
X19331932Y21656036D01*
X19395563Y21613519D01*
X19424222Y21590000D01*
X19395563Y21566481D01*
X19331932Y21523964D01*
X19277816Y21469848D01*
X19218682Y21421318D01*
X19170152Y21362184D01*
X19116036Y21308068D01*
X19073519Y21244437D01*
X19024987Y21185300D01*
X18988922Y21117828D01*
X18946408Y21054200D01*
X18917123Y20983500D01*
X18881059Y20916029D01*
X18858852Y20842822D01*
X18829565Y20772118D01*
X18814635Y20697060D01*
X18792428Y20623853D01*
X18784929Y20547717D01*
X18770000Y20472662D01*
X18770000Y20396138D01*
X18762501Y20320000D01*
X18770000Y20243863D01*
X18770000Y20167338D01*
X18784929Y20092283D01*
X18792428Y20016147D01*
X18814635Y19942940D01*
X18829565Y19867882D01*
X18858852Y19797178D01*
X18881059Y19723971D01*
X18917123Y19656500D01*
X18946408Y19585800D01*
X18988922Y19522172D01*
X19024987Y19454700D01*
X19073519Y19395563D01*
X19116036Y19331932D01*
X19117968Y19330000D01*
X7696127Y19330000D01*
X7619999Y19337498D01*
X7543871Y19330000D01*
X7543862Y19330000D01*
X7316147Y19307572D01*
X7023971Y19218941D01*
X6754700Y19075013D01*
X6518682Y18881318D01*
X6470147Y18822178D01*
X4091938Y16443968D01*
X4091932Y16443964D01*
X3876036Y16228068D01*
X3833518Y16164435D01*
X3784987Y16105300D01*
X3748923Y16037829D01*
X3706408Y15974200D01*
X3677121Y15903497D01*
X3641059Y15836028D01*
X3618854Y15762827D01*
X3589565Y15692118D01*
X3574633Y15617050D01*
X3552429Y15543852D01*
X3544931Y15467728D01*
X3530000Y15392662D01*
X3530000Y15316128D01*
X3522502Y15240000D01*
X475000Y15240000D01*
X475000Y40640000D01*
X3522501Y40640000D01*
X3530000Y40563862D01*
X3530000Y40487338D01*
X3544929Y40412283D01*
X3552428Y40336147D01*
X3574635Y40262940D01*
X3589565Y40187882D01*
X3618852Y40117178D01*
X3641059Y40043971D01*
X3677123Y39976500D01*
X3706408Y39905800D01*
X3748922Y39842172D01*
X3784987Y39774700D01*
X3833519Y39715563D01*
X3876036Y39651932D01*
X3930152Y39597816D01*
X3978682Y39538682D01*
X4037816Y39490152D01*
X4091932Y39436036D01*
X4155563Y39393519D01*
X4184222Y39370000D01*
X4155563Y39346481D01*
X4091932Y39303964D01*
X4037816Y39249848D01*
X3978682Y39201318D01*
X3930152Y39142184D01*
X3876036Y39088068D01*
X3833519Y39024437D01*
X3784987Y38965300D01*
X3748922Y38897828D01*
X3706408Y38834200D01*
X3677123Y38763500D01*
X3641059Y38696029D01*
X3618852Y38622822D01*
X3589565Y38552118D01*
X3574635Y38477060D01*
X3552428Y38403853D01*
X3544929Y38327717D01*
X3530000Y38252662D01*
X3530000Y38176138D01*
X3522501Y38100000D01*
X3530000Y38023862D01*
X3530000Y37947338D01*
X3544929Y37872283D01*
X3552428Y37796147D01*
X3574635Y37722940D01*
X3589565Y37647882D01*
X3618852Y37577178D01*
X3641059Y37503971D01*
X3677123Y37436500D01*
X3706408Y37365800D01*
X3748922Y37302172D01*
X3784987Y37234700D01*
X3833519Y37175563D01*
X3876036Y37111932D01*
X3930152Y37057816D01*
X3978682Y36998682D01*
X4037816Y36950152D01*
X4091932Y36896036D01*
X4155563Y36853519D01*
X4214700Y36804987D01*
X4282172Y36768922D01*
X4345800Y36726408D01*
X4416500Y36697123D01*
X4483971Y36661059D01*
X4557178Y36638852D01*
X4627882Y36609565D01*
X4702940Y36594635D01*
X4776147Y36572428D01*
X4852283Y36564929D01*
X4927338Y36550000D01*
X8528238Y36550000D01*
X8604366Y36542502D01*
X8680494Y36550000D01*
X8680504Y36550000D01*
X8908219Y36572428D01*
X9200395Y36661059D01*
X9469666Y36804987D01*
X9705684Y36998682D01*
X9754223Y37057827D01*
X11199894Y38503497D01*
X11150000Y38252662D01*
X11150000Y37947338D01*
X11209565Y37647882D01*
X11326408Y37365800D01*
X11496036Y37111932D01*
X11711932Y36896036D01*
X11965800Y36726408D01*
X12247882Y36609565D01*
X12547338Y36550000D01*
X12852662Y36550000D01*
X13152118Y36609565D01*
X13434200Y36726408D01*
X13688068Y36896036D01*
X13903964Y37111932D01*
X14073592Y37365800D01*
X14190435Y37647882D01*
X14250000Y37947338D01*
X14250000Y38252662D01*
X14190435Y38552118D01*
X14073592Y38834200D01*
X13903964Y39088068D01*
X13688068Y39303964D01*
X13592843Y39367591D01*
X13624437Y39393519D01*
X13688068Y39436036D01*
X13742184Y39490152D01*
X13801318Y39538682D01*
X13849848Y39597816D01*
X13903964Y39651932D01*
X13946481Y39715563D01*
X13995013Y39774700D01*
X14031078Y39842172D01*
X14073592Y39905800D01*
X14102877Y39976500D01*
X14138941Y40043971D01*
X14161148Y40117178D01*
X14190435Y40187882D01*
X14205365Y40262940D01*
X14227572Y40336147D01*
X14235071Y40412283D01*
X14250000Y40487338D01*
X14250000Y40563862D01*
X14257499Y40640000D01*
X14250000Y40716138D01*
X14250000Y40792662D01*
X14235071Y40867717D01*
X14227572Y40943853D01*
X14205365Y41017060D01*
X14190435Y41092118D01*
X14161148Y41162822D01*
X14138941Y41236029D01*
X14102877Y41303500D01*
X14073592Y41374200D01*
X14031078Y41437828D01*
X13995013Y41505300D01*
X13946481Y41564437D01*
X13903964Y41628068D01*
X13849848Y41682184D01*
X13801318Y41741318D01*
X13742184Y41789848D01*
X13688068Y41843964D01*
X13624437Y41886481D01*
X13592843Y41912409D01*
X13688068Y41976036D01*
X13903964Y42191932D01*
X14073592Y42445800D01*
X14190435Y42727882D01*
X14250000Y43027338D01*
X14250000Y43332662D01*
X14190435Y43632118D01*
X14073592Y43914200D01*
X13903964Y44168068D01*
X13688068Y44383964D01*
X13589237Y44450000D01*
X13688068Y44516036D01*
X13903964Y44731932D01*
X14073592Y44985800D01*
X14190435Y45267882D01*
X14250000Y45567338D01*
X14250000Y45872662D01*
X14190435Y46172118D01*
X14073592Y46454200D01*
X13903964Y46708068D01*
X13688068Y46923964D01*
X13589237Y46990000D01*
X13688068Y47056036D01*
X13903964Y47271932D01*
X14073592Y47525800D01*
X14190435Y47807882D01*
X14250000Y48107338D01*
X14250000Y48412662D01*
X14190435Y48712118D01*
X14073592Y48994200D01*
X13903964Y49248068D01*
X13688068Y49463964D01*
X13434200Y49633592D01*
X13152118Y49750435D01*
X12852662Y49810000D01*
X12547338Y49810000D01*
X12247882Y49750435D01*
X11965800Y49633592D01*
X11711932Y49463964D01*
X11496036Y49248068D01*
X11326408Y48994200D01*
X11209565Y48712118D01*
X11150000Y48412662D01*
X11150000Y48107338D01*
X11209565Y47807882D01*
X11326408Y47525800D01*
X11496036Y47271932D01*
X11711932Y47056036D01*
X11810763Y46990000D01*
X11711932Y46923964D01*
X11496036Y46708068D01*
X11326408Y46454200D01*
X11209565Y46172118D01*
X11150000Y45872662D01*
X11150000Y45567338D01*
X11209565Y45267882D01*
X11326408Y44985800D01*
X11496036Y44731932D01*
X11711932Y44516036D01*
X11810763Y44450000D01*
X11711932Y44383964D01*
X11496036Y44168068D01*
X11326408Y43914200D01*
X11209565Y43632118D01*
X11150000Y43332662D01*
X11150000Y43027338D01*
X11209565Y42727882D01*
X11326408Y42445800D01*
X11496036Y42191932D01*
X11497968Y42190000D01*
X11220493Y42190000D01*
X11144365Y42197498D01*
X11068237Y42190000D01*
X11068228Y42190000D01*
X10840513Y42167572D01*
X10548337Y42078941D01*
X10279066Y41935013D01*
X10043048Y41741318D01*
X9994513Y41682178D01*
X9159215Y40846880D01*
X9155071Y40867717D01*
X9147572Y40943853D01*
X9125365Y41017060D01*
X9110435Y41092118D01*
X9081148Y41162822D01*
X9058941Y41236029D01*
X9022877Y41303500D01*
X8993592Y41374200D01*
X8951078Y41437828D01*
X8915013Y41505300D01*
X8866481Y41564437D01*
X8823964Y41628068D01*
X8769848Y41682184D01*
X8721318Y41741318D01*
X8662184Y41789848D01*
X8608068Y41843964D01*
X8544437Y41886481D01*
X8485300Y41935013D01*
X8417828Y41971078D01*
X8354200Y42013592D01*
X8283500Y42042877D01*
X8216029Y42078941D01*
X8142822Y42101148D01*
X8072118Y42130435D01*
X7997060Y42145365D01*
X7923853Y42167572D01*
X7847717Y42175071D01*
X7772662Y42190000D01*
X4927338Y42190000D01*
X4852283Y42175071D01*
X4776147Y42167572D01*
X4702940Y42145365D01*
X4627882Y42130435D01*
X4557178Y42101148D01*
X4483971Y42078941D01*
X4416500Y42042877D01*
X4345800Y42013592D01*
X4282172Y41971078D01*
X4214700Y41935013D01*
X4155563Y41886481D01*
X4091932Y41843964D01*
X4037816Y41789848D01*
X3978682Y41741318D01*
X3930152Y41682184D01*
X3876036Y41628068D01*
X3833519Y41564437D01*
X3784987Y41505300D01*
X3748922Y41437828D01*
X3706408Y41374200D01*
X3677123Y41303500D01*
X3641059Y41236029D01*
X3618852Y41162822D01*
X3589565Y41092118D01*
X3574635Y41017060D01*
X3552428Y40943853D01*
X3544929Y40867717D01*
X3530000Y40792662D01*
X3530000Y40716138D01*
X3522501Y40640000D01*
X475000Y40640000D01*
X475000Y52232813D01*
X5820000Y52232813D01*
X5820000Y51947187D01*
X5875723Y51667051D01*
X5985027Y51403167D01*
X6143711Y51165679D01*
X6345679Y50963711D01*
X6583167Y50805027D01*
X6847051Y50695723D01*
X7127187Y50640000D01*
X7412813Y50640000D01*
X7570000Y50671267D01*
X7727187Y50640000D01*
X8012813Y50640000D01*
X8292949Y50695723D01*
X8556833Y50805027D01*
X8794321Y50963711D01*
X8996289Y51165679D01*
X9154973Y51403167D01*
X9264277Y51667051D01*
X9320000Y51947187D01*
X9320000Y52232813D01*
X9264277Y52512949D01*
X9154973Y52776833D01*
X8996289Y53014321D01*
X8794321Y53216289D01*
X8556833Y53374973D01*
X8292949Y53484277D01*
X8012813Y53540000D01*
X7727187Y53540000D01*
X7570000Y53508733D01*
X7412813Y53540000D01*
X7127187Y53540000D01*
X6847051Y53484277D01*
X6583167Y53374973D01*
X6345679Y53216289D01*
X6143711Y53014321D01*
X5985027Y52776833D01*
X5875723Y52512949D01*
X5820000Y52232813D01*
X475000Y52232813D01*
X475000Y57992662D01*
X3530000Y57992662D01*
X3530000Y57687338D01*
X3589565Y57387882D01*
X3706408Y57105800D01*
X3876036Y56851932D01*
X3934007Y56793961D01*
X3948769Y56745300D01*
X3965981Y56688559D01*
X4077409Y56480090D01*
X4080743Y56476028D01*
X4227366Y56297366D01*
X4273160Y56259784D01*
X5459784Y55073160D01*
X5497366Y55027366D01*
X5680090Y54877409D01*
X5888558Y54765981D01*
X6114759Y54697363D01*
X6291050Y54680000D01*
X6291052Y54680000D01*
X6349999Y54674194D01*
X6408946Y54680000D01*
X11707968Y54680000D01*
X11711932Y54676036D01*
X11810763Y54610000D01*
X11711932Y54543964D01*
X11496036Y54328068D01*
X11326408Y54074200D01*
X11209565Y53792118D01*
X11150000Y53492662D01*
X11150000Y53187338D01*
X11209565Y52887882D01*
X11326408Y52605800D01*
X11496036Y52351932D01*
X11711932Y52136036D01*
X11965800Y51966408D01*
X12247882Y51849565D01*
X12547338Y51790000D01*
X12852662Y51790000D01*
X13152118Y51849565D01*
X13434200Y51966408D01*
X13688068Y52136036D01*
X13903964Y52351932D01*
X14073592Y52605800D01*
X14190435Y52887882D01*
X14250000Y53187338D01*
X14250000Y53492662D01*
X14190435Y53792118D01*
X14073592Y54074200D01*
X13903964Y54328068D01*
X13688068Y54543964D01*
X13589237Y54610000D01*
X13688068Y54676036D01*
X13903964Y54891932D01*
X14073592Y55145800D01*
X14190435Y55427882D01*
X14250000Y55727338D01*
X14250000Y56032662D01*
X14190435Y56332118D01*
X14073592Y56614200D01*
X13903964Y56868068D01*
X13688068Y57083964D01*
X13589237Y57150000D01*
X13688068Y57216036D01*
X13903964Y57431932D01*
X14073592Y57685800D01*
X14190435Y57967882D01*
X14250000Y58267338D01*
X14250000Y58572662D01*
X14190435Y58872118D01*
X14073592Y59154200D01*
X13903964Y59408068D01*
X13688068Y59623964D01*
X13589237Y59690000D01*
X13688068Y59756036D01*
X13903964Y59971932D01*
X14073592Y60225800D01*
X14190435Y60507882D01*
X14250000Y60807338D01*
X14250000Y61112662D01*
X14190435Y61412118D01*
X14073592Y61694200D01*
X13903964Y61948068D01*
X13688068Y62163964D01*
X13589237Y62230000D01*
X13688068Y62296036D01*
X13903964Y62511932D01*
X14073592Y62765800D01*
X14190435Y63047882D01*
X14250000Y63347338D01*
X14250000Y63652662D01*
X14190435Y63952118D01*
X14073592Y64234200D01*
X13903964Y64488068D01*
X13688068Y64703964D01*
X13589237Y64770000D01*
X13688068Y64836036D01*
X13903964Y65051932D01*
X14073592Y65305800D01*
X14190435Y65587882D01*
X14250000Y65887338D01*
X14250000Y66192662D01*
X14190435Y66492118D01*
X14073592Y66774200D01*
X13903964Y67028068D01*
X13688068Y67243964D01*
X13589237Y67310000D01*
X13688068Y67376036D01*
X13903964Y67591932D01*
X14073592Y67845800D01*
X14190435Y68127882D01*
X14250000Y68427338D01*
X14250000Y68732662D01*
X14190435Y69032118D01*
X14073592Y69314200D01*
X13903964Y69568068D01*
X13688068Y69783964D01*
X13589237Y69850000D01*
X13688068Y69916036D01*
X13903964Y70131932D01*
X14073592Y70385800D01*
X14190435Y70667882D01*
X14250000Y70967338D01*
X14250000Y71272662D01*
X14190435Y71572118D01*
X14073592Y71854200D01*
X13903964Y72108068D01*
X13688068Y72323964D01*
X13589237Y72390000D01*
X13688068Y72456036D01*
X13903964Y72671932D01*
X14073592Y72925800D01*
X14190435Y73207882D01*
X14250000Y73507338D01*
X14250000Y73812662D01*
X14190435Y74112118D01*
X14073592Y74394200D01*
X13903964Y74648068D01*
X13688068Y74863964D01*
X13589237Y74930000D01*
X13688068Y74996036D01*
X13903964Y75211932D01*
X14073592Y75465800D01*
X14190435Y75747882D01*
X14250000Y76047338D01*
X14250000Y76352662D01*
X14190435Y76652118D01*
X14073592Y76934200D01*
X13903964Y77188068D01*
X13688068Y77403964D01*
X13589237Y77470000D01*
X13688068Y77536036D01*
X13903964Y77751932D01*
X14073592Y78005800D01*
X14190435Y78287882D01*
X14250000Y78587338D01*
X14250000Y78892662D01*
X14190435Y79192118D01*
X14073592Y79474200D01*
X13903964Y79728068D01*
X13688068Y79943964D01*
X13589237Y80010000D01*
X13688068Y80076036D01*
X13903964Y80291932D01*
X14073592Y80545800D01*
X14190435Y80827882D01*
X14250000Y81127338D01*
X14250000Y81432662D01*
X14190435Y81732118D01*
X14073592Y82014200D01*
X13903964Y82268068D01*
X13688068Y82483964D01*
X13434200Y82653592D01*
X13152118Y82770435D01*
X12852662Y82830000D01*
X12547338Y82830000D01*
X12247882Y82770435D01*
X11965800Y82653592D01*
X11711932Y82483964D01*
X11496036Y82268068D01*
X11326408Y82014200D01*
X11209565Y81732118D01*
X11150000Y81432662D01*
X11150000Y81127338D01*
X11209565Y80827882D01*
X11326408Y80545800D01*
X11496036Y80291932D01*
X11711932Y80076036D01*
X11810763Y80010000D01*
X11711932Y79943964D01*
X11496036Y79728068D01*
X11326408Y79474200D01*
X11209565Y79192118D01*
X11150000Y78892662D01*
X11150000Y78587338D01*
X11209565Y78287882D01*
X11326408Y78005800D01*
X11496036Y77751932D01*
X11711932Y77536036D01*
X11810763Y77470000D01*
X11711932Y77403964D01*
X11496036Y77188068D01*
X11326408Y76934200D01*
X11209565Y76652118D01*
X11150000Y76352662D01*
X11150000Y76047338D01*
X11209565Y75747882D01*
X11326408Y75465800D01*
X11496036Y75211932D01*
X11711932Y74996036D01*
X11810763Y74930000D01*
X11711932Y74863964D01*
X11496036Y74648068D01*
X11326408Y74394200D01*
X11209565Y74112118D01*
X11150000Y73812662D01*
X11150000Y73507338D01*
X11209565Y73207882D01*
X11326408Y72925800D01*
X11496036Y72671932D01*
X11711932Y72456036D01*
X11810763Y72390000D01*
X11711932Y72323964D01*
X11496036Y72108068D01*
X11326408Y71854200D01*
X11209565Y71572118D01*
X11150000Y71272662D01*
X11150000Y70967338D01*
X11209565Y70667882D01*
X11326408Y70385800D01*
X11496036Y70131932D01*
X11711932Y69916036D01*
X11810763Y69850000D01*
X11711932Y69783964D01*
X11496036Y69568068D01*
X11326408Y69314200D01*
X11209565Y69032118D01*
X11150000Y68732662D01*
X11150000Y68427338D01*
X11209565Y68127882D01*
X11326408Y67845800D01*
X11496036Y67591932D01*
X11711932Y67376036D01*
X11810763Y67310000D01*
X11711932Y67243964D01*
X11496036Y67028068D01*
X11326408Y66774200D01*
X11209565Y66492118D01*
X11150000Y66192662D01*
X11150000Y65887338D01*
X11209565Y65587882D01*
X11326408Y65305800D01*
X11496036Y65051932D01*
X11711932Y64836036D01*
X11810763Y64770000D01*
X11711932Y64703964D01*
X11496036Y64488068D01*
X11326408Y64234200D01*
X11209565Y63952118D01*
X11150000Y63652662D01*
X11150000Y63347338D01*
X11209565Y63047882D01*
X11326408Y62765800D01*
X11496036Y62511932D01*
X11711932Y62296036D01*
X11810763Y62230000D01*
X11711932Y62163964D01*
X11496036Y61948068D01*
X11326408Y61694200D01*
X11209565Y61412118D01*
X11150000Y61112662D01*
X11150000Y60807338D01*
X11209565Y60507882D01*
X11326408Y60225800D01*
X11496036Y59971932D01*
X11711932Y59756036D01*
X11810763Y59690000D01*
X11711932Y59623964D01*
X11496036Y59408068D01*
X11326408Y59154200D01*
X11209565Y58872118D01*
X11150000Y58572662D01*
X11150000Y58267338D01*
X11209565Y57967882D01*
X11326408Y57685800D01*
X11496036Y57431932D01*
X11711932Y57216036D01*
X11810763Y57150000D01*
X11711932Y57083964D01*
X11707968Y57080000D01*
X6847056Y57080000D01*
X6561279Y57365777D01*
X6570435Y57387882D01*
X6630000Y57687338D01*
X6630000Y57795628D01*
X6847051Y57705723D01*
X7127187Y57650000D01*
X7412813Y57650000D01*
X7570000Y57681267D01*
X7727187Y57650000D01*
X8012813Y57650000D01*
X8292949Y57705723D01*
X8556833Y57815027D01*
X8794321Y57973711D01*
X8996289Y58175679D01*
X9154973Y58413167D01*
X9264277Y58677051D01*
X9320000Y58957187D01*
X9320000Y59242813D01*
X9264277Y59522949D01*
X9154973Y59786833D01*
X8996289Y60024321D01*
X8794321Y60226289D01*
X8556833Y60384973D01*
X8292949Y60494277D01*
X8012813Y60550000D01*
X7727187Y60550000D01*
X7570000Y60518733D01*
X7412813Y60550000D01*
X7127187Y60550000D01*
X6847051Y60494277D01*
X6583167Y60384973D01*
X6345679Y60226289D01*
X6143711Y60024321D01*
X5985027Y59786833D01*
X5875723Y59522949D01*
X5840906Y59347913D01*
X5749910Y59422591D01*
X5541442Y59534019D01*
X5315241Y59602637D01*
X5080000Y59625806D01*
X4844760Y59602637D01*
X4618559Y59534019D01*
X4410091Y59422591D01*
X4227367Y59272634D01*
X4077410Y59089910D01*
X4007975Y58960007D01*
X3876036Y58828068D01*
X3706408Y58574200D01*
X3589565Y58292118D01*
X3530000Y57992662D01*
X475000Y57992662D01*
X475000Y70046983D01*
X3080000Y70046983D01*
X3080000Y69653017D01*
X3156859Y69266622D01*
X3307623Y68902645D01*
X3526499Y68575074D01*
X3805074Y68296499D01*
X4132645Y68077623D01*
X4496622Y67926859D01*
X4883017Y67850000D01*
X5276983Y67850000D01*
X5663378Y67926859D01*
X6027355Y68077623D01*
X6354926Y68296499D01*
X6633501Y68575074D01*
X6852377Y68902645D01*
X7003141Y69266622D01*
X7080000Y69653017D01*
X7080000Y70046983D01*
X7003141Y70433378D01*
X6852377Y70797355D01*
X6633501Y71124926D01*
X6354926Y71403501D01*
X6027355Y71622377D01*
X5663378Y71773141D01*
X5276983Y71850000D01*
X4883017Y71850000D01*
X4496622Y71773141D01*
X4132645Y71622377D01*
X3805074Y71403501D01*
X3526499Y71124926D01*
X3307623Y70797355D01*
X3156859Y70433378D01*
X3080000Y70046983D01*
X475000Y70046983D01*
X475000Y85885000D01*
X49055000Y85885000D01*
X49055001Y475000D01*
%TD*%
M02*
