M48
; DRILL file {KiCad (5.1.6)-1} date 12/12/22 10:29:14
; FORMAT={-:-/ absolute / metric / decimal}
; #@! TF.CreationDate,2022-12-12T10:29:14-05:00
; #@! TF.GenerationSoftware,Kicad,Pcbnew,(5.1.6)-1
FMAT,2
METRIC
T1C0.800
T2C0.900
T3C3.000
%
G90
G05
T1
X27.94Y5.08
X20.32Y5.08
X20.32Y7.62
X27.94Y7.62
X27.94Y10.16
X20.32Y10.16
X5.08Y12.7
X20.32Y12.7
X27.94Y12.7
X44.45Y12.7
X44.45Y15.24
X27.94Y15.24
X20.32Y15.24
X5.08Y15.24
X20.32Y17.78
X27.94Y17.78
X27.94Y20.32
X20.32Y20.32
X20.32Y22.86
X27.94Y22.86
X6.35Y25.4
X6.35Y27.94
X40.64Y30.48
X38.1Y30.48
X5.08Y35.56
X5.08Y38.1
X5.08Y40.64
X44.45Y43.18
X44.45Y45.72
X44.45Y48.26
X44.45Y50.8
X44.45Y53.34
X33.02Y63.5
X33.02Y71.12
X44.45Y78.74
X44.45Y81.28
T2
X17.78Y5.08
X30.48Y5.08
X33.02Y7.62
X36.83Y17.78
X44.45Y17.78
X33.02Y20.32
X30.48Y20.32
X20.32Y25.4
X30.48Y25.4
X27.94Y27.94
X20.32Y27.94
X17.78Y27.94
X12.7Y27.94
X12.7Y35.56
X38.1Y35.56
X38.1Y38.1
X12.7Y38.1
X7.62Y40.64
X12.7Y40.64
X38.1Y40.64
X38.1Y43.18
X12.7Y43.18
X12.7Y45.72
X38.1Y45.72
X38.1Y48.26
X12.7Y48.26
X12.7Y50.8
X38.1Y50.8
X7.87Y52.09
X7.27Y52.09
X5.08Y53.34
X12.7Y53.34
X38.1Y53.34
X38.1Y55.88
X12.7Y55.88
X5.08Y57.84
X38.1Y58.42
X33.02Y58.42
X25.4Y58.42
X12.7Y58.42
X7.27Y59.1
X7.87Y59.1
X38.1Y60.96
X12.7Y60.96
X12.7Y63.5
X38.1Y63.5
X38.1Y66.04
X12.7Y66.04
X12.7Y68.58
X38.1Y68.58
X38.1Y71.12
X12.7Y71.12
X12.7Y73.66
X38.1Y73.66
X38.1Y76.2
X12.7Y76.2
X12.7Y78.74
X38.1Y78.74
X38.1Y81.28
X12.7Y81.28
T3
X5.08Y5.08
X44.45Y5.08
X44.45Y69.85
X5.08Y69.85
T0
M30
