%TF.GenerationSoftware,KiCad,Pcbnew,(5.1.6)-1*%
%TF.CreationDate,2022-11-17T17:51:58-05:00*%
%TF.ProjectId,pcb,7063622e-6b69-4636-9164-5f7063625858,rev?*%
%TF.SameCoordinates,Original*%
%TF.FileFunction,Soldermask,Bot*%
%TF.FilePolarity,Negative*%
%FSLAX46Y46*%
G04 Gerber Fmt 4.6, Leading zero omitted, Abs format (unit mm)*
G04 Created by KiCad (PCBNEW (5.1.6)-1) date 2022-11-17 17:51:58*
%MOMM*%
%LPD*%
G01*
G04 APERTURE LIST*
%ADD10C,2.300000*%
%ADD11C,2.100000*%
%ADD12C,3.200000*%
G04 APERTURE END LIST*
D10*
%TO.C,U3*%
X5080000Y34290000D03*
X7620000Y34290000D03*
X10160000Y34290000D03*
X12700000Y34290000D03*
X15240000Y34290000D03*
X17780000Y34290000D03*
X20320000Y34290000D03*
X22860000Y34290000D03*
X25400000Y34290000D03*
X27940000Y34290000D03*
X30480000Y34290000D03*
X33020000Y34290000D03*
X35560000Y34290000D03*
X38100000Y34290000D03*
X40640000Y34290000D03*
X43180000Y34290000D03*
X45720000Y34290000D03*
X48260000Y34290000D03*
X50800000Y34290000D03*
X50800000Y8890000D03*
X48260000Y8890000D03*
X45720000Y8890000D03*
X43180000Y8890000D03*
X40640000Y8890000D03*
X38100000Y8890000D03*
X35560000Y8890000D03*
X33020000Y8890000D03*
X30480000Y8890000D03*
X27940000Y8890000D03*
X25400000Y8890000D03*
X22860000Y8890000D03*
X20320000Y8890000D03*
X17780000Y8890000D03*
X15240000Y8890000D03*
X12700000Y8890000D03*
X10160000Y8890000D03*
X7620000Y8890000D03*
X5080000Y8890000D03*
%TD*%
%TO.C,R1*%
X25400000Y30480000D03*
X17780000Y30480000D03*
%TD*%
%TO.C,R2*%
X12700000Y27940000D03*
X20320000Y27940000D03*
%TD*%
%TO.C,C1*%
X116840000Y10160000D03*
X116840000Y12700000D03*
%TD*%
%TO.C,C2*%
X57150000Y34290000D03*
X57150000Y36830000D03*
%TD*%
%TO.C,J1*%
X106680000Y3810000D03*
X104140000Y3810000D03*
X101600000Y3810000D03*
X99060000Y3810000D03*
%TD*%
%TO.C,J3*%
X71120000Y39370000D03*
X73660000Y39370000D03*
X76200000Y39370000D03*
X78740000Y39370000D03*
%TD*%
%TO.C,J4*%
X7620000Y39370000D03*
X5080000Y39370000D03*
%TD*%
%TO.C,J5*%
X50800000Y39370000D03*
X53340000Y39370000D03*
%TD*%
%TO.C,J6*%
X35560000Y39370000D03*
X38100000Y39370000D03*
X40640000Y39370000D03*
X43180000Y39370000D03*
X45720000Y39370000D03*
%TD*%
%TO.C,J7*%
X43180000Y3810000D03*
X45720000Y3810000D03*
X48260000Y3810000D03*
%TD*%
%TO.C,R3*%
X12700000Y15240000D03*
X20320000Y15240000D03*
%TD*%
%TO.C,U1*%
X66040000Y25400000D03*
X83820000Y17780000D03*
X68580000Y25400000D03*
X81280000Y17780000D03*
X71120000Y25400000D03*
X78740000Y17780000D03*
X73660000Y25400000D03*
X76200000Y17780000D03*
X76200000Y25400000D03*
X73660000Y17780000D03*
X78740000Y25400000D03*
X71120000Y17780000D03*
X81280000Y25400000D03*
X68580000Y17780000D03*
X83820000Y25400000D03*
X66040000Y17780000D03*
%TD*%
%TO.C,U2*%
X93980000Y17780000D03*
X111760000Y25400000D03*
X96520000Y17780000D03*
X109220000Y25400000D03*
X99060000Y17780000D03*
X106680000Y25400000D03*
X101600000Y17780000D03*
X104140000Y25400000D03*
X104140000Y17780000D03*
X101600000Y25400000D03*
X106680000Y17780000D03*
X99060000Y25400000D03*
X109220000Y17780000D03*
X96520000Y25400000D03*
X111760000Y17780000D03*
X93980000Y25400000D03*
%TD*%
%TO.C,R4*%
X22860000Y12700000D03*
X15240000Y12700000D03*
%TD*%
%TO.C,J8*%
X106680000Y38735000D03*
X104140000Y38735000D03*
X101600000Y38735000D03*
X99060000Y38735000D03*
%TD*%
%TO.C,J9*%
X71120000Y3810000D03*
X73660000Y3810000D03*
X76200000Y3810000D03*
X78740000Y3810000D03*
%TD*%
D11*
%TO.C,SW1*%
X27260000Y5080000D03*
D10*
X28520000Y2890000D03*
X33020000Y2890000D03*
D11*
X34270000Y5080000D03*
X27260000Y5680000D03*
X34270000Y5680000D03*
%TD*%
D10*
X74930000Y30480000D03*
X86360000Y30480000D03*
X88900000Y30480000D03*
X102870000Y30480000D03*
X74930000Y8255000D03*
X86360000Y8255000D03*
X88900000Y8255000D03*
X102870000Y8255000D03*
D12*
X13970000Y39370000D03*
X13970000Y3810000D03*
X116840000Y3810000D03*
X116840000Y39370000D03*
D10*
X63500000Y25400000D03*
X66040000Y27940000D03*
X54610000Y3810000D03*
X93980000Y27940000D03*
X93980000Y32385000D03*
X90805000Y25400000D03*
X114935000Y32385000D03*
X86360000Y17780000D03*
X54610000Y17780000D03*
X52070000Y17780000D03*
X19050000Y19050000D03*
X49530000Y17780000D03*
X48260000Y36830000D03*
X53975000Y36830000D03*
X93980000Y15240000D03*
X57150000Y17780000D03*
X96520000Y34925000D03*
X62497643Y34925000D03*
X81280000Y33020000D03*
X65543411Y32881589D03*
X67310000Y10160000D03*
X96520000Y10160000D03*
X81280000Y12700000D03*
X68580000Y12700000D03*
X109220000Y6350000D03*
X59690000Y6350000D03*
M02*
